<?xml version="1.0" encoding="utf-8" ?>
<svg xmlns="http://www.w3.org/2000/svg" xmlns:cc="http://creativecommons.org/ns#" xmlns:dc="http://purl.org/dc/elements/1.1/" xmlns:ev="http://www.w3.org/2001/xml-events" xmlns:inkscape="http://www.inkscape.org/namespaces/inkscape" xmlns:rdf="http://www.w3.org/1999/02/22-rdf-syntax-ns#" xmlns:sodipodi="http://sodipodi.sourceforge.net/DTD/sodipodi-0.dtd" xmlns:xlink="http://www.w3.org/1999/xlink" baseProfile="tiny" height="27.94cm" version="1.2" viewBox="0 0 1632.0 1056.0" width="43.18cm">
  <metadata>
    <rdf:RDF>
      <cc:Work>
        <dc:format>image/svg+xml</dc:format>
        <dc:source>vpype read /Users/cj/Documents/Projects/greeting-cards-2021/inside/person-maps/p1.svg pagesize 5.5inx8.5in ldelete 1 text --font scripts --position 75 330 --align center --size 26 --wrap 375 'This card travelled at least 8041 km to get to you' text --font cursive --position 40 500 --align left --size 28 --wrap 430 'Person 1,' text --font cursive --position 40 535 --align left --size 28 --wrap 430 'We hope you are doing as well as you can during these crazy times. Please take care and have a very happy new year! ' text --font cursive --position 40 715 --align left --size 28 --wrap 430 Best, text --font cursive --position 40 740 --align left --size 28 --wrap 430 'Colin and Ian' rotate 270 layout -l -h left -v top 11inx17in ldelete 3 linesort write /Users/cj/Documents/Projects/greeting-cards-2021/inside/11x17/individual/insides-arctext-onecard-11x17-0.svg
</dc:source>
        <dc:date>2022-02-09T18:39:13.388958</dc:date>
      </cc:Work>
    </rdf:RDF>
  </metadata>
  <defs/>
  <g fill="none" id="layer1" inkscape:groupmode="layer" inkscape:label="1" stroke="#00f" style="display:inline">
    <polyline points="324.8976,434.482 324.8976,435.8874 324.1949,437.2928 322.7895,437.9955 321.3841,437.2928 320.6814,435.1847 320.6814,433.0765 321.3841,430.2657 321.3841,428.1576 320.6814,426.7522"/>
    <polyline points="321.3841,430.2657 326.303,431.6711 330.5192,433.0765 333.33,434.482 334.7354,435.8874 335.4381,437.2928 335.4381,438.6982 334.7354,440.1036 333.33,440.8063 331.9246,440.8063 331.2219,440.1036 331.2219,438.6982 331.9246,437.2928"/>
    <polyline points="331.9246,428.1576 329.8165,426.7522 326.303,424.6441 324.8976,423.9414 322.7895,423.2387 321.3841,423.2387 320.6814,423.9414 321.3841,425.3468 322.7895,426.0495 325.6003,426.7522 329.8165,427.4549 335.4381,428.1576"/>
    <polyline points="335.4381,428.1576 333.33,427.4549 331.9246,426.7522 329.8165,425.3468 329.1138,423.9414 329.1138,422.536 329.8165,421.8333 331.2219,421.8333 333.33,422.536 334.7354,422.536 335.4381,421.8333 335.4381,421.1306 334.7354,419.7252 334.0327,419.0225 331.9246,417.6171"/>
    <polyline points="331.9246,417.6171 329.1138,416.2117 333.33,417.6171 334.7354,417.6171 335.4381,416.9144 335.4381,416.2117 334.7354,414.8063 334.0327,414.1036 331.9246,412.6982"/>
    <polyline points="331.9246,412.6982 329.8165,411.2928 328.4111,410.5901 329.8165,410.5901 331.9246,409.1847 333.33,408.482 334.7354,408.482 335.4381,409.8874"/>
    <polyline points="334.7354,412.6982 335.4381,411.2928 335.4381,408.482 334.7354,407.0765 334.0327,406.3738 331.9246,404.9684"/>
    <polygon points="325.6003,415.509 326.303,415.509 326.303,414.8063 325.6003,414.8063"/>
    <polyline points="330.5192,388.8063 329.8165,388.8063 329.1138,389.509 329.1138,390.9144 329.8165,392.3198 330.5192,393.0225 331.9246,393.7252 333.33,393.7252 334.7354,393.0225 335.4381,391.6171 335.4381,389.509 334.0327,387.4009 331.9246,385.9955"/>
    <polyline points="331.2219,379.6711 329.8165,380.3738 329.1138,381.7793 329.1138,383.1847 329.8165,384.5901 330.5192,385.2928 331.9246,385.9955 333.33,385.9955 334.7354,385.2928 335.4381,383.8874 335.4381,382.482 334.7354,381.0765 333.33,380.3738 329.1138,378.9684 332.6273,379.6711 334.7354,379.6711 335.4381,378.9684 335.4381,378.2657 334.7354,376.8603 334.0327,376.1576 331.9246,374.7522"/>
    <polyline points="331.9246,374.7522 329.8165,373.3468 328.4111,372.6441 329.8165,372.6441 329.8165,370.536 330.5192,369.8333 331.9246,369.8333 334.0327,370.536 334.7354,370.536 335.4381,369.8333 335.4381,369.1306 334.7354,367.7252 334.0327,367.0225 331.9246,365.6171"/>
    <polyline points="331.2219,359.2928 329.8165,359.9955 329.1138,361.4009 329.1138,362.8063 329.8165,364.2117 330.5192,364.9144 331.9246,365.6171 333.33,365.6171 334.7354,364.9144 335.4381,363.509 335.4381,362.1036 334.7354,360.6982 333.33,359.9955 320.6814,355.7793"/>
    <polyline points="329.1138,358.5901 332.6273,359.2928 334.7354,359.2928 335.4381,358.5901 335.4381,357.8874 334.7354,356.482 334.0327,355.7793 331.9246,354.3738"/>
    <polyline points="331.9246,343.1306 329.8165,341.7252 327.0057,340.3198"/>
    <line x1="326.303" x2="326.303" y1="342.4279" y2="337.509"/>
    <polyline points="320.6814,338.2117 333.33,342.4279 334.7354,342.4279 335.4381,341.7252 335.4381,340.3198 334.7354,338.9144 334.0327,338.2117 331.9246,336.8063"/>
    <polyline points="331.9246,336.8063 329.8165,335.4009 328.4111,334.6982 329.8165,334.6982 329.8165,332.5901 330.5192,331.8874 331.9246,331.8874 334.0327,332.5901 334.7354,332.5901 335.4381,331.8874 335.4381,331.1847 334.7354,329.7793 334.0327,329.0765 331.9246,327.6711"/>
    <polyline points="331.2219,321.3468 329.8165,322.0495 329.1138,323.4549 329.1138,324.8603 329.8165,326.2657 330.5192,326.9684 331.9246,327.6711 333.33,327.6711 334.7354,326.9684 335.4381,325.563 335.4381,324.1576 334.7354,322.7522 333.33,322.0495 329.1138,320.6441 332.6273,321.3468 334.7354,321.3468 335.4381,320.6441 335.4381,319.9414 334.7354,318.536 334.0327,317.8333 331.9246,316.4279"/>
    <polyline points="331.9246,316.4279 329.1138,315.0225 332.6273,315.7252 334.7354,315.7252 335.4381,315.0225 335.4381,314.3198 334.7354,312.2117 333.33,310.8063 331.2219,310.1036 329.1138,310.1036"/>
    <polyline points="329.1138,310.1036 331.9246,309.4009 332.6273,308.6982 332.6273,307.2928 331.9246,305.8874"/>
    <polyline points="334.0327,305.1847 333.33,303.7793 332.6273,303.0765 331.2219,302.3738 329.8165,302.3738 329.1138,303.0765 329.1138,303.7793 329.8165,305.1847 331.2219,305.8874 333.33,305.8874 334.7354,305.1847 335.4381,303.7793 335.4381,302.3738 334.7354,300.9684 334.0327,300.2657 331.9246,298.8603"/>
    <polyline points="331.9246,298.8603 329.8165,297.4549 326.303,295.3468 324.8976,294.6441 322.7895,293.9414 321.3841,293.9414 320.6814,294.6441 321.3841,296.0495 322.7895,296.7522 325.6003,297.4549 330.5192,298.1576 334.7354,298.1576 335.4381,297.4549 335.4381,296.7522 334.7354,295.3468 334.0327,294.6441 331.9246,293.2387"/>
    <polyline points="331.9246,293.2387 329.8165,291.8333 326.303,289.7252 324.8976,289.0225 322.7895,288.3198 321.3841,288.3198 320.6814,289.0225 321.3841,290.4279 322.7895,291.1306 325.6003,291.8333 330.5192,292.536 334.7354,292.536 335.4381,291.8333 335.4381,291.1306 334.7354,289.7252 334.0327,289.0225 331.9246,287.6171"/>
    <polyline points="334.0327,286.9144 333.33,285.509 332.6273,284.8063 331.2219,284.1036 329.8165,284.1036 329.1138,284.8063 329.1138,285.509 329.8165,286.9144 331.2219,287.6171 333.33,287.6171 334.7354,286.9144 335.4381,285.509 335.4381,284.1036 334.7354,282.6982 334.0327,281.9955 331.9246,280.5901"/>
    <polyline points="331.2219,274.2657 329.8165,274.9684 329.1138,276.3738 329.1138,277.7793 329.8165,279.1847 330.5192,279.8874 331.9246,280.5901 333.33,280.5901 334.7354,279.8874 335.4381,278.482 335.4381,277.0765 334.7354,275.6711 333.33,274.9684 320.6814,270.7522"/>
    <polyline points="329.1138,273.563 332.6273,274.2657 334.7354,274.2657 335.4381,273.563 335.4381,272.8603 334.7354,271.4549 334.0327,270.7522 331.9246,269.3468"/>
    <polyline points="346.6814,272.509 359.33,276.7252 360.7354,276.7252 361.4381,276.0225 361.4381,274.6171 360.7354,273.2117 360.0327,272.509 357.9246,271.1036"/>
    <line x1="352.303" x2="352.303" y1="271.8063" y2="276.7252"/>
    <polyline points="353.0057,274.6171 355.8165,276.0225 357.9246,277.4279"/>
    <polyline points="357.9246,277.4279 360.0327,278.8333 360.7354,279.536 361.4381,280.9414 361.4381,282.3468 360.7354,283.7522 359.33,284.4549 357.2219,284.4549 355.8165,283.7522 355.1138,282.3468 355.1138,281.6441 355.8165,280.9414 357.2219,280.9414 358.6273,281.6441 359.33,282.3468 360.0327,283.7522"/>
    <polyline points="357.9246,284.4549 360.0327,286.563 361.4381,288.6711 362.1408,290.0765 363.5462,292.1847 365.6543,294.2928 367.7624,294.9955 369.1679,294.9955 369.8706,294.2928 369.1679,292.8874 367.7624,292.1847 360.0327,289.3738 355.1138,287.9684"/>
    <polyline points="357.2219,288.6711 355.8165,289.3738 355.1138,290.7793 355.1138,292.1847 355.8165,293.5901 356.5192,294.2928 357.9246,294.9955 359.33,294.9955 360.7354,294.2928 361.4381,292.8874 361.4381,291.482 360.7354,290.0765 360.0327,289.3738"/>
    <polyline points="357.9246,306.2387 358.6273,306.9414 359.33,308.3468 359.33,310.4549 358.6273,311.8603 357.2219,312.563 355.8165,312.563 355.1138,311.8603 355.8165,310.4549 357.2219,309.7522 358.6273,309.7522 360.0327,310.4549 360.7354,311.1576 361.4381,312.563 361.4381,313.9684 360.7354,315.3738 359.33,316.0765 357.9246,316.0765 356.5192,315.3738 355.8165,314.6711 355.1138,313.2657 355.1138,311.8603"/>
    <polyline points="357.9246,316.0765 360.0327,317.482 360.7354,318.1847 361.4381,319.5901 361.4381,320.9955 360.7354,321.6982 359.33,321.6982 346.6814,317.482"/>
    <line x1="352.303" x2="352.303" y1="316.7793" y2="321.6982"/>
    <polyline points="353.0057,319.5901 355.8165,320.9955 357.9246,322.4009"/>
    <polyline points="357.9246,259.8603 355.8165,258.4549 353.0057,257.0495"/>
    <line x1="352.303" x2="352.303" y1="259.1576" y2="254.2387"/>
    <polyline points="346.6814,254.9414 359.33,259.1576 360.7354,259.1576 361.4381,258.4549 361.4381,257.0495 360.7354,255.6441 360.0327,254.9414 357.9246,253.536"/>
    <polyline points="355.1138,249.3198 355.1138,250.7252 355.8165,252.1306 356.5192,252.8333 357.9246,253.536 359.33,253.536 360.7354,252.8333 361.4381,251.4279 361.4381,250.0225 360.7354,248.6171 360.0327,247.9144 358.6273,247.2117 357.2219,247.2117 355.8165,247.9144 355.1138,249.3198 355.8165,250.0225 357.2219,250.0225 358.6273,249.3198 359.33,247.9144 359.33,245.8063 358.6273,244.4009 357.9246,243.6982"/>
    <polyline points="357.9246,232.4549 355.1138,231.0495 359.33,232.4549 360.7354,232.4549 361.4381,231.7522 361.4381,230.3468 360.7354,228.9414 359.33,227.536 357.2219,226.1306"/>
    <polyline points="355.1138,225.4279 367.7624,229.6441 369.1679,230.3468 369.8706,231.7522 369.1679,232.4549 367.7624,232.4549 365.6543,231.7522 363.5462,229.6441 362.1408,227.536 361.4381,226.1306 360.0327,224.0225 357.9246,221.9144"/>
    <polyline points="355.1138,217.6982 355.1138,219.1036 355.8165,220.509 356.5192,221.2117 357.9246,221.9144 359.33,221.9144 360.7354,221.2117 361.4381,219.8063 361.4381,218.4009 360.7354,216.9955 360.0327,216.2928 358.6273,215.5901 357.2219,215.5901 355.8165,216.2928 355.1138,217.6982 355.8165,218.4009 357.2219,218.4009 358.6273,217.6982 359.33,216.2928 359.33,214.1847 358.6273,212.7793 357.9246,212.0765"/>
    <polyline points="357.9246,212.0765 355.1138,210.6711 359.33,212.0765 360.7354,212.0765 361.4381,211.3738 361.4381,209.9684 360.7354,208.563 359.33,207.1576 357.2219,205.7522"/>
    <polyline points="355.1138,205.0495 359.33,206.4549 360.7354,206.4549 361.4381,205.7522 361.4381,205.0495 360.7354,203.6441 360.0327,202.9414 357.9246,201.536"/>
    <polyline points="335.4381,202.5901 334.7354,201.1847 333.33,201.1847 331.9246,201.8874 329.8165,203.2928 328.4111,203.2928 329.8165,203.9955 331.9246,205.4009"/>
    <polyline points="331.9246,205.4009 334.0327,206.8063 334.7354,207.509 335.4381,208.9144 335.4381,209.6171 334.7354,210.3198 332.6273,210.3198 329.1138,209.6171 333.33,211.0225 334.7354,211.7252 335.4381,213.1306 335.4381,214.536 334.7354,215.9414 333.33,216.6441 331.9246,216.6441 330.5192,215.9414 329.8165,215.2387 329.1138,213.8333 329.1138,212.4279 329.8165,211.0225 331.2219,210.3198"/>
    <polyline points="334.7354,205.4009 335.4381,203.9955 335.4381,201.1847 334.7354,199.7793 334.0327,199.0765 331.9246,197.6711"/>
    <polyline points="331.9246,197.6711 329.8165,196.2657 327.0057,194.8603"/>
    <line x1="326.303" x2="326.303" y1="196.9684" y2="192.0495"/>
    <polyline points="320.6814,192.7522 333.33,196.9684 334.7354,196.9684 335.4381,196.2657 335.4381,194.8603 334.7354,193.4549 334.0327,192.7522 331.9246,191.3468"/>
    <polyline points="335.4381,175.8874 334.7354,177.2928 333.33,177.9955 331.2219,177.9955 329.8165,177.2928 328.4111,175.8874 327.7084,173.7793"/>
    <polyline points="327.7084,173.7793 328.4111,176.5901 329.8165,177.9955 331.2219,178.6982 333.33,178.6982 334.7354,177.9955 335.4381,175.8874 335.4381,173.0765 334.7354,170.2657 334.0327,169.563 332.6273,168.8603 330.5192,168.8603 329.1138,169.563 328.4111,170.2657 327.7084,171.6711"/>
    <polyline points="327.7084,171.6711 327.0057,169.563 326.303,168.8603 324.8976,168.1576 322.7895,168.1576 321.3841,168.8603 320.6814,170.2657"/>
    <polygon points="320.6814,172.3738 321.3841,174.482 322.0868,175.1847 323.4922,175.8874 325.6003,175.8874 327.0057,175.1847 327.7084,173.7793 327.7084,171.6711 327.0057,168.8603 326.303,168.1576 324.8976,167.4549 322.7895,167.4549 321.3841,168.1576 320.6814,170.2657"/>
    <polyline points="320.6814,172.3738 321.3841,173.7793 322.0868,174.482 323.4922,175.1847 325.6003,175.1847 327.0057,174.482 327.7084,173.7793"/>
    <polyline points="328.4111,170.2657 329.8165,169.563 332.6273,169.563 334.0327,170.2657 334.7354,170.9684 335.4381,173.0765"/>
    <polyline points="335.4381,160.4279 334.0327,161.8333 331.9246,162.536 329.8165,162.536 327.0057,161.8333 324.8976,161.1306 322.7895,159.7252 321.3841,158.3198 320.6814,156.9144"/>
    <polygon points="320.6814,156.9144 321.3841,159.0225 322.7895,160.4279 324.8976,161.8333 327.0057,162.536 329.8165,163.2387 331.9246,163.2387 334.0327,162.536 334.7354,161.8333 335.4381,160.4279 335.4381,159.0225 334.7354,156.9144 333.33,155.509 331.2219,154.1036 329.1138,153.4009 326.303,152.6982 324.1949,152.6982 322.0868,153.4009 321.3841,154.1036 320.6814,155.509"/>
    <polyline points="320.6814,155.509 322.0868,154.1036 324.1949,153.4009 326.303,153.4009 329.1138,154.1036 331.2219,154.8063 333.33,156.2117 334.7354,157.6171 335.4381,159.0225"/>
    <line x1="335.4381" x2="321.3841" y1="143.563" y2="139.3468"/>
    <polyline points="320.6814,138.6441 331.2219,149.1847 331.2219,137.9414"/>
    <line x1="335.4381" x2="320.6814" y1="142.8603" y2="138.6441"/>
    <polyline points="324.8976,131.6171 324.1949,130.2117 322.7895,128.1036 320.6814,125.9955"/>
    <line x1="320.6814" x2="335.4381" y1="125.9955" y2="130.2117"/>
    <line x1="335.4381" x2="323.4922" y1="130.9144" y2="127.4009"/>
    <polyline points="322.7895,126.6982 324.1949,129.509 324.8976,131.6171"/>
    <polyline points="331.9246,109.8333 329.8165,108.4279 326.303,106.3198 324.8976,105.6171 322.7895,104.9144 321.3841,104.9144 320.6814,105.6171 321.3841,107.0225 322.7895,107.7252 325.6003,108.4279 329.8165,109.1306 335.4381,109.8333"/>
    <polyline points="335.4381,109.8333 333.33,109.1306 331.9246,108.4279 329.8165,107.0225 329.1138,105.6171 329.1138,104.2117 329.8165,103.509 331.2219,103.509 331.9246,104.9144 331.9246,107.0225"/>
    <polyline points="331.9246,107.0225 332.6273,105.6171 334.7354,104.9144 335.4381,104.2117 335.4381,103.509 334.7354,102.1036 334.0327,101.4009 331.9246,99.9955"/>
    <polyline points="331.9246,99.9955 329.8165,98.5901 329.1138,97.1847 329.8165,96.482 330.5192,96.482 333.33,97.1847 335.4381,97.8874"/>
    <polyline points="333.33,97.1847 331.9246,96.482 329.8165,95.0765 329.1138,93.6711 329.1138,92.2657 329.8165,91.563 330.5192,91.563 333.33,92.2657 335.4381,92.9684"/>
    <polyline points="333.33,92.2657 331.9246,91.563 329.8165,90.1576 329.1138,88.7522 329.1138,87.3468 329.8165,86.6441 331.2219,86.6441 333.33,87.3468 334.7354,87.3468 335.4381,86.6441 335.4381,85.9414 334.7354,84.536 334.0327,83.8333 331.9246,82.4279"/>
    <polyline points="331.9246,216.6441 334.0327,218.0495 334.7354,218.7522 335.4381,220.1576 335.4381,221.563 334.7354,222.9684 333.33,223.6711 331.2219,223.6711 329.8165,222.9684 329.1138,221.563 329.1138,220.8603 329.8165,220.1576 331.2219,220.1576 332.6273,220.8603 333.33,221.563 334.0327,222.9684"/>
    <polyline points="331.9246,223.6711 334.0327,225.0765 334.7354,225.7793 335.4381,227.1847 335.4381,227.8874 334.7354,228.5901 330.5192,228.5901 325.6003,227.8874 322.7895,227.1847 321.3841,226.482 320.6814,225.0765 321.3841,224.3738 322.7895,224.3738 324.8976,225.0765 326.303,225.7793 329.8165,227.8874 331.9246,229.2928"/>
    <polyline points="331.9246,240.536 334.0327,241.9414 334.7354,242.6441 335.4381,244.0495 335.4381,245.4549 334.7354,246.1576 333.33,246.1576 320.6814,241.9414"/>
    <line x1="326.303" x2="326.303" y1="241.2387" y2="246.1576"/>
    <polyline points="327.0057,244.0495 329.8165,245.4549 331.9246,246.8603"/>
    <polyline points="331.9246,246.8603 334.0327,248.2657 334.7354,248.9684 335.4381,250.3738 335.4381,251.0765 334.7354,251.7793 332.6273,251.7793 329.1138,251.0765 333.33,252.482 334.7354,253.1847 335.4381,254.5901 335.4381,255.9955 334.7354,257.4009 333.33,258.1036 331.9246,258.1036 330.5192,257.4009 329.8165,256.6982 329.1138,255.2928 329.1138,253.8874 329.8165,252.482 331.2219,251.7793"/>
    <polyline points="525.0327,293.009 538.6543,297.5495 540.1679,298.3063 540.9246,299.8198 540.9246,301.3333 540.1679,302.8468 538.6543,303.6036 537.1408,303.6036 535.6273,302.8468 534.8706,302.0901 534.1138,300.5765 534.1138,299.063 534.8706,297.5495 536.3841,296.7928"/>
    <polyline points="534.1138,296.036 537.8976,296.7928 540.1679,296.7928 540.9246,296.036 540.9246,295.2793 540.1679,293.7657 539.4111,293.009 537.1408,291.4955"/>
    <polyline points="534.1138,286.9549 534.1138,288.4684 534.8706,289.982 535.6273,290.7387 537.1408,291.4955 538.6543,291.4955 540.1679,290.7387 540.9246,289.2252 540.9246,287.7117 540.1679,286.1982 539.4111,285.4414 537.8976,284.6847 536.3841,284.6847 534.8706,285.4414 534.1138,286.9549 534.8706,287.7117 536.3841,287.7117 537.8976,286.9549 538.6543,285.4414 538.6543,283.1711 537.8976,281.6576 537.1408,280.9009"/>
    <polyline points="537.1408,280.9009 534.1138,279.3874 538.6543,280.9009 540.1679,280.9009 540.9246,280.1441 540.9246,279.3874 540.1679,277.8738 539.4111,277.1171 537.1408,275.6036"/>
    <polyline points="537.1408,275.6036 534.8706,274.0901 534.1138,272.5765 534.8706,271.8198 535.6273,271.8198 538.6543,272.5765 540.9246,273.3333"/>
    <polyline points="538.6543,272.5765 537.1408,271.8198 534.8706,270.3063 534.1138,268.7928 534.1138,267.2793 534.8706,266.5225 536.3841,266.5225 538.6543,267.2793 540.1679,267.2793 540.9246,266.5225 540.9246,265.7657 540.1679,264.2522 539.4111,263.4955 537.1408,261.982"/>
    <polyline points="539.4111,255.9279 540.1679,256.6847 540.9246,258.1982 540.9246,259.7117 540.1679,261.2252 538.6543,261.982 537.1408,261.982 535.6273,261.2252 534.8706,260.4684 534.1138,258.9549 534.1138,257.4414 534.8706,255.9279 536.3841,255.1711"/>
    <polyline points="534.1138,254.4144 539.4111,255.9279 547.7354,258.9549 549.2489,259.7117 550.0057,261.2252 549.2489,261.982 547.7354,261.982 545.4651,261.2252 543.1949,258.9549 541.6814,256.6847 540.9246,255.1711 539.4111,252.9009 537.1408,250.6306"/>
    <polyline points="536.3841,231.7117 534.8706,232.4684 534.1138,233.982 534.1138,235.4955 534.8706,237.009 535.6273,237.7657 537.1408,238.5225 538.6543,238.5225 540.1679,237.7657 540.9246,236.2522 540.9246,234.7387 540.1679,233.2252 538.6543,232.4684 534.1138,230.9549 537.8976,231.7117 540.1679,231.7117 540.9246,230.9549 540.9246,230.1982 540.1679,228.6847 539.4111,227.9279 537.1408,226.4144"/>
    <polyline points="537.1408,226.4144 534.8706,224.9009 533.357,224.1441 534.8706,224.1441 537.1408,222.6306 538.6543,221.8738 540.1679,221.8738 540.9246,223.3874"/>
    <polyline points="540.1679,226.4144 540.9246,224.9009 540.9246,221.8738 540.1679,220.3603 539.4111,219.6036 537.1408,218.0901"/>
    <polyline points="534.1138,203.7117 535.6273,205.2252 537.8976,205.982 539.4111,205.982 540.9246,205.2252 540.9246,203.7117 540.1679,202.1982 538.6543,200.6847"/>
    <polyline points="534.1138,199.1711 538.6543,200.6847 540.1679,200.6847 540.9246,199.9279 540.9246,198.4144 540.1679,196.9009 538.6543,195.3874 536.3841,194.6306 534.1138,194.6306"/>
    <polyline points="534.1138,194.6306 537.1408,193.8738 537.8976,193.1171 537.8976,191.6036 537.1408,190.0901"/>
    <polyline points="539.4111,189.3333 538.6543,187.8198 537.8976,187.063 536.3841,186.3063 534.8706,186.3063 534.1138,187.063 534.1138,187.8198 534.8706,189.3333 536.3841,190.0901 538.6543,190.0901 540.1679,189.3333 540.9246,187.8198 540.9246,186.3063 540.1679,184.7928 539.4111,184.036 537.1408,182.5225"/>
    <polyline points="537.1408,182.5225 534.8706,181.009 531.0868,178.7387 529.5733,177.982 527.303,177.2252 525.7895,177.2252 525.0327,177.982 525.7895,179.4955 527.303,180.2522 530.33,181.009 535.6273,181.7657 540.1679,181.7657 540.9246,181.009 540.9246,180.2522 540.1679,178.7387 539.4111,177.982 537.1408,176.4684"/>
    <polyline points="537.1408,176.4684 534.8706,174.9549 531.0868,172.6847 529.5733,171.9279 527.303,171.1711 525.7895,171.1711 525.0327,171.9279 525.7895,173.4414 527.303,174.1982 530.33,174.9549 535.6273,175.7117 540.1679,175.7117 540.9246,174.9549 540.9246,174.1982 540.1679,172.6847 539.4111,171.9279 537.1408,170.4144"/>
    <polyline points="554.5462,169.6576 555.303,168.9009 557.5733,168.9009 560.6003,169.6576 562.8706,170.4144 564.3841,171.1711 566.6543,172.6847 568.1679,174.1982 568.9246,175.7117 568.9246,176.4684 568.1679,177.2252 565.8976,177.2252 562.1138,176.4684 559.8435,175.7117 558.33,174.9549 556.0597,173.4414 554.5462,171.9279 553.7895,170.4144 553.0327,168.1441 553.0327,164.3603 553.7895,162.8468 554.5462,162.0901 556.0597,161.3333 558.33,161.3333 559.8435,162.0901 560.6003,162.8468 561.357,164.3603 561.357,166.6306 560.6003,168.1441 559.8435,168.9009"/>
    <polyline points="565.1408,160.5765 562.8706,159.063 559.0868,156.7928 557.5733,156.036 555.303,155.2793 553.7895,155.2793 553.0327,156.036 553.7895,157.5495 555.303,158.3063 558.33,159.063 563.6273,159.8198 568.1679,159.8198 568.9246,159.063 568.9246,158.3063 568.1679,156.7928 567.4111,156.036 565.1408,154.5225"/>
    <polyline points="567.4111,153.7657 566.6543,152.2522 565.8976,151.4955 564.3841,150.7387 562.8706,150.7387 562.1138,151.4955 562.1138,152.2522 562.8706,153.7657 564.3841,154.5225 566.6543,154.5225 568.1679,153.7657 568.9246,152.2522 568.9246,150.7387 568.1679,149.2252 567.4111,148.4684 565.1408,146.9549"/>
    <polyline points="564.3841,140.1441 562.8706,140.9009 562.1138,142.4144 562.1138,143.9279 562.8706,145.4414 563.6273,146.1982 565.1408,146.9549 566.6543,146.9549 568.1679,146.1982 568.9246,144.6847 568.9246,143.1711 568.1679,141.6576 566.6543,140.9009 562.1138,139.3874 565.8976,140.1441 568.1679,140.1441 568.9246,139.3874 568.9246,138.6306 568.1679,137.1171 567.4111,136.3603 565.1408,134.8468"/>
    <polyline points="565.1408,134.8468 562.8706,133.3333 561.357,132.5765 562.8706,132.5765 565.1408,131.063 566.6543,130.3063 568.1679,130.3063 568.9246,131.8198"/>
    <polyline points="568.1679,134.8468 568.9246,133.3333 568.9246,130.3063 568.1679,128.7928 567.4111,128.036 565.1408,126.5225"/>
    <polyline points="567.4111,125.7657 566.6543,124.2522 565.8976,123.4955 564.3841,122.7387 562.8706,122.7387 562.1138,123.4955 562.1138,124.2522 562.8706,125.7657 564.3841,126.5225 566.6543,126.5225 568.1679,125.7657 568.9246,124.2522 568.9246,122.7387 568.1679,121.2252 567.4111,120.4684 565.1408,118.9549"/>
    <polyline points="565.1408,106.8468 562.8706,105.3333 559.8435,103.8198"/>
    <line x1="559.0868" x2="559.0868" y1="106.0901" y2="100.7928"/>
    <polyline points="553.0327,101.5495 566.6543,106.0901 568.1679,106.0901 568.9246,105.3333 568.9246,103.8198 568.1679,102.3063 567.4111,101.5495 565.1408,100.036"/>
    <polyline points="564.3841,93.2252 562.8706,93.982 562.1138,95.4955 562.1138,97.009 562.8706,98.5225 563.6273,99.2793 565.1408,100.036 566.6543,100.036 568.1679,99.2793 568.9246,97.7657 568.9246,96.2522 568.1679,94.7387 566.6543,93.982 562.1138,92.4684 565.8976,93.2252 568.1679,93.2252 568.9246,92.4684 568.9246,91.7117 568.1679,90.1982 567.4111,89.4414 565.1408,87.9279"/>
    <polyline points="565.1408,87.9279 562.8706,86.4144 559.0868,84.1441 557.5733,83.3874 555.303,82.6306 553.7895,82.6306 553.0327,83.3874 553.7895,84.9009 555.303,85.6576 558.33,86.4144 562.8706,87.1711 568.9246,87.9279"/>
    <polyline points="568.9246,87.9279 566.6543,87.1711 565.1408,86.4144 562.8706,84.9009 562.1138,83.3874 562.1138,81.8738 562.8706,81.1171 564.3841,81.1171 565.1408,82.6306 565.1408,84.9009"/>
    <polyline points="565.1408,84.9009 565.8976,83.3874 568.1679,82.6306 568.9246,81.8738 568.9246,81.1171 568.1679,79.6036 567.4111,78.8468 565.1408,77.3333"/>
    <polyline points="567.4111,76.5765 566.6543,75.063 565.8976,74.3063 564.3841,73.5495 562.8706,73.5495 562.1138,74.3063 562.1138,75.063 562.8706,76.5765 564.3841,77.3333 566.6543,77.3333 568.1679,76.5765 568.9246,75.063 568.9246,73.5495 568.1679,72.036 567.4111,71.2793 565.1408,69.7657"/>
    <line x1="581.0327" x2="591.6273" y1="90.1982" y2="90.1982"/>
    <polygon points="595.4111,90.1982 596.1679,90.9549 596.9246,90.1982 596.1679,89.4414"/>
    <polyline points="593.1408,93.982 595.4111,95.4955 596.1679,96.2522 596.9246,97.7657 596.9246,98.5225 596.1679,99.2793 595.4111,99.2793 593.1408,98.5225 591.6273,98.5225 590.8706,99.2793 590.8706,101.5495 589.357,101.5495 590.8706,102.3063 593.1408,103.8198"/>
    <polyline points="593.1408,103.8198 595.4111,105.3333 596.1679,106.0901 596.9246,107.6036 596.9246,108.3603 596.1679,109.1171 593.8976,109.1171 590.1138,108.3603 594.6543,109.8738 596.1679,110.6306 596.9246,112.1441 596.9246,113.6576 596.1679,115.1711 594.6543,115.9279 593.1408,115.9279 591.6273,115.1711 590.8706,114.4144 590.1138,112.9009 590.1138,111.3874 590.8706,109.8738 592.3841,109.1171"/>
    <polyline points="593.1408,115.9279 595.4111,117.4414 596.1679,118.1982 596.9246,119.7117 596.9246,121.2252 596.1679,122.7387 594.6543,123.4955 592.3841,123.4955 590.8706,122.7387 590.1138,121.2252 590.1138,120.4684 590.8706,119.7117 592.3841,119.7117 593.8976,120.4684 594.6543,121.2252 595.4111,122.7387"/>
    <polyline points="593.1408,123.4955 595.4111,125.7657 596.9246,128.036 597.6814,129.5495 599.1949,131.8198 601.4651,134.0901 603.7354,134.8468 605.2489,134.8468 606.0057,134.0901 605.2489,132.5765 603.7354,131.8198 590.1138,127.2793"/>
    <polyline points="592.3841,128.036 594.6543,129.5495 596.1679,131.063 596.9246,132.5765 596.9246,134.0901 596.1679,134.8468 594.6543,134.8468 590.1138,133.3333 593.1408,134.8468"/>
    <polyline points="593.1408,146.9549 593.8976,148.4684 593.8976,149.982 593.1408,150.7387 590.1138,151.4955"/>
    <polyline points="590.1138,151.4955 592.3841,151.4955 594.6543,152.2522 596.1679,153.7657 596.9246,155.2793 596.9246,156.7928 596.1679,157.5495 594.6543,157.5495 590.1138,156.036"/>
    <polyline points="590.1138,160.5765 591.6273,162.0901 593.8976,162.8468 595.4111,162.8468 596.9246,162.0901 596.9246,160.5765 596.1679,159.063 594.6543,157.5495"/>
    <polyline points="593.1408,162.8468 595.4111,164.3603 596.1679,165.1171 596.9246,166.6306 596.9246,168.1441 596.1679,169.6576 594.6543,170.4144 592.3841,170.4144 590.8706,169.6576 590.1138,168.1441 590.1138,167.3874 590.8706,166.6306 592.3841,166.6306 593.8976,167.3874 594.6543,168.1441 595.4111,169.6576"/>
    <polyline points="593.1408,170.4144 595.4111,171.9279 596.1679,172.6847 596.9246,174.1982 596.9246,174.9549 596.1679,175.7117 594.6543,175.7117 592.3841,174.9549 590.8706,174.9549 590.1138,175.7117 590.1138,177.2252 590.8706,178.7387 593.1408,180.2522 594.6543,181.009"/>
    <polyline points="596.9246,181.7657 594.6543,181.009 591.6273,180.2522 590.8706,180.2522 590.1138,181.009 590.8706,182.5225 593.1408,184.036"/>
    <polyline points="593.1408,196.1441 595.4111,198.4144 596.9246,200.6847 597.6814,202.1982 599.1949,204.4684 601.4651,206.7387 603.7354,207.4955 605.2489,207.4955 606.0057,206.7387 605.2489,205.2252 603.7354,204.4684 590.1138,199.9279"/>
    <polyline points="592.3841,200.6847 594.6543,202.1982 596.1679,203.7117 596.9246,205.2252 596.9246,206.7387 596.1679,207.4955 594.6543,207.4955 590.1138,205.982 593.1408,207.4955"/>
    <polyline points="593.1408,207.4955 595.4111,209.7657 596.1679,211.2793 596.9246,213.5495 596.9246,215.8198 596.1679,217.3333"/>
    <polyline points="596.9246,214.3063 596.1679,212.7928 595.4111,212.036 593.8976,211.2793 592.3841,211.2793 590.8706,212.036 590.1138,213.5495 590.1138,215.063 590.8706,216.5765 592.3841,217.3333"/>
    <polyline points="593.1408,218.8468 590.8706,217.3333 589.357,216.5765 592.3841,217.3333 606.0057,221.8738"/>
    <polyline points="596.9246,225.6576 596.1679,224.1441 595.4111,223.3874 593.8976,222.6306 592.3841,222.6306 590.8706,223.3874 590.1138,224.9009 590.1138,226.4144 590.8706,227.9279 592.3841,228.6847"/>
    <polyline points="593.1408,230.1982 590.8706,228.6847 589.357,227.9279 592.3841,228.6847 606.0057,233.2252"/>
    <polyline points="596.1679,228.6847 596.9246,227.1711 596.9246,224.9009 596.1679,222.6306 595.4111,221.1171 593.1408,218.8468"/>
    <polyline points="593.1408,230.1982 595.4111,231.7117 596.1679,232.4684 596.9246,233.982 596.9246,234.7387 596.1679,235.4955 593.8976,235.4955 590.1138,234.7387 594.6543,236.2522 596.1679,237.009 596.9246,238.5225 596.9246,240.036 596.1679,241.5495 594.6543,242.3063 593.1408,242.3063 591.6273,241.5495 590.8706,240.7928 590.1138,239.2793 590.1138,237.7657 590.8706,236.2522 592.3841,235.4955"/>
    <polyline points="593.1408,242.3063 595.4111,243.8198 596.1679,244.5765 596.9246,246.0901 596.9246,246.8468 596.1679,247.6036 594.6543,247.6036 592.3841,246.8468 590.8706,246.8468 590.1138,247.6036 590.1138,249.1171 590.8706,250.6306 593.1408,252.1441 594.6543,252.9009 596.9246,253.6576"/>
    <polyline points="596.9246,253.6576 590.8706,252.9009 586.33,252.1441 583.303,251.3874 581.7895,250.6306 581.0327,249.1171 581.7895,248.3603 583.303,248.3603 585.5733,249.1171 587.0868,249.8738 590.8706,252.1441 593.1408,253.6576"/>
    <polyline points="593.1408,265.7657 595.4111,268.036 596.9246,270.3063 597.6814,271.8198 599.1949,274.0901 601.4651,276.3603 603.7354,277.1171 605.2489,277.1171 606.0057,276.3603 605.2489,274.8468 603.7354,274.0901 590.1138,269.5495"/>
    <polyline points="592.3841,270.3063 594.6543,271.8198 596.1679,273.3333 596.9246,274.8468 596.9246,276.3603 596.1679,277.1171 594.6543,277.1171 590.1138,275.6036 593.1408,277.1171"/>
    <polyline points="593.1408,277.1171 595.4111,278.6306 596.1679,279.3874 596.9246,280.9009 596.9246,281.6576 596.1679,282.4144 595.4111,282.4144 593.1408,281.6576 591.6273,281.6576 590.8706,282.4144 590.8706,284.6847 589.357,284.6847 590.8706,285.4414 593.1408,286.9549"/>
    <polyline points="593.1408,286.9549 595.4111,288.4684 596.1679,289.2252 596.9246,290.7387 596.9246,292.2522 596.1679,293.7657 594.6543,294.5225 592.3841,294.5225 590.8706,293.7657 590.1138,292.2522 590.1138,291.4955 590.8706,290.7387 592.3841,290.7387 593.8976,291.4955 594.6543,292.2522 595.4111,293.7657"/>
    <polyline points="593.1408,294.5225 593.8976,296.036 593.8976,297.5495 593.1408,298.3063 590.1138,299.063"/>
    <polyline points="590.1138,299.063 592.3841,299.063 594.6543,299.8198 596.1679,301.3333 596.9246,303.6036 596.9246,304.3603 596.1679,305.1171 593.8976,305.1171 590.1138,304.3603 593.1408,305.8738"/>
    <polyline points="593.1408,317.982 595.4111,319.4955 596.1679,320.2522 596.9246,321.7657 596.9246,322.5225 596.1679,323.2793 593.8976,323.2793 590.1138,322.5225 594.6543,324.036 596.1679,324.7928 596.9246,326.3063 596.9246,327.8198 596.1679,329.3333 594.6543,330.0901 593.1408,330.0901 591.6273,329.3333 590.8706,328.5765 590.1138,327.063 590.1138,325.5495 590.8706,324.036 592.3841,323.2793"/>
    <polyline points="593.1408,342.1982 595.4111,343.7117 596.1679,344.4684 596.9246,345.982 596.9246,347.4955 596.1679,349.009 594.6543,349.7657 592.3841,349.7657 590.8706,349.009 590.1138,347.4955 590.1138,346.7387 590.8706,345.982 592.3841,345.982 593.8976,346.7387 594.6543,347.4955 595.4111,349.009"/>
    <polyline points="593.1408,349.7657 593.8976,351.2793 593.8976,352.7928 593.1408,353.5495 590.1138,354.3063"/>
    <polyline points="590.1138,354.3063 592.3841,354.3063 594.6543,355.063 596.1679,356.5765 596.9246,358.8468 596.9246,359.6036 596.1679,360.3603 593.8976,360.3603 590.1138,359.6036 593.1408,361.1171"/>
    <polyline points="593.1408,361.1171 595.4111,362.6306 596.1679,363.3874 596.9246,364.9009 596.9246,365.6576 596.1679,366.4144 593.8976,366.4144 590.1138,365.6576 594.6543,367.1711 596.1679,367.9279 596.9246,369.4414 596.9246,370.9549 596.1679,372.4684 594.6543,373.2252 593.1408,373.2252 591.6273,372.4684 590.8706,371.7117 590.1138,370.1982 590.1138,368.6847 590.8706,367.1711 592.3841,366.4144"/>
    <polyline points="593.1408,373.2252 595.4111,374.7387 596.1679,375.4955 596.9246,377.009 596.9246,377.7657 596.1679,378.5225 594.6543,378.5225 592.3841,377.7657 590.8706,377.7657 590.1138,378.5225 590.1138,380.036 590.8706,381.5495 593.1408,383.063 594.6543,383.8198 596.9246,384.5765"/>
    <polyline points="596.9246,384.5765 590.8706,383.8198 586.33,383.063 583.303,382.3063 581.7895,381.5495 581.0327,380.036 581.7895,379.2793 583.303,379.2793 585.5733,380.036 587.0868,380.7928 590.8706,383.063 593.1408,384.5765"/>
    <polyline points="593.1408,396.6847 595.4111,398.1982 596.1679,398.9549 596.9246,400.4684 596.9246,401.2252 596.1679,401.982 593.8976,401.982 590.1138,401.2252"/>
    <polyline points="592.3841,401.982 590.8706,402.7387 590.1138,404.2522 590.1138,405.7657 590.8706,407.2793 591.6273,408.036 593.1408,408.7928 594.6543,408.7928 596.1679,408.036 596.9246,406.5225 596.9246,405.009 596.1679,403.4955 594.6543,402.7387 581.0327,398.1982"/>
    <polyline points="568.9246,397.4414 566.6543,396.6847 563.6273,395.9279 562.8706,395.9279 562.1138,396.6847 562.8706,398.1982 565.1408,399.7117"/>
    <polyline points="565.1408,399.7117 567.4111,401.2252 568.1679,401.982 568.9246,403.4955 568.9246,404.2522 568.1679,405.009 566.6543,405.009 562.1138,403.4955 565.1408,405.009"/>
    <polyline points="565.1408,405.009 567.4111,406.5225 568.1679,407.2793 568.9246,408.7928 568.9246,409.5495 568.1679,410.3063 567.4111,410.3063 565.1408,409.5495 563.6273,409.5495 562.8706,410.3063 562.8706,412.5765 561.357,412.5765 562.8706,413.3333 565.1408,414.8468"/>
    <polyline points="565.1408,414.8468 567.4111,416.3603 568.1679,417.1171 568.9246,418.6306 568.9246,419.3874 568.1679,420.1441 566.6543,420.1441 562.1138,418.6306"/>
    <polyline points="564.3841,419.3874 566.6543,420.9009 568.1679,422.4144 568.9246,423.9279 568.9246,425.4414 568.1679,426.1982 566.6543,426.1982 562.1138,424.6847 565.1408,426.1982"/>
    <polyline points="565.1408,426.1982 567.4111,427.7117 568.1679,428.4684 568.9246,429.982 568.9246,430.7387 568.1679,431.4955 565.8976,431.4955 562.1138,430.7387"/>
    <polyline points="564.3841,431.4955 562.8706,432.2522 562.1138,433.7657 562.1138,435.2793 562.8706,436.7928 563.6273,437.5495 565.1408,438.3063 566.6543,438.3063 568.1679,437.5495 568.9246,436.036 568.9246,434.5225 568.1679,433.009 566.6543,432.2522 553.0327,427.7117"/>
    <polyline points="550.0057,424.6847 536.3841,420.1441 533.357,419.3874 534.8706,420.1441 537.1408,421.6576"/>
    <polyline points="537.1408,421.6576 537.8976,422.4144 538.6543,423.9279 538.6543,426.1982 537.8976,427.7117 536.3841,428.4684 534.8706,428.4684 534.1138,427.7117 534.8706,426.1982 536.3841,425.4414 537.8976,425.4414 539.4111,426.1982 540.1679,426.9549 540.9246,428.4684 540.9246,429.982 540.1679,431.4955 538.6543,432.2522 537.1408,432.2522 535.6273,431.4955 534.8706,430.7387 534.1138,429.2252 534.1138,427.7117"/>
    <polyline points="537.1408,432.2522 539.4111,433.7657 540.1679,434.5225 540.9246,436.036 540.9246,436.7928 540.1679,437.5495 538.6543,437.5495 536.3841,436.7928 534.8706,436.7928 534.1138,437.5495 534.1138,439.063 534.8706,440.5765 537.1408,442.0901 538.6543,442.8468 540.9246,443.6036"/>
    <polyline points="540.9246,443.6036 534.8706,442.8468 530.33,442.0901 527.303,441.3333 525.7895,440.5765 525.0327,439.063 525.7895,438.3063 527.303,438.3063 529.5733,439.063 531.0868,439.8198 534.8706,442.0901 537.1408,443.6036"/>
    <polyline points="537.1408,455.7117 539.4111,457.2252 540.1679,457.982 540.9246,459.4955 540.9246,461.009 540.1679,462.5225 538.6543,463.2793 536.3841,463.2793 534.8706,462.5225 534.1138,461.009 534.1138,460.2522 534.8706,459.4955 536.3841,459.4955 537.8976,460.2522 538.6543,461.009 539.4111,462.5225"/>
    <polyline points="540.9246,472.3603 535.6273,470.0901 531.0868,467.8198 528.0597,465.5495 525.7895,463.2793 525.0327,461.7657"/>
    <line x1="525.0327" x2="540.9246" y1="470.8468" y2="472.3603"/>
    <line x1="540.9246" x2="525.0327" y1="478.4144" y2="470.8468"/>
    <polyline points="530.33,480.6847 529.5733,482.1982 528.0597,482.9549 527.303,482.9549 525.7895,482.1982 525.0327,480.6847 525.0327,479.9279 525.7895,478.4144 527.303,477.6576 529.5733,477.6576 540.9246,478.4144"/>
    <polyline points="563.6273,479.1711 562.8706,479.1711 562.1138,479.9279 562.1138,481.4414 562.8706,482.9549 563.6273,483.7117 565.1408,484.4684 566.6543,484.4684 568.1679,483.7117 568.9246,482.1982 568.9246,479.9279 567.4111,477.6576 565.1408,476.1441"/>
    <polyline points="564.3841,469.3333 562.8706,470.0901 562.1138,471.6036 562.1138,473.1171 562.8706,474.6306 563.6273,475.3874 565.1408,476.1441 566.6543,476.1441 568.1679,475.3874 568.9246,473.8738 568.9246,472.3603 568.1679,470.8468 566.6543,470.0901 562.1138,468.5765 565.8976,469.3333 568.1679,469.3333 568.9246,468.5765 568.9246,467.8198 568.1679,466.3063 567.4111,465.5495 565.1408,464.036"/>
    <polyline points="565.1408,464.036 562.8706,462.5225 562.1138,461.009 562.8706,460.2522 563.6273,460.2522 566.6543,461.009 568.9246,461.7657"/>
    <polyline points="566.6543,461.009 565.1408,460.2522 562.8706,458.7387 562.1138,457.2252 562.1138,455.7117 562.8706,454.9549 564.3841,454.9549 566.6543,455.7117 568.1679,455.7117 568.9246,454.9549 568.9246,454.1982 568.1679,452.6847 567.4111,451.9279 565.1408,450.4144"/>
    <polyline points="593.1408,446.6306 595.4111,448.1441 596.1679,448.9009 596.9246,450.4144 596.9246,451.9279 596.1679,453.4414 594.6543,454.1982 592.3841,454.1982 590.8706,453.4414 590.1138,451.9279 590.1138,451.1711 590.8706,450.4144 592.3841,450.4144 593.8976,451.1711 594.6543,451.9279 595.4111,453.4414"/>
    <polyline points="593.1408,454.1982 595.4111,455.7117 596.1679,456.4684 596.9246,457.982 596.9246,458.7387 596.1679,459.4955 595.4111,459.4955 593.1408,458.7387 591.6273,458.7387 590.8706,459.4955 590.8706,461.7657 589.357,461.7657 590.8706,462.5225 593.1408,464.036"/>
    <polyline points="593.1408,464.036 595.4111,465.5495 596.1679,466.3063 596.9246,467.8198 596.9246,468.5765 596.1679,469.3333 593.8976,469.3333 590.1138,468.5765 594.6543,470.0901 596.1679,470.8468 596.9246,472.3603 596.9246,473.8738 596.1679,475.3874 594.6543,476.1441 593.1408,476.1441 591.6273,475.3874 590.8706,474.6306 590.1138,473.1171 590.1138,471.6036 590.8706,470.0901 592.3841,469.3333"/>
    <polyline points="593.1408,476.1441 595.4111,477.6576 596.9246,479.9279 596.9246,482.1982 596.1679,483.7117 594.6543,484.4684 593.1408,484.4684 591.6273,483.7117 590.8706,482.9549 590.1138,481.4414 590.1138,479.9279 590.8706,479.1711 591.6273,479.1711"/>
    <polyline points="592.3841,427.7117 590.8706,428.4684 590.1138,429.982 590.1138,431.4955 590.8706,433.009 591.6273,433.7657 593.1408,434.5225 594.6543,434.5225 596.1679,433.7657 596.9246,432.2522 596.9246,430.7387 596.1679,429.2252 594.6543,428.4684 590.1138,426.9549 593.8976,427.7117 596.1679,427.7117 596.9246,426.9549 596.9246,426.1982 596.1679,424.6847 595.4111,423.9279 593.1408,422.4144"/>
    <polyline points="593.1408,422.4144 590.8706,420.9009 590.1138,419.3874 590.8706,418.6306 591.6273,418.6306 594.6543,419.3874 596.9246,420.1441"/>
    <polyline points="594.6543,419.3874 593.1408,418.6306 590.8706,417.1171 590.1138,415.6036 590.1138,414.0901 590.8706,413.3333 592.3841,413.3333 594.6543,414.0901 596.1679,414.0901 596.9246,413.3333 596.9246,412.5765 596.1679,411.063 595.4111,410.3063 593.1408,408.7928"/>
    <polyline points="566.6543,396.6847 565.1408,395.9279 562.8706,394.4144 562.1138,392.9009 562.1138,391.3874 562.8706,390.6306 564.3841,390.6306 566.6543,391.3874 568.1679,391.3874 568.9246,390.6306 568.9246,389.8738 568.1679,388.3603 567.4111,387.6036 565.1408,386.0901"/>
    <polyline points="567.4111,380.036 568.1679,380.7928 568.9246,382.3063 568.9246,383.8198 568.1679,385.3333 566.6543,386.0901 565.1408,386.0901 563.6273,385.3333 562.8706,384.5765 562.1138,383.063 562.1138,381.5495 562.8706,380.036 564.3841,379.2793"/>
    <polyline points="562.1138,378.5225 567.4111,380.036 575.7354,383.063 577.2489,383.8198 578.0057,385.3333 577.2489,386.0901 575.7354,386.0901 573.4651,385.3333 571.1949,383.063 569.6814,380.7928 568.9246,379.2793 567.4111,377.009 565.1408,374.7387"/>
    <polyline points="565.1408,362.6306 562.8706,361.1171 559.8435,359.6036"/>
    <line x1="559.0868" x2="559.0868" y1="361.8738" y2="356.5765"/>
    <polyline points="565.1408,355.8198 562.8706,354.3063 559.0868,352.036 557.5733,351.2793 555.303,350.5225 553.7895,350.5225 553.0327,351.2793 553.7895,352.7928 555.303,353.5495 558.33,354.3063 562.8706,355.063 568.9246,355.8198"/>
    <polyline points="568.9246,355.8198 566.6543,355.063 565.1408,354.3063 562.8706,352.7928 562.1138,351.2793 562.1138,349.7657 562.8706,349.009 564.3841,349.009 566.6543,349.7657 568.1679,349.7657 568.9246,349.009 568.9246,348.2522 568.1679,346.7387 567.4111,345.982 565.1408,344.4684"/>
    <polyline points="567.4111,343.7117 566.6543,342.1982 565.8976,341.4414 564.3841,340.6847 562.8706,340.6847 562.1138,341.4414 562.1138,342.1982 562.8706,343.7117 564.3841,344.4684 566.6543,344.4684 568.1679,343.7117 568.9246,342.1982 568.9246,340.6847 568.1679,339.1711 567.4111,338.4144 565.1408,336.9009"/>
    <polyline points="565.1408,336.9009 562.8706,335.3874 561.357,334.6306 562.8706,334.6306 565.1408,333.1171 566.6543,332.3603 568.1679,332.3603 568.9246,333.8738"/>
    <polyline points="568.1679,336.9009 568.9246,335.3874 568.9246,332.3603 568.1679,330.8468 567.4111,330.0901 565.1408,328.5765"/>
    <polyline points="567.4111,327.8198 566.6543,326.3063 565.8976,325.5495 564.3841,324.7928 562.8706,324.7928 562.1138,325.5495 562.1138,326.3063 562.8706,327.8198 564.3841,328.5765 566.6543,328.5765 568.1679,327.8198 568.9246,326.3063 568.9246,324.7928 568.1679,323.2793 567.4111,322.5225 565.1408,321.009"/>
    <polyline points="563.6273,303.6036 562.8706,303.6036 562.1138,304.3603 562.1138,305.8738 562.8706,307.3874 563.6273,308.1441 565.1408,308.9009 566.6543,308.9009 568.1679,308.1441 568.9246,306.6306 568.9246,304.3603 567.4111,302.0901 565.1408,300.5765"/>
    <polyline points="565.1408,300.5765 562.8706,299.063 561.357,298.3063 562.8706,298.3063 562.8706,296.036 563.6273,295.2793 565.1408,295.2793 567.4111,296.036 568.1679,296.036 568.9246,295.2793 568.9246,294.5225 568.1679,293.009 567.4111,292.2522 565.1408,290.7387"/>
    <polyline points="564.3841,283.9279 562.8706,284.6847 562.1138,286.1982 562.1138,287.7117 562.8706,289.2252 563.6273,289.982 565.1408,290.7387 566.6543,290.7387 568.1679,289.982 568.9246,288.4684 568.9246,286.9549 568.1679,285.4414 566.6543,284.6847 562.1138,283.1711 565.8976,283.9279 568.1679,283.9279 568.9246,283.1711 568.9246,282.4144 568.1679,280.9009 567.4111,280.1441 565.1408,278.6306"/>
    <polyline points="565.1408,278.6306 562.8706,277.1171 562.1138,275.6036 562.1138,274.0901 563.6273,272.5765 565.1408,272.5765 566.6543,273.3333 568.1679,274.8468 568.9246,277.1171 569.6814,275.6036 571.1949,274.8468 573.4651,274.8468 575.7354,275.6036 577.2489,276.3603 578.0057,277.8738 577.2489,278.6306 575.7354,278.6306 573.4651,277.8738 571.1949,275.6036 569.6814,273.3333 567.4111,270.3063 565.1408,268.036"/>
    <polyline points="565.1408,268.036 562.1138,266.5225 566.6543,268.036 568.1679,268.036 568.9246,267.2793 568.9246,265.7657 568.1679,264.2522 566.6543,262.7387 564.3841,261.2252"/>
    <polyline points="562.1138,260.4684 575.7354,265.009 577.2489,265.7657 578.0057,267.2793 577.2489,268.036 575.7354,268.036 573.4651,267.2793 571.1949,265.009 569.6814,262.7387 568.9246,261.2252 567.4111,258.9549 565.1408,256.6847"/>
    <polyline points="565.1408,244.5765 562.8706,243.063 559.8435,241.5495"/>
    <line x1="559.0868" x2="559.0868" y1="243.8198" y2="238.5225"/>
    <polygon points="558.33,235.4955 559.0868,235.4955 559.0868,234.7387 558.33,234.7387"/>
    <polyline points="553.0327,239.2793 566.6543,243.8198 568.1679,243.8198 568.9246,243.063 568.9246,241.5495 568.1679,240.036 567.4111,239.2793 565.1408,237.7657"/>
    <polyline points="565.1408,237.7657 562.1138,236.2522 566.6543,237.7657 568.1679,237.7657 568.9246,237.009 568.9246,236.2522 568.1679,234.7387 567.4111,233.982 565.1408,232.4684"/>
    <polyline points="565.1408,232.4684 562.8706,230.9549 562.1138,229.4414 562.8706,228.6847 563.6273,228.6847 566.6543,229.4414 568.9246,230.1982"/>
    <polyline points="566.6543,229.4414 565.1408,228.6847 562.8706,227.1711 562.1138,225.6576 562.1138,224.1441 562.8706,223.3874 563.6273,223.3874 566.6543,224.1441 568.9246,224.9009"/>
    <polyline points="566.6543,224.1441 565.1408,223.3874 562.8706,221.8738 562.1138,220.3603 562.1138,218.8468 562.8706,218.0901 564.3841,218.0901 566.6543,218.8468 568.1679,218.8468 568.9246,218.0901 568.9246,217.3333 568.1679,215.8198 567.4111,215.063 565.1408,213.5495"/>
    <polyline points="567.4111,212.7928 566.6543,211.2793 565.8976,210.5225 564.3841,209.7657 562.8706,209.7657 562.1138,210.5225 562.1138,211.2793 562.8706,212.7928 564.3841,213.5495 566.6543,213.5495 568.1679,212.7928 568.9246,211.2793 568.9246,209.7657 568.1679,208.2522 567.4111,207.4955 565.1408,205.982"/>
    <polyline points="565.1408,205.982 562.8706,204.4684 561.357,203.7117 562.8706,203.7117 565.1408,202.1982 566.6543,201.4414 568.1679,201.4414 568.9246,202.9549"/>
    <polyline points="568.1679,205.982 568.9246,204.4684 568.9246,201.4414 568.1679,199.9279 567.4111,199.1711 565.1408,197.6576"/>
    <polygon points="565.1408,194.6306 565.8976,195.3874 566.6543,194.6306 565.8976,193.8738"/>
    <polyline points="536.3841,151.4955 534.8706,152.2522 534.1138,153.7657 534.1138,155.2793 534.8706,156.7928 535.6273,157.5495 537.1408,158.3063 538.6543,158.3063 540.1679,157.5495 540.9246,156.036 540.9246,154.5225 540.1679,153.009 538.6543,152.2522 534.1138,150.7387 537.8976,151.4955 540.1679,151.4955 540.9246,150.7387 540.9246,149.982 540.1679,148.4684 539.4111,147.7117 537.1408,146.1982"/>
    <polyline points="537.1408,146.1982 534.8706,144.6847 533.357,143.9279 534.8706,143.9279 537.1408,142.4144 538.6543,141.6576 540.1679,141.6576 540.9246,143.1711"/>
    <polyline points="540.1679,146.1982 540.9246,144.6847 540.9246,141.6576 540.1679,140.1441 539.4111,139.3874 537.1408,137.8738"/>
    <polyline points="537.1408,125.7657 534.1138,124.2522 538.6543,125.7657 540.1679,125.7657 540.9246,125.009 540.9246,123.4955 540.1679,121.982 538.6543,120.4684 536.3841,118.9549"/>
    <polyline points="534.1138,118.1982 547.7354,122.7387 549.2489,123.4955 550.0057,125.009 549.2489,125.7657 547.7354,125.7657 545.4651,125.009 543.1949,122.7387 541.6814,120.4684 540.9246,118.9549 539.4111,116.6847 537.1408,114.4144"/>
    <polyline points="534.1138,109.8738 534.1138,111.3874 534.8706,112.9009 535.6273,113.6576 537.1408,114.4144 538.6543,114.4144 540.1679,113.6576 540.9246,112.1441 540.9246,110.6306 540.1679,109.1171 539.4111,108.3603 537.8976,107.6036 536.3841,107.6036 534.8706,108.3603 534.1138,109.8738 534.8706,110.6306 536.3841,110.6306 537.8976,109.8738 538.6543,108.3603 538.6543,106.0901 537.8976,104.5765 537.1408,103.8198"/>
    <polyline points="537.1408,103.8198 534.1138,102.3063 538.6543,103.8198 540.1679,103.8198 540.9246,103.063 540.9246,101.5495 540.1679,100.036 538.6543,98.5225 536.3841,97.009"/>
    <polyline points="534.1138,96.2522 538.6543,97.7657 540.1679,97.7657 540.9246,97.009 540.9246,96.2522 540.1679,94.7387 539.4111,93.982 537.1408,92.4684"/>
    <polygon points="530.33,278.6306 531.0868,278.6306 531.0868,277.8738 530.33,277.8738"/>
    <polyline points="537.1408,315.7117 539.4111,317.2252 540.1679,317.982 540.9246,319.4955 540.9246,321.009 540.1679,322.5225 538.6543,323.2793 536.3841,323.2793 534.8706,322.5225 534.1138,321.009 534.1138,320.2522 534.8706,319.4955 536.3841,319.4955 537.8976,320.2522 538.6543,321.009 539.4111,322.5225"/>
    <polyline points="537.1408,323.2793 539.4111,324.7928 540.1679,325.5495 540.9246,327.063 540.9246,327.8198 540.1679,328.5765 539.4111,328.5765 537.1408,327.8198 535.6273,327.8198 534.8706,328.5765 534.8706,330.8468 533.357,330.8468 534.8706,331.6036 537.1408,333.1171"/>
    <polyline points="537.1408,333.1171 539.4111,334.6306 540.1679,335.3874 540.9246,336.9009 540.9246,337.6576 540.1679,338.4144 537.8976,338.4144 534.1138,337.6576 538.6543,339.1711 540.1679,339.9279 540.9246,341.4414 540.9246,342.9549 540.1679,344.4684 538.6543,345.2252 537.1408,345.2252 535.6273,344.4684 534.8706,343.7117 534.1138,342.1982 534.1138,340.6847 534.8706,339.1711 536.3841,338.4144"/>
    <polyline points="537.1408,357.3333 539.4111,358.8468 540.1679,359.6036 540.9246,361.1171 540.9246,361.8738 540.1679,362.6306 538.6543,362.6306 534.1138,361.1171"/>
    <polyline points="536.3841,361.8738 538.6543,363.3874 540.1679,364.9009 540.9246,366.4144 540.9246,367.9279 540.1679,368.6847 538.6543,368.6847 534.1138,367.1711 537.1408,368.6847"/>
    <polyline points="537.1408,368.6847 537.8976,369.4414 538.6543,370.9549 538.6543,373.2252 537.8976,374.7387 536.3841,375.4955 534.8706,375.4955 534.1138,374.7387 534.8706,373.2252 536.3841,372.4684 537.8976,372.4684 539.4111,373.2252 540.1679,373.982 540.9246,375.4955 540.9246,377.009 540.1679,378.5225 538.6543,379.2793 537.1408,379.2793 535.6273,378.5225 534.8706,377.7657 534.1138,376.2522 534.1138,374.7387"/>
    <polyline points="537.1408,379.2793 539.4111,381.5495 540.9246,383.8198 541.6814,385.3333 543.1949,387.6036 545.4651,389.8738 547.7354,390.6306 549.2489,390.6306 550.0057,389.8738 549.2489,388.3603 547.7354,387.6036 534.1138,383.063"/>
    <polyline points="536.3841,383.8198 538.6543,385.3333 540.1679,386.8468 540.9246,388.3603 540.9246,389.8738 540.1679,390.6306 538.6543,390.6306 534.1138,389.1171 537.1408,390.6306"/>
    <polyline points="537.1408,402.7387 539.4111,404.2522 540.1679,405.009 540.9246,406.5225 540.9246,408.036 540.1679,409.5495 538.6543,410.3063 536.3841,410.3063 534.8706,409.5495 534.1138,408.036 534.1138,407.2793 534.8706,406.5225 536.3841,406.5225 537.8976,407.2793 538.6543,408.036 539.4111,409.5495"/>
    <polyline points="537.1408,410.3063 539.4111,412.5765 540.1679,414.0901 540.9246,416.3603 540.9246,418.6306 540.1679,420.1441"/>
    <polyline points="540.9246,417.1171 540.1679,415.6036 539.4111,414.8468 537.8976,414.0901 536.3841,414.0901 534.8706,414.8468 534.1138,416.3603 534.1138,417.8738 534.8706,419.3874 536.3841,420.1441"/>
    <polygon points="558.33,402.7387 559.0868,402.7387 559.0868,401.982 558.33,401.982"/>
    <polyline points="553.0327,357.3333 566.6543,361.8738 568.1679,361.8738 568.9246,361.1171 568.9246,359.6036 568.1679,358.0901 567.4111,357.3333 565.1408,355.8198"/>
    <polyline points="505.9246,386.0901 504.4111,384.5765 502.8976,384.5765 502.1408,385.3333 502.8976,386.0901 503.6543,385.3333 502.8976,384.5765"/>
    <polyline points="505.9246,395.1711 490.0327,395.1711 492.303,397.4414 493.0597,398.9549"/>
    <polyline points="502.1408,415.6036 504.4111,417.1171 505.1679,417.8738 505.9246,419.3874 505.9246,420.1441 505.1679,420.9009 503.6543,420.9009 501.3841,420.1441 499.8706,420.1441 499.1138,420.9009 499.1138,422.4144 499.8706,423.9279 502.1408,425.4414 503.6543,426.1982"/>
    <polyline points="505.9246,426.9549 503.6543,426.1982 500.6273,425.4414 499.8706,425.4414 499.1138,426.1982 499.8706,427.7117 502.1408,429.2252"/>
    <polyline points="502.1408,429.2252 502.8976,429.982 503.6543,431.4955 503.6543,433.7657 502.8976,435.2793 501.3841,436.036 499.8706,436.036 499.1138,435.2793 499.8706,433.7657 501.3841,433.009 502.8976,433.009 504.4111,433.7657 505.1679,434.5225 505.9246,436.036 505.9246,437.5495 505.1679,439.063 503.6543,439.8198 502.1408,439.8198 500.6273,439.063 499.8706,438.3063 499.1138,436.7928 499.1138,435.2793"/>
    <polyline points="502.1408,439.8198 504.4111,441.3333 505.1679,442.0901 505.9246,443.6036 505.9246,446.6306 505.1679,448.1441"/>
    <polyline points="502.1408,448.1441 499.8706,446.6306 498.357,445.8738 499.8706,445.8738 502.1408,444.3603 503.6543,443.6036 505.1679,443.6036 505.9246,445.1171"/>
    <polyline points="502.1408,448.1441 504.4111,449.6576 505.1679,450.4144 505.9246,451.9279 505.9246,452.6847 505.1679,453.4414 504.4111,453.4414 502.1408,452.6847 500.6273,452.6847 499.8706,453.4414 499.8706,455.7117 498.357,455.7117 499.8706,456.4684 502.1408,457.982"/>
    <polyline points="502.1408,457.982 504.4111,459.4955 505.1679,460.2522 505.9246,461.7657 505.9246,463.2793 505.1679,464.7928 503.6543,465.5495 501.3841,465.5495 499.8706,464.7928 499.1138,463.2793 499.1138,462.5225 499.8706,461.7657 501.3841,461.7657 502.8976,462.5225 503.6543,463.2793 504.4111,464.7928"/>
    <polyline points="496.8435,473.8738 497.6003,473.1171 498.357,471.6036 498.357,469.3333 497.6003,467.8198 496.8435,467.063 495.33,466.3063 493.0597,466.3063 491.5462,467.063 490.7895,467.8198 490.0327,469.3333 490.0327,473.1171 490.7895,475.3874 491.5462,476.9009 493.0597,478.4144 495.33,479.9279 496.8435,480.6847 499.1138,481.4414 502.8976,482.1982 505.1679,482.1982 505.9246,481.4414 505.9246,480.6847 505.1679,479.1711 503.6543,477.6576 501.3841,476.1441 499.8706,475.3874 497.6003,474.6306 494.5733,473.8738 492.303,473.8738 491.5462,474.6306"/>
    <polyline points="706.5462,474.6306 707.303,473.8738 709.5733,473.8738 712.6003,474.6306 714.8706,475.3874 716.3841,476.1441 718.6543,477.6576 720.1679,479.1711 720.9246,480.6847 720.9246,481.4414 720.1679,482.1982 717.8976,482.1982 714.1138,481.4414 711.8435,480.6847 710.33,479.9279 708.0597,478.4144 706.5462,476.9009 705.7895,475.3874 705.0327,473.1171 705.0327,470.8468 705.7895,469.3333 707.303,468.5765 708.8165,468.5765 710.33,469.3333 711.0868,470.0901 711.8435,471.6036 712.6003,473.8738"/>
    <polyline points="712.6003,474.6306 712.6003,473.8738 713.357,471.6036 714.1138,470.8468 715.6273,470.0901 717.8976,470.0901 719.4111,470.8468 720.1679,471.6036 720.9246,473.1171 720.9246,475.3874 720.1679,476.9009 718.6543,477.6576"/>
    <polyline points="719.4111,466.3063 718.6543,464.7928 717.8976,464.036 716.3841,463.2793 714.8706,463.2793 714.1138,464.036 714.1138,464.7928 714.8706,466.3063 716.3841,467.063 718.6543,467.063 720.1679,466.3063 720.9246,464.7928 720.9246,463.2793 720.1679,461.7657 719.4111,461.009 717.1408,459.4955"/>
    <polyline points="717.1408,459.4955 714.8706,457.982 713.357,457.2252 714.8706,457.2252 717.1408,455.7117 718.6543,454.9549 720.1679,454.9549 720.9246,456.4684"/>
    <polyline points="720.1679,459.4955 720.9246,457.982 720.9246,454.9549 720.1679,453.4414 719.4111,452.6847 717.1408,451.1711"/>
    <polyline points="717.1408,451.1711 714.8706,449.6576 711.8435,448.1441"/>
    <line x1="711.0868" x2="711.0868" y1="450.4144" y2="445.1171"/>
    <polyline points="717.1408,444.3603 719.4111,445.8738 720.1679,446.6306 720.9246,448.1441 720.9246,449.6576 720.1679,450.4144 718.6543,450.4144 705.0327,445.8738"/>
    <polyline points="717.8976,440.5765 718.6543,441.3333 717.8976,442.0901 717.1408,441.3333 717.8976,440.5765 719.4111,440.5765 720.9246,442.0901"/>
    <polygon points="735.33,450.4144 736.0868,450.4144 736.0868,449.6576 735.33,449.6576"/>
    <polyline points="742.1408,452.6847 739.1138,451.1711 743.6543,452.6847 745.1679,452.6847 745.9246,451.9279 745.9246,451.1711 745.1679,449.6576 744.4111,448.9009 742.1408,447.3874"/>
    <polyline points="742.1408,447.3874 739.8706,445.8738 739.1138,444.3603 739.8706,443.6036 740.6273,443.6036 743.6543,444.3603 745.9246,445.1171"/>
    <polyline points="743.6543,444.3603 742.1408,443.6036 739.8706,442.0901 739.1138,440.5765 739.1138,439.063 739.8706,438.3063 741.3841,438.3063 743.6543,439.063 745.1679,439.063 745.9246,438.3063 745.9246,437.5495 745.1679,436.036 744.4111,435.2793 742.1408,433.7657"/>
    <polyline points="742.1408,452.6847 744.4111,454.1982 745.1679,454.9549 745.9246,456.4684 745.9246,457.2252 745.1679,457.982 740.6273,457.982 735.33,457.2252 732.303,456.4684 730.7895,455.7117 730.0327,454.1982 730.7895,453.4414 732.303,453.4414 734.5733,454.1982 736.0868,454.9549 739.8706,457.2252 742.1408,458.7387"/>
    <polyline points="742.1408,458.7387 742.8976,459.4955 743.6543,461.009 743.6543,463.2793 742.8976,464.7928 741.3841,465.5495 739.8706,465.5495 739.1138,464.7928 739.8706,463.2793 741.3841,462.5225 742.8976,462.5225 744.4111,463.2793 745.1679,464.036 745.9246,465.5495 745.9246,467.063 745.1679,468.5765 743.6543,469.3333 742.1408,469.3333 740.6273,468.5765 739.8706,467.8198 739.1138,466.3063 739.1138,464.7928"/>
    <polyline points="742.1408,473.1171 743.6543,473.8738 745.1679,475.3874 745.9246,477.6576 745.9246,479.1711 745.1679,480.6847 744.4111,481.4414 742.1408,482.1982 739.1138,482.1982 736.0868,481.4414 734.5733,480.6847 732.303,479.1711 730.7895,477.6576 730.0327,475.3874 730.0327,473.1171 730.7895,471.6036 732.303,470.8468 733.8165,470.8468 735.33,471.6036 736.0868,473.1171 736.0868,474.6306 735.33,475.3874 734.5733,475.3874"/>
    <polyline points="741.3841,414.8468 739.8706,415.6036 739.1138,417.1171 739.1138,418.6306 739.8706,420.1441 740.6273,420.9009 742.1408,421.6576 743.6543,421.6576 745.1679,420.9009 745.9246,419.3874 745.9246,417.8738 745.1679,416.3603 743.6543,415.6036 739.1138,414.0901 742.8976,414.8468 745.1679,414.8468 745.9246,414.0901 745.9246,413.3333 745.1679,411.8198 744.4111,411.063 742.1408,409.5495"/>
    <polyline points="742.1408,409.5495 739.8706,408.036 739.1138,406.5225 739.8706,405.7657 740.6273,405.7657 743.6543,406.5225 745.9246,407.2793"/>
    <polyline points="743.6543,406.5225 742.1408,405.7657 739.8706,404.2522 739.1138,402.7387 739.1138,401.2252 739.8706,400.4684 741.3841,400.4684 743.6543,401.2252 745.1679,401.2252 745.9246,400.4684 745.9246,399.7117 745.1679,398.1982 744.4111,397.4414 742.1408,395.9279"/>
    <polyline points="741.3841,389.1171 739.8706,389.8738 739.1138,391.3874 739.1138,392.9009 739.8706,394.4144 740.6273,395.1711 742.1408,395.9279 743.6543,395.9279 745.1679,395.1711 745.9246,393.6576 745.9246,392.1441 745.1679,390.6306 743.6543,389.8738 730.0327,385.3333"/>
    <polyline points="739.1138,388.3603 742.8976,389.1171 745.1679,389.1171 745.9246,388.3603 745.9246,387.6036 745.1679,386.0901 744.4111,385.3333 742.1408,383.8198"/>
    <polyline points="742.1408,367.1711 741.3841,368.6847 741.3841,370.1982 742.1408,370.9549 743.6543,370.9549 745.1679,370.1982 745.9246,368.6847 745.9246,367.1711 745.1679,365.6576 743.6543,364.1441 742.1408,363.3874 738.357,361.8738 734.5733,361.1171 732.303,361.1171 730.7895,361.8738 730.0327,362.6306 730.0327,364.1441 730.7895,364.9009 732.303,365.6576 734.5733,365.6576 736.8435,364.9009 738.357,364.1441 740.6273,362.6306 742.1408,361.1171"/>
    <polyline points="741.3841,352.036 739.8706,352.7928 739.1138,354.3063 739.1138,355.8198 739.8706,357.3333 740.6273,358.0901 742.1408,358.8468 743.6543,358.8468 745.1679,358.0901 745.9246,356.5765 745.9246,355.063 745.1679,353.5495 743.6543,352.7928 739.1138,351.2793 742.8976,352.036 745.1679,352.036 745.9246,351.2793 745.9246,350.5225 745.1679,349.009 744.4111,348.2522 742.1408,346.7387"/>
    <polyline points="742.1408,346.7387 739.8706,345.2252 739.1138,343.7117 739.8706,342.9549 740.6273,342.9549 743.6543,343.7117 745.9246,344.4684"/>
    <polyline points="743.6543,343.7117 742.1408,342.9549 739.8706,341.4414 739.1138,339.9279 739.1138,338.4144 739.8706,337.6576 741.3841,337.6576 743.6543,338.4144 745.1679,338.4144 745.9246,337.6576 745.9246,336.9009 745.1679,335.3874 744.4111,334.6306 742.1408,333.1171"/>
  </g>
  <g fill="none" id="layer2" inkscape:groupmode="layer" inkscape:label="2" stroke="#080" style="display:inline">
    <polyline points="94.9102,311.9349 94.8772,311.5204 94.8452,311.1061 94.8143,310.6919 94.7844,310.278 94.7555,309.8642 94.7278,309.4506 94.701,309.0373 94.6753,308.6241 94.6507,308.2112 94.6271,307.7984 94.6045,307.3859 94.583,306.9736 94.5625,306.5616 94.5431,306.1497 94.5247,305.7381 94.5074,305.3268 94.4911,304.9156 94.4758,304.5047 94.4616,304.0941 94.4485,303.6837 94.4364,303.2736 94.4253,302.8637 94.4153,302.4541 94.4063,302.0447 94.3983,301.6357 94.3914,301.2268 94.3856,300.8183 94.3807,300.4101 94.377,300.0021 94.3742,299.5944 94.3725,299.187 94.3719,298.78 94.3723,298.3732 94.3737,297.9667 94.3761,297.5605 94.3797,297.1546 94.3842,296.7491 94.3898,296.3438 94.3964,295.9389 94.4041,295.5343 94.4128,295.1301 94.4225,294.7261 94.4333,294.3225 94.4451,293.9193 94.458,293.5164 94.4719,293.1138 94.4868,292.7116 94.5028,292.3097 94.5198,291.9082 94.5379,291.5071 94.557,291.1063 94.5771,290.7059 94.5982,290.3059 94.6204,289.9063 94.6437,289.507 94.6679,289.1081 94.6932,288.7096 94.7196,288.3115 94.747,287.9138 94.7754,287.5165 94.8048,287.1196 94.8353,286.7231 94.8668,286.327 94.8994,285.9313 94.933,285.5361 94.9676,285.1412 95.0032,284.7468 95.0399,284.3528 95.0776,283.9593 95.1164,283.5662 95.1562,283.1735 95.197,282.7813 95.2388,282.3895 95.2817,281.9982 95.3256,281.6073 95.3706,281.2169 95.4166,280.8269 95.4636,280.4374 95.5116,280.0484 95.5607,279.6599 95.6108,279.2718 95.6619,278.8842 95.7141,278.4971 95.7673,278.1105 95.8215,277.7244 95.8768,277.3387 95.9331,276.9536 95.9904,276.569 96.0487,276.1849 96.1081,275.8013 96.1685,275.4182 96.2299,275.0356 96.2924,274.6536 96.3559,274.272 96.4204,273.891 96.4859,273.5106 96.5525,273.1307 96.6201,272.7513 96.6887,272.3724 96.7584,271.9941 96.8291,271.6164 96.9008,271.2392 96.9735,270.8626 97.0472,270.4865 97.122,270.111 97.1978,269.7361 97.2747,269.3617 97.3525,268.9879 97.4314,268.6148 97.5113,268.2421 97.5923,267.8701 97.6742,267.4987 97.7572,267.1278 97.8412,266.7576 97.9263,266.388 98.0123,266.019 98.0994,265.6505 98.1875,265.2827 98.2766,264.9156 98.3668,264.549 98.4579,264.1831 98.5501,263.8178 98.6434,263.4531 98.7376,263.0891 98.8329,262.7257 98.9291,262.3629 99.0264,262.0008 99.1248,261.6394 99.2241,261.2786 99.3245,260.9184 99.4259,260.559 99.5283,260.2002 99.6317,259.842 99.7361,259.4846 99.8416,259.1278 99.9481,258.7717 100.0556,258.4163 100.1641,258.0615 100.2737,257.7075 100.3842,257.3542 100.4958,257.0015 100.6084,256.6496 100.722,256.2983 100.8367,255.9478 100.9523,255.598 101.069,255.2489 101.1867,254.9006 101.3054,254.5529 101.4251,254.206 101.5459,253.8599 101.6676,253.5144 101.7904,253.1697 101.9142,252.8258 102.039,252.4826 102.1648,252.1401 102.2916,251.7984 102.4195,251.4575 102.5483,251.1173 102.6782,250.7779 102.8091,250.4393 102.941,250.1014 103.0739,249.7643 103.2079,249.428 103.3428,249.0925 103.4788,248.7578 103.6158,248.4238 103.7538,248.0907 103.8928,247.7584 104.0328,247.4268 104.1738,247.0961 104.3158,246.7662 104.4589,246.4371 104.603,246.1088 104.748,245.7813 104.8941,245.4547 105.0412,245.1289 105.1893,244.8039 105.3385,244.4798 105.4886,244.1565 105.6397,243.834 105.7919,243.5124 105.9451,243.1917 106.0992,242.8718 106.2544,242.5528 106.4106,242.2346 106.5678,241.9173 106.726,241.6009 106.8852,241.2853 107.0455,240.9706 107.2067,240.6568 107.3689,240.3439 107.5322,240.0319 107.6964,239.7208 107.8617,239.4105 108.028,239.1012 108.1953,238.7928 108.3636,238.4852 108.5329,238.1786 108.7032,237.8729 108.8745,237.5682 109.0468,237.2643 109.2201,236.9614 109.3944,236.6594 109.5698,236.3583 109.7461,236.0582 109.9234,235.759 110.1018,235.4608 110.2811,235.1635 110.4615,234.8671 110.6428,234.5718 110.8252,234.2773 111.0086,233.9839 111.1929,233.6914 111.3783,233.3999 111.5647,233.1093 111.7521,232.8197 111.9405,232.5311 112.1299,232.2435 112.3202,231.9569 112.5116,231.6713 112.704,231.3867 112.8974,231.1031 113.0918,230.8205 113.2872,230.5388 113.4836,230.2582 113.681,229.9787 113.8794,229.7001 114.0788,229.4226 114.2792,229.146 114.4806,228.8706 114.683,228.5961 114.8864,228.3227"/>
  </g>
</svg>
