<?xml version="1.0" encoding="utf-8" ?>
<svg xmlns="http://www.w3.org/2000/svg" xmlns:cc="http://creativecommons.org/ns#" xmlns:dc="http://purl.org/dc/elements/1.1/" xmlns:ev="http://www.w3.org/2001/xml-events" xmlns:inkscape="http://www.inkscape.org/namespaces/inkscape" xmlns:rdf="http://www.w3.org/1999/02/22-rdf-syntax-ns#" xmlns:sodipodi="http://sodipodi.sourceforge.net/DTD/sodipodi-0.dtd" xmlns:xlink="http://www.w3.org/1999/xlink" baseProfile="tiny" height="27.94cm" version="1.2" viewBox="0 0 1632.0 1056.0" width="43.18cm">
  <metadata>
    <rdf:RDF>
      <cc:Work>
        <dc:format>image/svg+xml</dc:format>
        <dc:source>vpype read /Users/cj/Documents/Projects/greeting-cards-2021/inside/person-maps/p3.svg pagesize 5.5inx8.5in ldelete 1 text --font scripts --position 75 330 --align center --size 26 --wrap 375 'This card travelled at least 2097 mi to get to you' text --font cursive --position 40 500 --align left --size 28 --wrap 430 'Person 3,' text --font cursive --position 40 535 --align left --size 28 --wrap 430 'We hope you are doing as well as you can during these crazy times. Please take care and have a very happy new year! ' text --font cursive --position 40 715 --align left --size 28 --wrap 430 Best, text --font cursive --position 40 740 --align left --size 28 --wrap 430 'Colin and Ian' rotate 270 layout -l -h right -v top 11inx17in ldelete 3 linesort write /Users/cj/Documents/Projects/greeting-cards-2021/inside/11x17/individual/insides-arctext-onecard-11x17-2.svg
</dc:source>
        <dc:date>2022-02-09T18:39:15.308728</dc:date>
      </cc:Work>
    </rdf:RDF>
  </metadata>
  <defs/>
  <g fill="none" id="layer1" inkscape:groupmode="layer" inkscape:label="1" stroke="#00f" style="display:inline">
    <polyline points="1142.2948,435.7988 1142.2948,437.2042 1141.5921,438.6096 1140.1867,439.3123 1138.7813,438.6096 1138.0786,436.5015 1138.0786,434.3934 1138.7813,431.5826 1138.7813,429.4745 1138.0786,428.0691"/>
    <polyline points="1138.7813,431.5826 1143.7002,432.988 1147.9164,434.3934 1150.7272,435.7988 1152.1326,437.2042 1152.8353,438.6096 1152.8353,440.015 1152.1326,441.4204 1150.7272,442.1231 1149.3218,442.1231 1148.6191,441.4204 1148.6191,440.015 1149.3218,438.6096"/>
    <polyline points="1149.3218,429.4745 1147.2137,428.0691 1143.7002,425.961 1142.2948,425.2583 1140.1867,424.5556 1138.7813,424.5556 1138.0786,425.2583 1138.7813,426.6637 1140.1867,427.3664 1142.9975,428.0691 1147.2137,428.7718 1152.8353,429.4745"/>
    <polyline points="1152.8353,429.4745 1150.7272,428.7718 1149.3218,428.0691 1147.2137,426.6637 1146.511,425.2583 1146.511,423.8529 1147.2137,423.1502 1148.6191,423.1502 1150.7272,423.8529 1152.1326,423.8529 1152.8353,423.1502 1152.8353,422.4475 1152.1326,421.0421 1151.4299,420.3393 1149.3218,418.9339"/>
    <polyline points="1149.3218,418.9339 1146.511,417.5285 1150.7272,418.9339 1152.1326,418.9339 1152.8353,418.2312 1152.8353,417.5285 1152.1326,416.1231 1151.4299,415.4204 1149.3218,414.015"/>
    <polyline points="1149.3218,414.015 1147.2137,412.6096 1145.8083,411.9069 1147.2137,411.9069 1149.3218,410.5015 1150.7272,409.7988 1152.1326,409.7988 1152.8353,411.2042"/>
    <polyline points="1152.1326,414.015 1152.8353,412.6096 1152.8353,409.7988 1152.1326,408.3934 1151.4299,407.6907 1149.3218,406.2853"/>
    <polygon points="1142.9975,416.8258 1143.7002,416.8258 1143.7002,416.1231 1142.9975,416.1231"/>
    <polyline points="1147.9164,390.1231 1147.2137,390.1231 1146.511,390.8258 1146.511,392.2312 1147.2137,393.6366 1147.9164,394.3393 1149.3218,395.0421 1150.7272,395.0421 1152.1326,394.3393 1152.8353,392.9339 1152.8353,390.8258 1151.4299,388.7177 1149.3218,387.3123"/>
    <polyline points="1148.6191,380.988 1147.2137,381.6907 1146.511,383.0961 1146.511,384.5015 1147.2137,385.9069 1147.9164,386.6096 1149.3218,387.3123 1150.7272,387.3123 1152.1326,386.6096 1152.8353,385.2042 1152.8353,383.7988 1152.1326,382.3934 1150.7272,381.6907 1146.511,380.2853 1150.0245,380.988 1152.1326,380.988 1152.8353,380.2853 1152.8353,379.5826 1152.1326,378.1772 1151.4299,377.4745 1149.3218,376.0691"/>
    <polyline points="1149.3218,376.0691 1147.2137,374.6637 1145.8083,373.961 1147.2137,373.961 1147.2137,371.8529 1147.9164,371.1502 1149.3218,371.1502 1151.4299,371.8529 1152.1326,371.8529 1152.8353,371.1502 1152.8353,370.4475 1152.1326,369.0421 1151.4299,368.3393 1149.3218,366.9339"/>
    <polyline points="1148.6191,360.6096 1147.2137,361.3123 1146.511,362.7177 1146.511,364.1231 1147.2137,365.5285 1147.9164,366.2312 1149.3218,366.9339 1150.7272,366.9339 1152.1326,366.2312 1152.8353,364.8258 1152.8353,363.4204 1152.1326,362.015 1150.7272,361.3123 1138.0786,357.0961"/>
    <polyline points="1146.511,359.9069 1150.0245,360.6096 1152.1326,360.6096 1152.8353,359.9069 1152.8353,359.2042 1152.1326,357.7988 1151.4299,357.0961 1149.3218,355.6907"/>
    <polyline points="1149.3218,344.4475 1147.2137,343.0421 1144.4029,341.6366"/>
    <line x1="1143.7002" x2="1143.7002" y1="343.7448" y2="338.8258"/>
    <polyline points="1149.3218,338.1231 1147.2137,336.7177 1145.8083,336.015 1147.2137,336.015 1147.2137,333.9069 1147.9164,333.2042 1149.3218,333.2042 1151.4299,333.9069 1152.1326,333.9069 1152.8353,333.2042 1152.8353,332.5015 1152.1326,331.0961 1151.4299,330.3934 1149.3218,328.988"/>
    <polyline points="1148.6191,322.6637 1147.2137,323.3664 1146.511,324.7718 1146.511,326.1772 1147.2137,327.5826 1147.9164,328.2853 1149.3218,328.988 1150.7272,328.988 1152.1326,328.2853 1152.8353,326.8799 1152.8353,325.4745 1152.1326,324.0691 1150.7272,323.3664 1146.511,321.961 1150.0245,322.6637 1152.1326,322.6637 1152.8353,321.961 1152.8353,321.2583 1152.1326,319.8529 1151.4299,319.1502 1149.3218,317.7448"/>
    <polyline points="1149.3218,317.7448 1146.511,316.3393 1150.0245,317.0421 1152.1326,317.0421 1152.8353,316.3393 1152.8353,315.6366 1152.1326,313.5285 1150.7272,312.1231 1148.6191,311.4204 1146.511,311.4204"/>
    <polyline points="1146.511,311.4204 1149.3218,310.7177 1150.0245,310.015 1150.0245,308.6096 1149.3218,307.2042"/>
    <polyline points="1151.4299,306.5015 1150.7272,305.0961 1150.0245,304.3934 1148.6191,303.6907 1147.2137,303.6907 1146.511,304.3934 1146.511,305.0961 1147.2137,306.5015 1148.6191,307.2042 1150.7272,307.2042 1152.1326,306.5015 1152.8353,305.0961 1152.8353,303.6907 1152.1326,302.2853 1151.4299,301.5826 1149.3218,300.1772"/>
    <polyline points="1149.3218,300.1772 1147.2137,298.7718 1143.7002,296.6637 1142.2948,295.961 1140.1867,295.2583 1138.7813,295.2583 1138.0786,295.961 1138.7813,297.3664 1140.1867,298.0691 1142.9975,298.7718 1147.9164,299.4745 1152.1326,299.4745 1152.8353,298.7718 1152.8353,298.0691 1152.1326,296.6637 1151.4299,295.961 1149.3218,294.5556"/>
    <polyline points="1149.3218,294.5556 1147.2137,293.1502 1143.7002,291.0421 1142.2948,290.3393 1140.1867,289.6366 1138.7813,289.6366 1138.0786,290.3393 1138.7813,291.7448 1140.1867,292.4475 1142.9975,293.1502 1147.9164,293.8529 1152.1326,293.8529 1152.8353,293.1502 1152.8353,292.4475 1152.1326,291.0421 1151.4299,290.3393 1149.3218,288.9339"/>
    <polyline points="1151.4299,288.2312 1150.7272,286.8258 1150.0245,286.1231 1148.6191,285.4204 1147.2137,285.4204 1146.511,286.1231 1146.511,286.8258 1147.2137,288.2312 1148.6191,288.9339 1150.7272,288.9339 1152.1326,288.2312 1152.8353,286.8258 1152.8353,285.4204 1152.1326,284.015 1151.4299,283.3123 1149.3218,281.9069"/>
    <polyline points="1148.6191,275.5826 1147.2137,276.2853 1146.511,277.6907 1146.511,279.0961 1147.2137,280.5015 1147.9164,281.2042 1149.3218,281.9069 1150.7272,281.9069 1152.1326,281.2042 1152.8353,279.7988 1152.8353,278.3934 1152.1326,276.988 1150.7272,276.2853 1138.0786,272.0691"/>
    <polyline points="1146.511,274.8799 1150.0245,275.5826 1152.1326,275.5826 1152.8353,274.8799 1152.8353,274.1772 1152.1326,272.7718 1151.4299,272.0691 1149.3218,270.6637"/>
    <polyline points="1164.0786,276.2853 1176.7272,280.5015 1178.1326,280.5015 1178.8353,279.7988 1178.8353,278.3934 1178.1326,276.988 1177.4299,276.2853 1175.3218,274.8799"/>
    <line x1="1169.7002" x2="1169.7002" y1="275.5826" y2="280.5015"/>
    <polyline points="1170.4029,278.3934 1173.2137,279.7988 1175.3218,281.2042"/>
    <polyline points="1175.3218,281.2042 1177.4299,282.6096 1178.1326,283.3123 1178.8353,284.7177 1178.8353,286.1231 1178.1326,287.5285 1176.7272,288.2312 1174.6191,288.2312 1173.2137,287.5285 1172.511,286.1231 1172.511,285.4204 1173.2137,284.7177 1174.6191,284.7177 1176.0245,285.4204 1176.7272,286.1231 1177.4299,287.5285"/>
    <polyline points="1175.3218,288.2312 1177.4299,290.3393 1178.8353,292.4475 1179.538,293.8529 1180.9434,295.961 1183.0515,298.0691 1185.1596,298.7718 1186.5651,298.7718 1187.2678,298.0691 1186.5651,296.6637 1185.1596,295.961 1177.4299,293.1502 1172.511,291.7448"/>
    <polyline points="1174.6191,292.4475 1173.2137,293.1502 1172.511,294.5556 1172.511,295.961 1173.2137,297.3664 1173.9164,298.0691 1175.3218,298.7718 1176.7272,298.7718 1178.1326,298.0691 1178.8353,296.6637 1178.8353,295.2583 1178.1326,293.8529 1177.4299,293.1502"/>
    <polyline points="1175.3218,310.015 1176.0245,310.7177 1176.7272,312.1231 1176.7272,314.2312 1176.0245,315.6366 1174.6191,316.3393 1173.2137,316.3393 1172.511,315.6366 1173.2137,314.2312 1174.6191,313.5285 1176.0245,313.5285 1177.4299,314.2312 1178.1326,314.9339 1178.8353,316.3393 1178.8353,317.7448 1178.1326,319.1502 1176.7272,319.8529 1175.3218,319.8529 1173.9164,319.1502 1173.2137,318.4475 1172.511,317.0421 1172.511,315.6366"/>
    <polyline points="1175.3218,319.8529 1177.4299,321.2583 1178.1326,321.961 1178.8353,323.3664 1178.8353,324.7718 1178.1326,325.4745 1176.7272,325.4745 1164.0786,321.2583"/>
    <line x1="1169.7002" x2="1169.7002" y1="320.5556" y2="325.4745"/>
    <polyline points="1170.4029,323.3664 1173.2137,324.7718 1175.3218,326.1772"/>
    <polyline points="1149.3218,338.1231 1151.4299,339.5285 1152.1326,340.2312 1152.8353,341.6366 1152.8353,343.0421 1152.1326,343.7448 1150.7272,343.7448 1138.0786,339.5285"/>
    <line x1="1169.7002" x2="1169.7002" y1="262.9339" y2="258.015"/>
    <polyline points="1170.4029,260.8258 1173.2137,262.2312 1175.3218,263.6366"/>
    <polyline points="1175.3218,257.3123 1177.4299,258.7177 1178.1326,259.4204 1178.8353,260.8258 1178.8353,262.2312 1178.1326,262.9339 1176.7272,262.9339 1164.0786,258.7177"/>
    <polyline points="1172.511,253.0961 1172.511,254.5015 1173.2137,255.9069 1173.9164,256.6096 1175.3218,257.3123 1176.7272,257.3123 1178.1326,256.6096 1178.8353,255.2042 1178.8353,253.7988 1178.1326,252.3934 1177.4299,251.6907 1176.0245,250.988 1174.6191,250.988 1173.2137,251.6907 1172.511,253.0961 1173.2137,253.7988 1174.6191,253.7988 1176.0245,253.0961 1176.7272,251.6907 1176.7272,249.5826 1176.0245,248.1772 1175.3218,247.4745"/>
    <polyline points="1175.3218,236.2312 1172.511,234.8258 1176.7272,236.2312 1178.1326,236.2312 1178.8353,235.5285 1178.8353,234.1231 1178.1326,232.7177 1176.7272,231.3123 1174.6191,229.9069"/>
    <polyline points="1172.511,229.2042 1185.1596,233.4204 1186.5651,234.1231 1187.2678,235.5285 1186.5651,236.2312 1185.1596,236.2312 1183.0515,235.5285 1180.9434,233.4204 1179.538,231.3123 1178.8353,229.9069 1177.4299,227.7988 1175.3218,225.6907"/>
    <polyline points="1172.511,221.4745 1172.511,222.8799 1173.2137,224.2853 1173.9164,224.988 1175.3218,225.6907 1176.7272,225.6907 1178.1326,224.988 1178.8353,223.5826 1178.8353,222.1772 1178.1326,220.7718 1177.4299,220.0691 1176.0245,219.3664 1174.6191,219.3664 1173.2137,220.0691 1172.511,221.4745 1173.2137,222.1772 1174.6191,222.1772 1176.0245,221.4745 1176.7272,220.0691 1176.7272,217.961 1176.0245,216.5556 1175.3218,215.8529"/>
    <polyline points="1175.3218,215.8529 1172.511,214.4475 1176.7272,215.8529 1178.1326,215.8529 1178.8353,215.1502 1178.8353,213.7448 1178.1326,212.3393 1176.7272,210.9339 1174.6191,209.5285"/>
    <polyline points="1172.511,208.8258 1176.7272,210.2312 1178.1326,210.2312 1178.8353,209.5285 1178.8353,208.8258 1178.1326,207.4204 1177.4299,206.7177 1175.3218,205.3123"/>
    <polyline points="1152.8353,203.9069 1152.1326,202.5015 1150.7272,202.5015 1149.3218,203.2042 1147.2137,204.6096 1145.8083,204.6096 1147.2137,205.3123 1149.3218,206.7177"/>
    <polyline points="1149.3218,206.7177 1151.4299,208.1231 1152.1326,208.8258 1152.8353,210.2312 1152.8353,210.9339 1152.1326,211.6366 1150.0245,211.6366 1146.511,210.9339 1150.7272,212.3393 1152.1326,213.0421 1152.8353,214.4475 1152.8353,215.8529 1152.1326,217.2583 1150.7272,217.961 1149.3218,217.961 1147.9164,217.2583 1147.2137,216.5556 1146.511,215.1502 1146.511,213.7448 1147.2137,212.3393 1148.6191,211.6366"/>
    <polyline points="1152.1326,206.7177 1152.8353,205.3123 1152.8353,202.5015 1152.1326,201.0961 1151.4299,200.3934 1149.3218,198.988"/>
    <polyline points="1149.3218,198.988 1147.2137,197.5826 1144.4029,196.1772"/>
    <line x1="1143.7002" x2="1143.7002" y1="198.2853" y2="193.3664"/>
    <polyline points="1138.0786,194.0691 1150.7272,198.2853 1152.1326,198.2853 1152.8353,197.5826 1152.8353,196.1772 1152.1326,194.7718 1151.4299,194.0691 1149.3218,192.6637"/>
    <polyline points="1152.8353,180.7177 1150.0245,179.3123 1148.6191,177.9069 1147.2137,175.7988 1145.8083,172.988 1144.4029,170.8799 1142.9975,169.4745 1141.5921,168.7718 1140.1867,168.7718 1138.7813,169.4745 1138.0786,171.5826 1138.0786,173.6907 1138.7813,175.7988 1139.484,176.5015 1140.8894,177.2042 1141.5921,177.2042 1142.2948,176.5015 1141.5921,175.7988 1140.8894,176.5015"/>
    <polyline points="1138.0786,171.5826 1138.7813,170.1772 1140.1867,169.4745 1141.5921,169.4745 1142.9975,170.1772 1144.4029,171.5826 1147.2137,175.7988"/>
    <polyline points="1150.7272,177.9069 1152.8353,174.3934 1152.8353,172.2853 1152.1326,170.8799 1150.0245,170.1772"/>
    <polyline points="1150.0245,170.1772 1151.4299,170.8799 1152.1326,172.2853 1152.1326,174.3934 1150.7272,177.9069 1150.7272,179.3123 1151.4299,180.015"/>
    <polyline points="1152.8353,161.7448 1151.4299,163.1502 1149.3218,163.8529 1147.2137,163.8529 1144.4029,163.1502 1142.2948,162.4475 1140.1867,161.0421 1138.7813,159.6366 1138.0786,158.2312"/>
    <polygon points="1138.0786,158.2312 1138.7813,160.3393 1140.1867,161.7448 1142.2948,163.1502 1144.4029,163.8529 1147.2137,164.5556 1149.3218,164.5556 1151.4299,163.8529 1152.1326,163.1502 1152.8353,161.7448 1152.8353,160.3393 1152.1326,158.2312 1150.7272,156.8258 1148.6191,155.4204 1146.511,154.7177 1143.7002,154.015 1141.5921,154.015 1139.484,154.7177 1138.7813,155.4204 1138.0786,156.8258"/>
    <polyline points="1138.0786,156.8258 1139.484,155.4204 1141.5921,154.7177 1143.7002,154.7177 1146.511,155.4204 1148.6191,156.1231 1150.7272,157.5285 1152.1326,158.9339 1152.8353,160.3393"/>
    <polyline points="1150.7272,149.0961 1150.0245,148.3934 1149.3218,149.0961 1150.0245,149.7988 1150.7272,149.7988 1152.1326,149.0961 1152.8353,147.6907 1152.8353,145.5826 1152.1326,143.4745 1150.7272,142.0691 1148.6191,140.6637 1146.511,139.961 1143.7002,139.2583 1140.8894,139.2583 1139.484,139.961 1138.7813,140.6637 1138.0786,142.0691 1138.0786,144.1772 1138.7813,146.2853 1140.1867,147.6907 1141.5921,148.3934 1143.7002,148.3934 1145.1056,147.6907 1145.8083,146.988 1146.511,145.5826 1146.511,143.4745 1145.8083,142.0691 1144.4029,140.6637 1142.9975,139.961"/>
    <polyline points="1138.7813,140.6637 1140.1867,139.961 1143.7002,139.961 1146.511,140.6637 1148.6191,141.3664 1150.7272,142.7718 1152.1326,144.1772 1152.8353,145.5826"/>
    <polyline points="1145.8083,146.988 1144.4029,147.6907 1141.5921,147.6907 1140.1867,146.988 1138.7813,145.5826 1138.0786,144.1772"/>
    <line x1="1142.2948" x2="1138.0786" y1="134.3393" y2="132.9339"/>
    <polyline points="1139.484,132.9339 1138.7813,131.5285 1138.7813,130.1231 1140.1867,126.6096 1140.1867,125.2042 1139.484,124.5015 1138.0786,123.7988"/>
    <polyline points="1138.0786,123.7988 1140.1867,124.5015 1142.2948,125.9069 1146.511,129.4204 1148.6191,130.8258 1150.0245,131.5285 1152.8353,132.2312"/>
    <polyline points="1152.8353,132.9339 1150.0245,132.2312 1148.6191,131.5285 1146.511,130.1231 1142.2948,125.9069"/>
    <polyline points="1140.1867,126.6096 1138.0786,130.1231 1138.0786,131.5285 1140.1867,133.6366"/>
    <polyline points="1149.3218,111.1502 1147.2137,109.7448 1146.511,108.3393 1147.2137,107.6366 1147.9164,107.6366 1150.7272,108.3393 1152.8353,109.0421"/>
    <polyline points="1150.7272,108.3393 1149.3218,107.6366 1147.2137,106.2312 1146.511,104.8258 1146.511,103.4204 1147.2137,102.7177 1147.9164,102.7177 1150.7272,103.4204 1152.8353,104.1231"/>
    <polyline points="1150.7272,103.4204 1149.3218,102.7177 1147.2137,101.3123 1146.511,99.9069 1146.511,98.5015 1147.2137,97.7988 1148.6191,97.7988 1150.7272,98.5015 1152.1326,98.5015 1152.8353,97.7988 1152.8353,97.0961 1152.1326,95.6907 1151.4299,94.988 1149.3218,93.5826"/>
    <polyline points="1149.3218,93.5826 1146.511,92.1772 1150.7272,93.5826 1152.1326,93.5826 1152.8353,92.8799 1152.8353,92.1772 1152.1326,90.7718 1151.4299,90.0691 1149.3218,88.6637"/>
    <polygon points="1142.9975,91.4745 1143.7002,91.4745 1143.7002,90.7718 1142.9975,90.7718"/>
    <polyline points="1149.3218,217.961 1151.4299,219.3664 1152.1326,220.0691 1152.8353,221.4745 1152.8353,222.8799 1152.1326,224.2853 1150.7272,224.988 1148.6191,224.988 1147.2137,224.2853 1146.511,222.8799 1146.511,222.1772 1147.2137,221.4745 1148.6191,221.4745 1150.0245,222.1772 1150.7272,222.8799 1151.4299,224.2853"/>
    <polyline points="1149.3218,224.988 1151.4299,226.3934 1152.1326,227.0961 1152.8353,228.5015 1152.8353,229.2042 1152.1326,229.9069 1147.9164,229.9069 1142.9975,229.2042 1140.1867,228.5015 1138.7813,227.7988 1138.0786,226.3934 1138.7813,225.6907 1140.1867,225.6907 1142.2948,226.3934 1143.7002,227.0961 1147.2137,229.2042 1149.3218,230.6096"/>
    <polyline points="1149.3218,241.8529 1151.4299,243.2583 1152.1326,243.961 1152.8353,245.3664 1152.8353,246.7718 1152.1326,247.4745 1150.7272,247.4745 1138.0786,243.2583"/>
    <line x1="1143.7002" x2="1143.7002" y1="242.5556" y2="247.4745"/>
    <polyline points="1144.4029,245.3664 1147.2137,246.7718 1149.3218,248.1772"/>
    <polyline points="1149.3218,248.1772 1151.4299,249.5826 1152.1326,250.2853 1152.8353,251.6907 1152.8353,252.3934 1152.1326,253.0961 1150.0245,253.0961 1146.511,252.3934 1150.7272,253.7988 1152.1326,254.5015 1152.8353,255.9069 1152.8353,257.3123 1152.1326,258.7177 1150.7272,259.4204 1149.3218,259.4204 1147.9164,258.7177 1147.2137,258.015 1146.511,256.6096 1146.511,255.2042 1147.2137,253.7988 1148.6191,253.0961"/>
    <polyline points="1342.4299,296.7853 1356.0515,301.3258 1357.5651,302.0826 1358.3218,303.5961 1358.3218,305.1096 1357.5651,306.6231 1356.0515,307.3799 1354.538,307.3799 1353.0245,306.6231 1352.2678,305.8664 1351.511,304.3529 1351.511,302.8393 1352.2678,301.3258 1353.7813,300.5691"/>
    <polyline points="1351.511,299.8123 1355.2948,300.5691 1357.5651,300.5691 1358.3218,299.8123 1358.3218,299.0556 1357.5651,297.5421 1356.8083,296.7853 1354.538,295.2718"/>
    <polyline points="1351.511,290.7312 1351.511,292.2448 1352.2678,293.7583 1353.0245,294.515 1354.538,295.2718 1356.0515,295.2718 1357.5651,294.515 1358.3218,293.0015 1358.3218,291.488 1357.5651,289.9745 1356.8083,289.2177 1355.2948,288.461 1353.7813,288.461 1352.2678,289.2177 1351.511,290.7312 1352.2678,291.488 1353.7813,291.488 1355.2948,290.7312 1356.0515,289.2177 1356.0515,286.9475 1355.2948,285.4339 1354.538,284.6772"/>
    <polyline points="1354.538,284.6772 1351.511,283.1637 1356.0515,284.6772 1357.5651,284.6772 1358.3218,283.9204 1358.3218,283.1637 1357.5651,281.6502 1356.8083,280.8934 1354.538,279.3799"/>
    <polyline points="1354.538,279.3799 1352.2678,277.8664 1351.511,276.3529 1352.2678,275.5961 1353.0245,275.5961 1356.0515,276.3529 1358.3218,277.1096"/>
    <polyline points="1356.0515,276.3529 1354.538,275.5961 1352.2678,274.0826 1351.511,272.5691 1351.511,271.0556 1352.2678,270.2988 1353.7813,270.2988 1356.0515,271.0556 1357.5651,271.0556 1358.3218,270.2988 1358.3218,269.5421 1357.5651,268.0285 1356.8083,267.2718 1354.538,265.7583"/>
    <polyline points="1356.8083,259.7042 1357.5651,260.461 1358.3218,261.9745 1358.3218,263.488 1357.5651,265.0015 1356.0515,265.7583 1354.538,265.7583 1353.0245,265.0015 1352.2678,264.2448 1351.511,262.7312 1351.511,261.2177 1352.2678,259.7042 1353.7813,258.9475"/>
    <polyline points="1351.511,258.1907 1356.8083,259.7042 1365.1326,262.7312 1366.6461,263.488 1367.4029,265.0015 1366.6461,265.7583 1365.1326,265.7583 1362.8624,265.0015 1360.5921,262.7312 1359.0786,260.461 1358.3218,258.9475 1356.8083,256.6772 1354.538,254.4069"/>
    <polyline points="1353.7813,235.488 1352.2678,236.2448 1351.511,237.7583 1351.511,239.2718 1352.2678,240.7853 1353.0245,241.5421 1354.538,242.2988 1356.0515,242.2988 1357.5651,241.5421 1358.3218,240.0285 1358.3218,238.515 1357.5651,237.0015 1356.0515,236.2448 1351.511,234.7312 1355.2948,235.488 1357.5651,235.488 1358.3218,234.7312 1358.3218,233.9745 1357.5651,232.461 1356.8083,231.7042 1354.538,230.1907"/>
    <polyline points="1354.538,230.1907 1352.2678,228.6772 1350.7542,227.9204 1352.2678,227.9204 1354.538,226.4069 1356.0515,225.6502 1357.5651,225.6502 1358.3218,227.1637"/>
    <polyline points="1357.5651,230.1907 1358.3218,228.6772 1358.3218,225.6502 1357.5651,224.1366 1356.8083,223.3799 1354.538,221.8664"/>
    <polyline points="1351.511,207.488 1353.0245,209.0015 1355.2948,209.7583 1356.8083,209.7583 1358.3218,209.0015 1358.3218,207.488 1357.5651,205.9745 1356.0515,204.461"/>
    <polyline points="1351.511,202.9475 1356.0515,204.461 1357.5651,204.461 1358.3218,203.7042 1358.3218,202.1907 1357.5651,200.6772 1356.0515,199.1637 1353.7813,198.4069 1351.511,198.4069"/>
    <polyline points="1351.511,198.4069 1354.538,197.6502 1355.2948,196.8934 1355.2948,195.3799 1354.538,193.8664"/>
    <polyline points="1356.8083,193.1096 1356.0515,191.5961 1355.2948,190.8393 1353.7813,190.0826 1352.2678,190.0826 1351.511,190.8393 1351.511,191.5961 1352.2678,193.1096 1353.7813,193.8664 1356.0515,193.8664 1357.5651,193.1096 1358.3218,191.5961 1358.3218,190.0826 1357.5651,188.5691 1356.8083,187.8123 1354.538,186.2988"/>
    <polyline points="1354.538,186.2988 1352.2678,184.7853 1348.484,182.515 1346.9705,181.7583 1344.7002,181.0015 1343.1867,181.0015 1342.4299,181.7583 1343.1867,183.2718 1344.7002,184.0285 1347.7272,184.7853 1353.0245,185.5421 1357.5651,185.5421 1358.3218,184.7853 1358.3218,184.0285 1357.5651,182.515 1356.8083,181.7583 1354.538,180.2448"/>
    <polyline points="1354.538,180.2448 1352.2678,178.7312 1348.484,176.461 1346.9705,175.7042 1344.7002,174.9475 1343.1867,174.9475 1342.4299,175.7042 1343.1867,177.2177 1344.7002,177.9745 1347.7272,178.7312 1353.0245,179.488 1357.5651,179.488 1358.3218,178.7312 1358.3218,177.9745 1357.5651,176.461 1356.8083,175.7042 1354.538,174.1907"/>
    <polyline points="1371.9434,173.4339 1372.7002,172.6772 1374.9705,172.6772 1377.9975,173.4339 1380.2678,174.1907 1381.7813,174.9475 1384.0515,176.461 1385.5651,177.9745 1386.3218,179.488 1386.3218,180.2448 1385.5651,181.0015 1383.2948,181.0015 1379.511,180.2448 1377.2407,179.488 1375.7272,178.7312 1373.4569,177.2177 1371.9434,175.7042 1371.1867,174.1907 1370.4299,171.9204 1370.4299,168.1366 1371.1867,166.6231 1371.9434,165.8664 1373.4569,165.1096 1375.7272,165.1096 1377.2407,165.8664 1377.9975,166.6231 1378.7542,168.1366 1378.7542,170.4069 1377.9975,171.9204 1377.2407,172.6772"/>
    <polyline points="1382.538,164.3529 1380.2678,162.8393 1376.484,160.5691 1374.9705,159.8123 1372.7002,159.0556 1371.1867,159.0556 1370.4299,159.8123 1371.1867,161.3258 1372.7002,162.0826 1375.7272,162.8393 1381.0245,163.5961 1385.5651,163.5961 1386.3218,162.8393 1386.3218,162.0826 1385.5651,160.5691 1384.8083,159.8123 1382.538,158.2988"/>
    <polyline points="1384.8083,157.5421 1384.0515,156.0285 1383.2948,155.2718 1381.7813,154.515 1380.2678,154.515 1379.511,155.2718 1379.511,156.0285 1380.2678,157.5421 1381.7813,158.2988 1384.0515,158.2988 1385.5651,157.5421 1386.3218,156.0285 1386.3218,154.515 1385.5651,153.0015 1384.8083,152.2448 1382.538,150.7312"/>
    <polyline points="1381.7813,143.9204 1380.2678,144.6772 1379.511,146.1907 1379.511,147.7042 1380.2678,149.2177 1381.0245,149.9745 1382.538,150.7312 1384.0515,150.7312 1385.5651,149.9745 1386.3218,148.461 1386.3218,146.9475 1385.5651,145.4339 1384.0515,144.6772 1379.511,143.1637 1383.2948,143.9204 1385.5651,143.9204 1386.3218,143.1637 1386.3218,142.4069 1385.5651,140.8934 1384.8083,140.1366 1382.538,138.6231"/>
    <polyline points="1382.538,138.6231 1380.2678,137.1096 1378.7542,136.3529 1380.2678,136.3529 1382.538,134.8393 1384.0515,134.0826 1385.5651,134.0826 1386.3218,135.5961"/>
    <polyline points="1385.5651,138.6231 1386.3218,137.1096 1386.3218,134.0826 1385.5651,132.5691 1384.8083,131.8123 1382.538,130.2988"/>
    <polyline points="1384.8083,129.5421 1384.0515,128.0285 1383.2948,127.2718 1381.7813,126.515 1380.2678,126.515 1379.511,127.2718 1379.511,128.0285 1380.2678,129.5421 1381.7813,130.2988 1384.0515,130.2988 1385.5651,129.5421 1386.3218,128.0285 1386.3218,126.515 1385.5651,125.0015 1384.8083,124.2448 1382.538,122.7312"/>
    <polyline points="1382.538,110.6231 1380.2678,109.1096 1377.2407,107.5961"/>
    <line x1="1376.484" x2="1376.484" y1="109.8664" y2="104.5691"/>
    <polyline points="1370.4299,105.3258 1384.0515,109.8664 1385.5651,109.8664 1386.3218,109.1096 1386.3218,107.5961 1385.5651,106.0826 1384.8083,105.3258 1382.538,103.8123"/>
    <polyline points="1381.7813,97.0015 1380.2678,97.7583 1379.511,99.2718 1379.511,100.7853 1380.2678,102.2988 1381.0245,103.0556 1382.538,103.8123 1384.0515,103.8123 1385.5651,103.0556 1386.3218,101.5421 1386.3218,100.0285 1385.5651,98.515 1384.0515,97.7583 1379.511,96.2448 1383.2948,97.0015 1385.5651,97.0015 1386.3218,96.2448 1386.3218,95.488 1385.5651,93.9745 1384.8083,93.2177 1382.538,91.7042"/>
    <polyline points="1382.538,91.7042 1380.2678,90.1907 1376.484,87.9204 1374.9705,87.1637 1372.7002,86.4069 1371.1867,86.4069 1370.4299,87.1637 1371.1867,88.6772 1372.7002,89.4339 1375.7272,90.1907 1380.2678,90.9475 1386.3218,91.7042"/>
    <polyline points="1386.3218,91.7042 1384.0515,90.9475 1382.538,90.1907 1380.2678,88.6772 1379.511,87.1637 1379.511,85.6502 1380.2678,84.8934 1381.7813,84.8934 1382.538,86.4069 1382.538,88.6772"/>
    <polyline points="1382.538,88.6772 1383.2948,87.1637 1385.5651,86.4069 1386.3218,85.6502 1386.3218,84.8934 1385.5651,83.3799 1384.8083,82.6231 1382.538,81.1096"/>
    <polyline points="1384.8083,80.3529 1384.0515,78.8393 1383.2948,78.0826 1381.7813,77.3258 1380.2678,77.3258 1379.511,78.0826 1379.511,78.8393 1380.2678,80.3529 1381.7813,81.1096 1384.0515,81.1096 1385.5651,80.3529 1386.3218,78.8393 1386.3218,77.3258 1385.5651,75.8123 1384.8083,75.0556 1382.538,73.5421"/>
    <line x1="1398.4299" x2="1409.0245" y1="93.9745" y2="93.9745"/>
    <polygon points="1412.8083,93.9745 1413.5651,94.7312 1414.3218,93.9745 1413.5651,93.2177"/>
    <polyline points="1410.538,97.7583 1412.8083,99.2718 1413.5651,100.0285 1414.3218,101.5421 1414.3218,102.2988 1413.5651,103.0556 1412.8083,103.0556 1410.538,102.2988 1409.0245,102.2988 1408.2678,103.0556 1408.2678,105.3258 1406.7542,105.3258 1408.2678,106.0826 1410.538,107.5961"/>
    <polyline points="1410.538,107.5961 1412.8083,109.1096 1413.5651,109.8664 1414.3218,111.3799 1414.3218,112.1366 1413.5651,112.8934 1411.2948,112.8934 1407.511,112.1366 1412.0515,113.6502 1413.5651,114.4069 1414.3218,115.9204 1414.3218,117.4339 1413.5651,118.9475 1412.0515,119.7042 1410.538,119.7042 1409.0245,118.9475 1408.2678,118.1907 1407.511,116.6772 1407.511,115.1637 1408.2678,113.6502 1409.7813,112.8934"/>
    <polyline points="1410.538,119.7042 1412.8083,121.2177 1413.5651,121.9745 1414.3218,123.488 1414.3218,125.0015 1413.5651,126.515 1412.0515,127.2718 1409.7813,127.2718 1408.2678,126.515 1407.511,125.0015 1407.511,124.2448 1408.2678,123.488 1409.7813,123.488 1411.2948,124.2448 1412.0515,125.0015 1412.8083,126.515"/>
    <polyline points="1410.538,127.2718 1412.8083,129.5421 1414.3218,131.8123 1415.0786,133.3258 1416.5921,135.5961 1418.8624,137.8664 1421.1326,138.6231 1422.6461,138.6231 1423.4029,137.8664 1422.6461,136.3529 1421.1326,135.5961 1407.511,131.0556"/>
    <polyline points="1409.7813,131.8123 1412.0515,133.3258 1413.5651,134.8393 1414.3218,136.3529 1414.3218,137.8664 1413.5651,138.6231 1412.0515,138.6231 1407.511,137.1096 1410.538,138.6231"/>
    <polyline points="1410.538,150.7312 1411.2948,152.2448 1411.2948,153.7583 1410.538,154.515 1407.511,155.2718"/>
    <polyline points="1407.511,155.2718 1409.7813,155.2718 1412.0515,156.0285 1413.5651,157.5421 1414.3218,159.0556 1414.3218,160.5691 1413.5651,161.3258 1412.0515,161.3258 1407.511,159.8123"/>
    <polyline points="1407.511,164.3529 1409.0245,165.8664 1411.2948,166.6231 1412.8083,166.6231 1414.3218,165.8664 1414.3218,164.3529 1413.5651,162.8393 1412.0515,161.3258"/>
    <polyline points="1410.538,166.6231 1412.8083,168.1366 1413.5651,168.8934 1414.3218,170.4069 1414.3218,171.9204 1413.5651,173.4339 1412.0515,174.1907 1409.7813,174.1907 1408.2678,173.4339 1407.511,171.9204 1407.511,171.1637 1408.2678,170.4069 1409.7813,170.4069 1411.2948,171.1637 1412.0515,171.9204 1412.8083,173.4339"/>
    <polyline points="1410.538,174.1907 1412.8083,175.7042 1413.5651,176.461 1414.3218,177.9745 1414.3218,178.7312 1413.5651,179.488 1412.0515,179.488 1409.7813,178.7312 1408.2678,178.7312 1407.511,179.488 1407.511,181.0015 1408.2678,182.515 1410.538,184.0285 1412.0515,184.7853"/>
    <polyline points="1414.3218,185.5421 1412.0515,184.7853 1409.0245,184.0285 1408.2678,184.0285 1407.511,184.7853 1408.2678,186.2988 1410.538,187.8123"/>
    <polyline points="1410.538,199.9204 1412.8083,202.1907 1414.3218,204.461 1415.0786,205.9745 1416.5921,208.2448 1418.8624,210.515 1421.1326,211.2718 1422.6461,211.2718 1423.4029,210.515 1422.6461,209.0015 1421.1326,208.2448 1407.511,203.7042"/>
    <polyline points="1409.7813,204.461 1412.0515,205.9745 1413.5651,207.488 1414.3218,209.0015 1414.3218,210.515 1413.5651,211.2718 1412.0515,211.2718 1407.511,209.7583 1410.538,211.2718"/>
    <polyline points="1410.538,211.2718 1412.8083,213.5421 1413.5651,215.0556 1414.3218,217.3258 1414.3218,219.5961 1413.5651,221.1096"/>
    <polyline points="1414.3218,218.0826 1413.5651,216.5691 1412.8083,215.8123 1411.2948,215.0556 1409.7813,215.0556 1408.2678,215.8123 1407.511,217.3258 1407.511,218.8393 1408.2678,220.3529 1409.7813,221.1096"/>
    <polyline points="1410.538,222.6231 1408.2678,221.1096 1406.7542,220.3529 1409.7813,221.1096 1423.4029,225.6502"/>
    <polyline points="1414.3218,229.4339 1413.5651,227.9204 1412.8083,227.1637 1411.2948,226.4069 1409.7813,226.4069 1408.2678,227.1637 1407.511,228.6772 1407.511,230.1907 1408.2678,231.7042 1409.7813,232.461"/>
    <polyline points="1410.538,233.9745 1408.2678,232.461 1406.7542,231.7042 1409.7813,232.461 1423.4029,237.0015"/>
    <polyline points="1413.5651,232.461 1414.3218,230.9475 1414.3218,228.6772 1413.5651,226.4069 1412.8083,224.8934 1410.538,222.6231"/>
    <polyline points="1410.538,233.9745 1412.8083,235.488 1413.5651,236.2448 1414.3218,237.7583 1414.3218,238.515 1413.5651,239.2718 1411.2948,239.2718 1407.511,238.515 1412.0515,240.0285 1413.5651,240.7853 1414.3218,242.2988 1414.3218,243.8123 1413.5651,245.3258 1412.0515,246.0826 1410.538,246.0826 1409.0245,245.3258 1408.2678,244.5691 1407.511,243.0556 1407.511,241.5421 1408.2678,240.0285 1409.7813,239.2718"/>
    <polyline points="1410.538,246.0826 1412.8083,247.5961 1413.5651,248.3529 1414.3218,249.8664 1414.3218,250.6231 1413.5651,251.3799 1412.0515,251.3799 1409.7813,250.6231 1408.2678,250.6231 1407.511,251.3799 1407.511,252.8934 1408.2678,254.4069 1410.538,255.9204 1412.0515,256.6772 1414.3218,257.4339"/>
    <polyline points="1414.3218,257.4339 1408.2678,256.6772 1403.7272,255.9204 1400.7002,255.1637 1399.1867,254.4069 1398.4299,252.8934 1399.1867,252.1366 1400.7002,252.1366 1402.9705,252.8934 1404.484,253.6502 1408.2678,255.9204 1410.538,257.4339"/>
    <polyline points="1410.538,269.5421 1412.8083,271.8123 1414.3218,274.0826 1415.0786,275.5961 1416.5921,277.8664 1418.8624,280.1366 1421.1326,280.8934 1422.6461,280.8934 1423.4029,280.1366 1422.6461,278.6231 1421.1326,277.8664 1407.511,273.3258"/>
    <polyline points="1409.7813,274.0826 1412.0515,275.5961 1413.5651,277.1096 1414.3218,278.6231 1414.3218,280.1366 1413.5651,280.8934 1412.0515,280.8934 1407.511,279.3799 1410.538,280.8934"/>
    <polyline points="1410.538,280.8934 1412.8083,282.4069 1413.5651,283.1637 1414.3218,284.6772 1414.3218,285.4339 1413.5651,286.1907 1412.8083,286.1907 1410.538,285.4339 1409.0245,285.4339 1408.2678,286.1907 1408.2678,288.461 1406.7542,288.461 1408.2678,289.2177 1410.538,290.7312"/>
    <polyline points="1410.538,290.7312 1412.8083,292.2448 1413.5651,293.0015 1414.3218,294.515 1414.3218,296.0285 1413.5651,297.5421 1412.0515,298.2988 1409.7813,298.2988 1408.2678,297.5421 1407.511,296.0285 1407.511,295.2718 1408.2678,294.515 1409.7813,294.515 1411.2948,295.2718 1412.0515,296.0285 1412.8083,297.5421"/>
    <polyline points="1410.538,298.2988 1411.2948,299.8123 1411.2948,301.3258 1410.538,302.0826 1407.511,302.8393"/>
    <polyline points="1407.511,302.8393 1409.7813,302.8393 1412.0515,303.5961 1413.5651,305.1096 1414.3218,307.3799 1414.3218,308.1366 1413.5651,308.8934 1411.2948,308.8934 1407.511,308.1366 1410.538,309.6502"/>
    <polyline points="1410.538,321.7583 1412.8083,323.2718 1413.5651,324.0285 1414.3218,325.5421 1414.3218,326.2988 1413.5651,327.0556 1411.2948,327.0556 1407.511,326.2988 1412.0515,327.8123 1413.5651,328.5691 1414.3218,330.0826 1414.3218,331.5961 1413.5651,333.1096 1412.0515,333.8664 1410.538,333.8664 1409.0245,333.1096 1408.2678,332.3529 1407.511,330.8393 1407.511,329.3258 1408.2678,327.8123 1409.7813,327.0556"/>
    <polyline points="1410.538,345.9745 1412.8083,347.488 1413.5651,348.2448 1414.3218,349.7583 1414.3218,351.2718 1413.5651,352.7853 1412.0515,353.5421 1409.7813,353.5421 1408.2678,352.7853 1407.511,351.2718 1407.511,350.515 1408.2678,349.7583 1409.7813,349.7583 1411.2948,350.515 1412.0515,351.2718 1412.8083,352.7853"/>
    <polyline points="1410.538,353.5421 1411.2948,355.0556 1411.2948,356.5691 1410.538,357.3258 1407.511,358.0826"/>
    <polyline points="1407.511,358.0826 1409.7813,358.0826 1412.0515,358.8393 1413.5651,360.3529 1414.3218,362.6231 1414.3218,363.3799 1413.5651,364.1366 1411.2948,364.1366 1407.511,363.3799 1410.538,364.8934"/>
    <polyline points="1410.538,364.8934 1412.8083,366.4069 1413.5651,367.1637 1414.3218,368.6772 1414.3218,369.4339 1413.5651,370.1907 1411.2948,370.1907 1407.511,369.4339 1412.0515,370.9475 1413.5651,371.7042 1414.3218,373.2177 1414.3218,374.7312 1413.5651,376.2448 1412.0515,377.0015 1410.538,377.0015 1409.0245,376.2448 1408.2678,375.488 1407.511,373.9745 1407.511,372.461 1408.2678,370.9475 1409.7813,370.1907"/>
    <polyline points="1410.538,377.0015 1412.8083,378.515 1413.5651,379.2718 1414.3218,380.7853 1414.3218,381.5421 1413.5651,382.2988 1412.0515,382.2988 1409.7813,381.5421 1408.2678,381.5421 1407.511,382.2988 1407.511,383.8123 1408.2678,385.3258 1410.538,386.8393 1412.0515,387.5961 1414.3218,388.3529"/>
    <polyline points="1414.3218,388.3529 1408.2678,387.5961 1403.7272,386.8393 1400.7002,386.0826 1399.1867,385.3258 1398.4299,383.8123 1399.1867,383.0556 1400.7002,383.0556 1402.9705,383.8123 1404.484,384.5691 1408.2678,386.8393 1410.538,388.3529"/>
    <polyline points="1410.538,400.461 1412.8083,401.9745 1413.5651,402.7312 1414.3218,404.2448 1414.3218,405.0015 1413.5651,405.7583 1411.2948,405.7583 1407.511,405.0015"/>
    <polyline points="1409.7813,405.7583 1408.2678,406.515 1407.511,408.0285 1407.511,409.5421 1408.2678,411.0556 1409.0245,411.8123 1410.538,412.5691 1412.0515,412.5691 1413.5651,411.8123 1414.3218,410.2988 1414.3218,408.7853 1413.5651,407.2718 1412.0515,406.515 1398.4299,401.9745"/>
    <polyline points="1386.3218,401.2177 1384.0515,400.461 1381.0245,399.7042 1380.2678,399.7042 1379.511,400.461 1380.2678,401.9745 1382.538,403.488"/>
    <polyline points="1382.538,403.488 1384.8083,405.0015 1385.5651,405.7583 1386.3218,407.2718 1386.3218,408.0285 1385.5651,408.7853 1384.0515,408.7853 1379.511,407.2718 1382.538,408.7853"/>
    <polyline points="1382.538,408.7853 1384.8083,410.2988 1385.5651,411.0556 1386.3218,412.5691 1386.3218,413.3258 1385.5651,414.0826 1384.8083,414.0826 1382.538,413.3258 1381.0245,413.3258 1380.2678,414.0826 1380.2678,416.3529 1378.7542,416.3529 1380.2678,417.1096 1382.538,418.6231"/>
    <polyline points="1382.538,418.6231 1384.8083,420.1366 1385.5651,420.8934 1386.3218,422.4069 1386.3218,423.1637 1385.5651,423.9204 1384.0515,423.9204 1379.511,422.4069"/>
    <polyline points="1381.7813,423.1637 1384.0515,424.6772 1385.5651,426.1907 1386.3218,427.7042 1386.3218,429.2177 1385.5651,429.9745 1384.0515,429.9745 1379.511,428.461 1382.538,429.9745"/>
    <polyline points="1382.538,429.9745 1384.8083,431.488 1385.5651,432.2448 1386.3218,433.7583 1386.3218,434.515 1385.5651,435.2718 1383.2948,435.2718 1379.511,434.515"/>
    <polyline points="1381.7813,435.2718 1380.2678,436.0285 1379.511,437.5421 1379.511,439.0556 1380.2678,440.5691 1381.0245,441.3258 1382.538,442.0826 1384.0515,442.0826 1385.5651,441.3258 1386.3218,439.8123 1386.3218,438.2988 1385.5651,436.7853 1384.0515,436.0285 1370.4299,431.488"/>
    <polyline points="1367.4029,428.461 1353.7813,423.9204 1350.7542,423.1637 1352.2678,423.9204 1354.538,425.4339"/>
    <polyline points="1354.538,425.4339 1355.2948,426.1907 1356.0515,427.7042 1356.0515,429.9745 1355.2948,431.488 1353.7813,432.2448 1352.2678,432.2448 1351.511,431.488 1352.2678,429.9745 1353.7813,429.2177 1355.2948,429.2177 1356.8083,429.9745 1357.5651,430.7312 1358.3218,432.2448 1358.3218,433.7583 1357.5651,435.2718 1356.0515,436.0285 1354.538,436.0285 1353.0245,435.2718 1352.2678,434.515 1351.511,433.0015 1351.511,431.488"/>
    <polyline points="1354.538,436.0285 1356.8083,437.5421 1357.5651,438.2988 1358.3218,439.8123 1358.3218,440.5691 1357.5651,441.3258 1356.0515,441.3258 1353.7813,440.5691 1352.2678,440.5691 1351.511,441.3258 1351.511,442.8393 1352.2678,444.3529 1354.538,445.8664 1356.0515,446.6231 1358.3218,447.3799"/>
    <polyline points="1358.3218,447.3799 1352.2678,446.6231 1347.7272,445.8664 1344.7002,445.1096 1343.1867,444.3529 1342.4299,442.8393 1343.1867,442.0826 1344.7002,442.0826 1346.9705,442.8393 1348.484,443.5961 1352.2678,445.8664 1354.538,447.3799"/>
    <polyline points="1354.538,459.488 1356.8083,461.0015 1357.5651,461.7583 1358.3218,463.2718 1358.3218,464.7853 1357.5651,466.2988 1356.0515,467.0556 1353.7813,467.0556 1352.2678,466.2988 1351.511,464.7853 1351.511,464.0285 1352.2678,463.2718 1353.7813,463.2718 1355.2948,464.0285 1356.0515,464.7853 1356.8083,466.2988"/>
    <polyline points="1358.3218,476.1366 1353.0245,473.8664 1348.484,471.5961 1345.4569,469.3258 1343.1867,467.0556 1342.4299,465.5421"/>
    <line x1="1342.4299" x2="1358.3218" y1="474.6231" y2="482.1907"/>
    <polyline points="1358.3218,482.1907 1346.9705,481.4339 1344.7002,481.4339 1343.1867,482.1907 1342.4299,483.7042 1342.4299,484.461 1343.1867,485.9745 1344.7002,486.7312 1345.4569,486.7312 1346.9705,485.9745 1347.7272,484.461"/>
    <line x1="1342.4299" x2="1358.3218" y1="474.6231" y2="476.1366"/>
    <polyline points="1381.7813,473.1096 1380.2678,473.8664 1379.511,475.3799 1379.511,476.8934 1380.2678,478.4069 1381.0245,479.1637 1382.538,479.9204 1384.0515,479.9204 1385.5651,479.1637 1386.3218,477.6502 1386.3218,476.1366 1385.5651,474.6231 1384.0515,473.8664 1379.511,472.3529 1383.2948,473.1096 1385.5651,473.1096 1386.3218,472.3529 1386.3218,471.5961 1385.5651,470.0826 1384.8083,469.3258 1382.538,467.8123"/>
    <polyline points="1382.538,467.8123 1380.2678,466.2988 1379.511,464.7853 1380.2678,464.0285 1381.0245,464.0285 1384.0515,464.7853 1386.3218,465.5421"/>
    <polyline points="1384.0515,464.7853 1382.538,464.0285 1380.2678,462.515 1379.511,461.0015 1379.511,459.488 1380.2678,458.7312 1381.7813,458.7312 1384.0515,459.488 1385.5651,459.488 1386.3218,458.7312 1386.3218,457.9745 1385.5651,456.461 1384.8083,455.7042 1382.538,454.1907"/>
    <polyline points="1382.538,479.9204 1384.8083,481.4339 1386.3218,483.7042 1386.3218,485.9745 1385.5651,487.488 1384.0515,488.2448 1382.538,488.2448 1381.0245,487.488 1380.2678,486.7312 1379.511,485.2177 1379.511,483.7042 1380.2678,482.9475 1381.0245,482.9475"/>
    <polyline points="1409.0245,482.9475 1408.2678,482.9475 1407.511,483.7042 1407.511,485.2177 1408.2678,486.7312 1409.0245,487.488 1410.538,488.2448 1412.0515,488.2448 1413.5651,487.488 1414.3218,485.9745 1414.3218,483.7042 1412.8083,481.4339 1410.538,479.9204"/>
    <polyline points="1409.7813,473.1096 1408.2678,473.8664 1407.511,475.3799 1407.511,476.8934 1408.2678,478.4069 1409.0245,479.1637 1410.538,479.9204 1412.0515,479.9204 1413.5651,479.1637 1414.3218,477.6502 1414.3218,476.1366 1413.5651,474.6231 1412.0515,473.8664 1407.511,472.3529 1411.2948,473.1096 1413.5651,473.1096 1414.3218,472.3529 1414.3218,471.5961 1413.5651,470.0826 1412.8083,469.3258 1410.538,467.8123"/>
    <polyline points="1410.538,467.8123 1408.2678,466.2988 1406.7542,465.5421 1408.2678,465.5421 1408.2678,463.2718 1409.0245,462.515 1410.538,462.515 1412.8083,463.2718 1413.5651,463.2718 1414.3218,462.515 1414.3218,461.7583 1413.5651,460.2448 1412.8083,459.488 1410.538,457.9745"/>
    <polyline points="1412.8083,457.2177 1412.0515,455.7042 1411.2948,454.9475 1409.7813,454.1907 1408.2678,454.1907 1407.511,454.9475 1407.511,455.7042 1408.2678,457.2177 1409.7813,457.9745 1412.0515,457.9745 1413.5651,457.2177 1414.3218,455.7042 1414.3218,454.1907 1413.5651,452.6772 1412.8083,451.9204 1410.538,450.4069"/>
    <polyline points="1409.7813,431.488 1408.2678,432.2448 1407.511,433.7583 1407.511,435.2718 1408.2678,436.7853 1409.0245,437.5421 1410.538,438.2988 1412.0515,438.2988 1413.5651,437.5421 1414.3218,436.0285 1414.3218,434.515 1413.5651,433.0015 1412.0515,432.2448 1407.511,430.7312 1411.2948,431.488 1413.5651,431.488 1414.3218,430.7312 1414.3218,429.9745 1413.5651,428.461 1412.8083,427.7042 1410.538,426.1907"/>
    <polyline points="1410.538,426.1907 1408.2678,424.6772 1407.511,423.1637 1408.2678,422.4069 1409.0245,422.4069 1412.0515,423.1637 1414.3218,423.9204"/>
    <polyline points="1412.0515,423.1637 1410.538,422.4069 1408.2678,420.8934 1407.511,419.3799 1407.511,417.8664 1408.2678,417.1096 1409.7813,417.1096 1412.0515,417.8664 1413.5651,417.8664 1414.3218,417.1096 1414.3218,416.3529 1413.5651,414.8393 1412.8083,414.0826 1410.538,412.5691"/>
    <polyline points="1384.0515,400.461 1382.538,399.7042 1380.2678,398.1907 1379.511,396.6772 1379.511,395.1637 1380.2678,394.4069 1381.7813,394.4069 1384.0515,395.1637 1385.5651,395.1637 1386.3218,394.4069 1386.3218,393.6502 1385.5651,392.1366 1384.8083,391.3799 1382.538,389.8664"/>
    <polyline points="1384.8083,383.8123 1385.5651,384.5691 1386.3218,386.0826 1386.3218,387.5961 1385.5651,389.1096 1384.0515,389.8664 1382.538,389.8664 1381.0245,389.1096 1380.2678,388.3529 1379.511,386.8393 1379.511,385.3258 1380.2678,383.8123 1381.7813,383.0556"/>
    <polyline points="1379.511,382.2988 1384.8083,383.8123 1393.1326,386.8393 1394.6461,387.5961 1395.4029,389.1096 1394.6461,389.8664 1393.1326,389.8664 1390.8624,389.1096 1388.5921,386.8393 1387.0786,384.5691 1386.3218,383.0556 1384.8083,380.7853 1382.538,378.515"/>
    <polyline points="1382.538,366.4069 1380.2678,364.8934 1377.2407,363.3799"/>
    <line x1="1376.484" x2="1376.484" y1="365.6502" y2="360.3529"/>
    <polyline points="1382.538,359.5961 1380.2678,358.0826 1376.484,355.8123 1374.9705,355.0556 1372.7002,354.2988 1371.1867,354.2988 1370.4299,355.0556 1371.1867,356.5691 1372.7002,357.3258 1375.7272,358.0826 1380.2678,358.8393 1386.3218,359.5961"/>
    <polyline points="1386.3218,359.5961 1384.0515,358.8393 1382.538,358.0826 1380.2678,356.5691 1379.511,355.0556 1379.511,353.5421 1380.2678,352.7853 1381.7813,352.7853 1384.0515,353.5421 1385.5651,353.5421 1386.3218,352.7853 1386.3218,352.0285 1385.5651,350.515 1384.8083,349.7583 1382.538,348.2448"/>
    <polyline points="1384.8083,347.488 1384.0515,345.9745 1383.2948,345.2177 1381.7813,344.461 1380.2678,344.461 1379.511,345.2177 1379.511,345.9745 1380.2678,347.488 1381.7813,348.2448 1384.0515,348.2448 1385.5651,347.488 1386.3218,345.9745 1386.3218,344.461 1385.5651,342.9475 1384.8083,342.1907 1382.538,340.6772"/>
    <polyline points="1382.538,340.6772 1380.2678,339.1637 1378.7542,338.4069 1380.2678,338.4069 1382.538,336.8934 1384.0515,336.1366 1385.5651,336.1366 1386.3218,337.6502"/>
    <polyline points="1385.5651,340.6772 1386.3218,339.1637 1386.3218,336.1366 1385.5651,334.6231 1384.8083,333.8664 1382.538,332.3529"/>
    <polyline points="1384.8083,331.5961 1384.0515,330.0826 1383.2948,329.3258 1381.7813,328.5691 1380.2678,328.5691 1379.511,329.3258 1379.511,330.0826 1380.2678,331.5961 1381.7813,332.3529 1384.0515,332.3529 1385.5651,331.5961 1386.3218,330.0826 1386.3218,328.5691 1385.5651,327.0556 1384.8083,326.2988 1382.538,324.7853"/>
    <polyline points="1381.0245,307.3799 1380.2678,307.3799 1379.511,308.1366 1379.511,309.6502 1380.2678,311.1637 1381.0245,311.9204 1382.538,312.6772 1384.0515,312.6772 1385.5651,311.9204 1386.3218,310.4069 1386.3218,308.1366 1384.8083,305.8664 1382.538,304.3529"/>
    <polyline points="1382.538,304.3529 1380.2678,302.8393 1378.7542,302.0826 1380.2678,302.0826 1380.2678,299.8123 1381.0245,299.0556 1382.538,299.0556 1384.8083,299.8123 1385.5651,299.8123 1386.3218,299.0556 1386.3218,298.2988 1385.5651,296.7853 1384.8083,296.0285 1382.538,294.515"/>
    <polyline points="1381.7813,287.7042 1380.2678,288.461 1379.511,289.9745 1379.511,291.488 1380.2678,293.0015 1381.0245,293.7583 1382.538,294.515 1384.0515,294.515 1385.5651,293.7583 1386.3218,292.2448 1386.3218,290.7312 1385.5651,289.2177 1384.0515,288.461 1379.511,286.9475 1383.2948,287.7042 1385.5651,287.7042 1386.3218,286.9475 1386.3218,286.1907 1385.5651,284.6772 1384.8083,283.9204 1382.538,282.4069"/>
    <polyline points="1382.538,282.4069 1380.2678,280.8934 1379.511,279.3799 1379.511,277.8664 1381.0245,276.3529 1382.538,276.3529 1384.0515,277.1096 1385.5651,278.6231 1386.3218,280.8934 1387.0786,279.3799 1388.5921,278.6231 1390.8624,278.6231 1393.1326,279.3799 1394.6461,280.1366 1395.4029,281.6502 1394.6461,282.4069 1393.1326,282.4069 1390.8624,281.6502 1388.5921,279.3799 1387.0786,277.1096 1384.8083,274.0826 1382.538,271.8123"/>
    <polyline points="1382.538,271.8123 1379.511,270.2988 1384.0515,271.8123 1385.5651,271.8123 1386.3218,271.0556 1386.3218,269.5421 1385.5651,268.0285 1384.0515,266.515 1381.7813,265.0015"/>
    <polyline points="1379.511,264.2448 1393.1326,268.7853 1394.6461,269.5421 1395.4029,271.0556 1394.6461,271.8123 1393.1326,271.8123 1390.8624,271.0556 1388.5921,268.7853 1387.0786,266.515 1386.3218,265.0015 1384.8083,262.7312 1382.538,260.461"/>
    <polyline points="1382.538,248.3529 1380.2678,246.8393 1377.2407,245.3258"/>
    <line x1="1376.484" x2="1376.484" y1="247.5961" y2="242.2988"/>
    <polygon points="1375.7272,239.2718 1376.484,239.2718 1376.484,238.515 1375.7272,238.515"/>
    <polyline points="1370.4299,243.0556 1384.0515,247.5961 1385.5651,247.5961 1386.3218,246.8393 1386.3218,245.3258 1385.5651,243.8123 1384.8083,243.0556 1382.538,241.5421"/>
    <polyline points="1382.538,241.5421 1379.511,240.0285 1384.0515,241.5421 1385.5651,241.5421 1386.3218,240.7853 1386.3218,240.0285 1385.5651,238.515 1384.8083,237.7583 1382.538,236.2448"/>
    <polyline points="1382.538,236.2448 1380.2678,234.7312 1379.511,233.2177 1380.2678,232.461 1381.0245,232.461 1384.0515,233.2177 1386.3218,233.9745"/>
    <polyline points="1384.0515,233.2177 1382.538,232.461 1380.2678,230.9475 1379.511,229.4339 1379.511,227.9204 1380.2678,227.1637 1381.0245,227.1637 1384.0515,227.9204 1386.3218,228.6772"/>
    <polyline points="1384.0515,227.9204 1382.538,227.1637 1380.2678,225.6502 1379.511,224.1366 1379.511,222.6231 1380.2678,221.8664 1381.7813,221.8664 1384.0515,222.6231 1385.5651,222.6231 1386.3218,221.8664 1386.3218,221.1096 1385.5651,219.5961 1384.8083,218.8393 1382.538,217.3258"/>
    <polyline points="1384.8083,216.5691 1384.0515,215.0556 1383.2948,214.2988 1381.7813,213.5421 1380.2678,213.5421 1379.511,214.2988 1379.511,215.0556 1380.2678,216.5691 1381.7813,217.3258 1384.0515,217.3258 1385.5651,216.5691 1386.3218,215.0556 1386.3218,213.5421 1385.5651,212.0285 1384.8083,211.2718 1382.538,209.7583"/>
    <polyline points="1382.538,209.7583 1380.2678,208.2448 1378.7542,207.488 1380.2678,207.488 1382.538,205.9745 1384.0515,205.2177 1385.5651,205.2177 1386.3218,206.7312"/>
    <polyline points="1385.5651,209.7583 1386.3218,208.2448 1386.3218,205.2177 1385.5651,203.7042 1384.8083,202.9475 1382.538,201.4339"/>
    <polygon points="1382.538,198.4069 1383.2948,199.1637 1384.0515,198.4069 1383.2948,197.6502"/>
    <polyline points="1353.7813,155.2718 1352.2678,156.0285 1351.511,157.5421 1351.511,159.0556 1352.2678,160.5691 1353.0245,161.3258 1354.538,162.0826 1356.0515,162.0826 1357.5651,161.3258 1358.3218,159.8123 1358.3218,158.2988 1357.5651,156.7853 1356.0515,156.0285 1351.511,154.515 1355.2948,155.2718 1357.5651,155.2718 1358.3218,154.515 1358.3218,153.7583 1357.5651,152.2448 1356.8083,151.488 1354.538,149.9745"/>
    <polyline points="1354.538,149.9745 1352.2678,148.461 1350.7542,147.7042 1352.2678,147.7042 1354.538,146.1907 1356.0515,145.4339 1357.5651,145.4339 1358.3218,146.9475"/>
    <polyline points="1357.5651,149.9745 1358.3218,148.461 1358.3218,145.4339 1357.5651,143.9204 1356.8083,143.1637 1354.538,141.6502"/>
    <polyline points="1354.538,129.5421 1351.511,128.0285 1356.0515,129.5421 1357.5651,129.5421 1358.3218,128.7853 1358.3218,127.2718 1357.5651,125.7583 1356.0515,124.2448 1353.7813,122.7312"/>
    <polyline points="1351.511,121.9745 1365.1326,126.515 1366.6461,127.2718 1367.4029,128.7853 1366.6461,129.5421 1365.1326,129.5421 1362.8624,128.7853 1360.5921,126.515 1359.0786,124.2448 1358.3218,122.7312 1356.8083,120.461 1354.538,118.1907"/>
    <polyline points="1351.511,113.6502 1351.511,115.1637 1352.2678,116.6772 1353.0245,117.4339 1354.538,118.1907 1356.0515,118.1907 1357.5651,117.4339 1358.3218,115.9204 1358.3218,114.4069 1357.5651,112.8934 1356.8083,112.1366 1355.2948,111.3799 1353.7813,111.3799 1352.2678,112.1366 1351.511,113.6502 1352.2678,114.4069 1353.7813,114.4069 1355.2948,113.6502 1356.0515,112.1366 1356.0515,109.8664 1355.2948,108.3529 1354.538,107.5961"/>
    <polyline points="1354.538,107.5961 1351.511,106.0826 1356.0515,107.5961 1357.5651,107.5961 1358.3218,106.8393 1358.3218,105.3258 1357.5651,103.8123 1356.0515,102.2988 1353.7813,100.7853"/>
    <polyline points="1351.511,100.0285 1356.0515,101.5421 1357.5651,101.5421 1358.3218,100.7853 1358.3218,100.0285 1357.5651,98.515 1356.8083,97.7583 1354.538,96.2448"/>
    <polygon points="1347.7272,282.4069 1348.484,282.4069 1348.484,281.6502 1347.7272,281.6502"/>
    <polyline points="1354.538,319.488 1356.8083,321.0015 1357.5651,321.7583 1358.3218,323.2718 1358.3218,324.7853 1357.5651,326.2988 1356.0515,327.0556 1353.7813,327.0556 1352.2678,326.2988 1351.511,324.7853 1351.511,324.0285 1352.2678,323.2718 1353.7813,323.2718 1355.2948,324.0285 1356.0515,324.7853 1356.8083,326.2988"/>
    <polyline points="1354.538,327.0556 1356.8083,328.5691 1357.5651,329.3258 1358.3218,330.8393 1358.3218,331.5961 1357.5651,332.3529 1356.8083,332.3529 1354.538,331.5961 1353.0245,331.5961 1352.2678,332.3529 1352.2678,334.6231 1350.7542,334.6231 1352.2678,335.3799 1354.538,336.8934"/>
    <polyline points="1354.538,336.8934 1356.8083,338.4069 1357.5651,339.1637 1358.3218,340.6772 1358.3218,341.4339 1357.5651,342.1907 1355.2948,342.1907 1351.511,341.4339 1356.0515,342.9475 1357.5651,343.7042 1358.3218,345.2177 1358.3218,346.7312 1357.5651,348.2448 1356.0515,349.0015 1354.538,349.0015 1353.0245,348.2448 1352.2678,347.488 1351.511,345.9745 1351.511,344.461 1352.2678,342.9475 1353.7813,342.1907"/>
    <polyline points="1354.538,361.1096 1356.8083,362.6231 1357.5651,363.3799 1358.3218,364.8934 1358.3218,365.6502 1357.5651,366.4069 1356.0515,366.4069 1351.511,364.8934"/>
    <polyline points="1353.7813,365.6502 1356.0515,367.1637 1357.5651,368.6772 1358.3218,370.1907 1358.3218,371.7042 1357.5651,372.461 1356.0515,372.461 1351.511,370.9475 1354.538,372.461"/>
    <polyline points="1354.538,372.461 1355.2948,373.2177 1356.0515,374.7312 1356.0515,377.0015 1355.2948,378.515 1353.7813,379.2718 1352.2678,379.2718 1351.511,378.515 1352.2678,377.0015 1353.7813,376.2448 1355.2948,376.2448 1356.8083,377.0015 1357.5651,377.7583 1358.3218,379.2718 1358.3218,380.7853 1357.5651,382.2988 1356.0515,383.0556 1354.538,383.0556 1353.0245,382.2988 1352.2678,381.5421 1351.511,380.0285 1351.511,378.515"/>
    <polyline points="1354.538,383.0556 1356.8083,385.3258 1358.3218,387.5961 1359.0786,389.1096 1360.5921,391.3799 1362.8624,393.6502 1365.1326,394.4069 1366.6461,394.4069 1367.4029,393.6502 1366.6461,392.1366 1365.1326,391.3799 1351.511,386.8393"/>
    <polyline points="1353.7813,387.5961 1356.0515,389.1096 1357.5651,390.6231 1358.3218,392.1366 1358.3218,393.6502 1357.5651,394.4069 1356.0515,394.4069 1351.511,392.8934 1354.538,394.4069"/>
    <polyline points="1354.538,406.515 1356.8083,408.0285 1357.5651,408.7853 1358.3218,410.2988 1358.3218,411.8123 1357.5651,413.3258 1356.0515,414.0826 1353.7813,414.0826 1352.2678,413.3258 1351.511,411.8123 1351.511,411.0556 1352.2678,410.2988 1353.7813,410.2988 1355.2948,411.0556 1356.0515,411.8123 1356.8083,413.3258"/>
    <polyline points="1354.538,414.0826 1356.8083,416.3529 1357.5651,417.8664 1358.3218,420.1366 1358.3218,422.4069 1357.5651,423.9204"/>
    <polyline points="1358.3218,420.8934 1357.5651,419.3799 1356.8083,418.6231 1355.2948,417.8664 1353.7813,417.8664 1352.2678,418.6231 1351.511,420.1366 1351.511,421.6502 1352.2678,423.1637 1353.7813,423.9204"/>
    <polygon points="1375.7272,406.515 1376.484,406.515 1376.484,405.7583 1375.7272,405.7583"/>
    <polyline points="1370.4299,361.1096 1384.0515,365.6502 1385.5651,365.6502 1386.3218,364.8934 1386.3218,363.3799 1385.5651,361.8664 1384.8083,361.1096 1382.538,359.5961"/>
    <polyline points="1323.3218,389.8664 1321.8083,388.3529 1320.2948,388.3529 1319.538,389.1096 1320.2948,389.8664 1321.0515,389.1096 1320.2948,388.3529"/>
    <polyline points="1320.2948,405.0015 1321.8083,404.2448 1322.5651,403.488 1323.3218,401.2177 1323.3218,398.9475 1322.5651,396.6772 1321.0515,395.1637 1318.7813,394.4069 1317.2678,394.4069 1314.9975,395.1637 1314.2407,395.9204 1313.484,397.4339 1313.484,399.7042 1307.4299,395.1637 1307.4299,403.488"/>
    <polyline points="1319.538,419.3799 1321.8083,420.8934 1322.5651,421.6502 1323.3218,423.1637 1323.3218,423.9204 1322.5651,424.6772 1321.0515,424.6772 1318.7813,423.9204 1317.2678,423.9204 1316.511,424.6772 1316.511,426.1907 1317.2678,427.7042 1319.538,429.2177 1321.0515,429.9745"/>
    <polyline points="1323.3218,430.7312 1321.0515,429.9745 1318.0245,429.2177 1317.2678,429.2177 1316.511,429.9745 1317.2678,431.488 1319.538,433.0015"/>
    <polyline points="1319.538,433.0015 1320.2948,433.7583 1321.0515,435.2718 1321.0515,437.5421 1320.2948,439.0556 1318.7813,439.8123 1317.2678,439.8123 1316.511,439.0556 1317.2678,437.5421 1318.7813,436.7853 1320.2948,436.7853 1321.8083,437.5421 1322.5651,438.2988 1323.3218,439.8123 1323.3218,441.3258 1322.5651,442.8393 1321.0515,443.5961 1319.538,443.5961 1318.0245,442.8393 1317.2678,442.0826 1316.511,440.5691 1316.511,439.0556"/>
    <polyline points="1319.538,443.5961 1321.8083,445.1096 1322.5651,445.8664 1323.3218,447.3799 1323.3218,450.4069 1322.5651,451.9204"/>
    <polyline points="1319.538,451.9204 1317.2678,450.4069 1315.7542,449.6502 1317.2678,449.6502 1319.538,448.1366 1321.0515,447.3799 1322.5651,447.3799 1323.3218,448.8934"/>
    <polyline points="1319.538,451.9204 1321.8083,453.4339 1322.5651,454.1907 1323.3218,455.7042 1323.3218,456.461 1322.5651,457.2177 1321.8083,457.2177 1319.538,456.461 1318.0245,456.461 1317.2678,457.2177 1317.2678,459.488 1315.7542,459.488 1317.2678,460.2448 1319.538,461.7583"/>
    <polyline points="1319.538,461.7583 1321.8083,463.2718 1322.5651,464.0285 1323.3218,465.5421 1323.3218,467.0556 1322.5651,468.5691 1321.0515,469.3258 1318.7813,469.3258 1317.2678,468.5691 1316.511,467.0556 1316.511,466.2988 1317.2678,465.5421 1318.7813,465.5421 1320.2948,466.2988 1321.0515,467.0556 1321.8083,468.5691"/>
    <polyline points="1314.2407,477.6502 1314.9975,476.8934 1315.7542,475.3799 1315.7542,473.1096 1314.9975,471.5961 1314.2407,470.8393 1312.7272,470.0826 1310.4569,470.0826 1308.9434,470.8393 1308.1867,471.5961 1307.4299,473.1096 1307.4299,476.8934 1308.1867,479.1637 1308.9434,480.6772 1310.4569,482.1907 1312.7272,483.7042 1314.2407,484.461 1316.511,485.2177 1320.2948,485.9745 1322.5651,485.9745 1323.3218,485.2177 1323.3218,484.461 1322.5651,482.9475 1321.0515,481.4339 1318.7813,479.9204 1317.2678,479.1637 1314.9975,478.4069 1311.9705,477.6502 1309.7002,477.6502 1308.9434,478.4069"/>
    <polyline points="1523.9434,478.4069 1524.7002,477.6502 1526.9705,477.6502 1529.9975,478.4069 1532.2678,479.1637 1533.7813,479.9204 1536.0515,481.4339 1537.5651,482.9475 1538.3218,484.461 1538.3218,485.2177 1537.5651,485.9745 1535.2948,485.9745 1531.511,485.2177 1529.2407,484.461 1527.7272,483.7042 1525.4569,482.1907 1523.9434,480.6772 1523.1867,479.1637 1522.4299,476.8934 1522.4299,474.6231 1523.1867,473.1096 1524.7002,472.3529 1526.2137,472.3529 1527.7272,473.1096 1528.484,473.8664 1529.2407,475.3799 1529.9975,477.6502"/>
    <polyline points="1529.9975,478.4069 1529.9975,477.6502 1530.7542,475.3799 1531.511,474.6231 1533.0245,473.8664 1535.2948,473.8664 1536.8083,474.6231 1537.5651,475.3799 1538.3218,476.8934 1538.3218,479.1637 1537.5651,480.6772 1536.0515,481.4339"/>
    <polyline points="1536.8083,470.0826 1536.0515,468.5691 1535.2948,467.8123 1533.7813,467.0556 1532.2678,467.0556 1531.511,467.8123 1531.511,468.5691 1532.2678,470.0826 1533.7813,470.8393 1536.0515,470.8393 1537.5651,470.0826 1538.3218,468.5691 1538.3218,467.0556 1537.5651,465.5421 1536.8083,464.7853 1534.538,463.2718"/>
    <polyline points="1534.538,463.2718 1532.2678,461.7583 1530.7542,461.0015 1532.2678,461.0015 1534.538,459.488 1536.0515,458.7312 1537.5651,458.7312 1538.3218,460.2448"/>
    <polyline points="1537.5651,463.2718 1538.3218,461.7583 1538.3218,458.7312 1537.5651,457.2177 1536.8083,456.461 1534.538,454.9475"/>
    <polyline points="1534.538,454.9475 1532.2678,453.4339 1529.2407,451.9204"/>
    <line x1="1528.484" x2="1528.484" y1="454.1907" y2="448.8934"/>
    <polyline points="1534.538,448.1366 1536.8083,449.6502 1537.5651,450.4069 1538.3218,451.9204 1538.3218,453.4339 1537.5651,454.1907 1536.0515,454.1907 1522.4299,449.6502"/>
    <polyline points="1535.2948,444.3529 1536.0515,445.1096 1535.2948,445.8664 1534.538,445.1096 1535.2948,444.3529 1536.8083,444.3529 1538.3218,445.8664"/>
    <polygon points="1552.7272,454.1907 1553.484,454.1907 1553.484,453.4339 1552.7272,453.4339"/>
    <polyline points="1559.538,456.461 1556.511,454.9475 1561.0515,456.461 1562.5651,456.461 1563.3218,455.7042 1563.3218,454.9475 1562.5651,453.4339 1561.8083,452.6772 1559.538,451.1637"/>
    <polyline points="1559.538,451.1637 1557.2678,449.6502 1556.511,448.1366 1557.2678,447.3799 1558.0245,447.3799 1561.0515,448.1366 1563.3218,448.8934"/>
    <polyline points="1561.0515,448.1366 1559.538,447.3799 1557.2678,445.8664 1556.511,444.3529 1556.511,442.8393 1557.2678,442.0826 1558.7813,442.0826 1561.0515,442.8393 1562.5651,442.8393 1563.3218,442.0826 1563.3218,441.3258 1562.5651,439.8123 1561.8083,439.0556 1559.538,437.5421"/>
    <polyline points="1559.538,456.461 1561.8083,457.9745 1562.5651,458.7312 1563.3218,460.2448 1563.3218,461.0015 1562.5651,461.7583 1558.0245,461.7583 1552.7272,461.0015 1549.7002,460.2448 1548.1867,459.488 1547.4299,457.9745 1548.1867,457.2177 1549.7002,457.2177 1551.9705,457.9745 1553.484,458.7312 1557.2678,461.0015 1559.538,462.515"/>
    <polyline points="1559.538,462.515 1560.2948,463.2718 1561.0515,464.7853 1561.0515,467.0556 1560.2948,468.5691 1558.7813,469.3258 1557.2678,469.3258 1556.511,468.5691 1557.2678,467.0556 1558.7813,466.2988 1560.2948,466.2988 1561.8083,467.0556 1562.5651,467.8123 1563.3218,469.3258 1563.3218,470.8393 1562.5651,472.3529 1561.0515,473.1096 1559.538,473.1096 1558.0245,472.3529 1557.2678,471.5961 1556.511,470.0826 1556.511,468.5691"/>
    <polyline points="1559.538,476.8934 1561.0515,477.6502 1562.5651,479.1637 1563.3218,481.4339 1563.3218,482.9475 1562.5651,484.461 1561.8083,485.2177 1559.538,485.9745 1556.511,485.9745 1553.484,485.2177 1551.9705,484.461 1549.7002,482.9475 1548.1867,481.4339 1547.4299,479.1637 1547.4299,476.8934 1548.1867,475.3799 1549.7002,474.6231 1551.2137,474.6231 1552.7272,475.3799 1553.484,476.8934 1553.484,478.4069 1552.7272,479.1637 1551.9705,479.1637"/>
    <polyline points="1558.7813,418.6231 1557.2678,419.3799 1556.511,420.8934 1556.511,422.4069 1557.2678,423.9204 1558.0245,424.6772 1559.538,425.4339 1561.0515,425.4339 1562.5651,424.6772 1563.3218,423.1637 1563.3218,421.6502 1562.5651,420.1366 1561.0515,419.3799 1556.511,417.8664 1560.2948,418.6231 1562.5651,418.6231 1563.3218,417.8664 1563.3218,417.1096 1562.5651,415.5961 1561.8083,414.8393 1559.538,413.3258"/>
    <polyline points="1559.538,413.3258 1557.2678,411.8123 1556.511,410.2988 1557.2678,409.5421 1558.0245,409.5421 1561.0515,410.2988 1563.3218,411.0556"/>
    <polyline points="1561.0515,410.2988 1559.538,409.5421 1557.2678,408.0285 1556.511,406.515 1556.511,405.0015 1557.2678,404.2448 1558.7813,404.2448 1561.0515,405.0015 1562.5651,405.0015 1563.3218,404.2448 1563.3218,403.488 1562.5651,401.9745 1561.8083,401.2177 1559.538,399.7042"/>
    <polyline points="1558.7813,392.8934 1557.2678,393.6502 1556.511,395.1637 1556.511,396.6772 1557.2678,398.1907 1558.0245,398.9475 1559.538,399.7042 1561.0515,399.7042 1562.5651,398.9475 1563.3218,397.4339 1563.3218,395.9204 1562.5651,394.4069 1561.0515,393.6502 1547.4299,389.1096"/>
    <polyline points="1556.511,392.1366 1560.2948,392.8934 1562.5651,392.8934 1563.3218,392.1366 1563.3218,391.3799 1562.5651,389.8664 1561.8083,389.1096 1559.538,387.5961"/>
    <polyline points="1559.538,370.9475 1558.7813,372.461 1558.7813,373.9745 1559.538,374.7312 1561.0515,374.7312 1562.5651,373.9745 1563.3218,372.461 1563.3218,370.9475 1562.5651,369.4339 1561.0515,367.9204 1559.538,367.1637 1555.7542,365.6502 1551.9705,364.8934 1549.7002,364.8934 1548.1867,365.6502 1547.4299,366.4069 1547.4299,367.9204 1548.1867,368.6772 1549.7002,369.4339 1551.9705,369.4339 1554.2407,368.6772 1555.7542,367.9204 1558.0245,366.4069 1559.538,364.8934"/>
    <polyline points="1558.7813,355.8123 1557.2678,356.5691 1556.511,358.0826 1556.511,359.5961 1557.2678,361.1096 1558.0245,361.8664 1559.538,362.6231 1561.0515,362.6231 1562.5651,361.8664 1563.3218,360.3529 1563.3218,358.8393 1562.5651,357.3258 1561.0515,356.5691 1556.511,355.0556 1560.2948,355.8123 1562.5651,355.8123 1563.3218,355.0556 1563.3218,354.2988 1562.5651,352.7853 1561.8083,352.0285 1559.538,350.515"/>
    <polyline points="1559.538,350.515 1557.2678,349.0015 1556.511,347.488 1557.2678,346.7312 1558.0245,346.7312 1561.0515,347.488 1563.3218,348.2448"/>
    <polyline points="1561.0515,347.488 1559.538,346.7312 1557.2678,345.2177 1556.511,343.7042 1556.511,342.1907 1557.2678,341.4339 1558.7813,341.4339 1561.0515,342.1907 1562.5651,342.1907 1563.3218,341.4339 1563.3218,340.6772 1562.5651,339.1637 1561.8083,338.4069 1559.538,336.8934"/>
  </g>
  <g fill="none" id="layer2" inkscape:groupmode="layer" inkscape:label="2" stroke="#080" style="display:inline">
    <polyline points="879.5558,392.4408 879.4595,392.2448 879.3631,392.0472 879.2667,391.8482 879.1701,391.6478 879.0735,391.4459 878.9768,391.2425 878.88,391.0377 878.7831,390.8314 878.6861,390.6237 878.5891,390.4146 878.4919,390.204 878.3948,389.992 878.2975,389.7786 878.2002,389.5638 878.1028,389.3475 878.0053,389.1299 877.9078,388.9108 877.8102,388.6903 877.7126,388.4685 877.6149,388.2452 877.5172,388.0206 877.4194,387.7946 877.3215,387.5672 877.2237,387.3384 877.1257,387.1083 877.0278,386.8768 876.9298,386.644 876.8317,386.4097 876.7337,386.1742 876.6356,385.9373 876.5374,385.6991 876.4393,385.4595 876.3411,385.2186 876.2429,384.9763 876.1446,384.7328 876.0464,384.4879 875.9481,384.2417 875.8499,383.9942 875.7516,383.7454 875.6533,383.4953 875.555,383.2439 875.4567,382.9913 875.3584,382.7373 875.2601,382.482 875.1617,382.2255 875.0634,381.9677 874.9651,381.7087 874.8669,381.4483 874.7686,381.1867 874.6703,380.9239 874.5721,380.6598 874.4738,380.3945 874.3756,380.1279 874.2774,379.8601 874.1793,379.5911 874.0812,379.3208 873.983,379.0493 873.885,378.7766 873.7869,378.5027 873.6889,378.2276 873.591,377.9513 873.493,377.6737 873.3952,377.395 873.2973,377.1151 873.1995,376.834 873.1018,376.5517 873.0041,376.2683 872.9065,375.9837 872.8089,375.6979 872.7114,375.4109 872.6139,375.1228 872.5165,374.8335 872.4192,374.5431 872.3219,374.2516 872.2247,373.9589 872.1276,373.665 872.0306,373.3701 871.9336,373.074 871.8367,372.7768 871.7399,372.4785 871.6432,372.179 871.5465,371.8785 871.45,371.5768 871.3535,371.2741 871.2571,370.9702 871.1609,370.6653 871.0647,370.3593 870.9686,370.0522 870.8726,369.744 870.7768,369.4348 870.681,369.1245 870.5853,368.8131 870.4898,368.5007 870.3943,368.1872 870.299,367.8726 870.2038,367.5571 870.1087,367.2405 870.0138,366.9228 869.9189,366.6041 869.8242,366.2844 869.7296,365.9637 869.6352,365.642 869.5408,365.3192 869.4467,364.9954 869.3526,364.6707 869.2587,364.3449 869.1649,364.0182 869.0713,363.6904 868.9778,363.3617 868.8845,363.032 868.7913,362.7013 868.6983,362.3696 868.6054,362.037 868.5127,361.7034 868.4202,361.3689 868.3278,361.0334 868.2356,360.6969 868.1435,360.3596 868.0516,360.0212 867.9599,359.682 867.8683,359.3418 867.777,359.0007 867.6858,358.6586 867.5948,358.3157 867.504,357.9718 867.4133,357.627 867.3229,357.2814 867.2326,356.9348 867.1425,356.5873 867.0526,356.239 866.9629,355.8897 866.8735,355.5396 866.7842,355.1886 866.6951,354.8368 866.6062,354.484 866.5175,354.1304 866.4291,353.776 866.3408,353.4207 866.2528,353.0645 866.165,352.7075 866.0774,352.3497 865.99,351.9911 865.9029,351.6316 865.8159,351.2712 865.7292,350.9101 865.6427,350.5481 865.5565,350.1854 865.4705,349.8218 865.3847,349.4574 865.2992,349.0923 865.2139,348.7263 865.1289,348.3595 865.0441,347.992 864.9595,347.6237 864.8752,347.2546 864.7912,346.8847 864.7074,346.5141 864.6238,346.1427 864.5405,345.7705 864.4575,345.3976 864.3748,345.024 864.2923,344.6496 864.2101,344.2745 864.1281,343.8986 864.0464,343.522 863.965,343.1447 863.8839,342.7667 863.8031,342.3879 863.7225,342.0085 863.6422,341.6283 863.5622,341.2474 863.4825,340.8658 863.4031,340.4836 863.324,340.1006 863.2452,339.717 863.1666,339.3327 863.0884,338.9477 863.0105,338.562 862.9329,338.1757 862.8556,337.7887 862.7785,337.4011 862.7019,337.0128 862.6255,336.6239 862.5494,336.2343 862.4737,335.8441 862.3982,335.4532 862.3231,335.0617 862.2483,334.6696 862.1739,334.2769 862.0998,333.8835 862.026,333.4896 861.9525,333.095 861.8794,332.6999 861.8066,332.3041 861.7341,331.9078 861.662,331.5108 861.5903,331.1133 861.5189,330.7152 861.4478,330.3165 861.3771,329.9173 861.3067,329.5175 861.2367,329.1171 861.1671,328.7162 861.0978,328.3147 861.0289,327.9127 860.9603,327.5101 860.8921,327.107 860.8243,326.7034 860.7569,326.2992 860.6898,325.8945 860.6231,325.4893 860.5568,325.0836 860.4909,324.6773 860.4253,324.2706 860.3601,323.8633 860.2954,323.4556 860.231,323.0474 860.167,322.6387 860.1034,322.2295 860.0402,321.8198 859.9774,321.4096 859.915,320.999 859.853,320.5879 859.7914,320.1763 859.7302,319.7643 859.6694,319.3519 859.609,318.939 859.5491,318.5256 859.4895,318.1119 859.4304,317.6976 859.3717,317.283 859.3135,316.8679 859.2556,316.4524 859.1982,316.0365 859.1412,315.6202 859.0847,315.2035 859.0286,314.7864 858.9729,314.3689 858.9176,313.951 858.8628,313.5327 858.8085,313.114 858.7546,312.6949 858.7011,312.2755 858.6481,311.8557 858.5956,311.4355 858.5435,311.015 858.4918,310.5941 858.4406,310.1729 858.3899,309.7513 858.3397,309.3294 858.2899,308.9072 858.2405,308.4846 858.1917,308.0617 858.1433,307.6384 858.0954,307.2149 858.048,306.791 858.001,306.3668 857.9546,305.9423 857.9086,305.5175 857.8631,305.0924 857.8181,304.6671 857.7736,304.2414 857.7296,303.8155 857.6861,303.3892 857.6431,302.9627 857.6005,302.536 857.5585,302.1089 857.517,301.6816 857.476,301.2541 857.4355,300.8263 857.3955,300.3983 857.3561,299.97 857.3171,299.5415 857.2787,299.1127 857.2407,298.6837 857.2034,298.2545 857.1665,297.8251 857.1301,297.3955 857.0943,296.9656 857.0591,296.5356 857.0243,296.1053 856.9901,295.6749 856.9564,295.2442 856.9233,294.8134 856.8907,294.3824 856.8587,293.9512 856.8272,293.5199 856.7963,293.0883 856.7659,292.6566 856.736,292.2248 856.7067,291.7928 856.678,291.3606 856.6499,290.9283 856.6223,290.4959 856.5952,290.0633 856.5688,289.6306 856.5429,289.1978 856.5176,288.7648 856.4928,288.3317 856.4687,287.8985 856.4451,287.4652 856.4221,287.0318 856.3997,286.5983 856.3778,286.1647 856.3566,285.731 856.3359,285.2972 856.3159,284.8634 856.2964,284.4294 856.2775,283.9954 856.2592,283.5613 856.2416,283.1272 856.2245,282.693 856.2081,282.2587 856.1922,281.8244 856.177,281.3901 856.1623,280.9557 856.1483,280.5213 856.1349,280.0868 856.1222,279.6523 856.11,279.2178 856.0985,278.7833 856.0876,278.3487 856.0773,277.9142 856.0677,277.4796 856.0587,277.0451 856.0503,276.6105 856.0426,276.176 856.0355,275.7414 856.029,275.3069 856.0232,274.8724 856.018,274.438 856.0135,274.0035 856.0097,273.5692 856.0065,273.1348 856.0039,272.7005 856.002,272.2662 856.0008,271.832 856.0002,271.3979 856.0003,270.9638 856.0011,270.5298 856.0025,270.0959 856.0046,269.662 856.0074,269.2283 856.0109,268.7946 856.015,268.361 856.0198,267.9275 856.0253,267.4941 856.0315,267.0608 856.0384,266.6276 856.0459,266.1945 856.0542,265.7616 856.0631,265.3288 856.0728,264.896 856.0831,264.4635 856.0942,264.0311 856.1059,263.5988 856.1183,263.1666 856.1315,262.7346 856.1454,262.3028 856.16,261.8711 856.1753,261.4396 856.1913,261.0082 856.208,260.5771 856.2255,260.1461 856.2436,259.7153 856.2625,259.2846 856.2822,258.8542 856.3025,258.424 856.3236,257.9939 856.3454,257.5641 856.368,257.1345 856.3913,256.7051 856.4154,256.2759 856.4402,255.8469 856.4657,255.4182 856.492,254.9897 856.519,254.5614 856.5468,254.1334 856.5753,253.7056 856.6046,253.2781 856.6347,252.8508 856.6655,252.4238 856.6971,251.9971 856.7295,251.5706 856.7626,251.1444 856.7965,250.7185 856.8312,250.2928 856.8666,249.8675 856.9028,249.4424 856.9398,249.0177 856.9776,248.5932 857.0162,248.169 857.0555,247.7452 857.0956,247.3216 857.1366,246.8984 857.1783,246.4755 857.2208,246.053 857.2641,245.6308 857.3083,245.2089 857.3532,244.7873 857.3989,244.3661 857.4455,243.9453 857.4928,243.5248 857.5409,243.1046 857.5899,242.6848 857.6397,242.2654 857.6903,241.8464 857.7417,241.4278 857.794,241.0095 857.847,240.5916 857.9009,240.1741 857.9557,239.7571 858.0112,239.3404 858.0676,238.9241 858.1248,238.5082 858.1967,237.9948 858.2696,237.4819 858.3436,236.9696 858.4188,236.4578 858.495,235.9466 858.5724,235.436 858.6508,234.926 858.7304,234.4165 858.811,233.9076 858.8927,233.3994 858.9755,232.8917 859.0594,232.3846 859.1443,231.8781 859.2304,231.3722 859.3174,230.867 859.4056,230.3623 859.4947,229.8583 859.585,229.3549 859.6762,228.8521 859.7686,228.35 859.8619,227.8485 859.9563,227.3476 860.0517,226.8474 860.1481,226.3478 860.2456,225.8489 860.3441,225.3507 860.4435,224.8531 860.544,224.3561 860.6455,223.8599 860.748,223.3643 860.8515,222.8694 860.9559,222.3752 861.0614,221.8816 861.1678,221.3888 861.2752,220.8966 861.3836,220.4052 861.4929,219.9144 861.6032,219.4244 861.7145,218.9351 861.8267,218.4465 861.9399,217.9586 862.054,217.4714 862.169,216.985 862.285,216.4993 862.4019,216.0143 862.5198,215.5301 862.6385,215.0466 862.7582,214.5639 862.8788,214.0819 863.0003,213.6007 863.1227,213.1202 863.2461,212.6406 863.3703,212.1616 863.4954,211.6835 863.6214,211.2061 863.7483,210.7296 863.876,210.2538 864.0047,209.7788 864.1342,209.3046 864.2646,208.8312 864.3958,208.3586 864.5279,207.8868 864.6608,207.4158 864.7946,206.9457 864.9293,206.4763 865.0648,206.0078 865.2011,205.5401 865.3383,205.0733 865.4762,204.6073 865.615,204.1421 865.7547,203.6778 865.8951,203.2143 866.0364,202.7517 866.1784,202.29 866.3213,201.8291 866.4649,201.369 866.6094,200.9099 866.7546,200.4516 866.9007,199.9942 867.0475,199.5377 867.195,199.0821 867.3434,198.6273 867.4925,198.1735 867.6424,197.7206 867.793,197.2685 867.9444,196.8174 868.0966,196.3672 868.2495,195.9179 868.4031,195.4696 868.5575,195.0221 868.7126,194.5756 868.8684,194.13 869.025,193.6854 869.1822,193.2417 869.3402,192.799 869.4989,192.3572 869.6583,191.9163 869.8184,191.4765 869.9793,191.0375 870.1408,190.5996 870.3029,190.1626 870.4658,189.7266 870.6294,189.2916 870.7936,188.8576 870.9585,188.4245 871.1241,187.9925 871.2903,187.5614 871.4572,187.1314 871.6248,186.7023 871.793,186.2743 871.9618,185.8473 872.1313,185.4213 872.3014,184.9963 872.4722,184.5723 872.6436,184.1494 872.8156,183.7275 872.9882,183.3067 873.1614,182.8869 873.3353,182.4681 873.5097,182.0504 873.6848,181.6338 873.8605,181.2182 874.0367,180.8037 874.2136,180.3902 874.391,179.9778 874.569,179.5665 874.7476,179.1563 874.9268,178.7472 875.1065,178.3391 875.2868,177.9322 875.4676,177.5263 875.6491,177.1216 875.831,176.7179 876.0135,176.3154 876.1966,175.914 876.3801,175.5137 876.5643,175.1145 876.7489,174.7164 876.9341,174.3195 877.1198,173.9237 877.306,173.5291 877.4927,173.1356 877.6799,172.7432 877.8676,172.352 878.0559,171.962 878.2446,171.5731 878.4338,171.1854 878.6235,170.7989 878.8137,170.4135 879.0043,170.0293 879.1954,169.6463 879.387,169.2645 879.5791,168.8838 879.7716,168.5044 879.9646,168.1262 880.158,167.7491 880.3519,167.3733 880.5462,166.9987 880.7409,166.6253 880.9361,166.2531 881.1317,165.8821 881.3278,165.5124 881.5242,165.1439 881.7211,164.7767 881.9184,164.4106 882.1161,164.0459 882.3142,163.6823 882.5127,163.3201 882.7116,162.9591 882.9108,162.5993 883.1105,162.2408 883.3105,161.8836 883.511,161.5277 883.7118,161.173 883.9129,160.8196 884.1145,160.4675 884.3163,160.1167 884.5186,159.7672 884.7212,159.419 884.9241,159.0721 885.1274,158.7265 885.331,158.3822 885.535,158.0393 885.7393,157.6976 885.9439,157.3573 886.1488,157.0183 886.3541,156.6806 886.5596,156.3443 886.7655,156.0093 886.9717,155.6757 887.1781,155.3434 887.3849,155.0125 887.592,154.6829 887.7993,154.3547 888.0069,154.0278 888.2148,153.7024 888.423,153.3783 888.6315,153.0556 888.8402,152.7342 889.0491,152.4143 889.2584,152.0957 889.4678,151.7786 889.6775,151.4628 889.8875,151.1484 890.0977,150.8355 890.3082,150.524 890.5188,150.2138 890.7297,149.9052 890.9408,149.5979 891.1522,149.292 891.3637,148.9876 891.5755,148.6847 891.7874,148.3831 891.9996,148.0831 892.2119,147.7844 892.4245,147.4873 892.6372,147.1915 892.8501,146.8973 893.0632,146.6045 893.2764,146.3132 893.4899,146.0234 893.7035,145.735 893.9172,145.4481 894.1311,145.1627 894.3452,144.8788 894.5594,144.5965 894.7737,144.3156 894.9882,144.0362 895.2029,143.7583 895.4176,143.4819 895.6325,143.2071 895.8475,142.9337 896.0626,142.6619 896.2779,142.3917 896.4932,142.1229 896.7086,141.8557 896.9242,141.5901 897.1398,141.326 897.3556,141.0634 897.5714,140.8024 897.7873,140.543 898.0032,140.2851 898.2193,140.0288 898.4354,139.7741 898.6516,139.5209 898.8679,139.2693 899.0842,139.0193 899.3005,138.7709 899.5169,138.5241 899.7334,138.2789 899.9498,138.0353 900.1664,137.7933 900.3829,137.5529 900.5995,137.3141 900.8161,137.0769 901.0327,136.8414 901.2493,136.6075 901.466,136.3752 901.6826,136.1445 901.8993,135.9155 902.1159,135.6882 902.3325,135.4624 902.5491,135.2384 902.7657,135.016 902.9823,134.7952 903.1989,134.5761 903.4154,134.3587 903.6319,134.143 903.8483,133.9289 904.0647,133.7165 904.2811,133.5058 904.4974,133.2968 904.7136,133.0895 904.9298,132.8839 905.1459,132.68 905.362,132.4777 905.578,132.2773 905.7939,132.0785 906.0097,131.8814 906.2254,131.6861 906.4411,131.4924 906.6566,131.3006 906.872,131.1104 907.0874,130.922 907.3026,130.7354 907.5177,130.5504 907.7327,130.3673 907.9476,130.1859 908.1624,130.0062 908.377,129.8284 908.5915,129.6522 908.8058,129.4779 909.0201,129.3054 909.2341,129.1346 909.448,128.9656 909.6618,128.7984 909.8754,128.633 910.0888,128.4694 910.3021,128.3076 910.5152,128.1476 910.7281,127.9894 910.9408,127.833 911.1533,127.6785 911.3657,127.5258 911.5778,127.3749 911.7898,127.2258 912.0016,127.0786 912.2131,126.9332 912.4244,126.7897 912.6355,126.648 912.8464,126.5081 913.0571,126.3702 913.2675,126.234 913.4777,126.0998 913.6877,125.9674 913.8974,125.8369 914.1069,125.7083 914.3161,125.5815 914.5251,125.4567 914.7338,125.3337 914.9423,125.2126 915.1504,125.0934 915.3583,124.9762 915.566,124.8608 915.7733,124.7474 915.9804,124.6358 916.1871,124.5262 916.3936,124.4185 916.5998,124.3128 916.8057,124.2089 917.0112,124.107 917.2165,124.0071 917.4214,123.9091 917.626,123.813 917.8303,123.7189 918.0343,123.6268 918.2379,123.5366 918.4412,123.4484 918.6441,123.3622 918.8467,123.2779 919.049,123.1956 919.2509,123.1153 919.4524,123.037 919.6536,122.9607 919.8544,122.8863 920.0548,122.814 920.2548,122.7437 920.4545,122.6754 920.6538,122.6091 920.8527,122.5448 921.0512,122.4825 921.2493,122.4223 921.447,122.3641 921.6442,122.3079 921.8411,122.2538 922.0376,122.2017 922.2336,122.1516 922.4292,122.1036 922.6244,122.0577 922.8192,122.0138 923.0135,121.972 923.2074,121.9322 923.4008,121.8945 923.5938,121.8589 923.7863,121.8254 923.9783,121.794 924.1699,121.7646 924.3611,121.7373 924.5517,121.7122 924.7419,121.6891 924.9316,121.6682 925.1208,121.6493 925.3095,121.6326"/>
  </g>
</svg>
