<?xml version="1.0" encoding="utf-8" ?>
<svg xmlns="http://www.w3.org/2000/svg" xmlns:cc="http://creativecommons.org/ns#" xmlns:dc="http://purl.org/dc/elements/1.1/" xmlns:ev="http://www.w3.org/2001/xml-events" xmlns:inkscape="http://www.inkscape.org/namespaces/inkscape" xmlns:rdf="http://www.w3.org/1999/02/22-rdf-syntax-ns#" xmlns:sodipodi="http://sodipodi.sourceforge.net/DTD/sodipodi-0.dtd" xmlns:xlink="http://www.w3.org/1999/xlink" baseProfile="tiny" height="27.94cm" version="1.2" viewBox="0 0 1632.0 1056.0" width="43.18cm">
  <metadata>
    <rdf:RDF>
      <cc:Work>
        <dc:format>image/svg+xml</dc:format>
        <dc:source>vpype read /Users/cj/Documents/Projects/greeting-cards-2021/inside/person-maps/p4.svg pagesize 5.5inx8.5in ldelete 2 splitall linemerge --tolerance 1.2mm linesimplify --tolerance 0.2mm rotate 270 layout -l -h right -v bottom 11inx17in ldelete 3 linesort write /Users/cj/Documents/Projects/greeting-cards-2021/inside/11x17/individual/insides-map-onecard-11x17-3.svg
</dc:source>
        <dc:date>2022-02-09T18:48:15.275755</dc:date>
      </cc:Work>
    </rdf:RDF>
  </metadata>
  <defs/>
  <g fill="none" id="layer1" inkscape:groupmode="layer" inkscape:label="1" stroke="#00f" style="display:inline">
    <polygon points="987.5667,690.4519 987.7546,695.0306 987.4558,685.4104 982.1107,685.5261 987.4558,685.4104 987.5667,690.4519 996.6519,690.1289"/>
    <polyline points="980.5828,685.5839 982.1107,685.5261 978.0717,685.6658"/>
    <polygon points="968.6057,685.9695 978.0717,685.6658"/>
    <polygon points="963.8727,685.9888 968.6057,685.9695"/>
    <polyline points="958.3686,677.0915 958.6577,675.8769 944.9118,676.6674 958.6577,675.8769 956.8455,679.3086 958.0264,678.4025 953.7946,681.6076 957.0576,683.9018 957.2648,686.331 963.8727,685.9888 956.9419,686.625 957.8046,685.5743 956.6961,686.7214 956.8359,692.2834 959.0385,695.1704 951.1534,700.4191 953.4379,705.0991 951.7848,705.7353 953.4379,705.0991 952.8403,703.74 954.2766,705.1473 953.4379,705.0991 956.672,705.6245 957.1443,707.9573 956.672,705.6245 957.5829,706.9114 955.1249,710.343 954.8501,709.4948 955.1538,712.2854 952.9029,712.0974 952.2908,713.3361 952.0209,717.1052 952.4161,714.2374 952.662,716.3244 951.6546,717.5679 954.0741,719.115 953.0138,722.0551 950.5461,723.448 922.9963,723.9733 951.5341,722.9082 950.5461,723.448 951.9824,728.181 963.2847,727.8773 951.4908,728.181 951.8571,726.6965 951.9824,728.181 949.9581,727.9882 951.4908,728.181 950.8497,730.9234 950.8256,728.2292 948.0832,727.3086 947.0951,728.0412 947.7362,727.3857 945.9095,729.4968 943.3164,730.0366 945.9095,729.4968 941.8368,730.8367 940.8487,733.6032 943.2923,737.9699 943.0947,740.3268 945.9384,741.151 946.3288,743.4355 946.2565,741.3919 946.3288,743.4355 944.8009,745.2526 945.413,747.8263 944.8732,746.2744 944.5744,747.1949 949.264,752.0051 946.7915,753.7787 947.7795,753.851 944.5455,753.4124 943.6056,756.8827 946.5842,761.3024 951.351,760.6276 951.3992,762.2808 951.7462,760.0203 950.8112,760.724 952.3921,759.8998 960.9182,765.2835 960.4748,764.4304 961.5255,770.7298 961.2556,769.9249 963.2703,772.8216 966.8513,772.2481 974.828,775.887 980.1973,775.9255 977.9802,776.528 978.9682,776.3352 981.701,775.2942 983.2434,769.7707 984.9447,768.0982 988.8584,769.5876 988.9114,778.2583 989.4271,767.9826 984.9447,768.0982 990.0922,767.7898 990.6128,765.3558 993.7167,764.9943 984.8773,764.3003 995.635,764.6328 998.9799,766.2426 1007.1494,763.3556 1005.8191,763.452 1014.2296,762.2471 1011.9932,762.2904 1013.0295,761.9771 1017.6709,763.7171 1016.2202,763.5677 1016.9142,774.229 1016.8612,763.64 1020.3507,762.5507 1022.8136,759.3552 1022.6883,760.136 1039.8997,759.9384 1022.4184,760.8204 1021.84,751.3496 1017.4203,746.4672 1021.893,742.809 1021.1797,743.1271 1023.4643,742.6162 1022.5341,743.0066 1028.5732,737.5651 1041.4661,737.2951 1040.3575,737.2469 1043.3313,735.2178 1043.8711,732.7501 1043.3313,735.2178 1044.3579,731.1114"/>
    <polyline points="1055.1494,726.0699 1055.776,726.7061 1054.5614,670.445 1052.8937,670.5222 1054.5614,670.445 1053.8191,649.3248 1049.1006,652.0866 1044.5218,650.0671 1042.8735,651.6769 1037.9525,652.771 1034.7666,655.6484 1031.7398,654.7133 1030.9349,655.5664 986.4822,656.9401 987.4558,685.4104 986.4822,656.9401 944.3189,658.7282 944.8009,672.8356 940.1306,673.0766 944.8009,672.8356 944.9118,676.6674 944.3189,658.7282 893.1813,660.4199 893.7066,674.6623 897.9721,674.4695 898.1022,676.8168 897.9721,674.4695 893.7066,674.6623 895.1092,724.0938 900.8351,723.9878 895.1092,724.0938 895.4851,795.3926 896.5021,795.5661 895.4851,795.3926 894.044,862.2764 896.1792,861.5004 895.6972,863.2886 894.5356,862.9126 897.1961,864.6815 897.8131,862.1463 899.8566,863.785 902.4545,861.1486 905.6982,860.9847 904.8644,859.9099 905.9874,858.7339 908.5081,859.8231 909.6022,859.1291 906.132,856.0734 907.6888,853.2779 909.8094,854.4588 913.6074,853.4225 913.9207,839.45 913.6074,853.4225 916.0462,851.2633 918.3404,852.4441 916.7788,856.0878 917.8344,854.1117 920.1912,853.114 923.8735,853.4803 921.1359,856.1023 923.059,857.1096 919.8346,857.6928 921.1937,861.2643 922.7409,859.6545 924.1434,860.4642 925.9798,859.7557 923.7819,855.8083 925.5315,856.7674 927.9414,855.4805 927.7534,853.9479 928.7415,854.5889 931.4887,850.1017 932.6021,850.1788 932.4672,844.6264 932.3129,849.4992 935.0457,850.7572 933.5468,853.1237 934.5927,855.5095 938.1738,855.9047 940.9692,854.9793 941.1042,853.4273 945.2058,849.7209 938.0388,853.7888 936.964,852.4248 935.7735,852.7526 935.4458,849.9619 943.061,849.0221 946.671,845.3108 945.8372,844.3806 946.6614,842.8576 946.6999,844.2698 950.0978,845.4554 950.9461,847.9665 956.1707,849.1715 958.7204,851.3789 960.0266,851.5042 960.2916,845.359 960.0266,851.5042 963.4148,850.8295 966.2826,853.0851 969.3624,849.6824 971.6807,849.8944 974.4521,848.1882 969.8685,851.2392 970.8228,852.5646 983.2144,849.4414 985.2532,853.837 986.7666,852.0007 987.2968,853.5141 988.4294,853.5237 984.535,857.6784 986.4099,857.0373 991.3695,859.1966 997.0134,864.6718 991.7984,867.8432 996.0784,868.0023 994.3963,869.1831 992.4539,868.6048 993.5914,871.0773 998.71,871.2412 996.7098,872.2485 993.2154,871.7521 995.8663,872.6775 997.1773,874.7837 999.298,874.2439 997.052,875.1259 995.3506,872.9907 991.7936,871.4725 991.2201,872.3449 993.6926,873.733 995.9772,877.4297 992.9696,875.1163 993.6589,877.6033 990.6513,872.1714 989.5958,877.8346 987.21,874.9668 989.1765,875.3958 989.7018,876.861 990.0874,871.9689 985.7111,871.3472 984.1832,868.3156 979.5611,867.3998 982.1252,867.0817 981.7878,866.2045 983.147,865.5587 983.0891,866.4069 988.1499,868.0601 992.1358,865.3852 989.2343,865.1683 990.1453,865.0044 989.4367,864.1706 987.1425,864.5658 986.7666,865.7322 982.9108,864.4357 981.0648,860.5991 979.4647,860.3678 980.0045,857.6205 974.3027,855.3841 973.5749,857.2542 969.9745,857.3458 972.1772,859.4568 973.1652,862.7487 971.0879,859.934 969.1552,861.5245 970.8035,861.9776 968.7262,863.0042 966.8562,862.3583 971.1168,859.6448 969.5215,858.7532 961.5641,860.6859 964.4945,858.5459 962.1858,856.9939 960.5808,857.3699 961.5448,856.9168 961.6123,854.1696 952.7439,855.8999 951.0907,858.9219 957.4962,857.394 955.5586,858.8833 960.4121,863.0572 965.7042,864.5851 967.1598,867.4914 966.4417,867.9203 969.7625,872.2774 980.0141,878.3841 981.836,875.1114 977.3102,868.1613 978.0766,868.1903 982.2071,875.0922 981.7155,877.7382 982.9204,878.3359 982.0191,879.8348 968.6443,873.2655 966.2778,869.8916 965.7091,870.5423 961.3568,868.7301 961.7568,867.9059 956.9178,868.2047 959.4193,867.2022 955.3803,866.1467 958.9903,865.549 964.2053,867.2697 964.5138,865.4719 958.5035,864.1368 956.7491,861.8089 954.8212,862.0595 954.0019,859.0664 953.0524,860.5654 951.5245,860.6232 952.3053,861.4329 949.346,861.3607 943.114,865.4575 941.4994,863.5777 940.039,863.8043 940.3137,866.7443 941.9283,868.5084 943.461,868.7638 945.3793,866.5467 947.7699,867.3227 948.1555,868.5855 945.0467,868.1951 944.0105,870.8074 942.4151,869.6265 943.0465,874.027 943.996,872.822 946.0203,873.0823 940.8632,874.9524 939.1184,876.8321 939.3209,879.16 937.3448,876.1332 941.0078,881.5314 940.7571,886.9921 939.6052,889.0936 939.4269,887.0018 939.6872,890.9395 938.6123,892.212 939.4124,893.923 937.4942,897.639 937.2243,907.587 931.4695,916.5421 929.7729,922.1475 923.9121,930.5821 924.0229,933.8836 927.1413,931.575 935.735,934.65 939.5329,933.2233 946.5505,933.1269 950.9413,931.4593 951.3317,929.5699 951.7317,931.0785 952.0017,929.3579 954.8694,926.8709 957.4624,926.6829 959.4337,924.6923 970.3071,922.8319 970.6011,920.7931 970.3071,922.8319 977.3584,922.5765 980.0286,922.027 980.6359,920.4268 980.5009,921.2799 988.3716,918.2049 1003.1152,917.8627 1001.8814,916.1662 997.8617,916.7542 996.9941,915.2119 997.8858,912.2718 1000.4258,911.6886 1001.3608,904.3144 1003.6791,911.1151 1005.154,911.0861 1004.9371,913.0574 1006.7204,914.1515 1006.3975,912.2188 1006.8554,913.2261 1008.5085,912.561 1007.053,913.2984 1007.8531,914.3829 1003.978,915.5348 1004.3105,916.6819 1010.3497,915.5059 1011.0245,902.4636 1010.3497,915.5059 1013.8392,915.5685 1015.4586,910.9753 1013.6368,911.1536 1014.3019,908.8883 1013.1066,908.0738 1017.6372,904.9988 1017.107,903.5529 1017.7577,905.047 1015.6514,906.5652 1016.8805,909.1149 1018.8373,910.0595 1021.3821,908.5268 1019.0012,910.797 1025.6621,908.4497 1025.7922,909.7462 1027.6044,910.5945 1031.9615,906.9267 1028.66,910.3584 1033.2725,911.1392 1032.5833,913.4767 1019.112,914.2142 1019.0976,913.4093 1018.9096,914.7251 1033.5231,915.0046 1038.5935,916.3541 1038.5887,914.619 1036.9162,914.9661 1036.0679,913.6358 1040.1888,909.404 1038.1356,905.8422 1038.7429,904.2324 1038.0682,902.96 1032.911,902.7335 1033.7063,889.2141 1032.911,902.7335 1037.5283,902.9263 1036.9307,901.2345 1039.3888,900.8441 1039.5864,893.0554 1042.6228,891.3203 1045.9967,887.1994 1044.1844,880.9241 1049.197,874.3692 1049.1873,872.4365 1052.725,871.8533 1057.5304,868.6385 1059.7089,869.4386 1062.3164,868.2336 1072.5825,868.2385 1075.778,863.9778 1078.9446,848.5256 1075.4069,838.6885 1071.5173,833.1602 1072.1824,828.7309 1070.6353,822.094 1072.5198,817.7707 1072.1487,813.5582 1073.7392,810.2133 1076.9781,809.1241 1077.2046,807.9721 1074.6453,804.7092 1075.2815,798.3712 1069.8545,788.1967 1070.0955,785.6277 1072.6789,782.5768 1071.0112,772.5613 1069.0881,770.9178 1065.7095,763.7171 1063.8394,752.193 1060.3114,749.0843 1061.2946,746.0768 1059.4824,738.4712 1059.2847,731.2319 1057.1255,727.6363 1053.3854,725.265 1054.3397,725.1445 1048.5029,726.4892 1049.2645,726.2723 1044.5074,730.7692 1045.534,729.1835 1044.5556,728.3738 1045.7075,728.9136 1043.1048,726.6146 1042.4638,722.537 1040.0057,718.9463 1040.2804,720.1705 1039.9093,718.874 1036.4969,718.098 1037.5042,718.5607 1033.793,714.2181 1034.7281,715.1194 1028.8528,713.5626 1025.5368,710.6178 1023.5173,708.2031 1024.4282,709.0321 1023.5173,708.2031 1024.3945,705.3931 1023.016,702.7615 1023.6474,699.4166 1030.2312,699.595 1023.6474,699.4166 1025.3874,697.6044 1023.2811,700.3227 1023.9896,698.7322 1022.7365,698.2454 1016.1286,700.3131 1016.9624,699.9709 1016.1286,700.3131 1015.6852,698.9009 1016.1961,708.8296 1015.7575,699.1419 1013.8729,692.9051 1008.8507,690.4085"/>
    <polyline points="1001.3753,689.994 1008.8507,690.4085 996.6519,690.1289"/>
    <polygon points="1016.1961,708.8296 1016.5335,722.6575"/>
    <polygon points="1016.5335,722.6575 1016.6588,740.6352"/>
    <polygon points="1007.2458,735.1985 1007.1928,727.3472 1000.2812,727.5255 1007.1928,727.3472"/>
    <polygon points="1007.3181,741.5606 1007.2458,735.1985"/>
    <polyline points="1013.5645,741.5365 1007.3181,741.5606 1019.8784,741.5173 1020.1724,744.6887 1019.8784,741.5173 1016.6829,741.5414 1016.6588,740.6352"/>
    <polygon points="1000.2812,727.5255 993.7842,727.5785"/>
    <polygon points="993.7842,727.5785 988.3957,727.6315 987.7546,695.0306 988.3957,727.6315 963.2847,727.8773"/>
    <polygon points="979.0839,748.0095 979.1996,755.7259"/>
    <polyline points="973.6617,747.2287 979.0839,748.0095 974.4521,748.0577 971.4205,745.0164 969.8203,741.2233 969.8444,743.4355 971.4205,745.0164 968.9817,740.4906 963.6076,739.5942 965.6801,739.6424 963.6076,739.5942 961.1399,737.3819"/>
    <polyline points="954.132,734.6154 955.0236,736.63 961.1399,737.3819 955.0236,736.63 954.1079,734.3214 951.7896,733.5502 953.2933,733.5213 954.1079,734.3214 950.8497,732.7212 951.7896,733.5502 950.8497,730.9234"/>
    <polyline points="951.0907,705.7161 946.9457,707.4271 945.1576,701.6048 941.5524,702.2217 942.4682,701.9518 941.1331,702.0771 940.3619,700.1396 936.2603,699.6432 936.829,700.1974 934.0818,698.3852 923.1602,701.0891 923.9747,701.3301 919.7382,698.9202 913.0531,697.7104 906.5706,698.5105 906.2717,699.407 906.1705,698.5587 904.392,700.1155 906.2717,699.407 901.3508,701.8458 894.6079,701.6723"/>
    <line x1="906.1705" x2="906.1705" y1="698.5587" y2="698.5587"/>
    <polyline points="912.4844,681.0244 907.7321,681.1449 907.602,678.7254 907.7321,681.1449 912.4844,681.0244 912.3254,676.9806 912.4844,681.0244 912.3254,676.9806 915.1931,676.2384 912.3205,676.3733 920.3165,676.089"/>
    <polygon points="907.602,678.7254 902.6955,678.87"/>
    <polygon points="902.6955,678.87 902.5653,676.6433 898.1022,676.8168 902.5653,676.6433"/>
    <polygon points="940.1306,673.0766 940.2125,675.3564 920.3165,676.089 940.2125,675.3564"/>
    <polygon points="922.9963,723.9733 923.0445,724.7734 914.5569,724.9325 923.0445,724.7734"/>
    <polyline points="914.5569,724.9325 912.282,723.7709 913.7424,723.7468 914.5569,724.9325 911.4385,723.7998 912.282,723.7709 905.2451,723.9058 911.4385,723.7998"/>
    <polygon points="905.2451,723.9058 900.8351,723.9878"/>
    <polyline points="951.3895,767.2837 951.3992,762.2808 951.3895,767.2837 945.7793,769.7996 947.4373,769.3948 945.7793,769.7996 941.4897,777.4871 937.3399,777.8149 932.4816,783.3335 934.4625,781.7382 932.4816,783.3335 931.9804,785.8061 932.6985,784.6204 931.4598,785.9265 929.4837,785.0686 930.4959,785.2903 928.8909,785.3337 927.845,787.9027 925.1941,788.8377 925.7918,788.2593 925.0447,788.7895 923.888,787.5267 924.3555,788.1581 921.5359,788.4135 922.5529,787.3532 920.6154,789.6474 921.401,791.5175 921.2082,790.2306 919.8249,789.9848 920.4467,788.3413 921.2371,788.4617 920.4467,788.3413 920.6154,789.6474 917.6223,790.0282 918.085,791.6524 916.8945,792.8815 915.4341,793.0694 913.5351,790.9102 913.8195,794.2262 913.8532,791.638 914.6967,791.9802 910.4505,788.2593 906.9224,791.2235 897.7022,792.3513 898.2179,793.7105 897.7022,792.3513 898.618,791.8741 898.7336,794.6069 896.772,796.0288"/>
    <polyline points="913.7617,797.2771 913.8195,794.2262 913.7617,797.2771 914.8509,797.3301"/>
    <polygon points="914.7834,801.9812 914.8509,797.3301"/>
    <polyline points="914.5762,809.6591 914.7834,801.9812 914.4557,814.3342"/>
    <polyline points="914.3545,819.4673 914.4557,814.3342 914.0508,834.7266"/>
    <polygon points="913.9207,839.45 914.0508,834.7266"/>
    <polygon points="932.5443,840.0187 932.4672,844.6264"/>
    <polygon points="932.5491,835.4303 932.5443,840.0187"/>
    <polyline points="932.6744,830.5816 932.5491,835.4303 933.1757,809.7265"/>
    <polyline points="921.6998,791.932 921.9167,793.2622 921.6998,791.932 921.9167,793.2622 919.6321,795.4118 920.6684,795.6576 920.8563,798.9062 922.1914,798.8146 923.1457,802.4294 922.3649,799.6629 922.871,802.1595 924.5001,802.8969 923.7386,802.5788 930.2693,802.145 931.2044,803.1427 932.4913,802.0342 932.1153,803.1717 931.2044,803.1427 933.248,800.8389 933.1757,809.7265 933.248,800.8389 934.3517,801.2148 933.0407,801.1377 940.4439,797.4554 941.2729,799.3737 940.733,798.7182 943.4755,799.2628 946.8541,806.4154 948.8592,804.9694 954.0115,807.2251 951.3944,806.8732 954.6236,807.4227 957.4432,806.5359 958.5903,803.6247 961.3954,804.9502 960.6917,808.0059 959.8916,804.3573 960.7302,805.4321 964.6824,803.4801 964.0414,803.9862 964.6824,803.4801 966.1043,805.5767 969.2612,805.2972 973.4592,809.6205 970.8084,806.7624 971.6566,804.4344 969.2612,805.2972 970.6927,805.1574 970.8084,806.7624 971.112,804.6272 979.8358,797.9229 979.0453,798.4531 980.3611,796.6602 980.0237,793.9081 980.0671,795.0263 981.5854,791.5753 984.1543,789.2715 983.6097,790.0233 984.5784,786.2302 984.2555,787.787 986.2075,785.1891 984.8821,784.0902 988.9114,778.2583"/>
    <polyline points="984.1398,763.4231 984.8773,764.3003 983.3301,761.9097 984.1157,762.6423 979.4165,759.5914 979.4647,760.3722 980.9443,760.3722 979.4647,760.3722 979.1996,755.7259"/>
    <polygon points="1016.9142,774.229 1016.8998,779.5211"/>
    <polyline points="1016.8998,779.5211 1016.8178,783.4492 1012.1957,783.4106 1016.8178,783.4492 1016.8708,781.8153"/>
    <polyline points="1012.1957,783.4106 1012.0944,788.0713 1007.4723,788.0665 1007.4771,790.1535 1007.4723,788.0665 1012.0944,788.0713 1012.1378,785.9699"/>
    <polyline points="1007.4771,790.1535 1007.4916,802.2125 1006.2722,803.2343 1007.4916,802.2125 1003.1201,804.7284 1004.2961,804.6947 1000.18,808.4059 1000.6523,807.4805 1001.2934,806.8491 997.8472,812.3629"/>
    <polyline points="997.9243,817.2887 993.9962,825.5498 994.1746,824.4557 994.6421,823.8243 992.9359,830.2443 994.4734,832.1047 994.5505,835.9316 993.5094,836.9968 994.5505,835.9316 991.4659,841.3683 988.1499,843.8264 988.1788,843.0504 987.9908,849.8414 984.5977,852.8586 987.9908,849.8414"/>
    <polyline points="991.0514,861.9197 990.1212,861.3751 988.974,863.438 990.3477,864.3971 991.0514,861.9197 993.5962,861.2353 992.907,860.816 994.7096,863.6067 992.131,862.4403 991.3116,863.65 993.0998,864.9803 994.4879,863.679 1000.6475,862.3632 999.9824,862.9174 1002.9465,861.1341 1003.2839,858.7242 1004.8311,858.8592 1007.8,856.2999 1006.2481,856.6758 1008.7351,856.2083 1010.128,850.3668 1011.0389,850.227 1010.128,850.3668 1012.2246,849.4992 1011.0196,849.5908 1013.603,849.1185 1012.2246,849.4992 1014.4224,851.6151 1014.4947,848.4196 1014.4224,851.6151 1013.603,849.1185 1014.5814,846.3471 1014.4947,848.4196 1013.7621,847.2677 1015.4683,842.5491 1015.2418,843.3251 1016.7552,832.1625 1013.8729,829.4635"/>
    <polyline points="1034.9257,837.5414 1035.0703,829.4827 1034.7907,847.7014 1041.8083,847.8219 1034.7907,847.7014 1034.7955,846.5784 1034.7088,852.4875"/>
    <polygon points="1041.8083,847.8219 1044.1892,848.034"/>
    <polyline points="1049.2404,848.1882 1044.1892,848.034 1057.8003,848.3907 1049.2404,848.1882 1052.5033,848.3087 1052.272,849.4799 1052.5033,848.3087 1053.4962,850.4921 1052.7106,850.092 1057.5063,852.179 1055.8531,857.1337 1056.5953,859.3653 1055.9832,858.917 1058.3642,862.2378 1058.528,866.2961 1060.2632,867.4095 1061.8874,866.2768 1062.3164,868.2336 1057.1592,869.2458 1058.0412,869.1783"/>
    <polygon points="1050.8357,871.8388 1050.0212,872.5184 1051.7177,871.9449"/>
    <line x1="1045.3605" x2="1045.3605" y1="878.466" y2="878.466"/>
    <polyline points="1042.8542,884.2352 1039.2731,884.0087 1044.8688,884.1581 1045.9918,890.1298 1044.2567,892.0722 1042.9843,891.9372 1045.8376,888.5393"/>
    <polyline points="1033.8219,884.0376 1033.8846,880.1288 1033.7063,889.2141 1014.7164,888.7947 1033.7063,889.2141 1033.8219,884.0376 1039.2731,884.0087 1033.8219,884.0376 1034.7088,852.4875 1033.9473,875.4874"/>
    <polyline points="1014.7164,888.7947 1011.6944,888.7658 1014.7405,888.867 1011.6944,888.7658 1011.0245,902.4636 1011.6944,888.7658"/>
    <polyline points="1000.9319,882.1531 1000.9945,880.5481 1013.5307,881.0735 1014.2344,861.0281 1013.5307,881.0735 1011.9354,880.9867 1011.6944,888.7658 1011.9354,880.9867 1000.9945,880.5481"/>
    <polyline points="996.2567,881.8928 996.4206,877.2659 995.6109,877.2321 996.4206,877.2659 996.2567,881.8928 1000.9319,882.1531 996.2567,881.8928 996.0543,887.9561"/>
    <polygon points="991.2924,892.2457 995.9145,892.4144 996.0543,887.9561 995.9145,892.4144"/>
    <polyline points="986.516,892.077 991.2924,892.2457 982.5734,892.4047"/>
    <polygon points="972.5242,894.1736 972.6447,891.9613 982.5734,892.4047 967.8153,891.7926 968.1238,885.0353 967.8153,891.7926 972.6447,891.9613"/>
    <polygon points="972.1386,903.4661 972.5242,894.1736"/>
    <polygon points="971.8832,911.6838 972.1386,903.4661"/>
    <polyline points="970.7216,916.3445 970.9963,911.626 971.8832,911.6838 970.9963,911.626 970.6011,920.7931"/>
    <polyline points="952.0547,917.9639 951.3317,929.4494 952.18,915.7035"/>
    <polygon points="952.3294,910.7536 952.18,915.7035"/>
    <polygon points="953.544,895.8461 952.3294,910.7536"/>
    <polyline points="954.3151,878.7986 953.544,895.8461 954.4356,876.2489"/>
    <polygon points="954.7007,871.1737 954.4356,876.2489"/>
    <polyline points="947.741,870.9375 954.7007,871.1737 940.9017,870.5616 940.7138,869.3711 941.0752,870.3688"/>
    <polygon points="946.7963,862.1415 943.061,862.8355 943.7743,863.4717 945.8516,863.2259 947.1722,861.1486 942.2561,861.6161 943.1092,863.3464 944.825,861.6643"/>
    <polygon points="947.1867,848.8823 947.9627,847.7496"/>
    <line x1="935.0457" x2="935.0457" y1="850.7572" y2="850.7572"/>
    <polygon points="927.9559,860.1605 935.9856,864.1079 939.4703,861.0088 939.8607,858.4881 946.2035,858.7098 947.9482,856.565 949.4279,856.8204 948.6326,854.0443 952.6186,852.5212 953.2741,850.5596 950.3437,849.4414 946.3384,850.3571 942.7429,855.6251 945.9336,855.1142 947.1385,856.2903 937.9617,857.6735 935.7446,859.8376 935.6241,862.821 934.9011,860.2425 932.4623,859.64 933.5757,858.9941 932.0575,857.3795 933.4456,856.5409 932.1009,854.5937 928.8379,857.741 925.8978,857.9579 926.3268,860.0015"/>
    <line x1="922.6782" x2="921.936" y1="861.2546" y2="861.2209"/>
    <polyline points="919.1405,870.6965 918.6826,872.4606 917.4729,872.1617 915.3184,875.2898 914.128,875.2271 913.8677,876.996 918.8851,877.5792 922.8806,873.2317 923.3723,870.5664 922.2734,872.1569 919.7719,872.5955 919.9069,871.164 916.7113,868.277 915.9884,872.1714 917.9259,871.0002 916.8608,868.3975 918.8802,866.5756 916.9668,867.5492 918.1187,868.9421 922.4902,869.9302 923.9699,867.1781 925.2279,867.8963 924.876,864.9803 922.4517,865.2502 923.7241,866.7636 920.7021,867.4143 918.8802,866.5756 919.6128,864.2573 920.1912,866.1033 922.0034,865.443 920.4563,864.214 917.8103,863.6115 916.2438,865.096 919.2369,865.0767 916.4848,859.3315 919.4779,859.4086 919.6466,856.5987 916.5378,858.8255 915.2317,861.3799 917.0536,862.4644 918.8176,861.8523 918.7019,860.5413 917.444,859.8762 916.2487,861.004 914.6485,859.6111 914.4894,860.9413 915.2943,859.5918 913.3375,856.618 909.7757,859.0568 910.8264,857.8808 909.313,858.035 910.1565,857.876 909.0865,861.645 913.6508,857.7603 907.7562,861.1727 910.5854,863.1584 907.4719,865.6936 909.4239,869.588 912.2772,871.8436 913.6797,872.7305 914.7208,872.3497 913.7135,871.6412 915.6414,871.781 915.1305,870.8074 913.0724,871.1014 915.9113,869.1397 915.463,866.8359 910.8891,868.7301 910.3252,867.9252 915.545,865.6261 912.4266,862.3487 909.3323,868.3541 906.7826,868.4987 907.4863,867.2938 906.5079,868.518 906.6959,866.995 905.356,870.1808 905.3897,869.2361 905.2066,870.2001 910.5421,871.8292 911.1252,873.0438 909.8094,873.974 908.7105,871.7617"/>
    <polyline points="914.3159,873.5354 913.8821,877.9888 915.7329,878.7841 915.8631,877.984 912.4748,877.4394 913.2363,875.4151 912.3784,877.1743 911.3132,877.3574 911.9639,876.3212 911.2409,877.0393 910.3493,879.8878 911.612,877.4346 910.4842,878.8516"/>
    <polygon points="893.6247,874.1041 895.2393,873.9258 895.008,871.699 893.6922,872.1955"/>
    <polygon points="960.2916,845.359 960.5471,836.1533"/>
    <polygon points="960.5471,836.1533 960.6001,831.4588"/>
    <polygon points="960.6001,831.4588 960.6001,826.7933"/>
    <polygon points="960.6001,826.7933 960.7351,819.7468"/>
    <polyline points="960.7351,819.7468 960.8411,808.0107 960.6242,817.4141"/>
    <line x1="960.8411" x2="960.8411" y1="808.0107" y2="808.0107"/>
    <polyline points="973.4592,809.6205 980.0045,816.6863 980.0334,815.9055 982.8289,818.1852 984.0145,817.4623 982.8289,818.1852 986.8003,816.961 987.1811,815.0668 987.1715,816.6718 987.4076,813.7028 990.5308,814.6186 991.0032,812.9895 990.5308,814.6186 991.3984,812.7003 994.6999,812.1798 995.2735,815.5922 997.0953,816.1368 997.5388,815.2885 996.4784,816.185 997.9243,817.2887 997.5388,815.2885 999.216,815.0042 997.5098,816.1898 998.6762,814.6813 998.0689,812.5606 1000.5608,816.132 1005.5492,817.9105 1004.3925,818.1708 1005.8914,817.8382 1009.1496,820.6337 1014.7935,817.737 1013.7621,817.8768 1013.7524,829.29 1013.979,818.1949 1016.6636,817.1827 1017.7095,814.6523 1018.8855,815.197 1017.7095,814.6523 1019.541,816.6863 1021.1363,817.0381 1022.1244,815.8187 1023.1799,816.532 1022.6883,815.8958 1028.5732,818.5371 1034.034,815.997 1035.3402,816.267 1035.2486,818.619 1035.3402,816.267 1033.0026,816.7248 1035.2197,819.742 1035.2486,818.619 1035.0703,829.4827 1035.1908,820.9855 1039.7069,821.0578 1035.1908,820.9855 1053.7131,821.2506 1042.0878,821.0964"/>
    <polyline points="1053.7517,818.5853 1053.9059,806.1888 1053.6215,824.6967 1062.7212,824.6967 1053.6215,824.6967"/>
    <polyline points="1064.2395,824.7256 1062.7212,824.6967 1067.4012,824.769 1064.2395,824.7256 1067.4012,824.769 1067.5169,821.2699 1067.4012,824.769 1067.5169,821.2699 1070.6738,821.747"/>
    <polygon points="1053.9059,806.1888 1053.9975,801.3016"/>
    <polygon points="1053.9975,801.3016 1054.1758,776.046"/>
    <polygon points="1054.1758,776.046 1054.2529,761.1819"/>
    <polygon points="1054.2529,761.1819 1054.2529,759.5914"/>
    <polygon points="1049.4958,759.5383 1039.8997,759.9384"/>
    <polygon points="1065.0299,759.6299 1049.4958,759.5383"/>
    <polygon points="1039.5575,699.3781 1032.7086,699.5419"/>
    <polygon points="1039.5237,694.7607 1039.5575,699.3781"/>
    <polygon points="1032.7086,699.5419 1030.2312,699.595"/>
    <polyline points="1025.4838,697.4598 1022.9004,686.4852 1023.6378,687.1166 1023.5221,688.336 1023.5173,686.8949 1021.4207,685.1935 1025.7729,685.6948 1021.4255,685.5357 1021.2954,683.4632 1017.454,680.6967 1017.8974,681.7667 1020.0856,682.4655 1017.8974,681.7667 1017.1793,679.4532 1017.3528,680.4027 1018.2637,673.8092 1018.6397,675.9829 1017.0251,671.6934 1025.7633,662.9166 1024.8283,663.3118 1024.1728,664.0733 1031.2385,661.4851 1030.318,661.1863 1031.6241,660.7188 1031.0602,655.9568"/>
    <polyline points="1033.0556,668.3533 1032.0965,661.9382 1029.4408,662.0201 1030.1348,661.1718 1029.4408,662.0201 1032.0965,661.9382 1032.3134,666.7724 1033.9424,669.11"/>
    <polygon points="1039.4418,668.816 1033.9424,669.11"/>
    <polyline points="1041.2347,675.9203 1048.2041,675.6986 1038.9743,675.954 1036.6029,678.3061 1036.4969,676.0119 1038.9743,675.954 1036.4969,676.0119 1036.6029,678.3061 1034.2943,678.4121 1035.5233,678.3591 1031.1614,680.9618"/>
    <polyline points="1029.6769,685.6321 1029.6384,681.0678 1031.1614,680.9618 1029.6384,681.0678 1029.6769,685.6321 1025.7729,685.6948"/>
    <polyline points="1048.2041,675.6986 1054.653,675.0913 1048.1752,675.3564"/>
    <polyline points="1052.084,670.5511 1047.9149,670.739 1047.7559,668.4641 1047.9149,670.739 1052.8937,670.5222"/>
    <polygon points="1047.7559,668.4641 1039.4418,668.816"/>
    <polyline points="1051.7033,689.6952 1044.0013,689.888 1044.1121,694.6547 1039.5237,694.7607 1044.1121,694.6547 1044.0013,689.888 1054.33,689.8349"/>
    <polygon points="1057.8003,848.3907 1062.6007,848.6895"/>
    <polygon points="1062.6007,848.6895 1067.1361,848.7955"/>
    <polyline points="1067.1361,848.7955 1078.9687,849.0172 1078.1589,849.0124 1079.3494,850.4873 1078.8964,852.1742 1079.2289,850.2415"/>
    <polygon points="1077.889,856.2324 1077.8987,854.7142"/>
    <polyline points="1014.2392,856.6855 1014.4224,851.6151 1014.2344,861.0281"/>
    <polyline points="989.1813,871.405 992.1937,870.4555 989.1813,871.405 986.6461,868.118 987.557,868.1999 985.0411,868.6385 986.1786,871.111 988.3427,871.54 992.4684,869.8483 990.2898,868.4891 986.3184,869.4771 981.6336,866.7877 973.4303,866.4503 973.17,874.668 973.4303,866.4503 979.7153,866.7202"/>
    <polyline points="979.9081,860.6377 979.7153,866.7202 980.8961,866.754 979.7153,866.7202 980.0045,857.6205 981.5613,857.1193 983.5422,858.864 986.728,857.8181 987.8462,859.2159 985.4797,860.0256 986.8389,859.5484 986.9449,861.4233 988.7572,859.2689 989.9139,859.7412 986.3521,861.592 986.2702,863.0524 979.9081,860.3678"/>
    <polyline points="974.4858,854.1455 979.9611,853.4321 980.9106,851.2247 983.2771,854.5792 981.6287,854.5648 981.0214,853.3454 980.2503,854.4106 983.9567,855.9481 980.2551,856.7963 974.4858,854.1455 972.5242,855.736 973.2231,854.9648 970.8276,855.4564 969.5986,858.17 966.0464,858.6037 965.6368,857.4084 963.0485,857.1482 964.5523,856.9891 963.9739,855.5239 966.7308,856.0589 968.4129,855.0709 968.0804,856.7963 968.5816,855.389 970.8276,855.4564"/>
    <line x1="968.6443" x2="968.1238" y1="873.2655" y2="884.9823"/>
    <line x1="1001.597" x2="1001.597" y1="912.8743" y2="912.8743"/>
    <polygon points="1028.0286,912.3537 1031.1277,911.6549 1031.0891,910.7536 1026.2887,911.9248"/>
    <line x1="951.3317" x2="951.3317" y1="929.4494" y2="929.4494"/>
    <line x1="936.1495" x2="936.1495" y1="935.2139" y2="935.2139"/>
  </g>
</svg>
