<?xml version="1.0" encoding="utf-8" ?>
<svg xmlns="http://www.w3.org/2000/svg" xmlns:cc="http://creativecommons.org/ns#" xmlns:dc="http://purl.org/dc/elements/1.1/" xmlns:ev="http://www.w3.org/2001/xml-events" xmlns:inkscape="http://www.inkscape.org/namespaces/inkscape" xmlns:rdf="http://www.w3.org/1999/02/22-rdf-syntax-ns#" xmlns:sodipodi="http://sodipodi.sourceforge.net/DTD/sodipodi-0.dtd" xmlns:xlink="http://www.w3.org/1999/xlink" baseProfile="tiny" height="27.94cm" version="1.2" viewBox="0 0 1632.0 1056.0" width="43.18cm">
  <metadata>
    <rdf:RDF>
      <cc:Work>
        <dc:format>image/svg+xml</dc:format>
        <dc:source>vpype read /Users/cj/Documents/Projects/greeting-cards-2021/inside/person-maps/p4.svg pagesize 5.5inx8.5in ldelete 1 text --font scripts --position 75 330 --align center --size 26 --wrap 375 'This card travelled at least 368 km to get to you' text --font cursive --position 40 500 --align left --size 28 --wrap 430 'Person 4,' text --font cursive --position 40 535 --align left --size 28 --wrap 430 'We hope you are doing as well as you can during these crazy times. Please take care and have a very happy new year! ' text --font cursive --position 40 715 --align left --size 28 --wrap 430 Best, text --font cursive --position 40 740 --align left --size 28 --wrap 430 'Colin and Ian' rotate 270 layout -l -h right -v bottom 11inx17in ldelete 3 linesort write /Users/cj/Documents/Projects/greeting-cards-2021/inside/11x17/individual/insides-arctext-onecard-11x17-3.svg
</dc:source>
        <dc:date>2022-02-09T18:39:16.550823</dc:date>
      </cc:Work>
    </rdf:RDF>
  </metadata>
  <defs/>
  <g fill="none" id="layer1" inkscape:groupmode="layer" inkscape:label="1" stroke="#00f" style="display:inline">
    <polyline points="1141.4054,973.2827 1141.4054,974.6881 1140.7027,976.0935 1139.2973,976.7962 1137.8919,976.0935 1137.1892,973.9854 1137.1892,971.8773 1137.8919,969.0665 1137.8919,966.9584 1137.1892,965.553"/>
    <polyline points="1137.8919,969.0665 1142.8108,970.4719 1147.027,971.8773 1149.8378,973.2827 1151.2432,974.6881 1151.9459,976.0935 1151.9459,977.4989 1151.2432,978.9043 1149.8378,979.607 1148.4324,979.607 1147.7297,978.9043 1147.7297,977.4989 1148.4324,976.0935"/>
    <polyline points="1148.4324,966.9584 1146.3243,965.553 1142.8108,963.4449 1141.4054,962.7422 1139.2973,962.0395 1137.8919,962.0395 1137.1892,962.7422 1137.8919,964.1476 1139.2973,964.8503 1142.1081,965.553 1146.3243,966.2557 1151.9459,966.9584"/>
    <polyline points="1151.9459,966.9584 1149.8378,966.2557 1148.4324,965.553 1146.3243,964.1476 1145.6216,962.7422 1145.6216,961.3368 1146.3243,960.6341 1147.7297,960.6341 1149.8378,961.3368 1151.2432,961.3368 1151.9459,960.6341 1151.9459,959.9314 1151.2432,958.526 1150.5405,957.8233 1148.4324,956.4179"/>
    <polyline points="1148.4324,956.4179 1145.6216,955.0124 1149.8378,956.4179 1151.2432,956.4179 1151.9459,955.7152 1151.9459,955.0124 1151.2432,953.607 1150.5405,952.9043 1148.4324,951.4989"/>
    <polyline points="1148.4324,951.4989 1146.3243,950.0935 1144.9189,949.3908 1146.3243,949.3908 1148.4324,947.9854 1149.8378,947.2827 1151.2432,947.2827 1151.9459,948.6881"/>
    <polyline points="1151.2432,951.4989 1151.9459,950.0935 1151.9459,947.2827 1151.2432,945.8773 1150.5405,945.1746 1148.4324,943.7692"/>
    <polygon points="1142.1081,954.3097 1142.8108,954.3097 1142.8108,953.607 1142.1081,953.607"/>
    <polyline points="1147.027,927.607 1146.3243,927.607 1145.6216,928.3097 1145.6216,929.7152 1146.3243,931.1206 1147.027,931.8233 1148.4324,932.526 1149.8378,932.526 1151.2432,931.8233 1151.9459,930.4179 1151.9459,928.3097 1150.5405,926.2016 1148.4324,924.7962"/>
    <polyline points="1147.7297,918.4719 1146.3243,919.1746 1145.6216,920.58 1145.6216,921.9854 1146.3243,923.3908 1147.027,924.0935 1148.4324,924.7962 1149.8378,924.7962 1151.2432,924.0935 1151.9459,922.6881 1151.9459,921.2827 1151.2432,919.8773 1149.8378,919.1746 1145.6216,917.7692 1149.1351,918.4719 1151.2432,918.4719 1151.9459,917.7692 1151.9459,917.0665 1151.2432,915.6611 1150.5405,914.9584 1148.4324,913.553"/>
    <polyline points="1148.4324,913.553 1146.3243,912.1476 1144.9189,911.4449 1146.3243,911.4449 1146.3243,909.3368 1147.027,908.6341 1148.4324,908.6341 1150.5405,909.3368 1151.2432,909.3368 1151.9459,908.6341 1151.9459,907.9314 1151.2432,906.526 1150.5405,905.8233 1148.4324,904.4179"/>
    <polyline points="1147.7297,898.0935 1146.3243,898.7962 1145.6216,900.2016 1145.6216,901.607 1146.3243,903.0124 1147.027,903.7152 1148.4324,904.4179 1149.8378,904.4179 1151.2432,903.7152 1151.9459,902.3097 1151.9459,900.9043 1151.2432,899.4989 1149.8378,898.7962 1137.1892,894.58"/>
    <polyline points="1145.6216,897.3908 1149.1351,898.0935 1151.2432,898.0935 1151.9459,897.3908 1151.9459,896.6881 1151.2432,895.2827 1150.5405,894.58 1148.4324,893.1746"/>
    <polyline points="1148.4324,881.9314 1146.3243,880.526 1143.5135,879.1206"/>
    <line x1="1142.8108" x2="1142.8108" y1="881.2287" y2="876.3097"/>
    <polyline points="1137.1892,877.0124 1149.8378,881.2287 1151.2432,881.2287 1151.9459,880.526 1151.9459,879.1206 1151.2432,877.7152 1150.5405,877.0124 1148.4324,875.607"/>
    <polyline points="1148.4324,875.607 1146.3243,874.2016 1144.9189,873.4989 1146.3243,873.4989 1146.3243,871.3908 1147.027,870.6881 1148.4324,870.6881 1150.5405,871.3908 1151.2432,871.3908 1151.9459,870.6881 1151.9459,869.9854 1151.2432,868.58 1150.5405,867.8773 1148.4324,866.4719"/>
    <polyline points="1147.7297,860.1476 1146.3243,860.8503 1145.6216,862.2557 1145.6216,863.6611 1146.3243,865.0665 1147.027,865.7692 1148.4324,866.4719 1149.8378,866.4719 1151.2432,865.7692 1151.9459,864.3638 1151.9459,862.9584 1151.2432,861.553 1149.8378,860.8503 1145.6216,859.4449 1149.1351,860.1476 1151.2432,860.1476 1151.9459,859.4449 1151.9459,858.7422 1151.2432,857.3368 1150.5405,856.6341 1148.4324,855.2287"/>
    <polyline points="1148.4324,855.2287 1145.6216,853.8233 1149.1351,854.526 1151.2432,854.526 1151.9459,853.8233 1151.9459,853.1206 1151.2432,851.0124 1149.8378,849.607 1147.7297,848.9043 1145.6216,848.9043"/>
    <polyline points="1145.6216,848.9043 1148.4324,848.2016 1149.1351,847.4989 1149.1351,846.0935 1148.4324,844.6881"/>
    <polyline points="1150.5405,843.9854 1149.8378,842.58 1149.1351,841.8773 1147.7297,841.1746 1146.3243,841.1746 1145.6216,841.8773 1145.6216,842.58 1146.3243,843.9854 1147.7297,844.6881 1149.8378,844.6881 1151.2432,843.9854 1151.9459,842.58 1151.9459,841.1746 1151.2432,839.7692 1150.5405,839.0665 1148.4324,837.6611"/>
    <polyline points="1148.4324,837.6611 1146.3243,836.2557 1142.8108,834.1476 1141.4054,833.4449 1139.2973,832.7422 1137.8919,832.7422 1137.1892,833.4449 1137.8919,834.8503 1139.2973,835.553 1142.1081,836.2557 1147.027,836.9584 1151.2432,836.9584 1151.9459,836.2557 1151.9459,835.553 1151.2432,834.1476 1150.5405,833.4449 1148.4324,832.0395"/>
    <polyline points="1148.4324,832.0395 1146.3243,830.6341 1142.8108,828.526 1141.4054,827.8233 1139.2973,827.1206 1137.8919,827.1206 1137.1892,827.8233 1137.8919,829.2287 1139.2973,829.9314 1142.1081,830.6341 1147.027,831.3368 1151.2432,831.3368 1151.9459,830.6341 1151.9459,829.9314 1151.2432,828.526 1150.5405,827.8233 1148.4324,826.4179"/>
    <polyline points="1150.5405,825.7152 1149.8378,824.3097 1149.1351,823.607 1147.7297,822.9043 1146.3243,822.9043 1145.6216,823.607 1145.6216,824.3097 1146.3243,825.7152 1147.7297,826.4179 1149.8378,826.4179 1151.2432,825.7152 1151.9459,824.3097 1151.9459,822.9043 1151.2432,821.4989 1150.5405,820.7962 1148.4324,819.3908"/>
    <polyline points="1147.7297,813.0665 1146.3243,813.7692 1145.6216,815.1746 1145.6216,816.58 1146.3243,817.9854 1147.027,818.6881 1148.4324,819.3908 1149.8378,819.3908 1151.2432,818.6881 1151.9459,817.2827 1151.9459,815.8773 1151.2432,814.4719 1149.8378,813.7692 1137.1892,809.553"/>
    <polyline points="1145.6216,812.3638 1149.1351,813.0665 1151.2432,813.0665 1151.9459,812.3638 1151.9459,811.6611 1151.2432,810.2557 1150.5405,809.553 1148.4324,808.1476"/>
    <polyline points="1163.1892,801.1206 1175.8378,805.3368 1177.2432,805.3368 1177.9459,804.6341 1177.9459,803.2287 1177.2432,801.8233 1176.5405,801.1206 1174.4324,799.7152"/>
    <polyline points="1171.6216,795.4989 1171.6216,796.9043 1172.3243,798.3097 1173.027,799.0124 1174.4324,799.7152 1175.8378,799.7152 1177.2432,799.0124 1177.9459,797.607 1177.9459,796.2016 1177.2432,794.7962 1176.5405,794.0935 1175.1351,793.3908 1173.7297,793.3908 1172.3243,794.0935 1171.6216,795.4989 1172.3243,796.2016 1173.7297,796.2016 1175.1351,795.4989 1175.8378,794.0935 1175.8378,791.9854 1175.1351,790.58 1174.4324,789.8773"/>
    <polyline points="1174.4324,778.6341 1171.6216,777.2287 1175.8378,778.6341 1177.2432,778.6341 1177.9459,777.9314 1177.9459,776.526 1177.2432,775.1206 1175.8378,773.7152 1173.7297,772.3097"/>
    <polyline points="1171.6216,771.607 1184.2703,775.8233 1185.6757,776.526 1186.3784,777.9314 1185.6757,778.6341 1184.2703,778.6341 1182.1621,777.9314 1180.054,775.8233 1178.6486,773.7152 1177.9459,772.3097 1176.5405,770.2016 1174.4324,768.0935"/>
    <polyline points="1171.6216,763.8773 1171.6216,765.2827 1172.3243,766.6881 1173.027,767.3908 1174.4324,768.0935 1175.8378,768.0935 1177.2432,767.3908 1177.9459,765.9854 1177.9459,764.58 1177.2432,763.1746 1176.5405,762.4719 1175.1351,761.7692 1173.7297,761.7692 1172.3243,762.4719 1171.6216,763.8773 1172.3243,764.58 1173.7297,764.58 1175.1351,763.8773 1175.8378,762.4719 1175.8378,760.3638 1175.1351,758.9584 1174.4324,758.2557"/>
    <polyline points="1174.4324,758.2557 1171.6216,756.8503 1175.8378,758.2557 1177.2432,758.2557 1177.9459,757.553 1177.9459,756.1476 1177.2432,754.7422 1175.8378,753.3368 1173.7297,751.9314"/>
    <polyline points="1171.6216,751.2287 1175.8378,752.6341 1177.2432,752.6341 1177.9459,751.9314 1177.9459,751.2287 1177.2432,749.8233 1176.5405,749.1206 1174.4324,747.7152"/>
    <polyline points="1151.9459,741.3908 1151.2432,739.9854 1149.8378,739.9854 1148.4324,740.6881 1146.3243,742.0935 1144.9189,742.0935 1146.3243,742.7962 1148.4324,744.2016"/>
    <polyline points="1148.4324,744.2016 1150.5405,745.607 1151.2432,746.3097 1151.9459,747.7152 1151.9459,748.4179 1151.2432,749.1206 1149.1351,749.1206 1145.6216,748.4179 1149.8378,749.8233 1151.2432,750.526 1151.9459,751.9314 1151.9459,753.3368 1151.2432,754.7422 1149.8378,755.4449 1148.4324,755.4449 1147.027,754.7422 1146.3243,754.0395 1145.6216,752.6341 1145.6216,751.2287 1146.3243,749.8233 1147.7297,749.1206"/>
    <polyline points="1151.2432,744.2016 1151.9459,742.7962 1151.9459,739.9854 1151.2432,738.58 1150.5405,737.8773 1148.4324,736.4719"/>
    <polyline points="1148.4324,736.4719 1146.3243,735.0665 1143.5135,733.6611"/>
    <line x1="1142.8108" x2="1142.8108" y1="735.7692" y2="730.8503"/>
    <polyline points="1137.1892,731.553 1149.8378,735.7692 1151.2432,735.7692 1151.9459,735.0665 1151.9459,733.6611 1151.2432,732.2557 1150.5405,731.553 1148.4324,730.1476"/>
    <polyline points="1149.1351,716.7962 1148.4324,716.0935 1147.7297,716.7962 1148.4324,717.4989 1149.1351,717.4989 1150.5405,716.7962 1151.2432,716.0935 1151.9459,713.9854 1151.9459,711.1746 1151.2432,709.0665 1150.5405,708.3638 1149.1351,707.6611 1147.027,707.6611 1145.6216,708.3638 1144.9189,709.0665 1144.2162,711.1746 1144.2162,712.58"/>
    <polyline points="1144.2162,711.1746 1144.9189,709.7692 1145.6216,709.0665 1147.027,708.3638 1149.1351,708.3638 1150.5405,709.0665 1151.2432,709.7692 1151.9459,711.1746"/>
    <polyline points="1144.2162,711.1746 1143.5135,709.0665 1142.1081,706.9584 1140.7027,706.2557 1139.2973,706.2557 1137.8919,706.9584 1137.1892,709.0665 1137.1892,711.1746 1137.8919,713.2827 1138.5946,713.9854 1140.0,714.6881 1140.7027,714.6881 1141.4054,713.9854 1140.7027,713.2827 1140.0,713.9854"/>
    <polyline points="1137.1892,709.0665 1137.8919,707.6611 1139.2973,706.9584 1140.7027,706.9584 1142.1081,707.6611 1143.5135,709.0665"/>
    <polyline points="1147.027,701.3368 1145.6216,700.6341 1144.2162,699.2287 1143.5135,697.8233 1143.5135,695.7152 1144.2162,694.3097 1144.9189,693.607 1146.3243,692.9043 1148.4324,692.9043 1149.8378,693.607 1151.2432,695.0124 1151.9459,697.1206 1151.9459,699.2287 1151.2432,700.6341 1150.5405,701.3368 1149.1351,702.0395 1146.3243,702.0395 1143.5135,701.3368 1141.4054,700.6341 1139.2973,699.2287 1137.8919,697.8233 1137.1892,695.7152 1137.1892,693.607 1137.8919,692.2016 1139.2973,691.4989 1140.0,691.4989 1140.7027,692.2016 1140.0,692.9043 1139.2973,692.2016"/>
    <polyline points="1137.1892,695.7152 1137.8919,697.1206 1139.2973,698.526 1141.4054,699.9314 1143.5135,700.6341 1146.3243,701.3368 1149.8378,701.3368 1151.2432,700.6341"/>
    <polyline points="1151.9459,697.1206 1151.2432,695.7152 1149.8378,694.3097 1148.4324,693.607 1145.6216,693.607 1144.2162,694.3097"/>
    <polyline points="1144.2162,683.0665 1144.9189,685.1746 1146.3243,686.58 1147.7297,687.2827 1149.8378,687.2827 1151.2432,686.58 1151.9459,685.1746"/>
    <polyline points="1151.9459,682.3638 1151.2432,680.2557 1150.5405,679.553 1149.1351,678.8503 1146.3243,678.8503 1144.9189,679.553"/>
    <polyline points="1144.2162,680.9584 1143.5135,678.8503 1142.8108,678.1476 1141.4054,677.4449 1139.2973,677.4449 1137.8919,678.1476 1137.1892,679.553"/>
    <polyline points="1137.1892,681.6611 1137.8919,683.0665 1138.5946,683.7692 1140.0,684.4719 1142.1081,684.4719 1143.5135,683.7692 1144.2162,683.0665"/>
    <polyline points="1144.2162,683.0665 1144.9189,685.8773 1146.3243,687.2827 1147.7297,687.9854 1149.8378,687.9854 1151.2432,687.2827 1151.9459,685.1746 1151.9459,682.3638 1151.2432,679.553 1150.5405,678.8503 1149.1351,678.1476 1147.027,678.1476 1145.6216,678.8503 1144.9189,679.553 1144.2162,680.9584"/>
    <polygon points="1137.1892,681.6611 1137.8919,683.7692 1138.5946,684.4719 1140.0,685.1746 1142.1081,685.1746 1143.5135,684.4719 1144.2162,683.0665 1144.2162,680.9584 1143.5135,678.1476 1142.8108,677.4449 1141.4054,676.7422 1139.2973,676.7422 1137.8919,677.4449 1137.1892,679.553"/>
    <polyline points="1148.4324,663.3908 1146.3243,661.9854 1142.8108,659.8773 1141.4054,659.1746 1139.2973,658.4719 1137.8919,658.4719 1137.1892,659.1746 1137.8919,660.58 1139.2973,661.2827 1142.1081,661.9854 1146.3243,662.6881 1151.9459,663.3908"/>
    <polyline points="1151.9459,663.3908 1149.8378,662.6881 1148.4324,661.9854 1146.3243,660.58 1145.6216,659.1746 1145.6216,657.7692 1146.3243,657.0665 1147.7297,657.0665 1148.4324,658.4719 1148.4324,660.58"/>
    <polyline points="1148.4324,660.58 1149.1351,659.1746 1151.2432,658.4719 1151.9459,657.7692 1151.9459,657.0665 1151.2432,655.6611 1150.5405,654.9584 1148.4324,653.553"/>
    <polyline points="1148.4324,653.553 1146.3243,652.1476 1145.6216,650.7422 1146.3243,650.0395 1147.027,650.0395 1149.8378,650.7422 1151.9459,651.4449"/>
    <polyline points="1149.8378,650.7422 1148.4324,650.0395 1146.3243,648.6341 1145.6216,647.2287 1145.6216,645.8233 1146.3243,645.1206 1147.027,645.1206 1149.8378,645.8233 1151.9459,646.526"/>
    <polyline points="1149.8378,645.8233 1148.4324,645.1206 1146.3243,643.7152 1145.6216,642.3097 1145.6216,640.9043 1146.3243,640.2016 1147.7297,640.2016 1149.8378,640.9043 1151.2432,640.9043 1151.9459,640.2016 1151.9459,639.4989 1151.2432,638.0935 1150.5405,637.3908 1148.4324,635.9854"/>
    <polyline points="1148.4324,624.7422 1146.3243,623.3368 1143.5135,621.9314"/>
    <line x1="1142.8108" x2="1142.8108" y1="624.0395" y2="619.1206"/>
    <polyline points="1137.1892,619.8233 1149.8378,624.0395 1151.2432,624.0395 1151.9459,623.3368 1151.9459,621.9314 1151.2432,620.526 1150.5405,619.8233 1148.4324,618.4179"/>
    <polyline points="1145.6216,614.2016 1145.6216,615.607 1146.3243,617.0124 1147.027,617.7152 1148.4324,618.4179 1149.8378,618.4179 1151.2432,617.7152 1151.9459,616.3097 1151.9459,614.9043 1151.2432,613.4989 1150.5405,612.7962 1149.1351,612.0935 1147.7297,612.0935 1146.3243,612.7962 1145.6216,614.2016 1146.3243,614.9043 1147.7297,614.9043 1149.1351,614.2016 1149.8378,612.7962 1149.8378,610.6881 1149.1351,609.2827 1148.4324,608.58"/>
    <polyline points="1148.4324,755.4449 1150.5405,756.8503 1151.2432,757.553 1151.9459,758.9584 1151.9459,760.3638 1151.2432,761.7692 1149.8378,762.4719 1147.7297,762.4719 1146.3243,761.7692 1145.6216,760.3638 1145.6216,759.6611 1146.3243,758.9584 1147.7297,758.9584 1149.1351,759.6611 1149.8378,760.3638 1150.5405,761.7692"/>
    <polyline points="1148.4324,762.4719 1150.5405,763.8773 1151.2432,764.58 1151.9459,765.9854 1151.9459,766.6881 1151.2432,767.3908 1147.027,767.3908 1142.1081,766.6881 1139.2973,765.9854 1137.8919,765.2827 1137.1892,763.8773 1137.8919,763.1746 1139.2973,763.1746 1141.4054,763.8773 1142.8108,764.58 1146.3243,766.6881 1148.4324,768.0935"/>
    <polyline points="1148.4324,779.3368 1150.5405,780.7422 1151.2432,781.4449 1151.9459,782.8503 1151.9459,784.2557 1151.2432,784.9584 1149.8378,784.9584 1137.1892,780.7422"/>
    <line x1="1142.8108" x2="1142.8108" y1="780.0395" y2="784.9584"/>
    <polyline points="1143.5135,782.8503 1146.3243,784.2557 1148.4324,785.6611"/>
    <polyline points="1148.4324,785.6611 1150.5405,787.0665 1151.2432,787.7692 1151.9459,789.1746 1151.9459,789.8773 1151.2432,790.58 1149.1351,790.58 1145.6216,789.8773 1149.8378,791.2827 1151.2432,791.9854 1151.9459,793.3908 1151.9459,794.7962 1151.2432,796.2016 1149.8378,796.9043 1148.4324,796.9043 1147.027,796.2016 1146.3243,795.4989 1145.6216,794.0935 1145.6216,792.6881 1146.3243,791.2827 1147.7297,790.58"/>
    <line x1="1168.8108" x2="1168.8108" y1="800.4179" y2="805.3368"/>
    <polyline points="1169.5135,803.2287 1172.3243,804.6341 1174.4324,806.0395"/>
    <polyline points="1174.4324,817.2827 1176.5405,818.6881 1177.2432,819.3908 1177.9459,820.7962 1177.9459,822.2016 1177.2432,822.9043 1175.8378,822.9043 1163.1892,818.6881"/>
    <line x1="1168.8108" x2="1168.8108" y1="817.9854" y2="822.9043"/>
    <polyline points="1169.5135,820.7962 1172.3243,822.2016 1174.4324,823.607"/>
    <polyline points="1174.4324,823.607 1176.5405,825.0124 1177.2432,825.7152 1177.9459,827.1206 1177.9459,828.526 1177.2432,829.9314 1175.8378,830.6341 1173.7297,830.6341 1172.3243,829.9314 1171.6216,828.526 1171.6216,827.8233 1172.3243,827.1206 1173.7297,827.1206 1175.1351,827.8233 1175.8378,828.526 1176.5405,829.9314"/>
    <polyline points="1174.4324,830.6341 1176.5405,832.7422 1177.9459,834.8503 1178.6486,836.2557 1180.054,838.3638 1182.1621,840.4719 1184.2703,841.1746 1185.6757,841.1746 1186.3784,840.4719 1185.6757,839.0665 1184.2703,838.3638 1176.5405,835.553 1171.6216,834.1476"/>
    <polyline points="1173.7297,834.8503 1172.3243,835.553 1171.6216,836.9584 1171.6216,838.3638 1172.3243,839.7692 1173.027,840.4719 1174.4324,841.1746 1175.8378,841.1746 1177.2432,840.4719 1177.9459,839.0665 1177.9459,837.6611 1177.2432,836.2557 1176.5405,835.553"/>
    <line x1="1306.5405" x2="1322.4324" y1="926.1341" y2="926.1341"/>
    <polyline points="1317.1351,922.3503 1317.1351,933.7016 1306.5405,926.1341"/>
    <polyline points="1319.4054,917.053 1320.1621,917.8097 1319.4054,918.5665 1318.6486,917.8097 1319.4054,917.053 1320.9189,917.053 1322.4324,918.5665"/>
    <polyline points="1350.6216,915.5395 1364.2432,920.08 1365.7567,920.8368 1366.5135,922.3503 1365.7567,923.107 1364.2432,923.107 1361.973,922.3503 1359.7027,920.08 1358.1892,917.8097 1357.4324,916.2962 1355.9189,914.026 1353.6486,911.7557"/>
    <polyline points="1352.8919,916.2962 1355.1621,917.8097 1356.6757,919.3233 1357.4324,920.8368 1357.4324,922.3503 1356.6757,923.107 1355.1621,923.107 1350.6216,921.5935 1353.6486,923.107"/>
    <polyline points="1353.6486,935.2152 1355.9189,936.7287 1356.6757,937.4854 1357.4324,938.9989 1357.4324,940.5124 1356.6757,942.026 1355.1621,942.7827 1352.8919,942.7827 1351.3784,942.026 1350.6216,940.5124 1350.6216,939.7557 1351.3784,938.9989 1352.8919,938.9989 1354.4054,939.7557 1355.1621,940.5124 1355.9189,942.026"/>
    <polyline points="1353.6486,942.7827 1355.9189,945.053 1356.6757,946.5665 1357.4324,948.8368 1357.4324,951.107 1356.6757,952.6206"/>
    <polyline points="1357.4324,949.5935 1356.6757,948.08 1355.9189,947.3233 1354.4054,946.5665 1352.8919,946.5665 1351.3784,947.3233 1350.6216,948.8368 1350.6216,950.3503 1351.3784,951.8638 1352.8919,952.6206"/>
    <polyline points="1353.6486,954.1341 1351.3784,952.6206 1349.8648,951.8638 1352.8919,952.6206 1366.5135,957.1611"/>
    <polyline points="1369.5405,960.1881 1383.1621,964.7287 1384.6757,965.4854 1385.4324,966.9989 1385.4324,968.5124 1384.6757,970.026 1383.1621,970.7827 1381.6486,970.7827 1380.1351,970.026 1379.3784,969.2692 1378.6216,967.7557 1378.6216,966.2422 1379.3784,964.7287 1380.8919,963.9719"/>
    <polyline points="1378.6216,963.2152 1382.4054,963.9719 1384.6757,963.9719 1385.4324,963.2152 1385.4324,962.4584 1384.6757,960.9449 1383.9189,960.1881 1381.6486,958.6746"/>
    <polyline points="1381.6486,958.6746 1378.6216,957.1611 1383.1621,958.6746 1384.6757,958.6746 1385.4324,957.9179 1385.4324,956.4043 1384.6757,954.8908 1383.1621,953.3773 1380.8919,951.8638"/>
    <polyline points="1378.6216,951.107 1383.1621,952.6206 1384.6757,952.6206 1385.4324,951.8638 1385.4324,951.107 1384.6757,949.5935 1383.9189,948.8368 1381.6486,947.3233"/>
    <polyline points="1381.6486,947.3233 1379.3784,945.8097 1377.8648,945.053 1379.3784,945.053 1379.3784,942.7827 1380.1351,942.026 1381.6486,942.026 1383.9189,942.7827 1384.6757,942.7827 1385.4324,942.026 1385.4324,941.2692 1384.6757,939.7557 1383.9189,938.9989 1381.6486,937.4854"/>
    <polyline points="1381.6486,937.4854 1378.6216,935.9719 1383.1621,937.4854 1384.6757,937.4854 1385.4324,936.7287 1385.4324,935.9719 1384.6757,934.4584 1383.9189,933.7016 1381.6486,932.1881"/>
    <polyline points="1381.6486,932.1881 1379.3784,930.6746 1378.6216,929.1611 1379.3784,928.4043 1380.1351,928.4043 1383.1621,929.1611 1385.4324,929.9179"/>
    <polyline points="1383.1621,929.1611 1381.6486,928.4043 1379.3784,926.8908 1378.6216,925.3773 1378.6216,923.8638 1379.3784,923.107 1380.8919,923.107 1383.1621,923.8638 1384.6757,923.8638 1385.4324,923.107 1385.4324,922.3503 1384.6757,920.8368 1383.9189,920.08 1381.6486,918.5665"/>
    <polyline points="1383.9189,912.5124 1384.6757,913.2692 1385.4324,914.7827 1385.4324,916.2962 1384.6757,917.8097 1383.1621,918.5665 1381.6486,918.5665 1380.1351,917.8097 1379.3784,917.053 1378.6216,915.5395 1378.6216,914.026 1379.3784,912.5124 1380.8919,911.7557"/>
    <polyline points="1378.6216,910.9989 1383.9189,912.5124 1392.2432,915.5395 1393.7567,916.2962 1394.5135,917.8097 1393.7567,918.5665 1392.2432,918.5665 1389.973,917.8097 1387.7027,915.5395 1386.1892,913.2692 1385.4324,911.7557 1383.9189,909.4854 1381.6486,907.2152"/>
    <polyline points="1381.6486,895.107 1379.3784,893.5935 1376.3513,892.08"/>
    <line x1="1375.5946" x2="1375.5946" y1="894.3503" y2="889.053"/>
    <polyline points="1381.6486,888.2962 1379.3784,886.7827 1375.5946,884.5124 1374.0811,883.7557 1371.8108,882.9989 1370.2973,882.9989 1369.5405,883.7557 1370.2973,885.2692 1371.8108,886.026 1374.8378,886.7827 1379.3784,887.5395 1385.4324,888.2962"/>
    <polyline points="1385.4324,888.2962 1383.1621,887.5395 1381.6486,886.7827 1379.3784,885.2692 1378.6216,883.7557 1378.6216,882.2422 1379.3784,881.4854 1380.8919,881.4854 1383.1621,882.2422 1384.6757,882.2422 1385.4324,881.4854 1385.4324,880.7287 1384.6757,879.2152 1383.9189,878.4584 1381.6486,876.9449"/>
    <polyline points="1383.9189,876.1881 1383.1621,874.6746 1382.4054,873.9179 1380.8919,873.1611 1379.3784,873.1611 1378.6216,873.9179 1378.6216,874.6746 1379.3784,876.1881 1380.8919,876.9449 1383.1621,876.9449 1384.6757,876.1881 1385.4324,874.6746 1385.4324,873.1611 1384.6757,871.6476 1383.9189,870.8908 1381.6486,869.3773"/>
    <polyline points="1381.6486,869.3773 1379.3784,867.8638 1377.8648,867.107 1379.3784,867.107 1381.6486,865.5935 1383.1621,864.8368 1384.6757,864.8368 1385.4324,866.3503"/>
    <polyline points="1384.6757,869.3773 1385.4324,867.8638 1385.4324,864.8368 1384.6757,863.3233 1383.9189,862.5665 1381.6486,861.053"/>
    <polyline points="1383.9189,860.2962 1383.1621,858.7827 1382.4054,858.026 1380.8919,857.2692 1379.3784,857.2692 1378.6216,858.026 1378.6216,858.7827 1379.3784,860.2962 1380.8919,861.053 1383.1621,861.053 1384.6757,860.2962 1385.4324,858.7827 1385.4324,857.2692 1384.6757,855.7557 1383.9189,854.9989 1381.6486,853.4854"/>
    <polyline points="1380.1351,836.08 1379.3784,836.08 1378.6216,836.8368 1378.6216,838.3503 1379.3784,839.8638 1380.1351,840.6206 1381.6486,841.3773 1383.1621,841.3773 1384.6757,840.6206 1385.4324,839.107 1385.4324,836.8368 1383.9189,834.5665 1381.6486,833.053"/>
    <polyline points="1381.6486,833.053 1379.3784,831.5395 1377.8648,830.7827 1379.3784,830.7827 1379.3784,828.5124 1380.1351,827.7557 1381.6486,827.7557 1383.9189,828.5124 1384.6757,828.5124 1385.4324,827.7557 1385.4324,826.9989 1384.6757,825.4854 1383.9189,824.7287 1381.6486,823.2152"/>
    <polyline points="1380.8919,816.4043 1379.3784,817.1611 1378.6216,818.6746 1378.6216,820.1881 1379.3784,821.7016 1380.1351,822.4584 1381.6486,823.2152 1383.1621,823.2152 1384.6757,822.4584 1385.4324,820.9449 1385.4324,819.4314 1384.6757,817.9179 1383.1621,817.1611 1378.6216,815.6476 1382.4054,816.4043 1384.6757,816.4043 1385.4324,815.6476 1385.4324,814.8908 1384.6757,813.3773 1383.9189,812.6206 1381.6486,811.107"/>
    <polyline points="1381.6486,811.107 1379.3784,809.5935 1378.6216,808.08 1378.6216,806.5665 1380.1351,805.053 1381.6486,805.053 1383.1621,805.8097 1384.6757,807.3233 1385.4324,809.5935 1386.1892,808.08 1387.7027,807.3233 1389.973,807.3233 1392.2432,808.08 1393.7567,808.8368 1394.5135,810.3503 1393.7567,811.107 1392.2432,811.107 1389.973,810.3503 1387.7027,808.08 1386.1892,805.8097 1383.9189,802.7827 1381.6486,800.5124"/>
    <polyline points="1381.6486,800.5124 1378.6216,798.9989 1383.1621,800.5124 1384.6757,800.5124 1385.4324,799.7557 1385.4324,798.2422 1384.6757,796.7287 1383.1621,795.2152 1380.8919,793.7016"/>
    <polyline points="1378.6216,792.9449 1392.2432,797.4854 1393.7567,798.2422 1394.5135,799.7557 1393.7567,800.5124 1392.2432,800.5124 1389.973,799.7557 1387.7027,797.4854 1386.1892,795.2152 1385.4324,793.7016 1383.9189,791.4314 1381.6486,789.1611"/>
    <polyline points="1381.6486,777.053 1379.3784,775.5395 1376.3513,774.026"/>
    <line x1="1375.5946" x2="1375.5946" y1="776.2962" y2="770.9989"/>
    <polygon points="1374.8378,767.9719 1375.5946,767.9719 1375.5946,767.2152 1374.8378,767.2152"/>
    <polyline points="1369.5405,771.7557 1383.1621,776.2962 1384.6757,776.2962 1385.4324,775.5395 1385.4324,774.026 1384.6757,772.5124 1383.9189,771.7557 1381.6486,770.2422"/>
    <polyline points="1381.6486,770.2422 1378.6216,768.7287 1383.1621,770.2422 1384.6757,770.2422 1385.4324,769.4854 1385.4324,768.7287 1384.6757,767.2152 1383.9189,766.4584 1381.6486,764.9449"/>
    <polyline points="1381.6486,764.9449 1379.3784,763.4314 1378.6216,761.9179 1379.3784,761.1611 1380.1351,761.1611 1383.1621,761.9179 1385.4324,762.6746"/>
    <polyline points="1383.1621,761.9179 1381.6486,761.1611 1379.3784,759.6476 1378.6216,758.1341 1378.6216,756.6206 1379.3784,755.8638 1380.1351,755.8638 1383.1621,756.6206 1385.4324,757.3773"/>
    <polyline points="1383.1621,756.6206 1381.6486,755.8638 1379.3784,754.3503 1378.6216,752.8368 1378.6216,751.3233 1379.3784,750.5665 1380.8919,750.5665 1383.1621,751.3233 1384.6757,751.3233 1385.4324,750.5665 1385.4324,749.8097 1384.6757,748.2962 1383.9189,747.5395 1381.6486,746.026"/>
    <polyline points="1383.9189,745.2692 1383.1621,743.7557 1382.4054,742.9989 1380.8919,742.2422 1379.3784,742.2422 1378.6216,742.9989 1378.6216,743.7557 1379.3784,745.2692 1380.8919,746.026 1383.1621,746.026 1384.6757,745.2692 1385.4324,743.7557 1385.4324,742.2422 1384.6757,740.7287 1383.9189,739.9719 1381.6486,738.4584"/>
    <polyline points="1381.6486,738.4584 1379.3784,736.9449 1377.8648,736.1881 1379.3784,736.1881 1381.6486,734.6746 1383.1621,733.9179 1384.6757,733.9179 1385.4324,735.4314"/>
    <polyline points="1384.6757,738.4584 1385.4324,736.9449 1385.4324,733.9179 1384.6757,732.4043 1383.9189,731.6476 1381.6486,730.1341"/>
    <polygon points="1381.6486,727.107 1382.4054,727.8638 1383.1621,727.107 1382.4054,726.3503"/>
    <polyline points="1406.6216,732.4043 1420.2432,736.9449 1421.7567,737.7016 1422.5135,739.2152 1421.7567,739.9719 1420.2432,739.9719 1417.973,739.2152 1415.7027,736.9449 1414.1892,734.6746 1413.4324,733.1611 1411.9189,730.8908 1409.6486,728.6206"/>
    <polyline points="1408.8919,733.1611 1411.1621,734.6746 1412.6757,736.1881 1413.4324,737.7016 1413.4324,739.2152 1412.6757,739.9719 1411.1621,739.9719 1406.6216,738.4584 1409.6486,739.9719"/>
    <polyline points="1409.6486,739.9719 1411.9189,742.2422 1412.6757,743.7557 1413.4324,746.026 1413.4324,748.2962 1412.6757,749.8097"/>
    <polyline points="1413.4324,746.7827 1412.6757,745.2692 1411.9189,744.5124 1410.4054,743.7557 1408.8919,743.7557 1407.3784,744.5124 1406.6216,746.026 1406.6216,747.5395 1407.3784,749.053 1408.8919,749.8097"/>
    <polyline points="1409.6486,751.3233 1407.3784,749.8097 1405.8648,749.053 1408.8919,749.8097 1422.5135,754.3503"/>
    <polyline points="1413.4324,758.1341 1412.6757,756.6206 1411.9189,755.8638 1410.4054,755.107 1408.8919,755.107 1407.3784,755.8638 1406.6216,757.3773 1406.6216,758.8908 1407.3784,760.4043 1408.8919,761.1611"/>
    <polyline points="1409.6486,762.6746 1407.3784,761.1611 1405.8648,760.4043 1408.8919,761.1611 1422.5135,765.7016"/>
    <polyline points="1412.6757,761.1611 1413.4324,759.6476 1413.4324,757.3773 1412.6757,755.107 1411.9189,753.5935 1409.6486,751.3233"/>
    <polyline points="1409.6486,762.6746 1411.9189,764.1881 1412.6757,764.9449 1413.4324,766.4584 1413.4324,767.2152 1412.6757,767.9719 1410.4054,767.9719 1406.6216,767.2152 1411.1621,768.7287 1412.6757,769.4854 1413.4324,770.9989 1413.4324,772.5124 1412.6757,774.026 1411.1621,774.7827 1409.6486,774.7827 1408.1351,774.026 1407.3784,773.2692 1406.6216,771.7557 1406.6216,770.2422 1407.3784,768.7287 1408.8919,767.9719"/>
    <polyline points="1409.6486,774.7827 1411.9189,776.2962 1412.6757,777.053 1413.4324,778.5665 1413.4324,779.3233 1412.6757,780.08 1411.1621,780.08 1408.8919,779.3233 1407.3784,779.3233 1406.6216,780.08 1406.6216,781.5935 1407.3784,783.107 1409.6486,784.6206 1411.1621,785.3773 1413.4324,786.1341"/>
    <polyline points="1413.4324,786.1341 1407.3784,785.3773 1402.8378,784.6206 1399.8108,783.8638 1398.2973,783.107 1397.5405,781.5935 1398.2973,780.8368 1399.8108,780.8368 1402.0811,781.5935 1403.5946,782.3503 1407.3784,784.6206 1409.6486,786.1341"/>
    <polyline points="1409.6486,798.2422 1411.9189,800.5124 1413.4324,802.7827 1414.1892,804.2962 1415.7027,806.5665 1417.973,808.8368 1420.2432,809.5935 1421.7567,809.5935 1422.5135,808.8368 1421.7567,807.3233 1420.2432,806.5665 1406.6216,802.026"/>
    <polyline points="1408.8919,802.7827 1411.1621,804.2962 1412.6757,805.8097 1413.4324,807.3233 1413.4324,808.8368 1412.6757,809.5935 1411.1621,809.5935 1406.6216,808.08 1409.6486,809.5935"/>
    <polyline points="1409.6486,809.5935 1411.9189,811.107 1412.6757,811.8638 1413.4324,813.3773 1413.4324,814.1341 1412.6757,814.8908 1411.9189,814.8908 1409.6486,814.1341 1408.1351,814.1341 1407.3784,814.8908 1407.3784,817.1611 1405.8648,817.1611 1407.3784,817.9179 1409.6486,819.4314"/>
    <polyline points="1409.6486,819.4314 1411.9189,820.9449 1412.6757,821.7016 1413.4324,823.2152 1413.4324,824.7287 1412.6757,826.2422 1411.1621,826.9989 1408.8919,826.9989 1407.3784,826.2422 1406.6216,824.7287 1406.6216,823.9719 1407.3784,823.2152 1408.8919,823.2152 1410.4054,823.9719 1411.1621,824.7287 1411.9189,826.2422"/>
    <polyline points="1409.6486,826.9989 1410.4054,828.5124 1410.4054,830.026 1409.6486,830.7827 1406.6216,831.5395"/>
    <polyline points="1406.6216,831.5395 1408.8919,831.5395 1411.1621,832.2962 1412.6757,833.8097 1413.4324,836.08 1413.4324,836.8368 1412.6757,837.5935 1410.4054,837.5935 1406.6216,836.8368 1409.6486,838.3503"/>
    <polyline points="1409.6486,850.4584 1411.9189,851.9719 1412.6757,852.7287 1413.4324,854.2422 1413.4324,854.9989 1412.6757,855.7557 1410.4054,855.7557 1406.6216,854.9989 1411.1621,856.5124 1412.6757,857.2692 1413.4324,858.7827 1413.4324,860.2962 1412.6757,861.8097 1411.1621,862.5665 1409.6486,862.5665 1408.1351,861.8097 1407.3784,861.053 1406.6216,859.5395 1406.6216,858.026 1407.3784,856.5124 1408.8919,855.7557"/>
    <polyline points="1409.6486,874.6746 1411.9189,876.1881 1412.6757,876.9449 1413.4324,878.4584 1413.4324,879.9719 1412.6757,881.4854 1411.1621,882.2422 1408.8919,882.2422 1407.3784,881.4854 1406.6216,879.9719 1406.6216,879.2152 1407.3784,878.4584 1408.8919,878.4584 1410.4054,879.2152 1411.1621,879.9719 1411.9189,881.4854"/>
    <polyline points="1409.6486,882.2422 1410.4054,883.7557 1410.4054,885.2692 1409.6486,886.026 1406.6216,886.7827"/>
    <polyline points="1406.6216,886.7827 1408.8919,886.7827 1411.1621,887.5395 1412.6757,889.053 1413.4324,891.3233 1413.4324,892.08 1412.6757,892.8368 1410.4054,892.8368 1406.6216,892.08 1409.6486,893.5935"/>
    <polyline points="1409.6486,893.5935 1411.9189,895.107 1412.6757,895.8638 1413.4324,897.3773 1413.4324,898.1341 1412.6757,898.8908 1410.4054,898.8908 1406.6216,898.1341 1411.1621,899.6476 1412.6757,900.4043 1413.4324,901.9179 1413.4324,903.4314 1412.6757,904.9449 1411.1621,905.7016 1409.6486,905.7016 1408.1351,904.9449 1407.3784,904.1881 1406.6216,902.6746 1406.6216,901.1611 1407.3784,899.6476 1408.8919,898.8908"/>
    <polyline points="1409.6486,905.7016 1411.9189,907.2152 1412.6757,907.9719 1413.4324,909.4854 1413.4324,910.2422 1412.6757,910.9989 1411.1621,910.9989 1408.8919,910.2422 1407.3784,910.2422 1406.6216,910.9989 1406.6216,912.5124 1407.3784,914.026 1409.6486,915.5395 1411.1621,916.2962 1413.4324,917.053"/>
    <polyline points="1413.4324,917.053 1407.3784,916.2962 1402.8378,915.5395 1399.8108,914.7827 1398.2973,914.026 1397.5405,912.5124 1398.2973,911.7557 1399.8108,911.7557 1402.0811,912.5124 1403.5946,913.2692 1407.3784,915.5395 1409.6486,917.053"/>
    <polyline points="1409.6486,929.1611 1411.9189,930.6746 1412.6757,931.4314 1413.4324,932.9449 1413.4324,933.7016 1412.6757,934.4584 1410.4054,934.4584 1406.6216,933.7016"/>
    <polyline points="1408.8919,934.4584 1407.3784,935.2152 1406.6216,936.7287 1406.6216,938.2422 1407.3784,939.7557 1408.1351,940.5124 1409.6486,941.2692 1411.1621,941.2692 1412.6757,940.5124 1413.4324,938.9989 1413.4324,937.4854 1412.6757,935.9719 1411.1621,935.2152 1397.5405,930.6746"/>
    <polyline points="1409.6486,941.2692 1411.9189,942.7827 1412.6757,943.5395 1413.4324,945.053 1413.4324,945.8097 1412.6757,946.5665 1411.1621,946.5665 1408.8919,945.8097 1407.3784,945.8097 1406.6216,946.5665 1406.6216,948.08 1407.3784,949.5935 1409.6486,951.107 1411.1621,951.8638"/>
    <polyline points="1413.4324,952.6206 1411.1621,951.8638 1408.1351,951.107 1407.3784,951.107 1406.6216,951.8638 1407.3784,953.3773 1409.6486,954.8908"/>
    <polyline points="1409.6486,954.8908 1411.9189,956.4043 1412.6757,957.1611 1413.4324,958.6746 1413.4324,959.4314 1412.6757,960.1881 1410.4054,960.1881 1406.6216,959.4314 1411.1621,960.9449 1412.6757,961.7016 1413.4324,963.2152 1413.4324,964.7287 1412.6757,966.2422 1411.1621,966.9989 1409.6486,966.9989 1408.1351,966.2422 1407.3784,965.4854 1406.6216,963.9719 1406.6216,962.4584 1407.3784,960.9449 1408.8919,960.1881"/>
    <polyline points="1409.6486,979.107 1411.9189,980.6206 1412.6757,981.3773 1413.4324,982.8908 1413.4324,984.4043 1412.6757,985.9179 1411.1621,986.6746 1408.8919,986.6746 1407.3784,985.9179 1406.6216,984.4043 1406.6216,983.6476 1407.3784,982.8908 1408.8919,982.8908 1410.4054,983.6476 1411.1621,984.4043 1411.9189,985.9179"/>
    <polyline points="1409.6486,986.6746 1411.9189,988.1881 1412.6757,988.9449 1413.4324,990.4584 1413.4324,991.2152 1412.6757,991.9719 1411.9189,991.9719 1409.6486,991.2152 1408.1351,991.2152 1407.3784,991.9719 1407.3784,994.2422 1405.8648,994.2422 1407.3784,994.9989 1409.6486,996.5124"/>
    <polyline points="1409.6486,996.5124 1411.9189,998.026 1412.6757,998.7827 1413.4324,1000.2962 1413.4324,1001.053 1412.6757,1001.8097 1410.4054,1001.8097 1406.6216,1001.053 1411.1621,1002.5665 1412.6757,1003.3233 1413.4324,1004.8368 1413.4324,1006.3503 1412.6757,1007.8638 1411.1621,1008.6206 1409.6486,1008.6206 1408.1351,1007.8638 1407.3784,1007.107 1406.6216,1005.5935 1406.6216,1004.08 1407.3784,1002.5665 1408.8919,1001.8097"/>
    <polyline points="1409.6486,1008.6206 1411.9189,1010.1341 1413.4324,1012.4043 1413.4324,1014.6746 1412.6757,1016.1881 1411.1621,1016.9449 1409.6486,1016.9449 1408.1351,1016.1881 1407.3784,1015.4314 1406.6216,1013.9179 1406.6216,1012.4043 1407.3784,1011.6476 1408.1351,1011.6476"/>
    <polyline points="1381.6486,1008.6206 1383.9189,1010.1341 1385.4324,1012.4043 1385.4324,1014.6746 1384.6757,1016.1881 1383.1621,1016.9449 1381.6486,1016.9449 1380.1351,1016.1881 1379.3784,1015.4314 1378.6216,1013.9179 1378.6216,1012.4043 1379.3784,1011.6476 1380.1351,1011.6476"/>
    <polyline points="1380.8919,1001.8097 1379.3784,1002.5665 1378.6216,1004.08 1378.6216,1005.5935 1379.3784,1007.107 1380.1351,1007.8638 1381.6486,1008.6206 1383.1621,1008.6206 1384.6757,1007.8638 1385.4324,1006.3503 1385.4324,1004.8368 1384.6757,1003.3233 1383.1621,1002.5665 1378.6216,1001.053 1382.4054,1001.8097 1384.6757,1001.8097 1385.4324,1001.053 1385.4324,1000.2962 1384.6757,998.7827 1383.9189,998.026 1381.6486,996.5124"/>
    <polyline points="1381.6486,996.5124 1379.3784,994.9989 1378.6216,993.4854 1379.3784,992.7287 1380.1351,992.7287 1383.1621,993.4854 1385.4324,994.2422"/>
    <polyline points="1383.1621,993.4854 1381.6486,992.7287 1379.3784,991.2152 1378.6216,989.7016 1378.6216,988.1881 1379.3784,987.4314 1380.8919,987.4314 1383.1621,988.1881 1384.6757,988.1881 1385.4324,987.4314 1385.4324,986.6746 1384.6757,985.1611 1383.9189,984.4043 1381.6486,982.8908"/>
    <polyline points="1357.4324,976.08 1355.1621,975.3233 1353.6486,974.5665 1351.3784,973.053 1350.6216,971.5395 1350.6216,970.026 1351.3784,969.2692 1352.8919,969.2692 1355.1621,970.026 1356.6757,970.026 1357.4324,969.2692 1357.4324,968.5124 1356.6757,966.9989 1355.9189,966.2422 1353.6486,964.7287"/>
    <polyline points="1350.6216,960.1881 1350.6216,961.7016 1351.3784,963.2152 1352.1351,963.9719 1353.6486,964.7287 1355.1621,964.7287 1356.6757,963.9719 1357.4324,962.4584 1357.4324,960.9449 1356.6757,959.4314 1355.9189,958.6746 1354.4054,957.9179 1352.8919,957.9179 1351.3784,958.6746 1350.6216,960.1881 1351.3784,960.9449 1352.8919,960.9449 1354.4054,960.1881 1355.1621,958.6746 1355.1621,956.4043 1354.4054,954.8908 1353.6486,954.1341"/>
    <polyline points="1353.6486,976.08 1351.3784,974.5665 1347.5946,972.2962 1346.0811,971.5395 1343.8108,970.7827 1342.2973,970.7827 1341.5405,971.5395 1342.2973,973.053 1343.8108,973.8097 1346.8378,974.5665 1351.3784,975.3233 1357.4324,976.08"/>
    <polyline points="1353.6486,988.1881 1355.9189,989.7016 1356.6757,990.4584 1357.4324,991.9719 1357.4324,993.4854 1356.6757,994.9989 1355.1621,995.7557 1352.8919,995.7557 1351.3784,994.9989 1350.6216,993.4854 1350.6216,992.7287 1351.3784,991.9719 1352.8919,991.9719 1354.4054,992.7287 1355.1621,993.4854 1355.9189,994.9989"/>
    <line x1="1357.4324" x2="1341.5405" y1="1004.8368" y2="1003.3233"/>
    <line x1="1341.5405" x2="1357.4324" y1="1003.3233" y2="1010.8908"/>
    <polyline points="1357.4324,1010.8908 1346.0811,1010.1341 1343.8108,1010.1341 1342.2973,1010.8908 1341.5405,1012.4043 1341.5405,1013.1611 1342.2973,1014.6746 1343.8108,1015.4314 1344.5676,1015.4314 1346.0811,1014.6746 1346.8378,1013.1611"/>
    <polyline points="1357.4324,1004.8368 1352.1351,1002.5665 1347.5946,1000.2962 1344.5676,998.026 1342.2973,995.7557 1341.5405,994.2422"/>
    <polyline points="1320.9189,997.2692 1320.1621,995.7557 1319.4054,994.9989 1317.8919,994.2422 1316.3784,994.2422 1315.6216,994.9989 1315.6216,995.7557 1316.3784,997.2692 1317.8919,998.026 1320.1621,998.026 1321.6757,997.2692 1322.4324,995.7557 1322.4324,994.2422 1321.6757,992.7287 1320.9189,991.9719 1318.6486,990.4584"/>
    <polyline points="1318.6486,990.4584 1316.3784,988.9449 1314.8648,988.1881 1316.3784,988.1881 1316.3784,985.9179 1317.1351,985.1611 1318.6486,985.1611 1320.9189,985.9179 1321.6757,985.9179 1322.4324,985.1611 1322.4324,984.4043 1321.6757,982.8908 1320.9189,982.1341 1318.6486,980.6206"/>
    <polyline points="1318.6486,980.6206 1316.3784,979.107 1314.8648,978.3503 1316.3784,978.3503 1318.6486,976.8368 1320.1621,976.08 1321.6757,976.08 1322.4324,977.5935"/>
    <polyline points="1321.6757,980.6206 1322.4324,979.107 1322.4324,976.08 1321.6757,974.5665 1320.9189,973.8097 1318.6486,972.2962"/>
    <polyline points="1315.6216,967.7557 1315.6216,969.2692 1316.3784,970.7827 1317.1351,971.5395 1318.6486,972.2962 1320.1621,972.2962 1321.6757,971.5395 1322.4324,970.026 1322.4324,968.5124 1321.6757,966.9989 1320.9189,966.2422 1319.4054,965.4854 1317.8919,965.4854 1316.3784,966.2422 1315.6216,967.7557 1316.3784,968.5124 1317.8919,968.5124 1319.4054,967.7557 1320.1621,966.2422 1320.1621,963.9719 1319.4054,962.4584 1318.6486,961.7016"/>
    <polyline points="1318.6486,961.7016 1316.3784,960.1881 1315.6216,958.6746 1316.3784,957.9179 1317.1351,957.9179 1320.1621,958.6746 1322.4324,959.4314"/>
    <polyline points="1320.1621,958.6746 1318.6486,957.9179 1316.3784,956.4043 1315.6216,954.8908 1315.6216,953.3773 1316.3784,952.6206 1317.8919,952.6206 1320.1621,953.3773 1321.6757,953.3773 1322.4324,952.6206 1322.4324,951.8638 1321.6757,950.3503 1320.9189,949.5935 1318.6486,948.08"/>
    <polyline points="1350.6216,907.2152 1350.6216,908.7287 1351.3784,910.2422 1352.1351,910.9989 1353.6486,911.7557 1355.1621,911.7557 1356.6757,910.9989 1357.4324,909.4854 1357.4324,907.9719 1356.6757,906.4584 1355.9189,905.7016 1354.4054,904.9449 1352.8919,904.9449 1351.3784,905.7016 1350.6216,907.2152 1351.3784,907.9719 1352.8919,907.9719 1354.4054,907.2152 1355.1621,905.7016 1355.1621,903.4314 1354.4054,901.9179 1353.6486,901.1611"/>
    <polyline points="1353.6486,901.1611 1350.6216,899.6476 1355.1621,901.1611 1356.6757,901.1611 1357.4324,900.4043 1357.4324,898.8908 1356.6757,897.3773 1355.1621,895.8638 1352.8919,894.3503"/>
    <polyline points="1350.6216,893.5935 1355.1621,895.107 1356.6757,895.107 1357.4324,894.3503 1357.4324,893.5935 1356.6757,892.08 1355.9189,891.3233 1353.6486,889.8097"/>
    <polyline points="1369.5405,889.8097 1383.1621,894.3503 1384.6757,894.3503 1385.4324,893.5935 1385.4324,892.08 1384.6757,890.5665 1383.9189,889.8097 1381.6486,888.2962"/>
    <polyline points="1352.8919,870.8908 1351.3784,871.6476 1350.6216,873.1611 1350.6216,874.6746 1351.3784,876.1881 1352.1351,876.9449 1353.6486,877.7016 1355.1621,877.7016 1356.6757,876.9449 1357.4324,875.4314 1357.4324,873.9179 1356.6757,872.4043 1355.1621,871.6476 1350.6216,870.1341 1354.4054,870.8908 1356.6757,870.8908 1357.4324,870.1341 1357.4324,869.3773 1356.6757,867.8638 1355.9189,867.107 1353.6486,865.5935"/>
    <polyline points="1353.6486,865.5935 1351.3784,864.08 1349.8648,863.3233 1351.3784,863.3233 1351.3784,861.053 1352.1351,860.2962 1353.6486,860.2962 1355.9189,861.053 1356.6757,861.053 1357.4324,860.2962 1357.4324,859.5395 1356.6757,858.026 1355.9189,857.2692 1353.6486,855.7557"/>
    <polyline points="1355.9189,854.9989 1355.1621,853.4854 1354.4054,852.7287 1352.8919,851.9719 1351.3784,851.9719 1350.6216,852.7287 1350.6216,853.4854 1351.3784,854.9989 1352.8919,855.7557 1355.1621,855.7557 1356.6757,854.9989 1357.4324,853.4854 1357.4324,851.9719 1356.6757,850.4584 1355.9189,849.7016 1353.6486,848.1881"/>
    <polyline points="1352.8919,829.2692 1351.3784,830.026 1350.6216,831.5395 1350.6216,833.053 1351.3784,834.5665 1352.1351,835.3233 1353.6486,836.08 1355.1621,836.08 1356.6757,835.3233 1357.4324,833.8097 1357.4324,832.2962 1356.6757,830.7827 1355.1621,830.026 1341.5405,825.4854"/>
    <polyline points="1350.6216,828.5124 1354.4054,829.2692 1356.6757,829.2692 1357.4324,828.5124 1357.4324,827.7557 1356.6757,826.2422 1355.9189,825.4854 1353.6486,823.9719"/>
    <polyline points="1350.6216,819.4314 1350.6216,820.9449 1351.3784,822.4584 1352.1351,823.2152 1353.6486,823.9719 1355.1621,823.9719 1356.6757,823.2152 1357.4324,821.7016 1357.4324,820.1881 1356.6757,818.6746 1355.9189,817.9179 1354.4054,817.1611 1352.8919,817.1611 1351.3784,817.9179 1350.6216,819.4314 1351.3784,820.1881 1352.8919,820.1881 1354.4054,819.4314 1355.1621,817.9179 1355.1621,815.6476 1354.4054,814.1341 1353.6486,813.3773"/>
    <polyline points="1353.6486,813.3773 1350.6216,811.8638 1355.1621,813.3773 1356.6757,813.3773 1357.4324,812.6206 1357.4324,811.8638 1356.6757,810.3503 1355.9189,809.5935 1353.6486,808.08"/>
    <polyline points="1353.6486,808.08 1351.3784,806.5665 1350.6216,805.053 1351.3784,804.2962 1352.1351,804.2962 1355.1621,805.053 1357.4324,805.8097"/>
    <polyline points="1355.1621,805.053 1353.6486,804.2962 1351.3784,802.7827 1350.6216,801.2692 1350.6216,799.7557 1351.3784,798.9989 1352.8919,798.9989 1355.1621,799.7557 1356.6757,799.7557 1357.4324,798.9989 1357.4324,798.2422 1356.6757,796.7287 1355.9189,795.9719 1353.6486,794.4584"/>
    <polyline points="1355.9189,788.4043 1356.6757,789.1611 1357.4324,790.6746 1357.4324,792.1881 1356.6757,793.7016 1355.1621,794.4584 1353.6486,794.4584 1352.1351,793.7016 1351.3784,792.9449 1350.6216,791.4314 1350.6216,789.9179 1351.3784,788.4043 1352.8919,787.6476"/>
    <polyline points="1350.6216,786.8908 1355.9189,788.4043 1364.2432,791.4314 1365.7567,792.1881 1366.5135,793.7016 1365.7567,794.4584 1364.2432,794.4584 1361.973,793.7016 1359.7027,791.4314 1358.1892,789.1611 1357.4324,787.6476 1355.9189,785.3773 1353.6486,783.107"/>
    <polyline points="1352.8919,764.1881 1351.3784,764.9449 1350.6216,766.4584 1350.6216,767.9719 1351.3784,769.4854 1352.1351,770.2422 1353.6486,770.9989 1355.1621,770.9989 1356.6757,770.2422 1357.4324,768.7287 1357.4324,767.2152 1356.6757,765.7016 1355.1621,764.9449 1350.6216,763.4314 1354.4054,764.1881 1356.6757,764.1881 1357.4324,763.4314 1357.4324,762.6746 1356.6757,761.1611 1355.9189,760.4043 1353.6486,758.8908"/>
    <polyline points="1353.6486,758.8908 1351.3784,757.3773 1349.8648,756.6206 1351.3784,756.6206 1353.6486,755.107 1355.1621,754.3503 1356.6757,754.3503 1357.4324,755.8638"/>
    <polyline points="1356.6757,758.8908 1357.4324,757.3773 1357.4324,754.3503 1356.6757,752.8368 1355.9189,752.08 1353.6486,750.5665"/>
    <polyline points="1350.6216,736.1881 1352.1351,737.7016 1354.4054,738.4584 1355.9189,738.4584 1357.4324,737.7016 1357.4324,736.1881 1356.6757,734.6746 1355.1621,733.1611"/>
    <polyline points="1350.6216,731.6476 1355.1621,733.1611 1356.6757,733.1611 1357.4324,732.4043 1357.4324,730.8908 1356.6757,729.3773 1355.1621,727.8638 1352.8919,727.107 1350.6216,727.107"/>
    <polyline points="1350.6216,727.107 1353.6486,726.3503 1354.4054,725.5935 1354.4054,724.08 1353.6486,722.5665"/>
    <polyline points="1355.9189,721.8097 1355.1621,720.2962 1354.4054,719.5395 1352.8919,718.7827 1351.3784,718.7827 1350.6216,719.5395 1350.6216,720.2962 1351.3784,721.8097 1352.8919,722.5665 1355.1621,722.5665 1356.6757,721.8097 1357.4324,720.2962 1357.4324,718.7827 1356.6757,717.2692 1355.9189,716.5124 1353.6486,714.9989"/>
    <polyline points="1353.6486,714.9989 1351.3784,713.4854 1347.5946,711.2152 1346.0811,710.4584 1343.8108,709.7016 1342.2973,709.7016 1341.5405,710.4584 1342.2973,711.9719 1343.8108,712.7287 1346.8378,713.4854 1352.1351,714.2422 1356.6757,714.2422 1357.4324,713.4854 1357.4324,712.7287 1356.6757,711.2152 1355.9189,710.4584 1353.6486,708.9449"/>
    <polyline points="1353.6486,708.9449 1351.3784,707.4314 1347.5946,705.1611 1346.0811,704.4043 1343.8108,703.6476 1342.2973,703.6476 1341.5405,704.4043 1342.2973,705.9179 1343.8108,706.6746 1346.8378,707.4314 1352.1351,708.1881 1356.6757,708.1881 1357.4324,707.4314 1357.4324,706.6746 1356.6757,705.1611 1355.9189,704.4043 1353.6486,702.8908"/>
    <polyline points="1371.054,702.1341 1371.8108,701.3773 1374.0811,701.3773 1377.1081,702.1341 1379.3784,702.8908 1380.8919,703.6476 1383.1621,705.1611 1384.6757,706.6746 1385.4324,708.1881 1385.4324,708.9449 1384.6757,709.7016 1382.4054,709.7016 1378.6216,708.9449 1376.3513,708.1881 1374.8378,707.4314 1372.5676,705.9179 1371.054,704.4043 1370.2973,702.8908 1369.5405,700.6206 1369.5405,696.8368 1370.2973,695.3233 1371.054,694.5665 1372.5676,693.8097 1374.8378,693.8097 1376.3513,694.5665 1377.1081,695.3233 1377.8648,696.8368 1377.8648,699.107 1377.1081,700.6206 1376.3513,701.3773"/>
    <polyline points="1381.6486,693.053 1379.3784,691.5395 1375.5946,689.2692 1374.0811,688.5124 1371.8108,687.7557 1370.2973,687.7557 1369.5405,688.5124 1370.2973,690.026 1371.8108,690.7827 1374.8378,691.5395 1380.1351,692.2962 1384.6757,692.2962 1385.4324,691.5395 1385.4324,690.7827 1384.6757,689.2692 1383.9189,688.5124 1381.6486,686.9989"/>
    <polyline points="1383.9189,686.2422 1383.1621,684.7287 1382.4054,683.9719 1380.8919,683.2152 1379.3784,683.2152 1378.6216,683.9719 1378.6216,684.7287 1379.3784,686.2422 1380.8919,686.9989 1383.1621,686.9989 1384.6757,686.2422 1385.4324,684.7287 1385.4324,683.2152 1384.6757,681.7016 1383.9189,680.9449 1381.6486,679.4314"/>
    <polyline points="1380.8919,672.6206 1379.3784,673.3773 1378.6216,674.8908 1378.6216,676.4043 1379.3784,677.9179 1380.1351,678.6746 1381.6486,679.4314 1383.1621,679.4314 1384.6757,678.6746 1385.4324,677.1611 1385.4324,675.6476 1384.6757,674.1341 1383.1621,673.3773 1378.6216,671.8638 1382.4054,672.6206 1384.6757,672.6206 1385.4324,671.8638 1385.4324,671.107 1384.6757,669.5935 1383.9189,668.8368 1381.6486,667.3233"/>
    <polyline points="1381.6486,667.3233 1379.3784,665.8097 1377.8648,665.053 1379.3784,665.053 1381.6486,663.5395 1383.1621,662.7827 1384.6757,662.7827 1385.4324,664.2962"/>
    <polyline points="1384.6757,667.3233 1385.4324,665.8097 1385.4324,662.7827 1384.6757,661.2692 1383.9189,660.5124 1381.6486,658.9989"/>
    <polyline points="1383.9189,658.2422 1383.1621,656.7287 1382.4054,655.9719 1380.8919,655.2152 1379.3784,655.2152 1378.6216,655.9719 1378.6216,656.7287 1379.3784,658.2422 1380.8919,658.9989 1383.1621,658.9989 1384.6757,658.2422 1385.4324,656.7287 1385.4324,655.2152 1384.6757,653.7016 1383.9189,652.9449 1381.6486,651.4314"/>
    <polyline points="1381.6486,639.3233 1379.3784,637.8097 1376.3513,636.2962"/>
    <line x1="1375.5946" x2="1375.5946" y1="638.5665" y2="633.2692"/>
    <polyline points="1381.6486,632.5124 1383.9189,634.026 1384.6757,634.7827 1385.4324,636.2962 1385.4324,637.8097 1384.6757,638.5665 1383.1621,638.5665 1369.5405,634.026"/>
    <polyline points="1380.8919,625.7016 1379.3784,626.4584 1378.6216,627.9719 1378.6216,629.4854 1379.3784,630.9989 1380.1351,631.7557 1381.6486,632.5124 1383.1621,632.5124 1384.6757,631.7557 1385.4324,630.2422 1385.4324,628.7287 1384.6757,627.2152 1383.1621,626.4584 1378.6216,624.9449 1382.4054,625.7016 1384.6757,625.7016 1385.4324,624.9449 1385.4324,624.1881 1384.6757,622.6746 1383.9189,621.9179 1381.6486,620.4043"/>
    <polyline points="1381.6486,620.4043 1379.3784,618.8908 1375.5946,616.6206 1374.0811,615.8638 1371.8108,615.107 1370.2973,615.107 1369.5405,615.8638 1370.2973,617.3773 1371.8108,618.1341 1374.8378,618.8908 1379.3784,619.6476 1385.4324,620.4043"/>
    <polyline points="1385.4324,620.4043 1383.1621,619.6476 1381.6486,618.8908 1379.3784,617.3773 1378.6216,615.8638 1378.6216,614.3503 1379.3784,613.5935 1380.8919,613.5935 1381.6486,615.107 1381.6486,617.3773"/>
    <polyline points="1381.6486,617.3773 1382.4054,615.8638 1384.6757,615.107 1385.4324,614.3503 1385.4324,613.5935 1384.6757,612.08 1383.9189,611.3233 1381.6486,609.8097"/>
    <polyline points="1383.9189,609.053 1383.1621,607.5395 1382.4054,606.7827 1380.8919,606.026 1379.3784,606.026 1378.6216,606.7827 1378.6216,607.5395 1379.3784,609.053 1380.8919,609.8097 1383.1621,609.8097 1384.6757,609.053 1385.4324,607.5395 1385.4324,606.026 1384.6757,604.5124 1383.9189,603.7557 1381.6486,602.2422"/>
    <line x1="1397.5405" x2="1408.1351" y1="622.6746" y2="622.6746"/>
    <polygon points="1411.9189,622.6746 1412.6757,623.4314 1413.4324,622.6746 1412.6757,621.9179"/>
    <polyline points="1409.6486,626.4584 1411.9189,627.9719 1412.6757,628.7287 1413.4324,630.2422 1413.4324,630.9989 1412.6757,631.7557 1411.9189,631.7557 1409.6486,630.9989 1408.1351,630.9989 1407.3784,631.7557 1407.3784,634.026 1405.8648,634.026 1407.3784,634.7827 1409.6486,636.2962"/>
    <polyline points="1409.6486,636.2962 1411.9189,637.8097 1412.6757,638.5665 1413.4324,640.08 1413.4324,640.8368 1412.6757,641.5935 1410.4054,641.5935 1406.6216,640.8368 1411.1621,642.3503 1412.6757,643.107 1413.4324,644.6206 1413.4324,646.1341 1412.6757,647.6476 1411.1621,648.4043 1409.6486,648.4043 1408.1351,647.6476 1407.3784,646.8908 1406.6216,645.3773 1406.6216,643.8638 1407.3784,642.3503 1408.8919,641.5935"/>
    <polyline points="1409.6486,648.4043 1411.9189,649.9179 1412.6757,650.6746 1413.4324,652.1881 1413.4324,653.7016 1412.6757,655.2152 1411.1621,655.9719 1408.8919,655.9719 1407.3784,655.2152 1406.6216,653.7016 1406.6216,652.9449 1407.3784,652.1881 1408.8919,652.1881 1410.4054,652.9449 1411.1621,653.7016 1411.9189,655.2152"/>
    <polyline points="1409.6486,655.9719 1411.9189,658.2422 1413.4324,660.5124 1414.1892,662.026 1415.7027,664.2962 1417.973,666.5665 1420.2432,667.3233 1421.7567,667.3233 1422.5135,666.5665 1421.7567,665.053 1420.2432,664.2962 1406.6216,659.7557"/>
    <polyline points="1408.8919,660.5124 1411.1621,662.026 1412.6757,663.5395 1413.4324,665.053 1413.4324,666.5665 1412.6757,667.3233 1411.1621,667.3233 1406.6216,665.8097 1409.6486,667.3233"/>
    <polyline points="1409.6486,679.4314 1410.4054,680.9449 1410.4054,682.4584 1409.6486,683.2152 1406.6216,683.9719"/>
    <polyline points="1406.6216,683.9719 1408.8919,683.9719 1411.1621,684.7287 1412.6757,686.2422 1413.4324,687.7557 1413.4324,689.2692 1412.6757,690.026 1411.1621,690.026 1406.6216,688.5124"/>
    <polyline points="1406.6216,693.053 1408.1351,694.5665 1410.4054,695.3233 1411.9189,695.3233 1413.4324,694.5665 1413.4324,693.053 1412.6757,691.5395 1411.1621,690.026"/>
    <polyline points="1409.6486,695.3233 1411.9189,696.8368 1412.6757,697.5935 1413.4324,699.107 1413.4324,700.6206 1412.6757,702.1341 1411.1621,702.8908 1408.8919,702.8908 1407.3784,702.1341 1406.6216,700.6206 1406.6216,699.8638 1407.3784,699.107 1408.8919,699.107 1410.4054,699.8638 1411.1621,700.6206 1411.9189,702.1341"/>
    <polyline points="1409.6486,702.8908 1411.9189,704.4043 1412.6757,705.1611 1413.4324,706.6746 1413.4324,707.4314 1412.6757,708.1881 1411.1621,708.1881 1408.8919,707.4314 1407.3784,707.4314 1406.6216,708.1881 1406.6216,709.7016 1407.3784,711.2152 1409.6486,712.7287 1411.1621,713.4854"/>
    <polyline points="1413.4324,714.2422 1411.1621,713.4854 1408.1351,712.7287 1407.3784,712.7287 1406.6216,713.4854 1407.3784,714.9989 1409.6486,716.5124"/>
    <polyline points="1356.6757,678.6746 1357.4324,677.1611 1357.4324,674.1341 1356.6757,672.6206 1355.9189,671.8638 1353.6486,670.3503"/>
    <polyline points="1357.4324,675.6476 1356.6757,674.1341 1355.1621,674.1341 1353.6486,674.8908 1351.3784,676.4043 1349.8648,676.4043 1351.3784,677.1611 1353.6486,678.6746"/>
    <polyline points="1353.6486,678.6746 1355.9189,680.1881 1356.6757,680.9449 1357.4324,682.4584 1357.4324,683.2152 1356.6757,683.9719 1354.4054,683.9719 1350.6216,683.2152 1355.1621,684.7287 1356.6757,685.4854 1357.4324,686.9989 1357.4324,688.5124 1356.6757,690.026 1355.1621,690.7827 1353.6486,690.7827 1352.1351,690.026 1351.3784,689.2692 1350.6216,687.7557 1350.6216,686.2422 1351.3784,684.7287 1352.8919,683.9719"/>
    <polyline points="1353.6486,658.2422 1350.6216,656.7287 1355.1621,658.2422 1356.6757,658.2422 1357.4324,657.4854 1357.4324,655.9719 1356.6757,654.4584 1355.1621,652.9449 1352.8919,651.4314"/>
    <polyline points="1350.6216,650.6746 1364.2432,655.2152 1365.7567,655.9719 1366.5135,657.4854 1365.7567,658.2422 1364.2432,658.2422 1361.973,657.4854 1359.7027,655.2152 1358.1892,652.9449 1357.4324,651.4314 1355.9189,649.1611 1353.6486,646.8908"/>
    <polyline points="1350.6216,642.3503 1350.6216,643.8638 1351.3784,645.3773 1352.1351,646.1341 1353.6486,646.8908 1355.1621,646.8908 1356.6757,646.1341 1357.4324,644.6206 1357.4324,643.107 1356.6757,641.5935 1355.9189,640.8368 1354.4054,640.08 1352.8919,640.08 1351.3784,640.8368 1350.6216,642.3503 1351.3784,643.107 1352.8919,643.107 1354.4054,642.3503 1355.1621,640.8368 1355.1621,638.5665 1354.4054,637.053 1353.6486,636.2962"/>
    <polyline points="1353.6486,636.2962 1350.6216,634.7827 1355.1621,636.2962 1356.6757,636.2962 1357.4324,635.5395 1357.4324,634.026 1356.6757,632.5124 1355.1621,630.9989 1352.8919,629.4854"/>
    <polyline points="1350.6216,628.7287 1355.1621,630.2422 1356.6757,630.2422 1357.4324,629.4854 1357.4324,628.7287 1356.6757,627.2152 1355.9189,626.4584 1353.6486,624.9449"/>
    <polygon points="1346.8378,811.107 1347.5946,811.107 1347.5946,810.3503 1346.8378,810.3503"/>
    <polygon points="1374.8378,935.2152 1375.5946,935.2152 1375.5946,934.4584 1374.8378,934.4584"/>
    <polyline points="1313.3513,1006.3503 1314.1081,1005.5935 1314.8648,1004.08 1314.8648,1001.8097 1314.1081,1000.2962 1313.3513,999.5395 1311.8378,998.7827 1309.5676,998.7827 1308.054,999.5395 1307.2973,1000.2962 1306.5405,1001.8097 1306.5405,1005.5935 1307.2973,1007.8638 1308.054,1009.3773 1309.5676,1010.8908 1311.8378,1012.4043 1313.3513,1013.1611 1315.6216,1013.9179 1319.4054,1014.6746 1321.6757,1014.6746 1322.4324,1013.9179 1322.4324,1013.1611 1321.6757,1011.6476 1320.1621,1010.1341 1317.8919,1008.6206 1316.3784,1007.8638 1314.1081,1007.107 1311.0811,1006.3503 1308.8108,1006.3503 1308.054,1007.107"/>
    <polyline points="1523.054,1007.107 1523.8108,1006.3503 1526.0811,1006.3503 1529.1081,1007.107 1531.3784,1007.8638 1532.8919,1008.6206 1535.1621,1010.1341 1536.6757,1011.6476 1537.4324,1013.1611 1537.4324,1013.9179 1536.6757,1014.6746 1534.4054,1014.6746 1530.6216,1013.9179 1528.3513,1013.1611 1526.8378,1012.4043 1524.5676,1010.8908 1523.054,1009.3773 1522.2973,1007.8638 1521.5405,1005.5935 1521.5405,1003.3233 1522.2973,1001.8097 1523.8108,1001.053 1525.3243,1001.053 1526.8378,1001.8097 1527.5946,1002.5665 1528.3513,1004.08 1529.1081,1006.3503"/>
    <polyline points="1529.1081,1007.107 1529.1081,1006.3503 1529.8648,1004.08 1530.6216,1003.3233 1532.1351,1002.5665 1534.4054,1002.5665 1535.9189,1003.3233 1536.6757,1004.08 1537.4324,1005.5935 1537.4324,1007.8638 1536.6757,1009.3773 1535.1621,1010.1341"/>
    <polyline points="1535.9189,998.7827 1535.1621,997.2692 1534.4054,996.5124 1532.8919,995.7557 1531.3784,995.7557 1530.6216,996.5124 1530.6216,997.2692 1531.3784,998.7827 1532.8919,999.5395 1535.1621,999.5395 1536.6757,998.7827 1537.4324,997.2692 1537.4324,995.7557 1536.6757,994.2422 1535.9189,993.4854 1533.6486,991.9719"/>
    <polyline points="1533.6486,991.9719 1531.3784,990.4584 1529.8648,989.7016 1531.3784,989.7016 1533.6486,988.1881 1535.1621,987.4314 1536.6757,987.4314 1537.4324,988.9449"/>
    <polyline points="1536.6757,991.9719 1537.4324,990.4584 1537.4324,987.4314 1536.6757,985.9179 1535.9189,985.1611 1533.6486,983.6476"/>
    <polyline points="1533.6486,983.6476 1531.3784,982.1341 1528.3513,980.6206"/>
    <line x1="1527.5946" x2="1527.5946" y1="982.8908" y2="977.5935"/>
    <polyline points="1533.6486,976.8368 1535.9189,978.3503 1536.6757,979.107 1537.4324,980.6206 1537.4324,982.1341 1536.6757,982.8908 1535.1621,982.8908 1521.5405,978.3503"/>
    <polyline points="1534.4054,973.053 1535.1621,973.8097 1534.4054,974.5665 1533.6486,973.8097 1534.4054,973.053 1535.9189,973.053 1537.4324,974.5665"/>
    <polygon points="1551.8378,982.8908 1552.5946,982.8908 1552.5946,982.1341 1551.8378,982.1341"/>
    <polyline points="1558.6486,985.1611 1555.6216,983.6476 1560.1621,985.1611 1561.6757,985.1611 1562.4324,984.4043 1562.4324,983.6476 1561.6757,982.1341 1560.9189,981.3773 1558.6486,979.8638"/>
    <polyline points="1558.6486,979.8638 1556.3784,978.3503 1555.6216,976.8368 1556.3784,976.08 1557.1351,976.08 1560.1621,976.8368 1562.4324,977.5935"/>
    <polyline points="1560.1621,976.8368 1558.6486,976.08 1556.3784,974.5665 1555.6216,973.053 1555.6216,971.5395 1556.3784,970.7827 1557.8919,970.7827 1560.1621,971.5395 1561.6757,971.5395 1562.4324,970.7827 1562.4324,970.026 1561.6757,968.5124 1560.9189,967.7557 1558.6486,966.2422"/>
    <polyline points="1558.6486,985.1611 1560.9189,986.6746 1561.6757,987.4314 1562.4324,988.9449 1562.4324,989.7016 1561.6757,990.4584 1557.1351,990.4584 1551.8378,989.7016 1548.8108,988.9449 1547.2973,988.1881 1546.5405,986.6746 1547.2973,985.9179 1548.8108,985.9179 1551.0811,986.6746 1552.5946,987.4314 1556.3784,989.7016 1558.6486,991.2152"/>
    <polyline points="1558.6486,991.2152 1559.4054,991.9719 1560.1621,993.4854 1560.1621,995.7557 1559.4054,997.2692 1557.8919,998.026 1556.3784,998.026 1555.6216,997.2692 1556.3784,995.7557 1557.8919,994.9989 1559.4054,994.9989 1560.9189,995.7557 1561.6757,996.5124 1562.4324,998.026 1562.4324,999.5395 1561.6757,1001.053 1560.1621,1001.8097 1558.6486,1001.8097 1557.1351,1001.053 1556.3784,1000.2962 1555.6216,998.7827 1555.6216,997.2692"/>
    <polyline points="1558.6486,1005.5935 1560.1621,1006.3503 1561.6757,1007.8638 1562.4324,1010.1341 1562.4324,1011.6476 1561.6757,1013.1611 1560.9189,1013.9179 1558.6486,1014.6746 1555.6216,1014.6746 1552.5946,1013.9179 1551.0811,1013.1611 1548.8108,1011.6476 1547.2973,1010.1341 1546.5405,1007.8638 1546.5405,1005.5935 1547.2973,1004.08 1548.8108,1003.3233 1550.3243,1003.3233 1551.8378,1004.08 1552.5946,1005.5935 1552.5946,1007.107 1551.8378,1007.8638 1551.0811,1007.8638"/>
    <polyline points="1557.8919,947.3233 1556.3784,948.08 1555.6216,949.5935 1555.6216,951.107 1556.3784,952.6206 1557.1351,953.3773 1558.6486,954.1341 1560.1621,954.1341 1561.6757,953.3773 1562.4324,951.8638 1562.4324,950.3503 1561.6757,948.8368 1560.1621,948.08 1555.6216,946.5665 1559.4054,947.3233 1561.6757,947.3233 1562.4324,946.5665 1562.4324,945.8097 1561.6757,944.2962 1560.9189,943.5395 1558.6486,942.026"/>
    <polyline points="1558.6486,942.026 1556.3784,940.5124 1555.6216,938.9989 1556.3784,938.2422 1557.1351,938.2422 1560.1621,938.9989 1562.4324,939.7557"/>
    <polyline points="1560.1621,938.9989 1558.6486,938.2422 1556.3784,936.7287 1555.6216,935.2152 1555.6216,933.7016 1556.3784,932.9449 1557.8919,932.9449 1560.1621,933.7016 1561.6757,933.7016 1562.4324,932.9449 1562.4324,932.1881 1561.6757,930.6746 1560.9189,929.9179 1558.6486,928.4043"/>
    <polyline points="1557.8919,921.5935 1556.3784,922.3503 1555.6216,923.8638 1555.6216,925.3773 1556.3784,926.8908 1557.1351,927.6476 1558.6486,928.4043 1560.1621,928.4043 1561.6757,927.6476 1562.4324,926.1341 1562.4324,924.6206 1561.6757,923.107 1560.1621,922.3503 1546.5405,917.8097"/>
    <polyline points="1555.6216,920.8368 1559.4054,921.5935 1561.6757,921.5935 1562.4324,920.8368 1562.4324,920.08 1561.6757,918.5665 1560.9189,917.8097 1558.6486,916.2962"/>
    <polyline points="1558.6486,899.6476 1557.8919,901.1611 1557.8919,902.6746 1558.6486,903.4314 1560.1621,903.4314 1561.6757,902.6746 1562.4324,901.1611 1562.4324,899.6476 1561.6757,898.1341 1560.1621,896.6206 1558.6486,895.8638 1554.8648,894.3503 1551.0811,893.5935 1548.8108,893.5935 1547.2973,894.3503 1546.5405,895.107 1546.5405,896.6206 1547.2973,897.3773 1548.8108,898.1341 1551.0811,898.1341 1553.3513,897.3773 1554.8648,896.6206 1557.1351,895.107 1558.6486,893.5935"/>
    <polyline points="1557.8919,884.5124 1556.3784,885.2692 1555.6216,886.7827 1555.6216,888.2962 1556.3784,889.8097 1557.1351,890.5665 1558.6486,891.3233 1560.1621,891.3233 1561.6757,890.5665 1562.4324,889.053 1562.4324,887.5395 1561.6757,886.026 1560.1621,885.2692 1555.6216,883.7557 1559.4054,884.5124 1561.6757,884.5124 1562.4324,883.7557 1562.4324,882.9989 1561.6757,881.4854 1560.9189,880.7287 1558.6486,879.2152"/>
    <polyline points="1558.6486,879.2152 1556.3784,877.7016 1555.6216,876.1881 1556.3784,875.4314 1557.1351,875.4314 1560.1621,876.1881 1562.4324,876.9449"/>
    <polyline points="1560.1621,876.1881 1558.6486,875.4314 1556.3784,873.9179 1555.6216,872.4043 1555.6216,870.8908 1556.3784,870.1341 1557.8919,870.1341 1560.1621,870.8908 1561.6757,870.8908 1562.4324,870.1341 1562.4324,869.3773 1561.6757,867.8638 1560.9189,867.107 1558.6486,865.5935"/>
  </g>
  <g fill="none" id="layer2" inkscape:groupmode="layer" inkscape:label="2" stroke="#080" style="display:inline">
    <polyline points="953.4747,848.9915 953.1581,848.7765 952.8431,848.5596 952.5295,848.3408 952.2175,848.1202 951.9069,847.8977 951.5979,847.6733 951.2904,847.4471 950.9843,847.219 950.6798,846.9892 950.3767,846.7575 950.0751,846.524 949.7751,846.2886 949.4765,846.0515 949.1794,845.8126 948.8838,845.5719 948.5897,845.3295 948.297,845.0852 948.0058,844.8392 947.7162,844.5915 947.428,844.342 947.1412,844.0908 946.856,843.8379 946.5722,843.5833 946.2899,843.3269 946.0091,843.0689 945.7297,842.8091 945.4518,842.5477 945.1754,842.2846 944.9004,842.0199 944.6269,841.7534 944.3549,841.4854 944.0843,841.2157 943.8152,840.9443 943.5475,840.6714 943.2813,840.3968 943.0165,840.1206 942.7532,839.8428 942.4914,839.5634 942.231,839.2824 941.972,838.9999 941.7145,838.7157 941.4584,838.4301 941.2038,838.1428 940.9506,837.8541 940.6989,837.5638 940.4486,837.2719 940.1997,836.9786 939.9523,836.6837 939.7063,836.3874 939.4617,836.0895 939.2186,835.7902 938.9769,835.4893 938.7366,835.187 938.4977,834.8833 938.2603,834.5781 938.0243,834.2714 937.7897,833.9633 937.5565,833.6538 937.3248,833.3429 937.0945,833.0305 936.8656,832.7168 936.6381,832.4017 936.412,832.0851 936.1873,831.7672 935.964,831.4479 935.7422,831.1273 935.5217,830.8053 935.3027,830.4819 935.085,830.1572 934.8688,829.8312 934.654,829.5039 934.4405,829.1752 934.2285,828.8453 934.0178,828.514 933.8086,828.1815 933.6007,827.8476 933.3942,827.5125 933.1891,827.1762 932.9854,826.8386 932.7831,826.4997 932.5822,826.1596 932.3827,825.8183 932.1845,825.4757 931.9877,825.1319 931.7923,824.7869 931.5983,824.4408 931.4056,824.0934 931.2144,823.7448 931.0245,823.3951 930.8359,823.0442 930.6488,822.6921 930.463,822.3389 930.2785,821.9846 930.0955,821.6291 929.9138,821.2725 929.7334,820.9148 929.5544,820.556 929.3768,820.196 929.2006,819.835 929.0256,819.4729 928.8521,819.1097 928.6799,818.7455 928.509,818.3802 928.3395,818.0138 928.1714,817.6464 928.0046,817.278 927.8391,816.9085 927.675,816.538 927.5122,816.1666 927.3508,815.7941 927.1907,815.4206 927.0319,815.0461 926.8745,814.6706 926.7184,814.2942 926.5636,813.9168 926.4102,813.5385 926.2581,813.1592 926.1073,812.779 925.9579,812.3979 925.8097,812.0158 925.6629,811.6328 925.5175,811.249 925.3733,810.8642 925.2305,810.4785 925.089,810.092 924.9487,809.7046 924.8099,809.3163 924.6723,808.9272 924.536,808.5372 924.4011,808.1464 924.2674,807.7547 924.1351,807.3623 924.004,806.969 923.8743,806.5749 923.7458,806.18 923.6187,805.7844 923.4929,805.3879 923.3683,804.9907 923.2451,804.5927 923.1231,804.194 923.0025,803.7945 922.8831,803.3942 922.765,802.9933 922.6483,802.5916 922.5328,802.1892 922.4185,801.7861 922.3056,801.3823 922.1939,800.9778 922.0836,800.5726 921.9745,800.1668 921.8667,799.7602 921.7601,799.3531 921.6549,798.9453 921.5509,798.5368 921.4481,798.1277 921.3467,797.718 921.2465,797.3076 921.1476,796.8967 921.0499,796.4851 920.9535,796.073 920.8584,795.6603 920.7645,795.247 920.6719,794.8331 920.5806,794.4187 920.4905,794.0037 920.4016,793.5882 920.314,793.1721 920.2277,792.7555 920.1426,792.3384 920.0588,791.9208 919.9762,791.5027 919.8948,791.0841 919.8147,790.665 919.7359,790.2454 919.6582,789.8254 919.5818,789.4049 919.5067,788.984 919.4328,788.5626 919.3601,788.1407 919.2887,787.7185 919.2184,787.2958 919.1495,786.8727 919.0817,786.4492 919.0152,786.0253 918.9499,785.601 918.8858,785.1764 918.8229,784.7514 918.7613,784.326 918.7008,783.9002 918.6416,783.4741 918.5836,783.0477 918.5269,782.621 918.4713,782.1939 918.417,781.7665 918.3638,781.3388 918.3119,780.9108 918.2612,780.4825 918.2116,780.054 918.1633,779.6251 918.1162,779.196 918.0703,778.7667 918.0256,778.3371 917.982,777.9072 917.9397,777.4772 917.8986,777.0469 917.8586,776.6164 917.8199,776.1856 917.7823,775.7547 917.746,775.3236 917.7108,774.8923 917.6768,774.4609 917.644,774.0292 917.6123,773.5975 917.5819,773.1655 917.5526,772.7334 917.5245,772.3012 917.4976,771.8689 917.4718,771.4365 917.4473,771.0039 917.4239,770.5712 917.4016,770.1385 917.3806,769.7057 917.3607,769.2728 917.3419,768.8398 917.3244,768.4068 917.308,767.9737 917.2927,767.5405 917.2786,767.1074 917.2657,766.6742 917.2539,766.241 917.2433,765.8078 917.2338,765.3745 917.2255,764.9413 917.2183,764.5081 917.2123,764.075 917.2074,763.6418 917.2037,763.2087 917.2011,762.7757 917.1997,762.3427 917.1994,761.9097 917.2002,761.4769 917.2022,761.0441 917.2053,760.6114 917.2095,760.1788 917.2149,759.7463 917.2214,759.3139 917.2291,758.8817 917.2378,758.4495 917.2477,758.0175 917.2587,757.5857 917.2709,757.154 917.2841,756.7225 917.2985,756.2911 917.314,755.8599 917.3306,755.429 917.3484,754.9982 917.3672,754.5676 917.3872,754.1372 917.4083,753.707 917.4304,753.2771 917.4537,752.8474 917.4781,752.4179 917.5036,751.9887 917.5302,751.5598 917.558,751.1311 917.5868,750.7027 917.6167,750.2746 917.6477,749.8468 917.6798,749.4193 917.713,748.9921 917.7473,748.5652 917.7826,748.1386 917.8191,747.7124 917.8567,747.2865 917.8953,746.861 917.935,746.4358 917.9759,746.011 918.0177,745.5866 918.0607,745.1626 918.1048,744.7389 918.1499,744.3156 918.1961,743.8928 918.2434,743.4704 918.2918,743.0484 918.3412,742.6268 918.3917,742.2057 918.4432,741.785 918.4959,741.3648 918.5496,740.945 918.6043,740.5257 918.6601,740.1069 918.717,739.6886 918.775,739.2708 918.834,738.8535 918.894,738.4367 918.9551,738.0205 919.0173,737.6047 919.0805,737.1895 919.1448,736.7749 919.2101,736.3608 919.2764,735.9473 919.3438,735.5343 919.4123,735.1219 919.4818,734.7101 919.5523,734.299 919.6239,733.8884 919.6965,733.4784 919.7701,733.069 919.8448,732.6603 919.9205,732.2522 919.9973,731.8448 920.075,731.438 920.1538,731.0319 920.2336,730.6265 920.3145,730.2217 920.3964,729.8176 920.4793,729.4142 920.5632,729.0115 920.6481,728.6096 920.7341,728.2083 920.821,727.8078 920.909,727.408 920.998,727.009 921.088,726.6107 921.1791,726.2132 921.2711,725.8164 921.3641,725.4204 921.4582,725.0252 921.5532,724.6308 921.6492,724.2372 921.7463,723.8444 921.8443,723.4525 921.9434,723.0613 922.0434,722.671 922.1444,722.2815 922.2465,721.8929 922.3495,721.5052 922.4535,721.1183 922.5585,720.7323 922.6645,720.3471 922.7714,719.9629 922.8794,719.5796 922.9883,719.1971 923.0982,718.8156 923.2091,718.435 923.321,718.0554 923.4338,717.6767 923.5477,717.2989 923.6624,716.9221 923.7782,716.5463 923.8949,716.1714 924.0126,715.7975 924.1313,715.4246 924.251,715.0527 924.3716,714.6818 924.4931,714.312 924.6156,713.9431 924.7391,713.5753 924.8636,713.2085 924.989,712.8428 925.1153,712.4781 925.2426,712.1145 925.3709,711.752 925.5001,711.3905 925.6302,711.0302 925.7613,710.6709 925.8934,710.3127 926.0263,709.9557 926.1603,709.5998 926.2951,709.245 926.431,708.8913 926.5677,708.5388 926.7054,708.1874 926.844,707.8372 926.9836,707.4882 927.124,707.1404 927.2655,706.7937 927.4078,706.4483 927.5511,706.104 927.6953,705.7609 927.8404,705.4191 927.9864,705.0785 928.1334,704.7392 928.2813,704.401 928.4301,704.0642 928.5798,703.7286 928.7304,703.3942 928.8819,703.0612 929.0344,702.7294 929.1877,702.3989 929.342,702.0698 929.4972,701.7419 929.6533,701.4154 929.8103,701.0901 929.9682,700.7663 930.1269,700.4437 930.2866,700.1225 930.4472,699.8027 930.6087,699.4842 930.7711,699.1671 930.9344,698.8514 931.0985,698.5371 931.2636,698.2242 931.4295,697.9127 931.5963,697.6026 931.7641,697.294 931.9327,696.9868 932.1021,696.681 932.2725,696.3766 932.4437,696.0738 932.6159,695.7724 932.7888,695.4724 932.9627,695.174 933.1375,694.877 933.3131,694.5816 933.4896,694.2876 933.6669,693.9952 933.8451,693.7042 934.0242,693.4149 934.2042,693.127 934.385,692.8407 934.5666,692.556 934.7492,692.2728 934.9326,691.9912 935.1168,691.7112 935.3019,691.4327 935.4878,691.1559 935.6747,690.8807 935.8623,690.6071 936.0508,690.3351 936.2402,690.0647 936.4304,689.796 936.6214,689.5289 936.8133,689.2635 937.006,688.9997 937.1996,688.7376 937.394,688.4772 937.5892,688.2185 937.7853,687.9615 937.9822,687.7061 938.1799,687.4525 938.3785,687.2006 938.5779,686.9505 938.7781,686.702 938.9791,686.4554 939.181,686.2104 939.3837,685.9673 939.5872,685.7259 939.7915,685.4863 939.9967,685.2484 940.2026,685.0124 940.4094,684.7781 940.617,684.5457 940.8254,684.3151 941.0346,684.0863 941.2447,683.8594 941.4555,683.6343 941.6671,683.411 941.8796,683.1896 942.0928,682.9701 942.3069,682.7525 942.5217,682.5367 942.7374,682.3228 942.9538,682.1109 943.171,681.9008 943.3891,681.6927 943.6079,681.4865 943.8275,681.2822 944.0479,681.0798 944.2691,680.8794 944.491,680.681 944.7138,680.4845 944.9373,680.29 945.1616,680.0975 945.3867,679.907 945.6126,679.7185 945.8393,679.532 946.0667,679.3475 946.2949,679.165 946.5239,678.9846 946.7536,678.8062 946.9841,678.6298 947.2154,678.4555 947.4474,678.2833 947.6802,678.1131 947.9138,677.9451 948.1481,677.7791 948.3832,677.6152 948.6191,677.4534 948.8557,677.2937 949.093,677.1362 949.3311,676.9808 949.57,676.8275 949.8096,676.6763 950.05,676.5274 950.2911,676.3805 950.5329,676.2359 950.7755,676.0934 951.0189,675.9532 951.263,675.8151 951.5078,675.6792 951.7533,675.5455 951.9996,675.4141 952.2467,675.2849 952.4944,675.1579 952.7429,675.0332 952.9922,674.9107 953.2421,674.7905 953.4928,674.6725 953.7442,674.5569 953.9963,674.4435 954.2492,674.3324 954.5028,674.2236 954.7571,674.1171 955.0121,674.013 955.2678,673.9111 955.5242,673.8116 955.7814,673.7145 956.0393,673.6197 956.2979,673.5273 956.5571,673.4372 956.8171,673.3495 957.0778,673.2642 957.3392,673.1813 957.6014,673.1007 957.8642,673.0226 958.1277,672.947 958.3919,672.8737 958.6568,672.8029 958.9224,672.7345 959.1887,672.6685 959.4557,672.605 959.7233,672.544 959.9917,672.4855 960.2607,672.4294 960.5305,672.3759 960.8009,672.3248 961.072,672.2763 961.3438,672.2302 961.6162,672.1867 961.8894,672.1457 962.1632,672.1073 962.4377,672.0714 962.7129,672.038 962.9887,672.0072 963.2652,671.979 963.5424,671.9534 963.8202,671.9304 964.0987,671.91 964.3779,671.8921 964.6577,671.8769"/>
  </g>
</svg>
