<?xml version="1.0" encoding="utf-8" ?>
<svg xmlns="http://www.w3.org/2000/svg" xmlns:cc="http://creativecommons.org/ns#" xmlns:dc="http://purl.org/dc/elements/1.1/" xmlns:ev="http://www.w3.org/2001/xml-events" xmlns:inkscape="http://www.inkscape.org/namespaces/inkscape" xmlns:rdf="http://www.w3.org/1999/02/22-rdf-syntax-ns#" xmlns:sodipodi="http://sodipodi.sourceforge.net/DTD/sodipodi-0.dtd" xmlns:xlink="http://www.w3.org/1999/xlink" baseProfile="tiny" height="27.94cm" version="1.2" viewBox="0 0 1632.0 1056.0" width="43.18cm">
  <metadata>
    <rdf:RDF>
      <cc:Work>
        <dc:format>image/svg+xml</dc:format>
        <dc:source>vpype read /Users/cj/Documents/Projects/greeting-cards-2021/inside/person-maps/p3.svg pagesize 5.5inx8.5in ldelete 2 splitall linemerge --tolerance 1.2mm linesimplify --tolerance 0.2mm rotate 270 layout -l -h right -v top 11inx17in ldelete 3 linesort write /Users/cj/Documents/Projects/greeting-cards-2021/inside/11x17/individual/insides-map-onecard-11x17-2.svg
</dc:source>
        <dc:date>2022-02-09T18:48:11.679760</dc:date>
      </cc:Work>
    </rdf:RDF>
  </metadata>
  <defs/>
  <g fill="none" id="layer1" inkscape:groupmode="layer" inkscape:label="1" stroke="#00f" style="display:inline">
    <polyline points="998.3239,196.0063 997.3077,188.0222 995.664,188.0914 993.0757,185.806 984.7516,173.5544 982.685,173.7818 984.3935,185.6971 983.0601,182.8675 975.7079,176.6213 974.0574,179.5168 969.5526,181.2185 967.9805,183.0225 968.9968,187.7286 966.0027,192.8798 966.0811,194.8817 968.5944,194.6937 969.4128,197.9091 975.7488,201.0981 974.3234,202.8262 976.8946,204.2608 976.1239,205.6162 977.7915,207.2784 976.7991,209.2043 977.3107,211.9679 980.4207,212.6605 981.8393,214.9492 983.5035,214.5831 983.3227,218.4318 987.2444,218.3922 988.8744,220.5919 984.3935,185.6971 988.8744,220.592 1000.6667,224.4142 998.3239,196.0062 1018.7813,189.0642 1020.2681,189.9513 1026.8599,189.5325 1030.6315,187.3592 1029.721,170.1707 1030.993,169.4913 1027.4874,169.145 1027.3782,165.6658 1016.6807,163.2715 1016.2885,165.0458 1013.4922,166.1176 1016.2885,165.0458 1016.6807,163.2715 1011.6132,157.3485 1005.8432,152.7546 1000.0085,151.32 989.9623,139.418 983.4728,136.8094 976.1171,139.296 982.685,173.7817 984.7516,173.5543 986.7124,175.4506 987.9162,179.1013 995.664,188.0913 997.3077,188.0221 996.2983,180.4106 994.1669,176.7334 993.3281,171.1172 993.2564,167.5324 995.2787,166.2429 994.1294,159.4691 1000.0085,151.32 994.1294,159.4691 995.2787,166.2429 993.2019,168.2183 994.1669,176.7334 996.2983,180.4106 998.6308,181.7759 999.971,178.8144 998.6308,181.7759 996.2983,180.4106 999.838,211.6052 1035.7194,210.2563 1036.0502,204.3894 1033.3733,203.8123 1031.0271,205.4118 1028.6707,188.586 1022.7711,190.0206 1018.7813,189.0642 998.3239,196.0062"/>
    <polyline points="999.971,178.8144 1003.4732,176.3971 1009.7854,168.5151 1002.2251,177.3271"/>
    <polyline points="1009.7854,168.5151 1013.4922,166.1176 1012.8511,167.4203"/>
    <polygon points="1027.3782,165.6658 1027.4874,169.145 1030.993,169.4913 1029.721,170.1707 1030.6315,187.3592 1028.6707,188.586 1031.6273,205.4612 1033.3733,203.8123 1036.0502,204.3894 1034.311,197.1176 1037.0971,190.5779 1039.0886,188.8235 1034.8771,181.8649 1037.3017,177.7591 1041.3257,172.8584 1045.4383,170.7214 1050.3421,171.1864 1053.9909,170.0453 1065.3057,161.3027 1066.6732,158.4203 1069.9197,156.7912 1070.2811,153.246 1068.3885,150.5879 1061.3739,150.3208 1054.482,151.7949 1047.0649,156.0426 1044.047,156.5472 1032.8617,163.9443"/>
    <polyline points="1016.5749,229.1927 1021.9561,227.5504 1030.0416,231.5309 1031.9717,231.178 1031.5181,219.3354 1034.1303,219.7806 1037.9633,217.8909 1041.2643,218.4285 1045.7964,216.0474 1046.7205,225.1561 1043.9992,234.7595 1043.116,245.5436 1042.0964,246.1108 1039.8764,244.5081 1037.8098,245.0192 1032.207,243.5451 1025.5709,246.9913 1017.2672,247.5553 1016.5749,229.1927 1011.1937,229.7468 1000.6667,224.4141 999.838,211.6052 1035.7194,210.2563 1037.803,214.1214 1037.9633,217.8909 1034.1303,219.7806 1031.5181,219.3354 1031.9717,231.178 1030.0416,231.5309 1021.9561,227.5504 1016.5749,229.1927"/>
    <polygon points="1012.4794,250.2925 1010.1946,254.7711 1011.6234,261.812 1011.6439,264.823 1010.3412,265.7596 1011.4495,266.749 1009.6899,270.182 1010.4265,272.075 1008.5407,272.8533 1007.5483,279.6766 1005.908,280.544 1006.3616,282.1962 1004.7895,284.6267 989.8293,283.9902 988.6971,302.0857 1023.4907,304.6844 1021.8265,327.8454 1026.1676,325.2367 1032.8072,318.7004 1041.5235,315.6828 1047.0104,307.1644 1041.1654,302.5507 1041.3871,297.1586 1044.7801,292.6801 1055.0242,287.5091 1059.6756,283.7033 1069.0194,280.6099 1073.4764,270.4294 1073.282,267.7251 1066.7755,269.2883 1061.3398,269.1432 1057.8239,267.5371 1054.1103,263.8237 1050.7342,257.1587 1044.8688,251.1566 1043.116,245.5436 1042.0964,246.1108 1039.8764,244.5081 1037.8098,245.0192 1032.207,243.5451 1025.5709,246.9914 1012.8545,247.2816"/>
    <polyline points="986.443,251.5688 985.3245,296.0538 962.1049,294.6094 963.2814,255.9352 964.2771,253.8114 966.8381,254.4314 969.8936,251.7073 1012.4794,250.2925 1010.1946,254.7711 1011.6234,261.812 1011.6439,264.823 1010.3412,265.7596 1011.4495,266.7489 1009.6899,270.182 1010.4265,272.075 1008.5407,272.8533 1007.5483,279.6766 1005.908,280.5439 1006.3616,282.1962 1004.7895,284.6267 989.8293,283.9902 988.6971,302.0857 984.8709,301.8086 986.443,251.5688"/>
    <polyline points="992.6767,221.3339 988.8744,220.5919 987.2444,218.3922 985.2529,218.4647 984.3867,220.2423 979.5409,221.5713 975.6738,226.66 971.6873,225.6442 970.5177,226.8314 970.8041,228.5892 968.0794,229.3246 965.5457,232.4411 961.7229,234.1 959.7758,233.6943 957.9718,235.6533 958.7902,258.6691 963.2814,255.9352 964.2771,253.8114 966.8381,254.4314 969.8936,251.7073 989.9963,251.5523 989.478,224.2723 990.3987,223.7084 992.9461,225.2913 992.6767,221.3339 992.9461,225.2913 990.3987,223.7084 989.478,224.2723 989.9963,251.5523 998.1568,250.2167 1012.4794,250.2925 1012.8545,247.2816 1017.2672,247.5553 1016.5749,229.1927 1011.1937,229.7468 999.8994,223.7578 997.6555,223.9722 992.6767,221.3339"/>
    <polygon points="941.8589,214.4248 943.0047,230.126 945.9409,227.2503 948.0381,227.4218 950.4354,228.6947 951.455,231.8607 954.5583,231.2605 958.3606,233.6482 961.723,234.1 965.5457,232.4411 968.0794,229.3246 970.8041,228.5892 970.5177,226.8314 971.6874,225.6442 975.6738,226.66 979.5409,221.5713 984.3867,220.2423 985.2529,218.4647 983.3227,218.4318 984.206,215.3153 981.8393,214.9492 980.4207,212.6605 976.4615,212.6803 970.6916,210.2069 947.796,212.3439"/>
    <polyline points="946.3228,197.144 945.1838,189.6809 934.3498,185.2519 927.0692,187.7154 926.5986,189.8096 930.5509,193.7703 928.6515,194.298 925.1527,191.7553 918.1346,192.6523 915.6725,196.9395 914.7108,201.5829 922.6019,203.5452 920.0682,204.3301 922.1688,206.2494 928.8629,208.3139 941.8419,205.5734 947.0287,208.4623 945.7226,197.2198 966.0811,194.8816 966.0027,192.8798 968.9968,187.7285 967.9805,183.0225 969.5526,181.2185 969.1332,179.8037 964.4579,178.7946 964.9728,177.3171 962.7835,177.2281 958.4765,172.8156 950.5957,172.0175 940.3755,173.7027 946.2341,183.1973 945.1838,189.6809 947.796,212.3439 970.6916,210.2069 978.037,212.7363 976.7991,209.2043 977.7915,207.2784 976.1239,205.6162 976.8946,204.2608 974.3234,202.8262 975.7488,201.0981 969.4128,197.9091 968.5944,194.6937 946.3262,197.144"/>
    <polygon points="956.5191,164.9271 957.6103,170.8502 950.5957,172.0176 951.114,172.7333 958.4765,172.8157 962.7835,177.2282 964.9728,177.3173 964.4579,178.7947 967.9533,179.2036 969.5526,181.2187 974.0574,179.517 978.0131,174.4052 974.1563,166.764 965.4229,164.3631 965.7912,161.7578 959.7621,158.1169 957.6512,158.051 959.104,154.7432 957.5455,154.3838 955.7347,155.9239 955.496,157.7938 960.3896,164.2906"/>
    <polyline points="960.7442,149.681 959.2847,149.9646 958.9369,152.8832 958.0332,152.6293 955.496,157.7937 960.3896,164.2905 956.5191,164.927 951.0253,142.0266 957.6103,170.85 940.3755,173.7027 937.3985,169.9266 939.465,169.5638 934.3839,145.6212 937.6849,142.7191 938.2953,140.658 943.5776,142.4817 947.1787,139.1014 952.0109,142.6862 961.2864,137.2414 965.457,140.5261 962.5311,144.2395 956.9215,145.6971 966.313,144.6056 963.8474,149.0873 964.1305,150.8055 963.844,149.0873 968.2533,144.0053 976.1137,139.2927 981.2664,163.6838 984.3935,185.6971 983.0567,182.8642 975.7011,176.6213 978.0063,174.4018 974.1426,166.7574 965.4229,164.363 965.7912,161.7577 959.7587,158.1201 957.6478,158.0542 959.1005,154.7464 957.6274,153.4999 959.7485,150.3537 961.3785,149.6612 964.1305,150.8055 960.7442,149.681"/>
    <polyline points="964.3999,138.8705 971.0121,141.4066 965.4536,140.5261 964.3999,138.8705 960.6828,137.7163 961.5899,141.5352 952.0757,144.0548 961.5899,141.5352 960.6828,137.7163 954.9607,138.61 953.4261,142.2179 952.0109,142.6862 947.1787,139.1014 943.5776,142.4817 938.2953,140.658 940.2084,135.7475 944.3483,136.7764 944.3244,135.3088 949.9819,134.9824 956.7919,137.746"/>
    <polygon points="929.221,126.2265 934.4794,125.1481 932.0377,121.5105 930.3327,123.0506 932.0377,121.5105 931.4205,118.8689 929.1221,115.5645 926.868,115.736 925.7051,117.8136 928.2491,116.4846 928.7333,118.7667 925.3095,121.6326 921.3401,122.6681 923.1134,124.6765 925.9234,135.5826 931.4034,135.4705 928.4912,123.9774 930.3327,123.0506 928.4912,123.9774 931.4034,135.4705 937.7497,133.7852 939.6594,134.3821 934.4794,125.1481"/>
    <polygon points="925.9234,135.5826 924.8594,131.137 918.7723,132.2021 912.3715,131.7998 910.5266,129.9563 906.356,130.6193 908.975,140.127 925.9234,135.5826 908.975,140.127 911.0279,147.9924 919.4236,154.3575 923.3521,152.5338 926.7554,156.0163 927.6591,164.8117 929.1732,167.4401 931.9593,166.0582 937.3985,169.9266 939.465,169.5639 934.3839,145.6213 937.6849,142.7192 940.2084,135.7475 942.8035,135.5298 941.8725,132.011 937.5349,124.881 936.5698,126.8696 939.6594,134.3821 937.7497,133.7852"/>
    <polygon points="919.3998,122.2328 917.8482,124.5775 903.6347,128.9638 904.3611,130.6028 910.5266,129.9564 912.3715,131.7999 918.7723,132.2022 924.8594,131.137 923.1134,124.6765 921.3401,122.6681 915.2155,120.8708 908.917,116.2571 901.5443,107.5343 898.424,108.6028 895.3447,113.2165 885.2064,116.3561 883.7741,119.2021 886.1032,122.1174 884.6505,124.3336 891.4742,126.4772 901.7114,127.2127 903.6347,128.9638 917.8482,124.5776"/>
    <polygon points="908.6544,200.2737 909.3467,202.1172 907.3108,203.4561 910.8199,212.8815 907.4916,219.8136 903.2323,218.5109 911.2802,230.7098 912.7364,229.0015 914.8506,218.7055 921.5857,215.0415 916.3409,212.3999 913.2445,204.9863 913.565,200.6068 912.2521,196.1019 909.5206,199.0798 908.6647,198.5192"/>
    <polyline points="935.4785,233.7701 941.2178,232.573 943.0047,230.126 941.8794,214.4413 936.2424,215.4604 926.2644,214.0785 920.0272,211.8723 925.5073,216.1232 924.6582,216.9279 921.5891,215.0415 914.854,218.7088 912.7398,229.0014 911.3655,229.5093 908.8284,233.9911 911.2154,240.4582 915.5872,240.2307 918.7518,243.4593 920.1705,242.2984 925.9677,242.6711 932.1162,234.2747 935.4786,233.7702 932.1162,234.2748 925.9677,242.6711 920.1705,242.2985 918.7519,243.4593 915.5872,240.2307 911.2155,240.4583 909.5752,239.1391 902.772,232.3158 899.8392,227.28 898.216,233.6449 899.4607,237.6947 897.2442,242.7041 895.7607,251.4204 894.4547,253.0067 890.1443,253.9499 890.2056,255.6351 893.2304,255.6186 893.1997,265.9838 915.1815,262.6563 919.6487,264.2458 921.4697,262.808 936.1777,262.3067 935.4786,233.7702 936.1776,263.0322 939.1035,262.3562 942.4557,263.2367 948.1881,260.7666 958.7902,258.6691 957.9718,235.6533 959.7758,233.6943 954.5582,231.2605 951.455,231.8607 950.4354,228.6947 945.9408,227.2503 941.2178,232.573 935.4786,233.7702"/>
    <polyline points="944.0312,262.3561 942.4557,263.2367 928.9209,262.1978 921.4697,262.8079 919.6487,264.2458 916.6001,262.6661 915.1576,302.0032 938.0464,304.1072 939.864,274.1131 941.552,270.6998 941.2178,266.9336 944.0312,262.3561 941.2178,266.9336 941.552,270.6998 939.864,274.1131 938.0464,304.1072 953.4534,305.3868 954.3605,294.0982 962.1049,294.6094 963.2814,255.9352 959.4279,258.5537 944.0312,262.3562"/>
    <polygon points="893.1997,265.9838 891.3412,300.2949 915.1576,302.0032 916.6001,262.6662"/>
    <polygon points="921.2617,311.7352 918.8951,329.4976"/>
    <polygon points="921.4288,340.6345 919.4305,342.0196 920.8184,343.0288 919.8158,347.1907 920.8047,350.3171 916.375,352.586 909.4558,353.8425 910.7721,356.372 909.8207,357.147 901.9501,354.357 900.1564,356.9656 893.6942,360.1678 889.984,360.7482 881.844,359.4027 880.7118,364.2044 901.1112,368.673 907.5155,367.1923 915.2019,372.9537 918.2506,372.1754 933.8315,376.2911 940.6313,343.5465"/>
    <polygon points="940.6313,343.5465 948.0619,344.7733"/>
    <polyline points="980.7072,337.828 1024.1625,343.8928 1022.1641,356.5533 1008.4043,378.8008 1005.8808,376.1196 1002.0034,377.043 997.144,374.3124 995.9743,372.1523 990.143,373.8771 982.2008,373.013 981.3551,372.4161 982.8726,369.3788 975.4896,367.3077 980.7072,337.828 950.0671,333.5935 954.3605,294.0982 985.3245,296.0538 982.0132,328.5247 975.4896,367.3077 937.5758,359.9567 940.6313,343.5465 917.2718,339.8859 918.8951,329.4976 917.2718,339.8859 921.4288,340.6345 919.4305,342.0196 920.8184,343.0288 919.8158,347.1907 920.8047,350.3171 916.375,352.586 909.4558,353.8425 910.7721,356.372 909.8207,357.147 901.9501,354.357 900.1564,356.9656 893.6942,360.1678 889.984,360.7482 881.844,359.4027 887.5969,330.0022 891.3412,300.2949 922.2438,302.887 921.2617,311.7352 922.2438,302.887 953.4534,305.3868 948.0619,344.7733 950.0671,333.5935 980.7072,337.828 984.8709,301.8086 1023.4907,304.6844 1021.1582,327.8387 1023.1463,327.2682 1021.7174,338.26 1024.8888,338.758 1024.1625,343.8928 980.7072,337.828"/>
    <polyline points="929.6779,392.3979 933.8519,376.2977 918.2506,372.1754 915.2019,372.9537 906.298,367.2121 903.7234,368.8181 901.0942,379.3647 900.8214,390.5907 899.3346,393.008 899.0617,397.6646 898.4138,398.7529 894.2398,399.1025 891.5151,404.0229 910.6391,411.3244 918.0221,415.3874 922.7281,414.9719 929.6779,392.3979 952.0654,398.2583 989.4371,373.8639 982.2008,373.013 981.3551,372.4161 982.8726,369.3788 981.6006,368.4521 937.5758,359.9567 929.6779,392.3979 922.7281,414.9719 934.8238,419.8329 939.8128,418.1576 946.0738,419.2294 956.8805,414.962 958.5345,415.6611 970.3131,413.811 979.4761,410.1735 983.7729,410.5494 985.4165,409.3457 987.316,404.7518 997.4884,394.9637 1005.0078,393.1597 1007.255,377.109 1005.8808,376.1196 1002.0034,377.043 997.144,374.3124 995.9743,372.1523 989.4371,373.8639 952.0654,398.2583 929.6779,392.3979"/>
    <polygon points="880.7118,364.2044 872.6366,392.9091 885.9566,393.4401 887.5594,395.2341 881.0051,395.6793 877.4415,402.0343 891.5151,404.0229 894.2398,399.1025 898.4138,398.7529 899.0617,397.6646 899.3345,393.008 900.8214,390.5907 901.0942,379.3647 903.7234,368.8181"/>
  </g>
</svg>
