<?xml version="1.0" encoding="utf-8" ?>
<svg xmlns="http://www.w3.org/2000/svg" xmlns:cc="http://creativecommons.org/ns#" xmlns:dc="http://purl.org/dc/elements/1.1/" xmlns:ev="http://www.w3.org/2001/xml-events" xmlns:inkscape="http://www.inkscape.org/namespaces/inkscape" xmlns:rdf="http://www.w3.org/1999/02/22-rdf-syntax-ns#" xmlns:sodipodi="http://sodipodi.sourceforge.net/DTD/sodipodi-0.dtd" xmlns:xlink="http://www.w3.org/1999/xlink" baseProfile="tiny" height="27.94cm" version="1.2" viewBox="0 0 1632.0 1056.0" width="43.18cm">
  <metadata>
    <rdf:RDF>
      <cc:Work>
        <dc:format>image/svg+xml</dc:format>
        <dc:source>vpype read /Users/cj/Documents/Projects/greeting-cards-2021/inside/person-maps/p2.svg pagesize 5.5inx8.5in ldelete 2 splitall linemerge --tolerance 1.2mm linesimplify --tolerance 0.2mm rotate 270 layout -l -h left -v bottom 11inx17in ldelete 3 linesort write /Users/cj/Documents/Projects/greeting-cards-2021/inside/11x17/individual/insides-map-onecard-11x17-1.svg
</dc:source>
        <dc:date>2022-02-09T18:39:07.340783</dc:date>
      </cc:Work>
    </rdf:RDF>
  </metadata>
  <defs/>
  <g fill="none" id="layer1" inkscape:groupmode="layer" inkscape:label="1" stroke="#00f" style="display:inline">
    <polyline points="137.3351,814.8391 136.5509,815.0482 137.6273,819.3057 137.6273,868.3411 152.5099,866.8976 166.8206,862.6225 178.44,856.6855 187.455,850.1011 196.5969,840.8743 204.0024,830.2443 209.4536,818.5239 212.4471,807.871 213.89,795.0582 212.7898,784.8313 208.8013,775.5669 202.0775,766.9806 194.1512,760.2843 183.0706,753.8289 159.7719,746.2905 145.1046,744.4152 130.15,744.4152 105.011,748.887 92.1841,753.8289 81.1034,760.2843 73.1772,766.9806 66.4534,775.5669 62.8075,783.6481 61.3417,793.2145 62.1674,783.5207 64.6266,774.0368 68.666,764.9679 75.2574,755.1736 82.3777,747.6598 92.1841,740.1504 101.6666,734.9501 113.6979,730.4837 132.0154,727.3282 148.8208,727.8643 165.0821,731.5761 181.5532,739.2005 194.1512,748.8478 204.9052,762.0715 211.6268,777.1619 213.9129,793.2145 212.0594,787.4979 206.5887,782.0591 196.5969,776.6624 186.0224,773.0457 170.2436,769.6283 152.5099,767.6246 119.0914,767.9052 89.2323,773.0457 76.3542,777.672 67.1486,783.2298 62.4648,788.7539 61.4336,794.4947 63.6279,799.5541 70.3494,805.5138 83.6853,811.6638 105.011,816.8007 130.15,819.1801 156.1632,818.5238 180.0093,814.9085 196.5969,809.7666 209.4536,802.0044 212.7898,797.6751 213.9129,793.2145 212.4471,779.2293 208.106,765.7817 212.4471,779.2293 213.9129,793.2144 212.246,777.354 207.3178,762.1865 201.6059,751.6665 191.5696,739.2726 182.4671,731.4983 168.6557,723.5242 153.4882,718.596 137.6275,716.9289 121.7669,718.5959 106.5994,723.524 96.0794,729.2359 83.6854,739.2723 75.9111,748.3748 67.9371,762.1861 63.0088,777.3536 61.3417,793.2143 62.8076,779.2293 61.7091,795.7719 64.6266,800.7884 74.1982,807.7099 83.6853,811.6637 101.6666,816.2248 122.7448,818.8042 137.6273,819.3056 166.8205,817.3195 191.5694,811.6637 201.0565,807.7099 208.106,803.1991 212.4471,798.3046 213.9129,793.2145 212.4471,798.3046 208.106,803.1992 201.0565,807.71 191.5694,811.6638 166.8205,817.3197 137.6273,819.3058 108.4341,817.3197 83.6853,811.6638 74.1982,807.71 67.1487,803.1992 62.8076,798.3046 61.3417,793.2145 137.6273,793.2145 137.6273,819.3057"/>
    <line x1="148.9742" x2="148.9742" y1="819.9752" y2="819.9752"/>
    <line x1="156.4935" x2="156.4935" y1="816.113" y2="816.113"/>
    <polyline points="159.8039,819.3638 158.8702,818.2748 161.2987,821.1753 161.3032,819.5948 160.4043,820.1574"/>
    <line x1="165.1762" x2="165.1762" y1="811.8205" y2="811.8205"/>
    <line x1="162.5682" x2="162.5682" y1="805.4897" y2="805.4897"/>
    <line x1="156.4855" x2="155.3909" y1="807.0913" y2="809.0613"/>
    <line x1="149.0093" x2="149.0093" y1="809.514" y2="809.514"/>
    <polyline points="137.6273,793.2145 137.812,716.9292 136.834,716.933 143.2108,717.1335 121.2202,718.7476 141.2876,717.0168 161.6378,720.8079 137.8936,717.1971 144.2635,718.1695 135.6899,717.8634 137.7689,717.2533 137.6273,718.0878 120.9131,719.9133 110.1725,723.1219 98.4087,728.7762 87.7996,736.3279 78.6578,745.5546 72.195,754.5917 64.1051,773.1773 61.3417,793.2145 62.1674,800.4095 64.6266,807.4487 73.1772,819.4483 89.2323,831.1194 98.4087,835.2736 111.9275,839.3835 133.8842,842.1909 159.7719,840.1385 180.0093,833.986 191.5694,827.8878 198.9005,822.4249 205.7675,815.2614 210.0627,808.596 212.7898,801.5977 213.9129,793.2145 138.1335,793.2748 135.248,789.7824"/>
    <polygon points="112.7759,787.6577 112.1321,786.7035 111.1912,788.013"/>
    <line x1="115.667" x2="115.667" y1="805.3021" y2="805.3021"/>
    <line x1="101.5944" x2="101.5944" y1="813.3084" y2="813.3084"/>
    <line x1="112.4353" x2="112.4353" y1="832.7907" y2="832.7907"/>
    <line x1="128.1476" x2="128.1476" y1="829.7942" y2="829.7942"/>
    <line x1="138.315" x2="138.315" y1="834.8074" y2="834.8074"/>
    <polyline points="148.948,841.8286 148.2982,842.826 149.9778,840.3249 148.6579,840.9743 149.9778,840.3249 150.26,841.9523 151.3817,839.7042"/>
    <line x1="157.1485" x2="158.7771" y1="833.6532" y2="832.6903"/>
    <polygon points="164.0263,835.0789 166.6679,831.8671"/>
    <line x1="174.6317" x2="174.6317" y1="828.625" y2="828.625"/>
    <polyline points="187.9551,819.1386 188.4153,817.9142 193.0102,819.6935 192.6853,822.18 187.1894,819.8659 187.294,817.5364 181.312,821.3444 184.22,817.6785 184.2696,815.3032 187.8893,816.5716 187.9653,817.769"/>
    <polyline points="203.6926,831.3573 203.6926,755.0717 196.5969,747.7379 204.9052,759.4223 198.4261,747.1384 199.9709,749.2529 185.8671,734.2115 173.8846,726.1103 161.4881,720.7565 174.9537,726.6845 182.5332,731.5479 191.346,739.0631 199.2523,748.261 191.0409,738.7613 180.7227,730.2678 190.0392,737.7844 197.7481,746.2571 188.5695,736.5384 189.9899,737.8581 186.6628,737.481 186.6628,734.7763 186.6628,851.6527"/>
    <line x1="182.1846" x2="182.1846" y1="848.0905" y2="848.0905"/>
    <polygon points="187.4606,840.5032 190.2475,837.3979 187.622,838.4375"/>
    <polyline points="163.7128,863.9985 171.1865,861.5877 181.3697,855.3095 178.3873,855.2256 177.4816,853.8826 181.3168,849.5888 179.3993,849.6523 181.6442,848.7867 180.4728,848.8971 184.6233,844.9223 185.5335,841.2831 184.0973,839.6046 171.0261,843.2401 162.5626,851.1828 151.8007,856.4635 160.8241,856.1287 157.3718,859.7055 153.4331,859.9803 152.8435,862.1854 157.2856,862.7135 156.23,864.2914 163.2991,863.7599 163.7186,864.8995 163.7186,721.5295"/>
    <polygon points="152.203,718.3343 143.1789,717.1386"/>
    <polyline points="137.5939,722.1264 138.8794,721.9603 130.15,721.8746 115.4828,724.6162 95.2454,733.6105 108.4341,726.9861 122.7448,722.9069 137.6273,721.5294 152.5099,722.9069 166.8205,726.9861 180.0093,733.6105 196.5969,747.7379 186.0224,737.8012 173.5881,729.9939 159.7719,724.6162 137.6273,721.5294 137.6273,718.0878 150.6693,719.1939 163.3272,722.4794 175.2284,727.8478 186.0224,735.1408 197.7668,746.9942 207.3684,762.7701 212.7898,780.3707 213.5426,795.7824 212.7017,790.4401 212.0045,792.6859 210.558,771.2108 211.8529,775.6062 213.8006,789.075 213.5103,801.0421 211.3516,812.8164 207.209,824.4399 209.6742,806.6616 212.5622,802.3088 213.913,793.215 212.754,793.2145 212.4593,778.3933 212.6788,779.5481 210.9538,779.7664 211.0823,780.7839 210.8676,779.6572 210.8949,781.0268"/>
    <polyline points="210.6179,771.1003 208.7449,765.6147 210.4499,770.5101 210.2348,773.4259 209.1875,766.8829 204.9052,759.4223 208.106,765.7817"/>
    <line x1="212.6117" x2="212.754" y1="793.1372" y2="806.4613"/>
    <line x1="165.2754" x2="165.2754" y1="792.8926" y2="792.8926"/>
    <line x1="160.8083" x2="160.8083" y1="779.7474" y2="779.7474"/>
    <line x1="169.1381" x2="169.1381" y1="756.6979" y2="756.6979"/>
    <polygon points="179.491,729.442 176.2023,727.4006"/>
    <line x1="175.1288" x2="175.1288" y1="726.7831" y2="726.7831"/>
    <polyline points="121.1303,718.734 128.5661,717.4689 121.5351,718.6455 125.5983,717.9159 121.9466,718.5777 124.6567,718.1431 125.1031,719.8749 128.0397,718.8855 125.383,718.6659 125.9825,719.2985 122.8303,721.1421 126.9174,719.5846 119.1789,722.1148 120.5918,722.3626 123.3582,720.5549 117.892,721.4604 119.3734,721.9388 118.6352,723.5097 119.5129,723.622 120.2325,722.5462 116.7158,723.2921 120.4938,722.2552 117.5748,721.6062 114.2865,725.4063 118.4687,724.8648 119.5129,723.622 109.7658,725.2384 110.2771,726.4464 113.2643,725.8506 113.8324,727.285 109.5404,730.3804 104.2318,732.1823 99.7421,736.7224 100.6422,737.4222 97.4622,741.0484 97.9679,744.0644 96.3975,747.6121 96.6016,749.4574 101.3134,744.9949 102.1243,745.4649 107.9601,739.3162 97.4301,747.2405 108.2773,736.0987 112.402,734.196 116.6425,728.3101 116.236,726.516 118.4687,724.8648 114.2866,725.4063 113.1445,724.5776 114.2646,721.193 112.6268,721.172 114.0043,720.7132 112.6268,721.172 112.4493,722.6005 111.4364,721.7631 107.5869,724.6509 108.9583,724.7194 108.2139,724.3409 112.6268,721.172 111.6436,721.5004 114.5022,720.54 111.5361,721.5295 111.5361,864.8995 113.431,865.5611 100.1332,859.65 90.202,852.9667 83.625,847.0666 76.2678,837.2687 81.2118,841.1525 81.1902,839.8249 89.7589,851.3887 87.6787,849.781 93.8588,854.8885 110.2423,864.4149 113.5446,863.9375 121.0288,865.4418 118.0747,865.8131 108.8088,863.7171 108.6108,862.5664 105.0557,860.7896 108.6108,862.5664"/>
    <line x1="117.7226" x2="120.1306" y1="853.0304" y2="854.2296"/>
    <polyline points="127.5461,861.9919 125.2716,865.5745 130.098,866.3823 127.2639,866.7068 127.8503,867.2047 122.5846,865.4775 124.3371,865.7648 122.2319,866.2695 126.4313,868.0606 123.1325,867.0774 122.8819,865.4315 121.0258,865.3665 122.8987,865.2976 119.8455,866.1078 121.4818,866.3427"/>
    <polygon points="131.1114,868.929 132.2739,869.066"/>
    <polyline points="146.0595,858.2205 149.8518,857.6687 149.9918,856.5981 147.6734,855.5285 150.9658,852.5887 151.7083,850.2406 147.4238,853.483 146.0183,853.1247 141.101,858.5544 146.0595,858.2205 148.7783,859.6631 147.4402,859.5278 145.2208,862.3736 148.2437,863.5853 147.6792,865.6797 151.0689,865.9385 148.8497,865.5179 150.369,866.2857 150.0665,867.5139 151.2596,867.0298 148.7749,866.8627 148.7282,868.0987 149.6913,867.9688 146.2263,869.0076 149.2582,868.3671 146.2263,869.0076 139.8377,865.6728 139.8738,867.0777 142.7143,866.1252 141.3412,865.0714 142.7597,864.3642 141.6057,864.628 140.1024,861.6306 138.5939,861.8361 138.7665,864.3019 140.612,863.7367 140.4255,862.9002 143.0745,863.2727 142.1044,862.9709 144.8931,860.2264 148.4356,859.3541 149.7171,857.7938 141.101,858.5544 139.602,860.6688 142.0625,862.2148 138.6182,862.9127 135.9605,865.9839 138.5673,865.7418 135.173,865.8788 136.48,869.4885 128.7577,868.3696 133.829,869.3708 145.195,868.0347 137.4054,868.3112 135.6273,866.7942 137.3132,868.843 131.8584,868.6983 135.8843,869.4802 143.1741,869.043 137.6273,869.5001 137.6273,868.3411 126.4339,867.528 115.4828,865.1062 103.3285,860.3194 90.694,852.4403 77.4879,839.4348 68.666,825.3353 63.1953,809.6748 61.3417,793.2145 62.8075,806.1032 67.1486,818.4966 74.1982,829.9184 83.6853,839.9297 95.2453,848.1458 108.4341,854.2508 122.7448,858.0103 137.6273,859.2798 152.5099,858.0103 166.8206,854.2508 180.0093,848.1458 191.5694,839.9297 201.0565,829.9184 208.106,818.4966 212.4471,806.1032 213.9129,793.2145 212.2459,809.0754 205.5982,827.8476 194.3184,844.2597 179.1753,857.1931 161.2007,865.7665 141.6196,869.3956 121.7665,867.833 102.9942,861.1854 86.5821,849.9056 73.6487,834.7624 65.0753,816.7878 61.4463,797.2069 63.006,777.4496 63.5512,775.3038 62.2808,782.4236 63.9662,777.4033 63.8483,780.1366 63.7694,778.3954 62.8076,779.2293 64.6266,772.4053 70.3495,759.4223 62.8076,779.2293 63.9826,773.5895 63.2778,777.8183 63.901,775.8819 63.4144,777.9793 65.4445,778.4339 64.1705,781.3203 66.3972,770.0194 66.6527,772.804 64.7411,778.016 66.2301,777.2735 67.2702,766.5484 65.1152,771.7743 67.1691,764.5357 72.3041,757.423 78.1973,746.0891 69.9166,758.3659 75.2108,749.3547 82.0214,741.0021 86.9047,737.5722 80.6668,745.0583 80.06,763.1249 78.2158,767.6507 72.441,775.7321 71.3631,780.9106 66.1026,784.5789 66.2108,778.1824 64.7063,774.9259 63.195,776.5014 69.8036,758.294 64.3995,772.8474 69.3796,759.7616 68.0482,763.0377 71.5621,762.9538 71.5621,755.0717 69.7139,759.4115 83.6853,742.5255 95.2454,733.6105 83.6853,742.5255 70.3495,759.4223 71.5621,762.9538 71.5621,831.3573 64.2905,814.2192 65.6104,816.679 64.7846,812.4175 66.229,809.9254 66.4165,802.5717 68.8049,805.8436 70.0719,805.8442 71.6722,816.0642 78.3681,826.1321 73.8708,822.3213 69.8407,813.656 72.7842,827.7733 75.1811,832.8413 76.2738,833.4895 75.6948,831.9009 77.3673,833.106 86.2835,845.9975 80.6502,839.3495 81.2118,841.1525 76.2678,837.2687 79.9053,843.0906 70.7744,829.9592"/>
    <polygon points="75.6042,830.564 82.6697,837.9797"/>
    <polyline points="83.3871,835.1373 87.0027,842.6384 83.2078,838.5823 84.6922,838.3215"/>
    <polygon points="79.875,843.0558 85.9503,849.3302 78.9551,841.8326"/>
    <polyline points="95.3532,852.2633 98.134,854.3128 91.9923,847.8275 94.5367,851.9817 94.1279,850.1308 95.4541,850.3899 93.581,846.9271 88.7508,842.8975 87.206,842.1659 91.9619,847.4952 90.3424,850.4101 94.4256,853.5047 92.8444,851.4073 89.3217,850.1347 90.5259,851.2605 85.6024,845.6768 89.3217,850.1347 88.5919,851.6527 88.5919,734.7763 105.1989,725.3734 98.9176,730.1083 99.048,731.4611 100.4319,730.6683 100.2123,732.9084 104.3408,732.2515 99.7421,736.7224 100.6422,737.4222 97.4622,741.0484 97.9679,744.0644 96.6015,749.4574 94.3312,753.3858 88.3354,759.2594 80.6031,763.8843 80.6668,745.0583 86.9047,737.5722 82.0936,740.9126 88.8711,734.699 87.928,735.4298"/>
    <polygon points="82.0936,740.9125 81.4174,741.6399 83.6779,739.2987"/>
    <line x1="76.9061" x2="74.4694" y1="747.844" y2="750.9768"/>
    <polygon points="78.6448,767.0051 80.64,763.1158"/>
    <polyline points="74.7665,772.2471 74.1323,774.3914 76.491,771.8017 73.7358,774.2617 72.8659,777.1461 73.2808,775.9524"/>
    <polyline points="63.1896,781.5278 63.1429,780.6274 62.8335,781.6831"/>
    <polyline points="65.5507,792.9155 66.6865,796.3319 67.7113,793.338 68.1235,797.6387 68.7277,793.7472 70.3946,797.0317 71.2047,796.7151 72.638,791.4884 75.1726,795.4042 72.8213,789.1803 70.7129,787.2393 72.1088,787.5997 70.9032,784.8171 71.7448,780.198 75.118,771.4926 71.7,777.2836 71.3631,780.9106 66.1026,784.5789 65.5507,792.9155 62.5007,793.2145 62.5007,806.4613 63.9603,808.2494 64.0988,813.5246"/>
    <line x1="66.1353" x2="66.1353" y1="806.8423" y2="806.8423"/>
    <polyline points="65.2515,801.0143 65.5734,802.2498 65.2515,801.0143 66.775,801.6732 67.8283,798.6615 68.8896,800.6622 68.4513,804.2134 66.4165,802.5718 66.775,801.6732 71.5563,797.9535 71.3538,796.9863 71.5563,797.9535 75.3403,795.7944 75.229,796.6804"/>
    <polygon points="73.0581,788.1919 73.4068,789.4155"/>
    <polygon points="72.5114,816.7785 72.3164,816.0413"/>
    <line x1="128.577" x2="128.577" y1="843.5888" y2="843.5888"/>
    <polyline points="143.953,848.8452 142.9418,849.233 143.953,848.8452 145.9672,850.9364 145.2902,852.6957 143.401,849.3816 146.7429,846.0937 144.999,847.1461"/>
    <polyline points="155.829,859.389 152.4314,862.953 153.392,862.9189"/>
    <polyline points="109.5799,723.9702 109.3405,722.3969 103.602,725.4767 104.3009,725.1385"/>
  </g>
</svg>
