<?xml version="1.0" encoding="utf-8" ?>
<svg xmlns="http://www.w3.org/2000/svg" xmlns:cc="http://creativecommons.org/ns#" xmlns:dc="http://purl.org/dc/elements/1.1/" xmlns:ev="http://www.w3.org/2001/xml-events" xmlns:inkscape="http://www.inkscape.org/namespaces/inkscape" xmlns:rdf="http://www.w3.org/1999/02/22-rdf-syntax-ns#" xmlns:sodipodi="http://sodipodi.sourceforge.net/DTD/sodipodi-0.dtd" xmlns:xlink="http://www.w3.org/1999/xlink" baseProfile="tiny" height="27.94cm" version="1.2" viewBox="0 0 1632.0 1056.0" width="43.18cm">
  <metadata>
    <rdf:RDF>
      <cc:Work>
        <dc:format>image/svg+xml</dc:format>
        <dc:source>vpype read /Users/cj/Documents/Projects/greeting-cards-2021/inside/person-maps/p2.svg pagesize 5.5inx8.5in ldelete 1 text --font scripts --position 75 330 --align center --size 26 --wrap 375 'This card travelled at least 2679 mi to get to you' text --font cursive --position 40 500 --align left --size 28 --wrap 430 'Person 2,' text --font cursive --position 40 535 --align left --size 28 --wrap 430 'We hope you are doing as well as you can during these crazy times. Please take care and have a very happy new year! ' text --font cursive --position 40 715 --align left --size 28 --wrap 430 Best, text --font cursive --position 40 740 --align left --size 28 --wrap 430 'Colin and Ian' rotate 270 layout -l -h left -v bottom 11inx17in ldelete 3 linesort write /Users/cj/Documents/Projects/greeting-cards-2021/inside/11x17/individual/insides-arctext-onecard-11x17-1.svg
</dc:source>
        <dc:date>2022-02-09T18:48:17.990268</dc:date>
      </cc:Work>
    </rdf:RDF>
  </metadata>
  <defs/>
  <g fill="none" id="layer1" inkscape:groupmode="layer" inkscape:label="1" stroke="#00f" style="display:inline">
    <polyline points="325.7838,963.5541 325.7838,964.9595 325.0811,966.3649 323.6757,967.0676 322.2702,966.3649 321.5675,964.2568 321.5675,962.1487 322.2702,959.3378 322.2702,957.2297 321.5675,955.8243"/>
    <polyline points="322.2702,959.3378 327.1892,960.7433 331.4054,962.1487 334.2162,963.5541 335.6216,964.9595 336.3243,966.3649 336.3243,967.7703 335.6216,969.1757 334.2162,969.8784 332.8108,969.8784 332.1081,969.1757 332.1081,967.7703 332.8108,966.3649"/>
    <polyline points="332.8108,957.2297 330.7027,955.8243 327.1892,953.7162 325.7838,953.0135 323.6757,952.3108 322.2702,952.3108 321.5675,953.0135 322.2702,954.4189 323.6757,955.1216 326.4865,955.8243 330.7027,956.527 336.3243,957.2297"/>
    <polyline points="336.3243,957.2297 334.2162,956.527 332.8108,955.8243 330.7027,954.4189 330.0,953.0135 330.0,951.6081 330.7027,950.9054 332.1081,950.9054 334.2162,951.6081 335.6216,951.6081 336.3243,950.9054 336.3243,950.2027 335.6216,948.7973 334.9189,948.0946 332.8108,946.6892"/>
    <polyline points="332.8108,946.6892 330.0,945.2838 334.2162,946.6892 335.6216,946.6892 336.3243,945.9865 336.3243,945.2838 335.6216,943.8784 334.9189,943.1757 332.8108,941.7703"/>
    <polyline points="332.8108,941.7703 330.7027,940.3649 329.2973,939.6622 330.7027,939.6622 332.8108,938.2568 334.2162,937.5541 335.6216,937.5541 336.3243,938.9595"/>
    <polyline points="335.6216,941.7703 336.3243,940.3649 336.3243,937.5541 335.6216,936.1487 334.9189,935.446 332.8108,934.0406"/>
    <polygon points="326.4865,944.5811 327.1892,944.5811 327.1892,943.8784 326.4865,943.8784"/>
    <polyline points="331.4054,917.8784 330.7027,917.8784 330.0,918.5811 330.0,919.9865 330.7027,921.3919 331.4054,922.0946 332.8108,922.7973 334.2162,922.7973 335.6216,922.0946 336.3243,920.6892 336.3243,918.5811 334.9189,916.473 332.8108,915.0676"/>
    <polyline points="332.1081,908.7433 330.7027,909.446 330.0,910.8514 330.0,912.2568 330.7027,913.6622 331.4054,914.3649 332.8108,915.0676 334.2162,915.0676 335.6216,914.3649 336.3243,912.9595 336.3243,911.5541 335.6216,910.1487 334.2162,909.446 330.0,908.0406 333.5135,908.7433 335.6216,908.7433 336.3243,908.0406 336.3243,907.3378 335.6216,905.9324 334.9189,905.2297 332.8108,903.8243"/>
    <polyline points="332.8108,903.8243 330.7027,902.4189 329.2973,901.7162 330.7027,901.7162 330.7027,899.6081 331.4054,898.9054 332.8108,898.9054 334.9189,899.6081 335.6216,899.6081 336.3243,898.9054 336.3243,898.2027 335.6216,896.7973 334.9189,896.0946 332.8108,894.6892"/>
    <polyline points="332.1081,888.3649 330.7027,889.0676 330.0,890.473 330.0,891.8784 330.7027,893.2838 331.4054,893.9865 332.8108,894.6892 334.2162,894.6892 335.6216,893.9865 336.3243,892.5811 336.3243,891.1757 335.6216,889.7703 334.2162,889.0676 321.5675,884.8514"/>
    <polyline points="330.0,887.6622 333.5135,888.3649 335.6216,888.3649 336.3243,887.6622 336.3243,886.9595 335.6216,885.5541 334.9189,884.8514 332.8108,883.446"/>
    <polyline points="332.8108,872.2027 330.7027,870.7973 327.8919,869.3919"/>
    <line x1="327.1892" x2="327.1892" y1="871.5" y2="866.5811"/>
    <polyline points="321.5675,867.2838 334.2162,871.5 335.6216,871.5 336.3243,870.7973 336.3243,869.3919 335.6216,867.9865 334.9189,867.2838 332.8108,865.8784"/>
    <polyline points="332.8108,865.8784 330.7027,864.473 329.2973,863.7703 330.7027,863.7703 330.7027,861.6622 331.4054,860.9595 332.8108,860.9595 334.9189,861.6622 335.6216,861.6622 336.3243,860.9595 336.3243,860.2568 335.6216,858.8514 334.9189,858.1487 332.8108,856.7433"/>
    <polyline points="332.1081,850.4189 330.7027,851.1216 330.0,852.527 330.0,853.9324 330.7027,855.3378 331.4054,856.0406 332.8108,856.7433 334.2162,856.7433 335.6216,856.0406 336.3243,854.6351 336.3243,853.2297 335.6216,851.8243 334.2162,851.1216 330.0,849.7162 333.5135,850.4189 335.6216,850.4189 336.3243,849.7162 336.3243,849.0135 335.6216,847.6081 334.9189,846.9054 332.8108,845.5"/>
    <polyline points="332.8108,845.5 330.0,844.0946 333.5135,844.7973 335.6216,844.7973 336.3243,844.0946 336.3243,843.3919 335.6216,841.2838 334.2162,839.8784 332.1081,839.1757 330.0,839.1757"/>
    <polyline points="330.0,839.1757 332.8108,838.473 333.5135,837.7703 333.5135,836.3649 332.8108,834.9595"/>
    <polyline points="334.9189,834.2568 334.2162,832.8514 333.5135,832.1487 332.1081,831.446 330.7027,831.446 330.0,832.1487 330.0,832.8514 330.7027,834.2568 332.1081,834.9595 334.2162,834.9595 335.6216,834.2568 336.3243,832.8514 336.3243,831.446 335.6216,830.0406 334.9189,829.3378 332.8108,827.9324"/>
    <polyline points="332.8108,827.9324 330.7027,826.527 327.1892,824.4189 325.7838,823.7162 323.6757,823.0135 322.2702,823.0135 321.5675,823.7162 322.2702,825.1216 323.6757,825.8243 326.4865,826.527 331.4054,827.2297 335.6216,827.2297 336.3243,826.527 336.3243,825.8243 335.6216,824.4189 334.9189,823.7162 332.8108,822.3108"/>
    <polyline points="332.8108,822.3108 330.7027,820.9054 327.1892,818.7973 325.7838,818.0946 323.6757,817.3919 322.2702,817.3919 321.5675,818.0946 322.2702,819.5 323.6757,820.2027 326.4865,820.9054 331.4054,821.6081 335.6216,821.6081 336.3243,820.9054 336.3243,820.2027 335.6216,818.7973 334.9189,818.0946 332.8108,816.6892"/>
    <polyline points="334.9189,815.9865 334.2162,814.5811 333.5135,813.8784 332.1081,813.1757 330.7027,813.1757 330.0,813.8784 330.0,814.5811 330.7027,815.9865 332.1081,816.6892 334.2162,816.6892 335.6216,815.9865 336.3243,814.5811 336.3243,813.1757 335.6216,811.7703 334.9189,811.0676 332.8108,809.6622"/>
    <polyline points="332.1081,803.3378 330.7027,804.0406 330.0,805.446 330.0,806.8514 330.7027,808.2568 331.4054,808.9595 332.8108,809.6622 334.2162,809.6622 335.6216,808.9595 336.3243,807.5541 336.3243,806.1487 335.6216,804.7433 334.2162,804.0406 321.5675,799.8243"/>
    <polyline points="330.0,802.6351 333.5135,803.3378 335.6216,803.3378 336.3243,802.6351 336.3243,801.9324 335.6216,800.527 334.9189,799.8243 332.8108,798.4189"/>
    <polyline points="347.5675,804.0406 360.2162,808.2568 361.6216,808.2568 362.3243,807.5541 362.3243,806.1487 361.6216,804.7433 360.9189,804.0406 358.8108,802.6351"/>
    <line x1="353.1892" x2="353.1892" y1="803.3378" y2="808.2568"/>
    <polyline points="353.8919,806.1487 356.7027,807.5541 358.8108,808.9595"/>
    <polyline points="358.8108,808.9595 360.9189,810.3649 361.6216,811.0676 362.3243,812.473 362.3243,813.8784 361.6216,815.2838 360.2162,815.9865 358.1081,815.9865 356.7027,815.2838 356.0,813.8784 356.0,813.1757 356.7027,812.473 358.1081,812.473 359.5135,813.1757 360.2162,813.8784 360.9189,815.2838"/>
    <polyline points="358.8108,815.9865 360.9189,818.0946 362.3243,820.2027 363.027,821.6081 364.4324,823.7162 366.5405,825.8243 368.6486,826.527 370.054,826.527 370.7567,825.8243 370.054,824.4189 368.6486,823.7162 360.9189,820.9054 356.0,819.5"/>
    <polyline points="358.1081,820.2027 356.7027,820.9054 356.0,822.3108 356.0,823.7162 356.7027,825.1216 357.4054,825.8243 358.8108,826.527 360.2162,826.527 361.6216,825.8243 362.3243,824.4189 362.3243,823.0135 361.6216,821.6081 360.9189,820.9054"/>
    <polyline points="358.8108,837.7703 359.5135,838.473 360.2162,839.8784 360.2162,841.9865 359.5135,843.3919 358.1081,844.0946 356.7027,844.0946 356.0,843.3919 356.7027,841.9865 358.1081,841.2838 359.5135,841.2838 360.9189,841.9865 361.6216,842.6892 362.3243,844.0946 362.3243,845.5 361.6216,846.9054 360.2162,847.6081 358.8108,847.6081 357.4054,846.9054 356.7027,846.2027 356.0,844.7973 356.0,843.3919"/>
    <polyline points="358.8108,847.6081 360.9189,849.0135 361.6216,849.7162 362.3243,851.1216 362.3243,852.527 361.6216,853.2297 360.2162,853.2297 347.5675,849.0135"/>
    <line x1="353.1892" x2="353.1892" y1="848.3108" y2="853.2297"/>
    <polyline points="353.8919,851.1216 356.7027,852.527 358.8108,853.9324"/>
    <polyline points="358.8108,791.3919 356.7027,789.9865 353.8919,788.5811"/>
    <line x1="353.1892" x2="353.1892" y1="790.6892" y2="785.7703"/>
    <polyline points="347.5675,786.473 360.2162,790.6892 361.6216,790.6892 362.3243,789.9865 362.3243,788.5811 361.6216,787.1757 360.9189,786.473 358.8108,785.0676"/>
    <polyline points="356.0,780.8514 356.0,782.2568 356.7027,783.6622 357.4054,784.3649 358.8108,785.0676 360.2162,785.0676 361.6216,784.3649 362.3243,782.9595 362.3243,781.5541 361.6216,780.1487 360.9189,779.446 359.5135,778.7433 358.1081,778.7433 356.7027,779.446 356.0,780.8514 356.7027,781.5541 358.1081,781.5541 359.5135,780.8514 360.2162,779.446 360.2162,777.3378 359.5135,775.9324 358.8108,775.2297"/>
    <polyline points="358.8108,763.9865 356.0,762.5811 360.2162,763.9865 361.6216,763.9865 362.3243,763.2838 362.3243,761.8784 361.6216,760.473 360.2162,759.0676 358.1081,757.6622"/>
    <polyline points="356.0,756.9595 368.6486,761.1757 370.054,761.8784 370.7567,763.2838 370.054,763.9865 368.6486,763.9865 366.5405,763.2838 364.4324,761.1757 363.027,759.0676 362.3243,757.6622 360.9189,755.5541 358.8108,753.446"/>
    <polyline points="356.0,749.2297 356.0,750.6351 356.7027,752.0406 357.4054,752.7433 358.8108,753.446 360.2162,753.446 361.6216,752.7433 362.3243,751.3378 362.3243,749.9324 361.6216,748.527 360.9189,747.8243 359.5135,747.1216 358.1081,747.1216 356.7027,747.8243 356.0,749.2297 356.7027,749.9324 358.1081,749.9324 359.5135,749.2297 360.2162,747.8243 360.2162,745.7162 359.5135,744.3108 358.8108,743.6081"/>
    <polyline points="358.8108,743.6081 356.0,742.2027 360.2162,743.6081 361.6216,743.6081 362.3243,742.9054 362.3243,741.5 361.6216,740.0946 360.2162,738.6892 358.1081,737.2838"/>
    <polyline points="356.0,736.5811 360.2162,737.9865 361.6216,737.9865 362.3243,737.2838 362.3243,736.5811 361.6216,735.1757 360.9189,734.473 358.8108,733.0676"/>
    <polyline points="336.3243,731.6622 335.6216,730.2568 334.2162,730.2568 332.8108,730.9595 330.7027,732.3649 329.2973,732.3649 330.7027,733.0676 332.8108,734.473"/>
    <polyline points="332.8108,734.473 334.9189,735.8784 335.6216,736.5811 336.3243,737.9865 336.3243,738.6892 335.6216,739.3919 333.5135,739.3919 330.0,738.6892 334.2162,740.0946 335.6216,740.7973 336.3243,742.2027 336.3243,743.6081 335.6216,745.0135 334.2162,745.7162 332.8108,745.7162 331.4054,745.0135 330.7027,744.3108 330.0,742.9054 330.0,741.5 330.7027,740.0946 332.1081,739.3919"/>
    <polyline points="335.6216,734.473 336.3243,733.0676 336.3243,730.2568 335.6216,728.8514 334.9189,728.1487 332.8108,726.7433"/>
    <polyline points="332.8108,726.7433 330.7027,725.3378 327.8919,723.9324"/>
    <line x1="327.1892" x2="327.1892" y1="726.0406" y2="721.1216"/>
    <polyline points="321.5675,721.8243 334.2162,726.0406 335.6216,726.0406 336.3243,725.3378 336.3243,723.9324 335.6216,722.527 334.9189,721.8243 332.8108,720.4189"/>
    <polyline points="336.3243,708.473 333.5135,707.0676 332.1081,705.6622 330.7027,703.5541 329.2973,700.7433 327.8919,698.6351 326.4865,697.2297 325.0811,696.527 323.6757,696.527 322.2702,697.2297 321.5675,699.3378 321.5675,701.446 322.2702,703.5541 322.973,704.2568 324.3784,704.9595 325.0811,704.9595 325.7838,704.2568 325.0811,703.5541 324.3784,704.2568"/>
    <polyline points="321.5675,699.3378 322.2702,697.9324 323.6757,697.2297 325.0811,697.2297 326.4865,697.9324 327.8919,699.3378 330.7027,703.5541"/>
    <polyline points="334.2162,705.6622 336.3243,702.1487 336.3243,700.0406 335.6216,698.6351 333.5135,697.9324"/>
    <polyline points="333.5135,697.9324 334.9189,698.6351 335.6216,700.0406 335.6216,702.1487 334.2162,705.6622 334.2162,707.0676 334.9189,707.7703"/>
    <polyline points="331.4054,691.6081 330.0,690.9054 328.5946,689.5 327.8919,688.0946 327.8919,685.9865 328.5946,684.5811 329.2973,683.8784 330.7027,683.1757 332.8108,683.1757 334.2162,683.8784 335.6216,685.2838 336.3243,687.3919 336.3243,689.5 335.6216,690.9054 334.9189,691.6081 333.5135,692.3108 330.7027,692.3108 327.8919,691.6081 325.7838,690.9054 323.6757,689.5 322.2702,688.0946 321.5675,685.9865 321.5675,683.8784 322.2702,682.473 323.6757,681.7703 324.3784,681.7703 325.0811,682.473 324.3784,683.1757 323.6757,682.473"/>
    <polyline points="321.5675,685.9865 322.2702,687.3919 323.6757,688.7973 325.7838,690.2027 327.8919,690.9054 330.7027,691.6081 334.2162,691.6081 335.6216,690.9054"/>
    <polyline points="336.3243,687.3919 335.6216,685.9865 334.2162,684.5811 332.8108,683.8784 330.0,683.8784 328.5946,684.5811"/>
    <line x1="325.7838" x2="321.5675" y1="676.8514" y2="675.446"/>
    <polyline points="322.973,675.446 322.2702,674.0406 322.2702,672.6351 323.6757,669.1216 323.6757,667.7162 322.973,667.0135 321.5675,666.3108"/>
    <polyline points="321.5675,666.3108 323.6757,667.0135 325.7838,668.4189 330.0,671.9324 332.1081,673.3378 333.5135,674.0406 336.3243,674.7433"/>
    <polyline points="336.3243,675.446 333.5135,674.7433 332.1081,674.0406 330.0,672.6351 325.7838,668.4189"/>
    <polyline points="323.6757,669.1216 321.5675,672.6351 321.5675,674.0406 323.6757,676.1487"/>
    <polyline points="329.2973,659.9865 327.8919,660.6892 325.0811,660.6892 323.6757,659.9865 322.2702,658.5811 321.5675,657.1757"/>
    <polyline points="322.2702,653.6622 323.6757,652.9595 327.1892,652.9595 330.0,653.6622 332.1081,654.3649 334.2162,655.7703 335.6216,657.1757 336.3243,658.5811"/>
    <polyline points="334.2162,662.0946 333.5135,661.3919 332.8108,662.0946 333.5135,662.7973 334.2162,662.7973 335.6216,662.0946 336.3243,660.6892 336.3243,658.5811 335.6216,656.473 334.2162,655.0676 332.1081,653.6622 330.0,652.9595 327.1892,652.2568 324.3784,652.2568 322.973,652.9595 322.2702,653.6622 321.5675,655.0676 321.5675,657.1757 322.2702,659.2838 323.6757,660.6892 325.0811,661.3919 327.1892,661.3919 328.5946,660.6892 329.2973,659.9865 330.0,658.5811 330.0,656.473 329.2973,655.0676 327.8919,653.6622 326.4865,652.9595"/>
    <polyline points="332.8108,638.9054 330.7027,637.5 330.0,636.0946 330.7027,635.3919 331.4054,635.3919 334.2162,636.0946 336.3243,636.7973"/>
    <polyline points="334.2162,636.0946 332.8108,635.3919 330.7027,633.9865 330.0,632.5811 330.0,631.1757 330.7027,630.473 331.4054,630.473 334.2162,631.1757 336.3243,631.8784"/>
    <polyline points="334.2162,631.1757 332.8108,630.473 330.7027,629.0676 330.0,627.6622 330.0,626.2568 330.7027,625.5541 332.1081,625.5541 334.2162,626.2568 335.6216,626.2568 336.3243,625.5541 336.3243,624.8514 335.6216,623.446 334.9189,622.7433 332.8108,621.3378"/>
    <polyline points="332.8108,621.3378 330.0,619.9324 334.2162,621.3378 335.6216,621.3378 336.3243,620.6351 336.3243,619.9324 335.6216,618.527 334.9189,617.8243 332.8108,616.4189"/>
    <polygon points="326.4865,619.2297 327.1892,619.2297 327.1892,618.527 326.4865,618.527"/>
    <polyline points="332.8108,745.7162 334.9189,747.1216 335.6216,747.8243 336.3243,749.2297 336.3243,750.6351 335.6216,752.0406 334.2162,752.7433 332.1081,752.7433 330.7027,752.0406 330.0,750.6351 330.0,749.9324 330.7027,749.2297 332.1081,749.2297 333.5135,749.9324 334.2162,750.6351 334.9189,752.0406"/>
    <polyline points="332.8108,752.7433 334.9189,754.1487 335.6216,754.8514 336.3243,756.2568 336.3243,756.9595 335.6216,757.6622 331.4054,757.6622 326.4865,756.9595 323.6757,756.2568 322.2702,755.5541 321.5675,754.1487 322.2702,753.446 323.6757,753.446 325.7838,754.1487 327.1892,754.8514 330.7027,756.9595 332.8108,758.3649"/>
    <polyline points="332.8108,769.6081 334.9189,771.0135 335.6216,771.7162 336.3243,773.1216 336.3243,774.527 335.6216,775.2297 334.2162,775.2297 321.5675,771.0135"/>
    <line x1="327.1892" x2="327.1892" y1="770.3108" y2="775.2297"/>
    <polyline points="327.8919,773.1216 330.7027,774.527 332.8108,775.9324"/>
    <polyline points="332.8108,775.9324 334.9189,777.3378 335.6216,778.0406 336.3243,779.446 336.3243,780.1487 335.6216,780.8514 333.5135,780.8514 330.0,780.1487 334.2162,781.5541 335.6216,782.2568 336.3243,783.6622 336.3243,785.0676 335.6216,786.473 334.2162,787.1757 332.8108,787.1757 331.4054,786.473 330.7027,785.7703 330.0,784.3649 330.0,782.9595 330.7027,781.5541 332.1081,780.8514"/>
    <polyline points="525.9189,824.5406 539.5405,829.0811 541.054,829.8378 541.8108,831.3514 541.8108,832.8649 541.054,834.3784 539.5405,835.1351 538.027,835.1351 536.5135,834.3784 535.7567,833.6216 535.0,832.1081 535.0,830.5946 535.7567,829.0811 537.2702,828.3243"/>
    <polyline points="535.0,827.5676 538.7838,828.3243 541.054,828.3243 541.8108,827.5676 541.8108,826.8108 541.054,825.2973 540.2973,824.5406 538.027,823.027"/>
    <polyline points="535.0,818.4865 535.0,820.0 535.7567,821.5135 536.5135,822.2703 538.027,823.027 539.5405,823.027 541.054,822.2703 541.8108,820.7568 541.8108,819.2433 541.054,817.7297 540.2973,816.973 538.7838,816.2162 537.2702,816.2162 535.7567,816.973 535.0,818.4865 535.7567,819.2433 537.2702,819.2433 538.7838,818.4865 539.5405,816.973 539.5405,814.7027 538.7838,813.1892 538.027,812.4324"/>
    <polyline points="538.027,812.4324 535.0,810.9189 539.5405,812.4324 541.054,812.4324 541.8108,811.6757 541.8108,810.9189 541.054,809.4054 540.2973,808.6487 538.027,807.1351"/>
    <polyline points="538.027,807.1351 535.7567,805.6216 535.0,804.1081 535.7567,803.3514 536.5135,803.3514 539.5405,804.1081 541.8108,804.8649"/>
    <polyline points="539.5405,804.1081 538.027,803.3514 535.7567,801.8378 535.0,800.3243 535.0,798.8108 535.7567,798.0541 537.2702,798.0541 539.5405,798.8108 541.054,798.8108 541.8108,798.0541 541.8108,797.2973 541.054,795.7838 540.2973,795.027 538.027,793.5135"/>
    <polyline points="540.2973,787.4595 541.054,788.2162 541.8108,789.7297 541.8108,791.2433 541.054,792.7568 539.5405,793.5135 538.027,793.5135 536.5135,792.7568 535.7567,792.0 535.0,790.4865 535.0,788.973 535.7567,787.4595 537.2702,786.7027"/>
    <polyline points="535.0,785.946 540.2973,787.4595 548.6216,790.4865 550.1351,791.2433 550.8919,792.7568 550.1351,793.5135 548.6216,793.5135 546.3513,792.7568 544.0811,790.4865 542.5675,788.2162 541.8108,786.7027 540.2973,784.4324 538.027,782.1622"/>
    <polyline points="537.2702,763.2433 535.7567,764.0 535.0,765.5135 535.0,767.027 535.7567,768.5406 536.5135,769.2973 538.027,770.0541 539.5405,770.0541 541.054,769.2973 541.8108,767.7838 541.8108,766.2703 541.054,764.7568 539.5405,764.0 535.0,762.4865 538.7838,763.2433 541.054,763.2433 541.8108,762.4865 541.8108,761.7297 541.054,760.2162 540.2973,759.4595 538.027,757.946"/>
    <polyline points="538.027,757.946 535.7567,756.4324 534.2432,755.6757 535.7567,755.6757 538.027,754.1622 539.5405,753.4054 541.054,753.4054 541.8108,754.9189"/>
    <polyline points="541.054,757.946 541.8108,756.4324 541.8108,753.4054 541.054,751.8919 540.2973,751.1351 538.027,749.6216"/>
    <polyline points="535.0,735.2433 536.5135,736.7568 538.7838,737.5135 540.2973,737.5135 541.8108,736.7568 541.8108,735.2433 541.054,733.7297 539.5405,732.2162"/>
    <polyline points="535.0,730.7027 539.5405,732.2162 541.054,732.2162 541.8108,731.4595 541.8108,729.946 541.054,728.4324 539.5405,726.9189 537.2702,726.1622 535.0,726.1622"/>
    <polyline points="535.0,726.1622 538.027,725.4054 538.7838,724.6487 538.7838,723.1351 538.027,721.6216"/>
    <polyline points="540.2973,720.8649 539.5405,719.3514 538.7838,718.5946 537.2702,717.8378 535.7567,717.8378 535.0,718.5946 535.0,719.3514 535.7567,720.8649 537.2702,721.6216 539.5405,721.6216 541.054,720.8649 541.8108,719.3514 541.8108,717.8378 541.054,716.3243 540.2973,715.5676 538.027,714.0541"/>
    <polyline points="538.027,714.0541 535.7567,712.5406 531.973,710.2703 530.4594,709.5135 528.1892,708.7568 526.6757,708.7568 525.9189,709.5135 526.6757,711.027 528.1892,711.7838 531.2162,712.5406 536.5135,713.2973 541.054,713.2973 541.8108,712.5406 541.8108,711.7838 541.054,710.2703 540.2973,709.5135 538.027,708.0"/>
    <polyline points="538.027,708.0 535.7567,706.4865 531.973,704.2162 530.4594,703.4595 528.1892,702.7027 526.6757,702.7027 525.9189,703.4595 526.6757,704.973 528.1892,705.7297 531.2162,706.4865 536.5135,707.2433 541.054,707.2433 541.8108,706.4865 541.8108,705.7297 541.054,704.2162 540.2973,703.4595 538.027,701.946"/>
    <polyline points="555.4324,701.1892 556.1892,700.4324 558.4594,700.4324 561.4865,701.1892 563.7567,701.946 565.2702,702.7027 567.5405,704.2162 569.054,705.7297 569.8108,707.2433 569.8108,708.0 569.054,708.7568 566.7838,708.7568 563.0,708.0 560.7297,707.2433 559.2162,706.4865 556.9459,704.973 555.4324,703.4595 554.6757,701.946 553.9189,699.6757 553.9189,695.8919 554.6757,694.3784 555.4324,693.6216 556.9459,692.8649 559.2162,692.8649 560.7297,693.6216 561.4865,694.3784 562.2432,695.8919 562.2432,698.1622 561.4865,699.6757 560.7297,700.4324"/>
    <polyline points="566.027,692.1081 563.7567,690.5946 559.973,688.3243 558.4594,687.5676 556.1892,686.8108 554.6757,686.8108 553.9189,687.5676 554.6757,689.0811 556.1892,689.8378 559.2162,690.5946 564.5135,691.3514 569.054,691.3514 569.8108,690.5946 569.8108,689.8378 569.054,688.3243 568.2973,687.5676 566.027,686.0541"/>
    <polyline points="568.2973,685.2973 567.5405,683.7838 566.7838,683.027 565.2702,682.2703 563.7567,682.2703 563.0,683.027 563.0,683.7838 563.7567,685.2973 565.2702,686.0541 567.5405,686.0541 569.054,685.2973 569.8108,683.7838 569.8108,682.2703 569.054,680.7568 568.2973,680.0 566.027,678.4865"/>
    <polyline points="565.2702,671.6757 563.7567,672.4324 563.0,673.946 563.0,675.4595 563.7567,676.973 564.5135,677.7297 566.027,678.4865 567.5405,678.4865 569.054,677.7297 569.8108,676.2162 569.8108,674.7027 569.054,673.1892 567.5405,672.4324 563.0,670.9189 566.7838,671.6757 569.054,671.6757 569.8108,670.9189 569.8108,670.1622 569.054,668.6487 568.2973,667.8919 566.027,666.3784"/>
    <polyline points="566.027,666.3784 563.7567,664.8649 562.2432,664.1081 563.7567,664.1081 566.027,662.5946 567.5405,661.8378 569.054,661.8378 569.8108,663.3514"/>
    <polyline points="569.054,666.3784 569.8108,664.8649 569.8108,661.8378 569.054,660.3243 568.2973,659.5676 566.027,658.0541"/>
    <polyline points="568.2973,657.2973 567.5405,655.7838 566.7838,655.027 565.2702,654.2703 563.7567,654.2703 563.0,655.027 563.0,655.7838 563.7567,657.2973 565.2702,658.0541 567.5405,658.0541 569.054,657.2973 569.8108,655.7838 569.8108,654.2703 569.054,652.7568 568.2973,652.0 566.027,650.4865"/>
    <polyline points="566.027,638.3784 563.7567,636.8649 560.7297,635.3514"/>
    <line x1="559.973" x2="559.973" y1="637.6216" y2="632.3243"/>
    <polyline points="566.027,631.5676 568.2973,633.0811 569.054,633.8378 569.8108,635.3514 569.8108,636.8649 569.054,637.6216 567.5405,637.6216 553.9189,633.0811"/>
    <polyline points="565.2702,624.7568 563.7567,625.5135 563.0,627.027 563.0,628.5406 563.7567,630.0541 564.5135,630.8108 566.027,631.5676 567.5405,631.5676 569.054,630.8108 569.8108,629.2973 569.8108,627.7838 569.054,626.2703 567.5405,625.5135 563.0,624.0 566.7838,624.7568 569.054,624.7568 569.8108,624.0 569.8108,623.2433 569.054,621.7297 568.2973,620.973 566.027,619.4595"/>
    <polyline points="566.027,619.4595 563.7567,617.946 559.973,615.6757 558.4594,614.9189 556.1892,614.1622 554.6757,614.1622 553.9189,614.9189 554.6757,616.4324 556.1892,617.1892 559.2162,617.946 563.7567,618.7027 569.8108,619.4595"/>
    <polyline points="569.8108,619.4595 567.5405,618.7027 566.027,617.946 563.7567,616.4324 563.0,614.9189 563.0,613.4054 563.7567,612.6487 565.2702,612.6487 566.027,614.1622 566.027,616.4324"/>
    <polyline points="566.027,616.4324 566.7838,614.9189 569.054,614.1622 569.8108,613.4054 569.8108,612.6487 569.054,611.1351 568.2973,610.3784 566.027,608.8649"/>
    <polyline points="568.2973,608.1081 567.5405,606.5946 566.7838,605.8378 565.2702,605.0811 563.7567,605.0811 563.0,605.8378 563.0,606.5946 563.7567,608.1081 565.2702,608.8649 567.5405,608.8649 569.054,608.1081 569.8108,606.5946 569.8108,605.0811 569.054,603.5676 568.2973,602.8108 566.027,601.2973"/>
    <line x1="581.9189" x2="592.5135" y1="621.7297" y2="621.7297"/>
    <polygon points="596.2973,621.7297 597.054,622.4865 597.8108,621.7297 597.054,620.973"/>
    <polyline points="594.027,625.5135 596.2973,627.027 597.054,627.7838 597.8108,629.2973 597.8108,630.0541 597.054,630.8108 596.2973,630.8108 594.027,630.0541 592.5135,630.0541 591.7567,630.8108 591.7567,633.0811 590.2432,633.0811 591.7567,633.8378 594.027,635.3514"/>
    <polyline points="594.027,635.3514 596.2973,636.8649 597.054,637.6216 597.8108,639.1351 597.8108,639.8919 597.054,640.6487 594.7838,640.6487 591.0,639.8919 595.5405,641.4054 597.054,642.1622 597.8108,643.6757 597.8108,645.1892 597.054,646.7027 595.5405,647.4595 594.027,647.4595 592.5135,646.7027 591.7567,645.946 591.0,644.4324 591.0,642.9189 591.7567,641.4054 593.2702,640.6487"/>
    <polyline points="594.027,647.4595 596.2973,648.973 597.054,649.7297 597.8108,651.2433 597.8108,652.7568 597.054,654.2703 595.5405,655.027 593.2702,655.027 591.7567,654.2703 591.0,652.7568 591.0,652.0 591.7567,651.2433 593.2702,651.2433 594.7838,652.0 595.5405,652.7568 596.2973,654.2703"/>
    <polyline points="594.027,655.027 596.2973,657.2973 597.8108,659.5676 598.5675,661.0811 600.0811,663.3514 602.3513,665.6216 604.6216,666.3784 606.1351,666.3784 606.8919,665.6216 606.1351,664.1081 604.6216,663.3514 591.0,658.8108"/>
    <polyline points="593.2702,659.5676 595.5405,661.0811 597.054,662.5946 597.8108,664.1081 597.8108,665.6216 597.054,666.3784 595.5405,666.3784 591.0,664.8649 594.027,666.3784"/>
    <polyline points="594.027,678.4865 594.7838,680.0 594.7838,681.5135 594.027,682.2703 591.0,683.027"/>
    <polyline points="591.0,683.027 593.2702,683.027 595.5405,683.7838 597.054,685.2973 597.8108,686.8108 597.8108,688.3243 597.054,689.0811 595.5405,689.0811 591.0,687.5676"/>
    <polyline points="591.0,692.1081 592.5135,693.6216 594.7838,694.3784 596.2973,694.3784 597.8108,693.6216 597.8108,692.1081 597.054,690.5946 595.5405,689.0811"/>
    <polyline points="594.027,694.3784 596.2973,695.8919 597.054,696.6487 597.8108,698.1622 597.8108,699.6757 597.054,701.1892 595.5405,701.946 593.2702,701.946 591.7567,701.1892 591.0,699.6757 591.0,698.9189 591.7567,698.1622 593.2702,698.1622 594.7838,698.9189 595.5405,699.6757 596.2973,701.1892"/>
    <polyline points="594.027,701.946 596.2973,703.4595 597.054,704.2162 597.8108,705.7297 597.8108,706.4865 597.054,707.2433 595.5405,707.2433 593.2702,706.4865 591.7567,706.4865 591.0,707.2433 591.0,708.7568 591.7567,710.2703 594.027,711.7838 595.5405,712.5406"/>
    <polyline points="597.8108,713.2973 595.5405,712.5406 592.5135,711.7838 591.7567,711.7838 591.0,712.5406 591.7567,714.0541 594.027,715.5676"/>
    <polyline points="594.027,727.6757 596.2973,729.946 597.8108,732.2162 598.5675,733.7297 600.0811,736.0 602.3513,738.2703 604.6216,739.027 606.1351,739.027 606.8919,738.2703 606.1351,736.7568 604.6216,736.0 591.0,731.4595"/>
    <polyline points="593.2702,732.2162 595.5405,733.7297 597.054,735.2433 597.8108,736.7568 597.8108,738.2703 597.054,739.027 595.5405,739.027 591.0,737.5135 594.027,739.027"/>
    <polyline points="594.027,739.027 596.2973,741.2973 597.054,742.8108 597.8108,745.0811 597.8108,747.3514 597.054,748.8649"/>
    <polyline points="597.8108,745.8378 597.054,744.3243 596.2973,743.5676 594.7838,742.8108 593.2702,742.8108 591.7567,743.5676 591.0,745.0811 591.0,746.5946 591.7567,748.1081 593.2702,748.8649"/>
    <polyline points="594.027,750.3784 591.7567,748.8649 590.2432,748.1081 593.2702,748.8649 606.8919,753.4054"/>
    <polyline points="597.8108,757.1892 597.054,755.6757 596.2973,754.9189 594.7838,754.1622 593.2702,754.1622 591.7567,754.9189 591.0,756.4324 591.0,757.946 591.7567,759.4595 593.2702,760.2162"/>
    <polyline points="594.027,761.7297 591.7567,760.2162 590.2432,759.4595 593.2702,760.2162 606.8919,764.7568"/>
    <polyline points="597.054,760.2162 597.8108,758.7027 597.8108,756.4324 597.054,754.1622 596.2973,752.6487 594.027,750.3784"/>
    <polyline points="594.027,761.7297 596.2973,763.2433 597.054,764.0 597.8108,765.5135 597.8108,766.2703 597.054,767.027 594.7838,767.027 591.0,766.2703 595.5405,767.7838 597.054,768.5406 597.8108,770.0541 597.8108,771.5676 597.054,773.0811 595.5405,773.8378 594.027,773.8378 592.5135,773.0811 591.7567,772.3243 591.0,770.8108 591.0,769.2973 591.7567,767.7838 593.2702,767.027"/>
    <polyline points="594.027,773.8378 596.2973,775.3514 597.054,776.1081 597.8108,777.6216 597.8108,778.3784 597.054,779.1351 595.5405,779.1351 593.2702,778.3784 591.7567,778.3784 591.0,779.1351 591.0,780.6487 591.7567,782.1622 594.027,783.6757 595.5405,784.4324 597.8108,785.1892"/>
    <polyline points="597.8108,785.1892 591.7567,784.4324 587.2162,783.6757 584.1892,782.9189 582.6757,782.1622 581.9189,780.6487 582.6757,779.8919 584.1892,779.8919 586.4594,780.6487 587.973,781.4054 591.7567,783.6757 594.027,785.1892"/>
    <polyline points="594.027,797.2973 596.2973,799.5676 597.8108,801.8378 598.5675,803.3514 600.0811,805.6216 602.3513,807.8919 604.6216,808.6487 606.1351,808.6487 606.8919,807.8919 606.1351,806.3784 604.6216,805.6216 591.0,801.0811"/>
    <polyline points="593.2702,801.8378 595.5405,803.3514 597.054,804.8649 597.8108,806.3784 597.8108,807.8919 597.054,808.6487 595.5405,808.6487 591.0,807.1351 594.027,808.6487"/>
    <polyline points="594.027,808.6487 596.2973,810.1622 597.054,810.9189 597.8108,812.4324 597.8108,813.1892 597.054,813.946 596.2973,813.946 594.027,813.1892 592.5135,813.1892 591.7567,813.946 591.7567,816.2162 590.2432,816.2162 591.7567,816.973 594.027,818.4865"/>
    <polyline points="594.027,818.4865 596.2973,820.0 597.054,820.7568 597.8108,822.2703 597.8108,823.7838 597.054,825.2973 595.5405,826.0541 593.2702,826.0541 591.7567,825.2973 591.0,823.7838 591.0,823.027 591.7567,822.2703 593.2702,822.2703 594.7838,823.027 595.5405,823.7838 596.2973,825.2973"/>
    <polyline points="594.027,826.0541 594.7838,827.5676 594.7838,829.0811 594.027,829.8378 591.0,830.5946"/>
    <polyline points="591.0,830.5946 593.2702,830.5946 595.5405,831.3514 597.054,832.8649 597.8108,835.1351 597.8108,835.8919 597.054,836.6487 594.7838,836.6487 591.0,835.8919 594.027,837.4054"/>
    <polyline points="594.027,849.5135 596.2973,851.027 597.054,851.7838 597.8108,853.2973 597.8108,854.0541 597.054,854.8108 594.7838,854.8108 591.0,854.0541 595.5405,855.5676 597.054,856.3243 597.8108,857.8378 597.8108,859.3514 597.054,860.8649 595.5405,861.6216 594.027,861.6216 592.5135,860.8649 591.7567,860.1081 591.0,858.5946 591.0,857.0811 591.7567,855.5676 593.2702,854.8108"/>
    <polyline points="594.027,873.7297 596.2973,875.2433 597.054,876.0 597.8108,877.5135 597.8108,879.027 597.054,880.5406 595.5405,881.2973 593.2702,881.2973 591.7567,880.5406 591.0,879.027 591.0,878.2703 591.7567,877.5135 593.2702,877.5135 594.7838,878.2703 595.5405,879.027 596.2973,880.5406"/>
    <polyline points="594.027,881.2973 594.7838,882.8108 594.7838,884.3243 594.027,885.0811 591.0,885.8378"/>
    <polyline points="591.0,885.8378 593.2702,885.8378 595.5405,886.5946 597.054,888.1081 597.8108,890.3784 597.8108,891.1351 597.054,891.8919 594.7838,891.8919 591.0,891.1351 594.027,892.6487"/>
    <polyline points="594.027,892.6487 596.2973,894.1622 597.054,894.9189 597.8108,896.4324 597.8108,897.1892 597.054,897.946 594.7838,897.946 591.0,897.1892 595.5405,898.7027 597.054,899.4595 597.8108,900.973 597.8108,902.4865 597.054,904.0 595.5405,904.7568 594.027,904.7568 592.5135,904.0 591.7567,903.2433 591.0,901.7297 591.0,900.2162 591.7567,898.7027 593.2702,897.946"/>
    <polyline points="594.027,904.7568 596.2973,906.2703 597.054,907.027 597.8108,908.5406 597.8108,909.2973 597.054,910.0541 595.5405,910.0541 593.2702,909.2973 591.7567,909.2973 591.0,910.0541 591.0,911.5676 591.7567,913.0811 594.027,914.5946 595.5405,915.3514 597.8108,916.1081"/>
    <polyline points="597.8108,916.1081 591.7567,915.3514 587.2162,914.5946 584.1892,913.8378 582.6757,913.0811 581.9189,911.5676 582.6757,910.8108 584.1892,910.8108 586.4594,911.5676 587.973,912.3243 591.7567,914.5946 594.027,916.1081"/>
    <polyline points="594.027,928.2162 596.2973,929.7297 597.054,930.4865 597.8108,932.0 597.8108,932.7568 597.054,933.5135 594.7838,933.5135 591.0,932.7568"/>
    <polyline points="593.2702,933.5135 591.7567,934.2703 591.0,935.7838 591.0,937.2973 591.7567,938.8108 592.5135,939.5676 594.027,940.3243 595.5405,940.3243 597.054,939.5676 597.8108,938.0541 597.8108,936.5406 597.054,935.027 595.5405,934.2703 581.9189,929.7297"/>
    <polyline points="569.8108,928.973 567.5405,928.2162 564.5135,927.4595 563.7567,927.4595 563.0,928.2162 563.7567,929.7297 566.027,931.2433"/>
    <polyline points="566.027,931.2433 568.2973,932.7568 569.054,933.5135 569.8108,935.027 569.8108,935.7838 569.054,936.5406 567.5405,936.5406 563.0,935.027 566.027,936.5406"/>
    <polyline points="566.027,936.5406 568.2973,938.0541 569.054,938.8108 569.8108,940.3243 569.8108,941.0811 569.054,941.8378 568.2973,941.8378 566.027,941.0811 564.5135,941.0811 563.7567,941.8378 563.7567,944.1081 562.2432,944.1081 563.7567,944.8649 566.027,946.3784"/>
    <polyline points="566.027,946.3784 568.2973,947.8919 569.054,948.6487 569.8108,950.1622 569.8108,950.9189 569.054,951.6757 567.5405,951.6757 563.0,950.1622"/>
    <polyline points="565.2702,950.9189 567.5405,952.4324 569.054,953.946 569.8108,955.4595 569.8108,956.973 569.054,957.7297 567.5405,957.7297 563.0,956.2162 566.027,957.7297"/>
    <polyline points="566.027,957.7297 568.2973,959.2433 569.054,960.0 569.8108,961.5135 569.8108,962.2703 569.054,963.027 566.7838,963.027 563.0,962.2703"/>
    <polyline points="565.2702,963.027 563.7567,963.7838 563.0,965.2973 563.0,966.8108 563.7567,968.3243 564.5135,969.0811 566.027,969.8378 567.5405,969.8378 569.054,969.0811 569.8108,967.5676 569.8108,966.0541 569.054,964.5406 567.5405,963.7838 553.9189,959.2433"/>
    <polyline points="550.8919,956.2162 537.2702,951.6757 534.2432,950.9189 535.7567,951.6757 538.027,953.1892"/>
    <polyline points="538.027,953.1892 538.7838,953.946 539.5405,955.4595 539.5405,957.7297 538.7838,959.2433 537.2702,960.0 535.7567,960.0 535.0,959.2433 535.7567,957.7297 537.2702,956.973 538.7838,956.973 540.2973,957.7297 541.054,958.4865 541.8108,960.0 541.8108,961.5135 541.054,963.027 539.5405,963.7838 538.027,963.7838 536.5135,963.027 535.7567,962.2703 535.0,960.7568 535.0,959.2433"/>
    <polyline points="538.027,963.7838 540.2973,965.2973 541.054,966.0541 541.8108,967.5676 541.8108,968.3243 541.054,969.0811 539.5405,969.0811 537.2702,968.3243 535.7567,968.3243 535.0,969.0811 535.0,970.5946 535.7567,972.1081 538.027,973.6216 539.5405,974.3784 541.8108,975.1351"/>
    <polyline points="541.8108,975.1351 535.7567,974.3784 531.2162,973.6216 528.1892,972.8649 526.6757,972.1081 525.9189,970.5946 526.6757,969.8378 528.1892,969.8378 530.4594,970.5946 531.973,971.3514 535.7567,973.6216 538.027,975.1351"/>
    <polyline points="538.027,987.2433 540.2973,988.7568 541.054,989.5135 541.8108,991.027 541.8108,992.5406 541.054,994.0541 539.5405,994.8108 537.2702,994.8108 535.7567,994.0541 535.0,992.5406 535.0,991.7838 535.7567,991.027 537.2702,991.027 538.7838,991.7838 539.5405,992.5406 540.2973,994.0541"/>
    <line x1="541.8108" x2="525.9189" y1="1003.8919" y2="1002.3784"/>
    <line x1="525.9189" x2="541.8108" y1="1002.3784" y2="1009.946"/>
    <polyline points="541.8108,1009.946 530.4594,1009.1892 528.1892,1009.1892 526.6757,1009.946 525.9189,1011.4595 525.9189,1012.2162 526.6757,1013.7297 528.1892,1014.4865 528.9459,1014.4865 530.4594,1013.7297 531.2162,1012.2162"/>
    <polyline points="541.8108,1003.8919 536.5135,1001.6216 531.973,999.3514 528.9459,997.0811 526.6757,994.8108 525.9189,993.2973"/>
    <polyline points="505.2973,996.3243 504.5405,994.8108 503.7838,994.0541 502.2702,993.2973 500.7567,993.2973 500.0,994.0541 500.0,994.8108 500.7567,996.3243 502.2702,997.0811 504.5405,997.0811 506.054,996.3243 506.8108,994.8108 506.8108,993.2973 506.054,991.7838 505.2973,991.027 503.027,989.5135"/>
    <polyline points="503.027,989.5135 500.7567,988.0 499.2432,987.2433 500.7567,987.2433 500.7567,984.973 501.5135,984.2162 503.027,984.2162 505.2973,984.973 506.054,984.973 506.8108,984.2162 506.8108,983.4595 506.054,981.946 505.2973,981.1892 503.027,979.6757"/>
    <polyline points="503.027,979.6757 500.7567,978.1622 499.2432,977.4054 500.7567,977.4054 503.027,975.8919 504.5405,975.1351 506.054,975.1351 506.8108,976.6487"/>
    <polyline points="506.054,979.6757 506.8108,978.1622 506.8108,975.1351 506.054,973.6216 505.2973,972.8649 503.027,971.3514"/>
    <polyline points="500.0,966.8108 500.0,968.3243 500.7567,969.8378 501.5135,970.5946 503.027,971.3514 504.5405,971.3514 506.054,970.5946 506.8108,969.0811 506.8108,967.5676 506.054,966.0541 505.2973,965.2973 503.7838,964.5406 502.2702,964.5406 500.7567,965.2973 500.0,966.8108 500.7567,967.5676 502.2702,967.5676 503.7838,966.8108 504.5405,965.2973 504.5405,963.027 503.7838,961.5135 503.027,960.7568"/>
    <polyline points="503.027,960.7568 500.7567,959.2433 500.0,957.7297 500.7567,956.973 501.5135,956.973 504.5405,957.7297 506.8108,958.4865"/>
    <polyline points="504.5405,957.7297 503.027,956.973 500.7567,955.4595 500.0,953.946 500.0,952.4324 500.7567,951.6757 502.2702,951.6757 504.5405,952.4324 506.054,952.4324 506.8108,951.6757 506.8108,950.9189 506.054,949.4054 505.2973,948.6487 503.027,947.1351"/>
    <polyline points="494.7027,932.0 493.9459,932.0 492.4324,931.2433 491.6757,930.4865 490.9189,928.973 490.9189,925.946 491.6757,924.4324 492.4324,923.6757 493.9459,922.9189 495.4594,922.9189 496.973,923.6757 499.2432,925.1892 506.8108,932.7568 506.8108,922.1622"/>
    <polyline points="506.8108,917.6216 505.2973,916.1081 503.7838,916.1081 503.027,916.8649 503.7838,917.6216 504.5405,916.8649 503.7838,916.1081"/>
    <polyline points="535.0,914.5946 548.6216,919.1351 550.1351,919.8919 550.8919,921.4054 550.1351,922.1622 548.6216,922.1622 546.3513,921.4054 544.0811,919.1351 542.5675,916.8649 541.8108,915.3514 540.2973,913.0811 538.027,910.8108"/>
    <polyline points="537.2702,915.3514 539.5405,916.8649 541.054,918.3784 541.8108,919.8919 541.8108,921.4054 541.054,922.1622 539.5405,922.1622 535.0,920.6487 538.027,922.1622"/>
    <polyline points="538.027,934.2703 540.2973,935.7838 541.054,936.5406 541.8108,938.0541 541.8108,939.5676 541.054,941.0811 539.5405,941.8378 537.2702,941.8378 535.7567,941.0811 535.0,939.5676 535.0,938.8108 535.7567,938.0541 537.2702,938.0541 538.7838,938.8108 539.5405,939.5676 540.2973,941.0811"/>
    <polyline points="538.027,941.8378 540.2973,944.1081 541.054,945.6216 541.8108,947.8919 541.8108,950.1622 541.054,951.6757"/>
    <polyline points="541.8108,948.6487 541.054,947.1351 540.2973,946.3784 538.7838,945.6216 537.2702,945.6216 535.7567,946.3784 535.0,947.8919 535.0,949.4054 535.7567,950.9189 537.2702,951.6757"/>
    <polygon points="559.2162,934.2703 559.973,934.2703 559.973,933.5135 559.2162,933.5135"/>
    <polyline points="567.5405,928.2162 566.027,927.4595 563.7567,925.946 563.0,924.4324 563.0,922.9189 563.7567,922.1622 565.2702,922.1622 567.5405,922.9189 569.054,922.9189 569.8108,922.1622 569.8108,921.4054 569.054,919.8919 568.2973,919.1351 566.027,917.6216"/>
    <polyline points="568.2973,911.5676 569.054,912.3243 569.8108,913.8378 569.8108,915.3514 569.054,916.8649 567.5405,917.6216 566.027,917.6216 564.5135,916.8649 563.7567,916.1081 563.0,914.5946 563.0,913.0811 563.7567,911.5676 565.2702,910.8108"/>
    <polyline points="563.0,910.0541 568.2973,911.5676 576.6216,914.5946 578.1351,915.3514 578.8919,916.8649 578.1351,917.6216 576.6216,917.6216 574.3513,916.8649 572.0811,914.5946 570.5675,912.3243 569.8108,910.8108 568.2973,908.5406 566.027,906.2703"/>
    <polyline points="566.027,894.1622 563.7567,892.6487 560.7297,891.1351"/>
    <line x1="559.973" x2="559.973" y1="893.4054" y2="888.1081"/>
    <polyline points="566.027,887.3514 563.7567,885.8378 559.973,883.5676 558.4594,882.8108 556.1892,882.0541 554.6757,882.0541 553.9189,882.8108 554.6757,884.3243 556.1892,885.0811 559.2162,885.8378 563.7567,886.5946 569.8108,887.3514"/>
    <polyline points="569.8108,887.3514 567.5405,886.5946 566.027,885.8378 563.7567,884.3243 563.0,882.8108 563.0,881.2973 563.7567,880.5406 565.2702,880.5406 567.5405,881.2973 569.054,881.2973 569.8108,880.5406 569.8108,879.7838 569.054,878.2703 568.2973,877.5135 566.027,876.0"/>
    <polyline points="568.2973,875.2433 567.5405,873.7297 566.7838,872.973 565.2702,872.2162 563.7567,872.2162 563.0,872.973 563.0,873.7297 563.7567,875.2433 565.2702,876.0 567.5405,876.0 569.054,875.2433 569.8108,873.7297 569.8108,872.2162 569.054,870.7027 568.2973,869.946 566.027,868.4324"/>
    <polyline points="566.027,868.4324 563.7567,866.9189 562.2432,866.1622 563.7567,866.1622 566.027,864.6487 567.5405,863.8919 569.054,863.8919 569.8108,865.4054"/>
    <polyline points="569.054,868.4324 569.8108,866.9189 569.8108,863.8919 569.054,862.3784 568.2973,861.6216 566.027,860.1081"/>
    <polyline points="568.2973,859.3514 567.5405,857.8378 566.7838,857.0811 565.2702,856.3243 563.7567,856.3243 563.0,857.0811 563.0,857.8378 563.7567,859.3514 565.2702,860.1081 567.5405,860.1081 569.054,859.3514 569.8108,857.8378 569.8108,856.3243 569.054,854.8108 568.2973,854.0541 566.027,852.5406"/>
    <polyline points="564.5135,835.1351 563.7567,835.1351 563.0,835.8919 563.0,837.4054 563.7567,838.9189 564.5135,839.6757 566.027,840.4324 567.5405,840.4324 569.054,839.6757 569.8108,838.1622 569.8108,835.8919 568.2973,833.6216 566.027,832.1081"/>
    <polyline points="566.027,832.1081 563.7567,830.5946 562.2432,829.8378 563.7567,829.8378 563.7567,827.5676 564.5135,826.8108 566.027,826.8108 568.2973,827.5676 569.054,827.5676 569.8108,826.8108 569.8108,826.0541 569.054,824.5406 568.2973,823.7838 566.027,822.2703"/>
    <polyline points="565.2702,815.4595 563.7567,816.2162 563.0,817.7297 563.0,819.2433 563.7567,820.7568 564.5135,821.5135 566.027,822.2703 567.5405,822.2703 569.054,821.5135 569.8108,820.0 569.8108,818.4865 569.054,816.973 567.5405,816.2162 563.0,814.7027 566.7838,815.4595 569.054,815.4595 569.8108,814.7027 569.8108,813.946 569.054,812.4324 568.2973,811.6757 566.027,810.1622"/>
    <polyline points="566.027,810.1622 563.7567,808.6487 563.0,807.1351 563.0,805.6216 564.5135,804.1081 566.027,804.1081 567.5405,804.8649 569.054,806.3784 569.8108,808.6487 570.5675,807.1351 572.0811,806.3784 574.3513,806.3784 576.6216,807.1351 578.1351,807.8919 578.8919,809.4054 578.1351,810.1622 576.6216,810.1622 574.3513,809.4054 572.0811,807.1351 570.5675,804.8649 568.2973,801.8378 566.027,799.5676"/>
    <polyline points="566.027,799.5676 563.0,798.0541 567.5405,799.5676 569.054,799.5676 569.8108,798.8108 569.8108,797.2973 569.054,795.7838 567.5405,794.2703 565.2702,792.7568"/>
    <polyline points="563.0,792.0 576.6216,796.5406 578.1351,797.2973 578.8919,798.8108 578.1351,799.5676 576.6216,799.5676 574.3513,798.8108 572.0811,796.5406 570.5675,794.2703 569.8108,792.7568 568.2973,790.4865 566.027,788.2162"/>
    <polyline points="566.027,776.1081 563.7567,774.5946 560.7297,773.0811"/>
    <line x1="559.973" x2="559.973" y1="775.3514" y2="770.0541"/>
    <polygon points="559.2162,767.027 559.973,767.027 559.973,766.2703 559.2162,766.2703"/>
    <polyline points="553.9189,770.8108 567.5405,775.3514 569.054,775.3514 569.8108,774.5946 569.8108,773.0811 569.054,771.5676 568.2973,770.8108 566.027,769.2973"/>
    <polyline points="566.027,769.2973 563.0,767.7838 567.5405,769.2973 569.054,769.2973 569.8108,768.5406 569.8108,767.7838 569.054,766.2703 568.2973,765.5135 566.027,764.0"/>
    <polyline points="566.027,764.0 563.7567,762.4865 563.0,760.973 563.7567,760.2162 564.5135,760.2162 567.5405,760.973 569.8108,761.7297"/>
    <polyline points="567.5405,760.973 566.027,760.2162 563.7567,758.7027 563.0,757.1892 563.0,755.6757 563.7567,754.9189 564.5135,754.9189 567.5405,755.6757 569.8108,756.4324"/>
    <polyline points="567.5405,755.6757 566.027,754.9189 563.7567,753.4054 563.0,751.8919 563.0,750.3784 563.7567,749.6216 565.2702,749.6216 567.5405,750.3784 569.054,750.3784 569.8108,749.6216 569.8108,748.8649 569.054,747.3514 568.2973,746.5946 566.027,745.0811"/>
    <polyline points="568.2973,744.3243 567.5405,742.8108 566.7838,742.0541 565.2702,741.2973 563.7567,741.2973 563.0,742.0541 563.0,742.8108 563.7567,744.3243 565.2702,745.0811 567.5405,745.0811 569.054,744.3243 569.8108,742.8108 569.8108,741.2973 569.054,739.7838 568.2973,739.027 566.027,737.5135"/>
    <polyline points="566.027,737.5135 563.7567,736.0 562.2432,735.2433 563.7567,735.2433 566.027,733.7297 567.5405,732.973 569.054,732.973 569.8108,734.4865"/>
    <polyline points="569.054,737.5135 569.8108,736.0 569.8108,732.973 569.054,731.4595 568.2973,730.7027 566.027,729.1892"/>
    <polygon points="566.027,726.1622 566.7838,726.9189 567.5405,726.1622 566.7838,725.4054"/>
    <polyline points="537.2702,683.027 535.7567,683.7838 535.0,685.2973 535.0,686.8108 535.7567,688.3243 536.5135,689.0811 538.027,689.8378 539.5405,689.8378 541.054,689.0811 541.8108,687.5676 541.8108,686.0541 541.054,684.5406 539.5405,683.7838 535.0,682.2703 538.7838,683.027 541.054,683.027 541.8108,682.2703 541.8108,681.5135 541.054,680.0 540.2973,679.2433 538.027,677.7297"/>
    <polyline points="538.027,677.7297 535.7567,676.2162 534.2432,675.4595 535.7567,675.4595 538.027,673.946 539.5405,673.1892 541.054,673.1892 541.8108,674.7027"/>
    <polyline points="541.054,677.7297 541.8108,676.2162 541.8108,673.1892 541.054,671.6757 540.2973,670.9189 538.027,669.4054"/>
    <polyline points="538.027,657.2973 535.0,655.7838 539.5405,657.2973 541.054,657.2973 541.8108,656.5406 541.8108,655.027 541.054,653.5135 539.5405,652.0 537.2702,650.4865"/>
    <polyline points="535.0,649.7297 548.6216,654.2703 550.1351,655.027 550.8919,656.5406 550.1351,657.2973 548.6216,657.2973 546.3513,656.5406 544.0811,654.2703 542.5675,652.0 541.8108,650.4865 540.2973,648.2162 538.027,645.946"/>
    <polyline points="535.0,641.4054 535.0,642.9189 535.7567,644.4324 536.5135,645.1892 538.027,645.946 539.5405,645.946 541.054,645.1892 541.8108,643.6757 541.8108,642.1622 541.054,640.6487 540.2973,639.8919 538.7838,639.1351 537.2702,639.1351 535.7567,639.8919 535.0,641.4054 535.7567,642.1622 537.2702,642.1622 538.7838,641.4054 539.5405,639.8919 539.5405,637.6216 538.7838,636.1081 538.027,635.3514"/>
    <polyline points="538.027,635.3514 535.0,633.8378 539.5405,635.3514 541.054,635.3514 541.8108,634.5946 541.8108,633.0811 541.054,631.5676 539.5405,630.0541 537.2702,628.5406"/>
    <polyline points="535.0,627.7838 539.5405,629.2973 541.054,629.2973 541.8108,628.5406 541.8108,627.7838 541.054,626.2703 540.2973,625.5135 538.027,624.0"/>
    <polygon points="531.2162,810.1622 531.973,810.1622 531.973,809.4054 531.2162,809.4054"/>
    <polyline points="538.027,847.2433 540.2973,848.7568 541.054,849.5135 541.8108,851.027 541.8108,852.5406 541.054,854.0541 539.5405,854.8108 537.2702,854.8108 535.7567,854.0541 535.0,852.5406 535.0,851.7838 535.7567,851.027 537.2702,851.027 538.7838,851.7838 539.5405,852.5406 540.2973,854.0541"/>
    <polyline points="538.027,854.8108 540.2973,856.3243 541.054,857.0811 541.8108,858.5946 541.8108,859.3514 541.054,860.1081 540.2973,860.1081 538.027,859.3514 536.5135,859.3514 535.7567,860.1081 535.7567,862.3784 534.2432,862.3784 535.7567,863.1351 538.027,864.6487"/>
    <polyline points="538.027,864.6487 540.2973,866.1622 541.054,866.9189 541.8108,868.4324 541.8108,869.1892 541.054,869.946 538.7838,869.946 535.0,869.1892 539.5405,870.7027 541.054,871.4595 541.8108,872.973 541.8108,874.4865 541.054,876.0 539.5405,876.7568 538.027,876.7568 536.5135,876.0 535.7567,875.2433 535.0,873.7297 535.0,872.2162 535.7567,870.7027 537.2702,869.946"/>
    <polyline points="538.027,888.8649 540.2973,890.3784 541.054,891.1351 541.8108,892.6487 541.8108,893.4054 541.054,894.1622 539.5405,894.1622 535.0,892.6487"/>
    <polyline points="537.2702,893.4054 539.5405,894.9189 541.054,896.4324 541.8108,897.946 541.8108,899.4595 541.054,900.2162 539.5405,900.2162 535.0,898.7027 538.027,900.2162"/>
    <polyline points="538.027,900.2162 538.7838,900.973 539.5405,902.4865 539.5405,904.7568 538.7838,906.2703 537.2702,907.027 535.7567,907.027 535.0,906.2703 535.7567,904.7568 537.2702,904.0 538.7838,904.0 540.2973,904.7568 541.054,905.5135 541.8108,907.027 541.8108,908.5406 541.054,910.0541 539.5405,910.8108 538.027,910.8108 536.5135,910.0541 535.7567,909.2973 535.0,907.7838 535.0,906.2703"/>
    <polyline points="553.9189,888.8649 567.5405,893.4054 569.054,893.4054 569.8108,892.6487 569.8108,891.1351 569.054,889.6216 568.2973,888.8649 566.027,887.3514"/>
    <polyline points="594.027,940.3243 596.2973,941.8378 597.054,942.5946 597.8108,944.1081 597.8108,944.8649 597.054,945.6216 595.5405,945.6216 593.2702,944.8649 591.7567,944.8649 591.0,945.6216 591.0,947.1351 591.7567,948.6487 594.027,950.1622 595.5405,950.9189"/>
    <polyline points="597.8108,951.6757 595.5405,950.9189 592.5135,950.1622 591.7567,950.1622 591.0,950.9189 591.7567,952.4324 594.027,953.946"/>
    <polyline points="594.027,953.946 596.2973,955.4595 597.054,956.2162 597.8108,957.7297 597.8108,958.4865 597.054,959.2433 594.7838,959.2433 591.0,958.4865 595.5405,960.0 597.054,960.7568 597.8108,962.2703 597.8108,963.7838 597.054,965.2973 595.5405,966.0541 594.027,966.0541 592.5135,965.2973 591.7567,964.5406 591.0,963.027 591.0,961.5135 591.7567,960.0 593.2702,959.2433"/>
    <polyline points="594.027,978.1622 596.2973,979.6757 597.054,980.4324 597.8108,981.946 597.8108,983.4595 597.054,984.973 595.5405,985.7297 593.2702,985.7297 591.7567,984.973 591.0,983.4595 591.0,982.7027 591.7567,981.946 593.2702,981.946 594.7838,982.7027 595.5405,983.4595 596.2973,984.973"/>
    <polyline points="594.027,985.7297 596.2973,987.2433 597.054,988.0 597.8108,989.5135 597.8108,990.2703 597.054,991.027 596.2973,991.027 594.027,990.2703 592.5135,990.2703 591.7567,991.027 591.7567,993.2973 590.2432,993.2973 591.7567,994.0541 594.027,995.5676"/>
    <polyline points="594.027,995.5676 596.2973,997.0811 597.054,997.8378 597.8108,999.3514 597.8108,1000.1081 597.054,1000.8649 594.7838,1000.8649 591.0,1000.1081 595.5405,1001.6216 597.054,1002.3784 597.8108,1003.8919 597.8108,1005.4054 597.054,1006.9189 595.5405,1007.6757 594.027,1007.6757 592.5135,1006.9189 591.7567,1006.1622 591.0,1004.6487 591.0,1003.1351 591.7567,1001.6216 593.2702,1000.8649"/>
    <polyline points="594.027,1007.6757 596.2973,1009.1892 597.8108,1011.4595 597.8108,1013.7297 597.054,1015.2433 595.5405,1016.0 594.027,1016.0 592.5135,1015.2433 591.7567,1014.4865 591.0,1012.973 591.0,1011.4595 591.7567,1010.7027 592.5135,1010.7027"/>
    <polyline points="566.027,1007.6757 568.2973,1009.1892 569.8108,1011.4595 569.8108,1013.7297 569.054,1015.2433 567.5405,1016.0 566.027,1016.0 564.5135,1015.2433 563.7567,1014.4865 563.0,1012.973 563.0,1011.4595 563.7567,1010.7027 564.5135,1010.7027"/>
    <polyline points="565.2702,1000.8649 563.7567,1001.6216 563.0,1003.1351 563.0,1004.6487 563.7567,1006.1622 564.5135,1006.9189 566.027,1007.6757 567.5405,1007.6757 569.054,1006.9189 569.8108,1005.4054 569.8108,1003.8919 569.054,1002.3784 567.5405,1001.6216 563.0,1000.1081 566.7838,1000.8649 569.054,1000.8649 569.8108,1000.1081 569.8108,999.3514 569.054,997.8378 568.2973,997.0811 566.027,995.5676"/>
    <polyline points="566.027,995.5676 563.7567,994.0541 563.0,992.5406 563.7567,991.7838 564.5135,991.7838 567.5405,992.5406 569.8108,993.2973"/>
    <polyline points="567.5405,992.5406 566.027,991.7838 563.7567,990.2703 563.0,988.7568 563.0,987.2433 563.7567,986.4865 565.2702,986.4865 567.5405,987.2433 569.054,987.2433 569.8108,986.4865 569.8108,985.7297 569.054,984.2162 568.2973,983.4595 566.027,981.946"/>
    <polyline points="497.7297,1005.4054 498.4865,1004.6487 499.2432,1003.1351 499.2432,1000.8649 498.4865,999.3514 497.7297,998.5946 496.2162,997.8378 493.9459,997.8378 492.4324,998.5946 491.6757,999.3514 490.9189,1000.8649 490.9189,1004.6487 491.6757,1006.9189 492.4324,1008.4324 493.9459,1009.946 496.2162,1011.4595 497.7297,1012.2162 500.0,1012.973 503.7838,1013.7297 506.054,1013.7297 506.8108,1012.973 506.8108,1012.2162 506.054,1010.7027 504.5405,1009.1892 502.2702,1007.6757 500.7567,1006.9189 498.4865,1006.1622 495.4594,1005.4054 493.1892,1005.4054 492.4324,1006.1622"/>
    <polyline points="707.4324,1006.1622 708.1892,1005.4054 710.4594,1005.4054 713.4865,1006.1622 715.7567,1006.9189 717.2702,1007.6757 719.5405,1009.1892 721.054,1010.7027 721.8108,1012.2162 721.8108,1012.973 721.054,1013.7297 718.7838,1013.7297 715.0,1012.973 712.7297,1012.2162 711.2162,1011.4595 708.9459,1009.946 707.4324,1008.4324 706.6757,1006.9189 705.9189,1004.6487 705.9189,1002.3784 706.6757,1000.8649 708.1892,1000.1081 709.7027,1000.1081 711.2162,1000.8649 711.973,1001.6216 712.7297,1003.1351 713.4865,1005.4054"/>
    <polyline points="713.4865,1006.1622 713.4865,1005.4054 714.2432,1003.1351 715.0,1002.3784 716.5135,1001.6216 718.7838,1001.6216 720.2973,1002.3784 721.054,1003.1351 721.8108,1004.6487 721.8108,1006.9189 721.054,1008.4324 719.5405,1009.1892"/>
    <polyline points="720.2973,997.8378 719.5405,996.3243 718.7838,995.5676 717.2702,994.8108 715.7567,994.8108 715.0,995.5676 715.0,996.3243 715.7567,997.8378 717.2702,998.5946 719.5405,998.5946 721.054,997.8378 721.8108,996.3243 721.8108,994.8108 721.054,993.2973 720.2973,992.5406 718.027,991.027"/>
    <polyline points="718.027,991.027 715.7567,989.5135 714.2432,988.7568 715.7567,988.7568 718.027,987.2433 719.5405,986.4865 721.054,986.4865 721.8108,988.0"/>
    <polyline points="721.054,991.027 721.8108,989.5135 721.8108,986.4865 721.054,984.973 720.2973,984.2162 718.027,982.7027"/>
    <polyline points="718.027,982.7027 715.7567,981.1892 712.7297,979.6757"/>
    <line x1="711.973" x2="711.973" y1="981.946" y2="976.6487"/>
    <polyline points="718.027,975.8919 720.2973,977.4054 721.054,978.1622 721.8108,979.6757 721.8108,981.1892 721.054,981.946 719.5405,981.946 705.9189,977.4054"/>
    <polyline points="718.7838,972.1081 719.5405,972.8649 718.7838,973.6216 718.027,972.8649 718.7838,972.1081 720.2973,972.1081 721.8108,973.6216"/>
    <polygon points="736.2162,981.946 736.973,981.946 736.973,981.1892 736.2162,981.1892"/>
    <polyline points="743.027,984.2162 740.0,982.7027 744.5405,984.2162 746.054,984.2162 746.8108,983.4595 746.8108,982.7027 746.054,981.1892 745.2973,980.4324 743.027,978.9189"/>
    <polyline points="743.027,978.9189 740.7567,977.4054 740.0,975.8919 740.7567,975.1351 741.5135,975.1351 744.5405,975.8919 746.8108,976.6487"/>
    <polyline points="744.5405,975.8919 743.027,975.1351 740.7567,973.6216 740.0,972.1081 740.0,970.5946 740.7567,969.8378 742.2702,969.8378 744.5405,970.5946 746.054,970.5946 746.8108,969.8378 746.8108,969.0811 746.054,967.5676 745.2973,966.8108 743.027,965.2973"/>
    <polyline points="743.027,984.2162 745.2973,985.7297 746.054,986.4865 746.8108,988.0 746.8108,988.7568 746.054,989.5135 741.5135,989.5135 736.2162,988.7568 733.1892,988.0 731.6757,987.2433 730.9189,985.7297 731.6757,984.973 733.1892,984.973 735.4594,985.7297 736.973,986.4865 740.7567,988.7568 743.027,990.2703"/>
    <polyline points="743.027,990.2703 743.7838,991.027 744.5405,992.5406 744.5405,994.8108 743.7838,996.3243 742.2702,997.0811 740.7567,997.0811 740.0,996.3243 740.7567,994.8108 742.2702,994.0541 743.7838,994.0541 745.2973,994.8108 746.054,995.5676 746.8108,997.0811 746.8108,998.5946 746.054,1000.1081 744.5405,1000.8649 743.027,1000.8649 741.5135,1000.1081 740.7567,999.3514 740.0,997.8378 740.0,996.3243"/>
    <polyline points="743.027,1004.6487 744.5405,1005.4054 746.054,1006.9189 746.8108,1009.1892 746.8108,1010.7027 746.054,1012.2162 745.2973,1012.973 743.027,1013.7297 740.0,1013.7297 736.973,1012.973 735.4594,1012.2162 733.1892,1010.7027 731.6757,1009.1892 730.9189,1006.9189 730.9189,1004.6487 731.6757,1003.1351 733.1892,1002.3784 734.7027,1002.3784 736.2162,1003.1351 736.973,1004.6487 736.973,1006.1622 736.2162,1006.9189 735.4594,1006.9189"/>
    <polyline points="742.2702,946.3784 740.7567,947.1351 740.0,948.6487 740.0,950.1622 740.7567,951.6757 741.5135,952.4324 743.027,953.1892 744.5405,953.1892 746.054,952.4324 746.8108,950.9189 746.8108,949.4054 746.054,947.8919 744.5405,947.1351 740.0,945.6216 743.7838,946.3784 746.054,946.3784 746.8108,945.6216 746.8108,944.8649 746.054,943.3514 745.2973,942.5946 743.027,941.0811"/>
    <polyline points="743.027,941.0811 740.7567,939.5676 740.0,938.0541 740.7567,937.2973 741.5135,937.2973 744.5405,938.0541 746.8108,938.8108"/>
    <polyline points="744.5405,938.0541 743.027,937.2973 740.7567,935.7838 740.0,934.2703 740.0,932.7568 740.7567,932.0 742.2702,932.0 744.5405,932.7568 746.054,932.7568 746.8108,932.0 746.8108,931.2433 746.054,929.7297 745.2973,928.973 743.027,927.4595"/>
    <polyline points="742.2702,920.6487 740.7567,921.4054 740.0,922.9189 740.0,924.4324 740.7567,925.946 741.5135,926.7027 743.027,927.4595 744.5405,927.4595 746.054,926.7027 746.8108,925.1892 746.8108,923.6757 746.054,922.1622 744.5405,921.4054 730.9189,916.8649"/>
    <polyline points="740.0,919.8919 743.7838,920.6487 746.054,920.6487 746.8108,919.8919 746.8108,919.1351 746.054,917.6216 745.2973,916.8649 743.027,915.3514"/>
    <polyline points="743.027,898.7027 742.2702,900.2162 742.2702,901.7297 743.027,902.4865 744.5405,902.4865 746.054,901.7297 746.8108,900.2162 746.8108,898.7027 746.054,897.1892 744.5405,895.6757 743.027,894.9189 739.2432,893.4054 735.4594,892.6487 733.1892,892.6487 731.6757,893.4054 730.9189,894.1622 730.9189,895.6757 731.6757,896.4324 733.1892,897.1892 735.4594,897.1892 737.7297,896.4324 739.2432,895.6757 741.5135,894.1622 743.027,892.6487"/>
    <polyline points="742.2702,883.5676 740.7567,884.3243 740.0,885.8378 740.0,887.3514 740.7567,888.8649 741.5135,889.6216 743.027,890.3784 744.5405,890.3784 746.054,889.6216 746.8108,888.1081 746.8108,886.5946 746.054,885.0811 744.5405,884.3243 740.0,882.8108 743.7838,883.5676 746.054,883.5676 746.8108,882.8108 746.8108,882.0541 746.054,880.5406 745.2973,879.7838 743.027,878.2703"/>
    <polyline points="743.027,878.2703 740.7567,876.7568 740.0,875.2433 740.7567,874.4865 741.5135,874.4865 744.5405,875.2433 746.8108,876.0"/>
    <polyline points="744.5405,875.2433 743.027,874.4865 740.7567,872.973 740.0,871.4595 740.0,869.946 740.7567,869.1892 742.2702,869.1892 744.5405,869.946 746.054,869.946 746.8108,869.1892 746.8108,868.4324 746.054,866.9189 745.2973,866.1622 743.027,864.6487"/>
  </g>
  <g fill="none" id="layer2" inkscape:groupmode="layer" inkscape:label="2" stroke="#080" style="display:inline">
    <polyline points="80.9266,761.9648 80.9273,761.9756 80.9298,762.0079 80.9342,762.0611 80.9407,762.1348 80.9495,762.2284 80.9608,762.3415 80.9749,762.4737 80.9919,762.6244 81.0121,762.7932 81.0357,762.9796 81.0628,763.1832 81.0937,763.4033 81.1286,763.6397 81.1676,763.8917 81.2111,764.1589 81.2592,764.4409 81.3122,764.7372 81.3701,765.0472 81.4334,765.3706 81.502,765.7068 81.5763,766.0553 81.6565,766.4158 81.7428,766.7876 81.8353,767.1704 81.9343,767.5636 82.0401,767.9669 82.1527,768.3796 82.2725,768.8013 82.3996,769.2316 82.5342,769.67 82.6766,770.1159 82.8269,770.569 82.9854,771.0287 83.1522,771.4946 83.3277,771.9662 83.5119,772.443 83.7051,772.9246 83.9075,773.4104 84.1193,773.9 84.3408,774.3929 84.5721,774.8886 84.8134,775.3868 85.065,775.8867 85.327,776.3881 85.5997,776.8905 85.8833,777.3932 86.1779,777.896 86.4838,778.3982 86.8013,778.8995 87.1304,779.3994 87.4715,779.8973 87.8246,780.3928 88.1438,780.8185 88.4736,781.2331 88.8137,781.6369 89.1634,782.0299 89.5224,782.4123 89.8901,782.7842 90.2659,783.1458 90.6495,783.4972 91.0403,783.8385 91.4377,784.1699 91.8414,784.4915 92.2507,784.8035 92.6652,785.106 93.0843,785.399 93.5077,785.6829 93.9347,785.9577 94.3648,786.2235 94.7977,786.4805 95.2326,786.7288 95.6693,786.9686 96.107,787.1999 96.5455,787.423 96.984,787.638 97.4222,787.845 97.8595,788.0442 98.2955,788.2356 98.7295,788.4195 99.1612,788.596 99.59,788.7651 100.0154,788.9271 100.437,789.0821 100.8541,789.2302 101.2663,789.3716 101.6732,789.5064 102.0741,789.6347 102.4686,789.7567 102.8562,789.8725 103.2363,789.9822 103.6086,790.0861 103.9724,790.1842 104.3273,790.2766 104.6728,790.3636 105.0083,790.4452 105.3334,790.5216 105.6475,790.5929 105.9502,790.6593 106.2409,790.7208 106.5192,790.7778 106.7845,790.8302 107.0363,790.8782 107.2742,790.9219 107.4976,790.9616 107.706,790.9973 107.899,791.0291 108.0759,791.0573 108.2364,791.0819 108.3799,791.1031 108.5058,791.121 108.6138,791.1358 108.7033,791.1476 108.7738,791.1565 108.8247,791.1627 108.8557,791.1664 108.8661,791.1675"/>
  </g>
</svg>
