<?xml version="1.0" encoding="utf-8" ?>
<svg xmlns="http://www.w3.org/2000/svg" xmlns:cc="http://creativecommons.org/ns#" xmlns:dc="http://purl.org/dc/elements/1.1/" xmlns:ev="http://www.w3.org/2001/xml-events" xmlns:inkscape="http://www.inkscape.org/namespaces/inkscape" xmlns:rdf="http://www.w3.org/1999/02/22-rdf-syntax-ns#" xmlns:sodipodi="http://sodipodi.sourceforge.net/DTD/sodipodi-0.dtd" xmlns:xlink="http://www.w3.org/1999/xlink" baseProfile="tiny" height="27.94cm" version="1.2" viewBox="0 0 1632.0 1056.0" width="43.18cm">
  <metadata>
    <rdf:RDF>
      <cc:Work>
        <dc:format>image/svg+xml</dc:format>
        <dc:source>vpype read /Users/cj/Documents/Projects/greeting-cards-2021/inside/person-maps/p1.svg pagesize 5.5inx8.5in ldelete 2 splitall linemerge --tolerance 1.2mm linesimplify --tolerance 0.2mm rotate 270 layout -l -h left -v top 11inx17in ldelete 3 linesort write /Users/cj/Documents/Projects/greeting-cards-2021/inside/11x17/individual/insides-map-onecard-11x17-0.svg
</dc:source>
        <dc:date>2022-02-09T18:48:09.038095</dc:date>
      </cc:Work>
    </rdf:RDF>
  </metadata>
  <defs/>
  <g fill="none" id="layer1" inkscape:groupmode="layer" inkscape:label="1" stroke="#00f" style="display:inline">
    <polyline points="97.7717,196.8532 90.718,200.3687 83.0852,206.7288 94.7198,199.7112 97.7717,196.8532 98.0379,195.0251 90.1012,200.062 82.3249,206.8846 94.4588,197.1426 101.0682,194.2156 92.4044,201.7676 94.3701,202.2972 99.1393,200.7103 98.8692,203.1556 101.7359,203.1803 106.6955,196.1178 105.4701,195.9063 105.7499,193.8394 96.7467,195.8116 82.3249,206.8846 102.95,192.5913 114.8686,190.1502 115.2478,189.0842 114.2342,189.7473 122.9634,189.5382 127.2951,187.94 117.2574,188.4357 105.036,192.2439 105.2382,193.1128 108.2155,191.748 104.5213,193.69 109.6004,192.3253 110.0747,191.6481 108.2155,191.748 110.8771,190.4185 108.2155,191.748 110.0747,191.6481 107.1546,195.7962 109.0342,195.2956 105.65,197.039 103.1442,201.2719 104.2921,201.6844 111.6026,198.3803 110.2963,195.5194 109.0342,195.2956 110.2963,195.5194 111.6026,198.3803 118.7546,196.9778 120.3303,193.3987 124.2751,189.2206 112.3382,190.0987 115.584,188.8542 114.6749,188.2685 103.378,193.1632 91.7495,203.1227 84.1821,214.3849 79.7722,224.9733 76.9658,236.6337 75.8445,249.0266 76.4411,261.7911 72.1192,278.6597 71.5254,288.7028 72.5789,298.0457 71.6727,298.3126 74.6124,298.4634 75.3309,296.0576 75.3874,298.0646 76.8659,297.1554 86.8542,305.7684 82.0183,299.9733 81.557,300.836 79.4794,298.8696 76.8337,287.815 72.4449,283.5905 69.9336,283.9507 71.4472,288.1408 69.1726,286.5241 71.2826,289.8632 71.2793,290.8602 69.7357,290.9052 70.0467,292.3709 73.3639,297.9893 67.7427,297.9829 65.5099,290.3909 66.2579,281.5694 69.9546,271.8976 76.441,261.7912 83.7085,273.1849 98.1861,289.3218 115.8205,303.0878 135.0932,313.2973 154.3443,319.0711 171.005,319.9984 183.4262,317.1015 190.1322,313.3139 195.365,308.1534 184.4032,319.7235 171.2753,328.7616 156.5553,334.8728 140.8863,337.7899 124.9532,337.3852 109.4523,333.677 95.0612,326.827 85.3771,319.803 72.0479,305.0235 67.3025,297.1128 65.6267,291.4143 65.6273,284.9984 67.3044,278.0203 76.4411,261.7911 105.0449,274.0829 140.6859,283.4718 165.3226,287.0849 186.7731,287.722 202.4603,284.9967 206.9889,282.4266 209.0774,279.1586 206.638,287.4398 197.631,305.0351 192.9425,310.8975 186.9531,315.3865 179.5751,318.4474 171.005,319.9984 154.3444,319.0711 135.0933,313.2973 115.8206,303.0877 103.7842,294.2377 92.9413,284.1408 79.8099,267.5156 76.4411,261.7912 80.4019,256.9879 95.2528,243.0377 113.5131,230.7026 133.6104,221.0448 147.1764,216.5162 160.2685,213.7275 177.617,212.9953 160.2685,213.7275 147.1764,216.5161 120.0917,227.1391 95.2528,243.0376 84.8871,252.2306 76.4411,261.791 69.9186,245.2814 68.5027,232.9816 70.5589,222.1896 76.8311,212.3248 88.3834,201.3443 105.6113,191.3793 124.8312,186.2127 140.7637,185.7831 156.4373,188.675 171.1673,194.7624 187.278,206.4477 197.6388,218.5589 201.944,225.5995 194.496,217.9332 186.9453,214.6602 177.617,212.9953 186.9453,214.6602 194.496,217.9332 200.0113,222.7026 203.7462,229.161 208.0024,240.3415 210.8633,256.0208 210.83,267.984 208.9257,279.7947 208.1863,279.353 209.9238,261.7911 209.0339,249.1506 206.4065,237.1093 201.141,224.2509 198.8182,220.3238 190.9605,216.1014 182.4848,213.6219 172.3835,212.7858 157.0679,214.2545 143.8091,217.4909 126.8123,223.9095 110.2969,232.5987 92.502,245.2817 76.4411,261.7911 64.9481,269.9662 61.0137,275.3464 60.6619,279.3824 58.6255,263.5748 59.9202,247.6893 64.4894,232.42 74.3217,215.4288 69.7221,224.7137 68.5309,235.9393 70.8103,248.5178 76.441,261.791 69.9546,271.8974 66.2578,281.5692 65.5098,290.3907 67.7425,297.9827 60.6619,279.3824 59.957,273.4155 62.4532,276.1575 60.167,270.5608 58.9844,258.1743 58.6698,263.0029 59.3013,251.511 62.0529,239.4089 67.0365,228.3144 71.2499,222.0846 74.1128,220.0331 74.7571,221.9079 76.3402,220.2332 77.7247,220.8416 81.9113,217.905 83.9384,214.2963 86.7087,213.6281 88.5715,214.575 91.387,213.1181 93.0564,211.2725 93.0477,209.1597 95.949,207.4272 97.7405,204.4793 100.8953,207.2612 101.1285,209.5425 96.1547,212.7218 97.5975,214.9004 96.991,217.0803 98.1785,217.3122 95.7354,221.057 96.5063,222.3687 93.1029,227.0717 89.9341,228.8329 87.1037,235.7855 85.1745,236.9392 83.7218,233.2371 85.1209,231.4802 86.9065,233.289 87.1373,228.9522 86.5086,230.6145 85.8372,229.5835 83.4242,231.231 82.3449,234.0604 82.2667,231.8387 79.1569,234.5247 79.3495,233.58 77.4362,234.1703 76.7896,236.0142 74.8232,235.1163 73.7417,240.95 73.3252,236.2608 74.8488,233.1717 73.3595,234.5286 72.1695,237.4832 73.2317,237.014 73.3621,239.4736 71.0233,241.7632 71.7734,243.2254 69.3482,252.2714 67.4604,253.5868 67.102,249.5794 65.2358,257.1884 63.7382,257.9257 64.1291,271.6475 66.8628,279.3662 66.0587,282.4496 65.368,281.7817 65.6189,284.0753 61.3228,276.8273 61.2832,278.5765 61.6849,277.6054 66.2002,287.5442 71.1002,293.9407 76.8974,298.1462 83.1967,299.8742 89.5688,299.0069 95.5796,295.6034 100.8192,289.8957 104.9308,282.2726 107.6341,273.2538 108.7448,263.4539 108.1873,253.5406 105.9996,244.1896 102.3307,236.0381 97.4308,229.6416 91.6336,225.4361 85.3343,223.7081 77.9237,224.9707 72.0142,228.7788 66.9395,234.8367 62.5314,244.1896 60.1351,255.1718 60.1351,268.4105 62.0586,277.9011 65.0766,274.0428 67.7678,277.6373 66.8629,279.3662 68.6454,285.2914 67.7221,285.9694 66.0587,282.4496 66.8629,279.3662"/>
    <polyline points="68.5745,288.3059 68.1063,287.1582 69.7899,292.2197"/>
    <polyline points="81.4261,283.5858 87.3486,297.1838 95.0963,309.4217 90.6482,310.1506 94.8499,312.1578 91.2075,310.0829 95.0963,309.4217 105.621,320.9805 117.5658,329.6631 126.0333,333.6386 136.1399,336.3069 145.45,336.2227 153.5968,332.2265 159.3459,327.8158 169.4953,315.7 177.2831,299.9105 180.8932,287.8663 183.1041,275.0298 183.4293,251.84 181.5805,238.8657 178.3115,226.588 169.4953,207.8822 162.9516,199.3401 153.5968,191.3558 145.45,187.3596 136.9809,185.625 128.4306,186.3408 130.7616,186.8975 130.2329,187.4728 121.8191,187.1898 131.9903,185.8346 143.7838,186.4164 134.8824,186.2491 142.0641,188.0139 140.9438,189.5798 131.5289,189.9347 128.349,189.0306 129.9857,187.8764 127.7248,187.9562 130.813,187.0578 128.4306,186.3408 134.8824,186.2491 134.6915,187.5233 124.6038,190.5001 114.8175,195.5761 110.7877,198.3591 110.6855,199.3412 113.3829,199.6235 110.2578,201.9096 104.8041,201.5313 108.1558,199.6837 113.314,199.9665 115.9827,198.3043 113.8782,199.4535 113.5845,202.2567 111.5251,202.0619 113.5367,201.7796 112.2288,203.5249 114.1206,204.0627 114.7486,205.6149 112.4736,208.3554 106.1637,207.5163 104.0435,205.3675 100.6997,205.1992 100.7717,202.5766 101.7359,203.1802 103.1442,201.2719 112.2077,202.8995"/>
    <polyline points="122.259,202.8446 128.0701,199.5999 118.5056,205.2386 118.9074,206.0738 117.6879,204.9524 118.5056,205.2386 118.2355,208.2976 117.1632,209.1846 116.5586,208.3444 116.3794,210.9981 114.6353,211.3702 110.8041,209.2986 114.0504,210.3052 115.5517,208.0124 117.6551,207.3448 115.0636,208.2473 116.3794,210.9981 114.1868,213.217 113.4738,212.6602 115.5757,210.9692 113.2101,212.3435 112.3476,211.8559 113.0228,210.825 110.2002,213.2514 107.3898,210.5144 109.2535,209.8401 109.525,208.2419 111.1342,208.4754 111.8967,208.8756 110.6705,209.6743 109.4287,209.2292 114.6353,211.3702 113.3685,213.1182 112.313,212.4104 114.4718,212.9533 114.2903,214.5993 114.327,213.8046 112.8121,214.3181 113.3685,213.1182"/>
    <line x1="118.4002" x2="118.4002" y1="221.228" y2="221.228"/>
    <line x1="124.9412" x2="124.9412" y1="221.7302" y2="221.7302"/>
    <polyline points="125.6623,216.0982 129.6948,221.3877 132.9454,223.5801 136.2088,221.3843 143.487,227.0158 145.2773,226.574 149.5084,212.2583 147.5564,210.2311 139.2231,206.7287 137.799,209.756 134.2085,210.8131 129.8285,215.0999 125.6623,216.0982 124.402,214.3101 125.6623,216.0982 129.8285,215.0999 132.5329,211.4893 139.0304,208.4875 138.824,204.6905 136.7581,203.8154 135.6162,197.2081 132.1864,197.735 123.2891,192.9499 119.3318,198.1466 119.4298,196.8721 115.4264,199.2149 117.3053,197.6197 114.8549,197.3359 110.6855,199.3412 113.3114,199.2239 111.4271,200.9281 115.9622,199.0347 119.943,200.6444 122.259,202.8446 122.6278,205.4883 126.998,205.1901 127.8826,207.6868 128.0206,213.4488 124.402,214.3101 122.6327,214.0533 122.4273,211.6426 120.4752,212.3839 122.6327,214.0533 121.4335,217.0524 129.8139,232.59 133.9534,249.1506 134.5221,269.4142 130.6017,288.7583 128.9642,293.1706 127.2701,292.8736 127.6408,290.6325 125.0388,289.4685 124.537,286.4038 121.1129,286.2858 123.0772,289.9686 121.9919,292.9045 123.0246,300.2178 118.6691,298.0252 112.8876,299.7015 111.7839,301.6799 103.6013,307.6607 94.8076,311.4196 95.8601,312.3274 94.232,312.2107 102.3469,320.7591 108.2556,323.7264 112.6388,324.4511 118.081,323.3845 120.738,321.21 125.8148,321.3383 126.1741,319.9119 133.1436,319.5548 130.7307,318.27 130.7628,316.1407 133.8114,312.8565 132.3554,312.3404 134.4051,309.2521 136.4158,307.4356 143.6272,306.8242 142.2776,305.6591 136.3653,305.1671 133.1165,298.0083 129.4048,297.1119 130.3201,296.8357 127.5914,294.3463 127.7345,292.7211 128.9642,293.1706 123.848,303.0877 114.6372,313.5945 105.4283,318.809 94.0312,319.9711 86.0145,317.4903 77.1327,311.0471 70.8683,303.2585 73.4569,301.5317 72.5789,298.0457 75.5608,299.707 74.623,299.1724 73.4569,301.5317 76.7611,309.4913 83.8988,318.5097"/>
    <polyline points="100.8017,330.0078 106.8721,332.3437 114.8686,333.4321"/>
    <line x1="134.8433" x2="155.0117" y1="338.0298" y2="335.3137"/>
    <polyline points="168.8849,330.0078 177.843,323.834 184.4183,316.6713"/>
    <polygon points="174.9543,305.8293 171.5074,309.609 172.9759,311.7013 175.1216,310.4712 176.4784,311.1471 177.8227,309.6664 176.7028,309.0068 176.2505,306.1238"/>
    <polygon points="181.4955,299.767 176.6681,299.9706 176.7509,298.9381 175.5874,299.719 177.2987,296.2479 175.1762,297.3433 171.9645,296.7286 168.2731,302.3445 165.8817,303.1681 163.2897,300.4423 163.0553,304.534 165.447,307.0601 164.5514,307.542 169.8724,307.745 171.5074,309.609 178.1597,303.453 180.0048,299.9518 180.7256,300.6696 181.4955,299.767 180.7256,300.6696 180.0048,299.9518 178.1597,303.453 174.9543,305.8293 176.2505,306.1238 176.7028,309.0068 177.8227,309.6664 175.6628,311.5001 177.5749,311.7195 187.99,305.0807 193.4353,297.9215 189.4573,297.5178 182.7965,304.0554 181.0455,303.0223"/>
    <polyline points="171.6946,287.5982 174.2244,289.4324 175.4552,288.5189 176.2137,291.4829 175.3369,293.4156 177.5217,292.0391 178.0618,295.2806 175.1762,297.3433 171.9645,296.7286 168.2731,302.3444 165.8817,303.1681 163.7523,301.3104 166.8127,301.3364 164.7699,300.8646 164.0066,299.0572 166.8273,296.8383 168.3651,290.6987 170.548,288.4941 171.467,289.1919 171.6946,287.5982 175.1911,284.1956 177.0635,285.3564 179.8284,283.4097 179.6984,286.8955 175.5407,287.7522 174.2244,289.4324 172.0221,287.3842 169.5008,289.4206 164.5714,288.034 159.362,290.1085 157.0014,299.6387 154.8316,302.694 155.364,300.4356 153.5532,300.9568 154.3545,299.5876 156.3737,299.9567 154.2345,299.3099 157.1616,296.1256"/>
    <line x1="151.9256" x2="151.9256" y1="298.956" y2="298.956"/>
    <polyline points="152.8861,306.5316 154.1542,304.7301 150.3186,309.2927 146.592,308.8546 149.0356,306.0759 150.7666,304.9548 151.4687,305.6565 152.836,302.0935 146.1257,307.4728 145.0052,311.0811 145.9783,308.7721 146.9376,309.746"/>
    <line x1="145.636" x2="144.4298" y1="304.1871" y2="303.2783"/>
    <line x1="141.2677" x2="141.2677" y1="288.7521" y2="288.7521"/>
    <polyline points="124.1066,276.4413 122.9754,278.6364 124.0739,274.164 125.0295,274.1048 124.0235,273.0632 121.3959,273.7482 120.2004,275.8508 118.4934,274.4312 122.9754,278.6364 123.3813,282.9906 124.6614,280.8801 123.7676,279.9354 124.5817,281.2175 125.1861,280.3544 120.4983,280.3317 118.925,281.8504 120.4983,280.3317"/>
    <polyline points="110.8357,291.9047 109.9618,292.2688 110.8357,291.9047 107.4432,288.3983 107.4931,289.2431"/>
    <polyline points="100.5822,284.2708 101.386,284.9511 100.5822,284.2708 99.7465,286.3885 99.1078,284.1595 97.2692,286.5957 95.6297,284.341 99.1078,284.1595"/>
    <polygon points="95.2759,278.2147 96.1013,279.5235"/>
    <polygon points="89.4376,275.4494 90.2757,276.167 90.6969,275.1539"/>
    <polyline points="86.1022,270.2447 88.1862,270.6273 89.7396,267.7758 94.3771,268.2759 95.3092,266.5894 95.2933,267.9209 96.5164,266.5576 100.3761,268.9822 107.5135,266.832 108.8168,264.0036 101.9542,261.7696 101.585,259.8198 98.4303,257.9492 97.7256,255.2523 96.13,254.1633 95.8493,256.7295 94.8814,255.735 95.277,253.7361 93.4242,255.708 93.5953,254.6717 91.0471,254.515 85.5228,257.2058 83.3558,256.6258 83.6008,259.072 82.918,258.6769 82.2272,260.7531 82.8571,262.8466 83.9695,262.7904 83.381,265.1566 86.1022,270.2447 84.457,273.3176 85.4801,275.3466 87.0108,273.6673 82.5166,265.6161 81.4322,270.1021 82.3366,270.9738 83.41,269.8637 84.0714,273.8915 83.6549,271.6726 81.5271,271.592 84.1499,275.0856 81.3688,274.9935 82.7887,275.7215 81.518,274.4324 79.2234,276.4386 81.4261,283.5858 82.3738,282.8249 79.8288,282.2717 81.4564,286.2836 82.3738,282.8249 85.0339,282.1326 84.4485,281.1877 86.4035,284.089 88.074,284.5588 88.3034,286.4479 86.9799,286.3746 85.7213,288.5369 83.6422,287.0897 84.8462,286.0737 82.9236,286.2308 82.1618,283.7669 86.2111,281.4397 86.0261,279.6518 87.6938,282.6663 85.7077,281.8461 87.265,280.4004 86.676,278.4466 87.4277,278.1016 87.9222,281.1064 87.265,280.4004 89.0713,279.8946 88.402,276.8529 90.5777,279.8124 88.8769,276.2655 90.5436,277.0547 91.1903,275.0509 93.7995,274.0329 96.3029,274.8958 99.3219,272.7679 100.7846,274.5313 99.115,276.5069 101.84,275.7311 103.2547,276.708 102.4027,277.8157 104.0623,277.6936 99.3318,280.2715 98.9421,282.0016 97.9083,280.9959 98.5881,279.2402 95.754,277.3017 94.7657,278.2321 92.4288,277.7355 92.5418,279.4188 90.5357,280.9318 86.9714,277.3153 84.2048,276.4367 85.07,275.4992 86.4697,276.01 87.7924,274.0157 88.3474,275.3934 86.027,278.2696 85.3704,277.2194 86.201,277.9817 83.9504,278.7138 83.634,277.1365 85.1079,278.3612 83.4582,277.8404 82.5423,281.3257 81.0354,280.7217 80.9314,279.1064 82.6776,279.6144 82.125,278.0604 83.2466,278.8703 80.8835,277.5474 81.0747,276.6024 79.832,280.007 81.1341,276.2172 79.2234,276.4386 76.4411,261.7911 84.887,271.3516 95.2527,280.5446 116.7806,294.7011 143.8091,306.0914 166.4783,310.5604 182.4848,309.9604 190.9605,307.4808 196.0742,304.5915 201.944,297.9828 208.1863,279.353 205.6509,290.0457 201.182,294.9258 199.8017,294.0357 198.4353,294.8699 197.451,293.5165 202.096,282.5995 202.8075,283.4531 203.0186,278.2882 203.8183,278.0208 204.7137,281.9322 205.8856,281.9749 207.4348,279.2934 206.0172,281.7624 204.5846,281.7269 206.5707,276.3538 206.8727,279.148 205.5491,278.9442 204.5846,281.7269 203.3665,277.9554 199.9672,283.6107 197.5217,283.649 195.3612,287.0328 193.341,287.7288 190.9975,292.5705 188.3312,294.0193 187.5954,299.4528 186.0497,300.1118 184.8432,302.9849 182.7965,304.0554 181.0455,303.0223 181.4955,299.767 176.6681,299.9706 176.7509,298.938 175.5874,299.719 178.2355,294.4418 177.5217,292.0391 175.3369,293.4156 176.2137,291.4829 175.3266,287.9341 179.0019,287.5472 179.9799,286.4335 180.0005,279.9197 179.8527,281.0137 176.2983,279.9447 178.5817,277.1509 180.2004,278.5384 180.0005,279.9197 178.62,276.5873 181.3985,274.9682 184.3857,277.5678 185.0867,273.7 184.0764,271.6072 186.2457,267.5127 186.7031,261.7442 189.1141,255.4886 192.1479,255.4337 195.545,260.2185 199.2827,260.7187 202.2019,263.1752 203.5186,271.2602 205.3072,272.0335 206.9288,276.4515 205.5491,278.9442 203.4699,279.5388 202.8075,283.4531 202.096,282.5995 198.8048,288.9688 197.3429,288.4056 198.4449,284.1695 197.3429,288.4056 198.8048,288.9688 197.4226,294.6503 192.8077,297.792 189.4573,297.5178 187.7815,298.7383 188.3312,294.0193 190.9975,292.5705 193.341,287.7288 195.3612,287.0328 197.5217,283.649 199.9672,283.6107 202.0183,278.9191 203.4699,279.5388"/>
    <polyline points="205.1586,291.2535 202.6607,295.4032 193.0934,297.9428 197.8537,293.6606 198.4354,294.8699 199.8018,294.0357 201.3626,294.842 205.7783,289.7279 204.0424,293.605 204.5656,292.5458"/>
    <line x1="202.1662" x2="198.8182" y1="297.3442" y2="303.2585"/>
    <polyline points="184.2534,277.4192 183.1854,275.3548 183.684,272.9015 184.7494,273.6201 184.2401,276.0208"/>
    <polygon points="176.6984,280.3547 175.3614,283.9211 177.0635,285.3564 180.0435,282.8198 179.4235,280.4645"/>
    <line x1="166.6214" x2="166.6214" y1="286.5714" y2="286.5714"/>
    <line x1="164.6566" x2="163.7343" y1="297.653" y2="298.9003"/>
    <polygon points="164.5514,307.542 160.6436,313.0226 162.1989,313.1544 164.2806,311.2576 163.0801,309.6278 165.8551,308.2523"/>
    <polygon points="158.6041,313.4549 157.201,315.3813 162.1989,313.1544"/>
    <polyline points="152.4526,316.8979 150.4341,316.5213 151.2142,317.823 152.4526,316.8979 151.5138,318.602 154.0878,316.4214 154.2656,312.1637 153.9696,316.7274 157.201,315.3813 158.6041,313.4549 153.863,312.3028 150.4341,316.5213 147.4849,316.7042 149.6227,317.3283 147.4849,316.7042 146.342,318.1897 148.6606,318.2763 147.839,319.3124 148.7383,319.8599 147.839,319.3124 148.6606,318.2763 146.342,318.1897"/>
    <polygon points="133.179,319.373 131.3602,320.3675 126.1741,319.9118 124.8298,321.5534 120.738,321.21 118.081,323.3845 112.6388,324.4511 123.9983,327.6174 127.6256,327.4019 114.9617,324.3319 135.1218,326.9673 143.9155,323.7841 145.8665,321.2746 151.5138,318.602 150.4341,316.5213 149.6227,317.3283 147.7837,315.7195 146.342,318.1897 147.6136,315.335 144.7282,313.548 143.116,316.0695 145.2428,318.1548 143.6338,320.7955 137.7292,321.6647"/>
    <polygon points="165.4765,321.267 166.7004,320.9525"/>
    <polyline points="211.082,261.7911 76.4411,261.7911 71.684,240.8377 71.7497,231.0442 73.4569,222.0506 71.2499,222.0846 74.1129,220.0331 74.7571,221.9079 76.3402,220.2332 77.7247,220.8416 81.9113,217.905 83.9384,214.2963 86.7088,213.6281 88.5715,214.575 91.387,213.1181 93.2505,209.3913 90.5015,209.5555 93.8331,207.2523 94.3413,204.9933 92.4483,204.8464 88.0436,209.0014 87.2618,207.6892 85.3724,208.5407 85.1248,206.8766 77.3515,212.9756 70.316,222.6487 84.3001,204.7315 73.8706,216.0235 67.4616,226.1253 74.45,215.4575 82.9371,207.8345 92.4031,203.8885 100.5749,203.6111 107.0192,205.3789 113.1683,208.8607 121.4335,217.0524 120.4249,218.3144 121.5828,218.6789 123.2346,217.1012 120.9643,217.5085 119.1707,219.5885 120.2646,218.4992 119.2454,218.7646 118.0777,216.8075 115.8556,218.2945 111.1775,218.448 113.7377,222.2493 112.155,218.9999 113.5128,218.5721 111.8357,218.2331 113.9789,218.4658 114.2903,214.674 112.8402,217.3501 111.4883,215.8088 113.3043,217.0558 114.2368,213.9435 110.4836,216.3847 111.8357,218.2331 109.2244,218.9409 109.2369,220.8203 111.6727,220.9593 113.2491,222.6296 117.2097,222.685 118.3569,221.2039 116.8881,219.7651 118.4727,213.5422 120.7021,212.1062 117.294,213.1805 116.8135,212.0792 115.539,218.5073 112.4288,219.5124 113.5582,221.5968 115.3759,221.7272 114.5621,223.9945 115.9686,223.9527 112.0158,226.1026 112.3996,230.7741 110.513,231.1216 108.271,236.2936 106.28,236.4426 105.9372,238.7878 108.4275,238.2882 110.8845,234.6026 113.5675,234.9257 113.8899,233.1352 115.7216,234.066 112.075,229.4298 115.1086,229.9417 115.2488,231.3251 116.3269,230.3883 118.0776,232.3101 118.9729,228.7552 122.9068,226.952 121.8012,223.2626 120.0814,223.3982 119.7743,221.6517 118.3569,221.2039 115.9686,223.9527 115.3759,221.7272 113.5582,221.5968 113.3774,223.3416 114.5621,223.9945 112.2522,224.5227 112.075,229.4298 110.923,228.5056 112.075,229.4298 112.5835,226.3286 110.923,228.5056 107.9076,228.6788 111.4581,229.1248 111.1575,227.0965 104.1114,228.9315 102.4437,230.4986 104.0725,230.5283 105.3494,228.2759 107.4753,228.6146 112.5835,226.3287 112.2522,224.5227 113.9996,223.8139 113.1308,222.0142 109.993,221.2331 109.3332,223.0636 107.3739,222.4619 104.6921,225.1831 104.6244,226.6042 105.6228,226.7233 104.7126,228.905 104.6369,228.0237 103.0952,228.1999 104.2513,227.6556 100.5188,227.2183 97.1128,228.8871 94.7778,232.3022 90.3266,233.6706 88.9074,238.0231 88.0457,236.5842 86.2316,237.705 86.6093,236.3156 86.2316,237.705 88.0457,236.5842 88.9074,238.0231 90.5361,232.5124 93.8717,231.0981 95.4681,228.9169 95.1424,227.5758 93.1029,227.0717 90.2517,228.5252 87.1037,235.7856 85.2682,237.4696 85.6451,238.9498 89.1788,239.0503 96.6025,235.9615 99.0804,236.5089 102.3531,234.1457 102.9994,232.2617 100.4974,231.1415 97.7686,232.6463 100.6275,231.2024 103.4459,227.0243 98.8104,226.9748 102.5304,222.4603 100.5091,221.6348 103.0691,218.4855 106.3735,217.0491 109.2244,218.9409 110.9176,218.5282 111.1276,216.7104 109.6186,215.9055 110.4836,216.3847 112.8121,214.3181 112.3476,211.8559 110.2002,213.2514 109.6186,215.9055 105.5225,217.4747 106.5181,219.24 108.3298,219.6367 106.6546,219.8745 107.5268,222.7096 109.7913,222.4094 110.0589,220.979 108.3298,219.6367 109.1689,218.4499 106.5698,217.4618 105.6243,215.345 103.5238,215.0821 103.7842,212.8141 105.8801,211.7497 102.7319,212.0796 103.8164,209.7144 101.6422,209.4552 101.5646,210.8477 97.4085,211.4429 96.1547,212.7218 97.5975,214.9004 96.991,217.0803 99.9997,217.2672 96.6954,218.3262 95.8187,221.5104 97.5954,222.3313 99.8964,221.2299 101.7343,223.5659 100.4504,222.289 100.2858,223.711 100.3238,221.926 103.0691,218.4855 105.5225,217.4747 107.3738,222.4619 104.4896,225.3973 101.7343,223.5659 98.8892,224.5171 97.5954,222.3313 99.2252,221.3244 100.5091,221.6348 100.2858,223.711 97.9957,225.7847 97.7357,224.5546 96.191,225.208 96.5063,222.3687 99.8966,225.1098 86.0686,242.6252 76.4411,261.7911 67.5507,255.9029 62.1368,250.3188 60.4717,245.7922 61.5956,240.6602 59.1951,252.3211 63.7159,234.3461 70.8058,221.1695 61.187,242.3231"/>
    <polyline points="67.0153,252.2821 70.3506,253.0379 69.8612,252.0164 70.1789,253.2134 74.0718,249.5602 77.6995,248.565 81.2577,250.0483 83.8471,253.2815 85.7087,259.4923 85.3248,266.319 83.0774,271.5517 79.1702,274.716 73.732,273.7895 69.9587,268.4105 68.851,260.6373 70.993,251.5611 70.3369,252.191 71.79,253.7336 71.8249,252.2314 71.6312,253.6538"/>
    <polyline points="75.8864,249.7938 81.5117,248.9503 81.7576,250.5886 80.5913,249.8103 82.0297,250.0147 84.2804,247.0016 82.8436,251.3155 82.5028,246.9776 82.2017,248.5296"/>
    <polyline points="77.1841,240.1289 74.4403,245.4447 77.8705,240.524 76.9362,236.0686 78.9699,237.6012 77.9842,239.9214 77.7348,236.6506 80.8317,234.1459 80.3675,235.1083 82.7219,236.4973 79.2234,247.1437 76.4411,261.7911 95.3688,253.0067 115.3661,246.2582 137.0408,240.8474 158.5262,237.2402 177.9721,235.7474 194.4971,236.6132 203.9957,239.2431 207.4392,241.5821 209.0774,244.4236"/>
    <line x1="201.944" x2="198.1951" y1="225.5995" y2="220.748"/>
    <line x1="189.8507" x2="189.8507" y1="220.4843" y2="220.4843"/>
    <polyline points="187.6712,206.8225 172.4708,195.485 187.6712,206.8225 183.6196,204.5145 181.1401,204.6177 172.219,195.8628 186.6098,206.1522 180.2888,201.0568 172.2764,197.5828 166.9477,196.3614 166.2798,198.8303 169.981,201.9281 169.5138,202.5723 165.2921,199.8475 161.9109,200.7132 160.4843,198.5691 156.7776,196.8304 166.2798,198.8303 166.6708,201.3962 169.5138,202.5724 167.8281,204.4135 165.5538,203.7499 163.0831,202.2998 162.1179,199.9892 166.0745,200.1017 164.4363,202.2719 165.5763,203.9288 163.2339,202.3109 164.4363,202.2719"/>
    <line x1="168.3539" x2="168.3539" y1="206.3431" y2="206.3431"/>
    <polygon points="170.5784,201.8437 168.9088,201.0454"/>
    <polygon points="172.219,195.8628 182.5905,202.4496"/>
    <polyline points="163.7535,191.2465 153.4343,187.8565 163.8914,191.3032 157.8912,189.4396 163.7535,191.2466 152.2786,189.9334 148.4177,187.4236 150.7275,187.3754 159.3019,190.4861 147.3429,189.9099 144.0362,188.7133 149.45,188.5526 153.3531,190.3656 153.5905,187.9044 149.2573,187.1012 134.6915,187.5233 143.7838,186.4164 148.7543,187.1484 149.45,188.5527 141.658,188.3972 141.2223,187.3459 137.6937,186.4979 138.5037,189.4746 140.9438,189.5798 141.658,188.3972 147.3429,189.9099 148.579,191.4417 147.1695,193.9657 144.7333,193.7705 140.4462,190.6623 136.3281,190.4597 138.5037,189.4746"/>
    <line x1="129.9857" x2="129.8482" y1="187.8764" y2="187.604"/>
    <polyline points="125.9958,190.714 131.5289,189.9347 127.7248,187.9562 127.8037,189.5651 123.2891,192.9499 132.1863,197.735 139.6461,195.86 144.4781,196.2534 147.472,194.3467 144.7333,193.7705 140.4462,190.6623 136.3281,190.4597 138.5037,189.4746 125.9958,190.714 123.2891,192.9499"/>
    <polygon points="128.0701,199.5999 132.1864,197.735"/>
    <line x1="123.6648" x2="123.6648" y1="211.4428" y2="211.4428"/>
    <polyline points="131.164,211.8919 128.4093,211.8523 132.5329,211.4893"/>
    <polyline points="132.9758,226.7849 138.891,228.938 143.7474,228.9634 146.4765,231.3192 144.8171,226.6923 143.487,227.0158 135.6521,221.3694 132.9454,223.5801 133.6201,227.1404 132.4459,229.07 126.6091,230.0531 127.5095,230.3978 126.2459,230.5896 126.5542,232.0095"/>
    <polygon points="122.6858,227.5353 125.2773,233.1259 132.9491,230.117 132.2342,228.6121 133.2056,226.9789 129.3302,223.6229 121.8012,223.2626"/>
    <line x1="115.8357" x2="115.7835" y1="231.1535" y2="231.6382"/>
    <polyline points="110.9783,235.9993 111.706,237.6888 110.7386,238.8804 112.2089,239.5313 115.2086,238.5237 113.7738,236.0358 110.7411,236.6964 110.5268,238.1692 111.563,238.3591 111.432,236.9272"/>
    <line x1="102.2385" x2="102.2385" y1="242.252" y2="242.252"/>
    <polygon points="99.377,249.0682 101.033,251.5872 99.9944,252.5865 101.2712,253.1914 103.0522,249.3681 100.6594,247.5194"/>
    <polygon points="95.1523,255.5232 95.8375,256.4436"/>
    <polygon points="96.3745,267.5528 96.5844,268.5716"/>
    <polygon points="89.2637,284.144 89.1903,285.3111 90.4674,285.0948"/>
    <polyline points="65.9316,263.8772 65.9355,265.4497 64.9033,262.0423 64.8024,263.0172 66.4398,261.4147 65.8974,260.7764 66.1318,263.5294 66.221,261.807"/>
    <polyline points="58.626,263.5975 58.6809,265.1999 58.6046,261.7911 76.4411,261.7911 69.9546,251.6848 66.2579,242.013 65.5098,233.1914 67.7426,225.5995"/>
    <polyline points="73.4569,222.0506 76.7611,214.0909 81.5764,207.3722 85.0832,206.4546 83.5975,207.8955 87.6455,203.9372 83.0852,206.7288 82.6082,209.0861 85.0832,206.4546 77.3515,212.9756 85.1248,206.8766 85.3724,208.5407 89.9425,208.1704 92.4482,204.8464 89.8067,206.4606 87.6455,203.9372 82.6082,209.0861 81.5764,207.3722 83.8988,205.0726 87.8644,204.2189 92.4116,201.0208 93.8924,202.3633 96.7575,201.3218 93.5508,205.4093 91.825,204.9131 89.8067,206.4607 87.8644,204.2189"/>
    <polyline points="96.7916,205.0142 99.2965,202.0844 98.8692,203.1556 100.498,202.5756 99.513,204.7257 96.7916,205.0142 100.6644,204.723 101.5487,205.3326 100.8953,207.2613 98.099,205.7158 100.7717,202.5765 101.1025,204.1683 99.513,204.7256"/>
    <polyline points="103.5238,215.0821 105.9836,212.1281 104.2126,215.2027 106.1436,216.3306 109.6186,215.9055 110.2805,212.7261 107.3898,210.5144 105.7955,211.1395 105.9836,212.1281 103.7842,212.8141 101.2073,218.8542 99.9997,217.2672 101.9982,219.3499 102.5304,222.4603 113.778,212.8701 125.8352,205.1599 138.2385,199.626 150.5114,196.4811 166.9477,196.3614 166.9806,194.5172 168.2053,195.3847 165.2757,195.1776 169.0917,198.1043 167.8491,198.685 170.839,201.808 174.4149,201.3743 181.1401,204.6178 175.1892,198.1209 166.9806,194.5172 164.8357,192.1895 148.4995,189.6432 147.1386,190.5274 148.5661,191.2125 147.472,194.3466 145.73,195.1751 153.7805,198.5614 145.73,195.1751 144.4781,196.2535 139.6461,195.86 135.6162,197.2081 136.7581,203.8154 137.9155,204.3176 144.4315,201.6954 149.2556,202.1693 152.8545,205.1641 155.4496,210.1481 164.1532,210.402 163.1648,208.7472 164.3738,207.0329 158.839,202.7889 151.0539,200.9232 149.2556,202.1693 152.0517,199.8773 153.4204,201.0105 154.728,199.5165 153.7805,198.5614 155.1708,199.6556 153.4204,201.0105 152.0517,199.8773 149.642,201.6641 151.0539,200.9232 158.2962,202.4907 162.3262,204.8391 164.1248,203.4478 160.4843,198.5691 154.3954,196.3638 153.26,194.3903 148.3973,191.6848 153.26,194.3905 154.9609,196.6331 165.6214,198.5933 170.5784,201.8437 167.8491,198.6851 169.0917,198.1044 165.2757,195.1777 168.2053,195.3848 166.8997,194.3616 167.8563,193.0708 162.1936,190.694 168.4808,193.6686 158.6794,189.828 164.8357,192.1895 170.4142,196.2147 173.4645,197.191 168.4808,193.6686 173.3551,196.0344 165.4012,191.9827 176.0815,198.2448 184.4183,206.911 191.3519,218.1789 196.5534,231.5144 199.7764,246.2852 200.8679,261.7911 200.1683,274.2315 197.3626,289.2069 191.3519,305.4034 184.4183,316.6713 185.7878,318.5097 173.9708,325.4468 159.3459,327.8158 141.3376,324.9728 125.8352,318.4224 108.0251,306.1306 94.8876,292.9149 84.145,277.8338 76.4411,261.7911 76.1913,280.8215 79.7722,298.609 81.7837,304.0573 83.2483,302.5805 82.3263,301.8232 83.7705,303.1259 83.119,301.8749 86.6079,307.2897 86.4774,304.5465 87.5912,306.8989 91.713,310.1589 94.6626,311.4476 100.4655,309.4877 111.7839,301.6799 112.8876,299.7015 115.9281,298.5457 118.6691,298.0252 123.0246,300.2178 121.9918,292.9045 123.0772,289.9686 120.7188,286.9704 121.5892,286.0084 123.9443,286.5405 124.7662,284.0031 125.465,285.7676 126.5853,285.7822 125.5328,281.2787 123.4942,283.6923 120.6962,284.0136 120.6448,282.5219 119.703,282.7188 119.4474,285.0004 122.0279,292.4851 118.0331,283.5572 119.3665,278.527 117.6916,274.4494 114.3632,275.0108 111.4403,277.2677 106.2447,277.4703 108.083,280.3779 101.9312,281.3174 101.0089,283.6024 104.8808,286.4681 108.289,287.1688 108.9806,289.9134 112.1452,290.8401 112.938,292.4109 110.0716,292.6743 107.5373,291.2676 102.1947,294.6142 98.0534,292.4891 96.1296,285.6164 94.428,285.5175 95.6215,285.1517 94.6733,283.8633 95.3628,281.4604 92.5882,279.7083 91.8506,280.5295 93.9061,283.5059 88.017,281.2371 91.7737,286.0052 90.2546,285.3442 89.6715,287.2353 87.4723,286.8735 88.3702,289.334 86.9744,288.662 85.5099,289.6102 85.237,288.5147 81.3982,288.5237 80.7074,287.5348 78.2961,289.0618 76.8337,287.815 79.4794,298.8696 86.4774,304.5465 85.917,305.2663 84.5437,303.9665 86.141,305.706 85.7414,304.5916 86.3199,305.2208 82.9356,306.6683 81.7837,304.0573 86.9499,313.9918 93.5106,322.4065 103.378,330.419 114.6749,335.3137 114.8686,333.4321 126.7872,330.991 136.132,325.3374 144.4689,316.6713 150.1448,307.841 155.7153,294.8712 159.3494,280.3332 160.9185,261.7911 159.8269,246.2852 156.604,231.5144 151.4024,218.1789 144.4689,206.911 136.132,198.2448 124.8356,191.8484 118.8821,190.4228 110.8771,190.4185 112.3382,190.0987 108.1441,193.2362 109.7317,192.5843 108.1079,194.8433 110.7877,198.3591 101.928,206.1602 95.0963,214.1606 89.1249,223.1921 82.7219,236.4973"/>
    <polyline points="88.9074,238.0231 96.2325,234.7898 97.7686,232.6463 96.2325,234.7898 89.6042,237.4467"/>
    <polyline points="96.5234,228.9622 97.2965,226.212 93.8469,225.8946 95.8804,226.8525 96.0468,224.2483 93.8469,225.8946"/>
    <polyline points="146.5735,234.8672 148.6494,232.2625 146.4765,231.3192 144.8171,226.6923 146.8752,226.1725 148.1431,229.6376 154.2741,229.5693 156.2811,234.0 148.6494,232.2625 146.8752,226.1725 145.2773,226.574 146.4693,221.9831 147.2446,223.7475 158.1636,220.192 160.5756,226.7624 161.8563,227.5074 164.7305,225.9877 163.3437,223.4896 164.234,222.6377 167.2703,221.6345 169.232,222.9693 167.0208,225.6248 168.8897,227.9536 167.3812,230.2079 164.9029,228.8692 164.3152,226.1361 166.3172,232.3479 164.4723,231.0715 163.7808,233.1688 160.7066,231.0517 161.8563,227.5074 160.499,230.1042 162.1502,232.5865 156.7263,232.9349 156.2811,234.0 154.2741,229.5693 148.1431,229.6377"/>
    <polyline points="165.0877,231.4 165.2024,232.5975 165.0877,231.4 167.3812,230.2079 164.9029,228.8692 166.3172,232.3479 167.3812,230.2079"/>
    <polyline points="168.3204,224.4123 167.0208,225.6248 168.8897,227.9536 170.5775,225.6859 168.3204,224.4123 168.576,222.2872 168.3204,224.4123 170.5775,225.6859 171.6445,220.9967 168.576,222.2872"/>
    <polyline points="163.6707,216.2181 164.0157,220.187 165.6653,222.159 169.7847,222.3299 169.9945,220.9898 171.6445,220.9967 168.438,215.8808 163.6707,216.2181 160.4568,213.7738 162.0335,216.575 168.7048,216.211 165.3192,211.8694 160.9967,213.6847 160.0672,212.7898 160.9967,213.6847 164.8606,212.6059 164.9367,211.4498 160.8439,212.8072 157.8669,211.5811 160.8439,212.8072 164.9367,211.4498 164.1532,210.402 157.7577,210.3114 155.9752,214.2222 159.921,218.2495 164.0056,219.3475 163.6707,216.2181 162.0335,216.5749 158.9896,211.8064 157.4734,211.9571 157.7019,213.0767 155.9752,214.2222"/>
    <polyline points="148.8662,211.5543 153.653,211.1817 159.921,218.2495 164.0056,219.3475 165.4412,222.0143 163.3437,223.4896 164.7305,225.9877 161.8562,227.5074 160.5755,226.7624 158.1636,220.1921 147.2445,223.7475 146.4692,221.9832 149.5084,212.2584 147.5564,210.2311 139.2231,206.7287 137.9155,204.3176 144.4315,201.6953 149.2556,202.1693 152.8545,205.1641 154.7131,209.5911 157.7577,210.3114 158.2206,211.498 155.9752,214.2222 153.653,211.1817 148.8662,211.5543"/>
    <polyline points="159.1792,198.8482 155.1708,199.6556 158.3111,199.7693 159.7816,198.5"/>
    <line x1="155.0117" x2="153.5905" y1="188.2685" y2="187.9044"/>
    <line x1="165.0914" x2="165.0914" y1="240.808" y2="240.808"/>
  </g>
</svg>
