<?xml version="1.0" encoding="utf-8" ?>
<svg xmlns="http://www.w3.org/2000/svg" xmlns:cc="http://creativecommons.org/ns#" xmlns:dc="http://purl.org/dc/elements/1.1/" xmlns:ev="http://www.w3.org/2001/xml-events" xmlns:inkscape="http://www.inkscape.org/namespaces/inkscape" xmlns:rdf="http://www.w3.org/1999/02/22-rdf-syntax-ns#" xmlns:sodipodi="http://sodipodi.sourceforge.net/DTD/sodipodi-0.dtd" xmlns:xlink="http://www.w3.org/1999/xlink" baseProfile="tiny" height="14.605cm" version="1.2" viewBox="0 0 419.52 552.0" width="11.0998cm">
  <metadata>
    <rdf:RDF>
      <cc:Work>
        <dc:format>image/svg+xml</dc:format>
        <dc:source>vpype pagesize 4.37inx5.75in text --position 10 25 --align left --size 16 --wrap 400 'Colin and Ian' text --position 10 45 --align left --size 16 --wrap 400 'Return Address 1' text --position 10 65 --align left --size 16 --wrap 400 'Return Address 2' text --position 100 250 --align left --size 20 --wrap 430 'Person 1 and Family' text --position 100 275 --align left --size 20 --wrap 430 '123 Nom du Boulevard' text --position 100 300 --align left --size 20 --wrap 430 '75006 Paris' text --position 100 325 --align left --size 20 --wrap 430 FRANCE text --position 100 350 --align left --size 20 --wrap 430 '' linesort write /Users/cj/Documents/Projects/greeting-cards-2021/envelopes/p1.svg
</dc:source>
        <dc:date>2022-02-09T18:47:15.965763</dc:date>
      </cc:Work>
    </rdf:RDF>
  </metadata>
  <defs/>
  <g fill="none" id="layer1" inkscape:groupmode="layer" inkscape:label="1" stroke="#00f" style="display:inline">
    <polyline points="19.0,21.5 18.5,20.5 17.5,19.5 16.5,19.0 14.5,19.0 13.5,19.5 12.5,20.5 12.0,21.5 11.5,23.0 11.5,25.5 12.0,27.0 12.5,28.0 13.5,29.0 14.5,29.5 16.5,29.5 17.5,29.0 18.5,28.0 19.0,27.0"/>
    <polygon points="24.5,22.5 23.5,23.0 22.5,24.0 22.0,25.5 22.0,26.5 22.5,28.0 23.5,29.0 24.5,29.5 26.0,29.5 27.0,29.0 28.0,28.0 28.5,26.5 28.5,25.5 28.0,24.0 27.0,23.0 26.0,22.5"/>
    <line x1="32.0" x2="32.0" y1="19.0" y2="29.5"/>
    <line x1="36.0" x2="36.0" y1="29.5" y2="22.5"/>
    <polygon points="35.5,19.0 36.0,19.5 36.5,19.0 36.0,18.5"/>
    <line x1="40.0" x2="40.0" y1="22.5" y2="29.5"/>
    <polyline points="40.0,24.5 41.5,23.0 42.5,22.5 44.0,22.5 45.0,23.0 45.5,24.5 45.5,29.5"/>
    <line x1="47.0" x2="47.0" y1="42.5" y2="49.5"/>
    <polyline points="47.0,45.5 47.5,44.0 48.5,43.0 49.5,42.5 51.0,42.5"/>
    <line x1="53.5" x2="53.5" y1="42.5" y2="49.5"/>
    <polyline points="53.5,44.5 55.0,43.0 56.0,42.5 57.5,42.5 58.5,43.0 59.0,44.5 59.0,49.5"/>
    <line x1="69.5" x2="73.5" y1="49.5" y2="39.0"/>
    <line x1="73.5" x2="77.5" y1="39.0" y2="49.5"/>
    <line x1="76.0" x2="71.0" y1="46.0" y2="46.0"/>
    <line x1="73.5" x2="69.5" y1="59.0" y2="69.5"/>
    <line x1="71.0" x2="76.0" y1="66.0" y2="66.0"/>
    <line x1="77.5" x2="73.5" y1="69.5" y2="59.0"/>
    <line x1="85.5" x2="85.5" y1="59.0" y2="69.5"/>
    <polyline points="85.5,68.0 84.5,69.0 83.5,69.5 82.0,69.5 81.0,69.0 80.0,68.0 79.5,66.5 79.5,65.5 80.0,64.0 81.0,63.0 82.0,62.5 83.5,62.5 84.5,63.0 85.5,64.0"/>
    <polyline points="95.0,64.0 94.0,63.0 93.0,62.5 91.5,62.5 90.5,63.0 89.5,64.0 89.0,65.5 89.0,66.5 89.5,68.0 90.5,69.0 91.5,69.5 93.0,69.5 94.0,69.0 95.0,68.0"/>
    <line x1="95.0" x2="95.0" y1="69.5" y2="59.0"/>
    <line x1="99.0" x2="99.0" y1="62.5" y2="69.5"/>
    <polyline points="99.0,65.5 99.5,64.0 100.5,63.0 101.5,62.5 103.0,62.5"/>
    <polyline points="105.0,65.5 111.0,65.5 111.0,64.5 110.5,63.5 110.0,63.0 109.0,62.5 107.5,62.5 106.5,63.0 105.5,64.0 105.0,65.5 105.0,66.5 105.5,68.0 106.5,69.0 107.5,69.5 109.0,69.5 110.0,69.0 111.0,68.0"/>
    <polyline points="114.0,68.0 114.5,69.0 116.0,69.5 117.5,69.5 119.0,69.0 119.5,68.0 119.5,67.5 119.0,66.5 118.0,66.0 115.5,65.5 114.5,65.0 114.0,64.0 114.5,63.0 116.0,62.5 117.5,62.5 119.0,63.0 119.5,64.0"/>
    <polyline points="122.5,68.0 123.0,69.0 124.5,69.5 126.0,69.5 127.5,69.0 128.0,68.0 128.0,67.5 127.5,66.5 126.5,66.0 124.0,65.5 123.0,65.0 122.5,64.0 123.0,63.0 124.5,62.5 126.0,62.5 127.5,63.0 128.0,64.0"/>
    <polyline points="139.5,61.5 139.5,61.0 140.0,60.0 140.5,59.5 141.5,59.0 143.5,59.0 144.5,59.5 145.0,60.0 145.5,61.0 145.5,62.0 145.0,63.0 144.0,64.5 139.0,69.5 146.0,69.5"/>
    <polyline points="143.0,49.5 143.0,39.0 141.5,40.5 140.5,41.0"/>
    <polyline points="128.0,44.0 127.5,43.0 126.0,42.5 124.5,42.5 123.0,43.0 122.5,44.0 123.0,45.0 124.0,45.5 126.5,46.0 127.5,46.5 128.0,47.5 128.0,48.0 127.5,49.0 126.0,49.5 124.5,49.5 123.0,49.0 122.5,48.0"/>
    <polyline points="119.5,44.0 119.0,43.0 117.5,42.5 116.0,42.5 114.5,43.0 114.0,44.0 114.5,45.0 115.5,45.5 118.0,46.0 119.0,46.5 119.5,47.5 119.5,48.0 119.0,49.0 117.5,49.5 116.0,49.5 114.5,49.0 114.0,48.0"/>
    <polyline points="111.0,48.0 110.0,49.0 109.0,49.5 107.5,49.5 106.5,49.0 105.5,48.0 105.0,46.5 105.0,45.5 105.5,44.0 106.5,43.0 107.5,42.5 109.0,42.5 110.0,43.0 110.5,43.5 111.0,44.5 111.0,45.5 105.0,45.5"/>
    <polyline points="103.0,42.5 101.5,42.5 100.5,43.0 99.5,44.0 99.0,45.5"/>
    <line x1="99.0" x2="99.0" y1="42.5" y2="49.5"/>
    <line x1="95.0" x2="95.0" y1="49.5" y2="39.0"/>
    <polyline points="95.0,44.0 94.0,43.0 93.0,42.5 91.5,42.5 90.5,43.0 89.5,44.0 89.0,45.5 89.0,46.5 89.5,48.0 90.5,49.0 91.5,49.5 93.0,49.5 94.0,49.0 95.0,48.0"/>
    <polyline points="85.5,48.0 84.5,49.0 83.5,49.5 82.0,49.5 81.0,49.0 80.0,48.0 79.5,46.5 79.5,45.5 80.0,44.0 81.0,43.0 82.0,42.5 83.5,42.5 84.5,43.0 85.5,44.0"/>
    <line x1="85.5" x2="85.5" y1="39.0" y2="49.5"/>
    <line x1="82.0" x2="82.0" y1="29.5" y2="19.0"/>
    <polyline points="82.0,24.0 81.0,23.0 80.0,22.5 78.5,22.5 77.5,23.0 76.5,24.0 76.0,25.5 76.0,26.5 76.5,28.0 77.5,29.0 78.5,29.5 80.0,29.5 81.0,29.0 82.0,28.0"/>
    <polyline points="72.5,29.5 72.5,24.5 72.0,23.0 71.0,22.5 69.5,22.5 68.5,23.0 67.0,24.5"/>
    <line x1="67.0" x2="67.0" y1="22.5" y2="29.5"/>
    <line x1="63.0" x2="63.0" y1="29.5" y2="22.5"/>
    <polyline points="63.0,24.0 62.0,23.0 61.0,22.5 59.5,22.5 58.5,23.0 57.5,24.0 57.0,25.5 57.0,26.5 57.5,28.0 58.5,29.0 59.5,29.5 61.0,29.5 62.0,29.0 63.0,28.0"/>
    <line x1="43.0" x2="43.0" y1="42.5" y2="49.5"/>
    <polyline points="43.0,47.5 41.5,49.0 40.5,49.5 39.0,49.5 38.0,49.0 37.5,47.5 37.5,42.5"/>
    <line x1="34.0" x2="30.5" y1="42.5" y2="42.5"/>
    <polyline points="32.0,39.0 32.0,47.5 32.5,49.0 33.5,49.5 34.5,49.5"/>
    <polyline points="28.0,48.0 27.0,49.0 26.0,49.5 24.5,49.5 23.5,49.0 22.5,48.0 22.0,46.5 22.0,45.5 22.5,44.0 23.5,43.0 24.5,42.5 26.0,42.5 27.0,43.0 27.5,43.5 28.0,44.5 28.0,45.5 22.0,45.5"/>
    <line x1="19.0" x2="15.5" y1="49.5" y2="44.0"/>
    <polyline points="12.0,44.0 16.5,44.0 18.0,43.5 18.5,43.0 19.0,42.0 19.0,41.0 18.5,40.0 18.0,39.5 16.5,39.0 12.0,39.0"/>
    <line x1="12.0" x2="12.0" y1="39.0" y2="49.5"/>
    <polyline points="12.0,59.0 16.5,59.0 18.0,59.5 18.5,60.0 19.0,61.0 19.0,62.0 18.5,63.0 18.0,63.5 16.5,64.0 12.0,64.0"/>
    <line x1="15.5" x2="19.0" y1="64.0" y2="69.5"/>
    <polyline points="22.0,65.5 28.0,65.5 28.0,64.5 27.5,63.5 27.0,63.0 26.0,62.5 24.5,62.5 23.5,63.0 22.5,64.0 22.0,65.5 22.0,66.5 22.5,68.0 23.5,69.0 24.5,69.5 26.0,69.5 27.0,69.0 28.0,68.0"/>
    <line x1="30.5" x2="34.0" y1="62.5" y2="62.5"/>
    <polyline points="37.5,62.5 37.5,67.5 38.0,69.0 39.0,69.5 40.5,69.5 41.5,69.0 43.0,67.5"/>
    <line x1="43.0" x2="43.0" y1="69.5" y2="62.5"/>
    <line x1="47.0" x2="47.0" y1="62.5" y2="69.5"/>
    <polyline points="47.0,65.5 47.5,64.0 48.5,63.0 49.5,62.5 51.0,62.5"/>
    <line x1="53.5" x2="53.5" y1="62.5" y2="69.5"/>
    <polyline points="53.5,64.5 55.0,63.0 56.0,62.5 57.5,62.5 58.5,63.0 59.0,64.5 59.0,69.5"/>
    <polyline points="34.5,69.5 33.5,69.5 32.5,69.0 32.0,67.5 32.0,59.0"/>
    <line x1="12.0" x2="12.0" y1="59.0" y2="69.5"/>
    <line x1="94.0" x2="94.0" y1="29.5" y2="19.0"/>
    <line x1="103.5" x2="103.5" y1="22.5" y2="29.5"/>
    <polyline points="103.5,28.0 102.5,29.0 101.5,29.5 100.0,29.5 99.0,29.0 98.0,28.0 97.5,26.5 97.5,25.5 98.0,24.0 99.0,23.0 100.0,22.5 101.5,22.5 102.5,23.0 103.5,24.0"/>
    <polyline points="107.5,24.5 109.0,23.0 110.0,22.5 111.5,22.5 112.5,23.0 113.0,24.5 113.0,29.5"/>
    <line x1="107.5" x2="107.5" y1="29.5" y2="22.5"/>
    <line x1="102.5" x2="102.5" y1="242.5" y2="255.625"/>
    <polyline points="102.5,249.375 108.125,249.375 110.0,248.75 110.625,248.125 111.25,246.875 111.25,245.0 110.625,243.75 110.0,243.125 108.125,242.5 102.5,242.5"/>
    <polyline points="115.0,250.625 122.5,250.625 122.5,249.375 121.875,248.125 121.25,247.5 120.0,246.875 118.125,246.875 116.875,247.5 115.625,248.75 115.0,250.625 115.0,251.875 115.625,253.75 116.875,255.0 118.125,255.625 120.0,255.625 121.25,255.0 122.5,253.75"/>
    <line x1="126.875" x2="126.875" y1="255.625" y2="246.875"/>
    <polyline points="126.875,250.625 127.5,248.75 128.75,247.5 130.0,246.875 131.875,246.875"/>
    <polyline points="134.375,253.75 135.0,255.0 136.875,255.625 138.75,255.625 140.625,255.0 141.25,253.75 141.25,253.125 140.625,251.875 139.375,251.25 136.25,250.625 135.0,250.0 134.375,248.75 135.0,247.5 136.875,246.875 138.75,246.875 140.625,247.5 141.25,248.75"/>
    <polygon points="148.125,246.875 146.875,247.5 145.625,248.75 145.0,250.625 145.0,251.875 145.625,253.75 146.875,255.0 148.125,255.625 150.0,255.625 151.25,255.0 152.5,253.75 153.125,251.875 153.125,250.625 152.5,248.75 151.25,247.5 150.0,246.875"/>
    <line x1="157.5" x2="157.5" y1="246.875" y2="255.625"/>
    <polyline points="157.5,249.375 159.375,247.5 160.625,246.875 162.5,246.875 163.75,247.5 164.375,249.375 164.375,255.625"/>
    <line x1="158.75" x2="158.75" y1="267.5" y2="280.625"/>
    <line x1="158.75" x2="150.0" y1="280.625" y2="267.5"/>
    <line x1="150.0" x2="150.0" y1="267.5" y2="280.625"/>
    <polygon points="143.125,292.5 141.25,293.125 140.0,295.0 139.375,298.125 139.375,300.0 140.0,303.125 141.25,305.0 143.125,305.625 144.375,305.625 146.25,305.0 147.5,303.125 148.125,300.0 148.125,298.125 147.5,295.0 146.25,293.125 144.375,292.5"/>
    <polygon points="130.625,292.5 128.75,293.125 127.5,295.0 126.875,298.125 126.875,300.0 127.5,303.125 128.75,305.0 130.625,305.625 131.875,305.625 133.75,305.0 135.0,303.125 135.625,300.0 135.625,298.125 135.0,295.0 133.75,293.125 131.875,292.5"/>
    <polyline points="121.875,292.5 115.625,292.5 115.0,298.125 115.625,297.5 117.5,296.875 119.375,296.875 121.25,297.5 122.5,298.75 123.125,300.625 123.125,301.875 122.5,303.75 121.25,305.0 119.375,305.625 117.5,305.625 115.625,305.0 115.0,304.375 114.375,303.125"/>
    <line x1="104.375" x2="110.625" y1="305.625" y2="292.5"/>
    <line x1="110.625" x2="101.875" y1="292.5" y2="292.5"/>
    <polyline points="106.875,280.625 106.875,267.5 105.0,269.375 103.75,270.0"/>
    <polyline points="115.0,270.625 115.0,270.0 115.625,268.75 116.25,268.125 117.5,267.5 120.0,267.5 121.25,268.125 121.875,268.75 122.5,270.0 122.5,271.25 121.875,272.5 120.625,274.375 114.375,280.625 123.125,280.625"/>
    <polyline points="126.875,278.125 127.5,279.375 128.125,280.0 130.0,280.625 131.875,280.625 133.75,280.0 135.0,278.75 135.625,276.875 135.625,275.625 135.0,273.75 134.375,273.125 133.125,272.5 131.25,272.5 135.0,267.5 128.125,267.5"/>
    <polygon points="166.25,271.875 165.0,272.5 163.75,273.75 163.125,275.625 163.125,276.875 163.75,278.75 165.0,280.0 166.25,280.625 168.125,280.625 169.375,280.0 170.625,278.75 171.25,276.875 171.25,275.625 170.625,273.75 169.375,272.5 168.125,271.875"/>
    <line x1="175.625" x2="175.625" y1="271.875" y2="280.625"/>
    <polyline points="175.625,274.375 177.5,272.5 178.75,271.875 180.625,271.875 181.875,272.5 182.5,274.375 182.5,280.625"/>
    <polyline points="182.5,274.375 184.375,272.5 185.625,271.875 187.5,271.875 188.75,272.5 189.375,274.375 189.375,280.625"/>
    <line x1="195.0" x2="195.0" y1="296.875" y2="305.625"/>
    <polyline points="195.0,303.75 193.75,305.0 192.5,305.625 190.625,305.625 189.375,305.0 188.125,303.75 187.5,301.875 187.5,300.625 188.125,298.75 189.375,297.5 190.625,296.875 192.5,296.875 193.75,297.5 195.0,298.75"/>
    <polyline points="200.0,300.625 200.625,298.75 201.875,297.5 203.125,296.875 205.0,296.875"/>
    <line x1="208.125" x2="208.125" y1="296.875" y2="305.625"/>
    <polyline points="212.5,303.75 213.125,305.0 215.0,305.625 216.875,305.625 218.75,305.0 219.375,303.75 219.375,303.125 218.75,301.875 217.5,301.25 214.375,300.625 213.125,300.0 212.5,298.75 213.125,297.5 215.0,296.875 216.875,296.875 218.75,297.5 219.375,298.75"/>
    <polygon points="207.5,292.5 208.125,293.125 208.75,292.5 208.125,291.875"/>
    <line x1="200.0" x2="200.0" y1="296.875" y2="305.625"/>
    <line x1="175.0" x2="175.0" y1="305.625" y2="292.5"/>
    <polyline points="175.0,292.5 180.625,292.5 182.5,293.125 183.125,293.75 183.75,295.0 183.75,296.875 183.125,298.125 182.5,298.75 180.625,299.375 175.0,299.375"/>
    <polyline points="160.0,294.375 159.375,293.125 157.5,292.5 156.25,292.5 154.375,293.125 153.125,295.0 152.5,298.125 152.5,301.25 153.125,303.75 154.375,305.0 156.25,305.625 156.875,305.625 158.75,305.0 160.0,303.75 160.625,301.875 160.625,301.25 160.0,299.375 158.75,298.125 156.875,297.5 156.25,297.5 154.375,298.125 153.125,299.375 152.5,301.25"/>
    <line x1="146.875" x2="146.875" y1="317.5" y2="330.625"/>
    <line x1="146.875" x2="138.125" y1="330.625" y2="317.5"/>
    <line x1="138.125" x2="138.125" y1="317.5" y2="330.625"/>
    <line x1="135.0" x2="130.0" y1="330.625" y2="317.5"/>
    <line x1="130.0" x2="125.0" y1="317.5" y2="330.625"/>
    <line x1="122.5" x2="118.125" y1="330.625" y2="323.75"/>
    <polyline points="113.75,323.75 119.375,323.75 121.25,323.125 121.875,322.5 122.5,321.25 122.5,320.0 121.875,318.75 121.25,318.125 119.375,317.5 113.75,317.5"/>
    <line x1="113.75" x2="113.75" y1="317.5" y2="330.625"/>
    <line x1="107.5" x2="102.5" y1="323.75" y2="323.75"/>
    <line x1="102.5" x2="110.625" y1="317.5" y2="317.5"/>
    <line x1="102.5" x2="102.5" y1="317.5" y2="330.625"/>
    <line x1="126.875" x2="133.125" y1="326.25" y2="326.25"/>
    <polyline points="160.625,327.5 160.0,328.75 158.75,330.0 157.5,330.625 155.0,330.625 153.75,330.0 152.5,328.75 151.875,327.5 151.25,325.625 151.25,322.5 151.875,320.625 152.5,319.375 153.75,318.125 155.0,317.5 157.5,317.5 158.75,318.125 160.0,319.375 160.625,320.625"/>
    <line x1="165.0" x2="173.125" y1="317.5" y2="317.5"/>
    <line x1="170.0" x2="165.0" y1="323.75" y2="323.75"/>
    <line x1="165.0" x2="165.0" y1="317.5" y2="330.625"/>
    <line x1="165.0" x2="173.125" y1="330.625" y2="330.625"/>
    <line x1="211.25" x2="211.25" y1="280.625" y2="267.5"/>
    <polyline points="211.25,273.75 210.0,272.5 208.75,271.875 206.875,271.875 205.625,272.5 204.375,273.75 203.75,275.625 203.75,276.875 204.375,278.75 205.625,280.0 206.875,280.625 208.75,280.625 210.0,280.0 211.25,278.75"/>
    <polyline points="216.25,271.875 216.25,278.125 216.875,280.0 218.125,280.625 220.0,280.625 221.25,280.0 223.125,278.125"/>
    <line x1="223.125" x2="223.125" y1="280.625" y2="271.875"/>
    <polyline points="238.125,273.75 243.75,273.75 245.625,274.375 246.25,275.0 246.875,276.25 246.875,278.125 246.25,279.375 245.625,280.0 243.75,280.625 238.125,280.625"/>
    <line x1="238.125" x2="238.125" y1="280.625" y2="267.5"/>
    <polyline points="238.125,267.5 243.75,267.5 245.625,268.125 246.25,268.75 246.875,270.0 246.875,271.25 246.25,272.5 245.625,273.125 243.75,273.75"/>
    <polygon points="253.75,271.875 252.5,272.5 251.25,273.75 250.625,275.625 250.625,276.875 251.25,278.75 252.5,280.0 253.75,280.625 255.625,280.625 256.875,280.0 258.125,278.75 258.75,276.875 258.75,275.625 258.125,273.75 256.875,272.5 255.625,271.875"/>
    <polyline points="263.125,271.875 263.125,278.125 263.75,280.0 265.0,280.625 266.875,280.625 268.125,280.0 270.0,278.125"/>
    <line x1="270.0" x2="270.0" y1="280.625" y2="271.875"/>
    <line x1="275.0" x2="275.0" y1="267.5" y2="280.625"/>
    <polyline points="279.375,275.625 286.875,275.625 286.875,274.375 286.25,273.125 285.625,272.5 284.375,271.875 282.5,271.875 281.25,272.5 280.0,273.75 279.375,275.625 279.375,276.875 280.0,278.75 281.25,280.0 282.5,280.625 284.375,280.625 285.625,280.0 286.875,278.75"/>
    <line x1="293.75" x2="297.5" y1="280.625" y2="271.875"/>
    <line x1="290.0" x2="293.75" y1="271.875" y2="280.625"/>
    <line x1="308.125" x2="308.125" y1="280.625" y2="271.875"/>
    <polyline points="308.125,273.75 306.875,272.5 305.625,271.875 303.75,271.875 302.5,272.5 301.25,273.75 300.625,275.625 300.625,276.875 301.25,278.75 302.5,280.0 303.75,280.625 305.625,280.625 306.875,280.0 308.125,278.75"/>
    <line x1="313.125" x2="313.125" y1="280.625" y2="271.875"/>
    <polyline points="313.125,275.625 313.75,273.75 315.0,272.5 316.25,271.875 318.125,271.875"/>
    <polyline points="328.125,273.75 326.875,272.5 325.625,271.875 323.75,271.875 322.5,272.5 321.25,273.75 320.625,275.625 320.625,276.875 321.25,278.75 322.5,280.0 323.75,280.625 325.625,280.625 326.875,280.0 328.125,278.75"/>
    <line x1="328.125" x2="328.125" y1="280.625" y2="267.5"/>
    <line x1="301.875" x2="298.125" y1="255.625" y2="246.875"/>
    <line x1="294.375" x2="294.375" y1="242.5" y2="255.625"/>
    <line x1="289.375" x2="289.375" y1="255.625" y2="246.875"/>
    <polygon points="288.75,242.5 289.375,243.125 290.0,242.5 289.375,241.875"/>
    <polyline points="277.5,249.375 279.375,247.5 280.625,246.875 282.5,246.875 283.75,247.5 284.375,249.375 284.375,255.625"/>
    <polyline points="277.5,255.625 277.5,249.375 276.875,247.5 275.625,246.875 273.75,246.875 272.5,247.5 270.625,249.375"/>
    <line x1="270.625" x2="270.625" y1="246.875" y2="255.625"/>
    <line x1="265.625" x2="265.625" y1="255.625" y2="246.875"/>
    <polyline points="265.625,248.75 264.375,247.5 263.125,246.875 261.25,246.875 260.0,247.5 258.75,248.75 258.125,250.625 258.125,251.875 258.75,253.75 260.0,255.0 261.25,255.625 263.125,255.625 264.375,255.0 265.625,253.75"/>
    <line x1="252.5" x2="247.5" y1="248.75" y2="248.75"/>
    <line x1="247.5" x2="247.5" y1="242.5" y2="255.625"/>
    <line x1="247.5" x2="255.625" y1="242.5" y2="242.5"/>
    <line x1="232.5" x2="232.5" y1="242.5" y2="255.625"/>
    <polyline points="232.5,253.75 231.25,255.0 230.0,255.625 228.125,255.625 226.875,255.0 225.625,253.75 225.0,251.875 225.0,250.625 225.625,248.75 226.875,247.5 228.125,246.875 230.0,246.875 231.25,247.5 232.5,248.75"/>
    <polyline points="220.625,255.625 220.625,249.375 220.0,247.5 218.75,246.875 216.875,246.875 215.625,247.5 213.75,249.375"/>
    <line x1="213.75" x2="213.75" y1="246.875" y2="255.625"/>
    <line x1="208.75" x2="208.75" y1="255.625" y2="246.875"/>
    <polyline points="208.75,248.75 207.5,247.5 206.25,246.875 204.375,246.875 203.125,247.5 201.875,248.75 201.25,250.625 201.25,251.875 201.875,253.75 203.125,255.0 204.375,255.625 206.25,255.625 207.5,255.0 208.75,253.75"/>
    <polyline points="183.75,255.625 183.75,242.5 181.875,244.375 180.625,245.0"/>
    <polyline points="297.5,260.0 298.125,260.0 299.375,259.375 300.625,258.125 301.875,255.625 305.625,246.875"/>
  </g>
</svg>
