<?xml version="1.0" encoding="utf-8" ?>
<svg xmlns="http://www.w3.org/2000/svg" xmlns:cc="http://creativecommons.org/ns#" xmlns:dc="http://purl.org/dc/elements/1.1/" xmlns:ev="http://www.w3.org/2001/xml-events" xmlns:inkscape="http://www.inkscape.org/namespaces/inkscape" xmlns:rdf="http://www.w3.org/1999/02/22-rdf-syntax-ns#" xmlns:sodipodi="http://sodipodi.sourceforge.net/DTD/sodipodi-0.dtd" xmlns:xlink="http://www.w3.org/1999/xlink" baseProfile="tiny" height="14.605cm" version="1.2" viewBox="0 0 419.52 552.0" width="11.0998cm">
  <metadata>
    <rdf:RDF>
      <cc:Work>
        <dc:format>image/svg+xml</dc:format>
        <dc:source>vpype pagesize 4.37inx5.75in text --position 10 25 --align left --size 16 --wrap 400 'Colin and Ian' text --position 10 45 --align left --size 16 --wrap 400 'Return Address 1' text --position 10 65 --align left --size 16 --wrap 400 'Return Address 2' text --position 100 250 --align left --size 20 --wrap 430 'Person 2 and Family' text --position 100 275 --align left --size 20 --wrap 430 '9999 Ala Moana Blvd.' text --position 100 300 --align left --size 20 --wrap 430 'Honolulu, Hawaii  96813' text --position 100 325 --align left --size 20 --wrap 430 USA text --position 100 350 --align left --size 20 --wrap 430 '' linesort write /Users/cj/Documents/Projects/greeting-cards-2021/envelopes/p2.svg
</dc:source>
        <dc:date>2022-02-09T18:47:16.700533</dc:date>
      </cc:Work>
    </rdf:RDF>
  </metadata>
  <defs/>
  <g fill="none" id="layer1" inkscape:groupmode="layer" inkscape:label="1" stroke="#00f" style="display:inline">
    <polyline points="19.0,21.5 18.5,20.5 17.5,19.5 16.5,19.0 14.5,19.0 13.5,19.5 12.5,20.5 12.0,21.5 11.5,23.0 11.5,25.5 12.0,27.0 12.5,28.0 13.5,29.0 14.5,29.5 16.5,29.5 17.5,29.0 18.5,28.0 19.0,27.0"/>
    <polygon points="24.5,22.5 23.5,23.0 22.5,24.0 22.0,25.5 22.0,26.5 22.5,28.0 23.5,29.0 24.5,29.5 26.0,29.5 27.0,29.0 28.0,28.0 28.5,26.5 28.5,25.5 28.0,24.0 27.0,23.0 26.0,22.5"/>
    <line x1="32.0" x2="32.0" y1="19.0" y2="29.5"/>
    <line x1="36.0" x2="36.0" y1="29.5" y2="22.5"/>
    <polygon points="35.5,19.0 36.0,19.5 36.5,19.0 36.0,18.5"/>
    <line x1="40.0" x2="40.0" y1="22.5" y2="29.5"/>
    <polyline points="40.0,24.5 41.5,23.0 42.5,22.5 44.0,22.5 45.0,23.0 45.5,24.5 45.5,29.5"/>
    <line x1="47.0" x2="47.0" y1="42.5" y2="49.5"/>
    <polyline points="47.0,45.5 47.5,44.0 48.5,43.0 49.5,42.5 51.0,42.5"/>
    <line x1="53.5" x2="53.5" y1="42.5" y2="49.5"/>
    <polyline points="53.5,44.5 55.0,43.0 56.0,42.5 57.5,42.5 58.5,43.0 59.0,44.5 59.0,49.5"/>
    <line x1="69.5" x2="73.5" y1="49.5" y2="39.0"/>
    <line x1="73.5" x2="77.5" y1="39.0" y2="49.5"/>
    <line x1="76.0" x2="71.0" y1="46.0" y2="46.0"/>
    <line x1="73.5" x2="69.5" y1="59.0" y2="69.5"/>
    <line x1="71.0" x2="76.0" y1="66.0" y2="66.0"/>
    <line x1="77.5" x2="73.5" y1="69.5" y2="59.0"/>
    <line x1="85.5" x2="85.5" y1="59.0" y2="69.5"/>
    <polyline points="85.5,68.0 84.5,69.0 83.5,69.5 82.0,69.5 81.0,69.0 80.0,68.0 79.5,66.5 79.5,65.5 80.0,64.0 81.0,63.0 82.0,62.5 83.5,62.5 84.5,63.0 85.5,64.0"/>
    <polyline points="95.0,64.0 94.0,63.0 93.0,62.5 91.5,62.5 90.5,63.0 89.5,64.0 89.0,65.5 89.0,66.5 89.5,68.0 90.5,69.0 91.5,69.5 93.0,69.5 94.0,69.0 95.0,68.0"/>
    <line x1="95.0" x2="95.0" y1="69.5" y2="59.0"/>
    <line x1="99.0" x2="99.0" y1="62.5" y2="69.5"/>
    <polyline points="99.0,65.5 99.5,64.0 100.5,63.0 101.5,62.5 103.0,62.5"/>
    <polyline points="105.0,65.5 111.0,65.5 111.0,64.5 110.5,63.5 110.0,63.0 109.0,62.5 107.5,62.5 106.5,63.0 105.5,64.0 105.0,65.5 105.0,66.5 105.5,68.0 106.5,69.0 107.5,69.5 109.0,69.5 110.0,69.0 111.0,68.0"/>
    <polyline points="114.0,68.0 114.5,69.0 116.0,69.5 117.5,69.5 119.0,69.0 119.5,68.0 119.5,67.5 119.0,66.5 118.0,66.0 115.5,65.5 114.5,65.0 114.0,64.0 114.5,63.0 116.0,62.5 117.5,62.5 119.0,63.0 119.5,64.0"/>
    <polyline points="122.5,68.0 123.0,69.0 124.5,69.5 126.0,69.5 127.5,69.0 128.0,68.0 128.0,67.5 127.5,66.5 126.5,66.0 124.0,65.5 123.0,65.0 122.5,64.0 123.0,63.0 124.5,62.5 126.0,62.5 127.5,63.0 128.0,64.0"/>
    <polyline points="139.5,61.5 139.5,61.0 140.0,60.0 140.5,59.5 141.5,59.0 143.5,59.0 144.5,59.5 145.0,60.0 145.5,61.0 145.5,62.0 145.0,63.0 144.0,64.5 139.0,69.5 146.0,69.5"/>
    <polyline points="143.0,49.5 143.0,39.0 141.5,40.5 140.5,41.0"/>
    <polyline points="128.0,44.0 127.5,43.0 126.0,42.5 124.5,42.5 123.0,43.0 122.5,44.0 123.0,45.0 124.0,45.5 126.5,46.0 127.5,46.5 128.0,47.5 128.0,48.0 127.5,49.0 126.0,49.5 124.5,49.5 123.0,49.0 122.5,48.0"/>
    <polyline points="119.5,44.0 119.0,43.0 117.5,42.5 116.0,42.5 114.5,43.0 114.0,44.0 114.5,45.0 115.5,45.5 118.0,46.0 119.0,46.5 119.5,47.5 119.5,48.0 119.0,49.0 117.5,49.5 116.0,49.5 114.5,49.0 114.0,48.0"/>
    <polyline points="111.0,48.0 110.0,49.0 109.0,49.5 107.5,49.5 106.5,49.0 105.5,48.0 105.0,46.5 105.0,45.5 105.5,44.0 106.5,43.0 107.5,42.5 109.0,42.5 110.0,43.0 110.5,43.5 111.0,44.5 111.0,45.5 105.0,45.5"/>
    <polyline points="103.0,42.5 101.5,42.5 100.5,43.0 99.5,44.0 99.0,45.5"/>
    <line x1="99.0" x2="99.0" y1="42.5" y2="49.5"/>
    <line x1="95.0" x2="95.0" y1="49.5" y2="39.0"/>
    <polyline points="95.0,44.0 94.0,43.0 93.0,42.5 91.5,42.5 90.5,43.0 89.5,44.0 89.0,45.5 89.0,46.5 89.5,48.0 90.5,49.0 91.5,49.5 93.0,49.5 94.0,49.0 95.0,48.0"/>
    <polyline points="85.5,48.0 84.5,49.0 83.5,49.5 82.0,49.5 81.0,49.0 80.0,48.0 79.5,46.5 79.5,45.5 80.0,44.0 81.0,43.0 82.0,42.5 83.5,42.5 84.5,43.0 85.5,44.0"/>
    <line x1="85.5" x2="85.5" y1="39.0" y2="49.5"/>
    <line x1="82.0" x2="82.0" y1="29.5" y2="19.0"/>
    <polyline points="82.0,24.0 81.0,23.0 80.0,22.5 78.5,22.5 77.5,23.0 76.5,24.0 76.0,25.5 76.0,26.5 76.5,28.0 77.5,29.0 78.5,29.5 80.0,29.5 81.0,29.0 82.0,28.0"/>
    <polyline points="72.5,29.5 72.5,24.5 72.0,23.0 71.0,22.5 69.5,22.5 68.5,23.0 67.0,24.5"/>
    <line x1="67.0" x2="67.0" y1="22.5" y2="29.5"/>
    <line x1="63.0" x2="63.0" y1="29.5" y2="22.5"/>
    <polyline points="63.0,24.0 62.0,23.0 61.0,22.5 59.5,22.5 58.5,23.0 57.5,24.0 57.0,25.5 57.0,26.5 57.5,28.0 58.5,29.0 59.5,29.5 61.0,29.5 62.0,29.0 63.0,28.0"/>
    <line x1="43.0" x2="43.0" y1="42.5" y2="49.5"/>
    <polyline points="43.0,47.5 41.5,49.0 40.5,49.5 39.0,49.5 38.0,49.0 37.5,47.5 37.5,42.5"/>
    <line x1="34.0" x2="30.5" y1="42.5" y2="42.5"/>
    <polyline points="32.0,39.0 32.0,47.5 32.5,49.0 33.5,49.5 34.5,49.5"/>
    <polyline points="28.0,48.0 27.0,49.0 26.0,49.5 24.5,49.5 23.5,49.0 22.5,48.0 22.0,46.5 22.0,45.5 22.5,44.0 23.5,43.0 24.5,42.5 26.0,42.5 27.0,43.0 27.5,43.5 28.0,44.5 28.0,45.5 22.0,45.5"/>
    <line x1="19.0" x2="15.5" y1="49.5" y2="44.0"/>
    <polyline points="12.0,44.0 16.5,44.0 18.0,43.5 18.5,43.0 19.0,42.0 19.0,41.0 18.5,40.0 18.0,39.5 16.5,39.0 12.0,39.0"/>
    <line x1="12.0" x2="12.0" y1="39.0" y2="49.5"/>
    <polyline points="12.0,59.0 16.5,59.0 18.0,59.5 18.5,60.0 19.0,61.0 19.0,62.0 18.5,63.0 18.0,63.5 16.5,64.0 12.0,64.0"/>
    <line x1="15.5" x2="19.0" y1="64.0" y2="69.5"/>
    <polyline points="22.0,65.5 28.0,65.5 28.0,64.5 27.5,63.5 27.0,63.0 26.0,62.5 24.5,62.5 23.5,63.0 22.5,64.0 22.0,65.5 22.0,66.5 22.5,68.0 23.5,69.0 24.5,69.5 26.0,69.5 27.0,69.0 28.0,68.0"/>
    <line x1="30.5" x2="34.0" y1="62.5" y2="62.5"/>
    <polyline points="37.5,62.5 37.5,67.5 38.0,69.0 39.0,69.5 40.5,69.5 41.5,69.0 43.0,67.5"/>
    <line x1="43.0" x2="43.0" y1="69.5" y2="62.5"/>
    <line x1="47.0" x2="47.0" y1="62.5" y2="69.5"/>
    <polyline points="47.0,65.5 47.5,64.0 48.5,63.0 49.5,62.5 51.0,62.5"/>
    <line x1="53.5" x2="53.5" y1="62.5" y2="69.5"/>
    <polyline points="53.5,64.5 55.0,63.0 56.0,62.5 57.5,62.5 58.5,63.0 59.0,64.5 59.0,69.5"/>
    <polyline points="34.5,69.5 33.5,69.5 32.5,69.0 32.0,67.5 32.0,59.0"/>
    <line x1="12.0" x2="12.0" y1="59.0" y2="69.5"/>
    <line x1="94.0" x2="94.0" y1="29.5" y2="19.0"/>
    <line x1="103.5" x2="103.5" y1="22.5" y2="29.5"/>
    <polyline points="103.5,28.0 102.5,29.0 101.5,29.5 100.0,29.5 99.0,29.0 98.0,28.0 97.5,26.5 97.5,25.5 98.0,24.0 99.0,23.0 100.0,22.5 101.5,22.5 102.5,23.0 103.5,24.0"/>
    <polyline points="107.5,24.5 109.0,23.0 110.0,22.5 111.5,22.5 112.5,23.0 113.0,24.5 113.0,29.5"/>
    <line x1="107.5" x2="107.5" y1="29.5" y2="22.5"/>
    <polyline points="102.5,242.5 108.125,242.5 110.0,243.125 110.625,243.75 111.25,245.0 111.25,246.875 110.625,248.125 110.0,248.75 108.125,249.375 102.5,249.375"/>
    <line x1="102.5" x2="102.5" y1="255.625" y2="242.5"/>
    <polyline points="115.0,250.625 122.5,250.625 122.5,249.375 121.875,248.125 121.25,247.5 120.0,246.875 118.125,246.875 116.875,247.5 115.625,248.75 115.0,250.625 115.0,251.875 115.625,253.75 116.875,255.0 118.125,255.625 120.0,255.625 121.25,255.0 122.5,253.75"/>
    <line x1="126.875" x2="126.875" y1="255.625" y2="246.875"/>
    <polyline points="126.875,250.625 127.5,248.75 128.75,247.5 130.0,246.875 131.875,246.875"/>
    <polyline points="134.375,253.75 135.0,255.0 136.875,255.625 138.75,255.625 140.625,255.0 141.25,253.75 141.25,253.125 140.625,251.875 139.375,251.25 136.25,250.625 135.0,250.0 134.375,248.75 135.0,247.5 136.875,246.875 138.75,246.875 140.625,247.5 141.25,248.75"/>
    <polygon points="148.125,246.875 146.875,247.5 145.625,248.75 145.0,250.625 145.0,251.875 145.625,253.75 146.875,255.0 148.125,255.625 150.0,255.625 151.25,255.0 152.5,253.75 153.125,251.875 153.125,250.625 152.5,248.75 151.25,247.5 150.0,246.875"/>
    <line x1="157.5" x2="157.5" y1="246.875" y2="255.625"/>
    <polyline points="157.5,249.375 159.375,247.5 160.625,246.875 162.5,246.875 163.75,247.5 164.375,249.375 164.375,255.625"/>
    <line x1="165.625" x2="170.625" y1="267.5" y2="280.625"/>
    <line x1="173.75" x2="173.75" y1="280.625" y2="267.5"/>
    <line x1="165.625" x2="160.625" y1="267.5" y2="280.625"/>
    <line x1="162.5" x2="168.75" y1="276.25" y2="276.25"/>
    <line x1="168.75" x2="168.75" y1="292.5" y2="305.625"/>
    <line x1="163.75" x2="163.75" y1="305.625" y2="296.875"/>
    <polyline points="163.75,303.125 161.875,305.0 160.625,305.625 158.75,305.625 157.5,305.0 156.875,303.125 156.875,296.875"/>
    <line x1="151.875" x2="151.875" y1="292.5" y2="305.625"/>
    <polygon points="142.5,296.875 141.25,297.5 140.0,298.75 139.375,300.625 139.375,301.875 140.0,303.75 141.25,305.0 142.5,305.625 144.375,305.625 145.625,305.0 146.875,303.75 147.5,301.875 147.5,300.625 146.875,298.75 145.625,297.5 144.375,296.875"/>
    <polyline points="135.0,305.625 135.0,299.375 134.375,297.5 133.125,296.875 131.25,296.875 130.0,297.5 128.125,299.375"/>
    <line x1="128.125" x2="128.125" y1="296.875" y2="305.625"/>
    <line x1="131.875" x2="126.875" y1="317.5" y2="330.625"/>
    <line x1="128.75" x2="135.0" y1="326.25" y2="326.25"/>
    <line x1="136.875" x2="131.875" y1="330.625" y2="317.5"/>
    <polyline points="124.375,319.375 123.125,318.125 121.25,317.5 118.75,317.5 116.875,318.125 115.625,319.375 115.625,320.625 116.25,321.875 116.875,322.5 118.125,323.125 121.875,324.375 123.125,325.0 123.75,325.625 124.375,326.875 124.375,328.75 123.125,330.0 121.25,330.625 118.75,330.625 116.875,330.0 115.625,328.75"/>
    <polyline points="111.25,317.5 111.25,326.875 110.625,328.75 109.375,330.0 107.5,330.625 106.25,330.625 104.375,330.0 103.125,328.75 102.5,326.875 102.5,317.5"/>
    <line x1="102.5" x2="102.5" y1="305.625" y2="292.5"/>
    <line x1="102.5" x2="111.25" y1="298.75" y2="298.75"/>
    <line x1="111.25" x2="111.25" y1="292.5" y2="305.625"/>
    <polygon points="118.75,296.875 117.5,297.5 116.25,298.75 115.625,300.625 115.625,301.875 116.25,303.75 117.5,305.0 118.75,305.625 120.625,305.625 121.875,305.0 123.125,303.75 123.75,301.875 123.75,300.625 123.125,298.75 121.875,297.5 120.625,296.875"/>
    <polyline points="115.0,278.75 115.625,280.0 117.5,280.625 118.75,280.625 120.625,280.0 121.875,278.125 122.5,275.0 122.5,271.875 121.875,269.375 120.625,268.125 118.75,267.5 118.125,267.5 116.25,268.125 115.0,269.375 114.375,271.25 114.375,271.875 115.0,273.75 116.25,275.0 118.125,275.625 118.75,275.625 120.625,275.0 121.875,273.75 122.5,271.875"/>
    <polyline points="127.5,278.75 128.125,280.0 130.0,280.625 131.25,280.625 133.125,280.0 134.375,278.125 135.0,275.0 135.0,271.875 134.375,269.375 133.125,268.125 131.25,267.5 130.625,267.5 128.75,268.125 127.5,269.375 126.875,271.25 126.875,271.875 127.5,273.75 128.75,275.0 130.625,275.625 131.25,275.625 133.125,275.0 134.375,273.75 135.0,271.875"/>
    <polyline points="140.0,278.75 140.625,280.0 142.5,280.625 143.75,280.625 145.625,280.0 146.875,278.125 147.5,275.0 147.5,271.875 146.875,269.375 145.625,268.125 143.75,267.5 143.125,267.5 141.25,268.125 140.0,269.375 139.375,271.25 139.375,271.875 140.0,273.75 141.25,275.0 143.125,275.625 143.75,275.625 145.625,275.0 146.875,273.75 147.5,271.875"/>
    <polyline points="173.75,296.875 173.75,303.125 174.375,305.0 175.625,305.625 177.5,305.625 178.75,305.0 180.625,303.125"/>
    <line x1="180.625" x2="180.625" y1="305.625" y2="296.875"/>
    <polyline points="186.25,303.125 185.625,303.75 185.0,303.125 185.625,302.5 186.25,303.125 186.25,304.375 185.0,305.625"/>
    <line x1="200.625" x2="200.625" y1="305.625" y2="292.5"/>
    <line x1="200.625" x2="209.375" y1="298.75" y2="298.75"/>
    <line x1="209.375" x2="209.375" y1="292.5" y2="305.625"/>
    <line x1="221.25" x2="221.25" y1="305.625" y2="296.875"/>
    <polyline points="221.25,298.75 220.0,297.5 218.75,296.875 216.875,296.875 215.625,297.5 214.375,298.75 213.75,300.625 213.75,301.875 214.375,303.75 215.625,305.0 216.875,305.625 218.75,305.625 220.0,305.0 221.25,303.75"/>
    <line x1="228.125" x2="230.625" y1="305.625" y2="296.875"/>
    <line x1="230.625" x2="233.125" y1="296.875" y2="305.625"/>
    <line x1="233.125" x2="235.625" y1="305.625" y2="296.875"/>
    <line x1="225.625" x2="228.125" y1="296.875" y2="305.625"/>
    <line x1="246.875" x2="246.875" y1="305.625" y2="296.875"/>
    <polyline points="246.875,298.75 245.625,297.5 244.375,296.875 242.5,296.875 241.25,297.5 240.0,298.75 239.375,300.625 239.375,301.875 240.0,303.75 241.25,305.0 242.5,305.625 244.375,305.625 245.625,305.0 246.875,303.75"/>
    <line x1="251.875" x2="251.875" y1="305.625" y2="296.875"/>
    <polygon points="251.25,292.5 251.875,293.125 252.5,292.5 251.875,291.875"/>
    <polygon points="256.25,292.5 256.875,293.125 257.5,292.5 256.875,291.875"/>
    <line x1="256.875" x2="256.875" y1="296.875" y2="305.625"/>
    <line x1="258.125" x2="258.125" y1="280.625" y2="271.875"/>
    <polyline points="258.125,273.75 256.875,272.5 255.625,271.875 253.75,271.875 252.5,272.5 251.25,273.75 250.625,275.625 250.625,276.875 251.25,278.75 252.5,280.0 253.75,280.625 255.625,280.625 256.875,280.0 258.125,278.75"/>
    <polyline points="246.25,280.625 246.25,274.375 245.625,272.5 244.375,271.875 242.5,271.875 241.25,272.5 239.375,274.375"/>
    <line x1="239.375" x2="239.375" y1="271.875" y2="280.625"/>
    <line x1="234.375" x2="234.375" y1="280.625" y2="271.875"/>
    <polyline points="234.375,273.75 233.125,272.5 231.875,271.875 230.0,271.875 228.75,272.5 227.5,273.75 226.875,275.625 226.875,276.875 227.5,278.75 228.75,280.0 230.0,280.625 231.875,280.625 233.125,280.0 234.375,278.75"/>
    <polygon points="218.125,271.875 216.875,272.5 215.625,273.75 215.0,275.625 215.0,276.875 215.625,278.75 216.875,280.0 218.125,280.625 220.0,280.625 221.25,280.0 222.5,278.75 223.125,276.875 223.125,275.625 222.5,273.75 221.25,272.5 220.0,271.875"/>
    <line x1="210.625" x2="205.625" y1="267.5" y2="280.625"/>
    <line x1="205.625" x2="200.625" y1="280.625" y2="267.5"/>
    <line x1="200.625" x2="200.625" y1="267.5" y2="280.625"/>
    <line x1="210.625" x2="210.625" y1="280.625" y2="267.5"/>
    <line x1="208.75" x2="208.75" y1="255.625" y2="246.875"/>
    <polyline points="208.75,248.75 207.5,247.5 206.25,246.875 204.375,246.875 203.125,247.5 201.875,248.75 201.25,250.625 201.25,251.875 201.875,253.75 203.125,255.0 204.375,255.625 206.25,255.625 207.5,255.0 208.75,253.75"/>
    <line x1="213.75" x2="213.75" y1="255.625" y2="246.875"/>
    <polyline points="213.75,249.375 215.625,247.5 216.875,246.875 218.75,246.875 220.0,247.5 220.625,249.375 220.625,255.625"/>
    <line x1="232.5" x2="232.5" y1="255.625" y2="242.5"/>
    <polyline points="232.5,248.75 231.25,247.5 230.0,246.875 228.125,246.875 226.875,247.5 225.625,248.75 225.0,250.625 225.0,251.875 225.625,253.75 226.875,255.0 228.125,255.625 230.0,255.625 231.25,255.0 232.5,253.75"/>
    <line x1="247.5" x2="247.5" y1="255.625" y2="242.5"/>
    <line x1="247.5" x2="255.625" y1="242.5" y2="242.5"/>
    <line x1="252.5" x2="247.5" y1="248.75" y2="248.75"/>
    <polyline points="265.625,248.75 264.375,247.5 263.125,246.875 261.25,246.875 260.0,247.5 258.75,248.75 258.125,250.625 258.125,251.875 258.75,253.75 260.0,255.0 261.25,255.625 263.125,255.625 264.375,255.0 265.625,253.75"/>
    <line x1="265.625" x2="265.625" y1="255.625" y2="246.875"/>
    <line x1="270.625" x2="270.625" y1="246.875" y2="255.625"/>
    <polyline points="270.625,249.375 272.5,247.5 273.75,246.875 275.625,246.875 276.875,247.5 277.5,249.375 277.5,255.625"/>
    <polyline points="277.5,249.375 279.375,247.5 280.625,246.875 282.5,246.875 283.75,247.5 284.375,249.375 284.375,255.625"/>
    <line x1="289.375" x2="289.375" y1="255.625" y2="246.875"/>
    <polygon points="288.75,242.5 289.375,243.125 290.0,242.5 289.375,241.875"/>
    <line x1="294.375" x2="294.375" y1="242.5" y2="255.625"/>
    <polyline points="297.5,260.0 298.125,260.0 299.375,259.375 300.625,258.125 301.875,255.625 305.625,246.875"/>
    <line x1="298.125" x2="301.875" y1="246.875" y2="255.625"/>
    <line x1="308.125" x2="308.125" y1="267.5" y2="280.625"/>
    <polyline points="308.125,278.75 306.875,280.0 305.625,280.625 303.75,280.625 302.5,280.0 301.25,278.75 300.625,276.875 300.625,275.625 301.25,273.75 302.5,272.5 303.75,271.875 305.625,271.875 306.875,272.5 308.125,273.75"/>
    <polygon points="313.125,277.5 312.5,278.125 313.125,278.75 313.75,278.125"/>
    <polygon points="309.375,292.5 307.5,293.125 306.875,294.375 306.875,295.625 307.5,296.875 308.75,297.5 311.25,298.125 313.125,298.75 314.375,300.0 315.0,301.25 315.0,303.125 314.375,304.375 313.75,305.0 311.875,305.625 309.375,305.625 307.5,305.0 306.875,304.375 306.25,303.125 306.25,301.25 306.875,300.0 308.125,298.75 310.0,298.125 312.5,297.5 313.75,296.875 314.375,295.625 314.375,294.375 313.75,293.125 311.875,292.5"/>
    <polyline points="301.875,294.375 301.25,293.125 299.375,292.5 298.125,292.5 296.25,293.125 295.0,295.0 294.375,298.125 294.375,301.25 295.0,303.75 296.25,305.0 298.125,305.625 298.75,305.625 300.625,305.0 301.875,303.75 302.5,301.875 302.5,301.25 301.875,299.375 300.625,298.125 298.75,297.5 298.125,297.5 296.25,298.125 295.0,299.375 294.375,301.25"/>
    <polyline points="289.375,296.875 288.75,298.75 287.5,300.0 285.625,300.625 285.0,300.625 283.125,300.0 281.875,298.75 281.25,296.875 281.25,296.25 281.875,294.375 283.125,293.125 285.0,292.5 285.625,292.5 287.5,293.125 288.75,294.375 289.375,296.875 289.375,300.0 288.75,303.125 287.5,305.0 285.625,305.625 284.375,305.625 282.5,305.0 281.875,303.75"/>
    <line x1="286.25" x2="286.25" y1="280.625" y2="267.5"/>
    <line x1="290.0" x2="293.75" y1="271.875" y2="280.625"/>
    <line x1="293.75" x2="297.5" y1="280.625" y2="271.875"/>
    <polyline points="278.75,273.75 280.625,273.125 281.25,272.5 281.875,271.25 281.875,270.0 281.25,268.75 280.625,268.125 278.75,267.5 273.125,267.5"/>
    <line x1="273.125" x2="273.125" y1="267.5" y2="280.625"/>
    <polyline points="273.125,280.625 278.75,280.625 280.625,280.0 281.25,279.375 281.875,278.125 281.875,276.25 281.25,275.0 280.625,274.375 278.75,273.75 273.125,273.75"/>
    <polyline points="320.625,295.0 321.875,294.375 323.75,292.5 323.75,305.625"/>
    <polyline points="331.25,303.125 331.875,304.375 332.5,305.0 334.375,305.625 336.25,305.625 338.125,305.0 339.375,303.75 340.0,301.875 340.0,300.625 339.375,298.75 338.75,298.125 337.5,297.5 335.625,297.5 339.375,292.5 332.5,292.5"/>
    <line x1="185.625" x2="185.625" y1="280.625" y2="271.875"/>
    <polyline points="185.625,273.75 184.375,272.5 183.125,271.875 181.25,271.875 180.0,272.5 178.75,273.75 178.125,275.625 178.125,276.875 178.75,278.75 180.0,280.0 181.25,280.625 183.125,280.625 184.375,280.0 185.625,278.75"/>
    <polyline points="187.5,255.625 178.75,255.625 185.0,249.375 186.25,247.5 186.875,246.25 186.875,245.0 186.25,243.75 185.625,243.125 184.375,242.5 181.875,242.5 180.625,243.125 180.0,243.75 179.375,245.0 179.375,245.625"/>
    <polyline points="110.0,271.875 109.375,273.75 108.125,275.0 106.25,275.625 105.625,275.625 103.75,275.0 102.5,273.75 101.875,271.875 101.875,271.25 102.5,269.375 103.75,268.125 105.625,267.5 106.25,267.5 108.125,268.125 109.375,269.375 110.0,271.875 110.0,275.0 109.375,278.125 108.125,280.0 106.25,280.625 105.0,280.625 103.125,280.0 102.5,278.75"/>
  </g>
</svg>
