<?xml version="1.0" encoding="utf-8" ?>
<svg xmlns="http://www.w3.org/2000/svg" xmlns:cc="http://creativecommons.org/ns#" xmlns:dc="http://purl.org/dc/elements/1.1/" xmlns:ev="http://www.w3.org/2001/xml-events" xmlns:inkscape="http://www.inkscape.org/namespaces/inkscape" xmlns:rdf="http://www.w3.org/1999/02/22-rdf-syntax-ns#" xmlns:sodipodi="http://sodipodi.sourceforge.net/DTD/sodipodi-0.dtd" xmlns:xlink="http://www.w3.org/1999/xlink" baseProfile="tiny" height="14.605cm" version="1.2" viewBox="0 0 419.52 552.0" width="11.0998cm">
  <metadata>
    <rdf:RDF>
      <cc:Work>
        <dc:format>image/svg+xml</dc:format>
        <dc:source>vpype pagesize 4.37inx5.75in text --position 10 25 --align left --size 16 --wrap 400 'Colin and Ian' text --position 10 45 --align left --size 16 --wrap 400 'Return Address 1' text --position 10 65 --align left --size 16 --wrap 400 'Return Address 2' text --position 100 250 --align left --size 20 --wrap 430 'Person 4 and Family' text --position 100 275 --align left --size 20 --wrap 430 '456 NW Creekside Ave' text --position 100 300 --align left --size 20 --wrap 430 'Spokane, WA 99201' text --position 100 325 --align left --size 20 --wrap 430 USA text --position 100 350 --align left --size 20 --wrap 430 '' linesort write /Users/cj/Documents/Projects/greeting-cards-2021/envelopes/p4.svg
</dc:source>
        <dc:date>2022-02-09T18:47:18.024897</dc:date>
      </cc:Work>
    </rdf:RDF>
  </metadata>
  <defs/>
  <g fill="none" id="layer1" inkscape:groupmode="layer" inkscape:label="1" stroke="#00f" style="display:inline">
    <polyline points="19.0,21.5 18.5,20.5 17.5,19.5 16.5,19.0 14.5,19.0 13.5,19.5 12.5,20.5 12.0,21.5 11.5,23.0 11.5,25.5 12.0,27.0 12.5,28.0 13.5,29.0 14.5,29.5 16.5,29.5 17.5,29.0 18.5,28.0 19.0,27.0"/>
    <polygon points="24.5,22.5 23.5,23.0 22.5,24.0 22.0,25.5 22.0,26.5 22.5,28.0 23.5,29.0 24.5,29.5 26.0,29.5 27.0,29.0 28.0,28.0 28.5,26.5 28.5,25.5 28.0,24.0 27.0,23.0 26.0,22.5"/>
    <line x1="32.0" x2="32.0" y1="19.0" y2="29.5"/>
    <line x1="36.0" x2="36.0" y1="29.5" y2="22.5"/>
    <polygon points="35.5,19.0 36.0,19.5 36.5,19.0 36.0,18.5"/>
    <line x1="40.0" x2="40.0" y1="22.5" y2="29.5"/>
    <polyline points="40.0,24.5 41.5,23.0 42.5,22.5 44.0,22.5 45.0,23.0 45.5,24.5 45.5,29.5"/>
    <line x1="47.0" x2="47.0" y1="42.5" y2="49.5"/>
    <polyline points="47.0,45.5 47.5,44.0 48.5,43.0 49.5,42.5 51.0,42.5"/>
    <line x1="53.5" x2="53.5" y1="42.5" y2="49.5"/>
    <polyline points="53.5,44.5 55.0,43.0 56.0,42.5 57.5,42.5 58.5,43.0 59.0,44.5 59.0,49.5"/>
    <line x1="69.5" x2="73.5" y1="49.5" y2="39.0"/>
    <line x1="73.5" x2="77.5" y1="39.0" y2="49.5"/>
    <line x1="76.0" x2="71.0" y1="46.0" y2="46.0"/>
    <line x1="73.5" x2="77.5" y1="59.0" y2="69.5"/>
    <line x1="76.0" x2="71.0" y1="66.0" y2="66.0"/>
    <line x1="69.5" x2="73.5" y1="69.5" y2="59.0"/>
    <line x1="85.5" x2="85.5" y1="59.0" y2="69.5"/>
    <polyline points="85.5,68.0 84.5,69.0 83.5,69.5 82.0,69.5 81.0,69.0 80.0,68.0 79.5,66.5 79.5,65.5 80.0,64.0 81.0,63.0 82.0,62.5 83.5,62.5 84.5,63.0 85.5,64.0"/>
    <polyline points="95.0,64.0 94.0,63.0 93.0,62.5 91.5,62.5 90.5,63.0 89.5,64.0 89.0,65.5 89.0,66.5 89.5,68.0 90.5,69.0 91.5,69.5 93.0,69.5 94.0,69.0 95.0,68.0"/>
    <line x1="95.0" x2="95.0" y1="69.5" y2="59.0"/>
    <line x1="99.0" x2="99.0" y1="62.5" y2="69.5"/>
    <polyline points="99.0,65.5 99.5,64.0 100.5,63.0 101.5,62.5 103.0,62.5"/>
    <polyline points="105.0,65.5 111.0,65.5 111.0,64.5 110.5,63.5 110.0,63.0 109.0,62.5 107.5,62.5 106.5,63.0 105.5,64.0 105.0,65.5 105.0,66.5 105.5,68.0 106.5,69.0 107.5,69.5 109.0,69.5 110.0,69.0 111.0,68.0"/>
    <polyline points="114.0,68.0 114.5,69.0 116.0,69.5 117.5,69.5 119.0,69.0 119.5,68.0 119.5,67.5 119.0,66.5 118.0,66.0 115.5,65.5 114.5,65.0 114.0,64.0 114.5,63.0 116.0,62.5 117.5,62.5 119.0,63.0 119.5,64.0"/>
    <polyline points="122.5,68.0 123.0,69.0 124.5,69.5 126.0,69.5 127.5,69.0 128.0,68.0 128.0,67.5 127.5,66.5 126.5,66.0 124.0,65.5 123.0,65.0 122.5,64.0 123.0,63.0 124.5,62.5 126.0,62.5 127.5,63.0 128.0,64.0"/>
    <polyline points="139.5,61.5 139.5,61.0 140.0,60.0 140.5,59.5 141.5,59.0 143.5,59.0 144.5,59.5 145.0,60.0 145.5,61.0 145.5,62.0 145.0,63.0 144.0,64.5 139.0,69.5 146.0,69.5"/>
    <polyline points="143.0,49.5 143.0,39.0 141.5,40.5 140.5,41.0"/>
    <polyline points="128.0,44.0 127.5,43.0 126.0,42.5 124.5,42.5 123.0,43.0 122.5,44.0 123.0,45.0 124.0,45.5 126.5,46.0 127.5,46.5 128.0,47.5 128.0,48.0 127.5,49.0 126.0,49.5 124.5,49.5 123.0,49.0 122.5,48.0"/>
    <polyline points="119.5,44.0 119.0,43.0 117.5,42.5 116.0,42.5 114.5,43.0 114.0,44.0 114.5,45.0 115.5,45.5 118.0,46.0 119.0,46.5 119.5,47.5 119.5,48.0 119.0,49.0 117.5,49.5 116.0,49.5 114.5,49.0 114.0,48.0"/>
    <polyline points="111.0,48.0 110.0,49.0 109.0,49.5 107.5,49.5 106.5,49.0 105.5,48.0 105.0,46.5 105.0,45.5 105.5,44.0 106.5,43.0 107.5,42.5 109.0,42.5 110.0,43.0 110.5,43.5 111.0,44.5 111.0,45.5 105.0,45.5"/>
    <polyline points="103.0,42.5 101.5,42.5 100.5,43.0 99.5,44.0 99.0,45.5"/>
    <line x1="99.0" x2="99.0" y1="42.5" y2="49.5"/>
    <line x1="95.0" x2="95.0" y1="49.5" y2="39.0"/>
    <polyline points="95.0,44.0 94.0,43.0 93.0,42.5 91.5,42.5 90.5,43.0 89.5,44.0 89.0,45.5 89.0,46.5 89.5,48.0 90.5,49.0 91.5,49.5 93.0,49.5 94.0,49.0 95.0,48.0"/>
    <polyline points="85.5,48.0 84.5,49.0 83.5,49.5 82.0,49.5 81.0,49.0 80.0,48.0 79.5,46.5 79.5,45.5 80.0,44.0 81.0,43.0 82.0,42.5 83.5,42.5 84.5,43.0 85.5,44.0"/>
    <line x1="85.5" x2="85.5" y1="39.0" y2="49.5"/>
    <line x1="82.0" x2="82.0" y1="29.5" y2="19.0"/>
    <polyline points="82.0,24.0 81.0,23.0 80.0,22.5 78.5,22.5 77.5,23.0 76.5,24.0 76.0,25.5 76.0,26.5 76.5,28.0 77.5,29.0 78.5,29.5 80.0,29.5 81.0,29.0 82.0,28.0"/>
    <polyline points="72.5,29.5 72.5,24.5 72.0,23.0 71.0,22.5 69.5,22.5 68.5,23.0 67.0,24.5"/>
    <line x1="67.0" x2="67.0" y1="22.5" y2="29.5"/>
    <line x1="63.0" x2="63.0" y1="29.5" y2="22.5"/>
    <polyline points="63.0,24.0 62.0,23.0 61.0,22.5 59.5,22.5 58.5,23.0 57.5,24.0 57.0,25.5 57.0,26.5 57.5,28.0 58.5,29.0 59.5,29.5 61.0,29.5 62.0,29.0 63.0,28.0"/>
    <line x1="43.0" x2="43.0" y1="42.5" y2="49.5"/>
    <polyline points="43.0,47.5 41.5,49.0 40.5,49.5 39.0,49.5 38.0,49.0 37.5,47.5 37.5,42.5"/>
    <line x1="34.0" x2="30.5" y1="42.5" y2="42.5"/>
    <polyline points="32.0,39.0 32.0,47.5 32.5,49.0 33.5,49.5 34.5,49.5"/>
    <polyline points="28.0,48.0 27.0,49.0 26.0,49.5 24.5,49.5 23.5,49.0 22.5,48.0 22.0,46.5 22.0,45.5 22.5,44.0 23.5,43.0 24.5,42.5 26.0,42.5 27.0,43.0 27.5,43.5 28.0,44.5 28.0,45.5 22.0,45.5"/>
    <line x1="19.0" x2="15.5" y1="49.5" y2="44.0"/>
    <polyline points="12.0,44.0 16.5,44.0 18.0,43.5 18.5,43.0 19.0,42.0 19.0,41.0 18.5,40.0 18.0,39.5 16.5,39.0 12.0,39.0"/>
    <line x1="12.0" x2="12.0" y1="39.0" y2="49.5"/>
    <polyline points="12.0,59.0 16.5,59.0 18.0,59.5 18.5,60.0 19.0,61.0 19.0,62.0 18.5,63.0 18.0,63.5 16.5,64.0 12.0,64.0"/>
    <line x1="15.5" x2="19.0" y1="64.0" y2="69.5"/>
    <polyline points="22.0,65.5 28.0,65.5 28.0,64.5 27.5,63.5 27.0,63.0 26.0,62.5 24.5,62.5 23.5,63.0 22.5,64.0 22.0,65.5 22.0,66.5 22.5,68.0 23.5,69.0 24.5,69.5 26.0,69.5 27.0,69.0 28.0,68.0"/>
    <line x1="30.5" x2="34.0" y1="62.5" y2="62.5"/>
    <polyline points="37.5,62.5 37.5,67.5 38.0,69.0 39.0,69.5 40.5,69.5 41.5,69.0 43.0,67.5"/>
    <line x1="43.0" x2="43.0" y1="69.5" y2="62.5"/>
    <line x1="47.0" x2="47.0" y1="62.5" y2="69.5"/>
    <polyline points="47.0,65.5 47.5,64.0 48.5,63.0 49.5,62.5 51.0,62.5"/>
    <line x1="53.5" x2="53.5" y1="62.5" y2="69.5"/>
    <polyline points="53.5,64.5 55.0,63.0 56.0,62.5 57.5,62.5 58.5,63.0 59.0,64.5 59.0,69.5"/>
    <polyline points="34.5,69.5 33.5,69.5 32.5,69.0 32.0,67.5 32.0,59.0"/>
    <line x1="12.0" x2="12.0" y1="59.0" y2="69.5"/>
    <line x1="94.0" x2="94.0" y1="29.5" y2="19.0"/>
    <line x1="103.5" x2="103.5" y1="22.5" y2="29.5"/>
    <polyline points="103.5,28.0 102.5,29.0 101.5,29.5 100.0,29.5 99.0,29.0 98.0,28.0 97.5,26.5 97.5,25.5 98.0,24.0 99.0,23.0 100.0,22.5 101.5,22.5 102.5,23.0 103.5,24.0"/>
    <polyline points="107.5,24.5 109.0,23.0 110.0,22.5 111.5,22.5 112.5,23.0 113.0,24.5 113.0,29.5"/>
    <line x1="107.5" x2="107.5" y1="29.5" y2="22.5"/>
    <polyline points="102.5,242.5 108.125,242.5 110.0,243.125 110.625,243.75 111.25,245.0 111.25,246.875 110.625,248.125 110.0,248.75 108.125,249.375 102.5,249.375"/>
    <line x1="102.5" x2="102.5" y1="255.625" y2="242.5"/>
    <polyline points="115.0,250.625 122.5,250.625 122.5,249.375 121.875,248.125 121.25,247.5 120.0,246.875 118.125,246.875 116.875,247.5 115.625,248.75 115.0,250.625 115.0,251.875 115.625,253.75 116.875,255.0 118.125,255.625 120.0,255.625 121.25,255.0 122.5,253.75"/>
    <line x1="126.875" x2="126.875" y1="255.625" y2="246.875"/>
    <polyline points="126.875,250.625 127.5,248.75 128.75,247.5 130.0,246.875 131.875,246.875"/>
    <polyline points="134.375,253.75 135.0,255.0 136.875,255.625 138.75,255.625 140.625,255.0 141.25,253.75 141.25,253.125 140.625,251.875 139.375,251.25 136.25,250.625 135.0,250.0 134.375,248.75 135.0,247.5 136.875,246.875 138.75,246.875 140.625,247.5 141.25,248.75"/>
    <polygon points="148.125,246.875 146.875,247.5 145.625,248.75 145.0,250.625 145.0,251.875 145.625,253.75 146.875,255.0 148.125,255.625 150.0,255.625 151.25,255.0 152.5,253.75 153.125,251.875 153.125,250.625 152.5,248.75 151.25,247.5 150.0,246.875"/>
    <line x1="157.5" x2="157.5" y1="246.875" y2="255.625"/>
    <polyline points="157.5,249.375 159.375,247.5 160.625,246.875 162.5,246.875 163.75,247.5 164.375,249.375 164.375,255.625"/>
    <line x1="162.5" x2="165.625" y1="267.5" y2="280.625"/>
    <line x1="165.625" x2="168.75" y1="280.625" y2="267.5"/>
    <line x1="168.75" x2="171.875" y1="267.5" y2="280.625"/>
    <line x1="171.875" x2="175.0" y1="280.625" y2="267.5"/>
    <line x1="185.0" x2="185.0" y1="255.625" y2="242.5"/>
    <polyline points="185.0,242.5 178.75,251.25 188.125,251.25"/>
    <polyline points="208.75,248.75 207.5,247.5 206.25,246.875 204.375,246.875 203.125,247.5 201.875,248.75 201.25,250.625 201.25,251.875 201.875,253.75 203.125,255.0 204.375,255.625 206.25,255.625 207.5,255.0 208.75,253.75"/>
    <line x1="208.75" x2="208.75" y1="255.625" y2="246.875"/>
    <line x1="213.75" x2="213.75" y1="246.875" y2="255.625"/>
    <polyline points="213.75,249.375 215.625,247.5 216.875,246.875 218.75,246.875 220.0,247.5 220.625,249.375 220.625,255.625"/>
    <line x1="232.5" x2="232.5" y1="255.625" y2="242.5"/>
    <polyline points="232.5,248.75 231.25,247.5 230.0,246.875 228.125,246.875 226.875,247.5 225.625,248.75 225.0,250.625 225.0,251.875 225.625,253.75 226.875,255.0 228.125,255.625 230.0,255.625 231.25,255.0 232.5,253.75"/>
    <line x1="232.5" x2="232.5" y1="267.5" y2="280.625"/>
    <line x1="232.5" x2="238.75" y1="278.125" y2="271.875"/>
    <line x1="235.0" x2="239.375" y1="275.625" y2="280.625"/>
    <polyline points="242.5,278.75 243.125,280.0 245.0,280.625 246.875,280.625 248.75,280.0 249.375,278.75 249.375,278.125 248.75,276.875 247.5,276.25 244.375,275.625 243.125,275.0 242.5,273.75 243.125,272.5 245.0,271.875 246.875,271.875 248.75,272.5 249.375,273.75"/>
    <line x1="253.75" x2="253.75" y1="271.875" y2="280.625"/>
    <line x1="265.625" x2="265.625" y1="280.625" y2="267.5"/>
    <polyline points="265.625,273.75 264.375,272.5 263.125,271.875 261.25,271.875 260.0,272.5 258.75,273.75 258.125,275.625 258.125,276.875 258.75,278.75 260.0,280.0 261.25,280.625 263.125,280.625 264.375,280.0 265.625,278.75"/>
    <polyline points="270.0,275.625 277.5,275.625 277.5,274.375 276.875,273.125 276.25,272.5 275.0,271.875 273.125,271.875 271.875,272.5 270.625,273.75 270.0,275.625 270.0,276.875 270.625,278.75 271.875,280.0 273.125,280.625 275.0,280.625 276.25,280.0 277.5,278.75"/>
    <line x1="290.0" x2="295.0" y1="280.625" y2="267.5"/>
    <line x1="295.0" x2="300.0" y1="267.5" y2="280.625"/>
    <line x1="298.125" x2="291.875" y1="276.25" y2="276.25"/>
    <line x1="301.875" x2="305.625" y1="271.875" y2="280.625"/>
    <line x1="305.625" x2="309.375" y1="280.625" y2="271.875"/>
    <polyline points="312.5,275.625 320.0,275.625 320.0,274.375 319.375,273.125 318.75,272.5 317.5,271.875 315.625,271.875 314.375,272.5 313.125,273.75 312.5,275.625 312.5,276.875 313.125,278.75 314.375,280.0 315.625,280.625 317.5,280.625 318.75,280.0 320.0,278.75"/>
    <polyline points="297.5,260.0 298.125,260.0 299.375,259.375 300.625,258.125 301.875,255.625 305.625,246.875"/>
    <line x1="298.125" x2="301.875" y1="246.875" y2="255.625"/>
    <line x1="294.375" x2="294.375" y1="255.625" y2="242.5"/>
    <polygon points="288.75,242.5 289.375,243.125 290.0,242.5 289.375,241.875"/>
    <line x1="289.375" x2="289.375" y1="246.875" y2="255.625"/>
    <polyline points="284.375,255.625 284.375,249.375 283.75,247.5 282.5,246.875 280.625,246.875 279.375,247.5 277.5,249.375"/>
    <polyline points="277.5,255.625 277.5,249.375 276.875,247.5 275.625,246.875 273.75,246.875 272.5,247.5 270.625,249.375"/>
    <line x1="270.625" x2="270.625" y1="246.875" y2="255.625"/>
    <line x1="265.625" x2="265.625" y1="255.625" y2="246.875"/>
    <polyline points="265.625,248.75 264.375,247.5 263.125,246.875 261.25,246.875 260.0,247.5 258.75,248.75 258.125,250.625 258.125,251.875 258.75,253.75 260.0,255.0 261.25,255.625 263.125,255.625 264.375,255.0 265.625,253.75"/>
    <line x1="252.5" x2="247.5" y1="248.75" y2="248.75"/>
    <line x1="247.5" x2="255.625" y1="242.5" y2="242.5"/>
    <line x1="247.5" x2="247.5" y1="242.5" y2="255.625"/>
    <polygon points="253.125,267.5 253.75,268.125 254.375,267.5 253.75,266.875"/>
    <polyline points="228.125,278.75 226.875,280.0 225.625,280.625 223.75,280.625 222.5,280.0 221.25,278.75 220.625,276.875 220.625,275.625 221.25,273.75 222.5,272.5 223.75,271.875 225.625,271.875 226.875,272.5 227.5,273.125 228.125,274.375 228.125,275.625 220.625,275.625"/>
    <polyline points="216.875,278.75 215.625,280.0 214.375,280.625 212.5,280.625 211.25,280.0 210.0,278.75 209.375,276.875 209.375,275.625 210.0,273.75 211.25,272.5 212.5,271.875 214.375,271.875 215.625,272.5 216.25,273.125 216.875,274.375 216.875,275.625 209.375,275.625"/>
    <polyline points="206.875,271.875 205.0,271.875 203.75,272.5 202.5,273.75 201.875,275.625"/>
    <line x1="201.875" x2="201.875" y1="271.875" y2="280.625"/>
    <polyline points="197.5,277.5 196.875,278.75 195.625,280.0 194.375,280.625 191.875,280.625 190.625,280.0 189.375,278.75 188.75,277.5 188.125,275.625 188.125,272.5 188.75,270.625 189.375,269.375 190.625,268.125 191.875,267.5 194.375,267.5 195.625,268.125 196.875,269.375 197.5,270.625"/>
    <line x1="198.125" x2="201.25" y1="292.5" y2="305.625"/>
    <line x1="201.25" x2="204.375" y1="305.625" y2="292.5"/>
    <line x1="204.375" x2="207.5" y1="292.5" y2="305.625"/>
    <line x1="207.5" x2="210.625" y1="305.625" y2="292.5"/>
    <line x1="217.5" x2="212.5" y1="292.5" y2="305.625"/>
    <line x1="214.375" x2="220.625" y1="301.25" y2="301.25"/>
    <line x1="222.5" x2="217.5" y1="305.625" y2="292.5"/>
    <polyline points="235.625,303.75 236.25,305.0 238.125,305.625 239.375,305.625 241.25,305.0 242.5,303.125 243.125,300.0 243.125,296.875 242.5,294.375 241.25,293.125 239.375,292.5 238.75,292.5 236.875,293.125 235.625,294.375 235.0,296.25 235.0,296.875 235.625,298.75 236.875,300.0 238.75,300.625 239.375,300.625 241.25,300.0 242.5,298.75 243.125,296.875"/>
    <polyline points="248.125,303.75 248.75,305.0 250.625,305.625 251.875,305.625 253.75,305.0 255.0,303.125 255.625,300.0 255.625,296.875 255.0,294.375 253.75,293.125 251.875,292.5 251.25,292.5 249.375,293.125 248.125,294.375 247.5,296.25 247.5,296.875 248.125,298.75 249.375,300.0 251.25,300.625 251.875,300.625 253.75,300.0 255.0,298.75 255.625,296.875"/>
    <polyline points="260.625,295.625 260.625,295.0 261.25,293.75 261.875,293.125 263.125,292.5 265.625,292.5 266.875,293.125 267.5,293.75 268.125,295.0 268.125,296.25 267.5,297.5 266.25,299.375 260.0,305.625 268.75,305.625"/>
    <polygon points="276.25,292.5 274.375,293.125 273.125,295.0 272.5,298.125 272.5,300.0 273.125,303.125 274.375,305.0 276.25,305.625 277.5,305.625 279.375,305.0 280.625,303.125 281.25,300.0 281.25,298.125 280.625,295.0 279.375,293.125 277.5,292.5"/>
    <polyline points="286.875,295.0 288.125,294.375 290.0,292.5 290.0,305.625"/>
    <polyline points="185.0,303.125 184.375,303.75 183.75,303.125 184.375,302.5 185.0,303.125 185.0,304.375 183.75,305.625"/>
    <polyline points="180.0,303.75 178.75,305.0 177.5,305.625 175.625,305.625 174.375,305.0 173.125,303.75 172.5,301.875 172.5,300.625 173.125,298.75 174.375,297.5 175.625,296.875 177.5,296.875 178.75,297.5 179.375,298.125 180.0,299.375 180.0,300.625 172.5,300.625"/>
    <polyline points="168.125,305.625 168.125,299.375 167.5,297.5 166.25,296.875 164.375,296.875 163.125,297.5 161.25,299.375"/>
    <line x1="161.25" x2="161.25" y1="296.875" y2="305.625"/>
    <line x1="156.25" x2="156.25" y1="305.625" y2="296.875"/>
    <polyline points="156.25,298.75 155.0,297.5 153.75,296.875 151.875,296.875 150.625,297.5 149.375,298.75 148.75,300.625 148.75,301.875 149.375,303.75 150.625,305.0 151.875,305.625 153.75,305.625 155.0,305.0 156.25,303.75"/>
    <line x1="145.625" x2="141.25" y1="305.625" y2="300.625"/>
    <line x1="138.75" x2="145.0" y1="303.125" y2="296.875"/>
    <line x1="138.75" x2="138.75" y1="292.5" y2="305.625"/>
    <polygon points="129.375,296.875 128.125,297.5 126.875,298.75 126.25,300.625 126.25,301.875 126.875,303.75 128.125,305.0 129.375,305.625 131.25,305.625 132.5,305.0 133.75,303.75 134.375,301.875 134.375,300.625 133.75,298.75 132.5,297.5 131.25,296.875"/>
    <line x1="115.0" x2="115.0" y1="296.875" y2="310.0"/>
    <polyline points="115.0,303.75 116.25,305.0 117.5,305.625 119.375,305.625 120.625,305.0 121.875,303.75 122.5,301.875 122.5,300.625 121.875,298.75 120.625,297.5 119.375,296.875 117.5,296.875 116.25,297.5 115.0,298.75"/>
    <polyline points="110.625,294.375 109.375,293.125 107.5,292.5 105.0,292.5 103.125,293.125 101.875,294.375 101.875,295.625 102.5,296.875 103.125,297.5 104.375,298.125 108.125,299.375 109.375,300.0 110.0,300.625 110.625,301.875 110.625,303.75 109.375,305.0 107.5,305.625 105.0,305.625 103.125,305.0 101.875,303.75"/>
    <polyline points="102.5,317.5 102.5,326.875 103.125,328.75 104.375,330.0 106.25,330.625 107.5,330.625 109.375,330.0 110.625,328.75 111.25,326.875 111.25,317.5"/>
    <polyline points="115.625,328.75 116.875,330.0 118.75,330.625 121.25,330.625 123.125,330.0 124.375,328.75 124.375,326.875 123.75,325.625 123.125,325.0 121.875,324.375 118.125,323.125 116.875,322.5 116.25,321.875 115.625,320.625 115.625,319.375 116.875,318.125 118.75,317.5 121.25,317.5 123.125,318.125 124.375,319.375"/>
    <line x1="131.875" x2="126.875" y1="317.5" y2="330.625"/>
    <line x1="128.75" x2="135.0" y1="326.25" y2="326.25"/>
    <line x1="136.875" x2="131.875" y1="330.625" y2="317.5"/>
    <line x1="150.0" x2="150.0" y1="280.625" y2="267.5"/>
    <line x1="150.0" x2="158.75" y1="267.5" y2="280.625"/>
    <line x1="158.75" x2="158.75" y1="280.625" y2="267.5"/>
    <polyline points="135.0,269.375 134.375,268.125 132.5,267.5 131.25,267.5 129.375,268.125 128.125,270.0 127.5,273.125 127.5,276.25 128.125,278.75 129.375,280.0 131.25,280.625 131.875,280.625 133.75,280.0 135.0,278.75 135.625,276.875 135.625,276.25 135.0,274.375 133.75,273.125 131.875,272.5 131.25,272.5 129.375,273.125 128.125,274.375 127.5,276.25"/>
    <polyline points="121.875,267.5 115.625,267.5 115.0,273.125 115.625,272.5 117.5,271.875 119.375,271.875 121.25,272.5 122.5,273.75 123.125,275.625 123.125,276.875 122.5,278.75 121.25,280.0 119.375,280.625 117.5,280.625 115.625,280.0 115.0,279.375 114.375,278.125"/>
    <polyline points="111.25,276.25 101.875,276.25 108.125,267.5"/>
    <line x1="108.125" x2="108.125" y1="267.5" y2="280.625"/>
  </g>
</svg>
