<?xml version="1.0" encoding="utf-8" ?>
<svg xmlns="http://www.w3.org/2000/svg" xmlns:cc="http://creativecommons.org/ns#" xmlns:dc="http://purl.org/dc/elements/1.1/" xmlns:ev="http://www.w3.org/2001/xml-events" xmlns:inkscape="http://www.inkscape.org/namespaces/inkscape" xmlns:rdf="http://www.w3.org/1999/02/22-rdf-syntax-ns#" xmlns:sodipodi="http://sodipodi.sourceforge.net/DTD/sodipodi-0.dtd" xmlns:xlink="http://www.w3.org/1999/xlink" baseProfile="tiny" height="27.94001509cm" version="1.2" viewBox="0 0 1632.00088128 1056.0005702400001" width="43.18002332cm">
  <metadata>
    <rdf:RDF>
      <cc:Work>
        <dc:format>image/svg+xml</dc:format>
        <dc:source>vpype read /Users/cj/Documents/Projects/greeting-cards-2021/inside/11x17/individual/insides-map-onecard-11x17-0.svg read /Users/cj/Documents/Projects/greeting-cards-2021/inside/11x17/individual/insides-map-onecard-11x17-1.svg read /Users/cj/Documents/Projects/greeting-cards-2021/inside/11x17/individual/insides-map-onecard-11x17-2.svg read /Users/cj/Documents/Projects/greeting-cards-2021/inside/11x17/individual/insides-map-onecard-11x17-3.svg write /Users/cj/Documents/Projects/greeting-cards-2021/inside/11x17/combined/insides-map-11x17-0.svg
</dc:source>
        <dc:date>2022-02-09T18:39:12.242302</dc:date>
      </cc:Work>
    </rdf:RDF>
  </metadata>
  <defs/>
  <g fill="none" id="layer1" inkscape:groupmode="layer" inkscape:label="1" stroke="#00f" style="display:inline">
    <polyline points="97.7718,196.8533 90.718,200.3688 83.0852,206.7289 94.7199,199.7113 97.7718,196.8533 98.038,195.0252 90.1012,200.0621 82.3249,206.8847 94.4589,197.1427 101.0683,194.2157 92.4044,201.7677 94.3702,202.2973 99.1394,200.7104 98.8693,203.1557 101.736,203.1804 106.6956,196.1179 105.4702,195.9064 105.75,193.8395 96.7468,195.8117 82.3249,206.8847 102.9501,192.5914 114.8687,190.1503 115.2479,189.0843 114.2343,189.7474 122.9635,189.5383 127.2952,187.9401 117.2575,188.4358 105.0361,192.244 105.2383,193.1129 108.2156,191.7481 104.5214,193.6901 109.6005,192.3254 110.0748,191.6482 108.2156,191.7481 110.8772,190.4186 108.2156,191.7481 110.0748,191.6482 107.1547,195.7963 109.0343,195.2957 105.6501,197.0391 103.1443,201.272 104.2922,201.6845 111.6027,198.3804 110.2964,195.5195 109.0343,195.2957 110.2964,195.5195 111.6027,198.3804 118.7547,196.9779 120.3304,193.3988 124.2752,189.2207 112.3383,190.0988 115.5841,188.8543 114.675,188.2686 103.3781,193.1633 91.7495,203.1228 84.1821,214.385 79.7722,224.9734 76.9658,236.6338 75.8445,249.0267 76.4411,261.7912 72.1192,278.6599 71.5254,288.703 72.5789,298.0459 71.6727,298.3128 74.6124,298.4636 75.3309,296.0578 75.3874,298.0648 76.8659,297.1556 86.8542,305.7686 82.0183,299.9735 81.557,300.8362 79.4794,298.8698 76.8337,287.8152 72.4449,283.5907 69.9336,283.9509 71.4472,288.141 69.1726,286.5243 71.2826,289.8634 71.2793,290.8604 69.7357,290.9054 70.0467,292.3711 73.3639,297.9895 67.7427,297.9831 65.5099,290.3911 66.2579,281.5696 69.9546,271.8977 76.441,261.7913 83.7085,273.185 98.1862,289.322 115.8206,303.088 135.0933,313.2975 154.3444,319.0713 171.0051,319.9986 183.4263,317.1017 190.1323,313.3141 195.3651,308.1536 184.4033,319.7237 171.2754,328.7618 156.5554,334.873 140.8864,337.7901 124.9533,337.3854 109.4524,333.6772 95.0613,326.8272 85.3771,319.8032 72.0479,305.0237 67.3025,297.113 65.6267,291.4145 65.6273,284.9986 67.3044,278.0205 76.4411,261.7912 105.045,274.083 140.686,283.472 165.3227,287.0851 186.7732,287.7222 202.4604,284.9969 206.989,282.4268 209.0775,279.1588 206.6381,287.44 197.6311,305.0353 192.9426,310.8977 186.9532,315.3867 179.5752,318.4476 171.0051,319.9986 154.3445,319.0713 135.0934,313.2975 115.8207,303.0879 103.7843,294.2379 92.9414,284.141 79.8099,267.5157 76.4411,261.7913 80.4019,256.988 95.2529,243.0378 113.5132,230.7027 133.6105,221.0449 147.1765,216.5163 160.2686,213.7276 177.6171,212.9954 160.2686,213.7276 147.1765,216.5162 120.0918,227.1392 95.2529,243.0377 84.8871,252.2307 76.4411,261.7911 69.9186,245.2815 68.5027,232.9817 70.5589,222.1897 76.8311,212.3249 88.3834,201.3444 105.6114,191.3794 124.8313,186.2128 140.7638,185.7832 156.4374,188.6751 171.1674,194.7625 187.2781,206.4478 197.6389,218.559 201.9441,225.5996 194.4961,217.9333 186.9454,214.6603 177.6171,212.9954 186.9454,214.6603 194.4961,217.9333 200.0114,222.7027 203.7463,229.1611 208.0025,240.3416 210.8634,256.0209 210.8301,267.9841 208.9258,279.7949 208.1864,279.3532 209.9239,261.7912 209.034,249.1507 206.4066,237.1094 201.1411,224.251 198.8183,220.3239 190.9606,216.1015 182.4849,213.622 172.3836,212.7859 157.068,214.2546 143.8092,217.491 126.8124,223.9096 110.297,232.5988 92.502,245.2818 76.4411,261.7912 64.9481,269.9663 61.0137,275.3465 60.6619,279.3826 58.6255,263.5749 59.9202,247.6894 64.4894,232.4201 74.3217,215.4289 69.7221,224.7138 68.5309,235.9394 70.8103,248.5179 76.441,261.7911 69.9546,271.8975 66.2578,281.5694 65.5098,290.3909 67.7425,297.9829 60.6619,279.3826 59.957,273.4156 62.4532,276.1576 60.167,270.5609 58.9844,258.1744 58.6698,263.003 59.3013,251.5111 62.0529,239.409 67.0365,228.3145 71.2499,222.0847 74.1128,220.0332 74.7571,221.908 76.3402,220.2333 77.7247,220.8417 81.9113,217.9051 83.9384,214.2964 86.7087,213.6282 88.5715,214.5751 91.387,213.1182 93.0565,211.2726 93.0478,209.1598 95.9491,207.4273 97.7406,204.4794 100.8954,207.2613 101.1286,209.5426 96.1548,212.7219 97.5976,214.9005 96.9911,217.0804 98.1786,217.3123 95.7355,221.0571 96.5064,222.3688 93.103,227.0718 89.9341,228.833 87.1037,235.7856 85.1745,236.9393 83.7218,233.2372 85.1209,231.4803 86.9065,233.2891 87.1373,228.9523 86.5086,230.6146 85.8372,229.5836 83.4242,231.2311 82.3449,234.0605 82.2667,231.8388 79.1569,234.5248 79.3495,233.5801 77.4362,234.1704 76.7896,236.0143 74.8232,235.1164 73.7417,240.9501 73.3252,236.2609 74.8488,233.1718 73.3595,234.5287 72.1695,237.4833 73.2317,237.0141 73.3621,239.4737 71.0233,241.7633 71.7734,243.2255 69.3482,252.2715 67.4604,253.5869 67.102,249.5795 65.2358,257.1885 63.7382,257.9258 64.1291,271.6476 66.8628,279.3664 66.0587,282.4498 65.368,281.7819 65.6189,284.0755 61.3228,276.8274 61.2832,278.5767 61.6849,277.6055 66.2002,287.5444 71.1002,293.9409 76.8974,298.1464 83.1967,299.8744 89.5688,299.0071 95.5797,295.6036 100.8193,289.8959 104.9309,282.2728 107.6342,273.2539 108.7449,263.454 108.1874,253.5407 105.9997,244.1897 102.3308,236.0382 97.4309,229.6417 91.6336,225.4362 85.3343,223.7082 77.9237,224.9708 72.0142,228.7789 66.9395,234.8368 62.5314,244.1897 60.1351,255.1719 60.1351,268.4106 62.0586,277.9013 65.0766,274.0429 67.7678,277.6374 66.8629,279.3664 68.6454,285.2916 67.7221,285.9696 66.0587,282.4498 66.8629,279.3664"/>
    <polyline points="68.5745,288.3061 68.1063,287.1584 69.7899,292.2199"/>
    <polyline points="81.4261,283.586 87.3486,297.184 95.0964,309.4219 90.6482,310.1508 94.85,312.158 91.2075,310.0831 95.0964,309.4219 105.6211,320.9807 117.5659,329.6633 126.0334,333.6388 136.14,336.3071 145.4501,336.2229 153.5969,332.2267 159.346,327.816 169.4954,315.7002 177.2832,299.9107 180.8933,287.8665 183.1042,275.0299 183.4294,251.8401 181.5806,238.8658 178.3116,226.5881 169.4954,207.8823 162.9517,199.3402 153.5969,191.3559 145.4501,187.3597 136.981,185.6251 128.4307,186.3409 130.7617,186.8976 130.233,187.4729 121.8192,187.1899 131.9904,185.8347 143.7839,186.4165 134.8825,186.2492 142.0642,188.014 140.9439,189.5799 131.529,189.9348 128.3491,189.0307 129.9858,187.8765 127.7249,187.9563 130.8131,187.0579 128.4307,186.3409 134.8825,186.2492 134.6916,187.5234 124.6039,190.5002 114.8176,195.5762 110.7878,198.3592 110.6856,199.3413 113.383,199.6236 110.2579,201.9097 104.8042,201.5314 108.1559,199.6838 113.3141,199.9666 115.9828,198.3044 113.8783,199.4536 113.5846,202.2568 111.5252,202.062 113.5368,201.7797 112.2289,203.525 114.1207,204.0628 114.7487,205.615 112.4737,208.3555 106.1638,207.5164 104.0436,205.3676 100.6998,205.1993 100.7718,202.5767 101.736,203.1803 103.1443,201.272 112.2078,202.8996"/>
    <polyline points="122.2591,202.8447 128.0702,199.6 118.5057,205.2387 118.9075,206.0739 117.688,204.9525 118.5057,205.2387 118.2356,208.2977 117.1633,209.1847 116.5587,208.3445 116.3795,210.9982 114.6354,211.3703 110.8042,209.2987 114.0505,210.3053 115.5518,208.0125 117.6552,207.3449 115.0637,208.2474 116.3795,210.9982 114.1869,213.2171 113.4739,212.6603 115.5758,210.9693 113.2102,212.3436 112.3477,211.856 113.0229,210.8251 110.2003,213.2515 107.3899,210.5145 109.2536,209.8402 109.5251,208.242 111.1343,208.4755 111.8968,208.8757 110.6706,209.6744 109.4288,209.2293 114.6354,211.3703 113.3686,213.1183 112.3131,212.4105 114.4719,212.9534 114.2904,214.5994 114.3271,213.8047 112.8122,214.3182 113.3686,213.1183"/>
    <polyline points="125.6624,216.0983 129.6949,221.3878 132.9455,223.5802 136.2089,221.3844 143.4871,227.0159 145.2774,226.5741 149.5085,212.2584 147.5565,210.2312 139.2232,206.7288 137.7991,209.7561 134.2086,210.8132 129.8286,215.1 125.6624,216.0983 124.4021,214.3102 125.6624,216.0983 129.8286,215.1 132.533,211.4894 139.0305,208.4876 138.8241,204.6906 136.7582,203.8155 135.6163,197.2082 132.1865,197.7351 123.2892,192.95 119.3319,198.1467 119.4299,196.8722 115.4265,199.215 117.3054,197.6198 114.855,197.336 110.6856,199.3413 113.3115,199.224 111.4272,200.9282 115.9623,199.0348 119.9431,200.6445 122.2591,202.8447 122.6279,205.4884 126.9981,205.1902 127.8827,207.6869 128.0207,213.4489 124.4021,214.3102 122.6328,214.0534 122.4274,211.6427 120.4753,212.384 122.6328,214.0534 121.4336,217.0525 129.814,232.5901 133.9535,249.1507 134.5222,269.4143 130.6018,288.7585 128.9643,293.1708 127.2702,292.8738 127.6409,290.6327 125.0389,289.4687 124.5371,286.404 121.113,286.286 123.0773,289.9688 121.992,292.9047 123.0247,300.218 118.6692,298.0254 112.8877,299.7017 111.784,301.6801 103.6014,307.6609 94.8077,311.4198 95.8602,312.3276 94.2321,312.2109 102.347,320.7593 108.2557,323.7266 112.6389,324.4513 118.0811,323.3847 120.7381,321.2102 125.8149,321.3385 126.1742,319.9121 133.1437,319.555 130.7308,318.2702 130.7629,316.1409 133.8115,312.8567 132.3555,312.3406 134.4052,309.2523 136.4159,307.4358 143.6273,306.8244 142.2777,305.6593 136.3654,305.1673 133.1166,298.0085 129.4049,297.1121 130.3202,296.8359 127.5915,294.3465 127.7346,292.7213 128.9643,293.1708 123.8481,303.0879 114.6373,313.5947 105.4284,318.8092 94.0313,319.9713 86.0145,317.4905 77.1327,311.0473 70.8683,303.2587 73.4569,301.5319 72.5789,298.0459 75.5608,299.7072 74.623,299.1726 73.4569,301.5319 76.7611,309.4915 83.8988,318.5099"/>
    <polyline points="100.8018,330.008 106.8722,332.3439 114.8687,333.4323"/>
    <line x1="134.8434" x2="155.0118" y1="338.03" y2="335.3139"/>
    <polyline points="168.885,330.008 177.8431,323.8342 184.4184,316.6715"/>
    <polygon points="174.9544,305.8295 171.5075,309.6092 172.976,311.7015 175.1217,310.4714 176.4785,311.1473 177.8228,309.6666 176.7029,309.007 176.2506,306.124"/>
    <polygon points="181.4956,299.7672 176.6682,299.9708 176.751,298.9383 175.5875,299.7192 177.2988,296.2481 175.1763,297.3435 171.9646,296.7288 168.2732,302.3447 165.8818,303.1683 163.2898,300.4425 163.0554,304.5342 165.4471,307.0603 164.5515,307.5422 169.8725,307.7452 171.5075,309.6092 178.1598,303.4532 180.0049,299.952 180.7257,300.6698 181.4956,299.7672 180.7257,300.6698 180.0049,299.952 178.1598,303.4532 174.9544,305.8295 176.2506,306.124 176.7029,309.007 177.8228,309.6666 175.6629,311.5003 177.575,311.7197 187.9901,305.0809 193.4354,297.9217 189.4574,297.518 182.7966,304.0556 181.0456,303.0225"/>
    <polyline points="171.6947,287.5984 174.2245,289.4326 175.4553,288.5191 176.2138,291.4831 175.337,293.4158 177.5218,292.0393 178.0619,295.2808 175.1763,297.3435 171.9646,296.7288 168.2732,302.3446 165.8818,303.1683 163.7524,301.3106 166.8128,301.3366 164.77,300.8648 164.0067,299.0574 166.8274,296.8385 168.3652,290.6989 170.5481,288.4943 171.4671,289.1921 171.6947,287.5984 175.1912,284.1958 177.0636,285.3566 179.8285,283.4099 179.6985,286.8957 175.5408,287.7524 174.2245,289.4326 172.0222,287.3844 169.5009,289.4208 164.5715,288.0342 159.3621,290.1087 157.0015,299.6389 154.8317,302.6942 155.3641,300.4358 153.5533,300.957 154.3546,299.5878 156.3738,299.9569 154.2346,299.3101 157.1617,296.1258"/>
    <polyline points="152.8862,306.5318 154.1543,304.7303 150.3187,309.2929 146.5921,308.8548 149.0357,306.0761 150.7667,304.955 151.4688,305.6567 152.8361,302.0937 146.1258,307.473 145.0053,311.0813 145.9784,308.7723 146.9377,309.7462"/>
    <line x1="145.6361" x2="144.4299" y1="304.1873" y2="303.2785"/>
    <polyline points="124.1067,276.4414 122.9755,278.6366 124.074,274.1641 125.0296,274.1049 124.0236,273.0633 121.396,273.7483 120.2005,275.8509 118.4935,274.4313 122.9755,278.6366 123.3814,282.9908 124.6615,280.8803 123.7677,279.9356 124.5818,281.2177 125.1862,280.3546 120.4984,280.3319 118.9251,281.8506 120.4984,280.3319"/>
    <polyline points="110.8358,291.9049 109.9619,292.269 110.8358,291.9049 107.4433,288.3985 107.4932,289.2433"/>
    <polyline points="100.5823,284.271 101.3861,284.9513 100.5823,284.271 99.7466,286.3887 99.1079,284.1597 97.2693,286.5959 95.6298,284.3412 99.1079,284.1597"/>
    <polygon points="95.276,278.2149 96.1014,279.5237"/>
    <polygon points="89.4376,275.4495 90.2757,276.1671 90.6969,275.154"/>
    <polyline points="86.1022,270.2448 88.1862,270.6274 89.7396,267.7759 94.3772,268.276 95.3093,266.5895 95.2934,267.921 96.5165,266.5577 100.3762,268.9823 107.5136,266.8321 108.8169,264.0037 101.9543,261.7697 101.5851,259.8199 98.4304,257.9493 97.7257,255.2524 96.1301,254.1634 95.8494,256.7296 94.8815,255.7351 95.2771,253.7362 93.4243,255.7081 93.5954,254.6718 91.0471,254.5151 85.5228,257.2059 83.3558,256.6259 83.6008,259.0721 82.918,258.677 82.2272,260.7532 82.8571,262.8467 83.9695,262.7905 83.381,265.1567 86.1022,270.2448 84.457,273.3177 85.4801,275.3467 87.0108,273.6674 82.5166,265.6162 81.4322,270.1022 82.3366,270.9739 83.41,269.8638 84.0714,273.8916 83.6549,271.6727 81.5271,271.5921 84.1499,275.0857 81.3688,274.9936 82.7887,275.7216 81.518,274.4325 79.2234,276.4387 81.4261,283.586 82.3738,282.8251 79.8288,282.2719 81.4564,286.2838 82.3738,282.8251 85.0339,282.1328 84.4485,281.1879 86.4035,284.0892 88.074,284.559 88.3034,286.4481 86.9799,286.3748 85.7213,288.5371 83.6422,287.0899 84.8462,286.0739 82.9236,286.231 82.1618,283.7671 86.2111,281.4399 86.0261,279.652 87.6938,282.6665 85.7077,281.8463 87.265,280.4006 86.676,278.4468 87.4277,278.1018 87.9222,281.1066 87.265,280.4006 89.0713,279.8948 88.402,276.853 90.5777,279.8126 88.8769,276.2656 90.5436,277.0548 91.1903,275.051 93.7996,274.033 96.303,274.8959 99.322,272.768 100.7847,274.5314 99.1151,276.507 101.8401,275.7312 103.2548,276.7081 102.4028,277.8159 104.0624,277.6937 99.3319,280.2717 98.9422,282.0018 97.9084,280.9961 98.5882,279.2404 95.7541,277.3018 94.7658,278.2323 92.4288,277.7356 92.5418,279.419 90.5357,280.932 86.9714,277.3154 84.2048,276.4368 85.07,275.4993 86.4697,276.0101 87.7924,274.0158 88.3474,275.3935 86.027,278.2698 85.3704,277.2195 86.201,277.9819 83.9504,278.714 83.634,277.1366 85.1079,278.3614 83.4582,277.8406 82.5423,281.3259 81.0354,280.7219 80.9314,279.1066 82.6776,279.6146 82.125,278.0606 83.2466,278.8705 80.8835,277.5475 81.0747,276.6025 79.832,280.0072 81.1341,276.2173 79.2234,276.4387 76.4411,261.7912 84.887,271.3517 95.2528,280.5448 116.7807,294.7013 143.8092,306.0916 166.4784,310.5606 182.4849,309.9606 190.9606,307.481 196.0743,304.5917 201.9441,297.983 208.1864,279.3532 205.651,290.0459 201.1821,294.926 199.8018,294.0359 198.4354,294.8701 197.4511,293.5167 202.0961,282.5997 202.8076,283.4533 203.0187,278.2884 203.8184,278.021 204.7138,281.9324 205.8857,281.9751 207.4349,279.2936 206.0173,281.7626 204.5847,281.7271 206.5708,276.3539 206.8728,279.1482 205.5492,278.9444 204.5847,281.7271 203.3666,277.9556 199.9673,283.6109 197.5218,283.6492 195.3613,287.033 193.3411,287.729 190.9976,292.5707 188.3313,294.0195 187.5955,299.453 186.0498,300.112 184.8433,302.9851 182.7966,304.0556 181.0456,303.0225 181.4956,299.7672 176.6682,299.9708 176.751,298.9382 175.5875,299.7192 178.2356,294.442 177.5218,292.0393 175.337,293.4158 176.2138,291.4831 175.3267,287.9343 179.002,287.5474 179.98,286.4337 180.0006,279.9199 179.8528,281.0139 176.2984,279.9449 178.5818,277.151 180.2005,278.5386 180.0006,279.9199 178.6201,276.5874 181.3986,274.9683 184.3858,277.5679 185.0868,273.7001 184.0765,271.6073 186.2458,267.5128 186.7032,261.7443 189.1142,255.4887 192.148,255.4338 195.5451,260.2186 199.2828,260.7188 202.202,263.1753 203.5187,271.2603 205.3073,272.0336 206.9289,276.4516 205.5492,278.9444 203.47,279.539 202.8076,283.4533 202.0961,282.5997 198.8049,288.969 197.343,288.4058 198.445,284.1697 197.343,288.4058 198.8049,288.969 197.4227,294.6505 192.8078,297.7922 189.4574,297.518 187.7816,298.7385 188.3313,294.0195 190.9976,292.5707 193.3411,287.729 195.3613,287.033 197.5218,283.6492 199.9673,283.6109 202.0184,278.9193 203.47,279.539"/>
    <polyline points="205.1587,291.2537 202.6608,295.4034 193.0935,297.943 197.8538,293.6608 198.4355,294.8701 199.8019,294.0359 201.3627,294.8422 205.7784,289.7281 204.0425,293.6052 204.5657,292.546"/>
    <line x1="202.1663" x2="198.8183" y1="297.3444" y2="303.2587"/>
    <polyline points="184.2535,277.4193 183.1855,275.3549 183.6841,272.9016 184.7495,273.6202 184.2402,276.0209"/>
    <polygon points="176.6985,280.3549 175.3615,283.9213 177.0636,285.3566 180.0436,282.82 179.4236,280.4647"/>
    <line x1="164.6567" x2="163.7344" y1="297.6532" y2="298.9005"/>
    <polygon points="164.5515,307.5422 160.6437,313.0228 162.199,313.1546 164.2807,311.2578 163.0802,309.628 165.8552,308.2525"/>
    <polygon points="158.6042,313.4551 157.2011,315.3815 162.199,313.1546"/>
    <polyline points="152.4527,316.8981 150.4342,316.5215 151.2143,317.8232 152.4527,316.8981 151.5139,318.6022 154.0879,316.4216 154.2657,312.1639 153.9697,316.7276 157.2011,315.3815 158.6042,313.4551 153.8631,312.303 150.4342,316.5215 147.485,316.7044 149.6228,317.3285 147.485,316.7044 146.3421,318.1899 148.6607,318.2765 147.8391,319.3126 148.7384,319.8601 147.8391,319.3126 148.6607,318.2765 146.3421,318.1899"/>
    <polygon points="133.1791,319.3732 131.3603,320.3677 126.1742,319.912 124.8299,321.5536 120.7381,321.2102 118.0811,323.3847 112.6389,324.4513 123.9984,327.6176 127.6257,327.4021 114.9618,324.3321 135.1219,326.9675 143.9156,323.7843 145.8666,321.2748 151.5139,318.6022 150.4342,316.5215 149.6228,317.3285 147.7838,315.7197 146.3421,318.1899 147.6137,315.3352 144.7283,313.5482 143.1161,316.0697 145.2429,318.155 143.6339,320.7957 137.7293,321.6649"/>
    <polygon points="165.4766,321.2672 166.7005,320.9527"/>
    <polyline points="211.0821,261.7912 76.4411,261.7912 71.684,240.8378 71.7497,231.0443 73.4569,222.0507 71.2499,222.0847 74.1129,220.0332 74.7571,221.908 76.3402,220.2333 77.7247,220.8417 81.9113,217.9051 83.9384,214.2964 86.7088,213.6282 88.5715,214.5751 91.387,213.1182 93.2506,209.3914 90.5015,209.5556 93.8332,207.2524 94.3414,204.9934 92.4483,204.8465 88.0436,209.0015 87.2618,207.6893 85.3724,208.5408 85.1248,206.8767 77.3515,212.9757 70.316,222.6488 84.3001,204.7316 73.8706,216.0236 67.4616,226.1254 74.45,215.4576 82.9371,207.8346 92.4031,203.8886 100.575,203.6112 107.0193,205.379 113.1684,208.8608 121.4336,217.0525 120.425,218.3145 121.5829,218.679 123.2347,217.1013 120.9644,217.5086 119.1708,219.5886 120.2647,218.4993 119.2455,218.7647 118.0778,216.8076 115.8557,218.2946 111.1776,218.4481 113.7378,222.2494 112.1551,219.0 113.5129,218.5722 111.8358,218.2332 113.979,218.4659 114.2904,214.6741 112.8403,217.3502 111.4884,215.8089 113.3044,217.0559 114.2369,213.9436 110.4837,216.3848 111.8358,218.2332 109.2245,218.941 109.237,220.8204 111.6728,220.9594 113.2492,222.6297 117.2098,222.6851 118.357,221.204 116.8882,219.7652 118.4728,213.5423 120.7022,212.1063 117.2941,213.1806 116.8136,212.0793 115.5391,218.5074 112.4289,219.5125 113.5583,221.5969 115.376,221.7273 114.5622,223.9946 115.9687,223.9528 112.0159,226.1027 112.3997,230.7742 110.5131,231.1217 108.2711,236.2937 106.2801,236.4427 105.9373,238.7879 108.4276,238.2883 110.8846,234.6027 113.5676,234.9258 113.89,233.1353 115.7217,234.0661 112.0751,229.4299 115.1087,229.9418 115.2489,231.3252 116.327,230.3884 118.0777,232.3102 118.973,228.7553 122.9069,226.9521 121.8013,223.2627 120.0815,223.3983 119.7744,221.6518 118.357,221.204 115.9687,223.9528 115.376,221.7273 113.5583,221.5969 113.3775,223.3417 114.5622,223.9946 112.2523,224.5228 112.0751,229.4299 110.9231,228.5057 112.0751,229.4299 112.5836,226.3287 110.9231,228.5057 107.9077,228.6789 111.4582,229.1249 111.1576,227.0966 104.1115,228.9316 102.4438,230.4987 104.0726,230.5284 105.3495,228.276 107.4754,228.6147 112.5836,226.3288 112.2523,224.5228 113.9997,223.814 113.1309,222.0143 109.9931,221.2332 109.3333,223.0637 107.374,222.462 104.6922,225.1832 104.6245,226.6043 105.6229,226.7234 104.7127,228.9051 104.637,228.0238 103.0953,228.2 104.2514,227.6557 100.5189,227.2184 97.1129,228.8872 94.7779,232.3023 90.3266,233.6707 88.9074,238.0232 88.0457,236.5843 86.2316,237.7051 86.6093,236.3157 86.2316,237.7051 88.0457,236.5843 88.9074,238.0232 90.5361,232.5125 93.8718,231.0982 95.4682,228.917 95.1425,227.5759 93.103,227.0718 90.2517,228.5253 87.1037,235.7857 85.2682,237.4697 85.6451,238.9499 89.1788,239.0504 96.6026,235.9616 99.0805,236.509 102.3532,234.1458 102.9995,232.2618 100.4975,231.1416 97.7687,232.6464 100.6276,231.2025 103.446,227.0244 98.8105,226.9749 102.5305,222.4604 100.5092,221.6349 103.0692,218.4856 106.3736,217.0492 109.2245,218.941 110.9177,218.5283 111.1277,216.7105 109.6187,215.9056 110.4837,216.3848 112.8122,214.3182 112.3477,211.856 110.2003,213.2515 109.6187,215.9056 105.5226,217.4748 106.5182,219.2401 108.3299,219.6368 106.6547,219.8746 107.5269,222.7097 109.7914,222.4095 110.059,220.9791 108.3299,219.6368 109.169,218.45 106.5699,217.4619 105.6244,215.3451 103.5239,215.0822 103.7843,212.8142 105.8802,211.7498 102.732,212.0797 103.8165,209.7145 101.6423,209.4553 101.5647,210.8478 97.4086,211.443 96.1548,212.7219 97.5976,214.9005 96.9911,217.0804 99.9998,217.2673 96.6955,218.3263 95.8188,221.5105 97.5955,222.3314 99.8965,221.23 101.7344,223.566 100.4505,222.2891 100.2859,223.7111 100.3239,221.9261 103.0692,218.4856 105.5226,217.4748 107.3739,222.462 104.4897,225.3974 101.7344,223.566 98.8893,224.5172 97.5955,222.3314 99.2253,221.3245 100.5092,221.6349 100.2859,223.7111 97.9958,225.7848 97.7358,224.5547 96.1911,225.2081 96.5064,222.3688 99.8967,225.1099 86.0686,242.6253 76.4411,261.7912 67.5507,255.903 62.1368,250.3189 60.4717,245.7923 61.5956,240.6603 59.1951,252.3212 63.7159,234.3462 70.8058,221.1696 61.187,242.3232"/>
    <polyline points="67.0153,252.2822 70.3506,253.038 69.8612,252.0165 70.1789,253.2135 74.0718,249.5603 77.6995,248.5651 81.2577,250.0484 83.8471,253.2816 85.7087,259.4924 85.3248,266.3191 83.0774,271.5518 79.1702,274.7161 73.732,273.7896 69.9587,268.4106 68.851,260.6374 70.993,251.5612 70.3369,252.1911 71.79,253.7337 71.8249,252.2315 71.6312,253.6539"/>
    <polyline points="75.8864,249.7939 81.5117,248.9504 81.7576,250.5887 80.5913,249.8104 82.0297,250.0148 84.2804,247.0017 82.8436,251.3156 82.5028,246.9777 82.2017,248.5297"/>
    <polyline points="77.1841,240.129 74.4403,245.4448 77.8705,240.5241 76.9362,236.0687 78.9699,237.6013 77.9842,239.9215 77.7348,236.6507 80.8317,234.146 80.3675,235.1084 82.7219,236.4974 79.2234,247.1438 76.4411,261.7912 95.3689,253.0068 115.3662,246.2583 137.0409,240.8475 158.5263,237.2403 177.9722,235.7475 194.4972,236.6133 203.9958,239.2432 207.4393,241.5822 209.0775,244.4237"/>
    <line x1="201.9441" x2="198.1952" y1="225.5996" y2="220.7481"/>
    <polyline points="187.6713,206.8226 172.4709,195.4851 187.6713,206.8226 183.6197,204.5146 181.1402,204.6178 172.2191,195.8629 186.6099,206.1523 180.2889,201.0569 172.2765,197.5829 166.9478,196.3615 166.2799,198.8304 169.9811,201.9282 169.5139,202.5724 165.2922,199.8476 161.911,200.7133 160.4844,198.5692 156.7777,196.8305 166.2799,198.8304 166.6709,201.3963 169.5139,202.5725 167.8282,204.4136 165.5539,203.75 163.0832,202.2999 162.118,199.9893 166.0746,200.1018 164.4364,202.272 165.5764,203.9289 163.234,202.311 164.4364,202.272"/>
    <polygon points="170.5785,201.8438 168.9089,201.0455"/>
    <polygon points="172.2191,195.8629 182.5906,202.4497"/>
    <polyline points="163.7536,191.2466 153.4344,187.8566 163.8915,191.3033 157.8913,189.4397 163.7536,191.2467 152.2787,189.9335 148.4178,187.4237 150.7276,187.3755 159.302,190.4862 147.343,189.91 144.0363,188.7134 149.4501,188.5527 153.3532,190.3657 153.5906,187.9045 149.2574,187.1013 134.6916,187.5234 143.7839,186.4165 148.7544,187.1485 149.4501,188.5528 141.6581,188.3973 141.2224,187.346 137.6938,186.498 138.5038,189.4747 140.9439,189.5799 141.6581,188.3973 147.343,189.91 148.5791,191.4418 147.1696,193.9658 144.7334,193.7706 140.4463,190.6624 136.3282,190.4598 138.5038,189.4747"/>
    <line x1="129.9858" x2="129.8483" y1="187.8765" y2="187.6041"/>
    <polyline points="125.9959,190.7141 131.529,189.9348 127.7249,187.9563 127.8038,189.5652 123.2892,192.95 132.1864,197.7351 139.6462,195.8601 144.4782,196.2535 147.4721,194.3468 144.7334,193.7706 140.4463,190.6624 136.3282,190.4598 138.5038,189.4747 125.9959,190.7141 123.2892,192.95"/>
    <polygon points="128.0702,199.6 132.1865,197.7351"/>
    <polyline points="131.1641,211.892 128.4094,211.8524 132.533,211.4894"/>
    <polyline points="132.9759,226.785 138.8911,228.9381 143.7475,228.9635 146.4766,231.3193 144.8172,226.6924 143.4871,227.0159 135.6522,221.3695 132.9455,223.5802 133.6202,227.1405 132.446,229.0701 126.6092,230.0532 127.5096,230.3979 126.246,230.5897 126.5543,232.0096"/>
    <polygon points="122.6859,227.5354 125.2774,233.126 132.9492,230.1171 132.2343,228.6122 133.2057,226.979 129.3303,223.623 121.8013,223.2627"/>
    <line x1="115.8358" x2="115.7836" y1="231.1536" y2="231.6383"/>
    <polyline points="110.9784,235.9994 111.7061,237.6889 110.7387,238.8805 112.209,239.5314 115.2087,238.5238 113.7739,236.0359 110.7412,236.6965 110.5269,238.1693 111.5631,238.3592 111.4321,236.9273"/>
    <polygon points="99.3771,249.0683 101.0331,251.5873 99.9945,252.5866 101.2713,253.1915 103.0523,249.3682 100.6595,247.5195"/>
    <polygon points="95.1524,255.5233 95.8376,256.4437"/>
    <polygon points="96.3746,267.5529 96.5845,268.5717"/>
    <polygon points="89.2637,284.1442 89.1903,285.3113 90.4674,285.095"/>
    <polyline points="65.9316,263.8773 65.9355,265.4498 64.9033,262.0424 64.8024,263.0173 66.4398,261.4148 65.8974,260.7765 66.1318,263.5295 66.221,261.8071"/>
    <polyline points="58.626,263.5976 58.6809,265.2 58.6046,261.7912 76.4411,261.7912 69.9546,251.6849 66.2579,242.0131 65.5098,233.1915 67.7426,225.5996"/>
    <polyline points="73.4569,222.0507 76.7611,214.091 81.5764,207.3723 85.0832,206.4547 83.5975,207.8956 87.6455,203.9373 83.0852,206.7289 82.6082,209.0862 85.0832,206.4547 77.3515,212.9757 85.1248,206.8767 85.3724,208.5408 89.9425,208.1705 92.4482,204.8465 89.8067,206.4607 87.6455,203.9373 82.6082,209.0862 81.5764,207.3723 83.8988,205.0727 87.8644,204.219 92.4116,201.0209 93.8925,202.3634 96.7576,201.3219 93.5509,205.4094 91.825,204.9132 89.8067,206.4608 87.8644,204.219"/>
    <polyline points="96.7917,205.0143 99.2966,202.0845 98.8693,203.1557 100.4981,202.5757 99.5131,204.7258 96.7917,205.0143 100.6645,204.7231 101.5488,205.3327 100.8954,207.2614 98.0991,205.7159 100.7718,202.5766 101.1026,204.1684 99.5131,204.7257"/>
    <polyline points="103.5239,215.0822 105.9837,212.1282 104.2127,215.2028 106.1437,216.3307 109.6187,215.9056 110.2806,212.7262 107.3899,210.5145 105.7956,211.1396 105.9837,212.1282 103.7843,212.8142 101.2074,218.8543 99.9998,217.2673 101.9983,219.35 102.5305,222.4604 113.7781,212.8702 125.8353,205.16 138.2386,199.6261 150.5115,196.4812 166.9478,196.3615 166.9807,194.5173 168.2054,195.3848 165.2758,195.1777 169.0918,198.1044 167.8492,198.6851 170.8391,201.8081 174.415,201.3744 181.1402,204.6179 175.1893,198.121 166.9807,194.5173 164.8358,192.1896 148.4996,189.6433 147.1387,190.5275 148.5662,191.2126 147.4721,194.3467 145.7301,195.1752 153.7806,198.5615 145.7301,195.1752 144.4782,196.2536 139.6462,195.8601 135.6163,197.2082 136.7582,203.8155 137.9156,204.3177 144.4316,201.6955 149.2557,202.1694 152.8546,205.1642 155.4497,210.1482 164.1533,210.4021 163.1649,208.7473 164.3739,207.033 158.8391,202.789 151.054,200.9233 149.2557,202.1694 152.0518,199.8774 153.4205,201.0106 154.7281,199.5166 153.7806,198.5615 155.1709,199.6557 153.4205,201.0106 152.0518,199.8774 149.6421,201.6642 151.054,200.9233 158.2963,202.4908 162.3263,204.8392 164.1249,203.4479 160.4844,198.5692 154.3955,196.3639 153.2601,194.3904 148.3974,191.6849 153.2601,194.3906 154.961,196.6332 165.6215,198.5934 170.5785,201.8438 167.8492,198.6852 169.0918,198.1045 165.2758,195.1778 168.2054,195.3849 166.8998,194.3617 167.8564,193.0709 162.1937,190.6941 168.4809,193.6687 158.6795,189.8281 164.8358,192.1896 170.4143,196.2148 173.4646,197.1911 168.4809,193.6687 173.3552,196.0345 165.4013,191.9828 176.0816,198.2449 184.4184,206.9111 191.352,218.179 196.5535,231.5145 199.7765,246.2853 200.868,261.7912 200.1684,274.2316 197.3627,289.2071 191.352,305.4036 184.4184,316.6715 185.7879,318.5099 173.9709,325.447 159.346,327.816 141.3377,324.973 125.8353,318.4226 108.0252,306.1308 94.8877,292.9151 84.145,277.834 76.4411,261.7912 76.1913,280.8217 79.7722,298.6092 81.7837,304.0575 83.2483,302.5807 82.3263,301.8234 83.7705,303.1261 83.119,301.8751 86.6079,307.2899 86.4774,304.5467 87.5912,306.8991 91.713,310.1591 94.6627,311.4478 100.4656,309.4879 111.784,301.6801 112.8877,299.7017 115.9282,298.5459 118.6692,298.0254 123.0247,300.218 121.9919,292.9047 123.0773,289.9688 120.7189,286.9706 121.5893,286.0086 123.9444,286.5407 124.7663,284.0033 125.4651,285.7678 126.5854,285.7824 125.5329,281.2789 123.4943,283.6925 120.6963,284.0138 120.6449,282.5221 119.7031,282.719 119.4475,285.0006 122.028,292.4853 118.0332,283.5574 119.3666,278.5272 117.6917,274.4495 114.3633,275.0109 111.4404,277.2678 106.2448,277.4704 108.0831,280.3781 101.9313,281.3176 101.009,283.6026 104.8809,286.4683 108.2891,287.169 108.9807,289.9136 112.1453,290.8403 112.9381,292.4111 110.0717,292.6745 107.5374,291.2678 102.1948,294.6144 98.0535,292.4893 96.1297,285.6166 94.4281,285.5177 95.6216,285.1519 94.6734,283.8635 95.3629,281.4606 92.5882,279.7085 91.8506,280.5297 93.9062,283.5061 88.017,281.2373 91.7737,286.0054 90.2546,285.3444 89.6715,287.2355 87.4723,286.8737 88.3702,289.3342 86.9744,288.6622 85.5099,289.6104 85.237,288.5149 81.3982,288.5239 80.7074,287.535 78.2961,289.062 76.8337,287.8152 79.4794,298.8698 86.4774,304.5467 85.917,305.2665 84.5437,303.9667 86.141,305.7062 85.7414,304.5918 86.3199,305.221 82.9356,306.6685 81.7837,304.0575 86.9499,313.992 93.5107,322.4067 103.3781,330.4192 114.675,335.3139 114.8687,333.4323 126.7873,330.9912 136.1321,325.3376 144.469,316.6715 150.1449,307.8412 155.7154,294.8714 159.3495,280.3334 160.9186,261.7912 159.827,246.2853 156.6041,231.5145 151.4025,218.179 144.469,206.9111 136.1321,198.2449 124.8357,191.8485 118.8822,190.4229 110.8772,190.4186 112.3383,190.0988 108.1442,193.2363 109.7318,192.5844 108.108,194.8434 110.7878,198.3592 101.9281,206.1603 95.0964,214.1607 89.1249,223.1922 82.7219,236.4974"/>
    <polyline points="88.9074,238.0232 96.2326,234.7899 97.7687,232.6464 96.2326,234.7899 89.6042,237.4468"/>
    <polyline points="96.5235,228.9623 97.2966,226.2121 93.847,225.8947 95.8805,226.8526 96.0469,224.2484 93.847,225.8947"/>
    <polyline points="146.5736,234.8673 148.6495,232.2626 146.4766,231.3193 144.8172,226.6924 146.8753,226.1726 148.1432,229.6377 154.2742,229.5694 156.2812,234.0001 148.6495,232.2626 146.8753,226.1726 145.2774,226.5741 146.4694,221.9832 147.2447,223.7476 158.1637,220.1921 160.5757,226.7625 161.8564,227.5075 164.7306,225.9878 163.3438,223.4897 164.2341,222.6378 167.2704,221.6346 169.2321,222.9694 167.0209,225.6249 168.8898,227.9537 167.3813,230.208 164.903,228.8693 164.3153,226.1362 166.3173,232.348 164.4724,231.0716 163.7809,233.1689 160.7067,231.0518 161.8564,227.5075 160.4991,230.1043 162.1503,232.5866 156.7264,232.935 156.2812,234.0001 154.2742,229.5694 148.1432,229.6378"/>
    <polyline points="165.0878,231.4001 165.2025,232.5976 165.0878,231.4001 167.3813,230.208 164.903,228.8693 166.3173,232.348 167.3813,230.208"/>
    <polyline points="168.3205,224.4124 167.0209,225.6249 168.8898,227.9537 170.5776,225.686 168.3205,224.4124 168.5761,222.2873 168.3205,224.4124 170.5776,225.686 171.6446,220.9968 168.5761,222.2873"/>
    <polyline points="163.6708,216.2182 164.0158,220.1871 165.6654,222.1591 169.7848,222.33 169.9946,220.9899 171.6446,220.9968 168.4381,215.8809 163.6708,216.2182 160.4569,213.7739 162.0336,216.5751 168.7049,216.2111 165.3193,211.8695 160.9968,213.6848 160.0673,212.7899 160.9968,213.6848 164.8607,212.606 164.9368,211.4499 160.844,212.8073 157.867,211.5812 160.844,212.8073 164.9368,211.4499 164.1533,210.4021 157.7578,210.3115 155.9753,214.2223 159.9211,218.2496 164.0057,219.3476 163.6708,216.2182 162.0336,216.575 158.9897,211.8065 157.4735,211.9572 157.702,213.0768 155.9753,214.2223"/>
    <polygon points="148.8663,211.5544 153.6531,211.1818 159.9211,218.2496 164.0057,219.3476 165.4413,222.0144 163.3438,223.4897 164.7306,225.9878 161.8563,227.5075 160.5756,226.7625 158.1637,220.1922 147.2446,223.7476 146.4693,221.9833 149.5085,212.2585 147.5565,210.2312 139.2232,206.7288 137.9156,204.3177 144.4316,201.6954 149.2557,202.1694 152.8546,205.1642 154.7132,209.5912 157.7578,210.3115 158.2207,211.4981 155.9753,214.2223 153.6531,211.1818"/>
    <polyline points="159.1793,198.8483 155.1709,199.6557 158.3112,199.7694 159.7817,198.5001"/>
    <line x1="155.0118" x2="153.5906" y1="188.2686" y2="187.9045"/>
    <polyline points="137.3352,814.8395 136.551,815.0486 137.6274,819.3061 137.6274,868.3416 152.51,866.8981 166.8207,862.623 178.4401,856.686 187.4551,850.1016 196.597,840.8748 204.0025,830.2447 209.4537,818.5243 212.4472,807.8714 213.8901,795.0586 212.7899,784.8317 208.8014,775.5673 202.0776,766.981 194.1513,760.2847 183.0707,753.8293 159.772,746.2909 145.1047,744.4156 130.1501,744.4156 105.0111,748.8874 92.1841,753.8293 81.1034,760.2847 73.1772,766.981 66.4534,775.5673 62.8075,783.6485 61.3417,793.2149 62.1674,783.5211 64.6266,774.0372 68.666,764.9683 75.2574,755.174 82.3777,747.6602 92.1841,740.1508 101.6667,734.9505 113.698,730.4841 132.0155,727.3286 148.8209,727.8647 165.0822,731.5765 181.5533,739.2009 194.1513,748.8482 204.9053,762.0719 211.6269,777.1623 213.913,793.2149 212.0595,787.4983 206.5888,782.0595 196.597,776.6628 186.0225,773.0461 170.2437,769.6287 152.51,767.625 119.0915,767.9056 89.2323,773.0461 76.3542,777.6724 67.1486,783.2302 62.4648,788.7543 61.4336,794.4951 63.6279,799.5545 70.3494,805.5142 83.6853,811.6642 105.0111,816.8011 130.1501,819.1805 156.1633,818.5242 180.0094,814.9089 196.597,809.767 209.4537,802.0048 212.7899,797.6755 213.913,793.2149 212.4472,779.2297 208.1061,765.7821 212.4472,779.2297 213.913,793.2148 212.2461,777.3544 207.3179,762.1869 201.606,751.6669 191.5697,739.273 182.4672,731.4987 168.6558,723.5246 153.4883,718.5964 137.6276,716.9293 121.767,718.5963 106.5995,723.5244 96.0795,729.2363 83.6854,739.2727 75.9111,748.3752 67.9371,762.1865 63.0088,777.354 61.3417,793.2147 62.8076,779.2297 61.7091,795.7723 64.6266,800.7888 74.1982,807.7103 83.6853,811.6641 101.6667,816.2252 122.7449,818.8046 137.6274,819.306 166.8206,817.3199 191.5695,811.6641 201.0566,807.7103 208.1061,803.1995 212.4472,798.305 213.913,793.2149 212.4472,798.305 208.1061,803.1996 201.0566,807.7104 191.5695,811.6642 166.8206,817.3201 137.6274,819.3062 108.4342,817.3201 83.6853,811.6642 74.1982,807.7104 67.1487,803.1996 62.8076,798.305 61.3417,793.2149 137.6274,793.2149 137.6274,819.3061"/>
    <polyline points="159.804,819.3642 158.8703,818.2752 161.2988,821.1757 161.3033,819.5952 160.4044,820.1578"/>
    <line x1="156.4856" x2="155.391" y1="807.0917" y2="809.0617"/>
    <polyline points="137.6274,793.2149 137.8121,716.9296 136.8341,716.9334 143.2109,717.1339 121.2203,718.748 141.2877,717.0172 161.6379,720.8083 137.8937,717.1975 144.2636,718.1699 135.69,717.8638 137.769,717.2537 137.6274,718.0882 120.9132,719.9137 110.1726,723.1223 98.4088,728.7766 87.7996,736.3283 78.6578,745.555 72.195,754.5921 64.1051,773.1777 61.3417,793.2149 62.1674,800.4099 64.6266,807.4491 73.1772,819.4487 89.2323,831.1198 98.4088,835.2741 111.9276,839.384 133.8843,842.1914 159.772,840.139 180.0094,833.9865 191.5695,827.8882 198.9006,822.4253 205.7676,815.2618 210.0628,808.5964 212.7899,801.5981 213.913,793.2149 138.1336,793.2752 135.2481,789.7828"/>
    <polygon points="112.776,787.6581 112.1322,786.7039 111.1913,788.0134"/>
    <polyline points="148.9481,841.8291 148.2983,842.8265 149.9779,840.3254 148.658,840.9748 149.9779,840.3254 150.2601,841.9528 151.3818,839.7047"/>
    <line x1="157.1486" x2="158.7772" y1="833.6537" y2="832.6907"/>
    <polygon points="164.0264,835.0794 166.668,831.8675"/>
    <polyline points="187.9552,819.139 188.4154,817.9146 193.0103,819.6939 192.6854,822.1804 187.1895,819.8663 187.2941,817.5368 181.3121,821.3448 184.2201,817.6789 184.2697,815.3036 187.8894,816.572 187.9654,817.7694"/>
    <polyline points="203.6927,831.3577 203.6927,755.0721 196.597,747.7383 204.9053,759.4227 198.4262,747.1388 199.971,749.2533 185.8672,734.2119 173.8847,726.1107 161.4882,720.7569 174.9538,726.6849 182.5333,731.5483 191.3461,739.0635 199.2524,748.2614 191.041,738.7617 180.7228,730.2682 190.0393,737.7848 197.7482,746.2575 188.5696,736.5388 189.99,737.8585 186.6629,737.4814 186.6629,734.7767 186.6629,851.6532"/>
    <polygon points="187.4607,840.5037 190.2476,837.3984 187.6221,838.438"/>
    <polyline points="163.7129,863.999 171.1866,861.5882 181.3698,855.31 178.3874,855.2261 177.4817,853.8831 181.3169,849.5893 179.3994,849.6528 181.6443,848.7872 180.4729,848.8976 184.6234,844.9228 185.5336,841.2836 184.0974,839.6051 171.0262,843.2406 162.5627,851.1833 151.8008,856.464 160.8242,856.1292 157.3719,859.706 153.4332,859.9808 152.8436,862.1859 157.2857,862.714 156.2301,864.2919 163.2992,863.7604 163.7187,864.9 163.7187,721.5299"/>
    <polygon points="152.2031,718.3347 143.179,717.139"/>
    <polyline points="137.594,722.1268 138.8795,721.9607 130.1501,721.875 115.4829,724.6166 95.2455,733.6109 108.4342,726.9865 122.7449,722.9073 137.6274,721.5298 152.51,722.9073 166.8206,726.9865 180.0094,733.6109 196.597,747.7383 186.0225,737.8016 173.5882,729.9943 159.772,724.6166 137.6274,721.5298 137.6274,718.0882 150.6694,719.1943 163.3273,722.4798 175.2285,727.8482 186.0225,735.1412 197.7669,746.9946 207.3685,762.7705 212.7899,780.3711 213.5427,795.7828 212.7018,790.4405 212.0046,792.6863 210.5581,771.2112 211.853,775.6066 213.8007,789.0754 213.5104,801.0425 211.3517,812.8168 207.2091,824.4403 209.6743,806.662 212.5623,802.3092 213.9131,793.2154 212.7541,793.2149 212.4594,778.3937 212.6789,779.5485 210.9539,779.7668 211.0824,780.7843 210.8677,779.6576 210.895,781.0272"/>
    <polyline points="210.618,771.1007 208.745,765.6151 210.45,770.5105 210.2349,773.4263 209.1876,766.8833 204.9053,759.4227 208.1061,765.7821"/>
    <line x1="212.6118" x2="212.7541" y1="793.1376" y2="806.4617"/>
    <polygon points="179.4911,729.4424 176.2024,727.401"/>
    <polyline points="121.1304,718.7344 128.5662,717.4693 121.5352,718.6459 125.5984,717.9163 121.9467,718.5781 124.6568,718.1435 125.1032,719.8753 128.0398,718.8859 125.3831,718.6663 125.9826,719.2989 122.8304,721.1425 126.9175,719.585 119.179,722.1152 120.5919,722.363 123.3583,720.5553 117.8921,721.4608 119.3735,721.9392 118.6353,723.5101 119.513,723.6224 120.2326,722.5466 116.7159,723.2925 120.4939,722.2556 117.5749,721.6066 114.2866,725.4067 118.4688,724.8652 119.513,723.6224 109.7659,725.2388 110.2772,726.4468 113.2644,725.851 113.8325,727.2854 109.5405,730.3808 104.2319,732.1827 99.7422,736.7228 100.6423,737.4226 97.4623,741.0488 97.968,744.0648 96.3976,747.6125 96.6017,749.4578 101.3135,744.9953 102.1244,745.4653 107.9602,739.3166 97.4302,747.2409 108.2774,736.0991 112.4021,734.1964 116.6426,728.3105 116.2361,726.5164 118.4688,724.8652 114.2867,725.4067 113.1446,724.578 114.2647,721.1934 112.6269,721.1724 114.0044,720.7136 112.6269,721.1724 112.4494,722.6009 111.4365,721.7635 107.587,724.6513 108.9584,724.7198 108.214,724.3413 112.6269,721.1724 111.6437,721.5008 114.5023,720.5404 111.5362,721.5299 111.5362,864.9 113.4311,865.5616 100.1333,859.6505 90.202,852.9672 83.625,847.0671 76.2678,837.2692 81.2118,841.153 81.1902,839.8254 89.7589,851.3892 87.6787,849.7815 93.8589,854.889 110.2424,864.4154 113.5447,863.938 121.0289,865.4423 118.0748,865.8136 108.8089,863.7176 108.6109,862.5669 105.0558,860.7901 108.6109,862.5669"/>
    <line x1="117.7227" x2="120.1307" y1="853.0309" y2="854.2301"/>
    <polyline points="127.5462,861.9924 125.2717,865.575 130.0981,866.3828 127.264,866.7073 127.8504,867.2052 122.5847,865.478 124.3372,865.7653 122.232,866.27 126.4314,868.0611 123.1326,867.0779 122.882,865.432 121.0259,865.367 122.8988,865.2981 119.8456,866.1083 121.4819,866.3432"/>
    <polygon points="131.1115,868.9295 132.274,869.0665"/>
    <polyline points="146.0596,858.221 149.8519,857.6692 149.9919,856.5986 147.6735,855.529 150.9659,852.5892 151.7084,850.2411 147.4239,853.4835 146.0184,853.1252 141.1011,858.5549 146.0596,858.221 148.7784,859.6636 147.4403,859.5283 145.2209,862.3741 148.2438,863.5858 147.6793,865.6802 151.069,865.939 148.8498,865.5184 150.3691,866.2862 150.0666,867.5144 151.2597,867.0303 148.775,866.8632 148.7283,868.0992 149.6914,867.9693 146.2264,869.0081 149.2583,868.3676 146.2264,869.0081 139.8378,865.6733 139.8739,867.0782 142.7144,866.1257 141.3413,865.0719 142.7598,864.3647 141.6058,864.6285 140.1025,861.6311 138.594,861.8366 138.7666,864.3024 140.6121,863.7372 140.4256,862.9007 143.0746,863.2732 142.1045,862.9714 144.8932,860.2269 148.4357,859.3546 149.7172,857.7943 141.1011,858.5549 139.6021,860.6693 142.0626,862.2153 138.6183,862.9132 135.9606,865.9844 138.5674,865.7423 135.1731,865.8793 136.4801,869.489 128.7578,868.3701 133.8291,869.3713 145.1951,868.0352 137.4055,868.3117 135.6274,866.7947 137.3133,868.8435 131.8585,868.6988 135.8844,869.4807 143.1742,869.0435 137.6274,869.5006 137.6274,868.3416 126.434,867.5285 115.4829,865.1067 103.3286,860.3199 90.694,852.4408 77.4879,839.4353 68.666,825.3357 63.1953,809.6752 61.3417,793.2149 62.8075,806.1036 67.1486,818.497 74.1982,829.9188 83.6853,839.9302 95.2454,848.1463 108.4342,854.2513 122.7449,858.0108 137.6274,859.2803 152.51,858.0108 166.8207,854.2513 180.0094,848.1463 191.5695,839.9302 201.0566,829.9188 208.1061,818.497 212.4472,806.1036 213.913,793.2149 212.246,809.0758 205.5983,827.848 194.3185,844.2602 179.1754,857.1936 161.2008,865.767 141.6197,869.3961 121.7666,867.8335 102.9943,861.1859 86.5821,849.9061 73.6487,834.7629 65.0753,816.7882 61.4463,797.2073 63.006,777.45 63.5512,775.3042 62.2808,782.424 63.9662,777.4037 63.8483,780.137 63.7694,778.3958 62.8076,779.2297 64.6266,772.4057 70.3495,759.4227 62.8076,779.2297 63.9826,773.5899 63.2778,777.8187 63.901,775.8823 63.4144,777.9797 65.4445,778.4343 64.1705,781.3207 66.3972,770.0198 66.6527,772.8044 64.7411,778.0164 66.2301,777.2739 67.2702,766.5488 65.1152,771.7747 67.1691,764.5361 72.3041,757.4234 78.1973,746.0895 69.9166,758.3663 75.2108,749.3551 82.0214,741.0025 86.9047,737.5726 80.6668,745.0587 80.06,763.1253 78.2158,767.6511 72.441,775.7325 71.3631,780.911 66.1026,784.5793 66.2108,778.1828 64.7063,774.9263 63.195,776.5018 69.8036,758.2944 64.3995,772.8478 69.3796,759.762 68.0482,763.0381 71.5621,762.9542 71.5621,755.0721 69.7139,759.4119 83.6853,742.5259 95.2455,733.6109 83.6853,742.5259 70.3495,759.4227 71.5621,762.9542 71.5621,831.3577 64.2905,814.2196 65.6104,816.6794 64.7846,812.4179 66.229,809.9258 66.4165,802.5721 68.8049,805.844 70.0719,805.8446 71.6722,816.0646 78.3681,826.1325 73.8708,822.3217 69.8407,813.6564 72.7842,827.7737 75.1811,832.8417 76.2738,833.49 75.6948,831.9013 77.3673,833.1064 86.2835,845.998 80.6502,839.35 81.2118,841.153 76.2678,837.2692 79.9053,843.0911 70.7744,829.9596"/>
    <polygon points="75.6042,830.5644 82.6697,837.9802"/>
    <polyline points="83.3871,835.1378 87.0027,842.6389 83.2078,838.5828 84.6922,838.322"/>
    <polygon points="79.875,843.0563 85.9503,849.3307 78.9551,841.8331"/>
    <polyline points="95.3533,852.2638 98.1341,854.3133 91.9923,847.828 94.5368,851.9822 94.128,850.1313 95.4542,850.3904 93.5811,846.9276 88.7508,842.898 87.206,842.1664 91.9619,847.4957 90.3424,850.4106 94.4257,853.5052 92.8445,851.4078 89.3217,850.1352 90.5259,851.261 85.6024,845.6773 89.3217,850.1352 88.5919,851.6532 88.5919,734.7767 105.199,725.3738 98.9177,730.1087 99.0481,731.4615 100.432,730.6687 100.2124,732.9088 104.3409,732.2519 99.7422,736.7228 100.6423,737.4226 97.4623,741.0488 97.968,744.0648 96.6016,749.4578 94.3313,753.3862 88.3354,759.2598 80.6031,763.8847 80.6668,745.0587 86.9047,737.5726 82.0936,740.913 88.8711,734.6994 87.928,735.4302"/>
    <polygon points="82.0936,740.9129 81.4174,741.6403 83.6779,739.2991"/>
    <line x1="76.9061" x2="74.4694" y1="747.8444" y2="750.9772"/>
    <polygon points="78.6448,767.0055 80.64,763.1162"/>
    <polyline points="74.7665,772.2475 74.1323,774.3918 76.491,771.8021 73.7358,774.2621 72.8659,777.1465 73.2808,775.9528"/>
    <polyline points="63.1896,781.5282 63.1429,780.6278 62.8335,781.6835"/>
    <polyline points="65.5507,792.9159 66.6865,796.3323 67.7113,793.3384 68.1235,797.6391 68.7277,793.7476 70.3946,797.0321 71.2047,796.7155 72.638,791.4888 75.1726,795.4046 72.8213,789.1807 70.7129,787.2397 72.1088,787.6001 70.9032,784.8175 71.7448,780.1984 75.118,771.493 71.7,777.284 71.3631,780.911 66.1026,784.5793 65.5507,792.9159 62.5007,793.2149 62.5007,806.4617 63.9603,808.2498 64.0988,813.525"/>
    <polyline points="65.2515,801.0147 65.5734,802.2502 65.2515,801.0147 66.775,801.6736 67.8283,798.6619 68.8896,800.6626 68.4513,804.2138 66.4165,802.5722 66.775,801.6736 71.5563,797.9539 71.3538,796.9867 71.5563,797.9539 75.3403,795.7948 75.229,796.6808"/>
    <polygon points="73.0581,788.1923 73.4068,789.4159"/>
    <polygon points="72.5114,816.7789 72.3164,816.0417"/>
    <polyline points="143.9531,848.8457 142.9419,849.2335 143.9531,848.8457 145.9673,850.9369 145.2903,852.6962 143.4011,849.3821 146.743,846.0942 144.9991,847.1466"/>
    <polyline points="155.8291,859.3895 152.4315,862.9535 153.3921,862.9194"/>
    <polyline points="109.58,723.9706 109.3406,722.3973 103.6021,725.4771 104.301,725.1389"/>
    <polyline points="998.3244,196.0064 997.3082,188.0223 995.6645,188.0915 993.0762,185.8061 984.7521,173.5545 982.6855,173.7819 984.394,185.6972 983.0606,182.8676 975.7084,176.6214 974.0579,179.5169 969.5531,181.2186 967.981,183.0226 968.9973,187.7287 966.0032,192.8799 966.0816,194.8818 968.5949,194.6938 969.4133,197.9092 975.7493,201.0982 974.3239,202.8263 976.8951,204.2609 976.1244,205.6163 977.792,207.2785 976.7996,209.2044 977.3112,211.968 980.4212,212.6606 981.8398,214.9493 983.504,214.5832 983.3232,218.4319 987.2449,218.3923 988.8749,220.592 984.394,185.6972 988.8749,220.5921 1000.6672,224.4143 998.3244,196.0063 1018.7819,189.0643 1020.2687,189.9514 1026.8605,189.5326 1030.6321,187.3593 1029.7216,170.1708 1030.9936,169.4914 1027.488,169.1451 1027.3788,165.6659 1016.6812,163.2716 1016.289,165.0459 1013.4927,166.1177 1016.289,165.0459 1016.6812,163.2716 1011.6137,157.3486 1005.8437,152.7547 1000.009,151.3201 989.9628,139.4181 983.4733,136.8095 976.1176,139.2961 982.6855,173.7818 984.7521,173.5544 986.7129,175.4507 987.9167,179.1014 995.6645,188.0914 997.3082,188.0222 996.2988,180.4107 994.1674,176.7335 993.3286,171.1173 993.2569,167.5325 995.2792,166.243 994.1299,159.4692 1000.009,151.3201 994.1299,159.4692 995.2792,166.243 993.2024,168.2184 994.1674,176.7335 996.2988,180.4107 998.6313,181.776 999.9715,178.8145 998.6313,181.776 996.2988,180.4107 999.8385,211.6053 1035.72,210.2564 1036.0508,204.3895 1033.3739,203.8124 1031.0277,205.4119 1028.6713,188.5861 1022.7717,190.0207 1018.7819,189.0643 998.3244,196.0063"/>
    <polyline points="999.9715,178.8145 1003.4737,176.3972 1009.7859,168.5152 1002.2256,177.3272"/>
    <polyline points="1009.7859,168.5152 1013.4927,166.1177 1012.8516,167.4204"/>
    <polygon points="1027.3788,165.6659 1027.488,169.1451 1030.9936,169.4914 1029.7216,170.1708 1030.6321,187.3593 1028.6713,188.5861 1031.6279,205.4613 1033.3739,203.8124 1036.0508,204.3895 1034.3116,197.1177 1037.0977,190.578 1039.0892,188.8236 1034.8777,181.865 1037.3023,177.7592 1041.3263,172.8585 1045.4389,170.7215 1050.3427,171.1865 1053.9915,170.0454 1065.3063,161.3028 1066.6738,158.4204 1069.9203,156.7913 1070.2817,153.2461 1068.3891,150.588 1061.3745,150.3209 1054.4826,151.795 1047.0655,156.0427 1044.0476,156.5473 1032.8623,163.9444"/>
    <polygon points="1016.5754,229.1928 1021.9567,227.5505 1030.0422,231.531 1031.9723,231.1781 1031.5187,219.3355 1034.1309,219.7807 1037.9639,217.891 1041.2649,218.4286 1045.797,216.0475 1046.7211,225.1562 1043.9998,234.7596 1043.1166,245.5437 1042.097,246.1109 1039.877,244.5082 1037.8104,245.0193 1032.2076,243.5452 1025.5715,246.9914 1017.2677,247.5554 1016.5754,229.1928 1011.1942,229.7469 1000.6672,224.4142 999.8385,211.6053 1035.72,210.2564 1037.8036,214.1215 1037.9639,217.891 1034.1309,219.7807 1031.5187,219.3355 1031.9723,231.1781 1030.0422,231.531 1021.9567,227.5505"/>
    <polygon points="1012.4799,250.2926 1010.1951,254.7712 1011.6239,261.8121 1011.6444,264.8231 1010.3417,265.7597 1011.45,266.7491 1009.6904,270.1821 1010.427,272.0751 1008.5412,272.8534 1007.5488,279.6768 1005.9085,280.5442 1006.3621,282.1964 1004.79,284.6269 989.8298,283.9904 988.6976,302.0859 1023.4913,304.6846 1021.8271,327.8456 1026.1682,325.2369 1032.8078,318.7006 1041.5241,315.683 1047.011,307.1646 1041.166,302.5509 1041.3877,297.1588 1044.7807,292.6803 1055.0248,287.5093 1059.6762,283.7035 1069.02,280.6101 1073.477,270.4295 1073.2826,267.7252 1066.7761,269.2884 1061.3404,269.1433 1057.8245,267.5372 1054.1109,263.8238 1050.7348,257.1588 1044.8694,251.1567 1043.1166,245.5437 1042.097,246.1109 1039.877,244.5082 1037.8104,245.0193 1032.2076,243.5452 1025.5715,246.9915 1012.855,247.2817"/>
    <polygon points="986.4435,251.5689 985.325,296.054 962.1054,294.6096 963.2819,255.9353 964.2776,253.8115 966.8386,254.4315 969.8941,251.7074 1012.4799,250.2926 1010.1951,254.7712 1011.6239,261.8121 1011.6444,264.8231 1010.3417,265.7597 1011.45,266.749 1009.6904,270.1821 1010.427,272.0751 1008.5412,272.8534 1007.5488,279.6768 1005.9085,280.5441 1006.3621,282.1964 1004.79,284.6269 989.8298,283.9904 988.6976,302.0859 984.8714,301.8088"/>
    <polygon points="992.6772,221.334 988.8749,220.592 987.2449,218.3923 985.2534,218.4648 984.3872,220.2424 979.5414,221.5714 975.6743,226.6601 971.6878,225.6443 970.5182,226.8315 970.8046,228.5893 968.0799,229.3247 965.5462,232.4412 961.7234,234.1001 959.7763,233.6944 957.9723,235.6534 958.7907,258.6692 963.2819,255.9353 964.2776,253.8115 966.8386,254.4315 969.8941,251.7074 989.9968,251.5524 989.4785,224.2724 990.3992,223.7085 992.9466,225.2914 992.6772,221.334 992.9466,225.2914 990.3992,223.7085 989.4785,224.2724 989.9968,251.5524 998.1573,250.2168 1012.4799,250.2926 1012.855,247.2817 1017.2677,247.5554 1016.5754,229.1928 1011.1942,229.7469 999.8999,223.7579 997.656,223.9723"/>
    <polygon points="941.8594,214.4249 943.0052,230.1261 945.9414,227.2504 948.0386,227.4219 950.4359,228.6948 951.4555,231.8608 954.5588,231.2606 958.3611,233.6483 961.7235,234.1001 965.5462,232.4412 968.0799,229.3247 970.8046,228.5893 970.5182,226.8315 971.6879,225.6443 975.6743,226.6601 979.5414,221.5714 984.3872,220.2424 985.2534,218.4648 983.3232,218.4319 984.2065,215.3154 981.8398,214.9493 980.4212,212.6606 976.462,212.6804 970.6921,210.207 947.7965,212.344"/>
    <polyline points="946.3233,197.1441 945.1843,189.681 934.3503,185.252 927.0697,187.7155 926.5991,189.8097 930.5514,193.7704 928.652,194.2981 925.1532,191.7554 918.1351,192.6524 915.673,196.9396 914.7113,201.583 922.6024,203.5453 920.0687,204.3302 922.1693,206.2495 928.8634,208.314 941.8424,205.5735 947.0292,208.4624 945.7231,197.2199 966.0816,194.8817 966.0032,192.8799 968.9973,187.7286 967.981,183.0226 969.5531,181.2186 969.1337,179.8038 964.4584,178.7947 964.9733,177.3172 962.784,177.2282 958.477,172.8157 950.5962,172.0176 940.376,173.7028 946.2346,183.1974 945.1843,189.681 947.7965,212.344 970.6921,210.207 978.0375,212.7364 976.7996,209.2044 977.792,207.2785 976.1244,205.6163 976.8951,204.2609 974.3239,202.8263 975.7493,201.0982 969.4133,197.9092 968.5949,194.6938 946.3267,197.1441"/>
    <polygon points="956.5196,164.9272 957.6108,170.8503 950.5962,172.0177 951.1145,172.7334 958.477,172.8158 962.784,177.2283 964.9733,177.3174 964.4584,178.7948 967.9538,179.2037 969.5531,181.2188 974.0579,179.5171 978.0136,174.4053 974.1568,166.7641 965.4234,164.3632 965.7917,161.7579 959.7626,158.117 957.6517,158.0511 959.1045,154.7433 957.546,154.3839 955.7352,155.924 955.4965,157.7939 960.3901,164.2907"/>
    <polygon points="960.7447,149.6811 959.2852,149.9647 958.9374,152.8833 958.0337,152.6294 955.4965,157.7938 960.3901,164.2906 956.5196,164.9271 951.0258,142.0267 957.6108,170.8501 940.376,173.7028 937.399,169.9267 939.4655,169.5639 934.3844,145.6213 937.6854,142.7192 938.2958,140.6581 943.5781,142.4818 947.1792,139.1015 952.0114,142.6863 961.2869,137.2415 965.4575,140.5262 962.5316,144.2396 956.922,145.6972 966.3135,144.6057 963.8479,149.0874 964.131,150.8056 963.8445,149.0874 968.2538,144.0054 976.1142,139.2928 981.2669,163.6839 984.394,185.6972 983.0572,182.8643 975.7016,176.6214 978.0068,174.4019 974.1431,166.7575 965.4234,164.3631 965.7917,161.7578 959.7592,158.1202 957.6483,158.0543 959.101,154.7465 957.6279,153.5 959.749,150.3538 961.379,149.6613 964.131,150.8056"/>
    <polyline points="964.4004,138.8706 971.0126,141.4067 965.4541,140.5262 964.4004,138.8706 960.6833,137.7164 961.5904,141.5353 952.0762,144.0549 961.5904,141.5353 960.6833,137.7164 954.9612,138.6101 953.4266,142.218 952.0114,142.6863 947.1792,139.1015 943.5781,142.4818 938.2958,140.6581 940.2089,135.7476 944.3488,136.7765 944.3249,135.3089 949.9824,134.9825 956.7924,137.7461"/>
    <polygon points="929.2215,126.2266 934.4799,125.1482 932.0382,121.5106 930.3332,123.0507 932.0382,121.5106 931.421,118.869 929.1226,115.5646 926.8685,115.7361 925.7056,117.8137 928.2496,116.4847 928.7338,118.7668 925.31,121.6327 921.3406,122.6682 923.1139,124.6766 925.9239,135.5827 931.4039,135.4706 928.4917,123.9775 930.3332,123.0507 928.4917,123.9775 931.4039,135.4706 937.7502,133.7853 939.6599,134.3822 934.4799,125.1482"/>
    <polygon points="925.9239,135.5827 924.8599,131.1371 918.7728,132.2022 912.372,131.7999 910.5271,129.9564 906.3565,130.6194 908.9755,140.1271 925.9239,135.5827 908.9755,140.1271 911.0284,147.9925 919.4241,154.3576 923.3526,152.5339 926.7559,156.0164 927.6596,164.8118 929.1737,167.4402 931.9598,166.0583 937.399,169.9267 939.4655,169.564 934.3844,145.6214 937.6854,142.7193 940.2089,135.7476 942.804,135.5299 941.873,132.0111 937.5354,124.8811 936.5703,126.8697 939.6599,134.3822 937.7502,133.7853"/>
    <polygon points="919.4003,122.2329 917.8487,124.5776 903.6352,128.9639 904.3616,130.6029 910.5271,129.9565 912.372,131.8 918.7728,132.2023 924.8599,131.1371 923.1139,124.6766 921.3406,122.6682 915.216,120.8709 908.9175,116.2572 901.5448,107.5344 898.4245,108.6029 895.3452,113.2166 885.2069,116.3562 883.7746,119.2022 886.1037,122.1175 884.651,124.3337 891.4747,126.4773 901.7119,127.2128 903.6352,128.9639 917.8487,124.5777"/>
    <polygon points="908.6549,200.2738 909.3472,202.1173 907.3113,203.4562 910.8204,212.8816 907.4921,219.8137 903.2328,218.511 911.2807,230.7099 912.7369,229.0016 914.8511,218.7056 921.5862,215.0416 916.3414,212.4 913.245,204.9864 913.5655,200.6069 912.2526,196.102 909.5211,199.0799 908.6652,198.5193"/>
    <polyline points="935.479,233.7702 941.2183,232.5731 943.0052,230.1261 941.8799,214.4414 936.2429,215.4605 926.2649,214.0786 920.0277,211.8724 925.5078,216.1233 924.6587,216.928 921.5896,215.0416 914.8545,218.7089 912.7403,229.0015 911.366,229.5094 908.8289,233.9912 911.2159,240.4583 915.5877,240.2308 918.7523,243.4594 920.171,242.2985 925.9682,242.6712 932.1167,234.2748 935.4791,233.7703 932.1167,234.2749 925.9682,242.6712 920.171,242.2986 918.7524,243.4594 915.5877,240.2308 911.216,240.4584 909.5757,239.1392 902.7725,232.3159 899.8397,227.2801 898.2165,233.645 899.4612,237.6948 897.2447,242.7042 895.7612,251.4205 894.4552,253.0068 890.1448,253.95 890.2061,255.6352 893.2309,255.6187 893.2002,265.9839 915.182,262.6564 919.6492,264.2459 921.4702,262.8081 936.1782,262.3068 935.4791,233.7703 936.1781,263.0323 939.104,262.3563 942.4562,263.2368 948.1886,260.7667 958.7907,258.6692 957.9723,235.6534 959.7763,233.6944 954.5587,231.2606 951.4555,231.8608 950.4359,228.6948 945.9413,227.2504 941.2183,232.5731 935.4791,233.7703"/>
    <polyline points="944.0317,262.3562 942.4562,263.2368 928.9214,262.1979 921.4702,262.808 919.6492,264.2459 916.6006,262.6662 915.1581,302.0034 938.0469,304.1074 939.8645,274.1132 941.5525,270.6999 941.2183,266.9337 944.0317,262.3562 941.2183,266.9337 941.5525,270.6999 939.8645,274.1132 938.0469,304.1074 953.4539,305.387 954.361,294.0984 962.1054,294.6096 963.2819,255.9353 959.4284,258.5538 944.0317,262.3563"/>
    <polygon points="893.2002,265.9839 891.3417,300.2951 915.1581,302.0034 916.6006,262.6663"/>
    <polygon points="921.2622,311.7354 918.8956,329.4978"/>
    <polygon points="921.4293,340.6347 919.431,342.0198 920.8189,343.029 919.8163,347.1909 920.8052,350.3173 916.3755,352.5862 909.4563,353.8427 910.7726,356.3722 909.8212,357.1472 901.9506,354.3572 900.1569,356.9658 893.6947,360.168 889.9845,360.7484 881.8445,359.4029 880.7123,364.2046 901.1117,368.6732 907.516,367.1925 915.2024,372.9539 918.2511,372.1756 933.832,376.2913 940.6318,343.5467"/>
    <polygon points="940.6318,343.5467 948.0624,344.7735"/>
    <polygon points="980.7077,337.8282 1024.1631,343.893 1022.1647,356.5535 1008.4048,378.801 1005.8813,376.1198 1002.0039,377.0432 997.1445,374.3126 995.9748,372.1525 990.1435,373.8773 982.2013,373.0132 981.3556,372.4163 982.8731,369.379 975.4901,367.3079 980.7077,337.8282 950.0676,333.5937 954.361,294.0984 985.325,296.054 982.0137,328.5249 975.4901,367.3079 937.5763,359.9569 940.6318,343.5467 917.2723,339.8861 918.8956,329.4978 917.2723,339.8861 921.4293,340.6347 919.431,342.0198 920.8189,343.029 919.8163,347.1909 920.8052,350.3173 916.3755,352.5862 909.4563,353.8427 910.7726,356.3722 909.8212,357.1472 901.9506,354.3572 900.1569,356.9658 893.6947,360.168 889.9845,360.7484 881.8445,359.4029 887.5974,330.0024 891.3417,300.2951 922.2443,302.8872 921.2622,311.7354 922.2443,302.8872 953.4539,305.387 948.0624,344.7735 950.0676,333.5937 980.7077,337.8282 984.8714,301.8088 1023.4913,304.6846 1021.1588,327.8389 1023.1469,327.2684 1021.718,338.2602 1024.8894,338.7582 1024.1631,343.893"/>
    <polygon points="929.6784,392.3981 933.8524,376.2979 918.2511,372.1756 915.2024,372.9539 906.2985,367.2123 903.7239,368.8183 901.0947,379.3649 900.8219,390.5909 899.3351,393.0082 899.0622,397.6648 898.4143,398.7531 894.2403,399.1027 891.5156,404.0231 910.6396,411.3246 918.0226,415.3876 922.7286,414.9721 929.6784,392.3981 952.0659,398.2585 989.4376,373.8641 982.2013,373.0132 981.3556,372.4163 982.8731,369.379 981.6011,368.4523 937.5763,359.9569 929.6784,392.3981 922.7286,414.9721 934.8243,419.8331 939.8133,418.1578 946.0743,419.2296 956.881,414.9622 958.535,415.6613 970.3136,413.8112 979.4766,410.1737 983.7734,410.5496 985.417,409.3459 987.3165,404.752 997.4889,394.9639 1005.0083,393.1599 1007.2555,377.1092 1005.8813,376.1198 1002.0039,377.0432 997.1445,374.3126 995.9748,372.1525 989.4376,373.8641 952.0659,398.2585"/>
    <polygon points="880.7123,364.2046 872.6371,392.9093 885.9571,393.4403 887.5599,395.2343 881.0056,395.6795 877.442,402.0345 891.5156,404.0231 894.2403,399.1027 898.4143,398.7531 899.0622,397.6648 899.335,393.0082 900.8219,390.5909 901.0947,379.3649 903.7239,368.8183"/>
    <polygon points="987.5672,690.4523 987.7551,695.031 987.4563,685.4108 982.1112,685.5265 987.4563,685.4108 987.5672,690.4523 996.6524,690.1293"/>
    <polyline points="980.5833,685.5843 982.1112,685.5265 978.0722,685.6662"/>
    <polygon points="968.6062,685.9699 978.0722,685.6662"/>
    <polygon points="963.8732,685.9892 968.6062,685.9699"/>
    <polyline points="958.3691,677.0919 958.6582,675.8773 944.9123,676.6678 958.6582,675.8773 956.846,679.309 958.0269,678.4029 953.7951,681.608 957.0581,683.9022 957.2653,686.3314 963.8732,685.9892 956.9424,686.6254 957.8051,685.5747 956.6966,686.7218 956.8364,692.2838 959.039,695.1708 951.1539,700.4195 953.4384,705.0995 951.7853,705.7357 953.4384,705.0995 952.8408,703.7404 954.2771,705.1477 953.4384,705.0995 956.6725,705.6249 957.1448,707.9577 956.6725,705.6249 957.5834,706.9118 955.1254,710.3434 954.8506,709.4952 955.1543,712.2858 952.9034,712.0978 952.2913,713.3365 952.0214,717.1056 952.4166,714.2378 952.6625,716.3248 951.6551,717.5683 954.0746,719.1154 953.0143,722.0555 950.5466,723.4484 922.9968,723.9737 951.5346,722.9086 950.5466,723.4484 951.9829,728.1814 963.2852,727.8777 951.4913,728.1814 951.8576,726.6969 951.9829,728.1814 949.9586,727.9886 951.4913,728.1814 950.8502,730.9238 950.8261,728.2296 948.0837,727.309 947.0956,728.0416 947.7367,727.3861 945.91,729.4972 943.3169,730.037 945.91,729.4972 941.8373,730.8371 940.8492,733.6036 943.2928,737.9703 943.0952,740.3272 945.9389,741.1514 946.3293,743.4359 946.257,741.3923 946.3293,743.4359 944.8014,745.253 945.4135,747.8267 944.8737,746.2748 944.5749,747.1953 949.2645,752.0055 946.792,753.7791 947.78,753.8514 944.546,753.4128 943.6061,756.8831 946.5847,761.3028 951.3515,760.628 951.3997,762.2812 951.7467,760.0207 950.8117,760.7244 952.3926,759.9002 960.9187,765.2839 960.4753,764.4308 961.526,770.7302 961.2561,769.9253 963.2708,772.822 966.8518,772.2485 974.8285,775.8874 980.1978,775.9259 977.9807,776.5284 978.9687,776.3356 981.7015,775.2946 983.2439,769.7711 984.9452,768.0986 988.8589,769.588 988.9119,778.2587 989.4276,767.983 984.9452,768.0986 990.0927,767.7902 990.6133,765.3562 993.7172,764.9947 984.8778,764.3007 995.6355,764.6332 998.9804,766.243 1007.1499,763.356 1005.8196,763.4524 1014.2301,762.2475 1011.9937,762.2908 1013.03,761.9775 1017.6714,763.7175 1016.2207,763.5681 1016.9147,774.2294 1016.8617,763.6404 1020.3513,762.5511 1022.8142,759.3556 1022.6889,760.1364 1039.9003,759.9388 1022.419,760.8208 1021.8406,751.35 1017.4208,746.4676 1021.8936,742.8094 1021.1803,743.1275 1023.4649,742.6166 1022.5347,743.007 1028.5738,737.5655 1041.4667,737.2955 1040.3581,737.2473 1043.3319,735.2182 1043.8717,732.7505 1043.3319,735.2182 1044.3585,731.1118"/>
    <polyline points="1055.15,726.0703 1055.7766,726.7065 1054.562,670.4454 1052.8943,670.5226 1054.562,670.4454 1053.8197,649.3252 1049.1012,652.087 1044.5224,650.0675 1042.8741,651.6773 1037.9531,652.7714 1034.7672,655.6488 1031.7404,654.7137 1030.9355,655.5668 986.4827,656.9405 987.4563,685.4108 986.4827,656.9405 944.3194,658.7286 944.8014,672.836 940.1311,673.077 944.8014,672.836 944.9123,676.6678 944.3194,658.7286 893.1818,660.4203 893.7071,674.6627 897.9726,674.4699 898.1027,676.8172 897.9726,674.4699 893.7071,674.6627 895.1097,724.0942 900.8356,723.9882 895.1097,724.0942 895.4856,795.393 896.5026,795.5665 895.4856,795.393 894.0445,862.2769 896.1797,861.5009 895.6977,863.2891 894.5361,862.9131 897.1966,864.682 897.8136,862.1468 899.8571,863.7855 902.455,861.1491 905.6987,860.9852 904.8649,859.9104 905.9879,858.7344 908.5086,859.8236 909.6027,859.1296 906.1325,856.0739 907.6893,853.2784 909.8099,854.4593 913.6079,853.423 913.9212,839.4505 913.6079,853.423 916.0467,851.2638 918.3409,852.4446 916.7793,856.0883 917.8349,854.1122 920.1917,853.1145 923.874,853.4808 921.1364,856.1028 923.0595,857.1101 919.8351,857.6933 921.1942,861.2648 922.7414,859.655 924.1439,860.4647 925.9803,859.7562 923.7824,855.8088 925.532,856.7679 927.9419,855.481 927.7539,853.9484 928.742,854.5894 931.4892,850.1022 932.6026,850.1793 932.4677,844.6269 932.3134,849.4997 935.0462,850.7577 933.5473,853.1242 934.5932,855.51 938.1743,855.9052 940.9697,854.9798 941.1047,853.4278 945.2063,849.7214 938.0393,853.7893 936.9645,852.4253 935.774,852.7531 935.4463,849.9624 943.0615,849.0226 946.6715,845.3113 945.8377,844.3811 946.6619,842.8581 946.7004,844.2703 950.0983,845.4559 950.9466,847.967 956.1712,849.172 958.7209,851.3794 960.0271,851.5047 960.2921,845.3595 960.0271,851.5047 963.4153,850.83 966.2831,853.0856 969.3629,849.6829 971.6812,849.8949 974.4526,848.1887 969.869,851.2397 970.8233,852.5651 983.2149,849.4419 985.2537,853.8375 986.7671,852.0012 987.2973,853.5146 988.4299,853.5242 984.5355,857.6789 986.4104,857.0378 991.37,859.1971 997.0139,864.6723 991.7989,867.8437 996.0789,868.0028 994.3968,869.1836 992.4544,868.6053 993.5919,871.0778 998.7105,871.2417 996.7103,872.249 993.2159,871.7526 995.8668,872.678 997.1778,874.7842 999.2985,874.2444 997.0525,875.1264 995.3511,872.9912 991.7941,871.473 991.2206,872.3454 993.6931,873.7335 995.9777,877.4302 992.9701,875.1168 993.6594,877.6038 990.6518,872.1719 989.5963,877.8351 987.2105,874.9673 989.177,875.3963 989.7023,876.8615 990.0879,871.9694 985.7116,871.3477 984.1837,868.3161 979.5616,867.4003 982.1257,867.0822 981.7883,866.205 983.1475,865.5592 983.0896,866.4074 988.1504,868.0606 992.1363,865.3857 989.2348,865.1688 990.1458,865.0049 989.4372,864.1711 987.143,864.5663 986.7671,865.7327 982.9113,864.4362 981.0653,860.5996 979.4652,860.3683 980.005,857.621 974.3032,855.3846 973.5754,857.2547 969.975,857.3463 972.1777,859.4573 973.1657,862.7492 971.0884,859.9345 969.1557,861.525 970.804,861.9781 968.7267,863.0047 966.8567,862.3588 971.1173,859.6453 969.522,858.7537 961.5646,860.6864 964.495,858.5464 962.1863,856.9944 960.5813,857.3704 961.5453,856.9173 961.6128,854.1701 952.7444,855.9004 951.0912,858.9224 957.4967,857.3945 955.5591,858.8838 960.4126,863.0577 965.7047,864.5856 967.1603,867.4919 966.4422,867.9208 969.763,872.2779 980.0146,878.3846 981.8365,875.1119 977.3107,868.1618 978.0771,868.1908 982.2076,875.0927 981.716,877.7387 982.9209,878.3364 982.0196,879.8353 968.6448,873.266 966.2783,869.8921 965.7096,870.5428 961.3573,868.7306 961.7573,867.9064 956.9183,868.2052 959.4198,867.2027 955.3808,866.1472 958.9908,865.5495 964.2058,867.2702 964.5143,865.4724 958.504,864.1373 956.7496,861.8094 954.8217,862.06 954.0024,859.0669 953.0529,860.5659 951.525,860.6237 952.3058,861.4334 949.3465,861.3612 943.1145,865.458 941.4999,863.5782 940.0395,863.8048 940.3142,866.7448 941.9288,868.5089 943.4615,868.7643 945.3798,866.5472 947.7704,867.3232 948.156,868.586 945.0472,868.1956 944.011,870.8079 942.4156,869.627 943.047,874.0275 943.9965,872.8225 946.0208,873.0828 940.8637,874.9529 939.1189,876.8326 939.3214,879.1605 937.3453,876.1337 941.0083,881.5319 940.7576,886.9926 939.6057,889.0941 939.4274,887.0023 939.6877,890.94 938.6128,892.2125 939.4129,893.9235 937.4947,897.6395 937.2248,907.5875 931.47,916.5426 929.7734,922.148 923.9126,930.5826 924.0234,933.8841 927.1418,931.5755 935.7355,934.6505 939.5334,933.2238 946.551,933.1274 950.9418,931.4598 951.3322,929.5704 951.7322,931.079 952.0022,929.3584 954.8699,926.8714 957.4629,926.6834 959.4342,924.6928 970.3076,922.8324 970.6016,920.7936 970.3076,922.8324 977.3589,922.577 980.0291,922.0275 980.6364,920.4273 980.5014,921.2804 988.3721,918.2054 1003.1157,917.8632 1001.8819,916.1667 997.8622,916.7547 996.9946,915.2124 997.8863,912.2723 1000.4263,911.6891 1001.3613,904.3149 1003.6796,911.1156 1005.1545,911.0866 1004.9376,913.0579 1006.7209,914.152 1006.398,912.2193 1006.8559,913.2266 1008.509,912.5615 1007.0535,913.2989 1007.8536,914.3834 1003.9785,915.5353 1004.311,916.6824 1010.3502,915.5064 1011.025,902.4641 1010.3502,915.5064 1013.8397,915.569 1015.4591,910.9758 1013.6373,911.1541 1014.3024,908.8888 1013.1071,908.0743 1017.6377,904.9993 1017.1075,903.5534 1017.7582,905.0475 1015.6519,906.5657 1016.881,909.1154 1018.8379,910.06 1021.3827,908.5273 1019.0018,910.7975 1025.6627,908.4502 1025.7928,909.7467 1027.605,910.595 1031.9621,906.9272 1028.6606,910.3589 1033.2731,911.1397 1032.5839,913.4772 1019.1126,914.2147 1019.0982,913.4098 1018.9102,914.7256 1033.5237,915.0051 1038.5941,916.3546 1038.5893,914.6195 1036.9168,914.9666 1036.0685,913.6363 1040.1894,909.4045 1038.1362,905.8427 1038.7435,904.2329 1038.0688,902.9605 1032.9116,902.734 1033.7069,889.2146 1032.9116,902.734 1037.5289,902.9268 1036.9313,901.235 1039.3894,900.8446 1039.587,893.0559 1042.6234,891.3208 1045.9973,887.1999 1044.185,880.9246 1049.1976,874.3697 1049.1879,872.437 1052.7256,871.8538 1057.531,868.639 1059.7095,869.4391 1062.317,868.2341 1072.5831,868.239 1075.7786,863.9783 1078.9452,848.5261 1075.4075,838.689 1071.5179,833.1606 1072.183,828.7313 1070.6359,822.0944 1072.5204,817.7711 1072.1493,813.5586 1073.7398,810.2137 1076.9787,809.1245 1077.2052,807.9725 1074.6459,804.7096 1075.2821,798.3716 1069.8551,788.1971 1070.0961,785.6281 1072.6795,782.5772 1071.0118,772.5617 1069.0887,770.9182 1065.7101,763.7175 1063.84,752.1934 1060.312,749.0847 1061.2952,746.0772 1059.483,738.4716 1059.2853,731.2323 1057.1261,727.6367 1053.386,725.2654 1054.3403,725.1449 1048.5035,726.4896 1049.2651,726.2727 1044.508,730.7696 1045.5346,729.1839 1044.5562,728.3742 1045.7081,728.914 1043.1054,726.615 1042.4644,722.5374 1040.0063,718.9467 1040.281,720.1709 1039.9099,718.8744 1036.4975,718.0984 1037.5048,718.5611 1033.7936,714.2185 1034.7287,715.1198 1028.8534,713.563 1025.5374,710.6182 1023.5179,708.2035 1024.4288,709.0325 1023.5179,708.2035 1024.3951,705.3935 1023.0166,702.7619 1023.648,699.417 1030.2318,699.5954 1023.648,699.417 1025.388,697.6048 1023.2817,700.3231 1023.9902,698.7326 1022.7371,698.2458 1016.1291,700.3135 1016.9629,699.9713 1016.1291,700.3135 1015.6857,698.9013 1016.1966,708.83 1015.758,699.1423 1013.8734,692.9055 1008.8512,690.4089"/>
    <polyline points="1001.3758,689.9944 1008.8512,690.4089 996.6524,690.1293"/>
    <polygon points="1016.1966,708.83 1016.534,722.6579"/>
    <polygon points="1016.534,722.6579 1016.6593,740.6356"/>
    <polygon points="1007.2463,735.1989 1007.1933,727.3476 1000.2817,727.5259 1007.1933,727.3476"/>
    <polygon points="1007.3186,741.561 1007.2463,735.1989"/>
    <polyline points="1013.565,741.5369 1007.3186,741.561 1019.879,741.5177 1020.173,744.6891 1019.879,741.5177 1016.6834,741.5418 1016.6593,740.6356"/>
    <polygon points="1000.2817,727.5259 993.7847,727.5789"/>
    <polygon points="993.7847,727.5789 988.3962,727.6319 987.7551,695.031 988.3962,727.6319 963.2852,727.8777"/>
    <polygon points="979.0844,748.0099 979.2001,755.7263"/>
    <polyline points="973.6622,747.2291 979.0844,748.0099 974.4526,748.0581 971.421,745.0168 969.8208,741.2237 969.8449,743.4359 971.421,745.0168 968.9822,740.491 963.6081,739.5946 965.6806,739.6428 963.6081,739.5946 961.1404,737.3823"/>
    <polyline points="954.1325,734.6158 955.0241,736.6304 961.1404,737.3823 955.0241,736.6304 954.1084,734.3218 951.7901,733.5506 953.2938,733.5217 954.1084,734.3218 950.8502,732.7216 951.7901,733.5506 950.8502,730.9238"/>
    <polyline points="951.0912,705.7165 946.9462,707.4275 945.1581,701.6052 941.5529,702.2221 942.4687,701.9522 941.1336,702.0775 940.3624,700.14 936.2608,699.6436 936.8295,700.1978 934.0823,698.3856 923.1607,701.0895 923.9752,701.3305 919.7387,698.9206 913.0536,697.7108 906.5711,698.5109 906.2722,699.4074 906.171,698.5591 904.3925,700.1159 906.2722,699.4074 901.3513,701.8462 894.6084,701.6727"/>
    <polyline points="912.4849,681.0248 907.7326,681.1453 907.6025,678.7258 907.7326,681.1453 912.4849,681.0248 912.3259,676.981 912.4849,681.0248 912.3259,676.981 915.1936,676.2388 912.321,676.3737 920.317,676.0894"/>
    <polygon points="907.6025,678.7258 902.696,678.8704"/>
    <polygon points="902.696,678.8704 902.5658,676.6437 898.1027,676.8172 902.5658,676.6437"/>
    <polygon points="940.1311,673.077 940.213,675.3568 920.317,676.0894 940.213,675.3568"/>
    <polygon points="922.9968,723.9737 923.045,724.7738 914.5574,724.9329 923.045,724.7738"/>
    <polyline points="914.5574,724.9329 912.2825,723.7713 913.7429,723.7472 914.5574,724.9329 911.439,723.8002 912.2825,723.7713 905.2456,723.9062 911.439,723.8002"/>
    <polygon points="905.2456,723.9062 900.8356,723.9882"/>
    <polyline points="951.39,767.2841 951.3997,762.2812 951.39,767.2841 945.7798,769.8 947.4378,769.3952 945.7798,769.8 941.4902,777.4875 937.3404,777.8153 932.4821,783.3339 934.463,781.7386 932.4821,783.3339 931.9809,785.8065 932.699,784.6208 931.4603,785.9269 929.4842,785.069 930.4964,785.2907 928.8914,785.3341 927.8455,787.9031 925.1946,788.8381 925.7923,788.2597 925.0452,788.7899 923.8885,787.5271 924.356,788.1585 921.5364,788.4139 922.5534,787.3536 920.6159,789.6478 921.4015,791.5179 921.2087,790.231 919.8254,789.9852 920.4472,788.3417 921.2376,788.4621 920.4472,788.3417 920.6159,789.6478 917.6228,790.0286 918.0855,791.6528 916.895,792.8819 915.4346,793.0698 913.5356,790.9106 913.82,794.2266 913.8537,791.6384 914.6972,791.9806 910.451,788.2597 906.9229,791.2239 897.7027,792.3517 898.2184,793.7109 897.7027,792.3517 898.6185,791.8745 898.7341,794.6073 896.7725,796.0292"/>
    <polyline points="913.7622,797.2775 913.82,794.2266 913.7622,797.2775 914.8514,797.3305"/>
    <polygon points="914.7839,801.9816 914.8514,797.3305"/>
    <polyline points="914.5767,809.6595 914.7839,801.9816 914.4562,814.3346"/>
    <polyline points="914.355,819.4677 914.4562,814.3346 914.0513,834.7271"/>
    <polygon points="913.9212,839.4505 914.0513,834.7271"/>
    <polygon points="932.5448,840.0192 932.4677,844.6269"/>
    <polygon points="932.5496,835.4308 932.5448,840.0192"/>
    <polyline points="932.6749,830.582 932.5496,835.4308 933.1762,809.7269"/>
    <polyline points="921.7003,791.9324 921.9172,793.2626 921.7003,791.9324 921.9172,793.2626 919.6326,795.4122 920.6689,795.658 920.8568,798.9066 922.1919,798.815 923.1462,802.4298 922.3654,799.6633 922.8715,802.1599 924.5006,802.8973 923.7391,802.5792 930.2698,802.1454 931.2049,803.1431 932.4918,802.0346 932.1158,803.1721 931.2049,803.1431 933.2485,800.8393 933.1762,809.7269 933.2485,800.8393 934.3522,801.2152 933.0412,801.1381 940.4444,797.4558 941.2734,799.3741 940.7335,798.7186 943.476,799.2632 946.8546,806.4158 948.8597,804.9698 954.012,807.2255 951.3949,806.8736 954.6241,807.4231 957.4437,806.5363 958.5908,803.6251 961.3959,804.9506 960.6922,808.0063 959.8921,804.3577 960.7307,805.4325 964.6829,803.4805 964.0419,803.9866 964.6829,803.4805 966.1048,805.5771 969.2617,805.2976 973.4597,809.6209 970.8089,806.7628 971.6571,804.4348 969.2617,805.2976 970.6932,805.1578 970.8089,806.7628 971.1125,804.6276 979.8363,797.9233 979.0458,798.4535 980.3616,796.6606 980.0242,793.9085 980.0676,795.0267 981.5859,791.5757 984.1548,789.2719 983.6102,790.0237 984.5789,786.2306 984.256,787.7874 986.208,785.1895 984.8826,784.0906 988.9119,778.2587"/>
    <polyline points="984.1403,763.4235 984.8778,764.3007 983.3306,761.9101 984.1162,762.6427 979.417,759.5918 979.4652,760.3726 980.9448,760.3726 979.4652,760.3726 979.2001,755.7263"/>
    <polygon points="1016.9147,774.2294 1016.9003,779.5215"/>
    <polyline points="1016.9003,779.5215 1016.8183,783.4496 1012.1962,783.411 1016.8183,783.4496 1016.8713,781.8157"/>
    <polyline points="1012.1962,783.411 1012.0949,788.0717 1007.4728,788.0669 1007.4776,790.1539 1007.4728,788.0669 1012.0949,788.0717 1012.1383,785.9703"/>
    <polyline points="1007.4776,790.1539 1007.4921,802.2129 1006.2727,803.2347 1007.4921,802.2129 1003.1206,804.7288 1004.2966,804.6951 1000.1805,808.4063 1000.6528,807.4809 1001.2939,806.8495 997.8477,812.3633"/>
    <polyline points="997.9248,817.2891 993.9967,825.5502 994.1751,824.4561 994.6426,823.8247 992.9364,830.2447 994.4739,832.1051 994.551,835.9321 993.5099,836.9973 994.551,835.9321 991.4664,841.3688 988.1504,843.8269 988.1793,843.0509 987.9913,849.8419 984.5982,852.8591 987.9913,849.8419"/>
    <polyline points="991.0519,861.9202 990.1217,861.3756 988.9745,863.4385 990.3482,864.3976 991.0519,861.9202 993.5967,861.2358 992.9075,860.8165 994.7101,863.6072 992.1315,862.4408 991.3121,863.6505 993.1003,864.9808 994.4884,863.6795 1000.648,862.3637 999.9829,862.9179 1002.947,861.1346 1003.2844,858.7247 1004.8316,858.8597 1007.8005,856.3004 1006.2486,856.6763 1008.7356,856.2088 1010.1285,850.3673 1011.0394,850.2275 1010.1285,850.3673 1012.2251,849.4997 1011.0201,849.5913 1013.6035,849.119 1012.2251,849.4997 1014.4229,851.6156 1014.4952,848.4201 1014.4229,851.6156 1013.6035,849.119 1014.5819,846.3476 1014.4952,848.4201 1013.7626,847.2682 1015.4688,842.5496 1015.2423,843.3256 1016.7557,832.1629 1013.8734,829.4639"/>
    <polyline points="1034.9263,837.5419 1035.0709,829.4831 1034.7913,847.7019 1041.8089,847.8224 1034.7913,847.7019 1034.7961,846.5789 1034.7094,852.488"/>
    <polygon points="1041.8089,847.8224 1044.1898,848.0345"/>
    <polyline points="1049.241,848.1887 1044.1898,848.0345 1057.8009,848.3912 1049.241,848.1887 1052.5039,848.3092 1052.2726,849.4804 1052.5039,848.3092 1053.4968,850.4926 1052.7112,850.0925 1057.5069,852.1795 1055.8537,857.1342 1056.5959,859.3658 1055.9838,858.9175 1058.3648,862.2383 1058.5286,866.2966 1060.2638,867.41 1061.888,866.2773 1062.317,868.2341 1057.1598,869.2463 1058.0418,869.1788"/>
    <polygon points="1050.8363,871.8393 1050.0218,872.5189 1051.7183,871.9454"/>
    <polyline points="1042.8548,884.2357 1039.2737,884.0092 1044.8694,884.1586 1045.9924,890.1303 1044.2573,892.0727 1042.9849,891.9377 1045.8382,888.5398"/>
    <polyline points="1033.8225,884.0381 1033.8852,880.1293 1033.7069,889.2146 1014.7169,888.7952 1033.7069,889.2146 1033.8225,884.0381 1039.2737,884.0092 1033.8225,884.0381 1034.7094,852.488 1033.9479,875.4879"/>
    <polyline points="1014.7169,888.7952 1011.6949,888.7663 1014.741,888.8675 1011.6949,888.7663 1011.025,902.4641 1011.6949,888.7663"/>
    <polyline points="1000.9324,882.1536 1000.995,880.5486 1013.5312,881.074 1014.2349,861.0286 1013.5312,881.074 1011.9359,880.9872 1011.6949,888.7663 1011.9359,880.9872 1000.995,880.5486"/>
    <polyline points="996.2572,881.8933 996.4211,877.2664 995.6114,877.2326 996.4211,877.2664 996.2572,881.8933 1000.9324,882.1536 996.2572,881.8933 996.0548,887.9566"/>
    <polygon points="991.2929,892.2462 995.915,892.4149 996.0548,887.9566 995.915,892.4149"/>
    <polyline points="986.5165,892.0775 991.2929,892.2462 982.5739,892.4052"/>
    <polygon points="972.5247,894.1741 972.6452,891.9618 982.5739,892.4052 967.8158,891.7931 968.1243,885.0358 967.8158,891.7931 972.6452,891.9618"/>
    <polygon points="972.1391,903.4666 972.5247,894.1741"/>
    <polygon points="971.8837,911.6843 972.1391,903.4666"/>
    <polyline points="970.7221,916.345 970.9968,911.6265 971.8837,911.6843 970.9968,911.6265 970.6016,920.7936"/>
    <polyline points="952.0552,917.9644 951.3322,929.4499 952.1805,915.704"/>
    <polygon points="952.3299,910.7541 952.1805,915.704"/>
    <polygon points="953.5445,895.8466 952.3299,910.7541"/>
    <polyline points="954.3156,878.7991 953.5445,895.8466 954.4361,876.2494"/>
    <polygon points="954.7012,871.1742 954.4361,876.2494"/>
    <polyline points="947.7415,870.938 954.7012,871.1742 940.9022,870.5621 940.7143,869.3716 941.0757,870.3693"/>
    <polygon points="946.7968,862.142 943.0615,862.836 943.7748,863.4722 945.8521,863.2264 947.1727,861.1491 942.2566,861.6166 943.1097,863.3469 944.8255,861.6648"/>
    <polygon points="947.1872,848.8828 947.9632,847.7501"/>
    <polygon points="927.9564,860.161 935.9861,864.1084 939.4708,861.0093 939.8612,858.4886 946.204,858.7103 947.9487,856.5655 949.4284,856.8209 948.6331,854.0448 952.6191,852.5217 953.2746,850.5601 950.3442,849.4419 946.3389,850.3576 942.7434,855.6256 945.9341,855.1147 947.139,856.2908 937.9622,857.674 935.7451,859.8381 935.6246,862.8215 934.9016,860.243 932.4628,859.6405 933.5762,858.9946 932.058,857.38 933.4461,856.5414 932.1014,854.5942 928.8384,857.7415 925.8983,857.9584 926.3273,860.002"/>
    <line x1="922.6787" x2="921.9365" y1="861.2551" y2="861.2214"/>
    <polyline points="919.141,870.697 918.6831,872.4611 917.4734,872.1622 915.3189,875.2903 914.1285,875.2276 913.8682,876.9965 918.8856,877.5797 922.8811,873.2322 923.3728,870.5669 922.2739,872.1574 919.7724,872.596 919.9074,871.1645 916.7118,868.2775 915.9889,872.1719 917.9264,871.0007 916.8613,868.398 918.8807,866.5761 916.9673,867.5497 918.1192,868.9426 922.4907,869.9307 923.9704,867.1786 925.2284,867.8968 924.8765,864.9808 922.4522,865.2507 923.7246,866.7641 920.7026,867.4148 918.8807,866.5761 919.6133,864.2578 920.1917,866.1038 922.0039,865.4435 920.4568,864.2145 917.8108,863.612 916.2443,865.0965 919.2374,865.0772 916.4853,859.332 919.4784,859.4091 919.6471,856.5992 916.5383,858.826 915.2322,861.3804 917.0541,862.4649 918.8181,861.8528 918.7024,860.5418 917.4445,859.8767 916.2492,861.0045 914.649,859.6116 914.4899,860.9418 915.2948,859.5923 913.338,856.6185 909.7762,859.0573 910.8269,857.8813 909.3135,858.0355 910.157,857.8765 909.087,861.6455 913.6513,857.7608 907.7567,861.1732 910.5859,863.1589 907.4724,865.6941 909.4244,869.5885 912.2777,871.8441 913.6802,872.731 914.7213,872.3502 913.714,871.6417 915.6419,871.7815 915.131,870.8079 913.0729,871.1019 915.9118,869.1402 915.4635,866.8364 910.8896,868.7306 910.3257,867.9257 915.5455,865.6266 912.4271,862.3492 909.3328,868.3546 906.7831,868.4992 907.4868,867.2943 906.5084,868.5185 906.6964,866.9955 905.3565,870.1813 905.3902,869.2366 905.2071,870.2006 910.5426,871.8297 911.1257,873.0443 909.8099,873.9745 908.711,871.7622"/>
    <polyline points="914.3164,873.5359 913.8826,877.9893 915.7334,878.7846 915.8636,877.9845 912.4753,877.4399 913.2368,875.4156 912.3789,877.1748 911.3137,877.3579 911.9644,876.3217 911.2414,877.0398 910.3498,879.8883 911.6125,877.4351 910.4847,878.8521"/>
    <polygon points="893.6252,874.1046 895.2398,873.9263 895.0085,871.6995 893.6927,872.196"/>
    <polygon points="960.2921,845.3595 960.5476,836.1538"/>
    <polygon points="960.5476,836.1538 960.6006,831.4592"/>
    <polygon points="960.6006,831.4592 960.6006,826.7937"/>
    <polygon points="960.6006,826.7937 960.7356,819.7472"/>
    <polyline points="960.7356,819.7472 960.8416,808.0111 960.6247,817.4145"/>
    <polyline points="973.4597,809.6209 980.005,816.6867 980.0339,815.9059 982.8294,818.1856 984.015,817.4627 982.8294,818.1856 986.8008,816.9614 987.1816,815.0672 987.172,816.6722 987.4081,813.7032 990.5313,814.619 991.0037,812.9899 990.5313,814.619 991.3989,812.7007 994.7004,812.1802 995.274,815.5926 997.0958,816.1372 997.5393,815.2889 996.4789,816.1854 997.9248,817.2891 997.5393,815.2889 999.2165,815.0046 997.5103,816.1902 998.6767,814.6817 998.0694,812.561 1000.5613,816.1324 1005.5497,817.9109 1004.393,818.1712 1005.8919,817.8386 1009.1501,820.6341 1014.794,817.7374 1013.7626,817.8772 1013.7529,829.2904 1013.9795,818.1953 1016.6641,817.1831 1017.71,814.6527 1018.8861,815.1974 1017.71,814.6527 1019.5416,816.6867 1021.1369,817.0385 1022.125,815.8191 1023.1805,816.5324 1022.6889,815.8962 1028.5738,818.5375 1034.0346,815.9974 1035.3408,816.2674 1035.2492,818.6194 1035.3408,816.2674 1033.0032,816.7252 1035.2203,819.7424 1035.2492,818.6194 1035.0709,829.4831 1035.1914,820.9859 1039.7075,821.0582 1035.1914,820.9859 1053.7137,821.251 1042.0884,821.0968"/>
    <polyline points="1053.7523,818.5857 1053.9065,806.1892 1053.6221,824.6971 1062.7218,824.6971 1053.6221,824.6971"/>
    <polyline points="1064.2401,824.726 1062.7218,824.6971 1067.4018,824.7694 1064.2401,824.726 1067.4018,824.7694 1067.5175,821.2703 1067.4018,824.7694 1067.5175,821.2703 1070.6744,821.7474"/>
    <polygon points="1053.9065,806.1892 1053.9981,801.302"/>
    <polygon points="1053.9981,801.302 1054.1764,776.0464"/>
    <polygon points="1054.1764,776.0464 1054.2535,761.1823"/>
    <polygon points="1054.2535,761.1823 1054.2535,759.5918"/>
    <polygon points="1049.4964,759.5387 1039.9003,759.9388"/>
    <polygon points="1065.0305,759.6303 1049.4964,759.5387"/>
    <polygon points="1039.5581,699.3785 1032.7092,699.5423"/>
    <polygon points="1039.5243,694.7611 1039.5581,699.3785"/>
    <polygon points="1032.7092,699.5423 1030.2318,699.5954"/>
    <polyline points="1025.4844,697.4602 1022.901,686.4856 1023.6384,687.117 1023.5227,688.3364 1023.5179,686.8953 1021.4213,685.1939 1025.7735,685.6952 1021.4261,685.5361 1021.296,683.4636 1017.4545,680.6971 1017.8979,681.7671 1020.0862,682.4659 1017.8979,681.7671 1017.1798,679.4536 1017.3533,680.4031 1018.2642,673.8096 1018.6403,675.9833 1017.0256,671.6938 1025.7639,662.917 1024.8289,663.3122 1024.1734,664.0737 1031.2391,661.4855 1030.3186,661.1867 1031.6247,660.7192 1031.0608,655.9572"/>
    <polyline points="1033.0562,668.3537 1032.0971,661.9386 1029.4414,662.0205 1030.1354,661.1722 1029.4414,662.0205 1032.0971,661.9386 1032.314,666.7728 1033.943,669.1104"/>
    <polygon points="1039.4424,668.8164 1033.943,669.1104"/>
    <polyline points="1041.2353,675.9207 1048.2047,675.699 1038.9749,675.9544 1036.6035,678.3065 1036.4975,676.0123 1038.9749,675.9544 1036.4975,676.0123 1036.6035,678.3065 1034.2949,678.4125 1035.5239,678.3595 1031.162,680.9622"/>
    <polyline points="1029.6775,685.6325 1029.639,681.0682 1031.162,680.9622 1029.639,681.0682 1029.6775,685.6325 1025.7735,685.6952"/>
    <polyline points="1048.2047,675.699 1054.6536,675.0917 1048.1758,675.3568"/>
    <polyline points="1052.0846,670.5515 1047.9155,670.7394 1047.7565,668.4645 1047.9155,670.7394 1052.8943,670.5226"/>
    <polygon points="1047.7565,668.4645 1039.4424,668.8164"/>
    <polyline points="1051.7039,689.6956 1044.0019,689.8884 1044.1127,694.6551 1039.5243,694.7611 1044.1127,694.6551 1044.0019,689.8884 1054.3306,689.8353"/>
    <polygon points="1057.8009,848.3912 1062.6013,848.69"/>
    <polygon points="1062.6013,848.69 1067.1367,848.796"/>
    <polyline points="1067.1367,848.796 1078.9693,849.0177 1078.1595,849.0129 1079.35,850.4878 1078.897,852.1747 1079.2295,850.242"/>
    <polygon points="1077.8896,856.2329 1077.8993,854.7147"/>
    <polyline points="1014.2397,856.686 1014.4229,851.6156 1014.2349,861.0286"/>
    <polyline points="989.1818,871.4055 992.1942,870.456 989.1818,871.4055 986.6466,868.1185 987.5575,868.2004 985.0416,868.639 986.1791,871.1115 988.3432,871.5405 992.4689,869.8488 990.2903,868.4896 986.3189,869.4776 981.6341,866.7882 973.4308,866.4508 973.1705,874.6685 973.4308,866.4508 979.7158,866.7207"/>
    <polyline points="979.9086,860.6382 979.7158,866.7207 980.8966,866.7545 979.7158,866.7207 980.005,857.621 981.5618,857.1198 983.5427,858.8645 986.7285,857.8186 987.8467,859.2164 985.4802,860.0261 986.8394,859.5489 986.9454,861.4238 988.7577,859.2694 989.9144,859.7417 986.3526,861.5925 986.2707,863.0529 979.9086,860.3683"/>
    <polyline points="974.4863,854.146 979.9616,853.4326 980.9111,851.2252 983.2776,854.5797 981.6292,854.5653 981.0219,853.3459 980.2508,854.4111 983.9572,855.9486 980.2556,856.7968 974.4863,854.146 972.5247,855.7365 973.2236,854.9653 970.8281,855.4569 969.5991,858.1705 966.0469,858.6042 965.6373,857.4089 963.049,857.1487 964.5528,856.9896 963.9744,855.5244 966.7313,856.0594 968.4134,855.0714 968.0809,856.7968 968.5821,855.3895 970.8281,855.4569"/>
    <line x1="968.6448" x2="968.1243" y1="873.266" y2="884.9828"/>
    <polygon points="1028.0292,912.3542 1031.1283,911.6554 1031.0897,910.7541 1026.2893,911.9253"/>
  </g>
</svg>
