<?xml version="1.0" encoding="utf-8" ?>
<svg xmlns="http://www.w3.org/2000/svg" xmlns:cc="http://creativecommons.org/ns#" xmlns:dc="http://purl.org/dc/elements/1.1/" xmlns:ev="http://www.w3.org/2001/xml-events" xmlns:inkscape="http://www.inkscape.org/namespaces/inkscape" xmlns:rdf="http://www.w3.org/1999/02/22-rdf-syntax-ns#" xmlns:sodipodi="http://sodipodi.sourceforge.net/DTD/sodipodi-0.dtd" xmlns:xlink="http://www.w3.org/1999/xlink" baseProfile="tiny" height="27.94cm" version="1.2" viewBox="0 0 1632.0 1056.0" width="43.18cm">
  <metadata>
    <rdf:RDF>
      <cc:Work>
        <dc:format>image/svg+xml</dc:format>
        <dc:source>vpype read /Users/cj/Documents/Projects/greeting-cards-2021/outside/11x17/individual/card-outside-with-border.svg pagesize 5.5inx8.5in ldelete 2 splitall linemerge --tolerance 1.2mm linesimplify --tolerance 0.2mm rotate 270 layout -l -h right -v top 11inx17in ldelete 3 write /Users/cj/Documents/Projects/greeting-cards-2021/outside/11x17/individual/outside-11x17-one-per-page-11x17-layer1-right-top.svg
</dc:source>
        <dc:date>2022-02-09T18:47:49.287723</dc:date>
      </cc:Work>
    </rdf:RDF>
  </metadata>
  <defs/>
  <g fill="none" id="layer1" inkscape:groupmode="layer" inkscape:label="1" stroke="#00f" style="display:inline">
    <polyline points="1142.1746,282.2252 1114.0746,267.9703 1105.0056,267.233 1102.425,269.0354 1102.679,275.2616 1106.554,284.2733 1112.4935,290.7453 1117.9251,294.5957 1134.9653,302.2966 1140.6181,301.0677 1142.4204,297.4631 1141.9289,292.5476 1138.57,287.3864 1123.5778,272.1485 1106.3,257.976 1102.679,251.504 1101.9089,246.3427 1105.0056,242.9838 1109.1346,242.4923 1115.0577,244.0488 1140.8639,258.4675 1119.2359,245.0319 1110.9451,237.5768 1103.9734,229.3025 1101.9089,222.5847 1105.0056,218.4885 1109.1346,217.9969 1116.8601,219.7993 1122.2671,222.9124 1103.9734,206.6095 1101.1306,197.0243 1102.679,194.2389 1106.0379,192.6824 1111.9774,192.6824 1119.9732,194.4847 1138.0784,203.7421 1150.449,215.1296 1155.0367,221.3067 1156.8391,228.0163 1154.791,230.8509 1152.2513,231.367 1147.5816,229.0485 1138.8157,217.1777 1130.5414,198.3351 1127.1825,186.7019 1123.3321,164.5004 1121.0382,156.5538 1117.6793,150.0818 1113.0096,145.9855 1108.1024,144.6748 1103.1951,146.9686 1101.1306,151.8841 1101.9089,157.8646 1105.7839,164.0089 1120.7105,175.1506 1147.5816,190.0608 1156.1018,201.4482 1154.791,199.1544 1153.8079,189.5692 1155.856,179.2468 1155.6102,173.594 1152.4971,168.9243 1148.6467,166.8762 1143.7312,166.3028"/>
    <polyline points="1122.2671,222.9124 1129.8041,226.7628 1135.9484,232.9072 1141.6831,242.2465 1141.9289,249.7016 1139.0615,252.569 1133.163,252.569 1127.1825,250.5209"/>
    <line x1="1123.5778" x2="1084.9096" y1="272.1485" y2="251.2332"/>
    <polyline points="1142.1746,322.4506 1114.0746,308.1958 1105.0056,307.4585 1102.425,309.2608 1103.9734,319.5832 1106.554,324.4987 1112.4935,330.9707 1117.9251,334.8212 1134.9653,342.522 1140.6181,341.2932 1142.4204,337.6885 1141.9289,332.773 1138.57,327.6118 1123.5778,312.3739 1084.9096,291.4587"/>
    <polyline points="1090.8081,340.195 1092.1189,340.9733 1093.6755,338.9088 1092.1189,337.1024 1088.2685,337.3605 1085.1554,340.195 1084.5819,344.8483 1085.1554,350.3045 1087.2035,355.138 1091.2997,359.3162 1141.3554,387.6619 1127.756,380.2068 1113.2554,368.3278 1106.554,361.3643 1103.1951,356.203 1101.9089,351.2876 1103.1951,347.9287 1105.5217,346.1264 1110.1668,346.3721 1141.3554,361.8558"/>
    <polyline points="1024.8788,278.1636 1014.794,269.6435 1008.6005,261.6149 1005.7577,253.4225 1006.0199,246.7047 1009.8949,242.5266 1016.0884,241.7892 1024.3054,244.3289 1024.8788,243.0181 1011.9512,232.6956 1006.79,226.7971 1005.2498,221.3901 1005.7577,216.4747 1007.8263,214.4265 1014.54,214.6723 1051.1765,233.5149 1056.3377,233.5149 1058.9593,231.4668 1059.2051,222.7009 1052.4873,214.1808 1041.9191,204.5956 1006.536,184.1965 1047.8176,206.6437 1058.1401,208.2003 1059.9424,204.8414 1058.9593,199.6802 1055.027,195.3382 1044.213,187.5554"/>
    <polyline points="1024.3054,244.3289 1033.399,248.9986 1042.1649,256.4537 1046.5068,264.9738 1045.278,271.4458 1041.0998,273.0024 1035.6928,271.2 1031.8424,266.7761 1029.2208,261.3691 1024.8788,245.8855"/>
    <polyline points="1044.9503,327.1542 1040.6083,327.9735 1029.2208,324.6146 1015.5722,316.3403 1010.1489,310.6875 1005.7577,302.1674 1006.0199,299.0542 1007.8263,296.6784 1011.1811,295.9411 1015.3101,296.6784 1044.9503,312.4898 1021.5199,299.3 1016.3587,294.8761 1008.8586,287.1752 1005.5038,277.9178 1006.79,275.0504 1009.3788,273.4939 1016.8503,274.5589 1044.9503,289.7149"/>
    <polyline points="949.5132,340.2081 947.7108,338.6515 946.8916,339.3888 947.7108,341.7646 950.4963,342.502 953.8552,340.4539 951.3155,332.753 917.489,301.7853 913.8679,295.3133 913.0979,290.1521 916.1946,286.7932 920.3236,286.3016 926.2467,287.8582 952.0528,302.2769 930.4248,288.8413 922.1341,281.3862 915.1623,273.1118 913.0979,266.3941 916.1946,262.2978 920.3236,261.8063 928.049,263.6086 933.456,266.7217 922.3881,256.6451 916.1946,248.6165 913.3518,240.4241 913.614,233.7063 917.489,229.5282 923.6825,228.7909 932.4729,230.839 921.8719,221.7454 916.7107,213.553 912.8439,184.6337 908.1906,169.3958 904.0452,165.7829 900.4406,165.7829 896.8359,168.9043 896.0986,172.2631 896.3444,177.4244 898.1467,182.5856 906.9126,193.1538 912.5817,197.7416 964.9969,227.4801 938.945,211.4229 927.0659,200.6089 922.9042,194.9562 921.8719,189.7949 925.5094,185.371 929.6056,184.6337 936.3234,186.9276 953.3636,197.4958 960.8187,200.6089 965.4884,200.8547 967.2907,198.8066 967.5365,194.4646 965.7342,190.778 962.1295,186.436 951.3155,178.9809"/>
    <polyline points="931.8995,231.3305 940.9931,236.0002 949.759,243.4553 954.1009,251.9754 952.8721,258.4474 948.6939,260.004 943.2869,258.2017 939.4365,253.7778 936.8149,248.3708 932.4729,232.8871"/>
    <polyline points="933.456,266.7217 940.9931,270.5722 947.1374,276.7165 952.8721,286.0559 953.1178,293.511 950.2505,296.3783 944.352,296.3783 938.3715,294.3302"/>
    <polyline points="933.7018,315.9585 914.1301,304.5874 952.8721,325.4617"/>
  </g>
</svg>
