<?xml version="1.0" encoding="utf-8" ?>
<svg xmlns="http://www.w3.org/2000/svg" xmlns:cc="http://creativecommons.org/ns#" xmlns:dc="http://purl.org/dc/elements/1.1/" xmlns:ev="http://www.w3.org/2001/xml-events" xmlns:inkscape="http://www.inkscape.org/namespaces/inkscape" xmlns:rdf="http://www.w3.org/1999/02/22-rdf-syntax-ns#" xmlns:sodipodi="http://sodipodi.sourceforge.net/DTD/sodipodi-0.dtd" xmlns:xlink="http://www.w3.org/1999/xlink" baseProfile="tiny" height="27.94cm" version="1.2" viewBox="0 0 1632.0 1056.0" width="43.18cm">
  <metadata>
    <rdf:RDF>
      <cc:Work>
        <dc:format>image/svg+xml</dc:format>
        <dc:source>vpype read /Users/cj/Documents/Projects/greeting-cards-2021/outside/11x17/individual/card-outside-with-border.svg pagesize 5.5inx8.5in ldelete 1 splitall linemerge --tolerance 1.2mm linesimplify --tolerance 0.2mm rotate 270 layout -l -h right -v bottom 11inx17in ldelete 3 write /Users/cj/Documents/Projects/greeting-cards-2021/outside/11x17/individual/outside-11x17-one-per-page-11x17-layer2-right-bottom.svg
</dc:source>
        <dc:date>2022-02-09T18:48:04.902682</dc:date>
      </cc:Work>
    </rdf:RDF>
  </metadata>
  <defs/>
  <g fill="none" id="layer2" inkscape:groupmode="layer" inkscape:label="2" stroke="#00f" style="display:inline">
    <polyline points="1012.6437,591.553 1025.2647,591.553 1025.2647,589.7609 1025.2647,592.1631 1012.6437,592.1631 1012.6437,593.9552 1012.6437,589.7609 1015.656,586.7486 1013.2442,584.9565 1012.6437,581.9442 1015.656,578.932 1020.4604,578.3409 1023.4536,579.542 1025.2647,581.9442 1023.4536,586.1385 1025.2647,586.7486 1021.6424,586.7486 1023.4536,586.1385"/>
    <polyline points="1012.6437,581.9442 1014.4453,578.932 1017.4481,577.7499 1023.4536,578.932 1025.2647,581.9442"/>
    <polyline points="1021.0514,596.3574 1019.2402,598.1686 1012.6437,598.7596 1020.4604,598.1686 1021.0514,595.1754 1019.2402,592.1631"/>
    <line x1="1012.6437" x2="1012.6437" y1="600.5708" y2="596.3574"/>
    <polyline points="1024.52,607.5698 1027.6006,610.536 1027.9342,609.7605 1021.0514,604.7651 1013.2442,605.3752 1012.6437,608.3875 1014.4453,611.3807 1012.6437,611.3807 1012.6437,613.7829 1012.6437,611.9717 1021.0514,611.9717 1021.0514,609.5695 1021.0514,611.3807 1012.6437,611.3807 1013.2442,605.9853 1021.0514,605.3752 1021.0514,602.973"/>
    <polyline points="1012.6437,620.3794 1014.4453,617.3862 1016.247,616.7952 1020.4604,618.5873 1021.0514,620.3794 1019.2402,624.0018 1018.0582,624.0018 1018.6492,624.5928 1021.0514,622.1906 1020.4604,619.1974 1017.4481,617.3862 1014.4453,617.9772 1012.6437,620.3794 1014.4453,624.5928"/>
    <polyline points="1025.2662,632.0981 1025.2662,634.5003 1014.4467,638.1036 1012.6451,635.7014 1012.6451,632.0981 1012.6451,633.8903 1025.2662,633.8903 1012.6451,638.1036 1025.2662,642.317 1025.2662,644.7193 1021.0514,646.2229 1021.0514,648.6251 1014.4453,648.6251 1012.6437,650.4172 1012.6437,654.6305 1021.0514,654.6305 1021.0112,658.3124 1023.3248,657.6364 1024.0003,656.9609 1021.6867,657.6368 1021.0514,652.8194 1021.0514,655.2216 1012.6437,655.2216 1012.6437,657.0327 1012.6437,654.6305 1014.4453,654.6305 1012.6437,651.6373 1013.2442,648.625 1021.0514,648.015"/>
    <polyline points="1021.0514,666.0315 1019.2402,667.8426 1012.6437,668.4337 1020.4604,667.8426 1021.0514,664.8494 1019.2402,661.8371 1021.0514,659.435 1021.0514,661.8372 1012.6437,661.2271 1021.0514,661.2271"/>
    <polyline points="1010.842,681.0547 1012.6437,673.8481 1010.2415,672.647 1008.4494,675.0492 1009.0404,680.4637 1012.0431,680.4637 1012.6437,675.0492 1010.842,672.647 1012.6437,670.2448 1012.6437,659.4349"/>
    <polyline points="1020.4604,679.8536 1021.0514,681.0547 1019.8503,679.2435 1015.656,678.6525 1020.4604,678.6525 1021.0514,676.2503 1019.8503,674.4392 1017.4481,673.8481 1015.0459,676.2503 1015.656,678.6525 1017.4481,679.8536 1020.4604,678.6525 1020.4604,675.0492 1015.656,675.0492 1015.656,673.8481 1013.8448,673.2571 1012.6437,673.8481 1012.6437,675.6593 1013.8448,673.2571"/>
    <polyline points="1012.6437,704.683 1014.4453,702.8718 1017.4481,704.683 1019.8503,703.4629 1019.2402,702.8718 1021.0514,704.683 1019.8503,708.8773 1014.4453,709.4874 1012.6437,711.2795 1014.4453,708.8773 1012.6437,706.4751 1013.2442,702.8718 1016.838,702.8718 1018.0582,708.2672 1019.8503,708.8773 1014.4453,708.8773"/>
    <polyline points="1021.0514,726.8938 1019.2402,728.705 1012.6437,729.296 1020.4604,728.705 1021.0514,725.6927 1019.2402,722.6805 1021.0514,720.2782 1019.2402,722.0894 1012.6437,722.0894 1020.4604,722.0894 1021.0514,719.0962 1019.2402,716.0839 1021.0514,713.6818 1021.0514,716.084 1012.6437,715.4738 1021.0514,715.4738"/>
    <line x1="1012.6437" x2="1012.6437" y1="731.0976" y2="713.6817"/>
    <polyline points="1024.7877,756.7779 1028.2019,758.9686 1027.8683,759.7441 1024.7877,756.7779 1021.0514,756.331 1019.2402,753.3378 1016.247,752.7468 1013.2442,754.5389 1012.6437,757.5512 1014.4453,760.5444 1019.2402,760.5444 1021.0514,757.5512 1019.2402,753.9288 1016.247,753.3378 1013.2442,755.149 1013.2442,758.7332 1017.4481,760.5444 1021.0514,757.5512 1021.523,761.2585 1023.7205,760.4336 1020.8502,761.9358 1020.463,758.7331"/>
    <polyline points="1021.0514,764.1477 1021.0514,766.5499 1012.6437,766.5499 1025.2647,765.9398"/>
    <line x1="1012.6437" x2="1012.6437" y1="768.342" y2="764.1477"/>
    <polygon points="1028.0971,649.6666 1027.7635,648.8835 1024.6829,651.8787"/>
    <polyline points="1013.8462,698.0742 1025.2662,690.8676 1012.6451,698.0742 1025.2662,698.0742 1025.2662,696.2821 1026.0904,703.0237 1024.2792,704.2248 1025.4993,703.6337 1023.6882,706.627 1026.0904,709.0292 1023.6882,706.627"/>
    <polyline points="1025.2662,642.9081 1012.6451,642.9081 1025.2662,642.317"/>
    <line x1="1012.6451" x2="1012.6451" y1="644.7193" y2="640.5059"/>
    <polyline points="1025.2662,737.6128 1025.2662,740.015 1012.6451,743.6183 1025.2662,739.4049 1012.6451,739.4049 1012.6451,737.6128 1012.6451,743.6183 1025.2662,747.8317 1012.6451,748.4227 1025.2662,747.8317 1025.2662,750.2339"/>
    <line x1="1012.6451" x2="1012.6451" y1="750.2339" y2="746.0205"/>
    <polyline points="1025.2662,688.4654 1025.2662,690.8676 1012.6451,690.2576 1012.6451,688.4654 1012.6451,692.0687"/>
    <polyline points="971.8484,828.0582 970.4507,827.5087 970.7803,828.8545 969.9912,828.594 968.5304,824.6826 969.3485,824.0434 972.462,825.9948 971.8484,828.0583 980.9536,839.6059 979.0865,840.4616 981.3022,843.3437 982.8981,842.729 984.1543,841.213 981.9726,838.3532 980.9536,839.6059 984.802,841.1008 983.595,843.0303 981.0182,843.983 969.1213,828.518 967.1442,821.9799 972.9051,825.6807 984.802,841.1008"/>
    <polyline points="1163.5058,984.4325 1167.0589,985.8577 1169.9836,990.7146 1171.929,989.5724 1175.9267,990.1435 1175.7594,999.685 1171.929,999.8522 1169.9836,998.71 1167.3317,1003.2854 1164.3008,1004.9306 1147.9428,1004.9921 1145.4012,1004.0779 1143.9662,1001.403 1144.1259,987.2421 1147.5343,984.4536 1163.5058,984.4325 1163.3625,1003.8499 1166.3091,1002.7029 1169.2369,997.8454 1171.3579,997.5678 1171.3579,991.8568 1169.2367,991.579 1164.6661,985.7465 1149.6561,985.5747 1149.6561,1003.8499 1162.2203,1003.8499 1162.2203,985.5747 1152.8013,990.9196 1158.2416,987.2829 1158.2416,990.6214 1152.8013,987.2829 1158.2416,990.9196 1158.2416,992.738 1152.8013,996.3748 1158.2416,992.738 1158.2416,996.0766 1152.8013,992.738 1158.2416,996.3748 1158.2416,998.4915 1152.8013,1001.83 1158.2416,998.1932 1158.2416,1001.5317 1152.8013,998.1932 1158.2416,1001.5317"/>
    <polygon points="1174.7845,990.7146 1172.5001,990.7146 1172.5001,998.71 1174.7845,998.71"/>
    <polygon points="1145.0873,1000.9944 1146.0703,1003.1485 1148.5139,1003.8499 1148.5139,985.5747 1146.3888,986.0358 1145.1187,988.0085"/>
    <polyline points="1175.314,813.8727 1166.7882,807.8591 1158.8895,805.9472 1150.8696,807.9322 1142.2437,813.8727"/>
    <polyline points="1153.4673,821.1427 1158.4159,818.796 1163.2596,821.1427 1162.1515,820.2276 1163.7693,818.2096 1157.8493,821.0329 1151.9885,818.2096 1147.8171,817.8503 1156.3689,813.0056 1162.5675,813.6069 1168.9338,817.8503"/>
    <polyline points="1142.1099,801.3473 1175.2141,801.3473 1142.1099,801.3473 1142.9729,803.3017 1148.7409,807.6982 1157.0843,810.4994 1164.8021,808.9199 1173.1015,803.3017"/>
    <polyline points="1148.6076,810.8343 1153.6569,814.4537 1158.6695,815.7789 1163.8687,814.5383 1169.2451,810.8343"/>
    <polyline points="1175.314,931.8727 1166.7882,925.8592 1158.8895,923.9473 1150.8696,925.9323 1142.2437,931.8727"/>
    <polyline points="1153.4673,939.1428 1158.4159,936.796 1163.2596,939.1428 1162.1515,938.2276 1163.7693,936.2097 1157.8493,939.033 1151.9885,936.2097 1147.8171,935.8504 1156.3689,931.0057 1162.5675,931.607 1168.9338,935.8504"/>
    <polyline points="1142.1099,919.3474 1175.2141,919.3474 1142.1099,919.3474 1142.9729,921.3018 1148.7409,925.6983 1157.0843,928.4994 1164.8021,926.92 1173.1015,921.3018"/>
    <polyline points="1148.6076,928.8344 1153.6569,932.4538 1158.6695,933.779 1163.8687,932.5384 1169.2451,928.8344"/>
    <polygon points="1146.0386,977.0865 1145.2499,978.3574 1143.8254,976.6166 1144.6394,971.6101 1147.023,969.6894 1151.3141,968.7931 1146.5049,965.0892 1144.0267,960.3962 1143.9882,955.6682 1146.5904,951.2106 1152.087,947.6686 1159.2383,946.3152 1165.8755,947.5446 1171.3269,951.0776 1174.9579,956.4221 1175.6171,961.8715 1172.902,966.9217 1167.5618,970.4461 1173.9938,971.6562 1174.7768,975.467 1159.83,972.3345 1149.1452,973.3587 1146.9459,974.6593"/>
    <polygon points="1151.8223,965.209 1159.0733,968.2026 1165.4663,966.7167 1172.0192,962.3102 1173.3281,959.9382 1173.0708,957.4179 1170.2324,953.8808 1164.8472,951.0794 1159.298,950.3945 1153.5678,951.5009 1148.4204,954.6592 1146.1317,958.7032 1147.1907,961.9078"/>
    <polygon points="1166.9497,881.909 1163.1909,884.3779 1158.2364,885.274 1148.8793,882.3805 1145.048,885.4123 1152.3974,888.0145 1160.6922,888.2413 1155.3924,893.9671 1144.2181,893.0241 1144.2818,898.0091 1152.5829,896.6615 1144.5374,905.5541 1146.5808,907.8442 1151.4124,905.778 1158.026,905.3711 1167.269,908.8549 1169.6316,906.3623 1161.682,902.7375 1151.3698,902.5897 1156.9108,896.5498 1164.6014,899.4437 1171.2917,903.8698 1175.1869,900.2319 1162.1609,895.4492 1175.1229,890.3293 1171.3557,886.6246 1160.1176,893.0242 1169.6315,884.9403"/>
    <polyline points="1159.383,845.1242 1159.383,836.2171 1152.9318,837.0235 1152.9318,844.2812 1159.383,845.1242 1160.8873,846.7914 1151.1384,845.6401 1151.4384,835.4378 1160.8954,834.5527 1161.6917,840.8571 1160.8873,846.7914 1163.1219,848.4598 1164.3573,842.7498 1171.3326,842.3751 1171.3326,838.9662 1164.6844,838.8644 1163.0333,832.4861 1161.7992,831.5968 1144.89,833.74 1144.89,847.5647 1161.3991,849.7061 1163.1219,848.4598 1165.0279,848.8264 1163.7924,850.8373 1161.5623,851.6085 1144.6141,849.4829 1142.4027,846.9942 1143.0071,832.8838 1145.0143,831.7451 1161.9592,829.7261 1164.7328,831.7307 1165.9076,837.0601 1177.0643,837.538 1176.7195,844.1481 1165.9443,844.2812 1165.0279,848.8264"/>
    <polygon points="1175.2913,842.3385 1175.2913,838.9295 1173.2753,838.9295 1173.2753,842.3385"/>
    <polygon points="1148.6065,844.5744 1147.6534,845.5641 1146.7004,844.6111 1146.7004,836.7302 1147.6534,835.7772 1148.6065,836.7302"/>
    <polyline points="1159.4274,773.2138 1148.5117,773.7682 1159.9819,773.7682 1157.7987,771.0306"/>
    <polyline points="1148.5117,780.6642 1159.4274,780.6642 1157.7987,778.481 1159.9819,781.2186 1148.5117,781.2186 1148.5117,783.4017 1148.5117,771.0306"/>
    <polyline points="1170.0447,785.8479 1170.0447,784.0431 1168.2624,783.3415 1170.0447,782.2383 1170.0447,771.4092 1168.2624,770.7076 1170.0447,769.6043 1169.9534,766.9966 1168.0004,764.5484 1164.6301,764.1898 1164.6301,789.4576 1168.0004,789.099 1170.0447,785.8479 1171.8495,785.8479 1170.7695,789.0928 1166.435,791.2625 1148.0002,791.2487 1144.8407,789.94 1142.972,785.8479 1142.9858,767.4132 1144.2945,764.2537 1148.3865,762.3849 1166.8212,762.3987 1169.6798,763.4649 1171.5081,765.9073 1171.8495,769.6043 1173.6317,770.3059 1171.8495,771.4092 1171.8495,782.2383 1173.6317,782.9399 1171.8495,784.0431 1171.8495,785.8479"/>
    <polygon points="1148.3865,789.4576 1162.8253,789.4576 1162.8253,764.1898 1147.9825,764.2129 1145.3314,765.8799 1144.7999,786.252 1146.137,788.6688"/>
    <polygon points="1166.9497,701.9089 1163.1909,704.3778 1158.2364,705.2739 1148.8793,702.3804 1145.048,705.4122 1152.3974,708.0144 1160.6922,708.2412 1155.3924,713.9669 1144.2181,713.024 1144.2818,718.0089 1152.5829,716.6614 1144.5374,725.554 1146.5808,727.8441 1151.4124,725.7778 1158.026,725.371 1167.269,728.8548 1169.6316,726.3622 1161.682,722.7374 1151.3698,722.5896 1156.9108,716.5497 1164.6014,719.4436 1171.2917,723.8696 1175.1869,720.2318 1162.1609,715.4491 1175.1229,710.3292 1171.3557,706.6245 1160.1176,713.0241 1169.6315,704.9402"/>
    <polygon points="1159.4308,693.8602 1152.5187,692.4924 1149.6024,686.8253 1152.539,691.2315 1155.6694,692.8554 1159.5934,692.783 1163.176,690.4861 1166.4543,684.9346 1165.2644,683.5188 1166.9955,684.0874 1170.9034,680.4116 1172.3107,677.3332 1171.9989,673.2212 1169.8011,670.1401 1165.8772,668.7186 1161.856,669.6725 1161.611,668.6819 1168.0091,668.0865 1172.6362,672.1453 1172.9814,678.6264 1164.331,690.6995"/>
    <polyline points="1154.4033,681.9972 1152.5588,681.6454 1154.0515,681.148 1158.2137,683.6537 1160.4729,677.4558 1160.4895,674.9315 1159.2765,674.434 1160.4301,673.9366 1159.3553,668.1603 1155.7838,663.8061 1151.2915,663.4871 1147.7027,666.3451 1146.9342,667.7188 1148.08,668.2162 1146.5418,668.7091 1145.8797,671.6667 1145.8229,678.2526 1147.3906,682.4896 1150.0616,684.8396 1153.7447,685.6175 1158.2137,683.6537 1158.9567,684.3156 1154.964,686.4744 1149.7925,685.8099 1146.3545,682.6992 1144.7433,677.6613 1146.1029,667.151 1148.6214,663.8474 1152.0591,662.3025 1157.4476,663.6612 1160.5526,668.5703 1161.3979,678.2597 1158.9567,684.3156"/>
    <polygon points="1154.5491,666.7227 1152.5588,666.7227"/>
    <polygon points="1153.5539,674.1841 1151.5636,674.1841"/>
    <polygon points="1166.9937,673.9349 1168.648,674.7095"/>
    <polygon points="1162.5107,678.9091 1164.1696,679.6837"/>
    <polygon points="1155.5465,688.8576 1157.2032,689.6322"/>
    <polygon points="1144.5816,654.0289 1143.7929,655.2998 1142.3684,653.559 1143.1824,648.5525 1145.5661,646.6318 1149.8571,645.7355 1145.048,642.0316 1142.5697,637.3386 1142.5313,632.6105 1145.1334,628.1529 1150.63,624.611 1157.7813,623.2576 1164.4185,624.4869 1169.87,628.02 1173.501,633.3645 1174.1601,638.8139 1171.4451,643.8641 1166.1048,647.3884 1172.5369,648.5986 1173.3198,652.4094 1158.373,649.2769 1147.6882,650.3011 1145.4889,651.6017"/>
    <polygon points="1150.3654,642.1514 1157.6163,645.1449 1164.0093,643.6591 1170.5622,639.2526 1171.8711,636.8806 1171.6138,634.3603 1168.7754,630.8232 1163.3903,628.0218 1157.841,627.3369 1152.1108,628.4433 1146.9635,631.6015 1144.6747,635.6456 1145.7338,638.8501"/>
    <polyline points="1146.2872,582.4743 1147.0728,584.1192 1149.5034,584.986 1151.934,584.1192 1152.7196,582.4743 1149.9611,579.9882 1147.3973,580.5761 1146.6532,582.4743 1143.6707,582.4743 1143.7343,581.0201 1143.7343,617.0495 1142.902,617.6662 1142.4499,581.0866 1143.7343,581.0201"/>
    <polyline points="1150.7621,597.143 1143.0943,597.143 1143.0943,595.8582 1150.7621,595.8582 1150.7654,600.9925 1143.0943,600.9925 1143.0943,602.2773 1150.7654,602.2773 1150.7654,600.9925 1152.0835,601.0017 1151.601,593.2721 1150.798,593.9287 1150.9316,604.6179 1152.0828,604.2067 1152.0835,601.0017 1154.4454,600.2588 1155.2565,596.7465 1158.175,597.2148 1157.8322,600.6016 1154.4454,600.2588 1155.2565,602.7446 1158.175,603.2129 1158.3005,605.7886 1154.7882,606.5997 1154.3199,603.6812 1155.2565,602.7446 1159.4539,603.6812 1162.9662,602.8701 1163.309,606.2569 1159.5794,606.2569 1159.9222,596.872 1163.4345,597.6831 1162.9662,600.6016 1160.3905,600.7271 1164.32,599.7905 1164.7882,596.872 1168.175,597.2148 1167.8322,600.6016 1164.32,599.7905 1165.2565,602.7446 1168.175,603.2129 1167.8322,606.5997 1164.4454,606.2569 1165.2565,602.7446"/>
    <polyline points="1144.3668,588.47 1170.372,588.47 1173.3982,591.2804 1171.0883,592.0321 1171.0895,594.4613 1173.4001,595.2108 1174.8269,593.2449 1173.3982,591.2804 1176.7133,589.838 1176.7133,607.3335 1170.2886,608.0595 1170.2886,606.6019 1175.4276,606.6019 1175.4276,590.5697 1170.2886,590.5697 1170.2886,589.1121 1176.7133,589.838"/>
    <polyline points="1163.4345,591.6812 1159.9222,590.8701 1159.5794,594.2569 1162.9662,594.5997 1163.4345,591.6812 1167.3639,590.7446 1164.4454,591.2129 1164.32,593.7886 1167.8322,594.5997 1167.8322,590.8701 1170.372,588.47 1170.372,608.6388 1144.3668,608.6388"/>
    <polygon points="1158.3005,591.6812 1154.7882,590.8701 1154.4454,594.2569 1157.8322,594.5997"/>
    <polyline points="1146.2872,615.718 1147.0728,617.3628 1149.5034,618.2297 1151.934,617.3628 1152.7196,615.718 1151.934,614.0732 1149.5034,613.2063 1147.0728,614.0732 1146.6532,615.718 1143.6707,615.718"/>
    <polyline points="1171.0883,602.5203 1171.0895,604.9495 1173.4001,605.699 1174.8269,603.7331 1173.3982,601.7686 1171.0883,602.5203 1171.0895,599.7054 1173.4001,600.4549 1174.8269,598.489 1173.3982,596.5245 1171.0883,597.2762 1171.0895,599.7054"/>
    <polygon points="896.1906,719.9072 895.0338,719.7006 897.9904,723.985 901.8789,734.9577 906.0231,736.4786 900.0849,722.26"/>
    <polygon points="875.211,584.5332 874.0834,584.8401 874.0834,586.2185 886.9525,591.6318 874.8681,594.6079 874.0832,597.6942 880.59,595.0063 892.0482,592.713 891.8684,590.6068 878.903,586.2787 892.4468,583.0809 897.5203,596.5425 901.6555,597.7217 897.7833,591.2559 895.3987,580.0956"/>
    <polygon points="874.4294,617.6389 874.0832,619.9283 878.8548,617.332 893.3144,612.8238 894.9049,609.6479"/>
    <polygon points="874.3636,642.5331 874.0832,644.09 893.3144,635.7609 896.681,649.3505 898.644,649.3505 902.1346,639.2971 904.1462,649.6777 907.3534,651.104 902.7273,634.4458 901.1089,634.4458 898.0146,643.8887 894.8309,632.1078 875.6736,640.3347"/>
    <polygon points="874.3636,674.8504 874.0832,676.4073 893.3144,668.0782 896.681,681.6678 898.644,681.6678 902.1346,671.6144 904.1462,681.9949 907.3534,683.4213 902.7273,666.7631 901.1089,666.7631 898.0146,676.2059 894.8309,664.4251 875.6736,672.652"/>
    <polygon points="874.4294,713.6943 874.0832,715.9837 878.8548,713.3874 893.3144,708.8792 894.9049,705.7033"/>
    <polygon points="874.3666,760.041 874.0832,761.5924 885.3616,764.4701 875.3845,766.4019 874.0832,766.8907 874.0832,768.5924 887.4216,771.2776 891.1455,773.4253 890.2428,770.7011 888.6873,769.8891 880.099,768.0151 891.4347,765.3956 891.4347,763.3982 880.0734,760.7817 893.672,758.9666 896.9764,773.657 899.5799,773.4808 905.9573,756.6428 902.1935,757.6993 898.5755,768.3935 895.9973,755.5261"/>
    <polygon points="895.85,789.0979 894.6932,788.8914 897.6498,793.1757 901.5382,804.1485 905.6824,805.6694 899.7443,791.4508"/>
    <polygon points="874.4294,830.2171 874.0832,832.5065 878.8548,829.9102 893.3144,825.402 894.9049,822.2261"/>
    <polygon points="874.51,842.4152 874.149,843.6728 886.1875,848.2849 874.971,851.4385 874.0832,854.4276 879.1537,852.1923 890.993,849.7783 890.7544,847.7179 878.9283,843.7447 893.6365,840.5401 895.2653,838.2011"/>
    <polygon points="896.1906,891.7052 895.0338,891.4986 897.9904,895.7829 901.8789,906.7557 906.0231,908.2766 900.0849,894.058"/>
    <polygon points="874.4294,883.4712 874.0832,885.7605 878.8548,883.1642 893.3144,878.656 894.9049,875.4801"/>
    <polygon points="896.1906,924.0437 895.0338,923.837 897.9904,928.1214 901.8789,939.0942 906.0231,940.6154 900.0849,926.3967"/>
    <polygon points="874.4294,962.2961 874.0832,964.5854 878.8548,961.9891 893.3144,957.4809 894.9049,954.305"/>
    <polygon points="874.7276,983.5908 874.0832,985.0838 875.0859,985.6621 887.0708,990.675 874.9565,994.0917 874.2974,997.1984 881.2134,994.4187 891.8801,992.2229 891.7023,989.9024 878.8714,985.4017 892.5618,982.0762 895.9308,995.9357 898.1237,995.9357 901.443,986.086 903.6485,996.9223 906.4366,997.9133 901.8342,980.1158 900.3412,980.3075 897.2888,989.8469 895.4828,978.8847"/>
    <polyline points="972.8117,584.4097 978.4076,589.9327 972.8117,595.4556 973.9059,596.5253 980.5855,589.9327 973.9059,583.3298 972.8117,584.4097 969.7897,582.0648 982.1278,582.0648 982.1278,597.8006 969.7897,597.8006 969.7897,582.0648 968.2474,580.5426 968.2474,599.3227 983.6701,599.3227 983.6701,580.5426 968.2474,580.5426"/>
    <polyline points="968.2474,602.8813 968.2474,618.1028 983.6701,618.1028 983.6701,602.8813 968.2474,602.8813 970.3003,604.9074 981.6172,604.9074 981.6172,616.0767 970.3003,616.0767 970.3003,604.9074"/>
    <polygon points="977.9178,645.193 982.5134,647.5688 968.2474,648.2373 968.2474,649.7698 977.5531,649.7698 982.5134,652.1559 967.6638,652.9684 966.5071,649.7698 965.1837,649.7698 966.3404,653.2666 964.1312,654.4185 964.1312,656.2081 967.2053,654.6345 970.5528,658.2407 974.6385,659.3787 980.4084,656.8972 977.1675,654.3362 983.9514,653.1021 983.6701,651.6313 980.4084,649.7698 983.9514,648.4739 983.6701,646.9826 980.6168,645.193 983.6701,644.0206 983.6701,642.4161 980.2806,643.6294 968.2474,643.6709 968.2474,645.193"/>
    <polygon points="968.6538,654.3362 974.7708,654.3362 977.7962,656.5756 973.0479,657.6583"/>
    <polyline points="968.2474,675.2761 970.3003,677.3022 983.6701,677.3022 983.6701,664.1068 981.6172,662.0807 968.2474,662.0807 968.2474,675.2761 969.2791,674.2579 969.2686,663.0991 980.5855,663.0886 980.5855,674.2579 969.2791,674.2579"/>
    <polyline points="975.1097,683.4036 978.1946,681.8909 980.4522,683.7879 980.2817,685.9773 978.1709,687.5324 975.3489,686.3755 974.2182,682.8748 973.7885,685.0806 976.9201,688.5127 979.4664,688.2095 981.3567,686.25 982.0495,692.8101 979.9186,700.258 981.5964,700.258 983.6766,692.0747 981.9715,683.936 978.7455,680.9824 976.1802,681.1205 974.2182,682.8748 970.3211,680.8402 968.4983,686.5101 968.4373,692.3204 970.205,697.5798 973.1759,700.1153 977.0008,699.1266 978.0748,695.6375 974.6151,692.5313 972.0718,693.0894 970.5608,694.8379 969.878,688.2881 971.9989,680.8402 970.3211,680.8402"/>
    <polygon points="974.2081,693.5317 976.2609,694.3648 977.1154,696.4012 976.2609,698.4067 974.1872,699.2398 972.1552,698.417 971.3319,696.4114 972.176,694.375"/>
    <polygon points="977.9178,706.5728 982.5134,708.9486 968.2474,709.6172 968.2474,711.1496 977.5531,711.1496 982.5134,713.5357 967.6638,714.3482 966.5071,711.1496 965.1837,711.1496 966.3404,714.6464 964.1312,715.7983 964.1312,717.5879 967.2053,716.0143 970.5528,719.5125 974.6385,720.6487 980.4084,718.277 977.1675,715.716 983.9514,714.4819 983.6701,713.0111 980.4084,711.1496 983.9514,709.8537 983.6701,708.3624 980.6168,706.5728 983.6701,705.4004 983.6701,703.7959 980.2806,705.0092 968.2474,705.0507 968.2474,706.5728"/>
    <polygon points="968.6538,715.716 974.7708,715.716 977.7962,717.9551 973.0479,718.9283"/>
    <polyline points="970.8749,733.3351 974.4533,731.9466 976.1076,734.4111 976.4798,738.1884 971.6615,735.1126 969.1465,729.7907 970.3607,725.9625 974.4092,725.5968 976.7195,728.1093 969.0706,732.2746 965.5178,737.2859 964.9861,741.8735 966.726,745.8094 970.7853,747.936 973.9476,746.3957 972.374,744.7398 971.1146,746.1451 968.726,746.2102 966.2232,743.845 966.5177,739.0205 970.0815,733.9922 976.4798,739.7414 978.5737,746.3749 980.457,747.3524 982.5643,746.6942 981.3775,744.9147 980.2804,745.9514 978.5468,745.4087 977.6197,734.6437 974.4477,731.1947 977.2092,730.0325 979.4174,733.7479 982.3592,734.3879 984.0273,732.3112 982.7218,728.7881 980.5315,727.525 977.3239,727.9344 974.6049,723.954 970.7023,723.255 967.9184,726.6869 969.0706,732.2746"/>
    <polygon points="977.8032,729.8063 981.9482,729.4451 983.2868,731.7661 980.4756,732.6495"/>
    <polygon points="968.2474,751.5278 968.2474,753.05 977.9074,753.05 982.5446,755.4258 968.2474,756.0943 968.2474,757.6164 977.5635,757.6164 982.5446,759.9922 967.0215,761.2082 965.6891,762.7434 965.4234,765.8648 963.9228,765.8648 966.0487,768.2715 968.2474,765.8648 966.7052,765.8648 967.8332,762.4529 980.7983,762.1424 983.9723,760.959 983.6701,759.4574 980.4709,757.6164 983.9723,756.3103 983.6701,754.8395 980.6377,753.05 983.6701,751.8775 983.6701,750.2422 980.1386,751.4921"/>
    <polygon points="969.7897,771.8403 969.7897,788.2035 971.3319,788.2035 971.3319,771.8403"/>
    <polygon points="975.8545,778.3095 977.6284,776.8467 980.0411,776.9107 982.1,780.4727 979.2097,783.3625 974.4165,781.7343 974.4165,788.2035 975.9587,788.2035 975.9587,783.6782 980.3304,784.6803 983.613,780.8029 983.3132,778.1681 981.3362,775.8473 978.4412,775.161 975.9587,776.3759 975.9587,771.8403 974.4165,771.8403 974.4165,778.3095"/>
    <polygon points="975.7086,796.6165 975.7086,799.7636 969.4921,801.7587 967.8618,802.9725 967.8618,804.6283 971.7868,802.0424 975.7086,801.2755 975.7086,804.5152 976.8653,804.5152 976.8653,801.2755 984.0557,804.6283 984.0557,803.0548 982.5138,801.8234 976.8653,799.7636 976.8653,796.6165 982.5138,794.5567 984.0557,793.3253 984.0557,791.7517 976.8653,795.1046 976.8653,791.8649 975.7086,791.8649 975.7086,795.1046 971.7868,794.3377 967.8618,791.7517 967.8618,793.4076 969.4921,794.6193"/>
    <polygon points="965.538,861.8737 966.528,860.9789 965.3244,858.1171 966.9129,856.6612 977.6377,860.5366 982.2096,860.0765 984.7611,856.7868 984.3799,852.4234 981.1681,849.8035 976.1255,850.7763 974.8419,846.485 970.3981,846.0571 968.266,849.1951 969.7258,852.681 972.4616,853.5788 981.031,851.3382 983.2549,853.1599 983.503,856.3612 981.9161,858.4947 979.0488,859.1696 966.3034,855.2228 963.9077,857.9986"/>
    <polygon points="972.3115,846.7447 974.3435,847.5572 975.1876,849.5216 974.3435,851.5169 972.2906,852.3294 970.2482,851.5066 969.4041,849.5422 970.2378,847.5469"/>
    <polygon points="968.2474,866.7178 968.2474,868.24 977.9074,868.24 982.5446,870.6158 968.2474,871.2843 968.2474,872.8064 977.5635,872.8064 982.5446,875.1822 967.0215,876.3983 965.6891,877.9334 965.4234,881.0549 963.9228,881.0549 966.0487,883.4615 968.2474,881.0549 966.7052,881.0549 967.8332,877.6429 980.7983,877.3324 983.9723,876.149 983.6701,874.6474 980.4709,872.8064 983.9723,871.5003 983.6701,870.0295 980.6377,868.24 983.6701,867.0675 983.6701,865.4322 980.1386,866.6821"/>
    <polygon points="975.7086,929.4141 975.7086,932.5612 969.4921,934.5563 967.8618,935.7701 967.8618,937.426 971.7868,934.84 975.7086,934.0731 975.7086,937.3128 976.8653,937.3128 976.8653,934.0731 984.0557,937.426 984.0557,935.8524 982.5138,934.621 976.8653,932.5612 976.8653,929.4141 982.5138,927.3543 984.0557,926.1229 984.0557,924.5494 976.8653,927.9022 976.8653,924.6625 975.7086,924.6625 975.7086,927.9022 971.7868,927.1353 967.8618,924.5494 967.8618,926.2052 969.4921,927.4169"/>
    <polygon points="970.5921,950.5905 969.5291,951.2899 972.4886,955.7329 969.5291,956.9774 972.4886,961.3793 969.5291,962.6135 972.4886,967.0565 969.5291,968.2804 970.0606,969.4632 974.4165,967.6325 971.457,963.21 974.4165,961.9758 971.457,957.5534 974.4165,956.2986"/>
    <polyline points="977.911,945.0869 976.3707,942.5504 974.9113,942.3144 975.9587,947.0526 980.325,944.0083 975.9587,940.964 971.5925,944.0083 975.9587,947.0526 980.4605,955.7434 977.501,956.9776 980.4605,961.3795 977.501,962.6137 980.4605,967.067 977.501,968.2909 978.0325,969.4736 982.3883,967.6429 979.4288,963.2205 982.3883,961.9863 979.4288,957.5638 982.3883,956.3091 978.5639,950.601"/>
    <polygon points="968.2474,974.297 968.2474,975.8192 977.9074,975.8192 982.5446,978.195 968.2474,978.8635 968.2474,980.3857 977.5635,980.3857 982.5446,982.7614 967.0215,983.9775 965.6891,985.5126 965.4234,988.6341 963.9228,988.6341 966.0487,991.0407 968.2474,988.6341 966.7052,988.6341 967.8332,985.2221 980.7983,984.9117 983.9723,983.7282 983.6701,982.2266 980.4709,980.3857 983.9723,979.0795 983.6701,977.6087 980.6377,975.8192 983.6701,974.6467 983.6701,973.0114 980.1386,974.2613"/>
    <polyline points="981.5073,627.8081 982.866,630.4923 982.1848,631.8669 975.7921,622.9423 975.9587,621.6408 984.6913,630.2492 975.9587,638.8679 967.2366,630.2492 975.9587,621.6408 974.9354,624.771 979.5724,634.5857 978.2138,634.522 972.7163,625.978 971.8596,627.8067 976.5592,636.6942 974.257,636.053 969.8667,628.8746 968.5951,629.7959 968.9786,631.2736"/>
    <polyline points="983.1976,813.8179 981.6561,815.3297 975.9587,808.1663 984.6913,814.2549 975.9587,820.3435 967.2366,814.2549 975.9587,808.1663 979.3638,817.3493 977.9044,817.1133 973.6833,810.7512 972.6801,812.3294 975.984,818.7218 973.4286,817.5452 970.4936,813.0649 969.0808,813.7446 969.4474,815.1936"/>
    <polyline points="974.1604,888.8886 975.7007,891.4252 977.1602,891.6612 975.9587,887.0303 971.5925,890.0746 975.9587,893.1189 980.325,890.0746 975.9587,887.0303"/>
    <polyline points="983.1976,902.3085 981.6561,903.8203 975.9587,896.6569 984.6913,902.7456 975.9587,908.8342 967.2366,902.7456 975.9587,896.6569 979.3638,905.8399 977.9044,905.6039 973.6833,899.2418 972.6801,900.82 975.984,907.2124 973.4286,906.0358 970.4936,901.5555 969.0808,902.2353 969.4474,903.6842"/>
    <polyline points="974.8563,919.1977 973.8674,915.1519 977.0165,918.3823 978.2968,917.5426 975.9587,912.3721 971.5925,916.6815 975.9587,920.9805 980.325,916.6815 975.9587,912.3721"/>
    <polyline points="975.7317,995.7641 977.911,998.7325 976.188,999.9339 974.6296,996.9085 975.9587,994.6096 971.5925,997.6539 975.9587,1000.6982 980.325,997.6539 975.9587,994.6096"/>
    <polygon points="1122.3236,580.1096 1122.3236,636.2561 1119.8041,636.2561 1119.8041,631.6252 1098.7689,631.6252 1098.7689,629.1077 1119.8041,629.1077 1119.8041,621.8479 1098.7689,621.8479 1098.7689,619.3303 1108.0834,619.3303 1105.5712,616.5465 1104.6205,612.6076 1105.6645,608.3045 1108.3422,605.2629 1113.1185,603.3674 1112.5903,607.1709 1114.6103,609.3859 1119.8041,606.9045 1119.8041,597.9045 1098.7689,597.9045 1098.7689,595.3869 1111.267,595.3869 1111.267,588.6096 1108.0267,587.7209 1107.5334,586.3474 1109.2494,583.258 1112.5463,581.3694 1113.7865,582.7385 1113.7865,595.3869 1119.8041,595.3869 1119.8041,580.1096"/>
    <polygon points="1119.8041,609.7932 1116.8063,611.6058 1113.491,611.7824 1111.1567,610.0899 1110.3607,606.8303 1107.4753,610.4393 1107.638,615.0334 1112.2865,619.3303 1119.8041,619.3303"/>
    <polygon points="1122.3236,644.551 1122.3236,704.2151 1119.8041,704.2151 1119.8041,699.5862 1098.7689,699.5862 1098.7689,697.0686 1110.8978,697.0686 1105.4896,689.5862 1107.5462,687.9202 1109.3783,688.8636 1110.767,688.0491 1111.3947,685.5821 1110.0901,683.2101 1105.037,683.5627 1100.0267,688.6604 1098.2689,687.346 1102.5462,682.4793 1107.718,680.2217 1111.2725,680.9243 1113.6009,683.9378 1113.004,689.144 1109.1927,690.6604 1113.6556,697.0667 1119.8041,697.0667 1119.8041,674.6604 1098.7689,674.6604 1098.7689,672.1428 1119.8041,672.1428 1119.8041,664.885 1098.7689,664.885 1098.7689,662.3479 1109.1576,662.3479 1109.1576,653.5139 1107.9349,650.2737 1099.5091,659.0139 1097.7494,657.3108 1103.9552,650.4016 1110.8978,645.8108 1112.3412,647.6995 1110.4165,649.4079 1111.0638,651.3479 1119.8041,651.8655 1119.8041,644.551"/>
    <polygon points="1119.8041,654.385 1111.6752,654.385 1111.6752,662.3479 1119.8041,662.3479"/>
    <polygon points="1122.3236,712.4749 1122.3236,811.5628 1119.8041,811.5628 1119.8041,797.1566 1113.8041,797.1566 1115.671,800.2401 1115.4193,804.0483 1113.1211,806.574 1109.3841,807.3189 1105.955,805.8597 1103.4896,802.5628 1105.3978,801.2855 1108.0515,804.3002 1111.5463,804.5824 1113.2798,802.1996 1112.1846,798.8793 1110.0834,797.1566 1098.7689,797.1566 1098.7689,794.6195 1106.5091,794.6195 1104.2478,791.6218 1104.2481,787.9373 1106.4629,784.7124 1110.1009,783.5823 1113.3791,784.699 1115.5687,787.7382 1115.6875,790.951 1114.0091,794.6195 1119.8041,794.6195 1119.8041,775.1937 1110.4896,774.9905 1108.2298,773.3421 1107.9349,771.0823 1099.5091,779.8226 1097.7494,778.1195 1103.9552,771.2102 1110.8978,766.6195 1112.3412,768.5101 1110.4165,770.2175 1111.0638,772.1566 1119.8041,772.6761 1119.8041,761.1019 1098.7689,761.1019 1098.7689,758.5843 1119.8041,758.5843 1119.8041,751.3245 1098.7689,751.3245 1098.7689,748.8069 1106.267,748.8069 1104.6353,745.265 1104.916,740.9894 1107.1115,737.5052 1110.6499,735.784 1113.3202,736.1435 1115.7652,738.2593 1117.1448,741.7075 1116.9168,745.0426 1116.4896,746.2503 1114.6556,745.6214 1115.1381,741.9729 1107.5479,746.9922 1109.8262,748.7697 1119.8041,748.8069 1119.8041,730.2698 1098.8373,730.2698 1096.51,733.4502 1092.4748,734.3151 1088.4082,731.9401 1086.9632,726.9721 1088.6084,721.7547 1092.5834,717.3811 1094.4349,719.1233 1090.9549,722.9712 1089.5049,726.8527 1091.5287,731.3812 1094.0991,731.7184 1096.0032,730.3786 1096.3236,728.1038 1094.8431,726.2522 1096.3802,724.4925 1098.8119,727.7522 1108.7298,727.7522 1108.7298,720.9749 1104.9896,719.0667 1106.7318,715.6233 1110.0267,713.7327 1111.1791,714.502 1111.267,717.7698 1119.8041,717.7698 1119.8041,712.4749"/>
    <polygon points="1119.8041,720.2894 1111.267,720.2894 1111.267,727.7522 1119.8041,727.7522"/>
    <polygon points="1114.6381,740.3987 1112.5963,738.226 1109.638,738.4554 1106.9525,741.5472 1106.6947,745.0843"/>
    <polygon points="1113.3041,789.8597 1112.3041,787.1195 1109.8978,786.1195 1107.5285,787.0306 1106.472,789.5257 1107.2298,792.0999 1109.767,794.6195 1111.5834,794.6195"/>
    <polygon points="1133.0267,835.2836 1131.0093,840.2856 1122.3236,844.432 1122.3236,849.098 1119.8041,849.098 1119.8041,844.4691 1098.7689,844.4691 1098.7689,841.9495 1119.8041,841.9495 1119.8041,833.4319 1114.5091,833.4319 1113.6153,823.932 1109.8978,824.9515 1110.0523,831.4117 1106.4154,835.0609 1103.069,834.5473 1100.7494,831.7464 1102.4154,830.3773 1104.9975,832.64 1107.6273,831.4139 1108.3145,827.1475 1105.972,823.9144 1100.9558,824.696 1096.4173,830.4496 1094.7689,829.4125 1097.7479,824.6552 1101.5091,821.7289 1105.3029,821.1202 1108.6752,822.9691 1112.6927,821.0628 1116.1139,823.3973 1116.6185,830.9125 1119.8041,830.9125 1119.8041,819.8031 1122.3236,819.8031 1122.3236,842.0609 1129.3286,838.552 1130.4749,835.7786 1129.9701,832.7289 1132.433,831.8578"/>
    <polygon points="1077.096,978.2556 1056.9723,981.1116 1056.6077,988.0213 1060.5769,986.7615 1063.5763,987.5269 1065.7276,990.1865 1066.3636,994.0566 1065.4048,997.3006 1062.7991,999.8377 1062.6038,990.5799 1061.356,989.0988 1058.8928,990.0135 1056.803,992.5135 1059.303,1003.5096 1055.7483,1002.1619 1053.3185,990.8255 1053.9552,980.0802 1057.7188,978.6116 1070.16,977.5072 1073.3069,975.8533"/>
    <polygon points="1053.2099,975.4821 1056.6083,975.4821 1060.8661,971.9469 1061.742,969.1121 1060.0562,966.406 1057.9755,965.2868 1057.4091,966.1852 1058.8427,968.954 1056.6083,972.0836 1055.299,965.7073 1052.5068,963.0227 1049.2677,962.749 1039.0107,965.736 1042.6754,966.186 1051.2127,964.7034 1052.8224,968.4954"/>
    <polygon points="1069.5569,898.1384 1065.0069,902.6057 1056.6077,904.0564 1056.6077,912.4158 1059.8407,911.9837 1062.5452,910.033 1065.7288,911.5564 1062.4459,913.464 1056.6077,913.8416 1058.2678,920.4236 1060.0183,918.5779 1059.3811,916.5564 1061.5235,916.6272 1063.6344,917.9381 1064.2053,921.283 1062.3468,926.4377 1060.2468,926.433 1057.7014,924.0369 1056.7835,925.6592 1057.0558,934.6369 1062.2522,935.9509 1057.218,938.5258 1056.7694,943.1572 1057.7161,944.4275 1062.2522,945.1502 1057.6392,946.6626 1056.7444,949.1199 1058.5608,949.7292 1061.3928,948.0603 1063.5218,949.3299 1057.8968,952.8533 1053.2093,952.8533 1054.5178,945.5603 1053.2379,942.1571 1054.4397,936.283 1053.2727,933.5388 1053.2216,926.3687 1055.8264,921.8885 1053.2593,915.5054 1053.3124,894.4502 1054.9524,892.4707 1058.053,892.7869 1056.6403,894.7986 1056.6077,902.865 1062.6031,901.7072 1065.7678,897.8455"/>
    <polyline points="1047.5452,909.2517 1044.7131,907.7673 1046.3538,904.6033 1049.1858,906.0486 1047.5452,909.2517 1050.9632,910.5212 1049.303,913.7439 1046.4905,912.2205 1048.1702,909.0564 1050.9632,910.5212"/>
    <polygon points="922.8513,587.2009 925.1486,581.7402 929.7368,580.0057 934.2425,581.8366 936.4319,588.1003 939.0337,590.6379 941.826,590.4131 944.1423,586.687 941.5404,582.9287 938.4309,583.1536 936.3367,585.4663 934.655,591.4409 929.2608,593.7537 925.45,592.3403"/>
    <polyline points="943.6346,609.339 943.6346,612.7696 923.2511,612.7696"/>
    <polyline points="943.6346,626.757 943.6346,630.1875 923.2511,630.1875"/>
    <polyline points="936.3367,635.2707 938.2405,641.0526 936.5588,645.0999 930.7522,648.0229 925.8498,646.6096 923.1512,642.241 923.2511,637.9046 925.7515,634.3713 930.0541,632.5404 934.8453,633.9537 943.9519,641.8556"/>
    <polyline points="943.6346,663.7045 943.6346,667.1351 923.2511,667.1351"/>
    <polyline points="936.3367,672.2185 938.2405,678.0004 936.5588,682.0477 930.7522,684.9708 925.8498,683.5574 923.1512,679.1889 923.2511,674.8525 925.7515,671.3191 930.0541,669.4882 934.8453,670.9016 943.9519,678.8035"/>
    <polyline points="923.2511,716.3534 923.2511,702.1718 932.4339,715.1328 936.8443,716.3534 939.5414,715.8395 943.0317,712.6916 943.6346,706.0103 940.5568,702.3806 936.3367,701.16"/>
    <polyline points="943.7298,733.9559 943.7298,723.0025 934.9405,722.1995 938.1453,726.8571 937.6376,731.8359 934.4329,735.2729 931.8627,736.2687 926.659,735.2729 923.2511,731.0971 922.9513,728.2704 924.4505,723.934 928.1503,721.1972"/>
    <polyline points="943.6346,755.6685 943.6346,759.0991 923.2511,759.0991"/>
    <polyline points="925.9482,776.6055 925.9482,764.4636 942.8414,773.9715 923.1512,773.9715"/>
    <polyline points="943.7298,802.439 943.7298,791.4855 934.9405,790.6825 938.1453,795.3401 937.6376,800.3189 934.4329,803.7559 931.8627,804.7517 926.659,803.7559 923.2511,799.5801 922.9513,796.7534 924.4505,792.417 928.1503,789.6803"/>
    <polyline points="923.2511,833.7333 923.2511,819.5517 932.4339,832.5127 936.8443,833.7333 939.5414,833.2194 943.0317,830.0715 943.6346,823.3902 940.5568,819.7605 936.3367,818.5399"/>
    <polyline points="939.6366,840.0938 942.2385,841.3145 944.0471,843.9484 942.1433,849.2164 938.4309,850.0194 935.6386,848.3812 933.354,850.9188 928.7531,851.9467 924.752,849.7945 922.9513,844.9442 924.2506,840.7042 929.6416,838.1698"/>
    <polyline points="923.2511,886.9189 923.2511,872.7372 932.4339,885.6983 936.8443,886.9189 939.5414,886.4049 943.0317,883.257 943.6346,876.5757 940.5568,872.946 936.3367,871.7254"/>
    <polyline points="943.7298,904.5214 943.7298,893.5679 934.9405,892.7649 938.1453,897.4225 937.6376,902.4014 934.4329,905.8384 931.8627,906.8341 926.659,905.8383 923.2511,901.6626 922.9513,898.8359 924.4505,894.4994 928.1503,891.7627"/>
    <polyline points="943.7298,936.8999 943.7298,925.9465 934.9405,925.1434 938.1453,929.8011 937.6376,934.7799 934.4329,938.2169 931.8627,939.2127 926.659,938.2169 923.2511,934.0411 922.9513,931.2144 924.4505,926.878 928.1503,924.1412"/>
    <polyline points="943.6346,955.5047 943.6346,958.9353 923.2511,958.9353"/>
    <polyline points="943.6346,975.9342 943.6346,979.3648 923.2511,979.3648"/>
    <polygon points="922.8513,991.9239 925.1486,986.4632 929.7368,984.7287 934.2425,986.5596 936.4319,992.8233 939.0337,995.3609 941.826,995.136 944.1423,991.4099 941.5404,987.6517 938.4309,987.8766 936.3367,990.1893 934.655,996.1639 929.2608,998.4767 925.45,997.0634"/>
    <polygon points="932.4178,603.7015 934.2516,602.9326 935.0111,601.0763 934.2516,599.2199 932.4178,598.451 930.5841,599.2199 929.8246,601.0763 930.5841,602.9326"/>
    <polygon points="932.4178,624.7813 934.2516,624.0124 935.0111,622.1561 934.2516,620.2997 932.4178,619.5308 930.5841,620.2997 929.8246,622.1561 930.5841,624.0124"/>
    <polygon points="932.4178,660.9181 934.2516,660.1491 935.0111,658.2928 934.2516,656.4364 932.4178,655.6675 930.5841,656.4364 929.8246,658.2928 930.5841,660.1491"/>
    <polygon points="932.4178,697.0548 934.2516,696.2859 935.0111,694.4295 934.2516,692.5732 932.4178,691.8043 930.5841,692.5732 929.8246,694.4295 930.5841,696.2859"/>
    <polygon points="932.4178,784.3853 934.2516,783.6163 935.0111,781.76 934.2516,779.9036 932.4178,779.1347 930.5841,779.9036 929.8246,781.76 930.5841,783.6163"/>
    <polygon points="932.4178,814.4992 934.2516,813.7303 935.0111,811.8739 934.2516,810.0176 932.4178,809.2487 930.5841,810.0176 929.8246,811.8739 930.5841,813.7303"/>
    <polygon points="932.4178,919.8981 934.2516,919.1292 935.0111,917.2728 934.2516,915.4165 932.4178,914.6476 930.5841,915.4165 929.8246,917.2728 930.5841,919.1292"/>
    <polygon points="932.4178,950.012 934.2516,949.2431 935.0111,947.3868 934.2516,945.5304 932.4178,944.7615 930.5841,945.5304 929.8246,947.3868 930.5841,949.2431"/>
    <polygon points="932.4178,971.0919 934.2516,970.3229 935.0111,968.4666 934.2516,966.6103 932.4178,965.8413 930.5841,966.6103 929.8246,968.4666 930.5841,970.3229"/>
    <polygon points="1052.0779,737.2703 1055.3914,740.8425 1054.0194,738.694 1054.7639,737.4971 1073.8881,729.6139 1074.8575,726.9263 1071.984,724.1463 1073.0972,726.3207 1072.4184,727.5517 1061.5521,732.0156 1054.3559,727.7962 1055.4948,726.2431 1053.2492,724.3276 1052.0779,725.8289 1053.1622,728.0436 1060.2059,732.6109 1053.5444,735.3309"/>
    <polyline points="1049.4375,755.002 1049.8776,746.6151 1048.4769,745.0015 1047.7987,745.5925 1047.6898,754.8422 1049.6705,757.5905 1049.4375,755.002 1052.2591,754.4325 1052.2074,746.3562 1043.1241,744.5791 1039.1869,740.8425 1043.8722,743.1464 1052.1119,744.2105 1061.0861,744.1559 1061.8626,743.2758 1061.1119,741.7485 1062.0323,741.8636 1063.9076,745.8643 1059.8953,746.5633 1063.8226,751.9412 1063.4475,756.0797 1059.0188,757.8048 1054.2005,755.1055 1055.8313,760.878 1053.2587,758.2597 1052.2591,754.4325 1054.2782,753.3453 1055.5078,754.9502 1058.3361,755.5746 1061.6556,753.3453 1061.4165,749.9408 1058.1611,746.7704 1053.9934,746.4597 1054.2782,753.3453"/>
    <polyline points="1070.9485,752.5429 1069.1365,754.3549 1071.0002,756.141 1072.7605,754.3549 1070.9485,752.5429 1072.7605,749.4625 1070.9485,747.6505 1069.1365,749.4625 1070.5085,750.938 1072.7605,749.4625 1076.2292,751.8957 1074.909,750.4202 1072.6311,751.9216 1074.469,753.7077 1076.2292,751.8957"/>
    <polygon points="1061.0861,761.0851 1061.8109,762.8712 1060.7009,763.6084 1052.0779,762.923 1055.396,765.678 1063.567,765.5115 1063.6423,763.0265"/>
    <polygon points="1075.1937,768.9802 1071.2332,765.0715 1075.3749,761.8617 1073.6924,760.1015 1068.8518,763.829"/>
    <polygon points="1052.0779,780.0075 1054.3861,782.4035 1059.8697,784.091 1061.9665,787.5661 1060.137,790.2408 1056.1875,790.7436 1054.4855,789.7405 1055.0636,785.6621 1052.6476,785.2882 1052.0968,787.3936 1053.1725,789.8671 1060.5396,794.5004 1061.9663,797.1955 1060.2049,799.8472 1056.1615,800.3989 1054.5113,799.5252 1055.3683,795.9934 1053.5534,794.6588 1052.1901,795.8179 1052.4403,798.3087 1056.4987,802.1463 1061.6155,802.3495 1063.6359,800.9102 1064.1336,798.4608 1060.3354,793.0539 1063.4096,791.4707 1064.1819,789.1593 1060.1025,783.0362 1063.595,782.563 1063.7912,780.4428 1061.3191,777.9885 1061.0141,780.6043"/>
    <polyline points="1053.9934,809.4395 1059.2569,811.0674 1061.9208,815.298 1059.807,818.8007 1055.0993,818.3731 1053.9934,809.4395 1052.0261,807.4461 1052.4399,819.8915 1055.8312,824.453 1054.1746,818.7841 1059.6364,821.5279 1063.8775,819.0046 1063.5837,815.0549 1059.8953,810.2677 1063.5855,809.8742 1064.0069,808.2655 1061.3966,805.2459 1061.0252,807.8561 1052.0261,807.4463"/>
    <polygon points="1068.5411,812.9599 1073.6665,819.1207 1075.7891,819.7419 1075.2714,818.1888"/>
    <polygon points="1060.8531,841.3565 1062.6133,843.0907 1064.1902,841.5552 1061.6174,836.402 1057.6706,834.5103 1053.8841,835.3539 1052.1468,839.6394 1055.4688,845.7311 1052.4143,846.0676 1052.3366,846.9219 1054.1486,848.3456 1063.9852,849.0963 1061.8958,846.5145 1055.8447,844.7569 1054.514,839.4265 1056.7262,837.1329 1060.2885,836.943 1061.8626,838.2847"/>
    <polygon points="1056.2196,863.2039 1054.2943,857.4977 1056.6283,853.8589 1061.4225,853.911 1061.961,856.3308 1060.413,859.3987 1061.2414,860.8629 1062.8851,860.9584 1064.1377,858.7574 1062.7844,854.018 1058.0251,851.0089 1054.1979,851.8325 1052.0987,855.2197 1053.0323,859.8321"/>
    <polygon points="1068.5411,853.3933 1073.6665,859.5541 1075.7891,860.1753 1075.2714,858.6222"/>
    <polygon points="1061.8367,866.9315 1059.4035,867.941 1052.1038,867.1387 1054.1578,869.4378 1059.2079,870.9387 1061.6191,874.0253 1061.1897,877.6159 1057.6175,879.279 1054.5773,878.14 1054.7894,873.3512 1052.3129,873.7084 1053.0104,877.7556 1057.5479,881.2448 1061.3004,881.1456 1064.0354,878.5607 1063.4324,874.6416 1059.8954,870.1672 1064.0112,869.2418 1063.5615,867.1319 1061.2932,865.1454"/>
    <polygon points="1018.172,784.929 1015.2026,787.7576 1014.112,787.4644 1013.9555,786.2959 1016.9627,783.7917 1013.8527,779.4318 1024.2032,787.4723 1022.274,788.3253"/>
    <polygon points="1014.5438,795.2126 1013.3632,791.4214 1008.4105,790.4973 1007.7195,789.2888 1016.9781,790.5202 1027.8886,794.1752 1028.9268,795.8523 1026.8104,796.2625 1015.4077,791.8953 1016.5595,795.6627 1027.1848,799.0985 1028.9268,801.1125 1026.4073,801.4265 1007.6115,794.8808"/>
    <polygon points="1014.5438,824.7861 1013.3632,820.9949 1008.4105,820.0708 1007.7195,818.8623 1016.978,820.0937 1027.8886,823.7487 1028.9268,825.4258 1026.8104,825.836 1015.4077,821.4688 1016.5595,825.2362 1027.1848,828.672 1028.9268,830.686 1026.4073,831.0 1007.6115,824.4543"/>
    <polygon points="1020.562,816.4218 1015.6094,812.4174 1014.9759,814.621 1016.6748,815.5214 1018.4312,814.4551 1018.5464,815.7347 1016.8403,816.7002 1014.3159,816.1394 1012.953,814.2715 1013.1042,812.1568 1016.4674,810.8943 1020.85,814.313 1018.6097,809.4878 1019.7557,808.1049 1021.9153,811.9909 1029.2765,814.8589 1027.1368,815.8979 1022.5488,813.8154 1022.7918,816.5699"/>
    <polyline points="1021.2779,846.3734 1021.6595,847.6648 1023.5108,848.1387 1021.2779,846.3734 1020.3925,843.0857 1028.3717,843.9507 1028.0603,845.556 1020.5941,844.0158 1019.5287,845.4138 1023.2696,844.8303 1025.2384,848.6363 1028.7802,850.366 1024.7777,850.7688 1015.6068,846.1164 1019.5101,857.611 1018.6302,858.2428 1014.1386,849.2106 1012.209,839.1264 1014.3111,839.6418 1015.2036,844.3156 1019.5287,845.4138"/>
    <polygon points="1010.4525,855.0019 1004.9559,852.6167 1010.6829,852.6798 1009.0991,848.3674 1010.5677,846.8272 1012.9012,852.4732 1012.1514,854.528"/>
    <polygon points="1024.5751,872.54 1017.995,871.0148 1025.5851,871.0447 1028.275,872.2233 1026.2519,873.6014 1027.862,879.5173 1025.9764,880.1527 1020.3236,878.3351 1021.0199,880.5761 1020.0446,881.0651 1018.1454,877.4852 1018.4355,873.5356 1020.0538,873.8188 1020.4512,876.645 1024.6708,878.236"/>
    <polygon points="1017.2481,882.9657 1011.7194,881.5679 1013.0996,884.7296 1016.7178,886.688 1015.4437,887.7862 1012.738,886.4584 1012.7909,888.909 1010.8626,885.876 1006.6653,886.035 1004.9,883.5941 1006.0486,881.8256 1005.4909,875.3377 1008.6979,874.4896 1013.9627,875.6663 1013.0735,877.33 1006.961,876.43 1007.775,881.5224 1010.9612,884.7709 1009.8033,879.5335 1011.4316,880.8389 1025.9433,883.439 1033.0564,886.9227 1030.7912,887.7623 1019.3213,883.4396 1020.72,887.6607 1019.8389,888.494"/>
    <polygon points="1008.6672,884.34 1006.6929,883.6042 1007.708,885.1381"/>
    <polygon points="1020.7635,900.8267 1015.0847,899.6017 1013.6511,896.9446 1014.4059,894.5549 1017.193,893.6235 1022.0881,895.3532 1022.6208,896.4847 1021.6285,897.2812 1018.0568,895.3059 1015.6859,896.201 1017.8264,899.334 1020.1876,899.0259 1020.1012,897.391 1021.397,897.7938 1022.0305,899.4287"/>
    <polygon points="1028.5669,911.3252 1008.6985,905.9761 1007.5755,904.6907 1022.0233,907.226 1028.2502,909.6429"/>
    <polygon points="1015.2481,934.1655 1010.9291,933.3593 1011.728,936.0131 1010.9722,936.5225 1005.7891,932.08 1004.9781,932.9779 1006.165,937.6879 1004.1334,935.658 1003.2311,932.2381 1004.7956,930.3504 1008.1933,931.1799 1009.6843,929.8608 1010.6985,931.8196 1023.5135,934.5002 1031.0564,938.1224 1028.8392,938.9726 1017.3213,934.6394 1018.6945,938.8764 1017.9292,939.7233"/>
    <polyline points="1021.6739,923.9967 1016.7166,922.1522 1026.2926,923.6918 1024.6772,924.8818 1021.6739,923.9967 1020.8792,927.3585 1019.7562,925.6044 1017.7532,925.6116 1020.8792,927.3585 1022.1462,929.9883 1016.9758,927.6731 1015.7376,925.2879 1017.1632,923.5715 1020.98,924.2664 1022.6069,927.8562 1026.1454,929.1541 1025.5152,930.3441 1022.4629,929.8465"/>
    <polygon points="1022.9075,954.3961 1017.2287,953.1709 1015.7951,950.5138 1016.5499,948.1242 1019.3369,947.1927 1024.232,948.9225 1024.7647,950.0539 1023.7725,950.8505 1020.2008,948.8751 1017.8299,949.7702 1019.9704,952.9032 1022.3316,952.5952 1022.2452,950.9603 1023.541,951.3631 1024.1745,952.9981"/>
    <polyline points="1014.6462,964.3687 1024.0006,972.7812 1022.1342,973.1443 1018.172,969.8132 1015.2026,972.6419 1013.8547,971.974 1016.9627,968.6758 1013.648,964.9689 1015.5936,961.2438 1011.3361,947.7393 1011.3104,942.5782 1013.0597,943.6149 1017.2445,961.3017 1015.5936,961.2438"/>
    <polyline points="1027.7543,982.7822 1009.188,977.7335 1008.065,976.4951 1017.9992,977.8225 1016.5307,973.6285 1018.2512,972.2246 1020.0436,978.2964 1028.41,981.6056 1028.6533,987.1344 1007.7483,981.1158 1007.5755,980.3338 1009.2302,980.2168 1020.2083,982.4653 1027.8615,985.1675 1028.6533,987.1341"/>
    <polygon points="1013.9679,992.7568 1015.4564,991.279 1017.8599,991.0664 1021.3394,992.0466 1022.7647,993.8652 1021.4305,994.6878 1018.2008,992.6863 1016.0219,993.2261 1016.0339,995.1832 1017.5707,996.562 1019.8133,996.7621 1020.2452,994.7716 1021.8505,995.5432 1021.9303,997.4766 1019.1816,998.4969 1015.5076,997.234 1013.7664,993.8729 1010.7141,993.1636 1011.146,994.9644 1014.2911,996.3148 1013.824,997.4522 1011.6068,996.7142 1014.3231,1004.802 1013.3473,1005.3786 1009.5206,996.9353 1007.6619,987.0467 1009.6775,987.562 1010.3974,991.6671"/>
    <polygon points="1099.9338,881.9547 1102.8956,873.0232 1107.2611,879.0238 1109.0505,877.1573 1104.6078,871.0332 1108.8962,868.6885 1108.8962,876.3706 1122.2704,876.3706 1122.2704,868.7502 1125.4173,868.7502 1125.4173,866.1587 1122.2704,866.1587 1122.2704,858.8622 1100.5663,858.8622 1099.9646,854.2191 1097.5891,855.3297 1099.7641,868.8119 1102.2631,868.8119 1100.9673,861.2687 1108.8962,861.2687 1108.8962,866.0353 1103.0575,869.1616 1099.3075,874.5406 1097.5891,880.3504"/>
    <polyline points="1114.5266,873.9641 1111.2101,873.9641 1111.2101,861.2687 1114.5266,861.2687 1114.5266,873.9641 1116.8251,873.9641 1116.8251,861.2687 1119.9565,861.2687 1119.9565,873.9641 1116.8251,873.9641"/>
    <polygon points="1107.1068,901.9929 1108.5877,899.0465 1102.5914,896.3738 1101.5998,895.0358 1102.2546,894.0335 1111.5583,890.7173 1122.8257,891.1794 1123.5199,888.125 1110.1137,888.1827 1100.2142,892.1697 1098.6305,894.6131 1099.276,897.0893"/>
    <polygon points="1106.6903,910.801 1114.2335,909.1427 1122.4864,905.5562 1121.3448,902.7487 1113.7052,906.2851 1106.1504,907.7621"/>
    <polygon points="1114.7117,927.4764 1116.9483,927.4764 1117.7196,932.4126 1120.8048,932.0269 1119.7713,927.4764 1124.6613,927.4764 1124.6613,924.7305 1119.4473,924.7305 1119.139,918.6065 1116.1001,919.1772 1116.64,924.7305 1113.8942,924.7305 1111.3273,920.747 1107.4996,918.2353 1104.1716,918.1067 1101.137,919.6709 1099.257,922.6066 1099.8518,925.9521 1102.7411,927.3875 1111.5186,927.4764 1112.0822,932.3459 1110.4896,937.7157 1106.0531,939.1196 1103.5589,938.1665 1102.2291,936.0433 1102.7772,934.1167 1105.5179,932.86 1104.5153,929.9136 1101.7087,931.0927 1099.3138,934.7989 1100.7836,939.5884 1105.9543,941.9748 1111.8835,940.3184 1114.7778,935.217"/>
    <polygon points="1104.5153,924.7305 1102.2769,924.219 1102.2014,922.9446 1105.6413,920.7507 1108.526,921.8922 1110.6702,924.7305"/>
    <polygon points="1117.0873,941.8532 1122.9029,935.5749 1121.0055,932.9525 1115.2208,939.3851"/>
    <polygon points="1106.4743,975.281 1108.7728,975.281 1108.7728,964.3749 1113.925,964.3749 1113.925,972.4426 1116.2235,972.4426 1116.2235,964.3749 1120.3422,964.3749 1120.3422,973.9852 1122.6406,973.9852 1122.6406,956.2918 1125.1088,956.8934 1126.0806,954.8726 1120.0337,952.5395 1115.591,949.0262 1113.9867,951.0162 1120.3422,955.3817 1120.3422,961.8914 1116.2235,961.8914 1116.2235,953.5152 1108.7728,953.5152 1108.7728,949.5661 1106.4743,949.5661 1106.4743,961.8914 1097.3731,961.8914 1097.3731,964.3749 1106.4743,964.3749"/>
    <polygon points="1108.7728,961.8914 1108.7728,955.9216 1113.925,955.9216 1113.925,961.8914"/>
    <polygon points="1099.1317,1004.8523 1102.3555,1004.5747 1101.8118,993.2792 1103.7439,990.2596 1106.3817,991.5862 1108.711,995.057 1104.2838,995.057 1104.2838,998.0342 1110.0993,998.0342 1112.7217,1004.8216 1115.6217,1003.68 1113.169,997.7411 1115.7505,994.956 1115.668,990.167 1118.1824,991.4936 1119.1388,1002.446 1122.0697,1002.2608 1121.0671,992.8819 1124.0905,994.1468 1124.9544,991.1388 1120.8665,989.627 1121.0979,982.9631 1118.0282,982.9631 1117.9358,988.177 1108.9271,981.5439 1106.9371,984.0275 1112.9452,989.2278 1113.5173,993.0272 1111.9043,994.9335 1106.3635,988.0723 1103.5005,987.4199 1100.8044,988.5511 1098.9221,993.6075"/>
    <polygon points="1063.9021,609.6449 1066.2999,609.6449 1066.2999,599.7657 1070.9677,599.7657 1074.021,608.6698 1076.0512,607.1032 1072.966,597.272 1056.7526,596.9302 1048.5078,593.6112 1047.0371,595.8013 1051.4722,598.2338 1063.9021,599.7657 1063.9021,603.3625 1046.8453,603.3625 1046.8453,605.8563 1063.9021,605.8563"/>
    <polyline points="1069.1773,594.3306 1070.0885,591.9647 1065.1809,590.1423 1065.1809,587.9842 1070.0885,585.4265 1069.2093,583.2685 1065.1809,585.5224 1065.1809,581.0624 1062.7831,581.0624 1062.7831,587.5207 1059.8417,587.5207 1059.8417,581.9576 1057.4598,581.9576 1057.4598,585.9541 1051.689,580.5189 1049.7867,582.3413 1055.2857,587.5207 1046.8453,587.5207 1046.8453,590.0144 1055.4296,590.0144 1051.0016,593.835 1052.6801,595.6734 1057.1561,591.3093 1056.1809,590.0144 1057.4598,590.0144 1057.4598,595.3697 1059.8417,595.3697 1059.8417,590.0144 1062.7831,590.0144 1062.7831,596.1689 1065.1809,596.1689 1065.1809,592.6521 1070.2804,595.8972 1072.6782,595.8972 1072.6782,590.1104 1075.8913,590.1104 1075.8913,587.5207 1072.6782,587.5207 1072.6782,581.4301 1070.2804,581.4301 1070.2804,595.8972"/>
    <polygon points="1056.085,641.5045 1058.4669,641.5045 1058.4669,630.2026 1063.8061,630.2026 1063.8061,638.5631 1066.188,638.5631 1066.188,630.2026 1070.4562,630.2026 1070.4562,640.1617 1072.8381,640.1617 1072.8381,621.8261 1075.3958,622.4495 1076.4029,620.3554 1070.3019,618.0288 1065.5326,614.2968 1063.8701,616.3589 1070.4562,620.8829 1070.4562,627.6289 1066.188,627.6289 1066.188,618.9486 1058.4669,618.9486 1058.4669,614.8563 1056.085,614.8563 1056.085,627.6289 1046.6535,627.6289 1046.6535,630.2026 1056.085,630.2026"/>
    <polygon points="1058.4669,627.6289 1058.4669,621.4424 1063.8061,621.4424 1063.8061,627.6289"/>
    <polyline points="1050.8097,678.9271 1048.6197,680.2379 1049.3398,682.7084 1055.1898,692.419 1046.7813,692.419 1046.7813,694.8968 1055.0939,694.8968 1049.379,704.4672 1048.6836,707.1419 1050.8417,708.3568 1055.4616,698.046 1055.4616,706.9501 1057.8434,706.9501 1057.8434,694.8968 1059.7777,694.8968 1059.7777,692.4191 1057.8434,692.4191 1057.8434,680.2379 1055.4616,680.2379 1055.3976,689.3018 1048.5877,675.7779 1049.1329,674.7433 1053.33,670.0482 1059.4101,667.3374 1059.4101,674.6429 1061.8079,674.6429 1061.8079,672.0212 1070.712,672.0212 1070.712,665.3392 1076.275,665.3392 1076.275,662.8454 1070.712,662.8454 1070.712,657.1545 1068.3301,657.1545 1068.3301,662.8134 1061.8079,662.4937 1061.8079,655.3481 1059.4101,655.3481 1059.4101,661.9662 1057.6007,661.4381 1052.8742,659.0326 1048.7156,653.9414 1046.6854,655.7478 1050.035,659.9008 1059.49,664.7158 1054.1021,666.611 1049.5629,669.8676 1046.4776,674.0514 1048.5877,675.7779"/>
    <polygon points="1061.8079,669.4316 1061.8079,665.0834 1068.3301,665.3712 1068.3301,669.4316"/>
    <polygon points="1063.5024,658.0018 1069.9926,655.2202 1069.3692,653.3179 1075.8594,653.3179 1075.8594,650.9361 1046.6215,650.9361 1046.6215,653.3179 1068.6818,653.3179 1062.815,655.6519"/>
    <polygon points="1069.3052,650.6323 1070.0246,648.3464 1061.5841,645.8526 1060.625,648.0586"/>
    <polyline points="1062.6232,695.856 1062.6232,691.6997 1065.7724,691.6997 1065.7724,695.856 1062.6232,695.856 1060.2093,699.0211 1060.6569,704.8559 1058.5628,705.1437 1059.0264,707.2058 1064.9571,706.0069 1064.3337,703.9128 1062.815,704.3604 1062.6552,702.49 1070.3443,706.6943 1071.4633,704.5522 1067.9944,703.1135 1068.6498,702.0424 1073.4935,704.4882 1074.5166,702.2982 1070.4493,700.5221 1070.2164,699.4208 1068.0263,698.4776 1065.8683,701.8826 1062.3994,698.5735 1060.2093,699.0211 1060.2413,698.2059 1073.2697,698.2058 1073.2697,694.9607 1075.8594,696.2395 1076.6107,694.0175 1073.2697,692.387 1073.2697,689.3337 1060.2413,689.3018 1060.2413,698.2059"/>
    <polygon points="1068.1542,695.856 1068.1542,691.6997 1070.8718,691.6997 1070.8718,695.856"/>
    <polygon points="1059.0903,689.2059 1064.925,687.7672 1064.3335,685.737 1062.687,686.2326 1062.4952,684.3303 1070.2483,688.6784 1071.3673,686.5843 1067.8984,685.0177 1068.5218,684.0585 1073.3975,686.4884 1074.4046,684.2983 1070.1208,682.3528 1070.4561,681.0212 1068.1541,679.9662 1065.8042,683.7708 1062.4952,681.5168 1062.4633,680.3019 1060.0654,680.6535 1060.529,686.7121 1058.5308,686.9519"/>
  </g>
</svg>
