<?xml version="1.0" encoding="utf-8" ?>
<svg xmlns="http://www.w3.org/2000/svg" xmlns:cc="http://creativecommons.org/ns#" xmlns:dc="http://purl.org/dc/elements/1.1/" xmlns:ev="http://www.w3.org/2001/xml-events" xmlns:inkscape="http://www.inkscape.org/namespaces/inkscape" xmlns:rdf="http://www.w3.org/1999/02/22-rdf-syntax-ns#" xmlns:sodipodi="http://sodipodi.sourceforge.net/DTD/sodipodi-0.dtd" xmlns:xlink="http://www.w3.org/1999/xlink" baseProfile="tiny" height="27.94cm" version="1.2" viewBox="0 0 1632.0 1056.0" width="43.18cm">
  <metadata>
    <rdf:RDF>
      <cc:Work>
        <dc:format>image/svg+xml</dc:format>
        <dc:source>vpype read /Users/cj/Documents/Projects/greeting-cards-2021/outside/11x17/individual/card-outside-with-border.svg pagesize 5.5inx8.5in ldelete 1 splitall linemerge --tolerance 1.2mm linesimplify --tolerance 0.2mm rotate 270 layout -l -h left -v bottom 11inx17in ldelete 3 write /Users/cj/Documents/Projects/greeting-cards-2021/outside/11x17/individual/outside-11x17-one-per-page-11x17-layer2-left-bottom.svg
</dc:source>
        <dc:date>2022-02-09T17:33:36.578322</dc:date>
      </cc:Work>
    </rdf:RDF>
  </metadata>
  <defs/>
  <g fill="none" id="layer2" inkscape:groupmode="layer" inkscape:label="2" stroke="#00f" style="display:inline">
    <polyline points="195.2497,591.553 207.8707,591.553 207.8707,589.7609 207.8707,592.1631 195.2497,592.1631 195.2497,593.9552 195.2497,589.7609 198.2619,586.7486 195.8502,584.9565 195.2497,581.9442 198.2619,578.932 203.0663,578.3409 206.0595,579.542 207.8707,581.9442 206.0595,586.1385 207.8707,586.7486 204.2484,586.7486 206.0595,586.1385"/>
    <polyline points="195.2497,581.9442 197.0513,578.932 200.0541,577.7499 206.0595,578.932 207.8707,581.9442"/>
    <polyline points="203.6574,596.3574 201.8462,598.1686 195.2497,598.7596 203.0663,598.1686 203.6574,595.1754 201.8462,592.1631"/>
    <line x1="195.2497" x2="195.2497" y1="600.5708" y2="596.3574"/>
    <polyline points="207.126,607.5698 210.2066,610.536 210.5401,609.7605 203.6574,604.7651 195.8502,605.3752 195.2497,608.3875 197.0513,611.3807 195.2497,611.3807 195.2497,613.7829 195.2497,611.9717 203.6574,611.9717 203.6574,609.5695 203.6574,611.3807 195.2497,611.3807 195.8502,605.9853 203.6574,605.3752 203.6574,602.973"/>
    <polyline points="195.2497,620.3794 197.0513,617.3862 198.853,616.7952 203.0663,618.5873 203.6574,620.3794 201.8462,624.0018 200.6641,624.0018 201.2552,624.5928 203.6574,622.1906 203.0663,619.1974 200.0541,617.3862 197.0513,617.9772 195.2497,620.3794 197.0513,624.5928"/>
    <polyline points="207.8722,632.0981 207.8722,634.5003 197.0527,638.1036 195.2511,635.7014 195.2511,632.0981 195.2511,633.8903 207.8722,633.8903 195.2511,638.1036 207.8722,642.317 207.8722,644.7193 203.6574,646.2229 203.6574,648.6251 197.0513,648.6251 195.2497,650.4172 195.2497,654.6305 203.6574,654.6305 203.6172,658.3124 205.9308,657.6364 206.6063,656.9609 204.2927,657.6368 203.6574,652.8194 203.6574,655.2216 195.2497,655.2216 195.2497,657.0327 195.2497,654.6305 197.0513,654.6305 195.2497,651.6373 195.8502,648.625 203.6574,648.015"/>
    <polyline points="203.6574,666.0315 201.8462,667.8426 195.2497,668.4337 203.0663,667.8426 203.6574,664.8494 201.8462,661.8371 203.6574,659.435 203.6574,661.8372 195.2497,661.2271 203.6574,661.2271"/>
    <polyline points="193.448,681.0547 195.2497,673.8481 192.8475,672.647 191.0554,675.0492 191.6464,680.4637 194.6491,680.4637 195.2497,675.0492 193.448,672.647 195.2497,670.2448 195.2497,659.4349"/>
    <polyline points="203.0663,679.8536 203.6574,681.0547 202.4563,679.2435 198.2619,678.6525 203.0663,678.6525 203.6574,676.2503 202.4563,674.4392 200.0541,673.8481 197.6519,676.2503 198.2619,678.6525 200.0541,679.8536 203.0663,678.6525 203.0663,675.0492 198.2619,675.0492 198.2619,673.8481 196.4508,673.2571 195.2497,673.8481 195.2497,675.6593 196.4508,673.2571"/>
    <polyline points="195.2497,704.683 197.0513,702.8718 200.0541,704.683 202.4563,703.4629 201.8462,702.8718 203.6574,704.683 202.4563,708.8773 197.0513,709.4874 195.2497,711.2795 197.0513,708.8773 195.2497,706.4751 195.8502,702.8718 199.444,702.8718 200.6641,708.2672 202.4563,708.8773 197.0513,708.8773"/>
    <polyline points="203.6574,726.8938 201.8462,728.705 195.2497,729.296 203.0663,728.705 203.6574,725.6927 201.8462,722.6805 203.6574,720.2782 201.8462,722.0894 195.2497,722.0894 203.0663,722.0894 203.6574,719.0962 201.8462,716.0839 203.6574,713.6818 203.6574,716.084 195.2497,715.4738 203.6574,715.4738"/>
    <line x1="195.2497" x2="195.2497" y1="731.0976" y2="713.6817"/>
    <polyline points="207.3937,756.7779 210.8079,758.9686 210.4743,759.7441 207.3937,756.7779 203.6574,756.331 201.8462,753.3378 198.853,752.7468 195.8502,754.5389 195.2497,757.5512 197.0513,760.5444 201.8462,760.5444 203.6574,757.5512 201.8462,753.9288 198.853,753.3378 195.8502,755.149 195.8502,758.7332 200.0541,760.5444 203.6574,757.5512 204.129,761.2585 206.3265,760.4336 203.4562,761.9358 203.0689,758.7331"/>
    <polyline points="203.6574,764.1477 203.6574,766.5499 195.2497,766.5499 207.8707,765.9398"/>
    <line x1="195.2497" x2="195.2497" y1="768.342" y2="764.1477"/>
    <polygon points="210.703,649.6666 210.3695,648.8835 207.2889,651.8787"/>
    <polyline points="196.4522,698.0742 207.8722,690.8676 195.2511,698.0742 207.8722,698.0742 207.8722,696.2821 208.6963,703.0237 206.8852,704.2248 208.1053,703.6337 206.2941,706.627 208.6963,709.0292 206.2941,706.627"/>
    <polyline points="207.8722,642.9081 195.2511,642.9081 207.8722,642.317"/>
    <line x1="195.2511" x2="195.2511" y1="644.7193" y2="640.5059"/>
    <polyline points="207.8722,737.6128 207.8722,740.015 195.2511,743.6183 207.8722,739.4049 195.2511,739.4049 195.2511,737.6128 195.2511,743.6183 207.8722,747.8317 195.2511,748.4227 207.8722,747.8317 207.8722,750.2339"/>
    <line x1="195.2511" x2="195.2511" y1="750.2339" y2="746.0205"/>
    <polyline points="207.8722,688.4654 207.8722,690.8676 195.2511,690.2576 195.2511,688.4654 195.2511,692.0687"/>
    <polyline points="154.4544,828.0582 153.0567,827.5087 153.3862,828.8545 152.5972,828.594 151.1364,824.6826 151.9545,824.0434 155.068,825.9948 154.4544,828.0583 163.5596,839.6059 161.6925,840.4616 163.9082,843.3437 165.5041,842.729 166.7603,841.213 164.5786,838.3532 163.5596,839.6059 167.408,841.1008 166.201,843.0303 163.6241,843.983 151.7273,828.518 149.7501,821.9799 155.5111,825.6807 167.408,841.1008"/>
    <polyline points="346.1118,984.4325 349.6649,985.8577 352.5896,990.7146 354.535,989.5724 358.5327,990.1435 358.3654,999.685 354.535,999.8522 352.5896,998.71 349.9376,1003.2854 346.9068,1004.9306 330.5488,1004.9921 328.0071,1004.0779 326.5722,1001.403 326.7318,987.2421 330.1402,984.4536 346.1118,984.4325 345.9685,1003.8499 348.9151,1002.7029 351.8428,997.8454 353.9639,997.5678 353.9639,991.8568 351.8427,991.579 347.272,985.7465 332.2621,985.5747 332.2621,1003.8499 344.8263,1003.8499 344.8263,985.5747 335.4073,990.9196 340.8476,987.2829 340.8476,990.6214 335.4073,987.2829 340.8476,990.9196 340.8476,992.738 335.4073,996.3748 340.8476,992.738 340.8476,996.0766 335.4073,992.738 340.8476,996.3748 340.8476,998.4915 335.4073,1001.83 340.8476,998.1932 340.8476,1001.5317 335.4073,998.1932 340.8476,1001.5317"/>
    <polygon points="357.3905,990.7146 355.1061,990.7146 355.1061,998.71 357.3905,998.71"/>
    <polygon points="327.6933,1000.9944 328.6763,1003.1485 331.1199,1003.8499 331.1199,985.5747 328.9947,986.0358 327.7247,988.0085"/>
    <polyline points="357.92,813.8727 349.3942,807.8591 341.4955,805.9472 333.4756,807.9322 324.8497,813.8727"/>
    <polyline points="336.0733,821.1427 341.0219,818.796 345.8656,821.1427 344.7575,820.2276 346.3753,818.2096 340.4553,821.0329 334.5945,818.2096 330.423,817.8503 338.9749,813.0056 345.1735,813.6069 351.5398,817.8503"/>
    <polyline points="324.7159,801.3473 357.8201,801.3473 324.7159,801.3473 325.5789,803.3017 331.3468,807.6982 339.6903,810.4994 347.4081,808.9199 355.7075,803.3017"/>
    <polyline points="331.2136,810.8343 336.2629,814.4537 341.2755,815.7789 346.4747,814.5383 351.8511,810.8343"/>
    <polyline points="357.92,931.8727 349.3942,925.8592 341.4955,923.9473 333.4756,925.9323 324.8497,931.8727"/>
    <polyline points="336.0733,939.1428 341.0219,936.796 345.8656,939.1428 344.7575,938.2276 346.3753,936.2097 340.4553,939.033 334.5945,936.2097 330.423,935.8504 338.9749,931.0057 345.1735,931.607 351.5398,935.8504"/>
    <polyline points="324.7159,919.3474 357.8201,919.3474 324.7159,919.3474 325.5789,921.3018 331.3468,925.6983 339.6903,928.4994 347.4081,926.92 355.7075,921.3018"/>
    <polyline points="331.2136,928.8344 336.2629,932.4538 341.2755,933.779 346.4747,932.5384 351.8511,928.8344"/>
    <polygon points="328.6446,977.0865 327.8559,978.3574 326.4313,976.6166 327.2453,971.6101 329.629,969.6894 333.9201,968.7931 329.1109,965.0892 326.6327,960.3962 326.5942,955.6682 329.1963,951.2106 334.6929,947.6686 341.8442,946.3152 348.4815,947.5446 353.9329,951.0776 357.5639,956.4221 358.2231,961.8715 355.508,966.9217 350.1678,970.4461 356.5998,971.6562 357.3827,975.467 342.436,972.3345 331.7512,973.3587 329.5519,974.6593"/>
    <polygon points="334.4283,965.209 341.6793,968.2026 348.0723,966.7167 354.6252,962.3102 355.9341,959.9382 355.6767,957.4179 352.8384,953.8808 347.4532,951.0794 341.9039,950.3945 336.1737,951.5009 331.0264,954.6592 328.7376,958.7032 329.7967,961.9078"/>
    <polygon points="349.5557,881.909 345.7969,884.3779 340.8424,885.274 331.4853,882.3805 327.6539,885.4123 335.0034,888.0145 343.2982,888.2413 337.9983,893.9671 326.8241,893.0241 326.8878,898.0091 335.1889,896.6615 327.1434,905.5541 329.1867,907.8442 334.0184,905.778 340.632,905.3711 349.875,908.8549 352.2375,906.3623 344.288,902.7375 333.9757,902.5897 339.5168,896.5498 347.2074,899.4437 353.8977,903.8698 357.7929,900.2319 344.7669,895.4492 357.7289,890.3293 353.9617,886.6246 342.7235,893.0242 352.2375,884.9403"/>
    <polyline points="341.989,845.1242 341.989,836.2171 335.5377,837.0235 335.5377,844.2812 341.989,845.1242 343.4932,846.7914 333.7444,845.6401 334.0444,835.4378 343.5014,834.5527 344.2976,840.8571 343.4932,846.7914 345.7278,848.4598 346.9633,842.7498 353.9386,842.3751 353.9386,838.9662 347.2904,838.8644 345.6393,832.4861 344.4052,831.5968 327.496,833.74 327.496,847.5647 344.0051,849.7061 345.7278,848.4598 347.6339,848.8264 346.3984,850.8373 344.1683,851.6085 327.22,849.4829 325.0087,846.9942 325.6131,832.8838 327.6203,831.7451 344.5652,829.7261 347.3388,831.7307 348.5136,837.0601 359.6703,837.538 359.3255,844.1481 348.5503,844.2812 347.6339,848.8264"/>
    <polygon points="357.8973,842.3385 357.8973,838.9295 355.8813,838.9295 355.8813,842.3385"/>
    <polygon points="331.2124,844.5744 330.2594,845.5641 329.3064,844.6111 329.3064,836.7302 330.2594,835.7772 331.2124,836.7302"/>
    <polyline points="342.0334,773.2138 331.1177,773.7682 342.5878,773.7682 340.4047,771.0306"/>
    <polyline points="331.1177,780.6642 342.0334,780.6642 340.4047,778.481 342.5878,781.2186 331.1177,781.2186 331.1177,783.4017 331.1177,771.0306"/>
    <polyline points="352.6506,785.8479 352.6506,784.0431 350.8684,783.3415 352.6506,782.2383 352.6506,771.4092 350.8684,770.7076 352.6506,769.6043 352.5594,766.9966 350.6064,764.5484 347.2361,764.1898 347.2361,789.4576 350.6064,789.099 352.6506,785.8479 354.4555,785.8479 353.3755,789.0928 349.041,791.2625 330.6062,791.2487 327.4467,789.94 325.5779,785.8479 325.5917,767.4132 326.9005,764.2537 330.9925,762.3849 349.4272,762.3987 352.2858,763.4649 354.1141,765.9073 354.4555,769.6043 356.2377,770.3059 354.4555,771.4092 354.4555,782.2383 356.2377,782.9399 354.4555,784.0431 354.4555,785.8479"/>
    <polygon points="330.9925,789.4576 345.4313,789.4576 345.4313,764.1898 330.5885,764.2129 327.9373,765.8799 327.4059,786.252 328.743,788.6688"/>
    <polygon points="349.5557,701.9089 345.7969,704.3778 340.8424,705.2739 331.4853,702.3804 327.6539,705.4122 335.0034,708.0144 343.2982,708.2412 337.9983,713.9669 326.8241,713.024 326.8878,718.0089 335.1889,716.6614 327.1434,725.554 329.1867,727.8441 334.0184,725.7778 340.632,725.371 349.875,728.8548 352.2375,726.3622 344.288,722.7374 333.9757,722.5896 339.5168,716.5497 347.2074,719.4436 353.8977,723.8696 357.7929,720.2318 344.7669,715.4491 357.7289,710.3292 353.9617,706.6245 342.7235,713.0241 352.2375,704.9402"/>
    <polygon points="342.0368,693.8602 335.1247,692.4924 332.2084,686.8253 335.145,691.2315 338.2754,692.8554 342.1994,692.783 345.7819,690.4861 349.0603,684.9346 347.8704,683.5188 349.6015,684.0874 353.5094,680.4116 354.9167,677.3332 354.6049,673.2212 352.4071,670.1401 348.4831,668.7186 344.462,669.6725 344.2169,668.6819 350.6151,668.0865 355.2422,672.1453 355.5874,678.6264 346.9369,690.6995"/>
    <polyline points="337.0093,681.9972 335.1648,681.6454 336.6574,681.148 340.8196,683.6537 343.0789,677.4558 343.0954,674.9315 341.8825,674.434 343.0361,673.9366 341.9613,668.1603 338.3898,663.8061 333.8975,663.4871 330.3087,666.3451 329.5402,667.7188 330.686,668.2162 329.1478,668.7091 328.4856,671.6667 328.4289,678.2526 329.9966,682.4896 332.6676,684.8396 336.3507,685.6175 340.8196,683.6537 341.5627,684.3156 337.57,686.4744 332.3985,685.8099 328.9605,682.6992 327.3493,677.6613 328.7089,667.151 331.2274,663.8474 334.6651,662.3025 340.0535,663.6612 343.1586,668.5703 344.0039,678.2597 341.5627,684.3156"/>
    <polygon points="337.1551,666.7227 335.1648,666.7227"/>
    <polygon points="336.1598,674.1841 334.1696,674.1841"/>
    <polygon points="349.5997,673.9349 351.254,674.7095"/>
    <polygon points="345.1167,678.9091 346.7756,679.6837"/>
    <polygon points="338.1525,688.8576 339.8091,689.6322"/>
    <polygon points="327.1876,654.0289 326.3989,655.2998 324.9744,653.559 325.7884,648.5525 328.1721,646.6318 332.4631,645.7355 327.6539,642.0316 325.1757,637.3386 325.1372,632.6105 327.7394,628.1529 333.236,624.611 340.3873,623.2576 347.0245,624.4869 352.4759,628.02 356.107,633.3645 356.7661,638.8139 354.0511,643.8641 348.7108,647.3884 355.1428,648.5986 355.9258,652.4094 340.979,649.2769 330.2942,650.3011 328.0949,651.6017"/>
    <polygon points="332.9714,642.1514 340.2223,645.1449 346.6153,643.6591 353.1682,639.2526 354.4771,636.8806 354.2198,634.3603 351.3814,630.8232 345.9963,628.0218 340.447,627.3369 334.7168,628.4433 329.5695,631.6015 327.2807,635.6456 328.3397,638.8501"/>
    <polyline points="328.8932,582.4743 329.6788,584.1192 332.1094,584.986 334.54,584.1192 335.3255,582.4743 332.5671,579.9882 330.0033,580.5761 329.2592,582.4743 326.2767,582.4743 326.3403,581.0201 326.3403,617.0495 325.508,617.6662 325.0558,581.0866 326.3403,581.0201"/>
    <polyline points="333.3681,597.143 325.7003,597.143 325.7003,595.8582 333.3681,595.8582 333.3714,600.9925 325.7003,600.9925 325.7003,602.2773 333.3714,602.2773 333.3714,600.9925 334.6895,601.0017 334.2069,593.2721 333.404,593.9287 333.5376,604.6179 334.6888,604.2067 334.6895,601.0017 337.0514,600.2588 337.8625,596.7465 340.781,597.2148 340.4382,600.6016 337.0514,600.2588 337.8625,602.7446 340.781,603.2129 340.9065,605.7886 337.3942,606.5997 336.9259,603.6812 337.8625,602.7446 342.0599,603.6812 345.5721,602.8701 345.915,606.2569 342.1854,606.2569 342.5282,596.872 346.0404,597.6831 345.5721,600.6016 342.9965,600.7271 346.9259,599.7905 347.3942,596.872 350.781,597.2148 350.4382,600.6016 346.9259,599.7905 347.8625,602.7446 350.781,603.2129 350.4382,606.5997 347.0514,606.2569 347.8625,602.7446"/>
    <polyline points="326.9728,588.47 352.9779,588.47 356.0042,591.2804 353.6943,592.0321 353.6954,594.4613 356.006,595.2108 357.4329,593.2449 356.0042,591.2804 359.3192,589.838 359.3192,607.3335 352.8946,608.0595 352.8946,606.6019 358.0336,606.6019 358.0336,590.5697 352.8946,590.5697 352.8946,589.1121 359.3192,589.838"/>
    <polyline points="346.0404,591.6812 342.5282,590.8701 342.1854,594.2569 345.5721,594.5997 346.0404,591.6812 349.9699,590.7446 347.0514,591.2129 346.9259,593.7886 350.4382,594.5997 350.4382,590.8701 352.9779,588.47 352.9779,608.6388 326.9728,608.6388"/>
    <polygon points="340.9065,591.6812 337.3942,590.8701 337.0514,594.2569 340.4382,594.5997"/>
    <polyline points="328.8932,615.718 329.6788,617.3628 332.1094,618.2297 334.54,617.3628 335.3255,615.718 334.54,614.0732 332.1094,613.2063 329.6788,614.0732 329.2592,615.718 326.2767,615.718"/>
    <polyline points="353.6943,602.5203 353.6954,604.9495 356.006,605.699 357.4329,603.7331 356.0042,601.7686 353.6943,602.5203 353.6954,599.7054 356.006,600.4549 357.4329,598.489 356.0042,596.5245 353.6943,597.2762 353.6954,599.7054"/>
    <polygon points="78.7966,719.9072 77.6398,719.7006 80.5964,723.985 84.4848,734.9577 88.6291,736.4786 82.6909,722.26"/>
    <polygon points="57.817,584.5332 56.6894,584.8401 56.6894,586.2185 69.5585,591.6318 57.4741,594.6079 56.6892,597.6942 63.196,595.0063 74.6542,592.713 74.4744,590.6068 61.509,586.2787 75.0528,583.0809 80.1262,596.5425 84.2615,597.7217 80.3893,591.2559 78.0047,580.0956"/>
    <polygon points="57.0354,617.6389 56.6892,619.9283 61.4608,617.332 75.9204,612.8238 77.5109,609.6479"/>
    <polygon points="56.9696,642.5331 56.6892,644.09 75.9204,635.7609 79.287,649.3505 81.25,649.3505 84.7406,639.2971 86.7522,649.6777 89.9594,651.104 85.3333,634.4458 83.7149,634.4458 80.6206,643.8887 77.4369,632.1078 58.2796,640.3347"/>
    <polygon points="56.9696,674.8504 56.6892,676.4073 75.9204,668.0782 79.287,681.6678 81.25,681.6678 84.7406,671.6144 86.7522,681.9949 89.9594,683.4213 85.3333,666.7631 83.7149,666.7631 80.6206,676.2059 77.4369,664.4251 58.2796,672.652"/>
    <polygon points="57.0354,713.6943 56.6892,715.9837 61.4608,713.3874 75.9204,708.8792 77.5109,705.7033"/>
    <polygon points="56.9725,760.041 56.6892,761.5924 67.9676,764.4701 57.9905,766.4019 56.6892,766.8907 56.6892,768.5924 70.0276,771.2776 73.7514,773.4253 72.8488,770.7011 71.2933,769.8891 62.705,768.0151 74.0406,765.3956 74.0406,763.3982 62.6794,760.7817 76.278,758.9666 79.5824,773.657 82.1858,773.4808 88.5633,756.6428 84.7995,757.6993 81.1815,768.3935 78.6033,755.5261"/>
    <polygon points="78.4559,789.0979 77.2992,788.8914 80.2558,793.1757 84.1442,804.1485 88.2884,805.6694 82.3503,791.4508"/>
    <polygon points="57.0354,830.2171 56.6892,832.5065 61.4608,829.9102 75.9204,825.402 77.5109,822.2261"/>
    <polygon points="57.116,842.4152 56.7549,843.6728 68.7934,848.2849 57.577,851.4385 56.6892,854.4276 61.7597,852.1923 73.599,849.7783 73.3603,847.7179 61.5343,843.7447 76.2424,840.5401 77.8713,838.2011"/>
    <polygon points="78.7966,891.7052 77.6398,891.4986 80.5964,895.7829 84.4848,906.7557 88.6291,908.2766 82.6909,894.058"/>
    <polygon points="57.0354,883.4712 56.6892,885.7605 61.4608,883.1642 75.9204,878.656 77.5109,875.4801"/>
    <polygon points="78.7966,924.0437 77.6398,923.837 80.5964,928.1214 84.4848,939.0942 88.6291,940.6154 82.6909,926.3967"/>
    <polygon points="57.0354,962.2961 56.6892,964.5854 61.4608,961.9891 75.9204,957.4809 77.5109,954.305"/>
    <polygon points="57.3335,983.5908 56.6892,985.0838 57.6919,985.6621 69.6768,990.675 57.5624,994.0917 56.9033,997.1984 63.8194,994.4187 74.4861,992.2229 74.3083,989.9024 61.4774,985.4017 75.1677,982.0762 78.5368,995.9357 80.7297,995.9357 84.049,986.086 86.2545,996.9223 89.0426,997.9133 84.4402,980.1158 82.9472,980.3075 79.8948,989.8469 78.0887,978.8847"/>
    <polyline points="155.4177,584.4097 161.0136,589.9327 155.4177,595.4556 156.5118,596.5253 163.1915,589.9327 156.5118,583.3298 155.4177,584.4097 152.3957,582.0648 164.7338,582.0648 164.7338,597.8006 152.3957,597.8006 152.3957,582.0648 150.8534,580.5426 150.8534,599.3227 166.2761,599.3227 166.2761,580.5426 150.8534,580.5426"/>
    <polyline points="150.8534,602.8813 150.8534,618.1028 166.2761,618.1028 166.2761,602.8813 150.8534,602.8813 152.9063,604.9074 164.2232,604.9074 164.2232,616.0767 152.9063,616.0767 152.9063,604.9074"/>
    <polygon points="160.5238,645.193 165.1193,647.5688 150.8534,648.2373 150.8534,649.7698 160.1591,649.7698 165.1193,652.1559 150.2698,652.9684 149.1131,649.7698 147.7897,649.7698 148.9464,653.2666 146.7372,654.4185 146.7372,656.2081 149.8113,654.6345 153.1587,658.2407 157.2444,659.3787 163.0143,656.8972 159.7735,654.3362 166.5574,653.1021 166.2761,651.6313 163.0144,649.7698 166.5574,648.4739 166.2761,646.9826 163.2228,645.193 166.2761,644.0206 166.2761,642.4161 162.8866,643.6294 150.8534,643.6709 150.8534,645.193"/>
    <polygon points="151.2598,654.3362 157.3768,654.3362 160.4022,656.5756 155.6539,657.6583"/>
    <polyline points="150.8534,675.2761 152.9063,677.3022 166.2761,677.3022 166.2761,664.1068 164.2232,662.0807 150.8534,662.0807 150.8534,675.2761 151.885,674.2579 151.8746,663.0991 163.1915,663.0886 163.1915,674.2579 151.885,674.2579"/>
    <polyline points="157.7156,683.4036 160.8006,681.8909 163.0581,683.7879 162.8877,685.9773 160.7768,687.5324 157.9549,686.3755 156.8241,682.8748 156.3944,685.0806 159.526,688.5127 162.0723,688.2095 163.9627,686.25 164.6554,692.8101 162.5246,700.258 164.2023,700.258 166.2825,692.0747 164.5775,683.936 161.3515,680.9824 158.7862,681.1205 156.8241,682.8748 152.9271,680.8402 151.1043,686.5101 151.0433,692.3204 152.8109,697.5798 155.7819,700.1153 159.6068,699.1266 160.6808,695.6375 157.2211,692.5313 154.6778,693.0894 153.1668,694.8379 152.484,688.2881 154.6048,680.8402 152.9271,680.8402"/>
    <polygon points="156.814,693.5317 158.8669,694.3648 159.7214,696.4012 158.8669,698.4067 156.7932,699.2398 154.7612,698.417 153.9379,696.4114 154.782,694.375"/>
    <polygon points="160.5238,706.5728 165.1193,708.9486 150.8534,709.6172 150.8534,711.1496 160.1591,711.1496 165.1193,713.5357 150.2698,714.3482 149.1131,711.1496 147.7897,711.1496 148.9464,714.6464 146.7372,715.7983 146.7372,717.5879 149.8113,716.0143 153.1587,719.5125 157.2444,720.6487 163.0143,718.277 159.7735,715.716 166.5574,714.4819 166.2761,713.0111 163.0144,711.1496 166.5574,709.8537 166.2761,708.3624 163.2228,706.5728 166.2761,705.4004 166.2761,703.7959 162.8866,705.0092 150.8534,705.0507 150.8534,706.5728"/>
    <polygon points="151.2598,715.716 157.3768,715.716 160.4022,717.9551 155.6539,718.9283"/>
    <polyline points="153.4809,733.3351 157.0593,731.9466 158.7135,734.4111 159.0858,738.1884 154.2675,735.1126 151.7525,729.7907 152.9667,725.9625 157.0152,725.5968 159.3254,728.1093 151.6766,732.2746 148.1238,737.2859 147.5921,741.8735 149.332,745.8094 153.3912,747.936 156.5535,746.3957 154.98,744.7398 153.7206,746.1451 151.3319,746.2102 148.8292,743.845 149.1236,739.0205 152.6874,733.9922 159.0858,739.7414 161.1797,746.3749 163.063,747.3524 165.1703,746.6942 163.9835,744.9147 162.8864,745.9514 161.1528,745.4087 160.2257,734.6437 157.0537,731.1947 159.8152,730.0325 162.0234,733.7479 164.9651,734.3879 166.6333,732.3112 165.3278,728.7881 163.1375,727.525 159.9298,727.9344 157.2108,723.954 153.3083,723.255 150.5244,726.6869 151.6766,732.2746"/>
    <polygon points="160.4092,729.8063 164.5541,729.4451 165.8928,731.7661 163.0816,732.6495"/>
    <polygon points="150.8534,751.5278 150.8534,753.05 160.5134,753.05 165.1506,755.4258 150.8534,756.0943 150.8534,757.6164 160.1695,757.6164 165.1506,759.9922 149.6275,761.2082 148.2951,762.7434 148.0294,765.8648 146.5288,765.8648 148.6546,768.2715 150.8534,765.8648 149.3111,765.8648 150.4392,762.4529 163.4043,762.1424 166.5783,760.959 166.2761,759.4574 163.0769,757.6164 166.5783,756.3103 166.2761,754.8395 163.2436,753.05 166.2761,751.8775 166.2761,750.2422 162.7446,751.4921"/>
    <polygon points="152.3957,771.8403 152.3957,788.2035 153.9379,788.2035 153.9379,771.8403"/>
    <polygon points="158.4605,778.3095 160.2344,776.8467 162.647,776.9107 164.706,780.4727 161.8157,783.3625 157.0225,781.7343 157.0225,788.2035 158.5647,788.2035 158.5647,783.6782 162.9364,784.6803 166.219,780.8029 165.9192,778.1681 163.9421,775.8473 161.0471,775.161 158.5647,776.3759 158.5647,771.8403 157.0225,771.8403 157.0225,778.3095"/>
    <polygon points="158.3146,796.6165 158.3146,799.7636 152.0981,801.7587 150.4678,802.9725 150.4678,804.6283 154.3928,802.0424 158.3146,801.2755 158.3146,804.5152 159.4713,804.5152 159.4713,801.2755 166.6616,804.6283 166.6616,803.0548 165.1198,801.8234 159.4713,799.7636 159.4713,796.6165 165.1198,794.5567 166.6616,793.3253 166.6616,791.7517 159.4713,795.1046 159.4713,791.8649 158.3146,791.8649 158.3146,795.1046 154.3928,794.3377 150.4678,791.7517 150.4678,793.4076 152.0981,794.6193"/>
    <polygon points="148.144,861.8737 149.134,860.9789 147.9304,858.1171 149.5189,856.6612 160.2437,860.5366 164.8156,860.0765 167.367,856.7868 166.9859,852.4234 163.774,849.8035 158.7314,850.7763 157.4479,846.485 153.0041,846.0571 150.8719,849.1951 152.3318,852.681 155.0676,853.5788 163.637,851.3382 165.8609,853.1599 166.109,856.3612 164.522,858.4947 161.6548,859.1696 148.9093,855.2228 146.5137,857.9986"/>
    <polygon points="154.9175,846.7447 156.9495,847.5572 157.7936,849.5216 156.9495,851.5169 154.8966,852.3294 152.8542,851.5066 152.0101,849.5422 152.8437,847.5469"/>
    <polygon points="150.8534,866.7178 150.8534,868.24 160.5134,868.24 165.1506,870.6158 150.8534,871.2843 150.8534,872.8064 160.1695,872.8064 165.1506,875.1822 149.6275,876.3983 148.2951,877.9334 148.0294,881.0549 146.5288,881.0549 148.6546,883.4615 150.8534,881.0549 149.3111,881.0549 150.4392,877.6429 163.4043,877.3324 166.5783,876.149 166.2761,874.6474 163.0769,872.8064 166.5783,871.5003 166.2761,870.0295 163.2436,868.24 166.2761,867.0675 166.2761,865.4322 162.7446,866.6821"/>
    <polygon points="158.3146,929.4141 158.3146,932.5612 152.0981,934.5563 150.4678,935.7701 150.4678,937.426 154.3928,934.84 158.3146,934.0731 158.3146,937.3128 159.4713,937.3128 159.4713,934.0731 166.6616,937.426 166.6616,935.8524 165.1198,934.621 159.4713,932.5612 159.4713,929.4141 165.1198,927.3543 166.6616,926.1229 166.6616,924.5494 159.4713,927.9022 159.4713,924.6625 158.3146,924.6625 158.3146,927.9022 154.3928,927.1353 150.4678,924.5494 150.4678,926.2052 152.0981,927.4169"/>
    <polygon points="153.198,950.5905 152.1351,951.2899 155.0946,955.7329 152.1351,956.9774 155.0946,961.3793 152.1351,962.6135 155.0946,967.0565 152.1351,968.2804 152.6666,969.4632 157.0225,967.6325 154.063,963.21 157.0225,961.9758 154.063,957.5534 157.0225,956.2986"/>
    <polyline points="160.517,945.0869 158.9767,942.5504 157.5173,942.3144 158.5647,947.0526 162.931,944.0083 158.5647,940.964 154.1984,944.0083 158.5647,947.0526 163.0665,955.7434 160.107,956.9776 163.0665,961.3795 160.107,962.6137 163.0665,967.067 160.107,968.2909 160.6385,969.4736 164.9943,967.6429 162.0348,963.2205 164.9943,961.9863 162.0348,957.5638 164.9943,956.3091 161.1699,950.601"/>
    <polygon points="150.8534,974.297 150.8534,975.8192 160.5134,975.8192 165.1506,978.195 150.8534,978.8635 150.8534,980.3857 160.1695,980.3857 165.1506,982.7614 149.6275,983.9775 148.2951,985.5126 148.0294,988.6341 146.5288,988.6341 148.6546,991.0407 150.8534,988.6341 149.3111,988.6341 150.4392,985.2221 163.4043,984.9117 166.5783,983.7282 166.2761,982.2266 163.0769,980.3857 166.5783,979.0795 166.2761,977.6087 163.2436,975.8192 166.2761,974.6467 166.2761,973.0114 162.7446,974.2613"/>
    <polyline points="164.1133,627.8081 165.472,630.4923 164.7907,631.8669 158.3981,622.9423 158.5647,621.6408 167.2973,630.2492 158.5647,638.8679 149.8426,630.2492 158.5647,621.6408 157.5414,624.771 162.1784,634.5857 160.8198,634.522 155.3223,625.978 154.4656,627.8067 159.1652,636.6942 156.863,636.053 152.4727,628.8746 151.2011,629.7959 151.5846,631.2736"/>
    <polyline points="165.8036,813.8179 164.2621,815.3297 158.5647,808.1663 167.2973,814.2549 158.5647,820.3435 149.8426,814.2549 158.5647,808.1663 161.9698,817.3493 160.5104,817.1133 156.2893,810.7512 155.286,812.3294 158.5899,818.7218 156.0346,817.5452 153.0996,813.0649 151.6867,813.7446 152.0534,815.1936"/>
    <polyline points="156.7664,888.8886 158.3067,891.4252 159.7661,891.6612 158.5647,887.0303 154.1984,890.0746 158.5647,893.1189 162.931,890.0746 158.5647,887.0303"/>
    <polyline points="165.8036,902.3085 164.2621,903.8203 158.5647,896.6569 167.2973,902.7456 158.5647,908.8342 149.8426,902.7456 158.5647,896.6569 161.9698,905.8399 160.5104,905.6039 156.2893,899.2418 155.286,900.82 158.5899,907.2124 156.0346,906.0358 153.0996,901.5555 151.6867,902.2353 152.0534,903.6842"/>
    <polyline points="157.4623,919.1977 156.4734,915.1519 159.6225,918.3823 160.9028,917.5426 158.5647,912.3721 154.1984,916.6815 158.5647,920.9805 162.931,916.6815 158.5647,912.3721"/>
    <polyline points="158.3376,995.7641 160.517,998.7325 158.794,999.9339 157.2356,996.9085 158.5647,994.6096 154.1984,997.6539 158.5647,1000.6982 162.931,997.6539 158.5647,994.6096"/>
    <polygon points="304.9296,580.1096 304.9296,636.2561 302.4101,636.2561 302.4101,631.6252 281.3749,631.6252 281.3749,629.1077 302.4101,629.1077 302.4101,621.8479 281.3749,621.8479 281.3749,619.3303 290.6893,619.3303 288.1771,616.5465 287.2265,612.6076 288.2705,608.3045 290.9482,605.2629 295.7245,603.3674 295.1962,607.1709 297.2163,609.3859 302.4101,606.9045 302.4101,597.9045 281.3749,597.9045 281.3749,595.3869 293.8729,595.3869 293.8729,588.6096 290.6327,587.7209 290.1394,586.3474 291.8554,583.258 295.1522,581.3694 296.3925,582.7385 296.3925,595.3869 302.4101,595.3869 302.4101,580.1096"/>
    <polygon points="302.4101,609.7932 299.4123,611.6058 296.097,611.7824 293.7627,610.0899 292.9667,606.8303 290.0813,610.4393 290.244,615.0334 294.8925,619.3303 302.4101,619.3303"/>
    <polygon points="304.9296,644.551 304.9296,704.2151 302.4101,704.2151 302.4101,699.5862 281.3749,699.5862 281.3749,697.0686 293.5038,697.0686 288.0956,689.5862 290.1522,687.9202 291.9843,688.8636 293.3729,688.0491 294.0007,685.5821 292.6961,683.2101 287.643,683.5627 282.6327,688.6604 280.8749,687.346 285.1522,682.4793 290.324,680.2217 293.8785,680.9243 296.2069,683.9378 295.6099,689.144 291.7987,690.6604 296.2616,697.0667 302.4101,697.0667 302.4101,674.6604 281.3749,674.6604 281.3749,672.1428 302.4101,672.1428 302.4101,664.885 281.3749,664.885 281.3749,662.3479 291.7636,662.3479 291.7636,653.5139 290.5409,650.2737 282.1151,659.0139 280.3553,657.3108 286.5612,650.4016 293.5038,645.8108 294.9472,647.6995 293.0225,649.4079 293.6698,651.3479 302.4101,651.8655 302.4101,644.551"/>
    <polygon points="302.4101,654.385 294.2811,654.385 294.2811,662.3479 302.4101,662.3479"/>
    <polygon points="304.9296,712.4749 304.9296,811.5628 302.41,811.5628 302.41,797.1566 296.41,797.1566 298.277,800.2401 298.0252,804.0483 295.7271,806.574 291.9901,807.3189 288.561,805.8597 286.0956,802.5628 288.0038,801.2855 290.6575,804.3002 294.1522,804.5824 295.8857,802.1996 294.7905,798.8793 292.6893,797.1566 281.3749,797.1566 281.3749,794.6195 289.1151,794.6195 286.8538,791.6218 286.8541,787.9373 289.0689,784.7124 292.7069,783.5823 295.9851,784.699 298.1747,787.7382 298.2935,790.951 296.6151,794.6195 302.4101,794.6195 302.4101,775.1937 293.0956,774.9905 290.8358,773.3421 290.5409,771.0823 282.1151,779.8226 280.3553,778.1195 286.5612,771.2102 293.5038,766.6195 294.9472,768.5101 293.0225,770.2175 293.6698,772.1566 302.4101,772.6761 302.4101,761.1019 281.3749,761.1019 281.3749,758.5843 302.4101,758.5843 302.4101,751.3245 281.3749,751.3245 281.3749,748.8069 288.8729,748.8069 287.2412,745.265 287.522,740.9894 289.7175,737.5052 293.2559,735.784 295.9262,736.1435 298.3712,738.2593 299.7508,741.7075 299.5228,745.0426 299.0956,746.2503 297.2616,745.6214 297.744,741.9729 290.1539,746.9922 292.4322,748.7697 302.4101,748.8069 302.4101,730.2698 281.4432,730.2698 279.116,733.4502 275.0808,734.3151 271.0142,731.9401 269.5691,726.9721 271.2144,721.7547 275.1893,717.3811 277.0409,719.1233 273.5609,722.9712 272.1108,726.8527 274.1346,731.3812 276.705,731.7184 278.6092,730.3786 278.9296,728.1038 277.4491,726.2522 278.9862,724.4925 281.4178,727.7522 291.3358,727.7522 291.3358,720.9749 287.5956,719.0667 289.3378,715.6233 292.6327,713.7327 293.7851,714.502 293.8729,717.7698 302.4101,717.7698 302.4101,712.4749"/>
    <polygon points="302.4101,720.2894 293.8729,720.2894 293.8729,727.7522 302.4101,727.7522"/>
    <polygon points="297.244,740.3987 295.2023,738.226 292.244,738.4554 289.5585,741.5472 289.3007,745.0843"/>
    <polygon points="295.91,789.8597 294.91,787.1195 292.5038,786.1195 290.1345,787.0306 289.078,789.5257 289.8358,792.0999 292.3729,794.6195 294.1893,794.6195"/>
    <polygon points="315.6327,835.2836 313.6153,840.2856 304.9296,844.432 304.9296,849.098 302.4101,849.098 302.4101,844.4691 281.3749,844.4691 281.3749,841.9495 302.4101,841.9495 302.4101,833.4319 297.1151,833.4319 296.2213,823.932 292.5038,824.9515 292.6583,831.4117 289.0214,835.0609 285.675,834.5473 283.3554,831.7464 285.0214,830.3773 287.6035,832.64 290.2332,831.4139 290.9205,827.1475 288.578,823.9144 283.5617,824.696 279.0233,830.4496 277.3749,829.4125 280.3539,824.6552 284.1151,821.7289 287.9089,821.1202 291.2811,822.9691 295.2987,821.0628 298.7199,823.3973 299.2245,830.9125 302.4101,830.9125 302.4101,819.8031 304.9296,819.8031 304.9296,842.0609 311.9346,838.552 313.0808,835.7786 312.5761,832.7289 315.039,831.8578"/>
    <polygon points="259.702,978.2556 239.5783,981.1116 239.2137,988.0213 243.1829,986.7615 246.1823,987.5269 248.3336,990.1865 248.9696,994.0566 248.0108,997.3006 245.4051,999.8377 245.2098,990.5799 243.9619,989.0988 241.4988,990.0135 239.409,992.5135 241.909,1003.5096 238.3543,1002.1619 235.9245,990.8255 236.5612,980.0802 240.3248,978.6116 252.766,977.5072 255.9129,975.8533"/>
    <polygon points="235.8159,975.4821 239.2143,975.4821 243.4721,971.9469 244.348,969.1121 242.6622,966.406 240.5815,965.2868 240.0151,966.1852 241.4487,968.954 239.2143,972.0836 237.905,965.7073 235.1128,963.0227 231.8736,962.749 221.6167,965.736 225.2814,966.186 233.8186,964.7034 235.4284,968.4954"/>
    <polygon points="252.1629,898.1384 247.6129,902.6057 239.2137,904.0564 239.2137,912.4158 242.4467,911.9837 245.1512,910.033 248.3348,911.5564 245.0519,913.464 239.2137,913.8416 240.8738,920.4236 242.6243,918.5779 241.9871,916.5564 244.1294,916.6272 246.2403,917.9381 246.8113,921.283 244.9528,926.4377 242.8527,926.433 240.3074,924.0369 239.3895,925.6592 239.6618,934.6369 244.8582,935.9509 239.824,938.5258 239.3754,943.1572 240.3221,944.4275 244.8582,945.1502 240.2452,946.6626 239.3504,949.1199 241.1668,949.7292 243.9988,948.0603 246.1277,949.3299 240.5027,952.8533 235.8152,952.8533 237.1238,945.5603 235.8439,942.1571 237.0457,936.283 235.8787,933.5388 235.8276,926.3687 238.4324,921.8885 235.8653,915.5054 235.9184,894.4502 237.5584,892.4707 240.659,892.7869 239.2462,894.7986 239.2137,902.865 245.2091,901.7072 248.3738,897.8455"/>
    <polyline points="230.1512,909.2517 227.3191,907.7673 228.9598,904.6033 231.7918,906.0486 230.1512,909.2517 233.5691,910.5212 231.909,913.7439 229.0965,912.2205 230.7762,909.0564 233.5691,910.5212"/>
    <polygon points="105.4573,587.2009 107.7546,581.7402 112.3428,580.0057 116.8485,581.8366 119.0378,588.1003 121.6397,590.6379 124.432,590.4131 126.7483,586.687 124.1464,582.9287 121.0368,583.1536 118.9427,585.4663 117.261,591.4409 111.8668,593.7537 108.056,592.3403"/>
    <polyline points="126.2406,609.339 126.2406,612.7696 105.8571,612.7696"/>
    <polyline points="126.2406,626.757 126.2406,630.1875 105.8571,630.1875"/>
    <polyline points="118.9426,635.2707 120.8465,641.0526 119.1648,645.0999 113.3581,648.0229 108.4558,646.6096 105.7572,642.241 105.8571,637.9046 108.3575,634.3713 112.6601,632.5404 117.4513,633.9537 126.5579,641.8556"/>
    <polyline points="126.2406,663.7045 126.2406,667.1351 105.8571,667.1351"/>
    <polyline points="118.9426,672.2185 120.8465,678.0004 119.1648,682.0477 113.3581,684.9708 108.4558,683.5574 105.7572,679.1889 105.8571,674.8525 108.3575,671.3191 112.6601,669.4882 117.4513,670.9016 126.5579,678.8035"/>
    <polyline points="105.8571,716.3534 105.8571,702.1718 115.0398,715.1328 119.4503,716.3534 122.1474,715.8395 125.6377,712.6916 126.2406,706.0103 123.1628,702.3806 118.9427,701.16"/>
    <polyline points="126.3358,733.9559 126.3358,723.0025 117.5465,722.1995 120.7513,726.8571 120.2436,731.8359 117.0388,735.2729 114.4687,736.2687 109.2649,735.2729 105.8571,731.0971 105.5573,728.2704 107.0565,723.934 110.7563,721.1972"/>
    <polyline points="126.2406,755.6685 126.2406,759.0991 105.8571,759.0991"/>
    <polyline points="108.5542,776.6055 108.5542,764.4636 125.4473,773.9715 105.7572,773.9715"/>
    <polyline points="126.3358,802.439 126.3358,791.4855 117.5465,790.6825 120.7513,795.3401 120.2436,800.3189 117.0388,803.7559 114.4687,804.7517 109.2649,803.7559 105.8571,799.5801 105.5573,796.7534 107.0565,792.417 110.7563,789.6803"/>
    <polyline points="105.8571,833.7333 105.8571,819.5517 115.0398,832.5127 119.4503,833.7333 122.1474,833.2194 125.6377,830.0715 126.2406,823.3902 123.1628,819.7605 118.9427,818.5399"/>
    <polyline points="122.2426,840.0938 124.8445,841.3145 126.6531,843.9484 124.7493,849.2164 121.0368,850.0194 118.2446,848.3812 115.96,850.9188 111.3591,851.9467 107.3579,849.7945 105.5573,844.9442 106.8566,840.7042 112.2476,838.1698"/>
    <polyline points="105.8571,886.9189 105.8571,872.7372 115.0398,885.6983 119.4503,886.9189 122.1474,886.4049 125.6377,883.257 126.2406,876.5757 123.1628,872.946 118.9427,871.7254"/>
    <polyline points="126.3358,904.5214 126.3358,893.5679 117.5465,892.7649 120.7513,897.4225 120.2436,902.4014 117.0388,905.8384 114.4687,906.8341 109.2649,905.8383 105.8571,901.6626 105.5573,898.8359 107.0565,894.4994 110.7563,891.7627"/>
    <polyline points="126.3358,936.8999 126.3358,925.9465 117.5465,925.1434 120.7513,929.8011 120.2436,934.7799 117.0388,938.2169 114.4687,939.2127 109.2649,938.2169 105.8571,934.0411 105.5573,931.2144 107.0565,926.878 110.7563,924.1412"/>
    <polyline points="126.2406,955.5047 126.2406,958.9353 105.8571,958.9353"/>
    <polyline points="126.2406,975.9342 126.2406,979.3648 105.8571,979.3648"/>
    <polygon points="105.4573,991.9239 107.7546,986.4632 112.3428,984.7287 116.8485,986.5596 119.0378,992.8233 121.6397,995.3609 124.432,995.136 126.7483,991.4099 124.1464,987.6517 121.0368,987.8766 118.9426,990.1893 117.261,996.1639 111.8668,998.4767 108.056,997.0634"/>
    <polygon points="115.0238,603.7015 116.8576,602.9326 117.6171,601.0763 116.8576,599.2199 115.0238,598.451 113.1901,599.2199 112.4305,601.0763 113.1901,602.9326"/>
    <polygon points="115.0238,624.7813 116.8576,624.0124 117.6171,622.1561 116.8576,620.2997 115.0238,619.5308 113.1901,620.2997 112.4305,622.1561 113.1901,624.0124"/>
    <polygon points="115.0238,660.9181 116.8576,660.1491 117.6171,658.2928 116.8576,656.4364 115.0238,655.6675 113.1901,656.4364 112.4305,658.2928 113.1901,660.1491"/>
    <polygon points="115.0238,697.0548 116.8576,696.2859 117.6171,694.4295 116.8576,692.5732 115.0238,691.8043 113.1901,692.5732 112.4305,694.4295 113.1901,696.2859"/>
    <polygon points="115.0238,784.3853 116.8576,783.6163 117.6171,781.76 116.8576,779.9036 115.0238,779.1347 113.1901,779.9036 112.4305,781.76 113.1901,783.6163"/>
    <polygon points="115.0238,814.4992 116.8576,813.7303 117.6171,811.8739 116.8576,810.0176 115.0238,809.2487 113.1901,810.0176 112.4305,811.8739 113.1901,813.7303"/>
    <polygon points="115.0238,919.8981 116.8576,919.1292 117.6171,917.2728 116.8576,915.4165 115.0238,914.6476 113.1901,915.4165 112.4305,917.2728 113.1901,919.1292"/>
    <polygon points="115.0238,950.012 116.8576,949.2431 117.6171,947.3868 116.8576,945.5304 115.0238,944.7615 113.1901,945.5304 112.4305,947.3868 113.1901,949.2431"/>
    <polygon points="115.0238,971.0919 116.8576,970.3229 117.6171,968.4666 116.8576,966.6103 115.0238,965.8413 113.1901,966.6103 112.4305,968.4666 113.1901,970.3229"/>
    <polygon points="234.6838,737.2703 237.9973,740.8425 236.6254,738.694 237.3699,737.4971 256.4941,729.6139 257.4635,726.9263 254.59,724.1463 255.7031,726.3207 255.0244,727.5517 244.1581,732.0156 236.9618,727.7962 238.1008,726.2431 235.8552,724.3276 234.6839,725.8289 235.7681,728.0436 242.8119,732.6109 236.1504,735.3309"/>
    <polyline points="232.0435,755.002 232.4836,746.6151 231.0829,745.0015 230.4046,745.5925 230.2958,754.8422 232.2765,757.5905 232.0435,755.002 234.865,754.4325 234.8133,746.3562 225.7301,744.5791 221.7929,740.8425 226.4782,743.1464 234.7179,744.2105 243.6921,744.1559 244.4686,743.2758 243.7179,741.7485 244.6383,741.8636 246.5136,745.8643 242.5013,746.5633 246.4285,751.9412 246.0535,756.0797 241.6248,757.8048 236.8065,755.1055 238.4373,760.878 235.8647,758.2597 234.865,754.4325 236.8842,753.3453 238.1138,754.9502 240.942,755.5746 244.2616,753.3453 244.0225,749.9408 240.7671,746.7704 236.5994,746.4597 236.8842,753.3453"/>
    <polyline points="253.5545,752.5429 251.7425,754.3549 253.6062,756.141 255.3665,754.3549 253.5545,752.5429 255.3665,749.4625 253.5545,747.6505 251.7425,749.4625 253.1144,750.938 255.3665,749.4625 258.8352,751.8957 257.515,750.4202 255.2371,751.9216 257.075,753.7077 258.8351,751.8957"/>
    <polygon points="243.692,761.0851 244.4169,762.8712 243.3069,763.6084 234.6839,762.923 238.002,765.678 246.1729,765.5115 246.2483,763.0265"/>
    <polygon points="257.7997,768.9802 253.8392,765.0715 257.9809,761.8617 256.2983,760.1015 251.4577,763.829"/>
    <polygon points="234.6838,780.0075 236.9921,782.4035 242.4757,784.091 244.5724,787.5661 242.743,790.2408 238.7935,790.7436 237.0915,789.7405 237.6696,785.6621 235.2536,785.2882 234.7028,787.3936 235.7785,789.8671 243.1456,794.5004 244.5723,797.1955 242.8109,799.8472 238.7675,800.3989 237.1173,799.5252 237.9743,795.9934 236.1594,794.6588 234.7961,795.8179 235.0463,798.3087 239.1047,802.1463 244.2214,802.3495 246.2418,800.9102 246.7396,798.4608 242.9414,793.0539 246.0156,791.4707 246.7878,789.1593 242.7085,783.0362 246.2009,782.563 246.3971,780.4428 243.9251,777.9885 243.6201,780.6043"/>
    <polyline points="236.5994,809.4395 241.8629,811.0674 244.5268,815.298 242.4129,818.8007 237.7053,818.3731 236.5994,809.4395 234.6321,807.4461 235.0459,819.8915 238.4372,824.453 236.7805,818.7841 242.2424,821.5279 246.4835,819.0046 246.1897,815.0549 242.5013,810.2677 246.1915,809.8742 246.6129,808.2655 244.0026,805.2459 243.6312,807.8561 234.6321,807.4463"/>
    <polygon points="251.1471,812.9599 256.2725,819.1207 258.3951,819.7419 257.8774,818.1888"/>
    <polygon points="243.4591,841.3565 245.2193,843.0907 246.7961,841.5552 244.2234,836.402 240.2766,834.5103 236.49,835.3539 234.7528,839.6394 238.0748,845.7311 235.0203,846.0676 234.9426,846.9219 236.7546,848.3456 246.5911,849.0963 244.5018,846.5145 238.4507,844.7569 237.12,839.4265 239.3322,837.1329 242.8944,836.943 244.4686,838.2847"/>
    <polygon points="238.8255,863.2039 236.9003,857.4977 239.2342,853.8589 244.0285,853.911 244.567,856.3308 243.019,859.3987 243.8474,860.8629 245.4911,860.9584 246.7437,858.7574 245.3904,854.018 240.6311,851.0089 236.8039,851.8325 234.7047,855.2197 235.6382,859.8321"/>
    <polygon points="251.1471,853.3933 256.2725,859.5541 258.3951,860.1753 257.8774,858.6222"/>
    <polygon points="244.4427,866.9315 242.0095,867.941 234.7098,867.1387 236.7637,869.4378 241.8138,870.9387 244.2251,874.0253 243.7957,877.6159 240.2234,879.279 237.1833,878.14 237.3954,873.3512 234.9189,873.7084 235.6164,877.7556 240.1538,881.2448 243.9064,881.1456 246.6414,878.5607 246.0384,874.6416 242.5013,870.1672 246.6171,869.2418 246.1675,867.1319 243.8991,865.1454"/>
    <polygon points="200.778,784.929 197.8086,787.7576 196.718,787.4644 196.5614,786.2959 199.5687,783.7917 196.4587,779.4318 206.8092,787.4723 204.88,788.3253"/>
    <polygon points="197.1498,795.2126 195.9692,791.4214 191.0165,790.4973 190.3254,789.2888 199.584,790.5202 210.4946,794.1752 211.5328,795.8523 209.4164,796.2625 198.0137,791.8953 199.1654,795.6627 209.7907,799.0985 211.5328,801.1125 209.0133,801.4265 190.2174,794.8808"/>
    <polygon points="197.1498,824.7861 195.9692,820.9949 191.0165,820.0708 190.3254,818.8623 199.584,820.0937 210.4946,823.7487 211.5328,825.4258 209.4164,825.836 198.0137,821.4688 199.1654,825.2362 209.7907,828.672 211.5328,830.686 209.0133,831.0 190.2175,824.4543"/>
    <polygon points="203.1679,816.4218 198.2153,812.4174 197.5819,814.621 199.2808,815.5214 201.0372,814.4551 201.1524,815.7347 199.4463,816.7002 196.9219,816.1394 195.559,814.2715 195.7101,812.1568 199.0734,810.8943 203.456,814.313 201.2157,809.4878 202.3617,808.1049 204.5213,811.9909 211.8824,814.8589 209.7428,815.8979 205.1548,813.8154 205.3977,816.5699"/>
    <polyline points="203.8839,846.3734 204.2655,847.6648 206.1167,848.1387 203.8839,846.3734 202.9985,843.0857 210.9776,843.9507 210.6663,845.556 203.2001,844.0158 202.1347,845.4138 205.8756,844.8303 207.8444,848.6363 211.3862,850.366 207.3837,850.7688 198.2128,846.1164 202.1161,857.611 201.2362,858.2428 196.7446,849.2106 194.815,839.1264 196.9171,839.6418 197.8096,844.3156 202.1347,845.4138"/>
    <polygon points="193.0585,855.0019 187.5619,852.6167 193.2888,852.6798 191.7051,848.3674 193.1737,846.8272 195.5072,852.4732 194.7574,854.528"/>
    <polygon points="207.1811,872.54 200.601,871.0148 208.1911,871.0447 210.881,872.2233 208.8579,873.6014 210.468,879.5173 208.5823,880.1527 202.9296,878.3351 203.6259,880.5761 202.6505,881.0651 200.7514,877.4852 201.0414,873.5356 202.6598,873.8188 203.0571,876.645 207.2768,878.236"/>
    <polygon points="199.8541,882.9657 194.3254,881.5679 195.7056,884.7296 199.3238,886.688 198.0497,887.7862 195.344,886.4584 195.3969,888.909 193.4686,885.876 189.2712,886.035 187.5059,883.5941 188.6546,881.8256 188.0969,875.3377 191.3039,874.4896 196.5687,875.6663 195.6795,877.33 189.567,876.43 190.381,881.5224 193.5672,884.7709 192.4093,879.5335 194.0376,880.8389 208.5493,883.439 215.6624,886.9227 213.3972,887.7623 201.9273,883.4396 203.326,887.6607 202.4449,888.494"/>
    <polygon points="191.2732,884.34 189.2989,883.6042 190.314,885.1381"/>
    <polygon points="203.3695,900.8267 197.6907,899.6017 196.2571,896.9446 197.0119,894.5549 199.7989,893.6235 204.6941,895.3532 205.2268,896.4847 204.2345,897.2812 200.6628,895.3059 198.2919,896.201 200.4324,899.334 202.7936,899.0259 202.7072,897.391 204.003,897.7938 204.6365,899.4287"/>
    <polygon points="211.1729,911.3252 191.3045,905.9761 190.1815,904.6907 204.6293,907.226 210.8561,909.6429"/>
    <polygon points="197.8541,934.1655 193.5351,933.3593 194.334,936.0131 193.5782,936.5225 188.3951,932.08 187.5841,932.9779 188.771,937.6879 186.7394,935.658 185.837,932.2381 187.4015,930.3504 190.7993,931.1799 192.2903,929.8608 193.3045,931.8196 206.1195,934.5002 213.6624,938.1224 211.4452,938.9726 199.9273,934.6394 201.3004,938.8764 200.5352,939.7233"/>
    <polyline points="204.2799,923.9967 199.3226,922.1522 208.8986,923.6918 207.2832,924.8818 204.2799,923.9967 203.4852,927.3585 202.3622,925.6044 200.3592,925.6116 203.4852,927.3585 204.7522,929.9883 199.5818,927.6731 198.3436,925.2879 199.7691,923.5715 203.586,924.2664 205.2129,927.8562 208.7514,929.1541 208.1211,930.3441 205.0689,929.8465"/>
    <polygon points="205.5135,954.3961 199.8347,953.1709 198.4011,950.5138 199.1559,948.1242 201.9429,947.1927 206.838,948.9225 207.3707,950.0539 206.3785,950.8505 202.8067,948.8751 200.4359,949.7702 202.5764,952.9032 204.9376,952.5952 204.8512,950.9603 206.147,951.3631 206.7804,952.9981"/>
    <polyline points="197.2522,964.3687 206.6066,972.7812 204.7402,973.1443 200.778,969.8132 197.8086,972.6419 196.4607,971.974 199.5687,968.6758 196.254,964.9689 198.1996,961.2438 193.9421,947.7393 193.9164,942.5782 195.6657,943.6149 199.8505,961.3017 198.1996,961.2438"/>
    <polyline points="210.3603,982.7822 191.794,977.7335 190.671,976.4951 200.6052,977.8225 199.1367,973.6285 200.8571,972.2246 202.6496,978.2964 211.016,981.6056 211.2593,987.1344 190.3543,981.1158 190.1815,980.3338 191.8362,980.2168 202.8143,982.4653 210.4674,985.1675 211.2593,987.1341"/>
    <polygon points="196.5739,992.7568 198.0624,991.279 200.4659,991.0664 203.9454,992.0466 205.3707,993.8652 204.0365,994.6878 200.8067,992.6863 198.6279,993.2261 198.6399,995.1832 200.1767,996.562 202.4193,996.7621 202.8512,994.7716 204.4565,995.5432 204.5363,997.4766 201.7876,998.4969 198.1136,997.234 196.3723,993.8729 193.3201,993.1636 193.752,994.9644 196.8971,996.3148 196.4299,997.4522 194.2128,996.7142 196.9291,1004.802 195.9532,1005.3786 192.1266,996.9353 190.2678,987.0467 192.2835,987.562 193.0034,991.6671"/>
    <polygon points="282.5398,881.9547 285.5015,873.0232 289.867,879.0238 291.6564,877.1573 287.2138,871.0332 291.5022,868.6885 291.5022,876.3706 304.8764,876.3706 304.8764,868.7502 308.0232,868.7502 308.0232,866.1587 304.8764,866.1587 304.8764,858.8622 283.1722,858.8622 282.5706,854.2191 280.195,855.3297 282.3701,868.8119 284.8691,868.8119 283.5733,861.2687 291.5022,861.2687 291.5022,866.0353 285.6635,869.1616 281.9134,874.5406 280.195,880.3504"/>
    <polyline points="297.1326,873.9641 293.8161,873.9641 293.8161,861.2687 297.1326,861.2687 297.1326,873.9641 299.4311,873.9641 299.4311,861.2687 302.5625,861.2687 302.5625,873.9641 299.4311,873.9641"/>
    <polygon points="289.7128,901.9929 291.1937,899.0465 285.1974,896.3738 284.2058,895.0358 284.8606,894.0335 294.1642,890.7173 305.4317,891.1794 306.1259,888.125 292.7197,888.1827 282.8202,892.1697 281.2364,894.6131 281.882,897.0893"/>
    <polygon points="289.2963,910.801 296.8395,909.1427 305.0923,905.5562 303.9508,902.7487 296.3112,906.2851 288.7564,907.7621"/>
    <polygon points="297.3177,927.4764 299.5543,927.4764 300.3256,932.4126 303.4108,932.0269 302.3773,927.4764 307.2672,927.4764 307.2672,924.7305 302.0533,924.7305 301.7449,918.6065 298.706,919.1772 299.246,924.7305 296.5002,924.7305 293.9333,920.747 290.1056,918.2353 286.7776,918.1067 283.743,919.6709 281.863,922.6066 282.4578,925.9521 285.3471,927.3875 294.1246,927.4764 294.6882,932.3459 293.0956,937.7157 288.6591,939.1196 286.1648,938.1665 284.8351,936.0433 285.3832,934.1167 288.1239,932.86 287.1212,929.9136 284.3146,931.0927 281.9198,934.7989 283.3896,939.5884 288.5602,941.9748 294.4895,940.3184 297.3837,935.217"/>
    <polygon points="287.1212,924.7305 284.8829,924.219 284.8074,922.9446 288.2473,920.7507 291.132,921.8922 293.2762,924.7305"/>
    <polygon points="299.6933,941.8532 305.5088,935.5749 303.6115,932.9525 297.8268,939.3851"/>
    <polygon points="289.0803,975.281 291.3788,975.281 291.3788,964.3749 296.531,964.3749 296.531,972.4426 298.8295,972.4426 298.8295,964.3749 302.9482,964.3749 302.9482,973.9852 305.2466,973.9852 305.2466,956.2918 307.7147,956.8934 308.6866,954.8726 302.6396,952.5395 298.197,949.0262 296.5927,951.0162 302.9482,955.3817 302.9482,961.8914 298.8295,961.8914 298.8295,953.5152 291.3788,953.5152 291.3788,949.5661 289.0803,949.5661 289.0803,961.8914 279.9791,961.8914 279.9791,964.3749 289.0803,964.3749"/>
    <polygon points="291.3788,961.8914 291.3788,955.9216 296.531,955.9216 296.531,961.8914"/>
    <polygon points="281.7376,1004.8523 284.9615,1004.5747 284.4178,993.2792 286.3498,990.2596 288.9877,991.5862 291.317,995.057 286.8897,995.057 286.8897,998.0342 292.7053,998.0342 295.3277,1004.8216 298.2277,1003.68 295.775,997.7411 298.3564,994.956 298.274,990.167 300.7884,991.4936 301.7448,1002.446 304.6757,1002.2608 303.6731,992.8819 306.6965,994.1468 307.5604,991.1388 303.4725,989.627 303.7039,982.9631 300.6342,982.9631 300.5417,988.177 291.5331,981.5439 289.5431,984.0275 295.5512,989.2278 296.1233,993.0272 294.5102,994.9335 288.9695,988.0723 286.1065,987.4199 283.4104,988.5511 281.5281,993.6075"/>
    <polygon points="246.508,609.6449 248.9059,609.6449 248.9059,599.7657 253.5737,599.7657 256.627,608.6698 258.6572,607.1032 255.5719,597.272 239.3586,596.9302 231.1138,593.6112 229.6431,595.8013 234.0782,598.2338 246.508,599.7657 246.508,603.3625 229.4513,603.3625 229.4513,605.8563 246.508,605.8563"/>
    <polyline points="251.7833,594.3306 252.6945,591.9647 247.7869,590.1423 247.7869,587.9842 252.6945,585.4265 251.8153,583.2685 247.7869,585.5224 247.7869,581.0624 245.389,581.0624 245.389,587.5207 242.4477,587.5207 242.4477,581.9576 240.0658,581.9576 240.0658,585.9541 234.2949,580.5189 232.3926,582.3413 237.8917,587.5207 229.4513,587.5207 229.4513,590.0144 238.0356,590.0144 233.6076,593.835 235.2861,595.6734 239.7621,591.3093 238.7869,590.0144 240.0658,590.0144 240.0658,595.3697 242.4477,595.3697 242.4477,590.0144 245.389,590.0144 245.389,596.1689 247.7869,596.1689 247.7869,592.6521 252.8863,595.8972 255.2842,595.8972 255.2842,590.1104 258.4973,590.1104 258.4973,587.5207 255.2842,587.5207 255.2842,581.4301 252.8863,581.4301 252.8863,595.8972"/>
    <polygon points="238.691,641.5045 241.0729,641.5045 241.0729,630.2026 246.4121,630.2026 246.4121,638.5631 248.794,638.5631 248.794,630.2026 253.0622,630.2026 253.0622,640.1617 255.4441,640.1617 255.4441,621.8261 258.0018,622.4495 259.0089,620.3554 252.9079,618.0288 248.1386,614.2968 246.4761,616.3589 253.0622,620.8829 253.0622,627.6289 248.794,627.6289 248.794,618.9486 241.0729,618.9486 241.0729,614.8563 238.691,614.8563 238.691,627.6289 229.2594,627.6289 229.2594,630.2026 238.691,630.2026"/>
    <polygon points="241.0729,627.6289 241.0729,621.4424 246.4121,621.4424 246.4121,627.6289"/>
    <polyline points="233.4157,678.9271 231.2257,680.2379 231.9457,682.7084 237.7958,692.419 229.3873,692.419 229.3873,694.8968 237.6999,694.8968 231.9849,704.4672 231.2896,707.1419 233.4477,708.3568 238.0675,698.046 238.0675,706.9501 240.4494,706.9501 240.4494,694.8968 242.3837,694.8968 242.3837,692.4191 240.4494,692.4191 240.4494,680.2379 238.0675,680.2379 238.0036,689.3018 231.1937,675.7779 231.7389,674.7433 235.9359,670.0482 242.016,667.3374 242.016,674.6429 244.4139,674.6429 244.4139,672.0212 253.3179,672.0212 253.3179,665.3392 258.881,665.3392 258.881,662.8454 253.3179,662.8454 253.3179,657.1545 250.9361,657.1545 250.9361,662.8134 244.4139,662.4937 244.4139,655.3481 242.016,655.3481 242.016,661.9662 240.2067,661.4381 235.4801,659.0326 231.3216,653.9414 229.2914,655.7478 232.6409,659.9008 242.096,664.7158 236.7081,666.611 232.1689,669.8676 229.0836,674.0514 231.1937,675.7779"/>
    <polygon points="244.4139,669.4316 244.4139,665.0834 250.9361,665.3712 250.9361,669.4316"/>
    <polygon points="246.1084,658.0018 252.5986,655.2202 251.9752,653.3179 258.4654,653.3179 258.4654,650.9361 229.2275,650.9361 229.2275,653.3179 251.2878,653.3179 245.421,655.6519"/>
    <polygon points="251.9112,650.6323 252.6306,648.3464 244.1901,645.8526 243.231,648.0586"/>
    <polyline points="245.2292,695.856 245.2292,691.6997 248.3784,691.6997 248.3784,695.856 245.2292,695.856 242.8153,699.0211 243.2629,704.8559 241.1688,705.1437 241.6324,707.2058 247.5631,706.0069 246.9396,703.9128 245.421,704.3604 245.2611,702.49 252.9503,706.6943 254.0693,704.5522 250.6004,703.1135 251.2558,702.0424 256.0995,704.4882 257.1226,702.2982 253.0553,700.5221 252.8224,699.4208 250.6323,698.4776 248.4743,701.8826 245.0054,698.5735 242.8153,699.0211 242.8473,698.2059 255.8757,698.2058 255.8757,694.9607 258.4654,696.2395 259.2167,694.0175 255.8757,692.387 255.8757,689.3337 242.8473,689.3018 242.8473,698.2059"/>
    <polygon points="250.7602,695.856 250.7602,691.6997 253.4778,691.6997 253.4778,695.856"/>
    <polygon points="241.6963,689.2059 247.531,687.7672 246.9395,685.737 245.293,686.2326 245.1012,684.3303 252.8543,688.6784 253.9733,686.5843 250.5044,685.0177 251.1278,684.0585 256.0035,686.4884 257.0106,684.2983 252.7268,682.3528 253.0621,681.0212 250.7601,679.9662 248.4102,683.7708 245.1012,681.5168 245.0693,680.3019 242.6714,680.6535 243.135,686.7121 241.1368,686.9519"/>
  </g>
</svg>
