<?xml version="1.0" encoding="utf-8" ?>
<svg xmlns="http://www.w3.org/2000/svg" xmlns:cc="http://creativecommons.org/ns#" xmlns:dc="http://purl.org/dc/elements/1.1/" xmlns:ev="http://www.w3.org/2001/xml-events" xmlns:inkscape="http://www.inkscape.org/namespaces/inkscape" xmlns:rdf="http://www.w3.org/1999/02/22-rdf-syntax-ns#" xmlns:sodipodi="http://sodipodi.sourceforge.net/DTD/sodipodi-0.dtd" xmlns:xlink="http://www.w3.org/1999/xlink" baseProfile="tiny" height="27.94cm" version="1.2" viewBox="0 0 1632.0 1056.0" width="43.18cm">
  <metadata>
    <rdf:RDF>
      <cc:Work>
        <dc:format>image/svg+xml</dc:format>
        <dc:source>vpype read /Users/cj/Documents/Projects/greeting-cards-2021/outside/11x17/individual/card-outside-with-border.svg pagesize 5.5inx8.5in ldelete 2 splitall linemerge --tolerance 1.2mm linesimplify --tolerance 0.2mm rotate 270 layout -l -h right -v bottom 11inx17in ldelete 3 write /Users/cj/Documents/Projects/greeting-cards-2021/outside/11x17/individual/outside-11x17-one-per-page-11x17-layer1-right-bottom.svg
</dc:source>
        <dc:date>2022-02-09T17:33:28.496574</dc:date>
      </cc:Work>
    </rdf:RDF>
  </metadata>
  <defs/>
  <g fill="none" id="layer1" inkscape:groupmode="layer" inkscape:label="1" stroke="#00f" style="display:inline">
    <polyline points="1142.1746,814.6429 1114.0746,800.3881 1105.0056,799.6508 1102.425,801.4531 1102.679,807.6793 1106.554,816.691 1112.4935,823.163 1117.9251,827.0134 1134.9653,834.7143 1140.6181,833.4855 1142.4204,829.8808 1141.9289,824.9653 1138.57,819.8041 1123.5778,804.5662 1106.3,790.3937 1102.679,783.9217 1101.9089,778.7604 1105.0056,775.4016 1109.1346,774.91 1115.0577,776.4666 1140.8639,790.8852 1119.2359,777.4497 1110.9451,769.9946 1103.9734,761.7202 1101.9089,755.0024 1105.0056,750.9062 1109.1346,750.4147 1116.8601,752.217 1122.2671,755.3301 1103.9734,739.0272 1101.1306,729.4421 1102.679,726.6566 1106.0379,725.1001 1111.9774,725.1001 1119.9732,726.9024 1138.0784,736.1598 1150.449,747.5473 1155.0367,753.7244 1156.8391,760.434 1154.791,763.2686 1152.2513,763.7847 1147.5816,761.4662 1138.8157,749.5954 1130.5414,730.7528 1127.1825,719.1196 1123.3321,696.9181 1121.0382,688.9715 1117.6793,682.4995 1113.0096,678.4033 1108.1024,677.0925 1103.1951,679.3864 1101.1306,684.3018 1101.9089,690.2823 1105.7839,696.4266 1120.7105,707.5683 1147.5816,722.4785 1156.1018,733.866 1154.791,731.5721 1153.8079,721.987 1155.856,711.6645 1155.6102,706.0117 1152.4971,701.342 1148.6467,699.2939 1143.7312,698.7205"/>
    <polyline points="1122.2671,755.3301 1129.8041,759.1806 1135.9484,765.3249 1141.6831,774.6642 1141.9289,782.1193 1139.0615,784.9867 1133.163,784.9867 1127.1825,782.9386"/>
    <line x1="1123.5778" x2="1084.9096" y1="804.5662" y2="783.6509"/>
    <polyline points="1142.1746,854.8683 1114.0746,840.6135 1105.0056,839.8762 1102.425,841.6785 1103.9734,852.001 1106.554,856.9164 1112.4935,863.3884 1117.9251,867.2389 1134.9653,874.9397 1140.6181,873.7109 1142.4204,870.1062 1141.9289,865.1908 1138.57,860.0295 1123.5778,844.7916 1084.9096,823.8764"/>
    <polyline points="1090.8081,872.6128 1092.1189,873.391 1093.6755,871.3266 1092.1189,869.5201 1088.2685,869.7782 1085.1554,872.6128 1084.5819,877.2661 1085.1554,882.7222 1087.2035,887.5557 1091.2997,891.7339 1141.3554,920.0797 1127.756,912.6246 1113.2554,900.7455 1106.554,893.782 1103.1951,888.6208 1101.9089,883.7053 1103.1951,880.3464 1105.5217,878.5441 1110.1668,878.7898 1141.3554,894.2735"/>
    <polyline points="1024.8788,810.5813 1014.794,802.0612 1008.6005,794.0326 1005.7577,785.8402 1006.0199,779.1224 1009.8949,774.9443 1016.0884,774.207 1024.3054,776.7466 1024.8788,775.4358 1011.9512,765.1134 1006.79,759.2148 1005.2498,753.8078 1005.7577,748.8924 1007.8263,746.8443 1014.54,747.09 1051.1765,765.9326 1056.3377,765.9326 1058.9593,763.8845 1059.2051,755.1186 1052.4873,746.5985 1041.9191,737.0134 1006.536,716.6142 1047.8176,739.0615 1058.1401,740.618 1059.9424,737.2591 1058.9593,732.0979 1055.027,727.7559 1044.213,719.9731"/>
    <polyline points="1024.3054,776.7466 1033.399,781.4163 1042.1649,788.8714 1046.5068,797.3915 1045.278,803.8635 1041.0998,805.4201 1035.6928,803.6178 1031.8424,799.1939 1029.2208,793.7869 1024.8788,778.3032"/>
    <polyline points="1044.9503,859.572 1040.6083,860.3912 1029.2208,857.0323 1015.5722,848.758 1010.1489,843.1052 1005.7577,834.5851 1006.0199,831.472 1007.8263,829.0962 1011.1811,828.3588 1015.3101,829.0962 1044.9503,844.9075 1021.5199,831.7177 1016.3587,827.2938 1008.8586,819.5929 1005.5038,810.3355 1006.79,807.4682 1009.3788,805.9116 1016.8503,806.9766 1044.9503,822.1326"/>
    <polyline points="949.5132,872.6258 947.7108,871.0692 946.8916,871.8066 947.7108,874.1824 950.4963,874.9197 953.8552,872.8716 951.3155,865.1707 917.489,834.203 913.8679,827.731 913.0979,822.5698 916.1946,819.2109 920.3236,818.7194 926.2467,820.2759 952.0528,834.6946 930.4248,821.259 922.1341,813.8039 915.1623,805.5296 913.0979,798.8118 916.1946,794.7156 920.3236,794.224 928.049,796.0263 933.456,799.1395 922.3881,789.0628 916.1946,781.0343 913.3518,772.8418 913.614,766.1241 917.489,761.9459 923.6825,761.2086 932.4729,763.2567 921.8719,754.1631 916.7107,745.9707 912.8439,717.0514 908.1906,701.8135 904.0452,698.2007 900.4406,698.2007 896.8359,701.322 896.0986,704.6809 896.3444,709.8421 898.1467,715.0033 906.9126,725.5715 912.5817,730.1593 964.9969,759.8978 938.945,743.8407 927.0659,733.0267 922.9042,727.3739 921.8719,722.2127 925.5094,717.7887 929.6056,717.0514 936.3234,719.3453 953.3636,729.9135 960.8187,733.0267 965.4884,733.2724 967.2907,731.2243 967.5365,726.8823 965.7342,723.1957 962.1295,718.8538 951.3155,711.3987"/>
    <polyline points="931.8995,763.7482 940.9931,768.4179 949.759,775.873 954.1009,784.3932 952.8721,790.8652 948.6939,792.4217 943.2869,790.6194 939.4365,786.1955 936.8149,780.7885 932.4729,765.3048"/>
    <polyline points="933.456,799.1395 940.9931,802.9899 947.1374,809.1342 952.8721,818.4736 953.1178,825.9287 950.2505,828.796 944.352,828.796 938.3715,826.7479"/>
    <polyline points="933.7018,848.3762 914.1301,837.0052 952.8721,857.8794"/>
  </g>
</svg>
