<?xml version="1.0" encoding="utf-8" ?>
<svg xmlns="http://www.w3.org/2000/svg" xmlns:cc="http://creativecommons.org/ns#" xmlns:dc="http://purl.org/dc/elements/1.1/" xmlns:ev="http://www.w3.org/2001/xml-events" xmlns:inkscape="http://www.inkscape.org/namespaces/inkscape" xmlns:rdf="http://www.w3.org/1999/02/22-rdf-syntax-ns#" xmlns:sodipodi="http://sodipodi.sourceforge.net/DTD/sodipodi-0.dtd" xmlns:xlink="http://www.w3.org/1999/xlink" baseProfile="tiny" height="27.94cm" version="1.2" viewBox="0 0 1632.0 1056.0" width="43.18cm">
  <metadata>
    <rdf:RDF>
      <cc:Work>
        <dc:format>image/svg+xml</dc:format>
        <dc:source>vpype read /Users/cj/Documents/Projects/greeting-cards-2021/outside/11x17/individual/card-outside-with-border.svg pagesize 5.5inx8.5in ldelete 2 splitall linemerge --tolerance 1.2mm linesimplify --tolerance 0.2mm rotate 270 layout -l -h left -v top 11inx17in ldelete 3 write /Users/cj/Documents/Projects/greeting-cards-2021/outside/11x17/individual/outside-11x17-one-per-page-11x17-layer1-left-top.svg
</dc:source>
        <dc:date>2022-02-09T18:47:47.161022</dc:date>
      </cc:Work>
    </rdf:RDF>
  </metadata>
  <defs/>
  <g fill="none" id="layer1" inkscape:groupmode="layer" inkscape:label="1" stroke="#00f" style="display:inline">
    <polyline points="324.7806,282.2252 296.6806,267.9703 287.6116,267.233 285.031,269.0354 285.285,275.2616 289.16,284.2733 295.0995,290.7453 300.5311,294.5957 317.5713,302.2966 323.2241,301.0677 325.0264,297.4631 324.5348,292.5476 321.176,287.3864 306.1838,272.1485 288.906,257.976 285.285,251.504 284.5149,246.3427 287.6116,242.9838 291.7406,242.4923 297.6637,244.0488 323.4698,258.4675 301.8418,245.0319 293.5511,237.5768 286.5794,229.3025 284.5149,222.5847 287.6116,218.4885 291.7406,217.9969 299.466,219.7993 304.873,222.9124 286.5794,206.6095 283.7366,197.0243 285.285,194.2389 288.6438,192.6824 294.5834,192.6824 302.5792,194.4847 320.6844,203.7421 333.055,215.1296 337.6427,221.3067 339.4451,228.0163 337.397,230.8509 334.8573,231.367 330.1876,229.0485 321.4217,217.1777 313.1474,198.3351 309.7885,186.7019 305.938,164.5004 303.6442,156.5538 300.2853,150.0818 295.6156,145.9855 290.7083,144.6748 285.8011,146.9686 283.7366,151.8841 284.5149,157.8646 288.3899,164.0089 303.3165,175.1506 330.1876,190.0608 338.7077,201.4482 337.397,199.1544 336.4139,189.5692 338.462,179.2468 338.2162,173.594 335.1031,168.9243 331.2526,166.8762 326.3372,166.3028"/>
    <polyline points="304.873,222.9124 312.4101,226.7628 318.5544,232.9072 324.2891,242.2465 324.5348,249.7016 321.6675,252.569 315.769,252.569 309.7885,250.5209"/>
    <line x1="306.1838" x2="267.5156" y1="272.1485" y2="251.2332"/>
    <polyline points="324.7806,322.4506 296.6806,308.1958 287.6116,307.4585 285.031,309.2608 286.5794,319.5832 289.16,324.4987 295.0995,330.9707 300.5311,334.8212 317.5713,342.522 323.2241,341.2932 325.0264,337.6885 324.5348,332.773 321.176,327.6118 306.1838,312.3739 267.5156,291.4587"/>
    <polyline points="273.4141,340.195 274.7249,340.9733 276.2815,338.9088 274.7249,337.1024 270.8745,337.3605 267.7614,340.195 267.1879,344.8483 267.7614,350.3045 269.8095,355.138 273.9057,359.3162 323.9614,387.6619 310.362,380.2068 295.8614,368.3278 289.16,361.3643 285.8011,356.203 284.5149,351.2876 285.8011,347.9287 288.1277,346.1264 292.7728,346.3721 323.9614,361.8558"/>
    <polyline points="207.4848,278.1636 197.3999,269.6435 191.2065,261.6149 188.3637,253.4225 188.6259,246.7047 192.5009,242.5266 198.6944,241.7892 206.9114,244.3289 207.4848,243.0181 194.5572,232.6956 189.396,226.7971 187.8558,221.3901 188.3637,216.4747 190.4323,214.4265 197.146,214.6723 233.7825,233.5149 238.9437,233.5149 241.5653,231.4668 241.8111,222.7009 235.0933,214.1808 224.5251,204.5956 189.142,184.1965 230.4236,206.6437 240.7461,208.2003 242.5484,204.8414 241.5653,199.6802 237.6329,195.3382 226.8189,187.5554"/>
    <polyline points="206.9114,244.3289 216.0049,248.9986 224.7708,256.4537 229.1128,264.9738 227.884,271.4458 223.7058,273.0024 218.2988,271.2 214.4484,266.7761 211.8268,261.3691 207.4848,245.8855"/>
    <polyline points="227.5563,327.1542 223.2143,327.9735 211.8268,324.6146 198.1782,316.3403 192.7548,310.6875 188.3637,302.1674 188.6259,299.0542 190.4323,296.6784 193.7871,295.9411 197.9161,296.6784 227.5563,312.4898 204.1259,299.3 198.9647,294.8761 191.4645,287.1752 188.1097,277.9178 189.396,275.0504 191.9848,273.4939 199.4562,274.5589 227.5563,289.7149"/>
    <polyline points="132.1192,340.2081 130.3168,338.6515 129.4976,339.3888 130.3168,341.7646 133.1023,342.502 136.4611,340.4539 133.9215,332.753 100.095,301.7853 96.4739,295.3133 95.7038,290.1521 98.8006,286.7932 102.9296,286.3016 108.8527,287.8582 134.6588,302.2769 113.0308,288.8413 104.7401,281.3862 97.7683,273.1118 95.7038,266.3941 98.8006,262.2978 102.9296,261.8063 110.655,263.6086 116.062,266.7217 104.994,256.6451 98.8006,248.6165 95.9578,240.4241 96.22,233.7063 100.095,229.5282 106.2885,228.7909 115.0789,230.839 104.4779,221.7454 99.3167,213.553 95.4499,184.6337 90.7966,169.3958 86.6512,165.7829 83.0465,165.7829 79.4419,168.9043 78.7046,172.2631 78.9503,177.4244 80.7527,182.5856 89.5186,193.1538 95.1877,197.7416 147.6028,227.4801 121.5509,211.4229 109.6719,200.6089 105.5102,194.9562 104.4779,189.7949 108.1154,185.371 112.2116,184.6337 118.9294,186.9276 135.9696,197.4958 143.4247,200.6089 148.0944,200.8547 149.8967,198.8066 150.1425,194.4646 148.3402,190.778 144.7355,186.436 133.9215,178.9809"/>
    <polyline points="114.5055,231.3305 123.599,236.0002 132.3649,243.4553 136.7069,251.9754 135.4781,258.4474 131.2999,260.004 125.8929,258.2017 122.0425,253.7778 119.4209,248.3708 115.0789,232.8871"/>
    <polyline points="116.062,266.7217 123.599,270.5722 129.7434,276.7165 135.4781,286.0559 135.7238,293.511 132.8565,296.3783 126.9579,296.3783 120.9775,294.3302"/>
    <polyline points="116.3078,315.9585 96.7361,304.5874 135.4781,325.4617"/>
  </g>
</svg>
