<?xml version="1.0" encoding="utf-8" ?>
<svg xmlns="http://www.w3.org/2000/svg" xmlns:cc="http://creativecommons.org/ns#" xmlns:dc="http://purl.org/dc/elements/1.1/" xmlns:ev="http://www.w3.org/2001/xml-events" xmlns:inkscape="http://www.inkscape.org/namespaces/inkscape" xmlns:rdf="http://www.w3.org/1999/02/22-rdf-syntax-ns#" xmlns:sodipodi="http://sodipodi.sourceforge.net/DTD/sodipodi-0.dtd" xmlns:xlink="http://www.w3.org/1999/xlink" baseProfile="tiny" height="27.94cm" version="1.2" viewBox="0 0 1632.0 1056.0" width="43.18cm">
  <metadata>
    <rdf:RDF>
      <cc:Work>
        <dc:format>image/svg+xml</dc:format>
        <dc:source>vpype read /Users/cj/Documents/Projects/greeting-cards-2021/outside/11x17/individual/card-outside-with-border.svg pagesize 5.5inx8.5in ldelete 1 splitall linemerge --tolerance 1.2mm linesimplify --tolerance 0.2mm rotate 270 layout -l -h left -v top 11inx17in ldelete 3 write /Users/cj/Documents/Projects/greeting-cards-2021/outside/11x17/individual/outside-11x17-one-per-page-11x17-layer2-left-top.svg
</dc:source>
        <dc:date>2022-02-09T17:33:32.790190</dc:date>
      </cc:Work>
    </rdf:RDF>
  </metadata>
  <defs/>
  <g fill="none" id="layer2" inkscape:groupmode="layer" inkscape:label="2" stroke="#00f" style="display:inline">
    <polyline points="195.2497,59.1353 207.8707,59.1353 207.8707,57.3432 207.8707,59.7454 195.2497,59.7454 195.2497,61.5375 195.2497,57.3432 198.2619,54.3309 195.8502,52.5388 195.2497,49.5265 198.2619,46.5142 203.0663,45.9232 206.0595,47.1243 207.8707,49.5265 206.0595,53.7208 207.8707,54.3309 204.2484,54.3309 206.0595,53.7208"/>
    <polyline points="195.2497,49.5265 197.0513,46.5142 200.0541,45.3322 206.0595,46.5142 207.8707,49.5265"/>
    <polyline points="203.6574,63.9397 201.8462,65.7509 195.2497,66.3419 203.0663,65.7509 203.6574,62.7577 201.8462,59.7454"/>
    <line x1="195.2497" x2="195.2497" y1="68.1531" y2="63.9397"/>
    <polyline points="207.126,75.152 210.2066,78.1183 210.5401,77.3427 203.6574,72.3474 195.8502,72.9575 195.2497,75.9697 197.0513,78.963 195.2497,78.963 195.2497,81.3652 195.2497,79.554 203.6574,79.554 203.6574,77.1518 203.6574,78.963 195.2497,78.963 195.8502,73.5676 203.6574,72.9575 203.6574,70.5553"/>
    <polyline points="195.2497,87.9617 197.0513,84.9685 198.853,84.3774 203.0663,86.1696 203.6574,87.9617 201.8462,91.584 200.6641,91.584 201.2552,92.175 203.6574,89.7729 203.0663,86.7796 200.0541,84.9685 197.0513,85.5595 195.2497,87.9617 197.0513,92.175"/>
    <polyline points="207.8722,99.6804 207.8722,102.0826 197.0527,105.6859 195.2511,103.2837 195.2511,99.6804 195.2511,101.4725 207.8722,101.4725 195.2511,105.6859 207.8722,109.8993 207.8722,112.3015 203.6574,113.8051 203.6574,116.2073 197.0513,116.2073 195.2497,117.9994 195.2497,122.2128 203.6574,122.2128 203.6172,125.8946 205.9308,125.2187 206.6063,124.5432 204.2927,125.2191 203.6574,120.4017 203.6574,122.8038 195.2497,122.8038 195.2497,124.615 195.2497,122.2128 197.0513,122.2128 195.2497,119.2196 195.8502,116.2073 203.6574,115.5973"/>
    <polyline points="203.6574,133.6137 201.8462,135.4249 195.2497,136.0159 203.0663,135.4249 203.6574,132.4317 201.8462,129.4194 203.6574,127.0172 203.6574,129.4194 195.2497,128.8093 203.6574,128.8093"/>
    <polyline points="193.448,148.637 195.2497,141.4304 192.8475,140.2293 191.0554,142.6315 191.6464,148.046 194.6491,148.046 195.2497,142.6315 193.448,140.2293 195.2497,137.8271 195.2497,127.0172"/>
    <polyline points="203.0663,147.4359 203.6574,148.637 202.4563,146.8258 198.2619,146.2348 203.0663,146.2348 203.6574,143.8326 202.4563,142.0214 200.0541,141.4304 197.6519,143.8326 198.2619,146.2348 200.0541,147.4359 203.0663,146.2348 203.0663,142.6315 198.2619,142.6315 198.2619,141.4304 196.4508,140.8394 195.2497,141.4304 195.2497,143.2416 196.4508,140.8394"/>
    <polyline points="195.2497,172.2653 197.0513,170.4541 200.0541,172.2653 202.4563,171.0451 201.8462,170.4541 203.6574,172.2653 202.4563,176.4596 197.0513,177.0697 195.2497,178.8618 197.0513,176.4596 195.2497,174.0574 195.8502,170.4541 199.444,170.4541 200.6641,175.8495 202.4563,176.4596 197.0513,176.4596"/>
    <polyline points="203.6574,194.4761 201.8462,196.2873 195.2497,196.8783 203.0663,196.2873 203.6574,193.275 201.8462,190.2627 203.6574,187.8605 201.8462,189.6717 195.2497,189.6717 203.0663,189.6717 203.6574,186.6785 201.8462,183.6662 203.6574,181.264 203.6574,183.6662 195.2497,183.0561 203.6574,183.0561"/>
    <line x1="195.2497" x2="195.2497" y1="198.6799" y2="181.264"/>
    <polyline points="207.3937,224.3602 210.8079,226.5508 210.4743,227.3264 207.3937,224.3602 203.6574,223.9133 201.8462,220.9201 198.853,220.3291 195.8502,222.1212 195.2497,225.1335 197.0513,228.1267 201.8462,228.1267 203.6574,225.1335 201.8462,221.5111 198.853,220.9201 195.8502,222.7313 195.8502,226.3155 200.0541,228.1267 203.6574,225.1335 204.129,228.8408 206.3265,228.0159 203.4562,229.5181 203.0689,226.3154"/>
    <polyline points="203.6574,231.73 203.6574,234.1322 195.2497,234.1322 207.8707,233.5221"/>
    <line x1="195.2497" x2="195.2497" y1="235.9243" y2="231.73"/>
    <polygon points="210.703,117.2489 210.3695,116.4658 207.2889,119.461"/>
    <polyline points="196.4522,165.6565 207.8722,158.4499 195.2511,165.6565 207.8722,165.6565 207.8722,163.8644 208.6963,170.6059 206.8852,171.807 208.1053,171.216 206.2941,174.2092 208.6963,176.6114 206.2941,174.2092"/>
    <polyline points="207.8722,110.4904 195.2511,110.4904 207.8722,109.8993"/>
    <line x1="195.2511" x2="195.2511" y1="112.3015" y2="108.0881"/>
    <polyline points="207.8722,205.195 207.8722,207.5973 195.2511,211.2006 207.8722,206.9872 195.2511,206.9872 195.2511,205.195 195.2511,211.2006 207.8722,215.414 195.2511,216.005 207.8722,215.414 207.8722,217.8162"/>
    <line x1="195.2511" x2="195.2511" y1="217.8162" y2="213.6028"/>
    <polyline points="207.8722,156.0477 207.8722,158.4499 195.2511,157.8398 195.2511,156.0477 195.2511,159.651"/>
    <polyline points="154.4544,295.6405 153.0567,295.091 153.3862,296.4367 152.5972,296.1763 151.1364,292.2649 151.9545,291.6256 155.068,293.577 154.4544,295.6405 163.5596,307.1882 161.6925,308.0439 163.9082,310.926 165.5041,310.3113 166.7603,308.7952 164.5786,305.9355 163.5596,307.1882 167.408,308.6831 166.201,310.6125 163.6241,311.5653 151.7273,296.1003 149.7501,289.5621 155.5111,293.263 167.408,308.6831"/>
    <polyline points="346.1118,452.0148 349.6649,453.44 352.5896,458.2969 354.535,457.1547 358.5327,457.7258 358.3654,467.2672 354.535,467.4345 352.5896,466.2923 349.9376,470.8677 346.9068,472.5128 330.5488,472.5744 328.0071,471.6601 326.5722,468.9853 326.7318,454.8243 330.1402,452.0359 346.1118,452.0148 345.9685,471.4322 348.9151,470.2851 351.8428,465.4277 353.9639,465.1501 353.9639,459.4391 351.8427,459.1612 347.272,453.3288 332.2621,453.157 332.2621,471.4322 344.8263,471.4322 344.8263,453.157 335.4073,458.5019 340.8476,454.8651 340.8476,458.2037 335.4073,454.8651 340.8476,458.5019 340.8476,460.3203 335.4073,463.9571 340.8476,460.3203 340.8476,463.6588 335.4073,460.3203 340.8476,463.9571 340.8476,466.0737 335.4073,469.4123 340.8476,465.7755 340.8476,469.114 335.4073,465.7755 340.8476,469.114"/>
    <polygon points="357.3905,458.2969 355.1061,458.2969 355.1061,466.2923 357.3905,466.2923"/>
    <polygon points="327.6933,468.5767 328.6763,470.7308 331.1199,471.4322 331.1199,453.157 328.9947,453.6181 327.7247,455.5908"/>
    <polyline points="357.92,281.4549 349.3942,275.4414 341.4955,273.5295 333.4756,275.5145 324.8497,281.4549"/>
    <polyline points="336.0733,288.725 341.0219,286.3782 345.8656,288.725 344.7575,287.8098 346.3753,285.7919 340.4553,288.6152 334.5945,285.7919 330.423,285.4326 338.9749,280.5879 345.1735,281.1892 351.5398,285.4326"/>
    <polyline points="324.7159,268.9296 357.8201,268.9296 324.7159,268.9296 325.5789,270.884 331.3468,275.2805 339.6903,278.0816 347.4081,276.5022 355.7075,270.884"/>
    <polyline points="331.2136,278.4166 336.2629,282.036 341.2755,283.3612 346.4747,282.1206 351.8511,278.4166"/>
    <polyline points="357.92,399.455 349.3942,393.4414 341.4955,391.5296 333.4756,393.5145 324.8497,399.455"/>
    <polyline points="336.0733,406.7251 341.0219,404.3783 345.8656,406.7251 344.7575,405.8099 346.3753,403.792 340.4553,406.6153 334.5945,403.792 330.423,403.4327 338.9749,398.588 345.1735,399.1892 351.5398,403.4327"/>
    <polyline points="324.7159,386.9296 357.8201,386.9296 324.7159,386.9296 325.5789,388.8841 331.3468,393.2806 339.6903,396.0817 347.4081,394.5023 355.7075,388.8841"/>
    <polyline points="331.2136,396.4167 336.2629,400.036 341.2755,401.3613 346.4747,400.1206 351.8511,396.4167"/>
    <polygon points="328.6446,444.6688 327.8559,445.9397 326.4313,444.1989 327.2453,439.1924 329.629,437.2717 333.9201,436.3754 329.1109,432.6715 326.6327,427.9785 326.5942,423.2505 329.1963,418.7928 334.6929,415.2509 341.8442,413.8975 348.4815,415.1268 353.9329,418.6599 357.5639,424.0044 358.2231,429.4538 355.508,434.504 350.1678,438.0284 356.5998,439.2385 357.3827,443.0493 342.436,439.9168 331.7512,440.941 329.5519,442.2416"/>
    <polygon points="334.4283,432.7913 341.6793,435.7848 348.0723,434.299 354.6252,429.8925 355.9341,427.5205 355.6767,425.0002 352.8384,421.4631 347.4532,418.6617 341.9039,417.9768 336.1737,419.0832 331.0264,422.2414 328.7376,426.2855 329.7967,429.4901"/>
    <polygon points="349.5557,349.4913 345.7969,351.9602 340.8424,352.8563 331.4853,349.9627 327.6539,352.9946 335.0034,355.5968 343.2982,355.8236 337.9983,361.5493 326.8241,360.6064 326.8878,365.5913 335.1889,364.2438 327.1434,373.1364 329.1867,375.4265 334.0184,373.3602 340.632,372.9534 349.875,376.4372 352.2375,373.9446 344.288,370.3198 333.9757,370.172 339.5168,364.1321 347.2074,367.026 353.8977,371.452 357.7929,367.8142 344.7669,363.0315 357.7289,357.9116 353.9617,354.2069 342.7235,360.6065 352.2375,352.5226"/>
    <polyline points="341.989,312.7065 341.989,303.7993 335.5377,304.6058 335.5377,311.8635 341.989,312.7065 343.4932,314.3736 333.7444,313.2224 334.0444,303.0201 343.5014,302.1349 344.2976,308.4393 343.4932,314.3736 345.7278,316.0421 346.9633,310.3321 353.9386,309.9574 353.9386,306.5485 347.2904,306.4467 345.6393,300.0683 344.4052,299.1791 327.496,301.3223 327.496,315.1469 344.0051,317.2884 345.7278,316.0421 347.6339,316.4087 346.3984,318.4196 344.1683,319.1908 327.22,317.0652 325.0087,314.5765 325.6131,300.4661 327.6203,299.3274 344.5652,297.3083 347.3388,299.3129 348.5136,304.6424 359.6703,305.1203 359.3255,311.7304 348.5503,311.8635 347.6339,316.4087"/>
    <polygon points="357.8973,309.9207 357.8973,306.5118 355.8813,306.5118 355.8813,309.9207"/>
    <polygon points="331.2124,312.1567 330.2594,313.1464 329.3064,312.1933 329.3064,304.3125 330.2594,303.3595 331.2124,304.3125"/>
    <polyline points="342.0334,240.7961 331.1177,241.3505 342.5878,241.3505 340.4047,238.6129"/>
    <polyline points="331.1177,248.2464 342.0334,248.2464 340.4047,246.0633 342.5878,248.8009 331.1177,248.8009 331.1177,250.984 331.1177,238.6129"/>
    <polyline points="352.6506,253.4302 352.6506,251.6254 350.8684,250.9238 352.6506,249.8205 352.6506,238.9915 350.8684,238.2898 352.6506,237.1866 352.5594,234.5789 350.6064,232.1307 347.2361,231.7721 347.2361,257.0399 350.6064,256.6813 352.6506,253.4302 354.4555,253.4302 353.3755,256.675 349.041,258.8448 330.6062,258.831 327.4467,257.5223 325.5779,253.4302 325.5917,234.9955 326.9005,231.836 330.9925,229.9672 349.4272,229.981 352.2858,231.0472 354.1141,233.4896 354.4555,237.1866 356.2377,237.8882 354.4555,238.9915 354.4555,249.8205 356.2377,250.5221 354.4555,251.6254 354.4555,253.4302"/>
    <polygon points="330.9925,257.0399 345.4313,257.0399 345.4313,231.7721 330.5885,231.7952 327.9373,233.4622 327.4059,253.8342 328.743,256.2511"/>
    <polygon points="349.5557,169.4912 345.7969,171.96 340.8424,172.8562 331.4853,169.9626 327.6539,172.9945 335.0034,175.5967 343.2982,175.8235 337.9983,181.5492 326.8241,180.6063 326.8878,185.5912 335.1889,184.2437 327.1434,193.1363 329.1867,195.4264 334.0184,193.3601 340.632,192.9533 349.875,196.4371 352.2375,193.9445 344.288,190.3197 333.9757,190.1719 339.5168,184.1319 347.2074,187.0258 353.8977,191.4519 357.7929,187.8141 344.7669,183.0314 357.7289,177.9115 353.9617,174.2068 342.7235,180.6064 352.2375,172.5224"/>
    <polygon points="342.0368,161.4425 335.1247,160.0747 332.2084,154.4076 335.145,158.8138 338.2754,160.4377 342.1994,160.3653 345.7819,158.0684 349.0603,152.5169 347.8704,151.101 349.6015,151.6697 353.5094,147.9939 354.9167,144.9155 354.6049,140.8035 352.4071,137.7224 348.4831,136.3009 344.462,137.2548 344.2169,136.2642 350.6151,135.6688 355.2422,139.7276 355.5874,146.2087 346.9369,158.2817"/>
    <polyline points="337.0093,149.5795 335.1648,149.2277 336.6574,148.7303 340.8196,151.236 343.0789,145.0381 343.0954,142.5137 341.8825,142.0163 343.0361,141.5189 341.9613,135.7425 338.3898,131.3884 333.8975,131.0694 330.3087,133.9273 329.5402,135.3011 330.686,135.7985 329.1478,136.2914 328.4856,139.2489 328.4289,145.8348 329.9966,150.0719 332.6676,152.4219 336.3507,153.1997 340.8196,151.236 341.5627,151.8979 337.57,154.0567 332.3985,153.3922 328.9605,150.2815 327.3493,145.2436 328.7089,134.7333 331.2274,131.4297 334.6651,129.8848 340.0535,131.2435 343.1586,136.1526 344.0039,145.842 341.5627,151.8979"/>
    <polygon points="337.1551,134.305 335.1648,134.305"/>
    <polygon points="336.1598,141.7664 334.1696,141.7664"/>
    <polygon points="349.5997,141.5172 351.254,142.2918"/>
    <polygon points="345.1167,146.4914 346.7756,147.266"/>
    <polygon points="338.1525,156.4399 339.8091,157.2145"/>
    <polygon points="327.1876,121.6111 326.3989,122.882 324.9744,121.1412 325.7884,116.1348 328.1721,114.2141 332.4631,113.3178 327.6539,109.6139 325.1757,104.9208 325.1372,100.1928 327.7394,95.7352 333.236,92.1933 340.3873,90.8398 347.0245,92.0692 352.4759,95.6022 356.107,100.9468 356.7661,106.3962 354.0511,111.4464 348.7108,114.9707 355.1428,116.1809 355.9258,119.9917 340.979,116.8592 330.2942,117.8834 328.0949,119.1839"/>
    <polygon points="332.9714,109.7336 340.2223,112.7272 346.6153,111.2414 353.1682,106.8349 354.4771,104.4629 354.2198,101.9426 351.3814,98.4055 345.9963,95.604 340.447,94.9192 334.7168,96.0256 329.5695,99.1838 327.2807,103.2279 328.3397,106.4324"/>
    <polyline points="328.8932,50.0566 329.6788,51.7014 332.1094,52.5683 334.54,51.7014 335.3255,50.0566 332.5671,47.5705 330.0033,48.1584 329.2592,50.0566 326.2767,50.0566 326.3403,48.6024 326.3403,84.6318 325.508,85.2485 325.0558,48.6689 326.3403,48.6024"/>
    <polyline points="333.3681,64.7253 325.7003,64.7253 325.7003,63.4405 333.3681,63.4405 333.3714,68.5748 325.7003,68.5748 325.7003,69.8595 333.3714,69.8595 333.3714,68.5748 334.6895,68.584 334.2069,60.8544 333.404,61.511 333.5376,72.2001 334.6888,71.789 334.6895,68.584 337.0514,67.8411 337.8625,64.3288 340.781,64.7971 340.4382,68.1839 337.0514,67.8411 337.8625,70.3269 340.781,70.7952 340.9065,73.3709 337.3942,74.182 336.9259,71.2635 337.8625,70.3269 342.0599,71.2635 345.5721,70.4524 345.915,73.8392 342.1854,73.8392 342.5282,64.4543 346.0404,65.2654 345.5721,68.1839 342.9965,68.3094 346.9259,67.3728 347.3942,64.4543 350.781,64.7971 350.4382,68.1839 346.9259,67.3728 347.8625,70.3269 350.781,70.7952 350.4382,74.182 347.0514,73.8392 347.8625,70.3269"/>
    <polyline points="326.9728,56.0523 352.9779,56.0523 356.0042,58.8627 353.6943,59.6144 353.6954,62.0436 356.006,62.7931 357.4329,60.8272 356.0042,58.8627 359.3192,57.4203 359.3192,74.9158 352.8946,75.6418 352.8946,74.1842 358.0336,74.1842 358.0336,58.152 352.8946,58.152 352.8946,56.6944 359.3192,57.4203"/>
    <polyline points="346.0404,59.2635 342.5282,58.4524 342.1854,61.8392 345.5721,62.182 346.0404,59.2635 349.9699,58.3269 347.0514,58.7952 346.9259,61.3709 350.4382,62.182 350.4382,58.4524 352.9779,56.0523 352.9779,76.2211 326.9728,76.2211"/>
    <polygon points="340.9065,59.2635 337.3942,58.4524 337.0514,61.8392 340.4382,62.182"/>
    <polyline points="328.8932,83.3003 329.6788,84.9451 332.1094,85.812 334.54,84.9451 335.3255,83.3003 334.54,81.6555 332.1094,80.7886 329.6788,81.6555 329.2592,83.3003 326.2767,83.3003"/>
    <polyline points="353.6943,70.1026 353.6954,72.5318 356.006,73.2813 357.4329,71.3154 356.0042,69.3509 353.6943,70.1026 353.6954,67.2877 356.006,68.0372 357.4329,66.0713 356.0042,64.1068 353.6943,64.8585 353.6954,67.2877"/>
    <polygon points="78.7966,187.4894 77.6398,187.2829 80.5964,191.5672 84.4848,202.54 88.6291,204.0609 82.6909,189.8423"/>
    <polygon points="57.817,52.1155 56.6894,52.4224 56.6894,53.8007 69.5585,59.2141 57.4741,62.1902 56.6892,65.2765 63.196,62.5885 74.6542,60.2952 74.4744,58.1891 61.509,53.8609 75.0528,50.6632 80.1262,64.1247 84.2615,65.304 80.3893,58.8381 78.0047,47.6779"/>
    <polygon points="57.0354,85.2212 56.6892,87.5105 61.4608,84.9143 75.9204,80.4061 77.5109,77.2302"/>
    <polygon points="56.9696,110.1154 56.6892,111.6723 75.9204,103.3432 79.287,116.9328 81.25,116.9328 84.7406,106.8794 86.7522,117.2599 89.9594,118.6863 85.3333,102.0281 83.7149,102.0281 80.6206,111.4709 77.4369,99.6901 58.2796,107.917"/>
    <polygon points="56.9696,142.4327 56.6892,143.9896 75.9204,135.6605 79.287,149.2501 81.25,149.2501 84.7406,139.1967 86.7522,149.5772 89.9594,151.0036 85.3333,134.3454 83.7149,134.3454 80.6206,143.7882 77.4369,132.0074 58.2796,140.2343"/>
    <polygon points="57.0354,181.2766 56.6892,183.566 61.4608,180.9697 75.9204,176.4615 77.5109,173.2856"/>
    <polygon points="56.9725,227.6233 56.6892,229.1747 67.9676,232.0524 57.9905,233.9842 56.6892,234.473 56.6892,236.1746 70.0276,238.8598 73.7514,241.0076 72.8488,238.2834 71.2933,237.4714 62.705,235.5974 74.0406,232.9779 74.0406,230.9805 62.6794,228.364 76.278,226.5488 79.5824,241.2393 82.1858,241.063 88.5633,224.2251 84.7995,225.2816 81.1815,235.9758 78.6033,223.1084"/>
    <polygon points="78.4559,256.6802 77.2992,256.4736 80.2558,260.758 84.1442,271.7307 88.2884,273.2517 82.3503,259.033"/>
    <polygon points="57.0354,297.7994 56.6892,300.0888 61.4608,297.4925 75.9204,292.9843 77.5109,289.8084"/>
    <polygon points="57.116,309.9975 56.7549,311.255 68.7934,315.8672 57.577,319.0208 56.6892,322.0099 61.7597,319.7746 73.599,317.3606 73.3603,315.3002 61.5343,311.327 76.2424,308.1224 77.8713,305.7833"/>
    <polygon points="78.7966,359.2874 77.6398,359.0809 80.5964,363.3652 84.4848,374.338 88.6291,375.8589 82.6909,361.6403"/>
    <polygon points="57.0354,351.0535 56.6892,353.3428 61.4608,350.7465 75.9204,346.2383 77.5109,343.0624"/>
    <polygon points="78.7966,391.6259 77.6398,391.4193 80.5964,395.7037 84.4848,406.6765 88.6291,408.1977 82.6909,393.979"/>
    <polygon points="57.0354,429.8784 56.6892,432.1677 61.4608,429.5714 75.9204,425.0632 77.5109,421.8873"/>
    <polygon points="57.3335,451.1731 56.6892,452.6661 57.6919,453.2443 69.6768,458.2573 57.5624,461.6739 56.9033,464.7806 63.8194,462.001 74.4861,459.8051 74.3083,457.4846 61.4774,452.984 75.1677,449.6585 78.5368,463.518 80.7297,463.518 84.049,453.6683 86.2545,464.5046 89.0426,465.4955 84.4402,447.6981 82.9472,447.8898 79.8948,457.4292 78.0887,446.4669"/>
    <polyline points="155.4177,51.992 161.0136,57.5149 155.4177,63.0379 156.5118,64.1075 163.1915,57.5149 156.5118,50.9121 155.4177,51.992 152.3957,49.6471 164.7338,49.6471 164.7338,65.3828 152.3957,65.3828 152.3957,49.6471 150.8534,48.1249 150.8534,66.905 166.2761,66.905 166.2761,48.1249 150.8534,48.1249"/>
    <polyline points="150.8534,70.4635 150.8534,85.6851 166.2761,85.6851 166.2761,70.4635 150.8534,70.4635 152.9063,72.4897 164.2232,72.4897 164.2232,83.659 152.9063,83.659 152.9063,72.4897"/>
    <polygon points="160.5238,112.7753 165.1193,115.1511 150.8534,115.8196 150.8534,117.3521 160.1591,117.3521 165.1193,119.7381 150.2698,120.5506 149.1131,117.3521 147.7897,117.3521 148.9464,120.8489 146.7372,122.0008 146.7372,123.7904 149.8113,122.2168 153.1587,125.8229 157.2444,126.961 163.0143,124.4794 159.7735,121.9185 166.5574,120.6843 166.2761,119.2136 163.0144,117.3521 166.5574,116.0562 166.2761,114.5649 163.2228,112.7753 166.2761,111.6028 166.2761,109.9984 162.8866,111.2117 150.8534,111.2532 150.8534,112.7753"/>
    <polygon points="151.2598,121.9185 157.3768,121.9185 160.4022,124.1578 155.6539,125.2406"/>
    <polyline points="150.8534,142.8584 152.9063,144.8845 166.2761,144.8845 166.2761,131.6891 164.2232,129.663 150.8534,129.663 150.8534,142.8584 151.885,141.8402 151.8746,130.6813 163.1915,130.6709 163.1915,141.8402 151.885,141.8402"/>
    <polyline points="157.7156,150.9859 160.8006,149.4732 163.0581,151.3701 162.8877,153.5596 160.7768,155.1146 157.9549,153.9578 156.8241,150.4571 156.3944,152.6629 159.526,156.095 162.0723,155.7918 163.9627,153.8323 164.6554,160.3924 162.5246,167.8402 164.2023,167.8402 166.2825,159.657 164.5775,151.5182 161.3515,148.5647 158.7862,148.7028 156.8241,150.4571 152.9271,148.4225 151.1043,154.0924 151.0433,159.9027 152.8109,165.1621 155.7819,167.6976 159.6068,166.7089 160.6808,163.2198 157.2211,160.1136 154.6778,160.6717 153.1668,162.4201 152.484,155.8704 154.6048,148.4225 152.9271,148.4225"/>
    <polygon points="156.814,161.114 158.8669,161.947 159.7214,163.9834 158.8669,165.989 156.7932,166.822 154.7612,165.9993 153.9379,163.9937 154.782,161.9573"/>
    <polygon points="160.5238,174.1551 165.1193,176.5309 150.8534,177.1994 150.8534,178.7319 160.1591,178.7319 165.1193,181.1179 150.2698,181.9304 149.1131,178.7319 147.7897,178.7319 148.9464,182.2287 146.7372,183.3806 146.7372,185.1702 149.8113,183.5966 153.1587,187.0948 157.2444,188.231 163.0143,185.8592 159.7735,183.2983 166.5574,182.0641 166.2761,180.5934 163.0144,178.7319 166.5574,177.436 166.2761,175.9447 163.2228,174.1551 166.2761,172.9827 166.2761,171.3782 162.8866,172.5915 150.8534,172.633 150.8534,174.1551"/>
    <polygon points="151.2598,183.2983 157.3768,183.2983 160.4022,185.5374 155.6539,186.5106"/>
    <polyline points="153.4809,200.9174 157.0593,199.5289 158.7135,201.9934 159.0858,205.7707 154.2675,202.6949 151.7525,197.373 152.9667,193.5447 157.0152,193.1791 159.3254,195.6915 151.6766,199.8569 148.1238,204.8682 147.5921,209.4557 149.332,213.3917 153.3912,215.5183 156.5535,213.978 154.98,212.3221 153.7206,213.7274 151.3319,213.7925 148.8292,211.4273 149.1236,206.6028 152.6874,201.5745 159.0858,207.3237 161.1797,213.9572 163.063,214.9347 165.1703,214.2765 163.9835,212.4969 162.8864,213.5337 161.1528,212.991 160.2257,202.226 157.0537,198.777 159.8152,197.6148 162.0234,201.3302 164.9651,201.9702 166.6333,199.8935 165.3278,196.3703 163.1375,195.1072 159.9298,195.5167 157.2108,191.5363 153.3083,190.8373 150.5244,194.2692 151.6766,199.8569"/>
    <polygon points="160.4092,197.3885 164.5541,197.0273 165.8928,199.3484 163.0816,200.2318"/>
    <polygon points="150.8534,219.1101 150.8534,220.6322 160.5134,220.6322 165.1506,223.008 150.8534,223.6765 150.8534,225.1987 160.1695,225.1987 165.1506,227.5745 149.6275,228.7905 148.2951,230.3257 148.0294,233.4471 146.5288,233.4471 148.6546,235.8538 150.8534,233.4471 149.3111,233.4471 150.4392,230.0351 163.4043,229.7247 166.5783,228.5413 166.2761,227.0397 163.0769,225.1987 166.5783,223.8925 166.2761,222.4218 163.2436,220.6322 166.2761,219.4598 166.2761,217.8245 162.7446,219.0744"/>
    <polygon points="152.3957,239.4226 152.3957,255.7858 153.9379,255.7858 153.9379,239.4226"/>
    <polygon points="158.4605,245.8918 160.2344,244.429 162.647,244.493 164.706,248.055 161.8157,250.9447 157.0225,249.3166 157.0225,255.7858 158.5647,255.7858 158.5647,251.2604 162.9364,252.2626 166.219,248.3852 165.9192,245.7503 163.9421,243.4296 161.0471,242.7433 158.5647,243.9582 158.5647,239.4226 157.0225,239.4226 157.0225,245.8918"/>
    <polygon points="158.3146,264.1987 158.3146,267.3459 152.0981,269.341 150.4678,270.5548 150.4678,272.2106 154.3928,269.6247 158.3146,268.8578 158.3146,272.0975 159.4713,272.0975 159.4713,268.8578 166.6616,272.2106 166.6616,270.637 165.1198,269.4057 159.4713,267.3459 159.4713,264.1987 165.1198,262.139 166.6616,260.9076 166.6616,259.334 159.4713,262.6869 159.4713,259.4472 158.3146,259.4472 158.3146,262.6869 154.3928,261.92 150.4678,259.334 150.4678,260.9899 152.0981,262.2015"/>
    <polygon points="148.144,329.4559 149.134,328.5612 147.9304,325.6994 149.5189,324.2435 160.2437,328.1189 164.8156,327.6587 167.367,324.3691 166.9859,320.0056 163.774,317.3858 158.7314,318.3586 157.4479,314.0673 153.0041,313.6393 150.8719,316.7773 152.3318,320.2632 155.0676,321.1611 163.637,318.9204 165.8609,320.7421 166.109,323.9434 164.522,326.0769 161.6548,326.7519 148.9093,322.8051 146.5137,325.5809"/>
    <polygon points="154.9175,314.327 156.9495,315.1395 157.7936,317.1039 156.9495,319.0991 154.8966,319.9116 152.8542,319.0888 152.0101,317.1244 152.8437,315.1292"/>
    <polygon points="150.8534,334.3001 150.8534,335.8223 160.5134,335.8223 165.1506,338.1981 150.8534,338.8666 150.8534,340.3887 160.1695,340.3887 165.1506,342.7645 149.6275,343.9805 148.2951,345.5157 148.0294,348.6371 146.5288,348.6371 148.6546,351.0438 150.8534,348.6371 149.3111,348.6371 150.4392,345.2252 163.4043,344.9147 166.5783,343.7313 166.2761,342.2297 163.0769,340.3887 166.5783,339.0825 166.2761,337.6118 163.2436,335.8223 166.2761,334.6498 166.2761,333.0145 162.7446,334.2644"/>
    <polygon points="158.3146,396.9964 158.3146,400.1435 152.0981,402.1386 150.4678,403.3524 150.4678,405.0082 154.3928,402.4223 158.3146,401.6554 158.3146,404.8951 159.4713,404.8951 159.4713,401.6554 166.6616,405.0082 166.6616,403.4347 165.1198,402.2033 159.4713,400.1435 159.4713,396.9964 165.1198,394.9366 166.6616,393.7052 166.6616,392.1316 159.4713,395.4845 159.4713,392.2448 158.3146,392.2448 158.3146,395.4845 154.3928,394.7176 150.4678,392.1316 150.4678,393.7875 152.0981,394.9992"/>
    <polygon points="153.198,418.1728 152.1351,418.8722 155.0946,423.3152 152.1351,424.5597 155.0946,428.9616 152.1351,430.1958 155.0946,434.6388 152.1351,435.8627 152.6666,437.0455 157.0225,435.2148 154.063,430.7923 157.0225,429.5581 154.063,425.1356 157.0225,423.8809"/>
    <polyline points="160.517,412.6692 158.9767,410.1327 157.5173,409.8966 158.5647,414.6348 162.931,411.5905 158.5647,408.5462 154.1984,411.5905 158.5647,414.6348 163.0665,423.3257 160.107,424.5598 163.0665,428.9618 160.107,430.1959 163.0665,434.6493 160.107,435.8732 160.6385,437.0559 164.9943,435.2252 162.0348,430.8027 164.9943,429.5686 162.0348,425.1461 164.9943,423.8913 161.1699,418.1833"/>
    <polygon points="150.8534,441.8793 150.8534,443.4015 160.5134,443.4015 165.1506,445.7773 150.8534,446.4458 150.8534,447.9679 160.1695,447.9679 165.1506,450.3437 149.6275,451.5597 148.2951,453.0949 148.0294,456.2164 146.5288,456.2164 148.6546,458.623 150.8534,456.2164 149.3111,456.2164 150.4392,452.8044 163.4043,452.4939 166.5783,451.3105 166.2761,449.8089 163.0769,447.9679 166.5783,446.6618 166.2761,445.191 163.2436,443.4015 166.2761,442.229 166.2761,440.5937 162.7446,441.8436"/>
    <polyline points="164.1133,95.3904 165.472,98.0746 164.7907,99.4492 158.3981,90.5246 158.5647,89.2231 167.2973,97.8315 158.5647,106.4502 149.8426,97.8315 158.5647,89.2231 157.5414,92.3532 162.1784,102.1679 160.8198,102.1043 155.3223,93.5603 154.4656,95.3889 159.1652,104.2764 156.863,103.6353 152.4727,96.4569 151.2011,97.3782 151.5846,98.8559"/>
    <polyline points="165.8036,281.4002 164.2621,282.912 158.5647,275.7486 167.2973,281.8372 158.5647,287.9258 149.8426,281.8372 158.5647,275.7486 161.9698,284.9316 160.5104,284.6956 156.2893,278.3335 155.286,279.9116 158.5899,286.3041 156.0346,285.1275 153.0996,280.6472 151.6867,281.3269 152.0534,282.7758"/>
    <polyline points="156.7664,356.4709 158.3067,359.0074 159.7661,359.2435 158.5647,354.6126 154.1984,357.6569 158.5647,360.7012 162.931,357.6569 158.5647,354.6126"/>
    <polyline points="165.8036,369.8908 164.2621,371.4026 158.5647,364.2392 167.2973,370.3278 158.5647,376.4164 149.8426,370.3278 158.5647,364.2392 161.9698,373.4222 160.5104,373.1862 156.2893,366.8241 155.286,368.4023 158.5899,374.7947 156.0346,373.6181 153.0996,369.1378 151.6867,369.8175 152.0534,371.2665"/>
    <polyline points="157.4623,386.78 156.4734,382.7342 159.6225,385.9645 160.9028,385.1249 158.5647,379.9544 154.1984,384.2638 158.5647,388.5628 162.931,384.2638 158.5647,379.9544"/>
    <polyline points="158.3376,463.3463 160.517,466.3148 158.794,467.5162 157.2356,464.4908 158.5647,462.1918 154.1984,465.2362 158.5647,468.2805 162.931,465.2362 158.5647,462.1918"/>
    <polygon points="304.9296,47.6919 304.9296,103.8384 302.4101,103.8384 302.4101,99.2075 281.3749,99.2075 281.3749,96.6899 302.4101,96.6899 302.4101,89.4302 281.3749,89.4302 281.3749,86.9126 290.6893,86.9126 288.1771,84.1288 287.2265,80.1899 288.2705,75.8868 290.9482,72.8452 295.7245,70.9497 295.1962,74.7531 297.2163,76.9681 302.4101,74.4868 302.4101,65.4868 281.3749,65.4868 281.3749,62.9692 293.8729,62.9692 293.8729,56.1919 290.6327,55.3032 290.1394,53.9297 291.8554,50.8403 295.1522,48.9516 296.3925,50.3208 296.3925,62.9692 302.4101,62.9692 302.4101,47.6919"/>
    <polygon points="302.4101,77.3755 299.4123,79.1881 296.097,79.3647 293.7627,77.6722 292.9667,74.4126 290.0813,78.0216 290.244,82.6157 294.8925,86.9126 302.4101,86.9126"/>
    <polygon points="304.9296,112.1333 304.9296,171.7974 302.4101,171.7974 302.4101,167.1685 281.3749,167.1685 281.3749,164.6509 293.5038,164.6509 288.0956,157.1685 290.1522,155.5025 291.9843,156.4458 293.3729,155.6314 294.0007,153.1643 292.6961,150.7924 287.643,151.145 282.6327,156.2427 280.8749,154.9283 285.1522,150.0616 290.324,147.804 293.8785,148.5066 296.2069,151.5201 295.6099,156.7263 291.7987,158.2427 296.2616,164.649 302.4101,164.649 302.4101,142.2427 281.3749,142.2427 281.3749,139.7251 302.4101,139.7251 302.4101,132.4673 281.3749,132.4673 281.3749,129.9302 291.7636,129.9302 291.7636,121.0962 290.5409,117.856 282.1151,126.5962 280.3553,124.8931 286.5612,117.9839 293.5038,113.3931 294.9472,115.2817 293.0225,116.9901 293.6698,118.9302 302.4101,119.4478 302.4101,112.1333"/>
    <polygon points="302.4101,121.9673 294.2811,121.9673 294.2811,129.9302 302.4101,129.9302"/>
    <polygon points="304.9296,180.0572 304.9296,279.1451 302.41,279.1451 302.41,264.7389 296.41,264.7389 298.277,267.8223 298.0252,271.6306 295.7271,274.1562 291.9901,274.9012 288.561,273.4419 286.0956,270.1451 288.0038,268.8678 290.6575,271.8825 294.1522,272.1646 295.8857,269.7819 294.7905,266.4616 292.6893,264.7389 281.3749,264.7389 281.3749,262.2017 289.1151,262.2017 286.8538,259.2041 286.8541,255.5196 289.0689,252.2947 292.7069,251.1646 295.9851,252.2812 298.1747,255.3205 298.2935,258.5332 296.6151,262.2017 302.4101,262.2017 302.4101,242.776 293.0956,242.5728 290.8358,240.9244 290.5409,238.6646 282.1151,247.4049 280.3553,245.7017 286.5612,238.7925 293.5038,234.2017 294.9472,236.0924 293.0225,237.7997 293.6698,239.7388 302.4101,240.2584 302.4101,228.6841 281.3749,228.6841 281.3749,226.1666 302.4101,226.1666 302.4101,218.9068 281.3749,218.9068 281.3749,216.3892 288.8729,216.3892 287.2412,212.8473 287.522,208.5717 289.7175,205.0875 293.2559,203.3663 295.9262,203.7258 298.3712,205.8415 299.7508,209.2898 299.5228,212.6248 299.0956,213.8326 297.2616,213.2037 297.744,209.5552 290.1539,214.5745 292.4322,216.352 302.4101,216.3892 302.4101,197.8521 281.4432,197.8521 279.116,201.0325 275.0808,201.8974 271.0142,199.5224 269.5691,194.5544 271.2144,189.337 275.1893,184.9634 277.0409,186.7056 273.5609,190.5535 272.1108,194.4349 274.1346,198.9634 276.705,199.3007 278.6092,197.9609 278.9296,195.6861 277.4491,193.8345 278.9862,192.0747 281.4178,195.3345 291.3358,195.3345 291.3358,188.5572 287.5956,186.649 289.3378,183.2056 292.6327,181.315 293.7851,182.0842 293.8729,185.3521 302.4101,185.3521 302.4101,180.0572"/>
    <polygon points="302.4101,187.8716 293.8729,187.8716 293.8729,195.3345 302.4101,195.3345"/>
    <polygon points="297.244,207.981 295.2023,205.8083 292.244,206.0377 289.5585,209.1295 289.3007,212.6666"/>
    <polygon points="295.91,257.442 294.91,254.7017 292.5038,253.7017 290.1345,254.6128 289.078,257.108 289.8358,259.6822 292.3729,262.2018 294.1893,262.2018"/>
    <polygon points="315.6327,302.8658 313.6153,307.8679 304.9296,312.0142 304.9296,316.6802 302.4101,316.6802 302.4101,312.0513 281.3749,312.0513 281.3749,309.5318 302.4101,309.5318 302.4101,301.0142 297.1151,301.0142 296.2213,291.5143 292.5038,292.5338 292.6583,298.994 289.0214,302.6432 285.675,302.1296 283.3554,299.3287 285.0214,297.9596 287.6035,300.2222 290.2332,298.9962 290.9205,294.7298 288.578,291.4967 283.5617,292.2783 279.0233,298.0318 277.3749,296.9947 280.3539,292.2375 284.1151,289.3111 287.9089,288.7025 291.2811,290.5514 295.2987,288.6451 298.7199,290.9795 299.2245,298.4947 302.4101,298.4947 302.4101,287.3854 304.9296,287.3854 304.9296,309.6432 311.9346,306.1342 313.0808,303.3609 312.5761,300.3111 315.039,299.4401"/>
    <polygon points="259.702,445.8379 239.5783,448.6938 239.2137,455.6036 243.1829,454.3438 246.1823,455.1091 248.3336,457.7687 248.9696,461.6389 248.0108,464.8828 245.4051,467.42 245.2098,458.1622 243.9619,456.681 241.4988,457.5958 239.409,460.0958 241.909,471.0919 238.3543,469.7442 235.9245,458.4078 236.5612,447.6625 240.3248,446.1938 252.766,445.0895 255.9129,443.4356"/>
    <polygon points="235.8159,443.0644 239.2143,443.0643 243.4721,439.5292 244.348,436.6944 242.6622,433.9883 240.5815,432.8691 240.0151,433.7675 241.4487,436.5362 239.2143,439.6659 237.905,433.2896 235.1128,430.605 231.8736,430.3312 221.6167,433.3183 225.2814,433.7683 233.8186,432.2857 235.4284,436.0777"/>
    <polygon points="252.1629,365.7207 247.6129,370.188 239.2137,371.6387 239.2137,379.9981 242.4467,379.566 245.1512,377.6153 248.3348,379.1387 245.0519,381.0463 239.2137,381.4238 240.8738,388.0059 242.6243,386.1602 241.9871,384.1387 244.1294,384.2095 246.2403,385.5203 246.8113,388.8653 244.9528,394.02 242.8527,394.0153 240.3074,391.6192 239.3895,393.2415 239.6618,402.2192 244.8582,403.5332 239.824,406.1081 239.3754,410.7395 240.3221,412.0098 244.8582,412.7325 240.2452,414.2449 239.3504,416.7022 241.1668,417.3115 243.9988,415.6426 246.1277,416.9122 240.5027,420.4356 235.8152,420.4356 237.1238,413.1426 235.8439,409.7394 237.0457,403.8653 235.8787,401.1211 235.8276,393.951 238.4324,389.4707 235.8653,383.0877 235.9184,362.0324 237.5584,360.053 240.659,360.3691 239.2462,362.3809 239.2137,370.4473 245.2091,369.2894 248.3738,365.4277"/>
    <polyline points="230.1512,376.834 227.3191,375.3496 228.9598,372.1855 231.7918,373.6309 230.1512,376.834 233.5691,378.1035 231.909,381.3262 229.0965,379.8027 230.7762,376.6387 233.5691,378.1035"/>
    <polygon points="105.4573,54.7832 107.7546,49.3225 112.3428,47.588 116.8485,49.4189 119.0378,55.6826 121.6397,58.2202 124.432,57.9953 126.7483,54.2692 124.1464,50.511 121.0368,50.7359 118.9427,53.0486 117.261,59.0232 111.8668,61.336 108.056,59.9226"/>
    <polyline points="126.2406,76.9213 126.2406,80.3519 105.8571,80.3519"/>
    <polyline points="126.2406,94.3392 126.2406,97.7698 105.8571,97.7698"/>
    <polyline points="118.9426,102.853 120.8465,108.6348 119.1648,112.6821 113.3581,115.6052 108.4558,114.1918 105.7572,109.8233 105.8571,105.4869 108.3575,101.9536 112.6601,100.1226 117.4513,101.536 126.5579,109.4379"/>
    <polyline points="126.2406,131.2868 126.2406,134.7174 105.8571,134.7174"/>
    <polyline points="118.9426,139.8008 120.8465,145.5827 119.1648,149.63 113.3581,152.5531 108.4558,151.1397 105.7572,146.7712 105.8571,142.4348 108.3575,138.9014 112.6601,137.0705 117.4513,138.4838 126.5579,146.3857"/>
    <polyline points="105.8571,183.9357 105.8571,169.7541 115.0398,182.7151 119.4503,183.9357 122.1474,183.4218 125.6377,180.2739 126.2406,173.5926 123.1628,169.9628 118.9427,168.7422"/>
    <polyline points="126.3358,201.5382 126.3358,190.5848 117.5465,189.7817 120.7513,194.4394 120.2436,199.4182 117.0388,202.8552 114.4687,203.851 109.2649,202.8552 105.8571,198.6794 105.5573,195.8527 107.0565,191.5163 110.7563,188.7795"/>
    <polyline points="126.2406,223.2508 126.2406,226.6813 105.8571,226.6813"/>
    <polyline points="108.5542,244.1878 108.5542,232.0458 125.4473,241.5538 105.7572,241.5538"/>
    <polyline points="126.3358,270.0212 126.3358,259.0678 117.5465,258.2648 120.7513,262.9224 120.2436,267.9012 117.0388,271.3382 114.4687,272.334 109.2649,271.3382 105.8571,267.1624 105.5573,264.3357 107.0565,259.9993 110.7563,257.2625"/>
    <polyline points="105.8571,301.3156 105.8571,287.134 115.0398,300.095 119.4503,301.3156 122.1474,300.8017 125.6377,297.6538 126.2406,290.9725 123.1628,287.3428 118.9427,286.1221"/>
    <polyline points="122.2426,307.6761 124.8445,308.8968 126.6531,311.5307 124.7493,316.7987 121.0368,317.6017 118.2446,315.9635 115.96,318.5011 111.3591,319.529 107.3579,317.3768 105.5573,312.5265 106.8566,308.2864 112.2476,305.7521"/>
    <polyline points="105.8571,354.5012 105.8571,340.3195 115.0398,353.2805 119.4503,354.5012 122.1474,353.9872 125.6377,350.8393 126.2406,344.158 123.1628,340.5283 118.9427,339.3077"/>
    <polyline points="126.3358,372.1037 126.3358,361.1502 117.5465,360.3472 120.7513,365.0048 120.2436,369.9836 117.0388,373.4207 114.4687,374.4164 109.2649,373.4206 105.8571,369.2448 105.5573,366.4181 107.0565,362.0817 110.7563,359.345"/>
    <polyline points="126.3358,404.4822 126.3358,393.5288 117.5465,392.7257 120.7513,397.3833 120.2436,402.3622 117.0388,405.7992 114.4687,406.7949 109.2649,405.7992 105.8571,401.6234 105.5573,398.7967 107.0565,394.4603 110.7563,391.7235"/>
    <polyline points="126.2406,423.087 126.2406,426.5176 105.8571,426.5176"/>
    <polyline points="126.2406,443.5165 126.2406,446.9471 105.8571,446.9471"/>
    <polygon points="105.4573,459.5062 107.7546,454.0455 112.3428,452.3109 116.8485,454.1419 119.0378,460.4056 121.6397,462.9432 124.432,462.7183 126.7483,458.9922 124.1464,455.234 121.0368,455.4588 118.9426,457.7716 117.261,463.7462 111.8668,466.059 108.056,464.6456"/>
    <polygon points="115.0238,71.2838 116.8576,70.5149 117.6171,68.6586 116.8576,66.8022 115.0238,66.0333 113.1901,66.8022 112.4305,68.6586 113.1901,70.5149"/>
    <polygon points="115.0238,92.3636 116.8576,91.5947 117.6171,89.7383 116.8576,87.882 115.0238,87.1131 113.1901,87.882 112.4305,89.7383 113.1901,91.5947"/>
    <polygon points="115.0238,128.5003 116.8576,127.7314 117.6171,125.8751 116.8576,124.0187 115.0238,123.2498 113.1901,124.0187 112.4305,125.8751 113.1901,127.7314"/>
    <polygon points="115.0238,164.6371 116.8576,163.8682 117.6171,162.0118 116.8576,160.1555 115.0238,159.3866 113.1901,160.1555 112.4305,162.0118 113.1901,163.8682"/>
    <polygon points="115.0238,251.9675 116.8576,251.1986 117.6171,249.3423 116.8576,247.4859 115.0238,246.717 113.1901,247.4859 112.4305,249.3423 113.1901,251.1986"/>
    <polygon points="115.0238,282.0815 116.8576,281.3126 117.6171,279.4562 116.8576,277.5999 115.0238,276.831 113.1901,277.5999 112.4305,279.4562 113.1901,281.3126"/>
    <polygon points="115.0238,387.4804 116.8576,386.7114 117.6171,384.8551 116.8576,382.9988 115.0238,382.2298 113.1901,382.9988 112.4305,384.8551 113.1901,386.7114"/>
    <polygon points="115.0238,417.5943 116.8576,416.8254 117.6171,414.969 116.8576,413.1127 115.0238,412.3438 113.1901,413.1127 112.4305,414.969 113.1901,416.8254"/>
    <polygon points="115.0238,438.6741 116.8576,437.9052 117.6171,436.0489 116.8576,434.1925 115.0238,433.4236 113.1901,434.1925 112.4305,436.0489 113.1901,437.9052"/>
    <polygon points="234.6838,204.8526 237.9973,208.4248 236.6254,206.2763 237.3699,205.0794 256.4941,197.1962 257.4635,194.5086 254.59,191.7286 255.7031,193.903 255.0244,195.134 244.1581,199.5979 236.9618,195.3785 238.1008,193.8254 235.8552,191.9098 234.6839,193.4112 235.7681,195.6258 242.8119,200.1932 236.1504,202.9132"/>
    <polyline points="232.0435,222.5843 232.4836,214.1973 231.0829,212.5837 230.4046,213.1748 230.2958,222.4245 232.2765,225.1728 232.0435,222.5843 234.865,222.0148 234.8133,213.9385 225.7301,212.1614 221.7929,208.4248 226.4782,210.7286 234.7179,211.7927 243.6921,211.7381 244.4686,210.858 243.7179,209.3308 244.6383,209.4458 246.5136,213.4466 242.5013,214.1456 246.4285,219.5234 246.0535,223.662 241.6248,225.3871 236.8065,222.6878 238.4373,228.4603 235.8647,225.842 234.865,222.0148 236.8842,220.9276 238.1138,222.5325 240.942,223.1569 244.2616,220.9276 244.0225,217.5231 240.7671,214.3526 236.5994,214.042 236.8842,220.9276"/>
    <polyline points="253.5545,220.1251 251.7425,221.9371 253.6062,223.7233 255.3665,221.9371 253.5545,220.1251 255.3665,217.0448 253.5545,215.2328 251.7425,217.0448 253.1144,218.5202 255.3665,217.0448 258.8352,219.478 257.515,218.0025 255.2371,219.5039 257.075,221.29 258.8351,219.478"/>
    <polygon points="243.692,228.6674 244.4169,230.4535 243.3069,231.1907 234.6839,230.5053 238.002,233.2603 246.1729,233.0938 246.2483,230.6088"/>
    <polygon points="257.7997,236.5625 253.8392,232.6538 257.9809,229.444 256.2983,227.6838 251.4577,231.4113"/>
    <polygon points="234.6838,247.5898 236.9921,249.9858 242.4757,251.6733 244.5724,255.1484 242.743,257.8231 238.7935,258.3259 237.0915,257.3228 237.6696,253.2444 235.2536,252.8705 234.7028,254.9758 235.7785,257.4494 243.1456,262.0827 244.5723,264.7778 242.8109,267.4295 238.7675,267.9812 237.1173,267.1075 237.9743,263.5756 236.1594,262.2411 234.7961,263.4002 235.0463,265.891 239.1047,269.7286 244.2214,269.9318 246.2418,268.4925 246.7396,266.0431 242.9414,260.6362 246.0156,259.053 246.7878,256.7416 242.7085,250.6184 246.2009,250.1453 246.3971,248.0251 243.9251,245.5708 243.6201,248.1866"/>
    <polyline points="236.5994,277.0218 241.8629,278.6496 244.5268,282.8803 242.4129,286.383 237.7053,285.9554 236.5994,277.0218 234.6321,275.0284 235.0459,287.4737 238.4372,292.0353 236.7805,286.3663 242.2424,289.1102 246.4835,286.5869 246.1897,282.6372 242.5013,277.85 246.1915,277.4565 246.6129,275.8478 244.0026,272.8281 243.6312,275.4384 234.6321,275.0286"/>
    <polygon points="251.1471,280.5422 256.2725,286.703 258.3951,287.3242 257.8774,285.7711"/>
    <polygon points="243.4591,308.9387 245.2193,310.673 246.7961,309.1375 244.2234,303.9843 240.2766,302.0925 236.49,302.9361 234.7528,307.2216 238.0748,313.3134 235.0203,313.6499 234.9426,314.5041 236.7546,315.9279 246.5911,316.6785 244.5018,314.0968 238.4507,312.3392 237.12,307.0088 239.3322,304.7152 242.8944,304.5252 244.4686,305.867"/>
    <polygon points="238.8255,330.7862 236.9003,325.08 239.2342,321.4412 244.0285,321.4933 244.567,323.913 243.019,326.981 243.8474,328.4452 245.4911,328.5406 246.7437,326.3396 245.3904,321.6003 240.6311,318.5912 236.8039,319.4148 234.7047,322.8019 235.6382,327.4143"/>
    <polygon points="251.1471,320.9756 256.2725,327.1363 258.3951,327.7576 257.8774,326.2044"/>
    <polygon points="244.4427,334.5137 242.0095,335.5232 234.7098,334.7209 236.7637,337.0201 241.8138,338.5209 244.2251,341.6076 243.7957,345.1981 240.2234,346.8613 237.1833,345.7223 237.3954,340.9335 234.9189,341.2907 235.6164,345.3379 240.1538,348.827 243.9064,348.7279 246.6414,346.1429 246.0384,342.2239 242.5013,337.7495 246.6171,336.8241 246.1675,334.7142 243.8991,332.7277"/>
    <polygon points="200.778,252.5113 197.8086,255.3399 196.718,255.0466 196.5614,253.8782 199.5687,251.3739 196.4587,247.0141 206.8092,255.0546 204.88,255.9076"/>
    <polygon points="197.1498,262.7948 195.9692,259.0037 191.0165,258.0795 190.3254,256.8711 199.584,258.1025 210.4946,261.7575 211.5328,263.4345 209.4164,263.8448 198.0137,259.4775 199.1654,263.245 209.7907,266.6808 211.5328,268.6948 209.0133,269.0088 190.2174,262.4631"/>
    <polygon points="197.1498,292.3683 195.9692,288.5772 191.0165,287.653 190.3254,286.4446 199.584,287.676 210.4946,291.331 211.5328,293.008 209.4164,293.4183 198.0137,289.051 199.1654,292.8185 209.7907,296.2543 211.5328,298.2683 209.0133,298.5823 190.2175,292.0366"/>
    <polygon points="203.1679,284.0041 198.2153,279.9997 197.5819,282.2033 199.2808,283.1037 201.0372,282.0374 201.1524,283.3169 199.4463,284.2825 196.9219,283.7217 195.559,281.8538 195.7101,279.739 199.0734,278.4766 203.456,281.8953 201.2157,277.07 202.3617,275.6872 204.5213,279.5732 211.8824,282.4412 209.7428,283.4802 205.1548,281.3976 205.3977,284.1522"/>
    <polyline points="203.8839,313.9557 204.2655,315.2471 206.1167,315.721 203.8839,313.9557 202.9985,310.668 210.9776,311.5329 210.6663,313.1382 203.2001,311.5981 202.1347,312.9961 205.8756,312.4126 207.8444,316.2185 211.3862,317.9483 207.3837,318.3511 198.2128,313.6987 202.1161,325.1933 201.2362,325.8251 196.7446,316.7929 194.815,306.7087 196.9171,307.224 197.8096,311.8978 202.1347,312.9961"/>
    <polygon points="193.0585,322.5842 187.5619,320.1989 193.2888,320.2621 191.7051,315.9497 193.1737,314.4095 195.5072,320.0555 194.7574,322.1103"/>
    <polygon points="207.1811,340.1222 200.601,338.5971 208.1911,338.627 210.881,339.8056 208.8579,341.1837 210.468,347.0996 208.5823,347.735 202.9296,345.9174 203.6259,348.1584 202.6505,348.6474 200.7514,345.0675 201.0414,341.1179 202.6598,341.4011 203.0571,344.2273 207.2768,345.8183"/>
    <polygon points="199.8541,350.5479 194.3254,349.1501 195.7056,352.3119 199.3238,354.2703 198.0497,355.3685 195.344,354.0407 195.3969,356.4913 193.4686,353.4583 189.2712,353.6173 187.5059,351.1764 188.6546,349.4078 188.0969,342.92 191.3039,342.0719 196.5687,343.2485 195.6795,344.9123 189.567,344.0123 190.381,349.1047 193.5672,352.3532 192.4093,347.1158 194.0376,348.4211 208.5493,351.0213 215.6624,354.505 213.3972,355.3446 201.9273,351.0218 203.326,355.243 202.4449,356.0763"/>
    <polygon points="191.2732,351.9222 189.2989,351.1865 190.314,352.7204"/>
    <polygon points="203.3695,368.409 197.6907,367.1839 196.2571,364.5269 197.0119,362.1372 199.7989,361.2058 204.6941,362.9355 205.2268,364.067 204.2345,364.8635 200.6628,362.8881 198.2919,363.7833 200.4324,366.9162 202.7936,366.6082 202.7072,364.9733 204.003,365.3761 204.6365,367.011"/>
    <polygon points="211.1729,378.9075 191.3045,373.5584 190.1815,372.2729 204.6293,374.8083 210.8561,377.2252"/>
    <polygon points="197.8541,401.7478 193.5351,400.9416 194.334,403.5954 193.5782,404.1048 188.3951,399.6623 187.5841,400.5601 188.771,405.2701 186.7394,403.2403 185.837,399.8204 187.4015,397.9327 190.7993,398.7622 192.2903,397.4431 193.3045,399.4019 206.1195,402.0825 213.6624,405.7047 211.4452,406.5548 199.9273,402.2217 201.3004,406.4586 200.5352,407.3055"/>
    <polyline points="204.2799,391.579 199.3226,389.7345 208.8986,391.2741 207.2832,392.4641 204.2799,391.579 203.4852,394.9408 202.3622,393.1867 200.3592,393.1939 203.4852,394.9408 204.7522,397.5706 199.5818,395.2554 198.3436,392.8702 199.7691,391.1538 203.586,391.8487 205.2129,395.4385 208.7514,396.7363 208.1211,397.9263 205.0689,397.4288"/>
    <polygon points="205.5135,421.9783 199.8347,420.7532 198.4011,418.0961 199.1559,415.7065 201.9429,414.775 206.838,416.5047 207.3707,417.6362 206.3785,418.4327 202.8067,416.4573 200.4359,417.3525 202.5764,420.4855 204.9376,420.1775 204.8512,418.5426 206.147,418.9454 206.7804,420.5803"/>
    <polyline points="197.2522,431.9509 206.6066,440.3635 204.7402,440.7265 200.778,437.3955 197.8086,440.2242 196.4607,439.5563 199.5687,436.2581 196.254,432.5512 198.1996,428.8261 193.9421,415.3216 193.9164,410.1605 195.6657,411.1972 199.8505,428.884 198.1996,428.8261"/>
    <polyline points="210.3603,450.3645 191.794,445.3158 190.671,444.0774 200.6052,445.4048 199.1367,441.2108 200.8571,439.8069 202.6496,445.8786 211.016,449.1879 211.2593,454.7167 190.3543,448.698 190.1815,447.9161 191.8362,447.7991 202.8143,450.0475 210.4674,452.7498 211.2593,454.7164"/>
    <polygon points="196.5739,460.3391 198.0624,458.8613 200.4659,458.6487 203.9454,459.6289 205.3707,461.4475 204.0365,462.2701 200.8067,460.2686 198.6279,460.8084 198.6399,462.7655 200.1767,464.1442 202.4193,464.3444 202.8512,462.3539 204.4565,463.1254 204.5363,465.0589 201.7876,466.0791 198.1136,464.8163 196.3723,461.4552 193.3201,460.7459 193.752,462.5467 196.8971,463.8971 196.4299,465.0344 194.2128,464.2965 196.9291,472.3843 195.9532,472.9609 192.1266,464.5176 190.2678,454.629 192.2835,455.1443 193.0034,459.2494"/>
    <polygon points="282.5398,349.537 285.5015,340.6054 289.867,346.6061 291.6564,344.7396 287.2138,338.6155 291.5022,336.2708 291.5022,343.9528 304.8764,343.9528 304.8764,336.3325 308.0232,336.3325 308.0232,333.7409 304.8764,333.7409 304.8764,326.4445 283.1722,326.4445 282.5706,321.8013 280.195,322.912 282.3701,336.3942 284.8691,336.3942 283.5733,328.8509 291.5022,328.8509 291.5022,333.6175 285.6635,336.7438 281.9134,342.1229 280.195,347.9327"/>
    <polyline points="297.1326,341.5464 293.8161,341.5464 293.8161,328.8509 297.1326,328.8509 297.1326,341.5464 299.4311,341.5464 299.4311,328.8509 302.5625,328.8509 302.5625,341.5464 299.4311,341.5464"/>
    <polygon points="289.7128,369.5751 291.1937,366.6288 285.1974,363.9561 284.2058,362.6181 284.8606,361.6157 294.1642,358.2996 305.4317,358.7616 306.1259,355.7073 292.7197,355.765 282.8202,359.752 281.2364,362.1954 281.882,364.6716"/>
    <polygon points="289.2963,378.3833 296.8395,376.725 305.0923,373.1385 303.9508,370.331 296.3112,373.8674 288.7564,375.3444"/>
    <polygon points="297.3177,395.0586 299.5543,395.0586 300.3256,399.9949 303.4108,399.6092 302.3773,395.0586 307.2672,395.0586 307.2672,392.3128 302.0533,392.3128 301.7449,386.1888 298.706,386.7595 299.246,392.3128 296.5002,392.3128 293.9333,388.3293 290.1056,385.8175 286.7776,385.689 283.743,387.2532 281.863,390.1889 282.4578,393.5344 285.3471,394.9698 294.1246,395.0586 294.6882,399.9282 293.0956,405.2979 288.6591,406.7019 286.1648,405.7487 284.8351,403.6256 285.3832,401.699 288.1239,400.4422 287.1212,397.4959 284.3146,398.675 281.9198,402.3812 283.3896,407.1706 288.5602,409.5571 294.4895,407.9007 297.3837,402.7993"/>
    <polygon points="287.1212,392.3128 284.8829,391.8012 284.8074,390.5269 288.2473,388.333 291.132,389.4745 293.2762,392.3128"/>
    <polygon points="299.6933,409.4355 305.5088,403.1572 303.6115,400.5348 297.8268,406.9674"/>
    <polygon points="289.0803,442.8633 291.3788,442.8633 291.3788,431.9572 296.531,431.9572 296.531,440.0249 298.8295,440.0249 298.8295,431.9572 302.9482,431.9572 302.9482,441.5675 305.2466,441.5675 305.2466,423.8741 307.7147,424.4757 308.6866,422.4549 302.6396,420.1217 298.197,416.6085 296.5927,418.5985 302.9482,422.964 302.9482,429.4737 298.8295,429.4737 298.8295,421.0974 291.3788,421.0974 291.3788,417.1484 289.0803,417.1484 289.0803,429.4737 279.9791,429.4737 279.9791,431.9572 289.0803,431.9572"/>
    <polygon points="291.3788,429.4737 291.3788,423.5039 296.531,423.5039 296.531,429.4737"/>
    <polygon points="281.7376,472.4346 284.9615,472.157 284.4178,460.8614 286.3498,457.8418 288.9877,459.1685 291.317,462.6393 286.8897,462.6393 286.8897,465.6164 292.7053,465.6164 295.3277,472.4038 298.2277,471.2623 295.775,465.3234 298.3564,462.5383 298.274,457.7493 300.7884,459.0759 301.7448,470.0283 304.6757,469.8431 303.6731,460.4642 306.6965,461.7291 307.5604,458.721 303.4725,457.2093 303.7039,450.5453 300.6342,450.5453 300.5417,455.7593 291.5331,449.1262 289.5431,451.6097 295.5512,456.8101 296.1233,460.6094 294.5102,462.5158 288.9695,455.6546 286.1065,455.0021 283.4104,456.1333 281.5281,461.1898"/>
    <polygon points="246.508,77.2272 248.9059,77.2272 248.9059,67.348 253.5737,67.348 256.627,76.2521 258.6572,74.6855 255.5719,64.8543 239.3586,64.5125 231.1138,61.1935 229.6431,63.3836 234.0782,65.8161 246.508,67.348 246.508,70.9448 229.4513,70.9448 229.4513,73.4386 246.508,73.4386"/>
    <polyline points="251.7833,61.9129 252.6945,59.547 247.7869,57.7246 247.7869,55.5665 252.6945,53.0088 251.8153,50.8507 247.7869,53.1047 247.7869,48.6447 245.389,48.6447 245.389,55.1029 242.4477,55.1029 242.4477,49.5399 240.0658,49.5399 240.0658,53.5363 234.2949,48.1012 232.3926,49.9236 237.8917,55.1029 229.4513,55.1029 229.4513,57.5967 238.0356,57.5967 233.6076,61.4173 235.2861,63.2557 239.7621,58.8916 238.7869,57.5967 240.0658,57.5967 240.0658,62.9519 242.4477,62.9519 242.4477,57.5967 245.389,57.5967 245.389,63.7512 247.7869,63.7512 247.7869,60.2344 252.8863,63.4795 255.2842,63.4795 255.2842,57.6926 258.4973,57.6926 258.4973,55.103 255.2842,55.103 255.2842,49.0124 252.8863,49.0124 252.8863,63.4795"/>
    <polygon points="238.691,109.0868 241.0729,109.0868 241.0729,97.7849 246.4121,97.7849 246.4121,106.1454 248.794,106.1454 248.794,97.7849 253.0622,97.7849 253.0622,107.744 255.4441,107.744 255.4441,89.4083 258.0018,90.0318 259.0089,87.9376 252.9079,85.611 248.1386,81.8791 246.4761,83.9412 253.0622,88.4652 253.0622,95.2111 248.794,95.2111 248.794,86.5309 241.0729,86.5309 241.0729,82.4386 238.691,82.4386 238.691,95.2111 229.2594,95.2111 229.2594,97.7849 238.691,97.7849"/>
    <polygon points="241.0729,95.2111 241.0729,89.0247 246.4121,89.0247 246.4121,95.2111"/>
    <polyline points="233.4157,146.5094 231.2257,147.8202 231.9457,150.2907 237.7958,160.0013 229.3873,160.0013 229.3873,162.4791 237.6999,162.4791 231.9849,172.0495 231.2896,174.7242 233.4477,175.9391 238.0675,165.6283 238.0675,174.5324 240.4494,174.5324 240.4494,162.4791 242.3837,162.4791 242.3837,160.0013 240.4494,160.0013 240.4494,147.8202 238.0675,147.8202 238.0036,156.8841 231.1937,143.3602 231.7389,142.3256 235.9359,137.6305 242.016,134.9197 242.016,142.2252 244.4139,142.2252 244.4139,139.6035 253.3179,139.6035 253.3179,132.9215 258.881,132.9215 258.881,130.4277 253.3179,130.4277 253.3179,124.7368 250.9361,124.7368 250.9361,130.3957 244.4139,130.076 244.4139,122.9304 242.016,122.9304 242.016,129.5485 240.2067,129.0204 235.4801,126.6149 231.3216,121.5237 229.2914,123.33 232.6409,127.483 242.096,132.298 236.7081,134.1933 232.1689,137.4499 229.0836,141.6337 231.1937,143.3602"/>
    <polygon points="244.4139,137.0138 244.4139,132.6657 250.9361,132.9535 250.9361,137.0138"/>
    <polygon points="246.1084,125.584 252.5986,122.8025 251.9752,120.9002 258.4654,120.9002 258.4654,118.5183 229.2275,118.5183 229.2275,120.9002 251.2878,120.9002 245.421,123.2341"/>
    <polygon points="251.9112,118.2146 252.6306,115.9287 244.1901,113.4349 243.231,115.6409"/>
    <polyline points="245.2292,163.4382 245.2292,159.282 248.3784,159.282 248.3784,163.4382 245.2292,163.4382 242.8153,166.6034 243.2629,172.4382 241.1688,172.7259 241.6324,174.7881 247.5631,173.5892 246.9396,171.4951 245.421,171.9427 245.2611,170.0723 252.9503,174.2766 254.0693,172.1345 250.6004,170.6958 251.2558,169.6247 256.0995,172.0705 257.1226,169.8805 253.0553,168.1044 252.8224,167.0031 250.6323,166.0599 248.4743,169.4649 245.0054,166.1558 242.8153,166.6034 242.8473,165.7881 255.8757,165.7881 255.8757,162.543 258.4654,163.8218 259.2167,161.5998 255.8757,159.9693 255.8757,156.916 242.8473,156.8841 242.8473,165.7881"/>
    <polygon points="250.7602,163.4382 250.7602,159.282 253.4778,159.282 253.4778,163.4382"/>
    <polygon points="241.6963,156.7882 247.531,155.3495 246.9395,153.3193 245.293,153.8149 245.1012,151.9126 252.8543,156.2607 253.9733,154.1665 250.5044,152.5999 251.1278,151.6408 256.0035,154.0706 257.0106,151.8806 252.7268,149.9351 253.0621,148.6035 250.7601,147.5485 248.4102,151.3531 245.1012,149.0991 245.0693,147.8842 242.6714,148.2358 243.135,154.2944 241.1368,154.5342"/>
  </g>
</svg>
