<?xml version="1.0" encoding="utf-8" ?>
<svg xmlns="http://www.w3.org/2000/svg" xmlns:cc="http://creativecommons.org/ns#" xmlns:dc="http://purl.org/dc/elements/1.1/" xmlns:ev="http://www.w3.org/2001/xml-events" xmlns:inkscape="http://www.inkscape.org/namespaces/inkscape" xmlns:rdf="http://www.w3.org/1999/02/22-rdf-syntax-ns#" xmlns:sodipodi="http://sodipodi.sourceforge.net/DTD/sodipodi-0.dtd" xmlns:xlink="http://www.w3.org/1999/xlink" baseProfile="tiny" height="27.94cm" version="1.2" viewBox="0 0 1632.0 1056.0" width="43.18cm">
  <metadata>
    <rdf:RDF>
      <cc:Work>
        <dc:format>image/svg+xml</dc:format>
        <dc:source>vpype read /Users/cj/Documents/Projects/greeting-cards-2021/outside/11x17/individual/card-outside-with-border.svg pagesize 5.5inx8.5in ldelete 2 splitall linemerge --tolerance 1.2mm linesimplify --tolerance 0.2mm rotate 270 layout -l -h left -v bottom 11inx17in ldelete 3 write /Users/cj/Documents/Projects/greeting-cards-2021/outside/11x17/individual/outside-11x17-one-per-page-11x17-layer1-left-bottom.svg
</dc:source>
        <dc:date>2022-02-09T17:33:26.358248</dc:date>
      </cc:Work>
    </rdf:RDF>
  </metadata>
  <defs/>
  <g fill="none" id="layer1" inkscape:groupmode="layer" inkscape:label="1" stroke="#00f" style="display:inline">
    <polyline points="324.7806,814.6429 296.6806,800.3881 287.6116,799.6508 285.031,801.4531 285.285,807.6793 289.16,816.691 295.0995,823.163 300.5311,827.0134 317.5713,834.7143 323.2241,833.4855 325.0264,829.8808 324.5348,824.9653 321.176,819.8041 306.1838,804.5662 288.906,790.3937 285.285,783.9217 284.5149,778.7604 287.6116,775.4016 291.7406,774.91 297.6637,776.4666 323.4698,790.8852 301.8418,777.4497 293.5511,769.9946 286.5794,761.7202 284.5149,755.0024 287.6116,750.9062 291.7406,750.4147 299.466,752.217 304.873,755.3301 286.5794,739.0272 283.7366,729.4421 285.285,726.6566 288.6438,725.1001 294.5834,725.1001 302.5792,726.9024 320.6844,736.1598 333.055,747.5473 337.6427,753.7244 339.4451,760.434 337.397,763.2686 334.8573,763.7847 330.1876,761.4662 321.4217,749.5954 313.1474,730.7528 309.7885,719.1196 305.938,696.9181 303.6442,688.9715 300.2853,682.4995 295.6156,678.4033 290.7083,677.0925 285.8011,679.3864 283.7366,684.3018 284.5149,690.2823 288.3899,696.4266 303.3165,707.5683 330.1876,722.4785 338.7077,733.866 337.397,731.5721 336.4139,721.987 338.462,711.6645 338.2162,706.0117 335.1031,701.342 331.2526,699.2939 326.3372,698.7205"/>
    <polyline points="304.873,755.3301 312.4101,759.1806 318.5544,765.3249 324.2891,774.6642 324.5348,782.1193 321.6675,784.9867 315.769,784.9867 309.7885,782.9386"/>
    <line x1="306.1838" x2="267.5156" y1="804.5662" y2="783.6509"/>
    <polyline points="324.7806,854.8683 296.6806,840.6135 287.6116,839.8762 285.031,841.6785 286.5794,852.001 289.16,856.9164 295.0995,863.3884 300.5311,867.2389 317.5713,874.9397 323.2241,873.7109 325.0264,870.1062 324.5348,865.1908 321.176,860.0295 306.1838,844.7916 267.5156,823.8764"/>
    <polyline points="273.4141,872.6128 274.7249,873.391 276.2815,871.3266 274.7249,869.5201 270.8745,869.7782 267.7614,872.6128 267.1879,877.2661 267.7614,882.7222 269.8095,887.5557 273.9057,891.7339 323.9614,920.0797 310.362,912.6246 295.8614,900.7455 289.16,893.782 285.8011,888.6208 284.5149,883.7053 285.8011,880.3464 288.1277,878.5441 292.7728,878.7898 323.9614,894.2735"/>
    <polyline points="207.4848,810.5813 197.3999,802.0612 191.2065,794.0326 188.3637,785.8402 188.6259,779.1224 192.5009,774.9443 198.6944,774.207 206.9114,776.7466 207.4848,775.4358 194.5572,765.1134 189.396,759.2148 187.8558,753.8078 188.3637,748.8924 190.4323,746.8443 197.146,747.09 233.7825,765.9326 238.9437,765.9326 241.5653,763.8845 241.8111,755.1186 235.0933,746.5985 224.5251,737.0134 189.142,716.6142 230.4236,739.0615 240.7461,740.618 242.5484,737.2591 241.5653,732.0979 237.6329,727.7559 226.8189,719.9731"/>
    <polyline points="206.9114,776.7466 216.0049,781.4163 224.7708,788.8714 229.1128,797.3915 227.884,803.8635 223.7058,805.4201 218.2988,803.6178 214.4484,799.1939 211.8268,793.7869 207.4848,778.3032"/>
    <polyline points="227.5563,859.572 223.2143,860.3912 211.8268,857.0323 198.1782,848.758 192.7548,843.1052 188.3637,834.5851 188.6259,831.472 190.4323,829.0962 193.7871,828.3588 197.9161,829.0962 227.5563,844.9075 204.1259,831.7177 198.9647,827.2938 191.4645,819.5929 188.1097,810.3355 189.396,807.4682 191.9848,805.9116 199.4562,806.9766 227.5563,822.1326"/>
    <polyline points="132.1192,872.6258 130.3168,871.0692 129.4976,871.8066 130.3168,874.1824 133.1023,874.9197 136.4611,872.8716 133.9215,865.1707 100.095,834.203 96.4739,827.731 95.7038,822.5698 98.8006,819.2109 102.9296,818.7194 108.8527,820.2759 134.6588,834.6946 113.0308,821.259 104.7401,813.8039 97.7683,805.5296 95.7038,798.8118 98.8006,794.7156 102.9296,794.224 110.655,796.0263 116.062,799.1395 104.994,789.0628 98.8006,781.0343 95.9578,772.8418 96.22,766.1241 100.095,761.9459 106.2885,761.2086 115.0789,763.2567 104.4779,754.1631 99.3167,745.9707 95.4499,717.0514 90.7966,701.8135 86.6512,698.2007 83.0465,698.2007 79.4419,701.322 78.7046,704.6809 78.9503,709.8421 80.7527,715.0033 89.5186,725.5715 95.1877,730.1593 147.6028,759.8978 121.5509,743.8407 109.6719,733.0267 105.5102,727.3739 104.4779,722.2127 108.1154,717.7887 112.2116,717.0514 118.9294,719.3453 135.9696,729.9135 143.4247,733.0267 148.0944,733.2724 149.8967,731.2243 150.1425,726.8823 148.3402,723.1957 144.7355,718.8538 133.9215,711.3987"/>
    <polyline points="114.5055,763.7482 123.599,768.4179 132.3649,775.873 136.7069,784.3932 135.4781,790.8652 131.2999,792.4217 125.8929,790.6194 122.0425,786.1955 119.4209,780.7885 115.0789,765.3048"/>
    <polyline points="116.062,799.1395 123.599,802.9899 129.7434,809.1342 135.4781,818.4736 135.7238,825.9287 132.8565,828.796 126.9579,828.796 120.9775,826.7479"/>
    <polyline points="116.3078,848.3762 96.7361,837.0052 135.4781,857.8794"/>
  </g>
</svg>
