<?xml version="1.0" encoding="utf-8" ?>
<svg xmlns="http://www.w3.org/2000/svg" xmlns:cc="http://creativecommons.org/ns#" xmlns:dc="http://purl.org/dc/elements/1.1/" xmlns:ev="http://www.w3.org/2001/xml-events" xmlns:inkscape="http://www.inkscape.org/namespaces/inkscape" xmlns:rdf="http://www.w3.org/1999/02/22-rdf-syntax-ns#" xmlns:sodipodi="http://sodipodi.sourceforge.net/DTD/sodipodi-0.dtd" xmlns:xlink="http://www.w3.org/1999/xlink" baseProfile="tiny" height="27.94cm" version="1.2" viewBox="0 0 1632.0 1056.0" width="43.18cm">
  <metadata>
    <rdf:RDF>
      <cc:Work>
        <dc:format>image/svg+xml</dc:format>
        <dc:source>vpype read /Users/cj/Documents/Projects/greeting-cards-2021/outside/11x17/individual/card-outside-with-border.svg pagesize 5.5inx8.5in ldelete 1 splitall linemerge --tolerance 1.2mm linesimplify --tolerance 0.2mm rotate 270 layout -l -h right -v top 11inx17in ldelete 3 write /Users/cj/Documents/Projects/greeting-cards-2021/outside/11x17/individual/outside-11x17-one-per-page-11x17-layer2-right-top.svg
</dc:source>
        <dc:date>2022-02-09T17:33:40.146963</dc:date>
      </cc:Work>
    </rdf:RDF>
  </metadata>
  <defs/>
  <g fill="none" id="layer2" inkscape:groupmode="layer" inkscape:label="2" stroke="#00f" style="display:inline">
    <polyline points="1012.6437,59.1353 1025.2647,59.1353 1025.2647,57.3432 1025.2647,59.7454 1012.6437,59.7454 1012.6437,61.5375 1012.6437,57.3432 1015.656,54.3309 1013.2442,52.5388 1012.6437,49.5265 1015.656,46.5142 1020.4604,45.9232 1023.4536,47.1243 1025.2647,49.5265 1023.4536,53.7208 1025.2647,54.3309 1021.6424,54.3309 1023.4536,53.7208"/>
    <polyline points="1012.6437,49.5265 1014.4453,46.5142 1017.4481,45.3322 1023.4536,46.5142 1025.2647,49.5265"/>
    <polyline points="1021.0514,63.9397 1019.2402,65.7509 1012.6437,66.3419 1020.4604,65.7509 1021.0514,62.7577 1019.2402,59.7454"/>
    <line x1="1012.6437" x2="1012.6437" y1="68.1531" y2="63.9397"/>
    <polyline points="1024.52,75.152 1027.6006,78.1183 1027.9342,77.3427 1021.0514,72.3474 1013.2442,72.9575 1012.6437,75.9697 1014.4453,78.963 1012.6437,78.963 1012.6437,81.3652 1012.6437,79.554 1021.0514,79.554 1021.0514,77.1518 1021.0514,78.963 1012.6437,78.963 1013.2442,73.5676 1021.0514,72.9575 1021.0514,70.5553"/>
    <polyline points="1012.6437,87.9617 1014.4453,84.9685 1016.247,84.3774 1020.4604,86.1696 1021.0514,87.9617 1019.2402,91.584 1018.0582,91.584 1018.6492,92.175 1021.0514,89.7729 1020.4604,86.7796 1017.4481,84.9685 1014.4453,85.5595 1012.6437,87.9617 1014.4453,92.175"/>
    <polyline points="1025.2662,99.6804 1025.2662,102.0826 1014.4467,105.6859 1012.6451,103.2837 1012.6451,99.6804 1012.6451,101.4725 1025.2662,101.4725 1012.6451,105.6859 1025.2662,109.8993 1025.2662,112.3015 1021.0514,113.8051 1021.0514,116.2073 1014.4453,116.2073 1012.6437,117.9994 1012.6437,122.2128 1021.0514,122.2128 1021.0112,125.8946 1023.3248,125.2187 1024.0003,124.5432 1021.6867,125.2191 1021.0514,120.4017 1021.0514,122.8038 1012.6437,122.8038 1012.6437,124.615 1012.6437,122.2128 1014.4453,122.2128 1012.6437,119.2196 1013.2442,116.2073 1021.0514,115.5973"/>
    <polyline points="1021.0514,133.6137 1019.2402,135.4249 1012.6437,136.0159 1020.4604,135.4249 1021.0514,132.4317 1019.2402,129.4194 1021.0514,127.0172 1021.0514,129.4194 1012.6437,128.8093 1021.0514,128.8093"/>
    <polyline points="1010.842,148.637 1012.6437,141.4304 1010.2415,140.2293 1008.4494,142.6315 1009.0404,148.046 1012.0431,148.046 1012.6437,142.6315 1010.842,140.2293 1012.6437,137.8271 1012.6437,127.0172"/>
    <polyline points="1020.4604,147.4359 1021.0514,148.637 1019.8503,146.8258 1015.656,146.2348 1020.4604,146.2348 1021.0514,143.8326 1019.8503,142.0214 1017.4481,141.4304 1015.0459,143.8326 1015.656,146.2348 1017.4481,147.4359 1020.4604,146.2348 1020.4604,142.6315 1015.656,142.6315 1015.656,141.4304 1013.8448,140.8394 1012.6437,141.4304 1012.6437,143.2416 1013.8448,140.8394"/>
    <polyline points="1012.6437,172.2653 1014.4453,170.4541 1017.4481,172.2653 1019.8503,171.0451 1019.2402,170.4541 1021.0514,172.2653 1019.8503,176.4596 1014.4453,177.0697 1012.6437,178.8618 1014.4453,176.4596 1012.6437,174.0574 1013.2442,170.4541 1016.838,170.4541 1018.0582,175.8495 1019.8503,176.4596 1014.4453,176.4596"/>
    <polyline points="1021.0514,194.4761 1019.2402,196.2873 1012.6437,196.8783 1020.4604,196.2873 1021.0514,193.275 1019.2402,190.2627 1021.0514,187.8605 1019.2402,189.6717 1012.6437,189.6717 1020.4604,189.6717 1021.0514,186.6785 1019.2402,183.6662 1021.0514,181.264 1021.0514,183.6662 1012.6437,183.0561 1021.0514,183.0561"/>
    <line x1="1012.6437" x2="1012.6437" y1="198.6799" y2="181.264"/>
    <polyline points="1024.7877,224.3602 1028.2019,226.5508 1027.8683,227.3264 1024.7877,224.3602 1021.0514,223.9133 1019.2402,220.9201 1016.247,220.3291 1013.2442,222.1212 1012.6437,225.1335 1014.4453,228.1267 1019.2402,228.1267 1021.0514,225.1335 1019.2402,221.5111 1016.247,220.9201 1013.2442,222.7313 1013.2442,226.3155 1017.4481,228.1267 1021.0514,225.1335 1021.523,228.8408 1023.7205,228.0159 1020.8502,229.5181 1020.463,226.3154"/>
    <polyline points="1021.0514,231.73 1021.0514,234.1322 1012.6437,234.1322 1025.2647,233.5221"/>
    <line x1="1012.6437" x2="1012.6437" y1="235.9243" y2="231.73"/>
    <polygon points="1028.0971,117.2489 1027.7635,116.4658 1024.6829,119.461"/>
    <polyline points="1013.8462,165.6565 1025.2662,158.4499 1012.6451,165.6565 1025.2662,165.6565 1025.2662,163.8644 1026.0904,170.6059 1024.2792,171.807 1025.4993,171.216 1023.6882,174.2092 1026.0904,176.6114 1023.6882,174.2092"/>
    <polyline points="1025.2662,110.4904 1012.6451,110.4904 1025.2662,109.8993"/>
    <line x1="1012.6451" x2="1012.6451" y1="112.3015" y2="108.0881"/>
    <polyline points="1025.2662,205.195 1025.2662,207.5973 1012.6451,211.2006 1025.2662,206.9872 1012.6451,206.9872 1012.6451,205.195 1012.6451,211.2006 1025.2662,215.414 1012.6451,216.005 1025.2662,215.414 1025.2662,217.8162"/>
    <line x1="1012.6451" x2="1012.6451" y1="217.8162" y2="213.6028"/>
    <polyline points="1025.2662,156.0477 1025.2662,158.4499 1012.6451,157.8398 1012.6451,156.0477 1012.6451,159.651"/>
    <polyline points="971.8484,295.6405 970.4507,295.091 970.7803,296.4367 969.9912,296.1763 968.5304,292.2649 969.3485,291.6256 972.462,293.577 971.8484,295.6405 980.9536,307.1882 979.0865,308.0439 981.3022,310.926 982.8981,310.3113 984.1543,308.7952 981.9726,305.9355 980.9536,307.1882 984.802,308.6831 983.595,310.6125 981.0182,311.5653 969.1213,296.1003 967.1442,289.5621 972.9051,293.263 984.802,308.6831"/>
    <polyline points="1163.5058,452.0148 1167.0589,453.44 1169.9836,458.2969 1171.929,457.1547 1175.9267,457.7258 1175.7594,467.2672 1171.929,467.4345 1169.9836,466.2923 1167.3317,470.8677 1164.3008,472.5128 1147.9428,472.5744 1145.4012,471.6601 1143.9662,468.9853 1144.1259,454.8243 1147.5343,452.0359 1163.5058,452.0148 1163.3625,471.4322 1166.3091,470.2851 1169.2369,465.4277 1171.3579,465.1501 1171.3579,459.4391 1169.2367,459.1612 1164.6661,453.3288 1149.6561,453.157 1149.6561,471.4322 1162.2203,471.4322 1162.2203,453.157 1152.8013,458.5019 1158.2416,454.8651 1158.2416,458.2037 1152.8013,454.8651 1158.2416,458.5019 1158.2416,460.3203 1152.8013,463.9571 1158.2416,460.3203 1158.2416,463.6588 1152.8013,460.3203 1158.2416,463.9571 1158.2416,466.0737 1152.8013,469.4123 1158.2416,465.7755 1158.2416,469.114 1152.8013,465.7755 1158.2416,469.114"/>
    <polygon points="1174.7845,458.2969 1172.5001,458.2969 1172.5001,466.2923 1174.7845,466.2923"/>
    <polygon points="1145.0873,468.5767 1146.0703,470.7308 1148.5139,471.4322 1148.5139,453.157 1146.3888,453.6181 1145.1187,455.5908"/>
    <polyline points="1175.314,281.4549 1166.7882,275.4414 1158.8895,273.5295 1150.8696,275.5145 1142.2437,281.4549"/>
    <polyline points="1153.4673,288.725 1158.4159,286.3782 1163.2596,288.725 1162.1515,287.8098 1163.7693,285.7919 1157.8493,288.6152 1151.9885,285.7919 1147.8171,285.4326 1156.3689,280.5879 1162.5675,281.1892 1168.9338,285.4326"/>
    <polyline points="1142.1099,268.9296 1175.2141,268.9296 1142.1099,268.9296 1142.9729,270.884 1148.7409,275.2805 1157.0843,278.0816 1164.8021,276.5022 1173.1015,270.884"/>
    <polyline points="1148.6076,278.4166 1153.6569,282.036 1158.6695,283.3612 1163.8687,282.1206 1169.2451,278.4166"/>
    <polyline points="1175.314,399.455 1166.7882,393.4414 1158.8895,391.5296 1150.8696,393.5145 1142.2437,399.455"/>
    <polyline points="1153.4673,406.7251 1158.4159,404.3783 1163.2596,406.7251 1162.1515,405.8099 1163.7693,403.792 1157.8493,406.6153 1151.9885,403.792 1147.8171,403.4327 1156.3689,398.588 1162.5675,399.1892 1168.9338,403.4327"/>
    <polyline points="1142.1099,386.9296 1175.2141,386.9296 1142.1099,386.9296 1142.9729,388.8841 1148.7409,393.2806 1157.0843,396.0817 1164.8021,394.5023 1173.1015,388.8841"/>
    <polyline points="1148.6076,396.4167 1153.6569,400.036 1158.6695,401.3613 1163.8687,400.1206 1169.2451,396.4167"/>
    <polygon points="1146.0386,444.6688 1145.2499,445.9397 1143.8254,444.1989 1144.6394,439.1924 1147.023,437.2717 1151.3141,436.3754 1146.5049,432.6715 1144.0267,427.9785 1143.9882,423.2505 1146.5904,418.7928 1152.087,415.2509 1159.2383,413.8975 1165.8755,415.1268 1171.3269,418.6599 1174.9579,424.0044 1175.6171,429.4538 1172.902,434.504 1167.5618,438.0284 1173.9938,439.2385 1174.7768,443.0493 1159.83,439.9168 1149.1452,440.941 1146.9459,442.2416"/>
    <polygon points="1151.8223,432.7913 1159.0733,435.7848 1165.4663,434.299 1172.0192,429.8925 1173.3281,427.5205 1173.0708,425.0002 1170.2324,421.4631 1164.8472,418.6617 1159.298,417.9768 1153.5678,419.0832 1148.4204,422.2414 1146.1317,426.2855 1147.1907,429.4901"/>
    <polygon points="1166.9497,349.4913 1163.1909,351.9602 1158.2364,352.8563 1148.8793,349.9627 1145.048,352.9946 1152.3974,355.5968 1160.6922,355.8236 1155.3924,361.5493 1144.2181,360.6064 1144.2818,365.5913 1152.5829,364.2438 1144.5374,373.1364 1146.5808,375.4265 1151.4124,373.3602 1158.026,372.9534 1167.269,376.4372 1169.6316,373.9446 1161.682,370.3198 1151.3698,370.172 1156.9108,364.1321 1164.6014,367.026 1171.2917,371.452 1175.1869,367.8142 1162.1609,363.0315 1175.1229,357.9116 1171.3557,354.2069 1160.1176,360.6065 1169.6315,352.5226"/>
    <polyline points="1159.383,312.7065 1159.383,303.7993 1152.9318,304.6058 1152.9318,311.8635 1159.383,312.7065 1160.8873,314.3736 1151.1384,313.2224 1151.4384,303.0201 1160.8954,302.1349 1161.6917,308.4393 1160.8873,314.3736 1163.1219,316.0421 1164.3573,310.3321 1171.3326,309.9574 1171.3326,306.5485 1164.6844,306.4467 1163.0333,300.0683 1161.7992,299.1791 1144.89,301.3223 1144.89,315.1469 1161.3991,317.2884 1163.1219,316.0421 1165.0279,316.4087 1163.7924,318.4196 1161.5623,319.1908 1144.6141,317.0652 1142.4027,314.5765 1143.0071,300.4661 1145.0143,299.3274 1161.9592,297.3083 1164.7328,299.3129 1165.9076,304.6424 1177.0643,305.1203 1176.7195,311.7304 1165.9443,311.8635 1165.0279,316.4087"/>
    <polygon points="1175.2913,309.9207 1175.2913,306.5118 1173.2753,306.5118 1173.2753,309.9207"/>
    <polygon points="1148.6065,312.1567 1147.6534,313.1464 1146.7004,312.1933 1146.7004,304.3125 1147.6534,303.3595 1148.6065,304.3125"/>
    <polyline points="1159.4274,240.7961 1148.5117,241.3505 1159.9819,241.3505 1157.7987,238.6129"/>
    <polyline points="1148.5117,248.2464 1159.4274,248.2464 1157.7987,246.0633 1159.9819,248.8009 1148.5117,248.8009 1148.5117,250.984 1148.5117,238.6129"/>
    <polyline points="1170.0447,253.4302 1170.0447,251.6254 1168.2624,250.9238 1170.0447,249.8205 1170.0447,238.9915 1168.2624,238.2898 1170.0447,237.1866 1169.9534,234.5789 1168.0004,232.1307 1164.6301,231.7721 1164.6301,257.0399 1168.0004,256.6813 1170.0447,253.4302 1171.8495,253.4302 1170.7695,256.675 1166.435,258.8448 1148.0002,258.831 1144.8407,257.5223 1142.972,253.4302 1142.9858,234.9955 1144.2945,231.836 1148.3865,229.9672 1166.8212,229.981 1169.6798,231.0472 1171.5081,233.4896 1171.8495,237.1866 1173.6317,237.8882 1171.8495,238.9915 1171.8495,249.8205 1173.6317,250.5221 1171.8495,251.6254 1171.8495,253.4302"/>
    <polygon points="1148.3865,257.0399 1162.8253,257.0399 1162.8253,231.7721 1147.9825,231.7952 1145.3314,233.4622 1144.7999,253.8342 1146.137,256.2511"/>
    <polygon points="1166.9497,169.4912 1163.1909,171.96 1158.2364,172.8562 1148.8793,169.9626 1145.048,172.9945 1152.3974,175.5967 1160.6922,175.8235 1155.3924,181.5492 1144.2181,180.6063 1144.2818,185.5912 1152.5829,184.2437 1144.5374,193.1363 1146.5808,195.4264 1151.4124,193.3601 1158.026,192.9533 1167.269,196.4371 1169.6316,193.9445 1161.682,190.3197 1151.3698,190.1719 1156.9108,184.1319 1164.6014,187.0258 1171.2917,191.4519 1175.1869,187.8141 1162.1609,183.0314 1175.1229,177.9115 1171.3557,174.2068 1160.1176,180.6064 1169.6315,172.5224"/>
    <polygon points="1159.4308,161.4425 1152.5187,160.0747 1149.6024,154.4076 1152.539,158.8138 1155.6694,160.4377 1159.5934,160.3653 1163.176,158.0684 1166.4543,152.5169 1165.2644,151.101 1166.9955,151.6697 1170.9034,147.9939 1172.3107,144.9155 1171.9989,140.8035 1169.8011,137.7224 1165.8772,136.3009 1161.856,137.2548 1161.611,136.2642 1168.0091,135.6688 1172.6362,139.7276 1172.9814,146.2087 1164.331,158.2817"/>
    <polyline points="1154.4033,149.5795 1152.5588,149.2277 1154.0515,148.7303 1158.2137,151.236 1160.4729,145.0381 1160.4895,142.5137 1159.2765,142.0163 1160.4301,141.5189 1159.3553,135.7425 1155.7838,131.3884 1151.2915,131.0694 1147.7027,133.9273 1146.9342,135.3011 1148.08,135.7985 1146.5418,136.2914 1145.8797,139.2489 1145.8229,145.8348 1147.3906,150.0719 1150.0616,152.4219 1153.7447,153.1997 1158.2137,151.236 1158.9567,151.8979 1154.964,154.0567 1149.7925,153.3922 1146.3545,150.2815 1144.7433,145.2436 1146.1029,134.7333 1148.6214,131.4297 1152.0591,129.8848 1157.4476,131.2435 1160.5526,136.1526 1161.3979,145.842 1158.9567,151.8979"/>
    <polygon points="1154.5491,134.305 1152.5588,134.305"/>
    <polygon points="1153.5539,141.7664 1151.5636,141.7664"/>
    <polygon points="1166.9937,141.5172 1168.648,142.2918"/>
    <polygon points="1162.5107,146.4914 1164.1696,147.266"/>
    <polygon points="1155.5465,156.4399 1157.2032,157.2145"/>
    <polygon points="1144.5816,121.6111 1143.7929,122.882 1142.3684,121.1412 1143.1824,116.1348 1145.5661,114.2141 1149.8571,113.3178 1145.048,109.6139 1142.5697,104.9208 1142.5313,100.1928 1145.1334,95.7352 1150.63,92.1933 1157.7813,90.8398 1164.4185,92.0692 1169.87,95.6022 1173.501,100.9468 1174.1601,106.3962 1171.4451,111.4464 1166.1048,114.9707 1172.5369,116.1809 1173.3198,119.9917 1158.373,116.8592 1147.6882,117.8834 1145.4889,119.1839"/>
    <polygon points="1150.3654,109.7336 1157.6163,112.7272 1164.0093,111.2414 1170.5622,106.8349 1171.8711,104.4629 1171.6138,101.9426 1168.7754,98.4055 1163.3903,95.604 1157.841,94.9192 1152.1108,96.0256 1146.9635,99.1838 1144.6747,103.2279 1145.7338,106.4324"/>
    <polyline points="1146.2872,50.0566 1147.0728,51.7014 1149.5034,52.5683 1151.934,51.7014 1152.7196,50.0566 1149.9611,47.5705 1147.3973,48.1584 1146.6532,50.0566 1143.6707,50.0566 1143.7343,48.6024 1143.7343,84.6318 1142.902,85.2485 1142.4499,48.6689 1143.7343,48.6024"/>
    <polyline points="1150.7621,64.7253 1143.0943,64.7253 1143.0943,63.4405 1150.7621,63.4405 1150.7654,68.5748 1143.0943,68.5748 1143.0943,69.8595 1150.7654,69.8595 1150.7654,68.5748 1152.0835,68.584 1151.601,60.8544 1150.798,61.511 1150.9316,72.2001 1152.0828,71.789 1152.0835,68.584 1154.4454,67.8411 1155.2565,64.3288 1158.175,64.7971 1157.8322,68.1839 1154.4454,67.8411 1155.2565,70.3269 1158.175,70.7952 1158.3005,73.3709 1154.7882,74.182 1154.3199,71.2635 1155.2565,70.3269 1159.4539,71.2635 1162.9662,70.4524 1163.309,73.8392 1159.5794,73.8392 1159.9222,64.4543 1163.4345,65.2654 1162.9662,68.1839 1160.3905,68.3094 1164.32,67.3728 1164.7882,64.4543 1168.175,64.7971 1167.8322,68.1839 1164.32,67.3728 1165.2565,70.3269 1168.175,70.7952 1167.8322,74.182 1164.4454,73.8392 1165.2565,70.3269"/>
    <polyline points="1144.3668,56.0523 1170.372,56.0523 1173.3982,58.8627 1171.0883,59.6144 1171.0895,62.0436 1173.4001,62.7931 1174.8269,60.8272 1173.3982,58.8627 1176.7133,57.4203 1176.7133,74.9158 1170.2886,75.6418 1170.2886,74.1842 1175.4276,74.1842 1175.4276,58.152 1170.2886,58.152 1170.2886,56.6944 1176.7133,57.4203"/>
    <polyline points="1163.4345,59.2635 1159.9222,58.4524 1159.5794,61.8392 1162.9662,62.182 1163.4345,59.2635 1167.3639,58.3269 1164.4454,58.7952 1164.32,61.3709 1167.8322,62.182 1167.8322,58.4524 1170.372,56.0523 1170.372,76.2211 1144.3668,76.2211"/>
    <polygon points="1158.3005,59.2635 1154.7882,58.4524 1154.4454,61.8392 1157.8322,62.182"/>
    <polyline points="1146.2872,83.3003 1147.0728,84.9451 1149.5034,85.812 1151.934,84.9451 1152.7196,83.3003 1151.934,81.6555 1149.5034,80.7886 1147.0728,81.6555 1146.6532,83.3003 1143.6707,83.3003"/>
    <polyline points="1171.0883,70.1026 1171.0895,72.5318 1173.4001,73.2813 1174.8269,71.3154 1173.3982,69.3509 1171.0883,70.1026 1171.0895,67.2877 1173.4001,68.0372 1174.8269,66.0713 1173.3982,64.1068 1171.0883,64.8585 1171.0895,67.2877"/>
    <polygon points="896.1906,187.4894 895.0338,187.2829 897.9904,191.5672 901.8789,202.54 906.0231,204.0609 900.0849,189.8423"/>
    <polygon points="875.211,52.1155 874.0834,52.4224 874.0834,53.8007 886.9525,59.2141 874.8681,62.1902 874.0832,65.2765 880.59,62.5885 892.0482,60.2952 891.8684,58.1891 878.903,53.8609 892.4468,50.6632 897.5203,64.1247 901.6555,65.304 897.7833,58.8381 895.3987,47.6779"/>
    <polygon points="874.4294,85.2212 874.0832,87.5105 878.8548,84.9143 893.3144,80.4061 894.9049,77.2302"/>
    <polygon points="874.3636,110.1154 874.0832,111.6723 893.3144,103.3432 896.681,116.9328 898.644,116.9328 902.1346,106.8794 904.1462,117.2599 907.3534,118.6863 902.7273,102.0281 901.1089,102.0281 898.0146,111.4709 894.8309,99.6901 875.6736,107.917"/>
    <polygon points="874.3636,142.4327 874.0832,143.9896 893.3144,135.6605 896.681,149.2501 898.644,149.2501 902.1346,139.1967 904.1462,149.5772 907.3534,151.0036 902.7273,134.3454 901.1089,134.3454 898.0146,143.7882 894.8309,132.0074 875.6736,140.2343"/>
    <polygon points="874.4294,181.2766 874.0832,183.566 878.8548,180.9697 893.3144,176.4615 894.9049,173.2856"/>
    <polygon points="874.3666,227.6233 874.0832,229.1747 885.3616,232.0524 875.3845,233.9842 874.0832,234.473 874.0832,236.1746 887.4216,238.8598 891.1455,241.0076 890.2428,238.2834 888.6873,237.4714 880.099,235.5974 891.4347,232.9779 891.4347,230.9805 880.0734,228.364 893.672,226.5488 896.9764,241.2393 899.5799,241.063 905.9573,224.2251 902.1935,225.2816 898.5755,235.9758 895.9973,223.1084"/>
    <polygon points="895.85,256.6802 894.6932,256.4736 897.6498,260.758 901.5382,271.7307 905.6824,273.2517 899.7443,259.033"/>
    <polygon points="874.4294,297.7994 874.0832,300.0888 878.8548,297.4925 893.3144,292.9843 894.9049,289.8084"/>
    <polygon points="874.51,309.9975 874.149,311.255 886.1875,315.8672 874.971,319.0208 874.0832,322.0099 879.1537,319.7746 890.993,317.3606 890.7544,315.3002 878.9283,311.327 893.6365,308.1224 895.2653,305.7833"/>
    <polygon points="896.1906,359.2874 895.0338,359.0809 897.9904,363.3652 901.8789,374.338 906.0231,375.8589 900.0849,361.6403"/>
    <polygon points="874.4294,351.0535 874.0832,353.3428 878.8548,350.7465 893.3144,346.2383 894.9049,343.0624"/>
    <polygon points="896.1906,391.6259 895.0338,391.4193 897.9904,395.7037 901.8789,406.6765 906.0231,408.1977 900.0849,393.979"/>
    <polygon points="874.4294,429.8784 874.0832,432.1677 878.8548,429.5714 893.3144,425.0632 894.9049,421.8873"/>
    <polygon points="874.7276,451.1731 874.0832,452.6661 875.0859,453.2443 887.0708,458.2573 874.9565,461.6739 874.2974,464.7806 881.2134,462.001 891.8801,459.8051 891.7023,457.4846 878.8714,452.984 892.5618,449.6585 895.9308,463.518 898.1237,463.518 901.443,453.6683 903.6485,464.5046 906.4366,465.4955 901.8342,447.6981 900.3412,447.8898 897.2888,457.4292 895.4828,446.4669"/>
    <polyline points="972.8117,51.992 978.4076,57.5149 972.8117,63.0379 973.9059,64.1075 980.5855,57.5149 973.9059,50.9121 972.8117,51.992 969.7897,49.6471 982.1278,49.6471 982.1278,65.3828 969.7897,65.3828 969.7897,49.6471 968.2474,48.1249 968.2474,66.905 983.6701,66.905 983.6701,48.1249 968.2474,48.1249"/>
    <polyline points="968.2474,70.4635 968.2474,85.6851 983.6701,85.6851 983.6701,70.4635 968.2474,70.4635 970.3003,72.4897 981.6172,72.4897 981.6172,83.659 970.3003,83.659 970.3003,72.4897"/>
    <polygon points="977.9178,112.7753 982.5134,115.1511 968.2474,115.8196 968.2474,117.3521 977.5531,117.3521 982.5134,119.7381 967.6638,120.5506 966.5071,117.3521 965.1837,117.3521 966.3404,120.8489 964.1312,122.0008 964.1312,123.7904 967.2053,122.2168 970.5528,125.8229 974.6385,126.961 980.4084,124.4794 977.1675,121.9185 983.9514,120.6843 983.6701,119.2136 980.4084,117.3521 983.9514,116.0562 983.6701,114.5649 980.6168,112.7753 983.6701,111.6028 983.6701,109.9984 980.2806,111.2117 968.2474,111.2532 968.2474,112.7753"/>
    <polygon points="968.6538,121.9185 974.7708,121.9185 977.7962,124.1578 973.0479,125.2406"/>
    <polyline points="968.2474,142.8584 970.3003,144.8845 983.6701,144.8845 983.6701,131.6891 981.6172,129.663 968.2474,129.663 968.2474,142.8584 969.2791,141.8402 969.2686,130.6813 980.5855,130.6709 980.5855,141.8402 969.2791,141.8402"/>
    <polyline points="975.1097,150.9859 978.1946,149.4732 980.4522,151.3701 980.2817,153.5596 978.1709,155.1146 975.3489,153.9578 974.2182,150.4571 973.7885,152.6629 976.9201,156.095 979.4664,155.7918 981.3567,153.8323 982.0495,160.3924 979.9186,167.8402 981.5964,167.8402 983.6766,159.657 981.9715,151.5182 978.7455,148.5647 976.1802,148.7028 974.2182,150.4571 970.3211,148.4225 968.4983,154.0924 968.4373,159.9027 970.205,165.1621 973.1759,167.6976 977.0008,166.7089 978.0748,163.2198 974.6151,160.1136 972.0718,160.6717 970.5608,162.4201 969.878,155.8704 971.9989,148.4225 970.3211,148.4225"/>
    <polygon points="974.2081,161.114 976.2609,161.947 977.1154,163.9834 976.2609,165.989 974.1872,166.822 972.1552,165.9993 971.3319,163.9937 972.176,161.9573"/>
    <polygon points="977.9178,174.1551 982.5134,176.5309 968.2474,177.1994 968.2474,178.7319 977.5531,178.7319 982.5134,181.1179 967.6638,181.9304 966.5071,178.7319 965.1837,178.7319 966.3404,182.2287 964.1312,183.3806 964.1312,185.1702 967.2053,183.5966 970.5528,187.0948 974.6385,188.231 980.4084,185.8592 977.1675,183.2983 983.9514,182.0641 983.6701,180.5934 980.4084,178.7319 983.9514,177.436 983.6701,175.9447 980.6168,174.1551 983.6701,172.9827 983.6701,171.3782 980.2806,172.5915 968.2474,172.633 968.2474,174.1551"/>
    <polygon points="968.6538,183.2983 974.7708,183.2983 977.7962,185.5374 973.0479,186.5106"/>
    <polyline points="970.8749,200.9174 974.4533,199.5289 976.1076,201.9934 976.4798,205.7707 971.6615,202.6949 969.1465,197.373 970.3607,193.5447 974.4092,193.1791 976.7195,195.6915 969.0706,199.8569 965.5178,204.8682 964.9861,209.4557 966.726,213.3917 970.7853,215.5183 973.9476,213.978 972.374,212.3221 971.1146,213.7274 968.726,213.7925 966.2232,211.4273 966.5177,206.6028 970.0815,201.5745 976.4798,207.3237 978.5737,213.9572 980.457,214.9347 982.5643,214.2765 981.3775,212.4969 980.2804,213.5337 978.5468,212.991 977.6197,202.226 974.4477,198.777 977.2092,197.6148 979.4174,201.3302 982.3592,201.9702 984.0273,199.8935 982.7218,196.3703 980.5315,195.1072 977.3239,195.5167 974.6049,191.5363 970.7023,190.8373 967.9184,194.2692 969.0706,199.8569"/>
    <polygon points="977.8032,197.3885 981.9482,197.0273 983.2868,199.3484 980.4756,200.2318"/>
    <polygon points="968.2474,219.1101 968.2474,220.6322 977.9074,220.6322 982.5446,223.008 968.2474,223.6765 968.2474,225.1987 977.5635,225.1987 982.5446,227.5745 967.0215,228.7905 965.6891,230.3257 965.4234,233.4471 963.9228,233.4471 966.0487,235.8538 968.2474,233.4471 966.7052,233.4471 967.8332,230.0351 980.7983,229.7247 983.9723,228.5413 983.6701,227.0397 980.4709,225.1987 983.9723,223.8925 983.6701,222.4218 980.6377,220.6322 983.6701,219.4598 983.6701,217.8245 980.1386,219.0744"/>
    <polygon points="969.7897,239.4226 969.7897,255.7858 971.3319,255.7858 971.3319,239.4226"/>
    <polygon points="975.8545,245.8918 977.6284,244.429 980.0411,244.493 982.1,248.055 979.2097,250.9447 974.4165,249.3166 974.4165,255.7858 975.9587,255.7858 975.9587,251.2604 980.3304,252.2626 983.613,248.3852 983.3132,245.7503 981.3362,243.4296 978.4412,242.7433 975.9587,243.9582 975.9587,239.4226 974.4165,239.4226 974.4165,245.8918"/>
    <polygon points="975.7086,264.1987 975.7086,267.3459 969.4921,269.341 967.8618,270.5548 967.8618,272.2106 971.7868,269.6247 975.7086,268.8578 975.7086,272.0975 976.8653,272.0975 976.8653,268.8578 984.0557,272.2106 984.0557,270.637 982.5138,269.4057 976.8653,267.3459 976.8653,264.1987 982.5138,262.139 984.0557,260.9076 984.0557,259.334 976.8653,262.6869 976.8653,259.4472 975.7086,259.4472 975.7086,262.6869 971.7868,261.92 967.8618,259.334 967.8618,260.9899 969.4921,262.2015"/>
    <polygon points="965.538,329.4559 966.528,328.5612 965.3244,325.6994 966.9129,324.2435 977.6377,328.1189 982.2096,327.6587 984.7611,324.3691 984.3799,320.0056 981.1681,317.3858 976.1255,318.3586 974.8419,314.0673 970.3981,313.6393 968.266,316.7773 969.7258,320.2632 972.4616,321.1611 981.031,318.9204 983.2549,320.7421 983.503,323.9434 981.9161,326.0769 979.0488,326.7519 966.3034,322.8051 963.9077,325.5809"/>
    <polygon points="972.3115,314.327 974.3435,315.1395 975.1876,317.1039 974.3435,319.0991 972.2906,319.9116 970.2482,319.0888 969.4041,317.1244 970.2378,315.1292"/>
    <polygon points="968.2474,334.3001 968.2474,335.8223 977.9074,335.8223 982.5446,338.1981 968.2474,338.8666 968.2474,340.3887 977.5635,340.3887 982.5446,342.7645 967.0215,343.9805 965.6891,345.5157 965.4234,348.6371 963.9228,348.6371 966.0487,351.0438 968.2474,348.6371 966.7052,348.6371 967.8332,345.2252 980.7983,344.9147 983.9723,343.7313 983.6701,342.2297 980.4709,340.3887 983.9723,339.0825 983.6701,337.6118 980.6377,335.8223 983.6701,334.6498 983.6701,333.0145 980.1386,334.2644"/>
    <polygon points="975.7086,396.9964 975.7086,400.1435 969.4921,402.1386 967.8618,403.3524 967.8618,405.0082 971.7868,402.4223 975.7086,401.6554 975.7086,404.8951 976.8653,404.8951 976.8653,401.6554 984.0557,405.0082 984.0557,403.4347 982.5138,402.2033 976.8653,400.1435 976.8653,396.9964 982.5138,394.9366 984.0557,393.7052 984.0557,392.1316 976.8653,395.4845 976.8653,392.2448 975.7086,392.2448 975.7086,395.4845 971.7868,394.7176 967.8618,392.1316 967.8618,393.7875 969.4921,394.9992"/>
    <polygon points="970.5921,418.1728 969.5291,418.8722 972.4886,423.3152 969.5291,424.5597 972.4886,428.9616 969.5291,430.1958 972.4886,434.6388 969.5291,435.8627 970.0606,437.0455 974.4165,435.2148 971.457,430.7923 974.4165,429.5581 971.457,425.1356 974.4165,423.8809"/>
    <polyline points="977.911,412.6692 976.3707,410.1327 974.9113,409.8966 975.9587,414.6348 980.325,411.5905 975.9587,408.5462 971.5925,411.5905 975.9587,414.6348 980.4605,423.3257 977.501,424.5598 980.4605,428.9618 977.501,430.1959 980.4605,434.6493 977.501,435.8732 978.0325,437.0559 982.3883,435.2252 979.4288,430.8027 982.3883,429.5686 979.4288,425.1461 982.3883,423.8913 978.5639,418.1833"/>
    <polygon points="968.2474,441.8793 968.2474,443.4015 977.9074,443.4015 982.5446,445.7773 968.2474,446.4458 968.2474,447.9679 977.5635,447.9679 982.5446,450.3437 967.0215,451.5597 965.6891,453.0949 965.4234,456.2164 963.9228,456.2164 966.0487,458.623 968.2474,456.2164 966.7052,456.2164 967.8332,452.8044 980.7983,452.4939 983.9723,451.3105 983.6701,449.8089 980.4709,447.9679 983.9723,446.6618 983.6701,445.191 980.6377,443.4015 983.6701,442.229 983.6701,440.5937 980.1386,441.8436"/>
    <polyline points="981.5073,95.3904 982.866,98.0746 982.1848,99.4492 975.7921,90.5246 975.9587,89.2231 984.6913,97.8315 975.9587,106.4502 967.2366,97.8315 975.9587,89.2231 974.9354,92.3532 979.5724,102.1679 978.2138,102.1043 972.7163,93.5603 971.8596,95.3889 976.5592,104.2764 974.257,103.6353 969.8667,96.4569 968.5951,97.3782 968.9786,98.8559"/>
    <polyline points="983.1976,281.4002 981.6561,282.912 975.9587,275.7486 984.6913,281.8372 975.9587,287.9258 967.2366,281.8372 975.9587,275.7486 979.3638,284.9316 977.9044,284.6956 973.6833,278.3335 972.6801,279.9116 975.984,286.3041 973.4286,285.1275 970.4936,280.6472 969.0808,281.3269 969.4474,282.7758"/>
    <polyline points="974.1604,356.4709 975.7007,359.0074 977.1602,359.2435 975.9587,354.6126 971.5925,357.6569 975.9587,360.7012 980.325,357.6569 975.9587,354.6126"/>
    <polyline points="983.1976,369.8908 981.6561,371.4026 975.9587,364.2392 984.6913,370.3278 975.9587,376.4164 967.2366,370.3278 975.9587,364.2392 979.3638,373.4222 977.9044,373.1862 973.6833,366.8241 972.6801,368.4023 975.984,374.7947 973.4286,373.6181 970.4936,369.1378 969.0808,369.8175 969.4474,371.2665"/>
    <polyline points="974.8563,386.78 973.8674,382.7342 977.0165,385.9645 978.2968,385.1249 975.9587,379.9544 971.5925,384.2638 975.9587,388.5628 980.325,384.2638 975.9587,379.9544"/>
    <polyline points="975.7317,463.3463 977.911,466.3148 976.188,467.5162 974.6296,464.4908 975.9587,462.1918 971.5925,465.2362 975.9587,468.2805 980.325,465.2362 975.9587,462.1918"/>
    <polygon points="1122.3236,47.6919 1122.3236,103.8384 1119.8041,103.8384 1119.8041,99.2075 1098.7689,99.2075 1098.7689,96.6899 1119.8041,96.6899 1119.8041,89.4302 1098.7689,89.4302 1098.7689,86.9126 1108.0834,86.9126 1105.5712,84.1288 1104.6205,80.1899 1105.6645,75.8868 1108.3422,72.8452 1113.1185,70.9497 1112.5903,74.7531 1114.6103,76.9681 1119.8041,74.4868 1119.8041,65.4868 1098.7689,65.4868 1098.7689,62.9692 1111.267,62.9692 1111.267,56.1919 1108.0267,55.3032 1107.5334,53.9297 1109.2494,50.8403 1112.5463,48.9516 1113.7865,50.3208 1113.7865,62.9692 1119.8041,62.9692 1119.8041,47.6919"/>
    <polygon points="1119.8041,77.3755 1116.8063,79.1881 1113.491,79.3647 1111.1567,77.6722 1110.3607,74.4126 1107.4753,78.0216 1107.638,82.6157 1112.2865,86.9126 1119.8041,86.9126"/>
    <polygon points="1122.3236,112.1333 1122.3236,171.7974 1119.8041,171.7974 1119.8041,167.1685 1098.7689,167.1685 1098.7689,164.6509 1110.8978,164.6509 1105.4896,157.1685 1107.5462,155.5025 1109.3783,156.4458 1110.767,155.6314 1111.3947,153.1643 1110.0901,150.7924 1105.037,151.145 1100.0267,156.2427 1098.2689,154.9283 1102.5462,150.0616 1107.718,147.804 1111.2725,148.5066 1113.6009,151.5201 1113.004,156.7263 1109.1927,158.2427 1113.6556,164.649 1119.8041,164.649 1119.8041,142.2427 1098.7689,142.2427 1098.7689,139.7251 1119.8041,139.7251 1119.8041,132.4673 1098.7689,132.4673 1098.7689,129.9302 1109.1576,129.9302 1109.1576,121.0962 1107.9349,117.856 1099.5091,126.5962 1097.7494,124.8931 1103.9552,117.9839 1110.8978,113.3931 1112.3412,115.2817 1110.4165,116.9901 1111.0638,118.9302 1119.8041,119.4478 1119.8041,112.1333"/>
    <polygon points="1119.8041,121.9673 1111.6752,121.9673 1111.6752,129.9302 1119.8041,129.9302"/>
    <polygon points="1122.3236,180.0572 1122.3236,279.1451 1119.8041,279.1451 1119.8041,264.7389 1113.8041,264.7389 1115.671,267.8223 1115.4193,271.6306 1113.1211,274.1562 1109.3841,274.9012 1105.955,273.4419 1103.4896,270.1451 1105.3978,268.8678 1108.0515,271.8825 1111.5463,272.1646 1113.2798,269.7819 1112.1846,266.4616 1110.0834,264.7389 1098.7689,264.7389 1098.7689,262.2017 1106.5091,262.2017 1104.2478,259.2041 1104.2481,255.5196 1106.4629,252.2947 1110.1009,251.1646 1113.3791,252.2812 1115.5687,255.3205 1115.6875,258.5332 1114.0091,262.2017 1119.8041,262.2017 1119.8041,242.776 1110.4896,242.5728 1108.2298,240.9244 1107.9349,238.6646 1099.5091,247.4049 1097.7494,245.7017 1103.9552,238.7925 1110.8978,234.2017 1112.3412,236.0924 1110.4165,237.7997 1111.0638,239.7388 1119.8041,240.2584 1119.8041,228.6841 1098.7689,228.6841 1098.7689,226.1666 1119.8041,226.1666 1119.8041,218.9068 1098.7689,218.9068 1098.7689,216.3892 1106.267,216.3892 1104.6353,212.8473 1104.916,208.5717 1107.1115,205.0875 1110.6499,203.3663 1113.3202,203.7258 1115.7652,205.8415 1117.1448,209.2898 1116.9168,212.6248 1116.4896,213.8326 1114.6556,213.2037 1115.1381,209.5552 1107.5479,214.5745 1109.8262,216.352 1119.8041,216.3892 1119.8041,197.8521 1098.8373,197.8521 1096.51,201.0325 1092.4748,201.8974 1088.4082,199.5224 1086.9632,194.5544 1088.6084,189.337 1092.5834,184.9634 1094.4349,186.7056 1090.9549,190.5535 1089.5049,194.4349 1091.5287,198.9634 1094.0991,199.3007 1096.0032,197.9609 1096.3236,195.6861 1094.8431,193.8345 1096.3802,192.0747 1098.8119,195.3345 1108.7298,195.3345 1108.7298,188.5572 1104.9896,186.649 1106.7318,183.2056 1110.0267,181.315 1111.1791,182.0842 1111.267,185.3521 1119.8041,185.3521 1119.8041,180.0572"/>
    <polygon points="1119.8041,187.8716 1111.267,187.8716 1111.267,195.3345 1119.8041,195.3345"/>
    <polygon points="1114.6381,207.981 1112.5963,205.8083 1109.638,206.0377 1106.9525,209.1295 1106.6947,212.6666"/>
    <polygon points="1113.3041,257.442 1112.3041,254.7017 1109.8978,253.7017 1107.5285,254.6128 1106.472,257.108 1107.2298,259.6822 1109.767,262.2018 1111.5834,262.2018"/>
    <polygon points="1133.0267,302.8658 1131.0093,307.8679 1122.3236,312.0142 1122.3236,316.6802 1119.8041,316.6802 1119.8041,312.0513 1098.7689,312.0513 1098.7689,309.5318 1119.8041,309.5318 1119.8041,301.0142 1114.5091,301.0142 1113.6153,291.5143 1109.8978,292.5338 1110.0523,298.994 1106.4154,302.6432 1103.069,302.1296 1100.7494,299.3287 1102.4154,297.9596 1104.9975,300.2222 1107.6273,298.9962 1108.3145,294.7298 1105.972,291.4967 1100.9558,292.2783 1096.4173,298.0318 1094.7689,296.9947 1097.7479,292.2375 1101.5091,289.3111 1105.3029,288.7025 1108.6752,290.5514 1112.6927,288.6451 1116.1139,290.9795 1116.6185,298.4947 1119.8041,298.4947 1119.8041,287.3854 1122.3236,287.3854 1122.3236,309.6432 1129.3286,306.1342 1130.4749,303.3609 1129.9701,300.3111 1132.433,299.4401"/>
    <polygon points="1077.096,445.8379 1056.9723,448.6938 1056.6077,455.6036 1060.5769,454.3438 1063.5763,455.1091 1065.7276,457.7687 1066.3636,461.6389 1065.4048,464.8828 1062.7991,467.42 1062.6038,458.1622 1061.356,456.681 1058.8928,457.5958 1056.803,460.0958 1059.303,471.0919 1055.7483,469.7442 1053.3185,458.4078 1053.9552,447.6625 1057.7188,446.1938 1070.16,445.0895 1073.3069,443.4356"/>
    <polygon points="1053.2099,443.0644 1056.6083,443.0643 1060.8661,439.5292 1061.742,436.6944 1060.0562,433.9883 1057.9755,432.8691 1057.4091,433.7675 1058.8427,436.5362 1056.6083,439.6659 1055.299,433.2896 1052.5068,430.605 1049.2677,430.3312 1039.0107,433.3183 1042.6754,433.7683 1051.2127,432.2857 1052.8224,436.0777"/>
    <polygon points="1069.5569,365.7207 1065.0069,370.188 1056.6077,371.6387 1056.6077,379.9981 1059.8407,379.566 1062.5452,377.6153 1065.7288,379.1387 1062.4459,381.0463 1056.6077,381.4238 1058.2678,388.0059 1060.0183,386.1602 1059.3811,384.1387 1061.5235,384.2095 1063.6344,385.5203 1064.2053,388.8653 1062.3468,394.02 1060.2468,394.0153 1057.7014,391.6192 1056.7835,393.2415 1057.0558,402.2192 1062.2522,403.5332 1057.218,406.1081 1056.7694,410.7395 1057.7161,412.0098 1062.2522,412.7325 1057.6392,414.2449 1056.7444,416.7022 1058.5608,417.3115 1061.3928,415.6426 1063.5218,416.9122 1057.8968,420.4356 1053.2093,420.4356 1054.5178,413.1426 1053.2379,409.7394 1054.4397,403.8653 1053.2727,401.1211 1053.2216,393.951 1055.8264,389.4707 1053.2593,383.0877 1053.3124,362.0324 1054.9524,360.053 1058.053,360.3691 1056.6403,362.3809 1056.6077,370.4473 1062.6031,369.2894 1065.7678,365.4277"/>
    <polyline points="1047.5452,376.834 1044.7131,375.3496 1046.3538,372.1855 1049.1858,373.6309 1047.5452,376.834 1050.9632,378.1035 1049.303,381.3262 1046.4905,379.8027 1048.1702,376.6387 1050.9632,378.1035"/>
    <polygon points="922.8513,54.7832 925.1486,49.3225 929.7368,47.588 934.2425,49.4189 936.4319,55.6826 939.0337,58.2202 941.826,57.9953 944.1423,54.2692 941.5404,50.511 938.4309,50.7359 936.3367,53.0486 934.655,59.0232 929.2608,61.336 925.45,59.9226"/>
    <polyline points="943.6346,76.9213 943.6346,80.3519 923.2511,80.3519"/>
    <polyline points="943.6346,94.3392 943.6346,97.7698 923.2511,97.7698"/>
    <polyline points="936.3367,102.853 938.2405,108.6348 936.5588,112.6821 930.7522,115.6052 925.8498,114.1918 923.1512,109.8233 923.2511,105.4869 925.7515,101.9536 930.0541,100.1226 934.8453,101.536 943.9519,109.4379"/>
    <polyline points="943.6346,131.2868 943.6346,134.7174 923.2511,134.7174"/>
    <polyline points="936.3367,139.8008 938.2405,145.5827 936.5588,149.63 930.7522,152.5531 925.8498,151.1397 923.1512,146.7712 923.2511,142.4348 925.7515,138.9014 930.0541,137.0705 934.8453,138.4838 943.9519,146.3857"/>
    <polyline points="923.2511,183.9357 923.2511,169.7541 932.4339,182.7151 936.8443,183.9357 939.5414,183.4218 943.0317,180.2739 943.6346,173.5926 940.5568,169.9628 936.3367,168.7422"/>
    <polyline points="943.7298,201.5382 943.7298,190.5848 934.9405,189.7817 938.1453,194.4394 937.6376,199.4182 934.4329,202.8552 931.8627,203.851 926.659,202.8552 923.2511,198.6794 922.9513,195.8527 924.4505,191.5163 928.1503,188.7795"/>
    <polyline points="943.6346,223.2508 943.6346,226.6813 923.2511,226.6813"/>
    <polyline points="925.9482,244.1878 925.9482,232.0458 942.8414,241.5538 923.1512,241.5538"/>
    <polyline points="943.7298,270.0212 943.7298,259.0678 934.9405,258.2648 938.1453,262.9224 937.6376,267.9012 934.4329,271.3382 931.8627,272.334 926.659,271.3382 923.2511,267.1624 922.9513,264.3357 924.4505,259.9993 928.1503,257.2625"/>
    <polyline points="923.2511,301.3156 923.2511,287.134 932.4339,300.095 936.8443,301.3156 939.5414,300.8017 943.0317,297.6538 943.6346,290.9725 940.5568,287.3428 936.3367,286.1221"/>
    <polyline points="939.6366,307.6761 942.2385,308.8968 944.0471,311.5307 942.1433,316.7987 938.4309,317.6017 935.6386,315.9635 933.354,318.5011 928.7531,319.529 924.752,317.3768 922.9513,312.5265 924.2506,308.2864 929.6416,305.7521"/>
    <polyline points="923.2511,354.5012 923.2511,340.3195 932.4339,353.2805 936.8443,354.5012 939.5414,353.9872 943.0317,350.8393 943.6346,344.158 940.5568,340.5283 936.3367,339.3077"/>
    <polyline points="943.7298,372.1037 943.7298,361.1502 934.9405,360.3472 938.1453,365.0048 937.6376,369.9836 934.4329,373.4207 931.8627,374.4164 926.659,373.4206 923.2511,369.2448 922.9513,366.4181 924.4505,362.0817 928.1503,359.345"/>
    <polyline points="943.7298,404.4822 943.7298,393.5288 934.9405,392.7257 938.1453,397.3833 937.6376,402.3622 934.4329,405.7992 931.8627,406.7949 926.659,405.7992 923.2511,401.6234 922.9513,398.7967 924.4505,394.4603 928.1503,391.7235"/>
    <polyline points="943.6346,423.087 943.6346,426.5176 923.2511,426.5176"/>
    <polyline points="943.6346,443.5165 943.6346,446.9471 923.2511,446.9471"/>
    <polygon points="922.8513,459.5062 925.1486,454.0455 929.7368,452.3109 934.2425,454.1419 936.4319,460.4056 939.0337,462.9432 941.826,462.7183 944.1423,458.9922 941.5404,455.234 938.4309,455.4588 936.3367,457.7716 934.655,463.7462 929.2608,466.059 925.45,464.6456"/>
    <polygon points="932.4178,71.2838 934.2516,70.5149 935.0111,68.6586 934.2516,66.8022 932.4178,66.0333 930.5841,66.8022 929.8246,68.6586 930.5841,70.5149"/>
    <polygon points="932.4178,92.3636 934.2516,91.5947 935.0111,89.7383 934.2516,87.882 932.4178,87.1131 930.5841,87.882 929.8246,89.7383 930.5841,91.5947"/>
    <polygon points="932.4178,128.5003 934.2516,127.7314 935.0111,125.8751 934.2516,124.0187 932.4178,123.2498 930.5841,124.0187 929.8246,125.8751 930.5841,127.7314"/>
    <polygon points="932.4178,164.6371 934.2516,163.8682 935.0111,162.0118 934.2516,160.1555 932.4178,159.3866 930.5841,160.1555 929.8246,162.0118 930.5841,163.8682"/>
    <polygon points="932.4178,251.9675 934.2516,251.1986 935.0111,249.3423 934.2516,247.4859 932.4178,246.717 930.5841,247.4859 929.8246,249.3423 930.5841,251.1986"/>
    <polygon points="932.4178,282.0815 934.2516,281.3126 935.0111,279.4562 934.2516,277.5999 932.4178,276.831 930.5841,277.5999 929.8246,279.4562 930.5841,281.3126"/>
    <polygon points="932.4178,387.4804 934.2516,386.7114 935.0111,384.8551 934.2516,382.9988 932.4178,382.2298 930.5841,382.9988 929.8246,384.8551 930.5841,386.7114"/>
    <polygon points="932.4178,417.5943 934.2516,416.8254 935.0111,414.969 934.2516,413.1127 932.4178,412.3438 930.5841,413.1127 929.8246,414.969 930.5841,416.8254"/>
    <polygon points="932.4178,438.6741 934.2516,437.9052 935.0111,436.0489 934.2516,434.1925 932.4178,433.4236 930.5841,434.1925 929.8246,436.0489 930.5841,437.9052"/>
    <polygon points="1052.0779,204.8526 1055.3914,208.4248 1054.0194,206.2763 1054.7639,205.0794 1073.8881,197.1962 1074.8575,194.5086 1071.984,191.7286 1073.0972,193.903 1072.4184,195.134 1061.5521,199.5979 1054.3559,195.3785 1055.4948,193.8254 1053.2492,191.9098 1052.0779,193.4112 1053.1622,195.6258 1060.2059,200.1932 1053.5444,202.9132"/>
    <polyline points="1049.4375,222.5843 1049.8776,214.1973 1048.4769,212.5837 1047.7987,213.1748 1047.6898,222.4245 1049.6705,225.1728 1049.4375,222.5843 1052.2591,222.0148 1052.2074,213.9385 1043.1241,212.1614 1039.1869,208.4248 1043.8722,210.7286 1052.1119,211.7927 1061.0861,211.7381 1061.8626,210.858 1061.1119,209.3308 1062.0323,209.4458 1063.9076,213.4466 1059.8953,214.1456 1063.8226,219.5234 1063.4475,223.662 1059.0188,225.3871 1054.2005,222.6878 1055.8313,228.4603 1053.2587,225.842 1052.2591,222.0148 1054.2782,220.9276 1055.5078,222.5325 1058.3361,223.1569 1061.6556,220.9276 1061.4165,217.5231 1058.1611,214.3526 1053.9934,214.042 1054.2782,220.9276"/>
    <polyline points="1070.9485,220.1251 1069.1365,221.9371 1071.0002,223.7233 1072.7605,221.9371 1070.9485,220.1251 1072.7605,217.0448 1070.9485,215.2328 1069.1365,217.0448 1070.5085,218.5202 1072.7605,217.0448 1076.2292,219.478 1074.909,218.0025 1072.6311,219.5039 1074.469,221.29 1076.2292,219.478"/>
    <polygon points="1061.0861,228.6674 1061.8109,230.4535 1060.7009,231.1907 1052.0779,230.5053 1055.396,233.2603 1063.567,233.0938 1063.6423,230.6088"/>
    <polygon points="1075.1937,236.5625 1071.2332,232.6538 1075.3749,229.444 1073.6924,227.6838 1068.8518,231.4113"/>
    <polygon points="1052.0779,247.5898 1054.3861,249.9858 1059.8697,251.6733 1061.9665,255.1484 1060.137,257.8231 1056.1875,258.3259 1054.4855,257.3228 1055.0636,253.2444 1052.6476,252.8705 1052.0968,254.9758 1053.1725,257.4494 1060.5396,262.0827 1061.9663,264.7778 1060.2049,267.4295 1056.1615,267.9812 1054.5113,267.1075 1055.3683,263.5756 1053.5534,262.2411 1052.1901,263.4002 1052.4403,265.891 1056.4987,269.7286 1061.6155,269.9318 1063.6359,268.4925 1064.1336,266.0431 1060.3354,260.6362 1063.4096,259.053 1064.1819,256.7416 1060.1025,250.6184 1063.595,250.1453 1063.7912,248.0251 1061.3191,245.5708 1061.0141,248.1866"/>
    <polyline points="1053.9934,277.0218 1059.2569,278.6496 1061.9208,282.8803 1059.807,286.383 1055.0993,285.9554 1053.9934,277.0218 1052.0261,275.0284 1052.4399,287.4737 1055.8312,292.0353 1054.1746,286.3663 1059.6364,289.1102 1063.8775,286.5869 1063.5837,282.6372 1059.8953,277.85 1063.5855,277.4565 1064.0069,275.8478 1061.3966,272.8281 1061.0252,275.4384 1052.0261,275.0286"/>
    <polygon points="1068.5411,280.5422 1073.6665,286.703 1075.7891,287.3242 1075.2714,285.7711"/>
    <polygon points="1060.8531,308.9387 1062.6133,310.673 1064.1902,309.1375 1061.6174,303.9843 1057.6706,302.0925 1053.8841,302.9361 1052.1468,307.2216 1055.4688,313.3134 1052.4143,313.6499 1052.3366,314.5041 1054.1486,315.9279 1063.9852,316.6785 1061.8958,314.0968 1055.8447,312.3392 1054.514,307.0088 1056.7262,304.7152 1060.2885,304.5252 1061.8626,305.867"/>
    <polygon points="1056.2196,330.7862 1054.2943,325.08 1056.6283,321.4412 1061.4225,321.4933 1061.961,323.913 1060.413,326.981 1061.2414,328.4452 1062.8851,328.5406 1064.1377,326.3396 1062.7844,321.6003 1058.0251,318.5912 1054.1979,319.4148 1052.0987,322.8019 1053.0323,327.4143"/>
    <polygon points="1068.5411,320.9756 1073.6665,327.1363 1075.7891,327.7576 1075.2714,326.2044"/>
    <polygon points="1061.8367,334.5137 1059.4035,335.5232 1052.1038,334.7209 1054.1578,337.0201 1059.2079,338.5209 1061.6191,341.6076 1061.1897,345.1981 1057.6175,346.8613 1054.5773,345.7223 1054.7894,340.9335 1052.3129,341.2907 1053.0104,345.3379 1057.5479,348.827 1061.3004,348.7279 1064.0354,346.1429 1063.4324,342.2239 1059.8954,337.7495 1064.0112,336.8241 1063.5615,334.7142 1061.2932,332.7277"/>
    <polygon points="1018.172,252.5113 1015.2026,255.3399 1014.112,255.0466 1013.9555,253.8782 1016.9627,251.3739 1013.8527,247.0141 1024.2032,255.0546 1022.274,255.9076"/>
    <polygon points="1014.5438,262.7948 1013.3632,259.0037 1008.4105,258.0795 1007.7195,256.8711 1016.9781,258.1025 1027.8886,261.7575 1028.9268,263.4345 1026.8104,263.8448 1015.4077,259.4775 1016.5595,263.245 1027.1848,266.6808 1028.9268,268.6948 1026.4073,269.0088 1007.6115,262.4631"/>
    <polygon points="1014.5438,292.3683 1013.3632,288.5772 1008.4105,287.653 1007.7195,286.4446 1016.978,287.676 1027.8886,291.331 1028.9268,293.008 1026.8104,293.4183 1015.4077,289.051 1016.5595,292.8185 1027.1848,296.2543 1028.9268,298.2683 1026.4073,298.5823 1007.6115,292.0366"/>
    <polygon points="1020.562,284.0041 1015.6094,279.9997 1014.9759,282.2033 1016.6748,283.1037 1018.4312,282.0374 1018.5464,283.3169 1016.8403,284.2825 1014.3159,283.7217 1012.953,281.8538 1013.1042,279.739 1016.4674,278.4766 1020.85,281.8953 1018.6097,277.07 1019.7557,275.6872 1021.9153,279.5732 1029.2765,282.4412 1027.1368,283.4802 1022.5488,281.3976 1022.7918,284.1522"/>
    <polyline points="1021.2779,313.9557 1021.6595,315.2471 1023.5108,315.721 1021.2779,313.9557 1020.3925,310.668 1028.3717,311.5329 1028.0603,313.1382 1020.5941,311.5981 1019.5287,312.9961 1023.2696,312.4126 1025.2384,316.2185 1028.7802,317.9483 1024.7777,318.3511 1015.6068,313.6987 1019.5101,325.1933 1018.6302,325.8251 1014.1386,316.7929 1012.209,306.7087 1014.3111,307.224 1015.2036,311.8978 1019.5287,312.9961"/>
    <polygon points="1010.4525,322.5842 1004.9559,320.1989 1010.6829,320.2621 1009.0991,315.9497 1010.5677,314.4095 1012.9012,320.0555 1012.1514,322.1103"/>
    <polygon points="1024.5751,340.1222 1017.995,338.5971 1025.5851,338.627 1028.275,339.8056 1026.2519,341.1837 1027.862,347.0996 1025.9764,347.735 1020.3236,345.9174 1021.0199,348.1584 1020.0446,348.6474 1018.1454,345.0675 1018.4355,341.1179 1020.0538,341.4011 1020.4512,344.2273 1024.6708,345.8183"/>
    <polygon points="1017.2481,350.5479 1011.7194,349.1501 1013.0996,352.3119 1016.7178,354.2703 1015.4437,355.3685 1012.738,354.0407 1012.7909,356.4913 1010.8626,353.4583 1006.6653,353.6173 1004.9,351.1764 1006.0486,349.4078 1005.4909,342.92 1008.6979,342.0719 1013.9627,343.2485 1013.0735,344.9123 1006.961,344.0123 1007.775,349.1047 1010.9612,352.3532 1009.8033,347.1158 1011.4316,348.4211 1025.9433,351.0213 1033.0564,354.505 1030.7912,355.3446 1019.3213,351.0218 1020.72,355.243 1019.8389,356.0763"/>
    <polygon points="1008.6672,351.9222 1006.6929,351.1865 1007.708,352.7204"/>
    <polygon points="1020.7635,368.409 1015.0847,367.1839 1013.6511,364.5269 1014.4059,362.1372 1017.193,361.2058 1022.0881,362.9355 1022.6208,364.067 1021.6285,364.8635 1018.0568,362.8881 1015.6859,363.7833 1017.8264,366.9162 1020.1876,366.6082 1020.1012,364.9733 1021.397,365.3761 1022.0305,367.011"/>
    <polygon points="1028.5669,378.9075 1008.6985,373.5584 1007.5755,372.2729 1022.0233,374.8083 1028.2502,377.2252"/>
    <polygon points="1015.2481,401.7478 1010.9291,400.9416 1011.728,403.5954 1010.9722,404.1048 1005.7891,399.6623 1004.9781,400.5601 1006.165,405.2701 1004.1334,403.2403 1003.2311,399.8204 1004.7956,397.9327 1008.1933,398.7622 1009.6843,397.4431 1010.6985,399.4019 1023.5135,402.0825 1031.0564,405.7047 1028.8392,406.5548 1017.3213,402.2217 1018.6945,406.4586 1017.9292,407.3055"/>
    <polyline points="1021.6739,391.579 1016.7166,389.7345 1026.2926,391.2741 1024.6772,392.4641 1021.6739,391.579 1020.8792,394.9408 1019.7562,393.1867 1017.7532,393.1939 1020.8792,394.9408 1022.1462,397.5706 1016.9758,395.2554 1015.7376,392.8702 1017.1632,391.1538 1020.98,391.8487 1022.6069,395.4385 1026.1454,396.7363 1025.5152,397.9263 1022.4629,397.4288"/>
    <polygon points="1022.9075,421.9783 1017.2287,420.7532 1015.7951,418.0961 1016.5499,415.7065 1019.3369,414.775 1024.232,416.5047 1024.7647,417.6362 1023.7725,418.4327 1020.2008,416.4573 1017.8299,417.3525 1019.9704,420.4855 1022.3316,420.1775 1022.2452,418.5426 1023.541,418.9454 1024.1745,420.5803"/>
    <polyline points="1014.6462,431.9509 1024.0006,440.3635 1022.1342,440.7265 1018.172,437.3955 1015.2026,440.2242 1013.8547,439.5563 1016.9627,436.2581 1013.648,432.5512 1015.5936,428.8261 1011.3361,415.3216 1011.3104,410.1605 1013.0597,411.1972 1017.2445,428.884 1015.5936,428.8261"/>
    <polyline points="1027.7543,450.3645 1009.188,445.3158 1008.065,444.0774 1017.9992,445.4048 1016.5307,441.2108 1018.2512,439.8069 1020.0436,445.8786 1028.41,449.1879 1028.6533,454.7167 1007.7483,448.698 1007.5755,447.9161 1009.2302,447.7991 1020.2083,450.0475 1027.8615,452.7498 1028.6533,454.7164"/>
    <polygon points="1013.9679,460.3391 1015.4564,458.8613 1017.8599,458.6487 1021.3394,459.6289 1022.7647,461.4475 1021.4305,462.2701 1018.2008,460.2686 1016.0219,460.8084 1016.0339,462.7655 1017.5707,464.1442 1019.8133,464.3444 1020.2452,462.3539 1021.8505,463.1254 1021.9303,465.0589 1019.1816,466.0791 1015.5076,464.8163 1013.7664,461.4552 1010.7141,460.7459 1011.146,462.5467 1014.2911,463.8971 1013.824,465.0344 1011.6068,464.2965 1014.3231,472.3843 1013.3473,472.9609 1009.5206,464.5176 1007.6619,454.629 1009.6775,455.1443 1010.3974,459.2494"/>
    <polygon points="1099.9338,349.537 1102.8956,340.6054 1107.2611,346.6061 1109.0505,344.7396 1104.6078,338.6155 1108.8962,336.2708 1108.8962,343.9528 1122.2704,343.9528 1122.2704,336.3325 1125.4173,336.3325 1125.4173,333.7409 1122.2704,333.7409 1122.2704,326.4445 1100.5663,326.4445 1099.9646,321.8013 1097.5891,322.912 1099.7641,336.3942 1102.2631,336.3942 1100.9673,328.8509 1108.8962,328.8509 1108.8962,333.6175 1103.0575,336.7438 1099.3075,342.1229 1097.5891,347.9327"/>
    <polyline points="1114.5266,341.5464 1111.2101,341.5464 1111.2101,328.8509 1114.5266,328.8509 1114.5266,341.5464 1116.8251,341.5464 1116.8251,328.8509 1119.9565,328.8509 1119.9565,341.5464 1116.8251,341.5464"/>
    <polygon points="1107.1068,369.5751 1108.5877,366.6288 1102.5914,363.9561 1101.5998,362.6181 1102.2546,361.6157 1111.5583,358.2996 1122.8257,358.7616 1123.5199,355.7073 1110.1137,355.765 1100.2142,359.752 1098.6305,362.1954 1099.276,364.6716"/>
    <polygon points="1106.6903,378.3833 1114.2335,376.725 1122.4864,373.1385 1121.3448,370.331 1113.7052,373.8674 1106.1504,375.3444"/>
    <polygon points="1114.7117,395.0586 1116.9483,395.0586 1117.7196,399.9949 1120.8048,399.6092 1119.7713,395.0586 1124.6613,395.0586 1124.6613,392.3128 1119.4473,392.3128 1119.139,386.1888 1116.1001,386.7595 1116.64,392.3128 1113.8942,392.3128 1111.3273,388.3293 1107.4996,385.8175 1104.1716,385.689 1101.137,387.2532 1099.257,390.1889 1099.8518,393.5344 1102.7411,394.9698 1111.5186,395.0586 1112.0822,399.9282 1110.4896,405.2979 1106.0531,406.7019 1103.5589,405.7487 1102.2291,403.6256 1102.7772,401.699 1105.5179,400.4422 1104.5153,397.4959 1101.7087,398.675 1099.3138,402.3812 1100.7836,407.1706 1105.9543,409.5571 1111.8835,407.9007 1114.7778,402.7993"/>
    <polygon points="1104.5153,392.3128 1102.2769,391.8012 1102.2014,390.5269 1105.6413,388.333 1108.526,389.4745 1110.6702,392.3128"/>
    <polygon points="1117.0873,409.4355 1122.9029,403.1572 1121.0055,400.5348 1115.2208,406.9674"/>
    <polygon points="1106.4743,442.8633 1108.7728,442.8633 1108.7728,431.9572 1113.925,431.9572 1113.925,440.0249 1116.2235,440.0249 1116.2235,431.9572 1120.3422,431.9572 1120.3422,441.5675 1122.6406,441.5675 1122.6406,423.8741 1125.1088,424.4757 1126.0806,422.4549 1120.0337,420.1217 1115.591,416.6085 1113.9867,418.5985 1120.3422,422.964 1120.3422,429.4737 1116.2235,429.4737 1116.2235,421.0974 1108.7728,421.0974 1108.7728,417.1484 1106.4743,417.1484 1106.4743,429.4737 1097.3731,429.4737 1097.3731,431.9572 1106.4743,431.9572"/>
    <polygon points="1108.7728,429.4737 1108.7728,423.5039 1113.925,423.5039 1113.925,429.4737"/>
    <polygon points="1099.1317,472.4346 1102.3555,472.157 1101.8118,460.8614 1103.7439,457.8418 1106.3817,459.1685 1108.711,462.6393 1104.2838,462.6393 1104.2838,465.6164 1110.0993,465.6164 1112.7217,472.4038 1115.6217,471.2623 1113.169,465.3234 1115.7505,462.5383 1115.668,457.7493 1118.1824,459.0759 1119.1388,470.0283 1122.0697,469.8431 1121.0671,460.4642 1124.0905,461.7291 1124.9544,458.721 1120.8665,457.2093 1121.0979,450.5453 1118.0282,450.5453 1117.9358,455.7593 1108.9271,449.1262 1106.9371,451.6097 1112.9452,456.8101 1113.5173,460.6094 1111.9043,462.5158 1106.3635,455.6546 1103.5005,455.0021 1100.8044,456.1333 1098.9221,461.1898"/>
    <polygon points="1063.9021,77.2272 1066.2999,77.2272 1066.2999,67.348 1070.9677,67.348 1074.021,76.2521 1076.0512,74.6855 1072.966,64.8543 1056.7526,64.5125 1048.5078,61.1935 1047.0371,63.3836 1051.4722,65.8161 1063.9021,67.348 1063.9021,70.9448 1046.8453,70.9448 1046.8453,73.4386 1063.9021,73.4386"/>
    <polyline points="1069.1773,61.9129 1070.0885,59.547 1065.1809,57.7246 1065.1809,55.5665 1070.0885,53.0088 1069.2093,50.8507 1065.1809,53.1047 1065.1809,48.6447 1062.7831,48.6447 1062.7831,55.1029 1059.8417,55.1029 1059.8417,49.5399 1057.4598,49.5399 1057.4598,53.5363 1051.689,48.1012 1049.7867,49.9236 1055.2857,55.1029 1046.8453,55.1029 1046.8453,57.5967 1055.4296,57.5967 1051.0016,61.4173 1052.6801,63.2557 1057.1561,58.8916 1056.1809,57.5967 1057.4598,57.5967 1057.4598,62.9519 1059.8417,62.9519 1059.8417,57.5967 1062.7831,57.5967 1062.7831,63.7512 1065.1809,63.7512 1065.1809,60.2344 1070.2804,63.4795 1072.6782,63.4795 1072.6782,57.6926 1075.8913,57.6926 1075.8913,55.103 1072.6782,55.103 1072.6782,49.0124 1070.2804,49.0124 1070.2804,63.4795"/>
    <polygon points="1056.085,109.0868 1058.4669,109.0868 1058.4669,97.7849 1063.8061,97.7849 1063.8061,106.1454 1066.188,106.1454 1066.188,97.7849 1070.4562,97.7849 1070.4562,107.744 1072.8381,107.744 1072.8381,89.4083 1075.3958,90.0318 1076.4029,87.9376 1070.3019,85.611 1065.5326,81.8791 1063.8701,83.9412 1070.4562,88.4652 1070.4562,95.2111 1066.188,95.2111 1066.188,86.5309 1058.4669,86.5309 1058.4669,82.4386 1056.085,82.4386 1056.085,95.2111 1046.6535,95.2111 1046.6535,97.7849 1056.085,97.7849"/>
    <polygon points="1058.4669,95.2111 1058.4669,89.0247 1063.8061,89.0247 1063.8061,95.2111"/>
    <polyline points="1050.8097,146.5094 1048.6197,147.8202 1049.3398,150.2907 1055.1898,160.0013 1046.7813,160.0013 1046.7813,162.4791 1055.0939,162.4791 1049.379,172.0495 1048.6836,174.7242 1050.8417,175.9391 1055.4616,165.6283 1055.4616,174.5324 1057.8434,174.5324 1057.8434,162.4791 1059.7777,162.4791 1059.7777,160.0013 1057.8434,160.0013 1057.8434,147.8202 1055.4616,147.8202 1055.3976,156.8841 1048.5877,143.3602 1049.1329,142.3256 1053.33,137.6305 1059.4101,134.9197 1059.4101,142.2252 1061.8079,142.2252 1061.8079,139.6035 1070.712,139.6035 1070.712,132.9215 1076.275,132.9215 1076.275,130.4277 1070.712,130.4277 1070.712,124.7368 1068.3301,124.7368 1068.3301,130.3957 1061.8079,130.076 1061.8079,122.9304 1059.4101,122.9304 1059.4101,129.5485 1057.6007,129.0204 1052.8742,126.6149 1048.7156,121.5237 1046.6854,123.33 1050.035,127.483 1059.49,132.298 1054.1021,134.1933 1049.5629,137.4499 1046.4776,141.6337 1048.5877,143.3602"/>
    <polygon points="1061.8079,137.0138 1061.8079,132.6657 1068.3301,132.9535 1068.3301,137.0138"/>
    <polygon points="1063.5024,125.584 1069.9926,122.8025 1069.3692,120.9002 1075.8594,120.9002 1075.8594,118.5183 1046.6215,118.5183 1046.6215,120.9002 1068.6818,120.9002 1062.815,123.2341"/>
    <polygon points="1069.3052,118.2146 1070.0246,115.9287 1061.5841,113.4349 1060.625,115.6409"/>
    <polyline points="1062.6232,163.4382 1062.6232,159.282 1065.7724,159.282 1065.7724,163.4382 1062.6232,163.4382 1060.2093,166.6034 1060.6569,172.4382 1058.5628,172.7259 1059.0264,174.7881 1064.9571,173.5892 1064.3337,171.4951 1062.815,171.9427 1062.6552,170.0723 1070.3443,174.2766 1071.4633,172.1345 1067.9944,170.6958 1068.6498,169.6247 1073.4935,172.0705 1074.5166,169.8805 1070.4493,168.1044 1070.2164,167.0031 1068.0263,166.0599 1065.8683,169.4649 1062.3994,166.1558 1060.2093,166.6034 1060.2413,165.7881 1073.2697,165.7881 1073.2697,162.543 1075.8594,163.8218 1076.6107,161.5998 1073.2697,159.9693 1073.2697,156.916 1060.2413,156.8841 1060.2413,165.7881"/>
    <polygon points="1068.1542,163.4382 1068.1542,159.282 1070.8718,159.282 1070.8718,163.4382"/>
    <polygon points="1059.0903,156.7882 1064.925,155.3495 1064.3335,153.3193 1062.687,153.8149 1062.4952,151.9126 1070.2483,156.2607 1071.3673,154.1665 1067.8984,152.5999 1068.5218,151.6408 1073.3975,154.0706 1074.4046,151.8806 1070.1208,149.9351 1070.4561,148.6035 1068.1541,147.5485 1065.8042,151.3531 1062.4952,149.0991 1062.4633,147.8842 1060.0654,148.2358 1060.529,154.2944 1058.5308,154.5342"/>
  </g>
</svg>
