<?xml version="1.0" encoding="UTF-8" standalone="no"?>
<svg
   xmlns:dc="http://purl.org/dc/elements/1.1/"
   xmlns:cc="http://creativecommons.org/ns#"
   xmlns:rdf="http://www.w3.org/1999/02/22-rdf-syntax-ns#"
   xmlns:svg="http://www.w3.org/2000/svg"
   xmlns="http://www.w3.org/2000/svg"
   xmlns:sodipodi="http://sodipodi.sourceforge.net/DTD/sodipodi-0.dtd"
   xmlns:inkscape="http://www.inkscape.org/namespaces/inkscape"
   width="140mm"
   height="216mm"
   viewBox="0 0 140 216"
   version="1.1"
   id="svg8"
   inkscape:version="1.0.1 (c497b03c, 2020-09-10)"
   sodipodi:docname="p3.svg">
  <defs
     id="defs2">
    <linearGradient
       id="linearGradient4609">
      <stop
         offset="0"
         style="stop-color: rgb(0, 0, 0); stop-opacity: 0;"
         id="stop4611" />
      <stop
         offset="0.49269524"
         style="stop-color: rgb(0, 0, 0); stop-opacity: 0.0235294;"
         id="stop4623" />
      <stop
         offset="0.5708732"
         style="stop-color: rgb(0, 0, 0); stop-opacity: 0.0352941;"
         id="stop4621" />
      <stop
         offset="0.63645512"
         style="stop-color: rgb(0, 0, 0); stop-opacity: 0.0666667;"
         id="stop4619" />
      <stop
         offset="0.69579047"
         style="stop-color: rgb(0, 0, 0); stop-opacity: 0.148936;"
         id="stop4617" />
      <stop
         offset="0.73030394"
         style="stop-color: rgb(0, 0, 0); stop-opacity: 0.212766;"
         id="stop4625" />
      <stop
         offset="1"
         style="stop-color: rgb(0, 0, 0); stop-opacity: 0.546099;"
         id="stop4613" />
    </linearGradient>
  </defs>
  <sodipodi:namedview
     id="base"
     pagecolor="#ffffff"
     bordercolor="#666666"
     borderopacity="1.0"
     inkscape:pageopacity="0.0"
     inkscape:pageshadow="2"
     inkscape:zoom="2.3611231"
     inkscape:cx="242.38655"
     inkscape:cy="111.38339"
     inkscape:document-units="mm"
     inkscape:current-layer="layer2"
     inkscape:document-rotation="0"
     showgrid="false"
     inkscape:window-width="1280"
     inkscape:window-height="747"
     inkscape:window-x="25"
     inkscape:window-y="25"
     inkscape:window-maximized="0" />
  <metadata
     id="metadata5">
    <rdf:RDF>
      <cc:Work
         rdf:about="">
        <dc:format>image/svg+xml</dc:format>
        <dc:type
           rdf:resource="http://purl.org/dc/dcmitype/StillImage" />
        <dc:title />
      </cc:Work>
    </rdf:RDF>
  </metadata>
  <g
     inkscape:label="Layer 1"
     inkscape:groupmode="layer"
     id="layer1">
    <g
       id="g42117"
       transform="matrix(0.06938527,0,0,0.06938527,30.15898,12.410643)"
       style="fill:none;stroke:#5d8fff;stroke-opacity:1">
      <g
         id="g43317"
         transform="matrix(1,0,0,1.0340399,-165.80425,-80.057716)">
        <path
           id="US-AL"
           title="Alabama"
           class="land"
           d="m 998.05225,574.91939 10.21135,34.5452 9.0042,27.57831 4.5272,8.48854 2.7289,4.82903 -3.3828,5.48297 -0.2641,9.2305 1.9618,5.2063 v 5.11827 l -0.1006,4.75358 1.9869,3.45829 1.6223,3.21936 -50.21444,5.70933 -13.94635,2.98042 -0.18863,2.2133 6.2878,6.43872 -0.76711,5.7722 -1.43362,4.09965 -22.37201,-1.21983 -4.42661,-43.6751 0.40242,-45.989 1.0312,-37.28668 -2.15043,-5.36979 29.42692,-2.72891 z"
           style="fill:none;stroke:#5d8fff;stroke-width:1.25756;stroke-opacity:1" />
        <path
           id="US-AR"
           title="Arkansas"
           class="land"
           d="m 901.47158,554.09418 -0.0755,2.37679 -2.07498,4.1751 -3.88586,3.0433 -0.57848,4.77873 -3.44572,3.98647 0.81742,8.27475 -2.50255,2.82951 -0.30181,2.28876 -4.06192,2.38937 0.16348,4.13738 -2.69118,7.82202 -2.64088,1.78574 -3.96132,4.1248 -2.18815,6.02372 -4.65298,10.24912 -0.18863,6.80341 3.15648,7.35673 -0.85515,5.68417 -20.41021,0.0251 -26.30818,1.9618 -23.30265,0.5659 1.04377,-16.27284 h -5.54584 l -4.6404,0.4653 -1.29529,-1.84861 0.26409,-25.02547 0.0252,-27.7921 -5.09312,-30.09343 27.99331,-0.20121 25.45308,-0.80484 24.2835,-1.11923 26.2956,0.21379 2.15043,3.39541 -2.40194,3.23193 -2.38936,3.24451 -1.24499,2.91754 z"
           style="fill:none;stroke:#5d8fff;stroke-width:1.25756;stroke-opacity:1" />
        <path
           id="US-AZ"
           title="Arizona"
           class="land"
           d="m 457.25069,509.95379 -23.12654,160.25099 -48.27777,-7.3693 -51.53485,-29.8042 -33.30021,-20.93839 3.30738,-4.92964 3.1439,0.69166 3.77269,-5.06797 -3.37027,-4.72843 0.0377,-4.37631 -0.18863,-5.19373 5.91053,-5.48296 4.50207,-12.43728 8.23702,-4.31344 -3.2948,-6.27523 -1.9115,-5.88538 -0.89287,-5.29433 -0.47787,-4.04935 0.0503,-2.60315 2.55285,-5.19373 0.0126,-5.70932 0.65393,-5.5207 1.25756,-6.01114 -1.23241,-4.25055 2.27619,-3.11876 4.76615,0.9809 3.94874,2.87982 2.86724,1.73543 2.36422,-3.96132 1.16953,-0.72938 4.36374,-22.53549 36.31836,6.52674 43.3104,7.49506 z"
           style="fill:none;stroke:#5d8fff;stroke-width:1.25756;stroke-opacity:1" />
        <path
           id="US-CA"
           title="California"
           class="land"
           d="m 249.16208,321.77236 -22.34686,82.55888 31.32584,47.91308 31.20009,46.19021 30.49585,43.71282 -0.0503,2.60315 0.47787,4.04935 0.89287,5.29433 1.9115,5.88538 3.2948,6.27523 -8.23702,4.31344 -4.50207,12.43728 -5.91053,5.48296 0.18863,5.19373 -0.0377,4.37631 3.37027,4.72843 -3.77269,5.06797 -3.1439,-0.69166 -30.68449,-3.5589 -27.3771,-4.03677 -0.42757,-10.94078 -6.45129,-16.78844 -20.61142,-22.76185 -9.01671,-3.42056 -7.69628,-11.33063 -17.51782,-7.00461 -4.5901,-6.06145 1.43362,-15.84527 -13.8709,-33.79066 -7.05492,-43.43616 2.66603,-6.09917 -6.8034,-11.9091 -9.46943,-27.943 4.08707,-23.08882 -6.38841,-18.39812 11.78334,-21.07672 6.75311,-23.52897 z"
           style="fill:none;stroke:#5d8fff;stroke-width:1.25756;stroke-opacity:1" />
        <path
           id="US-CO"
           title="Colorado"
           class="land"
           d="m 622.05406,441.35384 -2.70376,43.85115 -2.80436,41.77617 -21.94444,-1.67255 -27.28907,-2.32649 -38.69515,-3.88586 -35.89079,-4.32601 -35.4758,-4.81646 16.14708,-112.99185 21.46657,2.96784 21.47914,2.74148 43.04631,4.75358 21.56717,2.02468 43.04632,3.34511 -1.89892,27.64119 z"
           style="fill:none;stroke:#5d8fff;stroke-width:1.25756;stroke-opacity:1" />
        <path
           id="US-CT"
           title="Connecticut"
           class="land"
           d="m 1264.1396,320.08723 4.2757,15.01528 -0.1635,4.37631 -8.8029,3.86071 -11.7456,4.55238 -14.6632,10.68926 -1.5971,-3.1942 3.8733,-3.84814 -2.2385,-1.93664 -4.1877,-21.46657 15.9208,-3.55889 z"
           style="fill:none;stroke:#5d8fff;stroke-width:1.25756;stroke-opacity:1" />
        <path
           id="US-DC"
           title="Washington, DC"
           class="land"
           d="m 1174.7018,436.33617 -0.2389,-1.65998 -2.3265,-2.0121 1.4839,-1.71028 3.3829,2.30133 z"
           style="fill:none;stroke:#5d8fff;stroke-width:1.25756;stroke-opacity:1" />
        <path
           id="US-DE"
           title="Delaware"
           class="land"
           d="m 1203.8898,400.49568 -2.5151,3.63435 1.7857,5.21888 7.9478,13.93378 9.218,12.82712 -14.5626,3.34511 -9.6078,-35.08595 1.1444,-2.56543 1.6474,-1.68513 z"
           style="fill:none;stroke:#5d8fff;stroke-width:1.25756;stroke-opacity:1" />
        <path
           id="US-FL"
           title="Florida"
           class="land"
           d="m 1113.7479,682.06358 6.5644,20.22158 13.305,21.79354 14.9021,19.45447 1.9241,11.12941 16.1974,27.35195 5.6213,25.41531 -1.0186,25.86803 -10.136,6.97946 -13.5188,-1.33301 -6.2123,-11.97198 -10.9911,-5.04282 -17.5933,-22.62353 -15.7446,-19.10235 -4.3512,-13.4559 1.7732,-18.08373 -8.149,-15.16618 -18.6874,-14.83922 -15.6566,-8.94126 -26.5346,15.53088 -6.6902,-7.34416 -24.93743,-10.27427 -27.72922,6.41356 1.43362,-4.09965 0.76711,-5.7722 -6.2878,-6.43872 0.18863,-2.2133 13.94635,-2.98042 50.21444,-5.70933 4.6781,7.23098 24.9626,-1.88635 40.5815,-1.47134 2.5906,4.6907 2.7917,-3.0433 -1.4713,-9.88443 2.8044,-1.43362 5.1937,1.33302 z"
           style="fill:none;stroke:#5d8fff;stroke-width:1.25756;stroke-opacity:1" />
        <path
           id="US-GA"
           title="Georgia"
           class="land"
           d="m 1057.5223,567.44948 -2.2259,2.71633 -2.9804,5.88538 6.9795,3.81041 4.3134,1.13181 5.6716,8.31248 3.5463,4.60267 9.2305,5.47039 2.163,3.26966 6.3256,3.73495 3.8229,6.30039 8.5137,4.50206 2.7415,6.1872 1.9241,2.90497 -0.4905,2.21331 4.9674,2.36421 3.2445,4.91706 0.8426,5.39494 2.3893,0.67908 4.3764,0.76712 -7.1053,22.49776 -2.0246,16.95192 -5.2692,0.30182 -5.1937,-1.33302 -2.8044,1.43362 1.4713,9.88443 -2.7917,3.0433 -2.5906,-4.6907 -40.5815,1.47134 -24.9626,1.88635 -4.6781,-7.23098 -1.6223,-3.21936 -1.9869,-3.45829 0.1006,-4.75358 v -5.11827 l -1.9618,-5.2063 0.2641,-9.2305 3.3828,-5.48297 -2.7289,-4.82903 -4.5272,-8.48854 -9.0042,-27.57831 -10.21135,-34.5452 18.03345,-1.88634 12.4121,-1.86119 z"
           style="fill:none;stroke:#5d8fff;stroke-width:1.25756;stroke-opacity:1" />
        <path
           id="US-IA"
           title="Iowa"
           class="land"
           d="m 854.04896,343.16348 0.37727,1.5468 2.95526,4.38888 -1.74801,2.26361 0.38985,5.99857 0.99347,2.50255 1.5971,4.46434 7.02977,2.35164 2.30134,4.23798 1.35816,2.10012 2.59058,1.30787 1.19468,3.01814 3.47087,2.07498 2.35164,2.32649 -0.65393,7.734 -3.54633,6.7028 -1.30786,2.13785 -4.79131,1.93664 -7.28127,1.82347 -1.65999,5.00509 2.79179,2.07498 1.15696,4.36373 -2.55285,5.09313 -1.20726,4.40146 -5.34464,4.52722 -0.17605,5.21888 -3.0936,-2.22589 -4.37632,-4.42661 -23.73017,1.58453 -25.01294,0.93059 -19.49219,0.37727 -19.52993,0.12575 -1.44619,-5.16857 0.60363,-5.1057 -0.47788,-4.91706 -2.22588,-8.23703 -1.42104,-3.40799 -1.5468,-0.93059 -0.15091,-6.6022 -1.33301,-4.72843 -3.86072,-5.39493 0.0629,-2.36422 -1.33301,-4.71585 -0.9306,-2.85466 0.0377,-2.61573 -3.39542,-3.19421 1.72286,-4.67812 1.11923,-4.57752 0.5156,-3.10618 -2.65345,-3.81041 0.0754,-6.97946 h 2.76664 l 22.77442,0.0251 28.3077,-0.79227 30.40788,-1.09407 z"
           style="fill:none;stroke:#5d8fff;stroke-width:1.25756;stroke-opacity:1" />
        <path
           id="US-ID"
           title="Idaho"
           class="land"
           d="m 446.54885,291.35196 0.64135,0.62878 -11.74562,70.18448 -62.57623,-11.26774 -62.287,-13.80802 12.07259,-49.95033 3.62178,-7.50763 -0.76712,-4.0242 -3.30738,-2.76663 1.10665,-4.45177 4.30086,-5.6716 5.58357,-4.51464 4.92964,-8.37536 4.32601,-6.58962 2.82951,-3.1942 -0.0755,-4.4895 -2.76664,-3.03072 -3.35768,-6.46386 1.33301,-4.94222 -0.77969,-4.6907 8.65202,-39.2359 8.38793,-35.9914 18.31009,4.17511 -5.13085,30.01798 3.34512,8.60171 -1.13181,5.08055 2.56543,5.28176 3.84813,3.63435 2.27619,5.05539 3.52117,9.85928 4.14995,5.14342 5.79736,1.47135 -3.42057,5.80993 -3.42057,7.02977 0.15091,7.58309 -2.66603,1.34559 -1.28271,7.25613 2.95527,3.50859 4.5901,-2.55285 2.81693,-3.55889 2.23846,1.25756 1.5971,4.33858 0.5156,9.35626 2.84209,4.21283 -0.16348,7.60824 0.81741,2.28876 3.94874,1.48392 1.69771,4.56495 2.18816,7.99809 4.45176,-3.21936 6.42614,2.25104 1.04378,-2.67861 11.07911,3.79783 4.7913,-0.1006 3.84814,-5.11827 2.04983,1.14438 1.29528,4.30086 z"
           style="fill:none;stroke:#5d8fff;stroke-width:1.25756;stroke-opacity:1" />
        <path
           id="US-IL"
           title="Illinois"
           class="land"
           d="m 927.81747,366.69244 v 0.0755 l 0.82999,7.39445 7.10522,14.42423 v 0 0 l 3.05587,32.92295 3.0433,32.88521 -1.77316,8.13642 2.0121,1.9115 1.62225,4.741 0.18864,3.83556 -1.71029,1.89892 -1.1821,4.85419 -4.0745,6.61477 -2.46482,7.91005 -0.21379,5.80994 0.33955,2.10012 -2.21331,4.17511 2.163,2.51512 -3.79783,2.41451 -4.92964,2.81694 1.39589,6.1369 -2.79178,2.59057 -5.70933,-2.18815 -6.17461,-1.06893 -1.33302,2.87982 1.20726,4.23798 -4.37631,-4.11223 -2.40194,0.91802 -3.42057,-6.77825 0.52818,-4.32601 -2.17558,-6.76568 -2.33907,-0.67908 -6.3381,-5.84766 -2.56543,0.0629 -4.71585,-3.72238 -3.44572,-4.0745 1.13181,-5.09312 1.81088,-4.27571 0.9306,-5.33206 -4.52722,-4.31343 -4.09965,2.10012 -2.60315,-1.04377 -0.64136,-4.74101 -2.163,-5.3069 -2.1127,-1.18211 -5.30691,-3.54632 -4.46434,-4.61525 -3.94874,-5.6716 -2.37679,-8.42566 1.5468,-7.18067 0.17605,-5.21888 5.34464,-4.52722 1.20726,-4.40146 2.55285,-5.09313 -1.15696,-4.36373 -2.79179,-2.07498 1.65999,-5.00509 7.28127,-1.82347 4.79131,-1.93664 1.30786,-2.13785 3.54633,-6.7028 0.65393,-7.734 -2.35164,-2.32649 -3.47087,-2.07498 -1.19468,-3.01814 -2.59058,-1.30787 -1.35816,-2.10012 21.54202,-1.38332 22.01989,-1.62225 16.24767,-1.14438 -0.0126,-0.0755 z"
           style="fill:none;stroke:#5d8fff;stroke-width:1.25756;stroke-opacity:1" />
        <path
           id="US-IN"
           title="Indiana"
           class="land"
           d="m 993.71367,383.16649 3.0936,25.64167 3.24453,27.57831 2.2887,19.63053 -1.094,1.4965 2.5025,5.55842 -0.6917,2.2133 -3.72234,0.50303 -3.16905,2.91754 -5.36978,-0.40242 0.16348,5.49554 -2.89239,2.43967 -2.37679,5.2063 -3.06845,1.24499 -3.98647,8.97898 -4.81646,-1.93664 -1.77316,-3.31996 -3.30738,6.06144 -2.16301,3.42057 -5.16857,-2.84209 -4.90449,3.21936 -1.43362,2.93011 -7.34416,-3.6595 -4.53979,3.5589 -5.99857,-1.67256 0.0503,3.15648 -2.98042,-0.47787 0.21379,-5.80994 2.46482,-7.91005 4.0745,-6.61477 1.1821,-4.85419 1.71029,-1.89892 -0.18864,-3.83556 -1.62225,-4.741 -2.0121,-1.9115 1.77316,-8.13642 -3.0433,-32.88521 -3.05587,-32.92295 v 0 l 2.13786,1.73543 7.23097,-0.85514 5.43266,-3.69723 v 0 l 22.90019,-2.31391 19.97007,-2.50255 z"
           style="fill:none;stroke:#5d8fff;stroke-width:1.25756;stroke-opacity:1" />
        <path
           id="US-KS"
           title="Kansas"
           class="land"
           d="m 786.17834,531.10596 -20.07067,0.23894 -41.17255,-0.13833 -41.18512,-0.94317 -22.86246,-0.86772 -22.83731,-1.1318 -21.50429,-1.28272 2.80436,-41.77617 2.70376,-43.85115 h 0.0377 l 38.28016,2.17558 28.49633,1.14438 50.45335,1.01862 h 30.20661 l 5.24403,3.76011 2.85467,-0.088 0.67908,4.1248 -3.0433,5.31948 1.71028,2.69118 2.80437,5.96084 5.87281,2.61573 0.22636,30.54616 z"
           style="fill:none;stroke:#5d8fff;stroke-width:1.25756;stroke-opacity:1" />
        <path
           id="US-KY"
           title="Kentucky"
           class="land"
           d="m 1054.4413,468.81897 0.8174,2.61573 0.6288,5.87281 3.3199,4.01162 1.7229,4.11222 3.823,3.16905 2.7666,3.06845 4.4518,-0.15091 -7.7214,9.77125 -6.5519,4.35116 -0.2138,2.36422 -1.9618,3.33254 -5.7219,4.26313 -1.6474,3.03072 -4.4392,2.41452 -6.3507,2.50254 -15.3171,2.98042 -20.2719,1.28271 -6.52671,1.11923 -13.20439,0.67909 -13.4056,1.19468 -12.33667,1.0815 -14.24817,2.13786 -0.85514,-1.23241 -4.53979,0.46529 0.46529,4.46435 -32.82233,2.35163 4.92964,-3.37026 3.4583,-2.64088 -0.77969,-4.43919 0.50302,-2.90496 -1.20726,-4.23798 1.33302,-2.87982 6.17461,1.06893 5.70933,2.18815 2.79178,-2.59057 -1.39589,-6.1369 4.92964,-2.81694 3.79783,-2.41451 -2.163,-2.51512 2.21331,-4.17511 -0.33955,-2.10012 2.98042,0.47787 -0.0503,-3.15648 5.99857,1.67256 4.53979,-3.5589 7.34416,3.6595 1.43362,-2.93011 4.90449,-3.21936 5.16857,2.84209 2.16301,-3.42057 3.30738,-6.06144 1.77316,3.31996 4.81646,1.93664 3.98647,-8.97898 3.06845,-1.24499 2.37679,-5.2063 2.89239,-2.43967 -0.16348,-5.49554 5.36978,0.40242 3.16905,-2.91754 3.72234,-0.50303 0.6917,-2.2133 -2.5025,-5.55842 1.094,-1.4965 7.6334,-0.28924 4.2506,2.22588 6.7154,5.6213 4.9548,1.37074 3.7223,1.82346 5.1686,-1.50907 4.1248,1.0815 4.5272,-2.22588 4.1248,-1.09408 2.3391,3.69723 z"
           style="fill:none;stroke:#5d8fff;stroke-width:1.25756;stroke-opacity:1" />
        <path
           id="US-LA"
           title="Louisiana"
           class="land"
           d="m 871.5039,642.22405 1.81089,1.5468 -1.97437,4.25056 3.82299,5.69675 -0.80484,3.59662 3.40799,4.75358 -3.21936,3.11876 -0.82999,5.47039 -4.48949,4.71585 -1.89892,6.12432 -1.88634,7.02977 -2.85466,3.35769 1.34559,7.11779 21.85641,-0.25151 23.3026,-1.42105 -0.37727,4.81646 -1.32044,4.81646 1.82347,3.52117 3.49602,3.10618 1.21982,4.6907 0.66651,2.81694 -2.04982,12.17319 9.07958,16.71298 -34.73382,3.40799 -21.79353,-4.75358 -14.82665,-5.28175 -19.29098,-3.01815 -21.83131,-0.23894 -2.163,-3.7601 2.45224,-4.28829 3.6595,-3.89844 -0.0754,-5.74705 -1.87377,-1.87377 1.99952,-6.92916 1.50908,-3.15647 2.1127,-10.57609 -2.30134,-3.86071 -3.01814,-6.46387 -2.26361,-6.60219 -1.47135,-4.40147 -4.08707,-3.1439 -2.15043,-30.62161 23.30265,-0.5659 26.30818,-1.9618 z"
           style="fill:none;stroke:#5d8fff;stroke-width:1.25756;stroke-opacity:1" />
        <path
           id="US-MA"
           title="Massachusetts"
           class="land"
           d="m 1277.7087,291.025 3.9487,14.63801 10.9282,12.62591 8.7023,-1.78574 -5.0679,-9.3814 7.9226,4.28828 0.6539,8.31248 -12.6007,8.47596 -10.0731,2.27619 -1.748,-4.03677 -4.1248,-2.25104 -3.5338,-6.79083 -8.5765,2.69118 -19.3287,4.4895 -15.9208,3.55889 -0.4275,-20.209 16.9519,-3.92359 24.6356,-6.43871 1.3456,-3.30739 3.7727,-3.06845 z"
           style="fill:none;stroke:#5d8fff;stroke-width:1.25756;stroke-opacity:1" />
        <path
           id="US-MD"
           title="Maryland"
           class="land"
           d="m 1196.1558,404.36897 9.6078,35.08595 14.5626,-3.34511 1.8108,2.22588 -6.2249,11.48153 -5.0051,1.59711 -1.2953,2.30133 -14.1601,-10.78987 -5.5584,-20.68688 -1.4211,10.58866 5.5836,24.04457 -14.9775,-5.44524 -2.1127,-3.64693 -3.32,1.9618 -3.2319,-0.91802 1.1946,-6.74053 3.1817,-3.40799 -0.088,-2.33906 2.3014,-3.08103 -3.3829,-2.30133 -1.4839,1.71028 -4.7033,-2.26361 -4.9422,-0.72938 0.9683,-3.33254 -3.3073,-1.50907 -3.3829,-0.28924 -2.4271,-3.21936 -3.4457,-3.45829 -7.1304,-0.88029 -3.7475,2.93011 -1.9618,2.54028 -6.6148,0.11318 -2.339,3.48344 -4.0997,1.92407 -3.1313,3.92359 -2.8798,3.13133 -2.4271,-14.27332 20.0832,-3.76011 6.8412,-1.39589 15.2919,-3.20678 18.4484,-3.76011 z"
           style="fill:none;stroke:#5d8fff;stroke-width:1.25756;stroke-opacity:1" />
        <path
           id="US-ME"
           title="Maine"
           class="land"
           d="m 1279.3686,283.86948 -2.0498,0.88029 -2.0247,-3.57147 -4.8667,-3.03073 -0.013,-2.93011 -16.713,-49.48503 6.6777,-7.09264 3.2445,-14.53741 -0.4402,-23.21457 8.1742,-25.1638 8.4508,5.35721 11.1168,-8.58914 10.8528,5.28176 11.972,37.38728 17.5932,11.35578 4.0745,11.50668 -16.1722,14.8015 -17.0903,12.38697 -17.5932,23.22715 z"
           style="fill:none;stroke:#5d8fff;stroke-width:1.25756;stroke-opacity:1" />
        <path
           id="US-MI"
           title="Michigan"
           class="land"
           d="m 981.77941,244.24373 v 0 l 6.69023,0.0377 v 0 l -2.13786,3.15647 11.35578,10.07307 -17.17828,4.84161 -0.67909,-0.0503 -16.02132,-1.13181 -14.92725,7.44476 -13.34272,3.97389 -10.07307,19.34129 -0.54075,-0.15091 -0.0126,0.0503 -3.00557,-3.13133 1.06892,-4.741 -4.46434,0.1509 0.50302,-4.72843 1.01863,-2.41451 -2.13785,-3.86072 -4.8919,-1.39589 -1.50908,-4.61525 -3.92359,-0.0377 -5.64645,0.42757 -11.9091,-4.26314 -17.78191,-3.92359 -1.93664,-5.06797 -3.16906,-0.74196 -0.0252,-0.088 -1.19468,0.66651 -0.18864,-0.13833 0.17606,0.12576 14.78892,-8.32506 15.09073,-10.50063 16.46147,-10.97851 -4.96736,15.70694 11.48152,2.6786 14.9524,9.59519 16.87647,-8.21187 19.06462,-4.72843 5.1057,7.50764 6.17462,0.40242 z m 57.28189,94.75722 v 0 l -0.4653,0.45272 -7.5202,17.00223 -3.1942,10.56351 v 0 l -5.7093,11.93425 v 0 l -7.9604,1.34559 -9.6581,1.27014 -10.84013,1.58453 -0.28924,-2.21331 -19.97007,2.50254 -22.90019,2.31392 v 0 0 l 3.89844,-4.37632 7.1178,-14.75119 -1.4462,-18.81311 -8.7652,-16.86389 -0.23893,-12.18577 3.84813,-14.54998 4.0242,-10.13594 7.319,-7.74657 2.993,9.34367 1.91149,-14.4871 4.08707,-3.43314 1.48393,-11.17972 17.70645,3.54632 16.34825,9.07959 3.4583,12.67622 -0.038,13.20439 -9.6958,12.90258 2.0121,7.00461 4.1248,-0.31439 10.9785,-14.26074 7.9855,1.73543 6.1495,15.87042 2.7792,11.44381 z"
           style="fill:none;stroke:#5d8fff;stroke-width:1.25756;stroke-opacity:1" />
        <path
           id="US-MN"
           title="Minnesota"
           class="land"
           d="m 878.79776,211.73578 -0.0126,0.0126 -19.19038,10.80245 -13.24212,12.29895 -12.77682,12.78939 0.12576,4.22541 -5.156,1.82346 0.86772,16.12193 h -0.62878 l -4.82904,3.37027 -4.1751,2.91754 -2.67865,5.38236 4.42666,5.23145 -1.28271,7.26871 0.26409,7.7843 -0.40242,6.32553 6.17462,5.29433 2.45224,0.16349 6.80341,3.79783 2.38937,1.83604 1.58452,3.01814 5.42009,4.67813 7.19325,3.88587 0.79226,2.32648 0.415,6.87886 0.71681,3.19421 -27.3268,0.71681 -30.40788,1.09407 -28.3077,0.79227 -22.77442,-0.0251 0.41499,-26.7609 -2.32649,-27.47771 -3.52117,-2.26361 -1.96179,-4.45176 1.11923,-3.88587 4.52722,-3.18163 0.37726,-4.1751 0.0377,-5.23145 -1.21983,-4.37632 -1.63483,-4.67812 -0.91802,-5.86024 -0.18864,-6.56446 -0.65393,-1.58453 -0.72938,-8.46339 -0.0377,-3.88586 -0.35212,-3.45829 -0.91802,-5.86024 -2.30133,-5.96084 -2.18816,-5.31948 -0.26409,-5.2566 -0.17606,-5.6716 0.70424,-3.69723 0.16348,-3.37027 -1.73543,-4.20025 -0.23894,-2.85466 39.52514,0.11318 -0.0629,-11.15457 6.42614,-0.22636 3.59663,15.89557 6.04886,4.81646 13.45591,1.48392 19.78148,3.98647 19.10235,8.17415 15.44285,-4.5901 24.25835,5.98599 z"
           style="fill:none;stroke:#5d8fff;stroke-width:1.25756;stroke-opacity:1" />
        <path
           id="US-MO"
           title="Missouri"
           class="land"
           d="m 854.3382,432.7647 -1.5468,7.18067 2.37679,8.42566 3.94874,5.6716 4.46434,4.61525 5.30691,3.54632 2.1127,1.18211 2.163,5.3069 0.64136,4.74101 2.60315,1.04377 4.09965,-2.10012 4.52722,4.31343 -0.9306,5.33206 -1.81088,4.27571 -1.13181,5.09312 3.44572,4.0745 4.71585,3.72238 2.56543,-0.0629 6.3381,5.84766 2.33907,0.67908 2.17558,6.76568 -0.52818,4.32601 3.42057,6.77825 2.40194,-0.91802 4.37631,4.11223 -0.50302,2.90496 0.77969,4.43919 -3.4583,2.64088 -4.92964,3.37026 -0.40242,2.79179 -1.11922,4.16253 -1.30787,7.06749 -15.09073,0.99347 1.24499,-2.91754 2.38936,-3.24451 2.40194,-3.23193 -2.15043,-3.39541 -26.2956,-0.21379 -24.2835,1.11923 -25.45308,0.80484 -27.99331,0.20121 0.0503,-13.10379 h -0.11318 l -0.30181,-30.48327 -0.22636,-30.54616 -5.87281,-2.61573 -2.80437,-5.96084 -1.71028,-2.69118 3.0433,-5.31948 -0.67908,-4.1248 -2.85467,0.088 -5.24403,-3.76011 -2.89239,-6.07402 -3.40799,-3.63435 -3.68465,-4.50207 -0.44015,-2.35164 19.52993,-0.12575 19.49219,-0.37727 25.01294,-0.93059 23.73017,-1.58453 4.37632,4.42661 z"
           style="fill:none;stroke:#5d8fff;stroke-width:1.25756;stroke-opacity:1" />
        <path
           id="US-MS"
           title="Mississippi"
           class="land"
           d="m 938.56962,580.50296 2.15043,5.36979 -1.0312,37.28668 -0.40242,45.989 4.42661,43.6751 -14.73861,7.68369 -14.37392,0.59106 -0.66651,-2.81694 -1.21982,-4.6907 -3.49602,-3.10618 -1.82347,-3.52117 1.32044,-4.81646 0.37727,-4.81646 -23.3026,1.42105 -21.85641,0.25151 -1.34559,-7.11779 2.85466,-3.35769 1.88634,-7.02977 1.89892,-6.12432 4.48949,-4.71585 0.82999,-5.47039 3.21936,-3.11876 -3.40799,-4.75358 0.80484,-3.59662 -3.82299,-5.69675 1.97437,-4.25056 -1.81089,-1.5468 0.85515,-5.68417 -3.15648,-7.35673 0.18863,-6.80341 4.65298,-10.24912 2.18815,-6.02372 3.96132,-4.1248 2.64088,-1.78574 2.69118,-7.82202 -0.16348,-4.13738 4.06192,-2.38937 0.30181,-2.28876 23.08882,-1.60968 z"
           style="fill:none;stroke:#5d8fff;stroke-width:1.25756;stroke-opacity:1" />
        <path
           id="US-MT"
           title="Montana"
           class="land"
           d="m 593.85954,268.22542 -3.37026,26.13211 -33.74036,-3.62177 -36.40639,-4.13738 -31.32585,-4.59009 -39.61317,-5.98599 -2.31391,14.38649 -0.54075,0.94317 -1.93665,-1.92406 -1.29528,-4.30086 -2.04983,-1.14438 -3.84814,5.11827 -4.7913,0.1006 -11.07911,-3.79783 -1.04378,2.67861 -6.42614,-2.25104 -4.45176,3.21936 -2.18816,-7.99809 -1.69771,-4.56495 -3.94874,-1.48392 -0.81741,-2.28876 0.16348,-7.60824 -2.84209,-4.21283 -0.5156,-9.35626 -1.5971,-4.33858 -2.23846,-1.25756 -2.81693,3.55889 -4.5901,2.55285 -2.95527,-3.50859 1.28271,-7.25613 2.66603,-1.34559 -0.15091,-7.58309 3.42057,-7.02977 3.42057,-5.80993 -5.79736,-1.47135 -4.14995,-5.14342 -3.52117,-9.85928 -2.27619,-5.05539 -3.84813,-3.63435 -2.56543,-5.28176 1.13181,-5.08055 -3.34512,-8.60171 5.13085,-30.01798 55.87344,11.53183 56.23812,9.68322 56.52737,7.8346 56.75373,5.97342 -4.42662,52.88044 z"
           style="fill:none;stroke:#5d8fff;stroke-width:1.25756;stroke-opacity:1" />
        <path
           id="US-NC"
           title="North Carolina"
           class="land"
           d="m 1214.3024,493.02702 9.482,27.12559 -9.9473,23.93138 -20.3599,15.60634 -17.0651,18.15918 -7.9603,3.28223 -31.0744,-21.68035 -25.8303,4.23798 -0.4904,-3.29481 -4.4266,-4.16253 -2.0247,2.25104 -0.5911,-2.45225 -11.0539,0.4653 -21.4163,3.0936 -11.8211,6.69023 -2.2007,1.16953 -29.0245,3.72238 -0.2641,-6.06145 4.6907,-2.42709 1.1947,-3.24451 2.8295,-3.87328 4.5901,-1.38332 5.2566,-2.04983 4.9297,-3.18163 1.924,-2.81693 4.0619,-2.89239 -0.4149,-2.02468 5.2188,-4.67812 2.2259,2.21331 7.6586,-6.6022 4.0367,-0.0503 2.7792,-5.28176 4.4518,-1.94922 -0.8803,-3.98647 0.013,-3.63435 38.4939,-5.21888 45.0962,-8.4005 23.8182,-5.16858 z"
           style="fill:none;stroke:#5d8fff;stroke-width:1.25756;stroke-opacity:1" />
        <path
           id="US-ND"
           title="North Dakota"
           class="land"
           d="m 731.21035,187.25107 0.23894,2.85466 1.73543,4.20025 -0.16348,3.37027 -0.70424,3.69723 0.17606,5.6716 0.26409,5.2566 2.18816,5.31948 2.30133,5.96084 0.91802,5.86024 0.35212,3.45829 0.0377,3.88586 0.72938,8.46339 0.65393,1.58453 0.18864,6.56446 0.91802,5.86024 1.63483,4.67812 1.21983,4.37632 -0.0377,5.23145 -38.16697,0.94317 -32.57083,-1.23241 -41.05937,-2.17558 -38.2047,-2.85466 2.08755,-34.94762 4.42662,-52.88044 65.93392,4.70328 z"
           style="fill:none;stroke:#5d8fff;stroke-width:1.25756;stroke-opacity:1" />
        <path
           id="US-NE"
           title="Nebraska"
           class="land"
           d="m 745.04352,374.70311 0.9306,2.85466 1.33301,4.71585 -0.0629,2.36422 3.86072,5.39493 1.33301,4.72843 0.15091,6.6022 1.5468,0.93059 1.42104,3.40799 2.22588,8.23703 0.47788,4.91706 -0.60363,5.1057 1.44619,5.16857 0.44015,2.35164 3.68465,4.50207 3.40799,3.63435 2.89239,6.07402 H 739.3216 l -50.45335,-1.01862 -28.49633,-1.14438 -38.28016,-2.17558 h -0.0377 l 0.0503,-0.91802 1.89892,-27.64119 -43.04632,-3.34511 4.87934,-56.81661 40.87073,3.18163 31.43903,1.86119 42.06541,1.65998 5.33206,3.76011 7.6837,2.46482 1.83604,-1.27014 5.00509,0.20121 7.52022,-0.16348 5.39493,3.74753 5.75963,2.43967 0.94317,2.38936 1.81089,1.38332 z"
           style="fill:none;stroke:#5d8fff;stroke-width:1.25756;stroke-opacity:1" />
        <path
           id="US-NH"
           title="New Hampshire"
           class="land"
           d="m 1279.3686,283.86948 -1.6599,7.15552 -2.5403,0.16348 -3.7727,3.06845 -1.3456,3.30739 -24.6356,6.43871 -2.3894,-2.43967 0.654,-4.01162 -1.4337,-7.38188 0.1635,-1.89892 -1.0563,-6.71538 0.7294,-6.11174 0.9934,-2.85467 0.6162,-7.19324 -0.7419,-4.57753 -0.063,-2.86724 3.4709,-2.37679 3.5589,-4.42661 -0.1635,-3.64693 -2.5529,-3.55889 0.2264,-8.16158 -0.038,-0.0126 0.063,-7.35673 6.2501,-2.67861 16.713,49.48503 0.013,2.93011 4.8667,3.03073 2.0247,3.57147 z"
           style="fill:none;stroke:#5d8fff;stroke-width:1.25756;stroke-opacity:1" />
        <path
           id="US-NJ"
           title="New Jersey"
           class="land"
           d="m 1227.8338,360.60585 -3.9236,15.26679 5.5962,-0.088 1.2449,20.86293 -10.5383,25.1135 -3.2948,-6.7531 -5.0806,-0.32697 -6.8537,-6.07402 -1.8235,0.74196 -1.7857,-5.21888 2.5151,-3.63435 3.7979,-3.5589 1.1318,-2.08755 4.2002,-4.86676 2.0247,-3.67208 -8.3879,-5.60872 -1.0564,-2.85466 -2.5025,-0.32697 -0.9432,-4.48949 1.6726,-3.97389 -1.9744,-3.35769 2.7918,-3.23193 2.2007,-7.08007 2.2636,-1.83604 z"
           style="fill:none;stroke:#5d8fff;stroke-width:1.25756;stroke-opacity:1" />
        <path
           id="US-NM"
           title="New Mexico"
           class="land"
           d="m 594.6015,525.30861 -1.05635,14.10983 -5.75963,74.58594 -4.14995,53.72301 -22.61095,-1.86119 -43.81342,-4.27571 -21.86899,-2.46482 -0.0251,2.46482 2.20073,4.86676 -41.9145,-5.26918 -1.89892,11.69532 -19.58022,-2.67861 23.12654,-160.25099 35.4758,4.81646 35.89079,4.32601 38.69515,3.88586 z"
           style="fill:none;stroke:#5d8fff;stroke-width:1.25756;stroke-opacity:1" />
        <path
           id="US-NV"
           title="Nevada"
           class="land"
           d="m 372.86835,350.89748 -28.03103,139.81563 -4.36374,22.53549 -1.16953,0.72938 -2.36422,3.96132 -2.86724,-1.73543 -3.94874,-2.87982 -4.76615,-0.9809 -2.27619,3.11876 1.23241,4.25055 -1.25756,6.01114 -0.65393,5.5207 -0.0126,5.70932 -2.55285,5.19373 -30.49585,-43.71282 -31.20009,-46.19021 -31.32584,-47.91308 22.34686,-82.55888 61.39412,15.39255 0.0251,-0.0755 z"
           style="fill:none;stroke:#5d8fff;stroke-width:1.25756;stroke-opacity:1" />
        <path
           id="US-NY"
           title="New York"
           class="land"
           d="m 1228.4626,307.92662 0.4275,20.209 4.1877,21.46657 2.2385,1.93664 -3.8733,3.84814 1.5971,3.1942 28.6472,-11.3935 7.5831,3.5589 -27.1884,15.99617 -13.4182,3.43315 -0.83,-9.57004 -18.7251,-7.05492 -3.8481,-1.15696 -4.0116,-1.09407 -2.3014,-3.72238 -0.1635,-3.19421 -3.0684,-1.93664 -5.5333,-3.31996 -28.2574,6.25007 -30.3952,6.30038 -32.6463,6.1872 -1.3833,-7.62082 14.7512,-20.05809 -0.9055,-2.61573 -0.013,-0.0755 -4.3511,-7.5831 10.0227,-5.58357 16.298,-2.163 17.2412,-1.16953 13.2798,-12.55046 -3.6092,-10.61382 -3.257,-3.84813 -0.088,-0.0251 0.013,-0.0126 0.088,0.0377 16.4112,-23.74275 7.7592,-7.24356 29.9928,-7.57051 1.0312,5.73448 0.1132,3.78525 2.578,8.12385 2.1755,3.96131 -0.5533,6.25008 3.6847,6.79083 -0.2641,4.35116 0.6413,0.95575 2.9427,-0.52818 z"
           style="fill:none;stroke:#5d8fff;stroke-width:1.25756;stroke-opacity:1" />
        <path
           id="US-OH"
           title="Ohio"
           class="land"
           d="m 1089.5272,398.91115 -2.7289,1.9115 1.5217,3.42056 0.1006,6.6525 -0.9809,7.69627 -1.0815,6.42614 0.1257,2.95527 -4.8541,7.40703 -2.3014,1.78574 -2.8169,1.27014 -2.7415,-0.20121 -4.1122,5.62129 -0.088,5.21888 -0.2515,2.85467 -1.7857,1.42104 -0.7671,-3.0936 -3.081,-0.22636 -2.163,6.58962 0.6036,6.30038 -2.2888,4.35116 -5.3949,1.5468 -4.5398,-2.10013 -2.3391,-3.69723 -4.1248,1.09408 -4.5272,2.22588 -4.1248,-1.0815 -5.1686,1.50907 -3.7223,-1.82346 -4.9548,-1.37074 -6.7154,-5.6213 -4.2506,-2.22588 -7.6334,0.28924 -2.2887,-19.63053 -3.24453,-27.57831 -3.0936,-25.64167 10.84013,-1.58453 9.6581,-1.27013 7.9604,-1.35817 v 0 0.0126 l 13.9212,3.98647 10.8024,-0.12576 14.7764,-6.14947 11.2426,-9.83413 10.1862,-5.6213 z"
           style="fill:none;stroke:#5d8fff;stroke-width:1.25756;stroke-opacity:1" />
        <path
           id="US-OK"
           title="Oklahoma"
           class="land"
           d="m 786.24122,544.20975 5.09312,30.09343 -0.0252,27.7921 -0.26409,25.02547 -10.3623,-5.45782 -6.71538,-2.96784 -5.40751,1.97437 -8.38793,-0.26409 -4.96737,0.0503 -4.08707,2.32649 -3.99904,1.18211 -3.49602,-1.42105 -7.98551,1.4965 -3.57148,-4.80388 -3.77268,4.08707 -6.48902,-1.93664 -6.60219,-4.55237 -7.2184,2.71633 -2.96784,-6.95431 -11.09169,0.38984 -7.02977,-1.74801 -7.89748,-2.30134 -3.30739,-6.04886 -6.30038,1.67255 -3.7601,-2.48997 -5.50812,-3.30738 1.20726,-27.23878 1.21983,-27.93042 -23.01336,-1.14439 -23.01337,-1.38331 -22.97564,-1.64741 1.05635,-14.10983 21.94444,1.67255 21.50429,1.28272 22.83731,1.1318 22.86246,0.86772 41.18512,0.94317 41.17255,0.13833 20.07067,-0.23894 h 0.11318 z"
           style="fill:none;stroke:#5d8fff;stroke-width:1.25756;stroke-opacity:1" />
        <path
           id="US-OR"
           title="Oregon"
           class="land"
           d="m 339.07769,226.0594 3.35768,6.46386 2.76664,3.03072 0.0755,4.4895 -2.82951,3.1942 -4.32601,6.58962 -4.92964,8.37536 -5.58357,4.51464 -4.30086,5.6716 -1.10665,4.45177 3.30738,2.76663 0.76712,4.0242 -3.62178,7.50763 -12.07259,49.95033 -0.0251,0.0755 -61.39412,-15.39255 -86.08005,-25.62909 -1.58453,-17.35434 15.49315,-27.2262 11.23002,-30.31979 16.61238,-40.20422 4.06192,0.86771 5.77221,1.9618 3.86071,3.93616 5.06797,3.28224 1.9618,6.3381 -0.89287,4.76616 0.26409,4.28828 4.14995,2.38937 4.77873,1.33301 8.33763,-0.71681 4.6404,0.38985 6.57704,3.16905 2.64088,2.31391 4.33859,0.16349 5.04282,-1.00605 8.65201,2.77921 8.03582,-1.11923 4.38889,-1.24499 4.62782,2.5277 7.72143,-1.09408 z"
           style="fill:none;stroke:#5d8fff;stroke-width:1.25756;stroke-opacity:1" />
        <path
           id="US-PA"
           title="Pennsylvania"
           class="land"
           d="m 1209.1087,353.55093 -2.2636,1.83604 -2.2007,7.08007 -2.7918,3.23193 1.9744,3.35769 -1.6726,3.97389 0.9432,4.48949 2.5025,0.32697 1.0564,2.85466 8.3879,5.60872 -2.0247,3.67208 -4.2002,4.86676 -1.1318,2.08755 -3.7979,3.5589 -4.9422,-0.37727 -1.6474,1.68513 -1.1444,2.56543 -18.9263,4.26313 -18.4484,3.76011 -15.2919,3.20678 -6.8412,1.39589 -20.0832,3.76011 -22.5858,4.02419 -4.4518,-25.86803 -6.4261,-37.6891 v 0 l 14.3613,-10.9282 0.038,-0.0503 1.3833,7.62082 32.6463,-6.1872 30.3952,-6.30038 28.2574,-6.25007 5.5333,3.31996 3.0684,1.93664 0.1635,3.19421 2.3014,3.72238 4.0116,1.09407 z"
           style="fill:none;stroke:#5d8fff;stroke-width:1.25756;stroke-opacity:1" />
        <path
           id="US-RI"
           title="Rhode Island"
           class="land"
           d="m 1282.1227,330.47469 -13.8709,9.00413 0.1635,-4.37631 -4.2757,-15.01528 8.5765,-2.69118 3.5338,6.79083 4.1248,2.25104 z"
           style="fill:none;stroke:#5d8fff;stroke-width:1.25756;stroke-opacity:1" />
        <path
           id="US-SC"
           title="South Carolina"
           class="land"
           d="m 1168.4518,581.13174 -5.4704,21.51687 -17.5178,21.27793 -22.5858,18.68736 -4.3764,-0.76712 -2.3893,-0.67908 -0.8426,-5.39494 -3.2445,-4.91706 -4.9674,-2.36421 0.4905,-2.21331 -1.9241,-2.90497 -2.7415,-6.1872 -8.5137,-4.50206 -3.8229,-6.30039 -6.3256,-3.73495 -2.163,-3.26966 -9.2305,-5.47039 -3.5463,-4.60267 -5.6716,-8.31248 -4.3134,-1.13181 -6.9795,-3.81041 2.9804,-5.88538 2.2259,-2.71633 2.2007,-1.16953 11.8211,-6.69023 21.4163,-3.0936 11.0539,-0.4653 0.5911,2.45225 2.0247,-2.25104 4.4266,4.16253 0.4904,3.29481 25.8303,-4.23798 z"
           style="fill:none;stroke:#5d8fff;stroke-width:1.25756;stroke-opacity:1" />
        <path
           id="US-SD"
           title="South Dakota"
           class="land"
           d="m 745.23216,345.74148 h -2.76664 l -0.0754,6.97946 2.65345,3.81041 -0.5156,3.10618 -1.11923,4.57752 -1.72286,4.67812 3.39542,3.19421 -0.0377,2.61573 -3.54632,-0.415 -1.81089,-1.38332 -0.94317,-2.38936 -5.75963,-2.43967 -5.39493,-3.74753 -7.52022,0.16348 -5.00509,-0.20121 -1.83604,1.27014 -7.6837,-2.46482 -5.33206,-3.76011 -42.06541,-1.65998 -31.43903,-1.86119 -40.87073,-3.18163 4.65298,-58.27538 3.37026,-26.13211 38.2047,2.85466 41.05937,2.17558 32.57083,1.23241 38.16697,-0.94317 -0.37726,4.1751 -4.52722,3.18163 -1.11923,3.88587 1.96179,4.45176 3.52117,2.26361 2.32649,27.47771 z"
           style="fill:none;stroke:#5d8fff;stroke-width:1.25756;stroke-opacity:1" />
        <path
           id="US-TN"
           title="Tennessee"
           class="land"
           d="m 1037.3636,523.54802 33.9919,-3.94874 11.4438,-2.35164 -0.013,3.63435 0.8803,3.98647 -4.4518,1.94922 -2.7792,5.28176 -4.0367,0.0503 -7.6586,6.6022 -2.2259,-2.21331 -5.2188,4.67812 0.4149,2.02468 -4.0619,2.89239 -1.924,2.81693 -4.9297,3.18163 -5.2566,2.04983 -4.5901,1.38332 -2.8295,3.87328 -1.1947,3.24451 -4.6907,2.42709 0.2641,6.06145 -12.4121,1.86119 -18.03345,1.88634 -30.05571,2.85466 -29.42692,2.72891 -25.75484,1.44619 -23.08882,1.60968 2.50255,-2.82951 -0.81742,-8.27475 3.44572,-3.98647 0.57848,-4.77873 3.88586,-3.0433 2.07498,-4.1751 0.0755,-2.37679 1.30787,-7.06749 1.11922,-4.16253 0.40242,-2.79179 32.82233,-2.35163 -0.46529,-4.46435 4.53979,-0.46529 0.85514,1.23241 14.24817,-2.13786 12.33667,-1.0815 13.4056,-1.19468 13.20439,-0.67909 6.52676,-1.11923 20.2719,-1.28271 z"
           style="fill:none;stroke:#5d8fff;stroke-width:1.25756;stroke-opacity:1" />
        <path
           id="US-TX"
           title="Texas"
           class="land"
           d="m 791.0451,627.12075 1.29529,1.84861 4.6404,-0.4653 h 5.54584 l -1.04377,16.27284 2.15043,30.62161 4.08707,3.1439 1.47135,4.40147 2.26361,6.60219 3.01814,6.46387 2.30134,3.86071 -2.1127,10.57609 -1.50908,3.15647 -1.99952,6.92916 1.87377,1.87377 0.0754,5.74705 -3.6595,3.89844 -2.45224,4.28829 2.163,3.7601 -21.40369,6.46387 -22.88761,21.63005 -25.4153,12.44985 -14.16014,13.69484 -6.12432,12.96545 -0.55333,20.04552 1.09408,13.99666 4.86676,9.99761 -10.312,0.71681 -18.58675,-6.80341 -20.23416,-9.63291 -6.85371,-13.9212 -4.94221,-20.53598 -14.51225,-17.15313 -8.03582,-17.35434 -11.68274,-20.42279 -17.07768,-12.51273 -20.56112,-0.81742 -17.59328,21.5546 -20.25931,-10.37488 -12.22349,-9.85928 -4.72843,-16.37344 -6.77825,-15.76981 -13.36787,-14.09726 -11.55699,-10.38746 -7.74658,-11.14199 -2.20073,-4.86676 0.0251,-2.46482 21.86899,2.46482 43.81342,4.27571 22.61095,1.86119 4.14995,-53.72301 5.75963,-74.58594 22.97564,1.64741 23.01337,1.38331 23.01336,1.14439 -1.21983,27.93042 -1.20726,27.23878 5.50812,3.30738 3.7601,2.48997 6.30038,-1.67255 3.30739,6.04886 7.89748,2.30134 7.02977,1.74801 11.09169,-0.38984 2.96784,6.95431 7.2184,-2.71633 6.60219,4.55237 6.48902,1.93664 3.77268,-4.08707 3.57148,4.80388 7.98551,-1.4965 3.49602,1.42105 3.99904,-1.18211 4.08707,-2.32649 4.96737,-0.0503 8.38793,0.26409 5.40751,-1.97437 6.71538,2.96784 z"
           style="fill:none;stroke:#5d8fff;stroke-width:1.25756;stroke-opacity:1" />
        <path
           id="US-UT"
           title="Utah"
           class="land"
           d="m 473.39777,396.96194 -16.14708,112.99185 -32.78461,-5.21888 -43.3104,-7.49506 -36.31836,-6.52674 28.03103,-139.81563 62.57623,11.26774 -4.67812,27.40226 z"
           style="fill:none;stroke:#5d8fff;stroke-width:1.25756;stroke-opacity:1" />
        <path
           id="US-VA"
           title="Virginia"
           class="land"
           d="m 1156.769,424.54025 3.3703,0.30181 3.3199,1.4965 -0.9808,3.33254 4.9422,0.72938 4.7158,2.26361 2.3139,2.0121 0.239,1.65998 0.088,2.33906 -3.1691,3.40799 -1.1946,6.74053 3.2319,0.90544 3.32,-1.96179 2.1127,3.6595 17.2663,12.60076 7.2184,12.3744 0.4401,0.75454 10.312,15.85784 -24.0949,5.43267 -23.8056,5.16857 -45.1087,8.40051 -38.4939,5.23145 -11.4438,2.35164 -34.0045,3.94874 6.3633,-2.51512 4.4392,-2.41452 1.6348,-3.04329 5.7219,-4.25056 1.9744,-3.33254 0.2137,-2.36421 6.5519,-4.35116 7.7089,-9.78383 1.748,4.62783 2.9301,2.15043 3.7853,1.72286 6.5519,-4.5398 3.0307,1.53423 7.9981,-3.74754 0.063,-2.60315 2.7037,0.5659 2.4271,-2.52769 3.1942,-0.13833 3.1816,-2.79179 0.038,-2.65345 -0.9684,-3.18163 2.163,-5.39494 3.647,-4.42661 0.3521,-4.33859 2.8924,-5.6716 1.006,-6.48901 3.32,1.63483 3.6469,1.39589 2.9679,-1.67256 0.5784,-2.75406 1.5091,-3.88586 1.6851,-4.43919 1.8109,0.86772 2.5529,-4.23798 3.5715,-4.4895 2.163,-3.30738 0.2515,-7.7843 12.6133,5.35721 z m 49.485,49.66108 2.2762,0.65393 7.3945,-25.03804 -5.0177,1.59711 -1.2953,2.28876 z"
           style="fill:none;stroke:#5d8fff;stroke-width:1.25756;stroke-opacity:1" />
        <path
           id="US-VT"
           title="Vermont"
           class="land"
           d="m 1245.4145,304.00303 -16.9519,3.92359 -4.98,-23.07625 -2.9427,0.52818 -0.6413,-0.95575 0.2641,-4.35116 -3.6847,-6.79083 0.5533,-6.25008 -2.1755,-3.96131 -2.578,-8.12385 -0.1132,-3.78525 -1.0312,-5.73448 36.2555,-9.65807 0.038,0.0126 -0.2264,8.16158 2.5529,3.55889 0.1635,3.64693 -3.5589,4.42661 -3.4709,2.37679 0.063,2.86724 0.7419,4.57753 -0.6162,7.19324 -0.9934,2.85467 -0.7294,6.11174 1.0563,6.71538 -0.1635,1.89892 1.4337,7.38188 -0.654,4.01162 z"
           style="fill:none;stroke:#5d8fff;stroke-width:1.25756;stroke-opacity:1" />
        <path
           id="US-WA"
           title="Washington"
           class="land"
           d="m 356.67096,141.19918 -8.38793,35.9914 -8.65202,39.2359 0.77969,4.6907 -1.33301,4.94222 -40.2168,-9.6958 -7.72143,1.09408 -4.62782,-2.5277 -4.38889,1.24499 -8.03582,1.11923 -8.65201,-2.77921 -5.04282,1.00605 -4.33859,-0.16349 -2.64088,-2.31391 -6.57704,-3.16905 -4.6404,-0.38985 -8.33763,0.71681 -4.77873,-1.33301 -4.14995,-2.38937 -0.26409,-4.28828 0.89287,-4.76616 -1.9618,-6.3381 -5.06797,-3.28224 -3.86071,-3.93616 -5.77221,-1.9618 -4.06192,-0.86771 2.13786,-24.45957 5.44523,-27.43998 24.2332,13.14152 1.69771,24.17032 6.84113,-5.91054 3.81041,-23.60442 -1.78573,-25.51591 54.47754,15.82012 z"
           style="fill:none;stroke:#5d8fff;stroke-width:1.25756;stroke-opacity:1" />
        <path
           id="US-WI"
           title="Wisconsin"
           class="land"
           d="m 865.71912,253.93952 0.18864,0.13834 1.1821,-0.67909 0.0252,0.088 3.18163,0.75454 1.93664,5.06797 17.76934,3.91101 11.92167,4.26314 5.63388,-0.415 3.92359,0.0377 1.50907,4.61525 4.90448,1.39589 2.13785,3.86071 -1.01863,2.41452 -0.50302,4.72843 4.46434,-0.15091 -1.06892,4.74101 3.00557,3.13132 0.0126,-0.0503 0.54075,0.15091 -0.16348,0.28924 -7.02977,11.02881 3.06845,3.13132 13.17924,-19.80658 3.03072,-0.40242 -8.41308,23.00079 -2.79178,20.30961 -2.4774,16.48662 3.87329,13.71999 0.0754,6.99204 h -0.0754 l 0.0126,0.0755 -16.24767,1.14438 -22.01989,1.62225 -21.54202,1.38332 -2.30134,-4.23798 -7.02977,-2.35164 -1.5971,-4.46434 -0.99347,-2.50255 -0.38985,-5.99857 1.74801,-2.26361 -2.95526,-4.38888 -0.37727,-1.5468 -0.71681,-3.19421 -0.415,-6.87886 -0.79226,-2.32648 -7.19325,-3.88587 -5.42009,-4.67813 -1.58452,-3.01814 -2.38937,-1.83604 -6.80341,-3.79783 -2.45224,-0.16349 -6.17462,-5.29433 0.40242,-6.32553 -0.26409,-7.7843 1.28271,-7.26871 -4.42666,-5.23145 2.67865,-5.38236 4.1751,-2.91754 4.82904,-3.37027 h 0.62878 l -0.86772,-16.12193 5.156,-1.82346 v 0 l 19.50477,-6.97946 z"
           style="fill:none;stroke:#5d8fff;stroke-width:1.25756;stroke-opacity:1" />
        <path
           id="US-WV"
           title="West Virginia"
           class="land"
           d="m 1116.5648,420.75499 2.4271,14.27332 2.8798,-3.13133 3.1313,-3.92359 4.0997,-1.92407 2.339,-3.48344 6.6148,-0.11318 1.9618,-2.54028 3.7475,-2.93011 7.1304,0.88029 3.4457,3.45829 2.4271,3.21936 -1.3707,5.74705 -12.6134,-5.35721 -0.2515,7.7843 -2.163,3.30739 -3.5714,4.48949 -2.5529,4.23798 -1.8109,-0.86771 -1.6977,4.42661 -1.5091,3.89844 -0.5784,2.74148 -2.9553,1.67256 -3.6595,-1.39589 -3.32,-1.63483 -1.006,6.48901 -2.8924,5.6716 -0.3521,4.33859 -3.6344,4.42661 -2.1756,5.39494 0.9432,3.23193 -0.038,2.65345 -3.1691,2.79179 -3.1942,0.13833 -2.4271,2.5277 -2.7037,-0.57848 -0.063,2.60315 -7.9981,3.74753 -3.0307,-1.5468 -6.5519,4.5398 -3.7727,-1.72286 -2.9427,-2.15043 -1.7354,-4.62783 -4.4518,0.15091 -2.7666,-3.06845 -3.823,-3.16905 -1.7229,-4.11222 -3.3199,-4.01162 -0.6288,-5.87281 -0.8174,-2.61573 5.3949,-1.5468 2.2888,-4.35116 -0.6036,-6.30038 2.163,-6.58962 3.081,0.22636 0.7671,3.0936 1.7857,-1.42104 0.2515,-2.85467 0.088,-5.21888 4.1122,-5.62129 2.7415,0.20121 2.8169,-1.27014 2.3014,-1.78574 4.8541,-7.40703 -0.1257,-2.95527 1.0815,-6.42614 0.9809,-7.69627 -0.1006,-6.6525 -1.5217,-3.42056 2.7289,-1.9115 4.4518,25.86803 z"
           style="fill:none;stroke:#5d8fff;stroke-width:1.25756;stroke-opacity:1" />
        <path
           id="US-WY"
           title="Wyoming"
           class="land"
           d="m 590.48928,294.35753 -4.65298,58.27538 -4.87934,56.81661 -21.56717,-2.02468 -43.04631,-4.75358 -21.47914,-2.74148 -21.46657,-2.96784 -42.63131,-7.39446 4.67812,-27.40226 11.74562,-70.18448 -0.64135,-0.62878 0.54075,-0.94317 2.31391,-14.38649 39.61317,5.98599 31.32585,4.59009 36.40639,4.13738 z"
           style="fill:none;stroke:#5d8fff;stroke-width:1.25756;stroke-opacity:1" />
      </g>
    </g>
  </g>
  <g
     inkscape:groupmode="layer"
     id="layer2"
     inkscape:label="Layer 2">
    <path
       style="fill:none;stroke:#000000;stroke-width:0.115905px;stroke-linecap:butt;stroke-linejoin:miter;stroke-opacity:1"
       d="m 35.931442,16.680586 c 7.148582,-3.521855 25.514377,-7.7802308 40.727977,-5.670261 16.899536,2.343792 30.407561,11.575734 30.923331,17.775938"
       id="path4932"
       sodipodi:nodetypes="csc" />
  </g>
  <g
     inkscape:groupmode="layer"
     id="layer5"
     inkscape:label="Layer 3">
    <rect
       style="fill:none;fill-opacity:0.376518;stroke:#000000;stroke-width:0.470621;stop-color:#000000"
       id="rect5987"
       width="139.52937"
       height="215.52937"
       x="0.23531269"
       y="0.2353114"
       ry="0" />
  </g>
</svg>
