<?xml version="1.0" encoding="utf-8" ?>
<svg xmlns="http://www.w3.org/2000/svg" xmlns:cc="http://creativecommons.org/ns#" xmlns:dc="http://purl.org/dc/elements/1.1/" xmlns:ev="http://www.w3.org/2001/xml-events" xmlns:inkscape="http://www.inkscape.org/namespaces/inkscape" xmlns:rdf="http://www.w3.org/1999/02/22-rdf-syntax-ns#" xmlns:sodipodi="http://sodipodi.sourceforge.net/DTD/sodipodi-0.dtd" xmlns:xlink="http://www.w3.org/1999/xlink" baseProfile="tiny" height="27.94001509cm" version="1.2" viewBox="0 0 1632.00088128 1056.0005702400001" width="43.18002332cm">
  <metadata>
    <rdf:RDF>
      <cc:Work>
        <dc:format>image/svg+xml</dc:format>
        <dc:source>vpype read /Users/cj/Documents/Projects/greeting-cards-2021/outside/11x17/individual/outside-11x17-one-per-page-11x17-layer1-left-top.svg read /Users/cj/Documents/Projects/greeting-cards-2021/outside/11x17/individual/outside-11x17-one-per-page-11x17-layer1-left-bottom.svg read /Users/cj/Documents/Projects/greeting-cards-2021/outside/11x17/individual/outside-11x17-one-per-page-11x17-layer1-right-top.svg read /Users/cj/Documents/Projects/greeting-cards-2021/outside/11x17/individual/outside-11x17-one-per-page-11x17-layer1-right-bottom.svg linesort write /Users/cj/Documents/Projects/greeting-cards-2021/outside/11x17/combined/outside-11x17-combined-layer1.svg
</dc:source>
        <dc:date>2022-02-09T18:47:51.152191</dc:date>
      </cc:Work>
    </rdf:RDF>
  </metadata>
  <defs/>
  <g fill="none" id="layer1" inkscape:groupmode="layer" inkscape:label="1" stroke="#00f" style="display:inline">
    <polyline points="324.7808,282.2254 296.6808,267.9704 287.6118,267.2331 285.0312,269.0355 285.2852,275.2617 289.1602,284.2735 295.0997,290.7455 300.5313,294.5959 317.5715,302.2968 323.2243,301.0679 325.0266,297.4633 324.535,292.5478 321.1762,287.3866 306.184,272.1486 288.9062,257.9761 285.2852,251.5041 284.5151,246.3428 287.6118,242.9839 291.7408,242.4924 297.6639,244.0489 323.47,258.4676 301.842,245.032 293.5513,237.5769 286.5796,229.3026 284.5151,222.5848 287.6118,218.4886 291.7408,217.997 299.4662,219.7994 304.8732,222.9125 286.5796,206.6096 283.7368,197.0244 285.2852,194.239 288.644,192.6825 294.5836,192.6825 302.5794,194.4848 320.6846,203.7422 333.0552,215.1297 337.6429,221.3068 339.4453,228.0164 337.3972,230.851 334.8575,231.3671 330.1878,229.0486 321.4219,217.1778 313.1476,198.3352 309.7887,186.702 305.9382,164.5005 303.6444,156.5539 300.2855,150.0819 295.6158,145.9856 290.7085,144.6749 285.8013,146.9687 283.7368,151.8842 284.5151,157.8647 288.3901,164.009 303.3167,175.1507 330.1878,190.0609 338.7079,201.4483 337.3972,199.1545 336.4141,189.5693 338.4622,179.2469 338.2164,173.5941 335.1033,168.9244 331.2528,166.8763 326.3374,166.3029"/>
    <polyline points="304.8732,222.9125 312.4103,226.7629 318.5546,232.9073 324.2893,242.2466 324.535,249.7017 321.6677,252.5691 315.7692,252.5691 309.7887,250.521"/>
    <line x1="306.184" x2="267.5157" y1="272.1486" y2="251.2333"/>
    <polyline points="267.5157,291.4589 306.184,312.3741 321.1762,327.612 324.535,332.7732 325.0266,337.6887 323.2243,341.2934 317.5715,342.5222 300.5313,334.8214 295.0997,330.9709 289.1602,324.4989 286.5796,319.5834 285.0312,309.261 287.6118,307.4587 296.6808,308.196 324.7808,322.4508"/>
    <polyline points="323.9616,361.856 292.773,346.3723 288.1279,346.1266 285.8013,347.9289 284.5151,351.2878 285.8013,356.2032 289.1602,361.3645 295.8616,368.328 310.3622,380.207 323.9616,387.6621 273.9058,359.3164 269.8096,355.1382 267.7615,350.3047 267.188,344.8485 267.7615,340.1952 270.8746,337.3607 274.725,337.1026 276.2816,338.909 274.725,340.9735 273.4142,340.1952"/>
    <polyline points="227.5564,327.1544 223.2144,327.9737 211.8269,324.6148 198.1783,316.3405 192.7549,310.6877 188.3638,302.1676 188.626,299.0544 190.4324,296.6786 193.7872,295.9413 197.9162,296.6786 227.5564,312.49 204.126,299.3002 198.9648,294.8763 191.4646,287.1754 188.1098,277.918 189.3961,275.0505 191.9849,273.494 199.4563,274.559 227.5564,289.7151"/>
    <polyline points="207.4849,278.1638 197.4,269.6436 191.2066,261.615 188.3638,253.4226 188.626,246.7048 192.501,242.5267 198.6945,241.7893 206.9115,244.329 207.4849,243.0182 194.5573,232.6957 189.3961,226.7972 187.8559,221.3902 188.3638,216.4748 190.4324,214.4266 197.1461,214.6724 233.7826,233.515 238.9438,233.515 241.5654,231.4669 241.8112,222.701 235.0934,214.1809 224.5252,204.5957 189.1421,184.1966 230.4237,206.6438 240.7462,208.2004 242.5485,204.8415 241.5654,199.6803 237.633,195.3383 226.819,187.5555"/>
    <polyline points="206.9115,244.329 216.005,248.9987 224.7709,256.4538 229.1129,264.9739 227.8841,271.4459 223.7059,273.0025 218.2989,271.2001 214.4485,266.7762 211.8269,261.3692 207.4849,245.8856"/>
    <polyline points="115.079,232.8872 119.421,248.3709 122.0426,253.7779 125.893,258.2018 131.3,260.0041 135.4782,258.4475 136.707,251.9755 132.365,243.4554 123.5991,236.0003 114.5056,231.3306"/>
    <polyline points="116.0621,266.7218 123.5991,270.5723 129.7435,276.7166 135.4782,286.0561 135.7239,293.5112 132.8566,296.3785 126.958,296.3785 120.9776,294.3304"/>
    <polyline points="116.3079,315.9587 96.7362,304.5876 135.4782,325.4619"/>
    <polyline points="132.1193,340.2083 130.3169,338.6517 129.4977,339.389 130.3169,341.7648 133.1024,342.5022 136.4612,340.4541 133.9216,332.7532 100.0951,301.7855 96.474,295.3135 95.7039,290.1523 98.8007,286.7934 102.9297,286.3018 108.8528,287.8584 134.6589,302.2771 113.0309,288.8415 104.7402,281.3864 97.7684,273.1119 95.7039,266.3942 98.8007,262.2979 102.9297,261.8064 110.6551,263.6087 116.0621,266.7218 104.9941,256.6452 98.8007,248.6166 95.9579,240.4242 96.2201,233.7064 100.0951,229.5283 106.2886,228.791 115.079,230.8391 104.478,221.7455 99.3168,213.5531 95.45,184.6338 90.7966,169.3959 86.6512,165.783 83.0465,165.783 79.4419,168.9044 78.7046,172.2632 78.9503,177.4245 80.7527,182.5857 89.5186,193.1539 95.1878,197.7417 147.6029,227.4802 121.551,211.423 109.672,200.609 105.5103,194.9563 104.478,189.795 108.1155,185.3711 112.2117,184.6338 118.9295,186.9277 135.9697,197.4959 143.4248,200.609 148.0945,200.8548 149.8968,198.8067 150.1426,194.4647 148.3403,190.7781 144.7356,186.4361 133.9216,178.981"/>
    <polyline points="133.9216,711.3991 144.7356,718.8542 148.3403,723.1961 150.1426,726.8827 149.8968,731.2247 148.0945,733.2728 143.4248,733.0271 135.9697,729.9139 118.9295,719.3457 112.2117,717.0518 108.1155,717.7891 104.478,722.2131 105.5103,727.3743 109.672,733.0271 121.551,743.8411 147.6029,759.8982 95.1878,730.1597 89.5186,725.5719 80.7527,715.0037 78.9503,709.8425 78.7046,704.6813 79.4419,701.3224 83.0465,698.2011 86.6512,698.2011 90.7966,701.8139 95.45,717.0518 99.3168,745.9711 104.478,754.1635 115.079,763.2571 106.2886,761.209 100.0951,761.9463 96.2201,766.1245 95.9579,772.8422 98.8007,781.0347 104.9941,789.0632 116.0621,799.1399 110.6551,796.0267 102.9297,794.2244 98.8007,794.716 95.7039,798.8122 97.7684,805.53 104.7402,813.8043 113.0309,821.2594 134.6589,834.6951 108.8528,820.2763 102.9297,818.7198 98.8007,819.2113 95.7039,822.5702 96.474,827.7314 100.0951,834.2035 133.9216,865.1712 136.4612,872.8721 133.1024,874.9202 130.3169,874.1829 129.4977,871.8071 130.3169,871.0697 132.1193,872.6263"/>
    <polyline points="135.4782,857.8799 96.7362,837.0057 116.3079,848.3767"/>
    <polyline points="120.9776,826.7483 126.958,828.7964 132.8566,828.7964 135.7239,825.9291 135.4782,818.474 129.7435,809.1346 123.5991,802.9903 116.0621,799.1399"/>
    <polyline points="115.079,765.3052 119.421,780.7889 122.0426,786.1959 125.893,790.6198 131.3,792.4221 135.4782,790.8656 136.707,784.3936 132.365,775.8734 123.5991,768.4183 114.5056,763.7486"/>
    <polyline points="206.9115,776.747 216.005,781.4167 224.7709,788.8718 229.1129,797.3919 227.8841,803.8639 223.7059,805.4205 218.2989,803.6182 214.4485,799.1943 211.8269,793.7873 207.4849,778.3036"/>
    <polyline points="207.4849,810.5817 197.4,802.0616 191.2066,794.033 188.3638,785.8406 188.626,779.1228 192.501,774.9447 198.6945,774.2074 206.9115,776.747 207.4849,775.4362 194.5573,765.1138 189.3961,759.2152 187.8559,753.8082 188.3638,748.8928 190.4324,746.8447 197.1461,747.0904 233.7826,765.933 238.9438,765.933 241.5654,763.8849 241.8112,755.119 235.0934,746.5989 224.5252,737.0138 189.1421,716.6146 230.4237,739.0619 240.7462,740.6184 242.5485,737.2595 241.5654,732.0983 237.633,727.7563 226.819,719.9735"/>
    <line x1="267.5157" x2="306.184" y1="783.6513" y2="804.5666"/>
    <polyline points="324.7808,814.6433 296.6808,800.3885 287.6118,799.6512 285.0312,801.4535 285.2852,807.6797 289.1602,816.6914 295.0997,823.1634 300.5313,827.0138 317.5715,834.7148 323.2243,833.486 325.0266,829.8812 324.535,824.9657 321.1762,819.8045 306.184,804.5666 288.9062,790.3941 285.2852,783.9221 284.5151,778.7608 287.6118,775.402 291.7408,774.9104 297.6639,776.467 323.47,790.8856 301.842,777.4501 293.5513,769.995 286.5796,761.7206 284.5151,755.0028 287.6118,750.9066 291.7408,750.4151 299.4662,752.2174 304.8732,755.3305 286.5796,739.0276 283.7368,729.4425 285.2852,726.657 288.644,725.1005 294.5836,725.1005 302.5794,726.9028 320.6846,736.1602 333.0552,747.5477 337.6429,753.7248 339.4453,760.4344 337.3972,763.269 334.8575,763.7851 330.1878,761.4666 321.4219,749.5958 313.1476,730.7532 309.7887,719.12 305.9382,696.9185 303.6444,688.9719 300.2855,682.4999 295.6158,678.4037 290.7085,677.0929 285.8013,679.3868 283.7368,684.3022 284.5151,690.2827 288.3901,696.427 303.3167,707.5687 330.1878,722.4789 338.7079,733.8664 337.3972,731.5725 336.4141,721.9874 338.4622,711.6649 338.2164,706.0121 335.1033,701.3424 331.2528,699.2943 326.3374,698.7209"/>
    <polyline points="304.8732,755.3305 312.4103,759.181 318.5546,765.3253 324.2893,774.6646 324.535,782.1197 321.6677,784.9871 315.7692,784.9871 309.7887,782.939"/>
    <polyline points="267.5157,823.8768 306.184,844.7921 321.1762,860.03 324.535,865.1913 325.0266,870.1067 323.2243,873.7114 317.5715,874.9402 300.5313,867.2394 295.0997,863.3889 289.1602,856.9169 286.5796,852.0015 285.0312,841.679 287.6118,839.8767 296.6808,840.614 324.7808,854.8688"/>
    <polyline points="323.9616,894.274 292.773,878.7903 288.1279,878.5446 285.8013,880.3469 284.5151,883.7058 285.8013,888.6213 289.1602,893.7825 295.8616,900.746 310.3622,912.6251 323.9616,920.0802 273.9058,891.7344 269.8096,887.5562 267.7615,882.7227 267.188,877.2666 267.7615,872.6133 270.8746,869.7787 274.725,869.5206 276.2816,871.3271 274.725,873.3915 273.4142,872.6133"/>
    <polyline points="227.5564,859.5725 223.2144,860.3917 211.8269,857.0328 198.1783,848.7585 192.7549,843.1057 188.3638,834.5856 188.626,831.4724 190.4324,829.0966 193.7872,828.3592 197.9162,829.0966 227.5564,844.908 204.126,831.7181 198.9648,827.2942 191.4646,819.5933 188.1098,810.3359 189.3961,807.4686 191.9849,805.912 199.4563,806.977 227.5564,822.133"/>
    <polyline points="933.4565,799.1399 940.9936,802.9903 947.1379,809.1346 952.8726,818.474 953.1183,825.9291 950.251,828.7964 944.3525,828.7964 938.372,826.7483"/>
    <polyline points="933.7023,848.3767 914.1306,837.0057 952.8726,857.8799"/>
    <polyline points="949.5137,872.6263 947.7113,871.0697 946.8921,871.8071 947.7113,874.1829 950.4968,874.9202 953.8557,872.8721 951.316,865.1712 917.4895,834.2035 913.8684,827.7314 913.0984,822.5702 916.1951,819.2113 920.3241,818.7198 926.2472,820.2763 952.0533,834.6951 930.4253,821.2594 922.1346,813.8043 915.1628,805.53 913.0984,798.8122 916.1951,794.716 920.3241,794.2244 928.0495,796.0267 933.4565,799.1399 922.3886,789.0632 916.1951,781.0347 913.3523,772.8422 913.6145,766.1245 917.4895,761.9463 923.683,761.209 932.4734,763.2571 921.8724,754.1635 916.7112,745.9711 912.8444,717.0518 908.1911,701.8139 904.0457,698.2011 900.4411,698.2011 896.8364,701.3224 896.0991,704.6813 896.3449,709.8425 898.1472,715.0037 906.9131,725.5719 912.5822,730.1597 964.9974,759.8982 938.9455,743.8411 927.0664,733.0271 922.9047,727.3743 921.8724,722.2131 925.5099,717.7891 929.6061,717.0518 936.3239,719.3457 953.3641,729.9139 960.8192,733.0271 965.4889,733.2728 967.2912,731.2247 967.537,726.8827 965.7347,723.1961 962.13,718.8542 951.316,711.3991"/>
    <polyline points="931.9,763.7486 940.9936,768.4183 949.7595,775.8734 954.1014,784.3936 952.8726,790.8656 948.6944,792.4221 943.2874,790.6198 939.437,786.1959 936.8154,780.7889 932.4734,765.3052"/>
    <polyline points="1024.306,776.747 1033.3996,781.4167 1042.1655,788.8718 1046.5074,797.3919 1045.2786,803.8639 1041.1004,805.4205 1035.6934,803.6182 1031.843,799.1943 1029.2214,793.7873 1024.8794,778.3036"/>
    <polyline points="1024.8794,810.5817 1014.7945,802.0616 1008.601,794.033 1005.7582,785.8406 1006.0204,779.1228 1009.8954,774.9447 1016.0889,774.2074 1024.306,776.747 1024.8794,775.4362 1011.9517,765.1138 1006.7905,759.2152 1005.2503,753.8082 1005.7582,748.8928 1007.8268,746.8447 1014.5405,747.0904 1051.1771,765.933 1056.3383,765.933 1058.9599,763.8849 1059.2057,755.119 1052.4879,746.5989 1041.9197,737.0138 1006.5365,716.6146 1047.8182,739.0619 1058.1407,740.6184 1059.943,737.2595 1058.9599,732.0983 1055.0276,727.7563 1044.2136,719.9735"/>
    <line x1="1084.9102" x2="1123.5784" y1="783.6513" y2="804.5666"/>
    <polyline points="1142.1752,814.6433 1114.0752,800.3885 1105.0062,799.6512 1102.4256,801.4535 1102.6796,807.6797 1106.5546,816.6914 1112.4941,823.1634 1117.9257,827.0138 1134.9659,834.7148 1140.6187,833.486 1142.421,829.8812 1141.9295,824.9657 1138.5706,819.8045 1123.5784,804.5666 1106.3006,790.3941 1102.6796,783.9221 1101.9095,778.7608 1105.0062,775.402 1109.1352,774.9104 1115.0583,776.467 1140.8645,790.8856 1119.2365,777.4501 1110.9457,769.995 1103.974,761.7206 1101.9095,755.0028 1105.0062,750.9066 1109.1352,750.4151 1116.8607,752.2174 1122.2677,755.3305 1103.974,739.0276 1101.1312,729.4425 1102.6796,726.657 1106.0385,725.1005 1111.978,725.1005 1119.9738,726.9028 1138.079,736.1602 1150.4496,747.5477 1155.0373,753.7248 1156.8397,760.4344 1154.7916,763.269 1152.2519,763.7851 1147.5822,761.4666 1138.8163,749.5958 1130.542,730.7532 1127.1831,719.12 1123.3327,696.9185 1121.0388,688.9719 1117.6799,682.4999 1113.0102,678.4037 1108.103,677.0929 1103.1957,679.3868 1101.1312,684.3022 1101.9095,690.2827 1105.7845,696.427 1120.7111,707.5687 1147.5822,722.4789 1156.1024,733.8664 1154.7916,731.5725 1153.8085,721.9874 1155.8566,711.6649 1155.6108,706.0121 1152.4977,701.3424 1148.6473,699.2943 1143.7318,698.7209"/>
    <polyline points="1122.2677,755.3305 1129.8047,759.181 1135.949,765.3253 1141.6837,774.6646 1141.9295,782.1197 1139.0621,784.9871 1133.1636,784.9871 1127.1831,782.939"/>
    <polyline points="1084.9102,823.8768 1123.5784,844.7921 1138.5706,860.03 1141.9295,865.1913 1142.421,870.1067 1140.6187,873.7114 1134.9659,874.9402 1117.9257,867.2394 1112.4941,863.3889 1106.5546,856.9169 1103.974,852.0015 1102.4256,841.679 1105.0062,839.8767 1114.0752,840.614 1142.1752,854.8688"/>
    <polyline points="1141.356,894.274 1110.1674,878.7903 1105.5223,878.5446 1103.1957,880.3469 1101.9095,883.7058 1103.1957,888.6213 1106.5546,893.7825 1113.256,900.746 1127.7566,912.6251 1141.356,920.0802 1091.3003,891.7344 1087.2041,887.5562 1085.156,882.7227 1084.5825,877.2666 1085.156,872.6133 1088.2691,869.7787 1092.1195,869.5206 1093.6761,871.3271 1092.1195,873.3915 1090.8087,872.6133"/>
    <polyline points="1044.9509,859.5725 1040.6089,860.3917 1029.2214,857.0328 1015.5727,848.7585 1010.1494,843.1057 1005.7582,834.5856 1006.0204,831.4724 1007.8268,829.0966 1011.1816,828.3592 1015.3106,829.0966 1044.9509,844.908 1021.5205,831.7181 1016.3592,827.2942 1008.8591,819.5933 1005.5043,810.3359 1006.7905,807.4686 1009.3793,805.912 1016.8508,806.977 1044.9509,822.133"/>
    <polyline points="1141.356,361.856 1110.1674,346.3723 1105.5223,346.1266 1103.1957,347.9289 1101.9095,351.2878 1103.1957,356.2032 1106.5546,361.3645 1113.256,368.328 1127.7566,380.207 1141.356,387.6621 1091.3003,359.3164 1087.2041,355.1382 1085.156,350.3047 1084.5825,344.8485 1085.156,340.1952 1088.2691,337.3607 1092.1195,337.1026 1093.6761,338.909 1092.1195,340.9735 1090.8087,340.1952"/>
    <polyline points="1044.9509,327.1544 1040.6089,327.9737 1029.2214,324.6148 1015.5727,316.3405 1010.1494,310.6877 1005.7582,302.1676 1006.0204,299.0544 1007.8268,296.6786 1011.1816,295.9413 1015.3106,296.6786 1044.9509,312.49 1021.5205,299.3002 1016.3592,294.8763 1008.8591,287.1754 1005.5043,277.918 1006.7905,275.0505 1009.3793,273.494 1016.8508,274.559 1044.9509,289.7151"/>
    <polyline points="1024.8794,278.1638 1014.7945,269.6436 1008.601,261.615 1005.7582,253.4226 1006.0204,246.7048 1009.8954,242.5267 1016.0889,241.7893 1024.306,244.329 1024.8794,243.0182 1011.9517,232.6957 1006.7905,226.7972 1005.2503,221.3902 1005.7582,216.4748 1007.8268,214.4266 1014.5405,214.6724 1051.1771,233.515 1056.3383,233.515 1058.9599,231.4669 1059.2057,222.701 1052.4879,214.1809 1041.9197,204.5957 1006.5365,184.1966 1047.8182,206.6438 1058.1407,208.2004 1059.943,204.8415 1058.9599,199.6803 1055.0276,195.3383 1044.2136,187.5555"/>
    <polyline points="1024.306,244.329 1033.3996,248.9987 1042.1655,256.4538 1046.5074,264.9739 1045.2786,271.4459 1041.1004,273.0025 1035.6934,271.2001 1031.843,266.7762 1029.2214,261.3692 1024.8794,245.8856"/>
    <line x1="1084.9102" x2="1123.5784" y1="251.2333" y2="272.1486"/>
    <polyline points="1142.1752,282.2254 1114.0752,267.9704 1105.0062,267.2331 1102.4256,269.0355 1102.6796,275.2617 1106.5546,284.2735 1112.4941,290.7455 1117.9257,294.5959 1134.9659,302.2968 1140.6187,301.0679 1142.421,297.4633 1141.9295,292.5478 1138.5706,287.3866 1123.5784,272.1486 1106.3006,257.9761 1102.6796,251.5041 1101.9095,246.3428 1105.0062,242.9839 1109.1352,242.4924 1115.0583,244.0489 1140.8645,258.4676 1119.2365,245.032 1110.9457,237.5769 1103.974,229.3026 1101.9095,222.5848 1105.0062,218.4886 1109.1352,217.997 1116.8607,219.7994 1122.2677,222.9125 1103.974,206.6096 1101.1312,197.0244 1102.6796,194.239 1106.0385,192.6825 1111.978,192.6825 1119.9738,194.4848 1138.079,203.7422 1150.4496,215.1297 1155.0373,221.3068 1156.8397,228.0164 1154.7916,230.851 1152.2519,231.3671 1147.5822,229.0486 1138.8163,217.1778 1130.542,198.3352 1127.1831,186.702 1123.3327,164.5005 1121.0388,156.5539 1117.6799,150.0819 1113.0102,145.9856 1108.103,144.6749 1103.1957,146.9687 1101.1312,151.8842 1101.9095,157.8647 1105.7845,164.009 1120.7111,175.1507 1147.5822,190.0609 1156.1024,201.4483 1154.7916,199.1545 1153.8085,189.5693 1155.8566,179.2469 1155.6108,173.5941 1152.4977,168.9244 1148.6473,166.8763 1143.7318,166.3029"/>
    <polyline points="1122.2677,222.9125 1129.8047,226.7629 1135.949,232.9073 1141.6837,242.2466 1141.9295,249.7017 1139.0621,252.5691 1133.1636,252.5691 1127.1831,250.521"/>
    <polyline points="1084.9102,291.4589 1123.5784,312.3741 1138.5706,327.612 1141.9295,332.7732 1142.421,337.6887 1140.6187,341.2934 1134.9659,342.5222 1117.9257,334.8214 1112.4941,330.9709 1106.5546,324.4989 1103.974,319.5834 1102.4256,309.261 1105.0062,307.4587 1114.0752,308.196 1142.1752,322.4508"/>
    <polyline points="952.8726,325.4619 914.1306,304.5876 933.7023,315.9587"/>
    <polyline points="938.372,294.3304 944.3525,296.3785 950.251,296.3785 953.1183,293.5112 952.8726,286.0561 947.1379,276.7166 940.9936,270.5723 933.4565,266.7218"/>
    <polyline points="932.4734,232.8872 936.8154,248.3709 939.437,253.7779 943.2874,258.2018 948.6944,260.0041 952.8726,258.4475 954.1014,251.9755 949.7595,243.4554 940.9936,236.0003 931.9,231.3306"/>
    <polyline points="951.316,178.981 962.13,186.4361 965.7347,190.7781 967.537,194.4647 967.2912,198.8067 965.4889,200.8548 960.8192,200.609 953.3641,197.4959 936.3239,186.9277 929.6061,184.6338 925.5099,185.3711 921.8724,189.795 922.9047,194.9563 927.0664,200.609 938.9455,211.423 964.9974,227.4802 912.5822,197.7417 906.9131,193.1539 898.1472,182.5857 896.3449,177.4245 896.0991,172.2632 896.8364,168.9044 900.4411,165.783 904.0457,165.783 908.1911,169.3959 912.8444,184.6338 916.7112,213.5531 921.8724,221.7455 932.4734,230.8391 923.683,228.791 917.4895,229.5283 913.6145,233.7064 913.3523,240.4242 916.1951,248.6166 922.3886,256.6452 933.4565,266.7218 928.0495,263.6087 920.3241,261.8064 916.1951,262.2979 913.0984,266.3942 915.1628,273.1119 922.1346,281.3864 930.4253,288.8415 952.0533,302.2771 926.2472,287.8584 920.3241,286.3018 916.1951,286.7934 913.0984,290.1523 913.8684,295.3135 917.4895,301.7855 951.316,332.7532 953.8557,340.4541 950.4968,342.5022 947.7113,341.7648 946.8921,339.389 947.7113,338.6517 949.5137,340.2083"/>
  </g>
</svg>
